<?xml version="1.0" standalone="no"?>
<!DOCTYPE svg PUBLIC "-//W3C//DTD SVG 1.1//EN" "http://www.w3.org/Graphics/SVG/1.1/DTD/svg11.dtd" >
<svg xmlns="http://www.w3.org/2000/svg">
<metadata>
Created by FontPrep 20130207 at Thu Jun 25 06:04:51 2015
 By Rezki Bangsawan
Copyright (c) 1989, 1995, 2002 Adobe Systems Incorporated.  All Rights Reserved.
</metadata>
<defs>
<font id="884b7ea0e327fff4473c5eab1c1b8532" horiz-adv-x='1024' >
  <font-face 
    font-family="FolioStd-Light"
    font-weight="300"
    font-stretch="normal"
    units-per-em="2048"
    panose-1="2 11 4 3 3 5 2 2 2 4"
    ascent="1462"
    descent="-586"
    x-height="946"
    cap-height="1462"
    bbox="-342 -512 2048 1944"
    underline-thickness="102"
    underline-position="-102"
    unicode-range="U+0020-FB02"
  />
<missing-glyph horiz-adv-x="1024" 
d="M102 1239v-1044l349 522zM164 102h696l-348 523zM573 717l349 -522v1044zM512 809l348 522h-696zM0 0v1434h1024v-1434h-1024z" />
    <glyph glyph-name="fi" unicode="fi" horiz-adv-x="985" 
d="M168 0v836h-129v110h129v205q0 184 66 264q67 80 215 80q78 0 149 -25v-137q-82 39 -129 39q-82 0 -118 -58t-36 -188v-180h285v-110h-285v-836h-147zM682 1143v160h160v-160h-160zM688 0v946h148v-946h-148z" />
    <glyph glyph-name="fl" unicode="fl" horiz-adv-x="985" 
d="M168 0v836h-129v110h129v205q0 184 66 264q67 80 215 80q78 0 149 -25v-137q-82 39 -129 39q-82 0 -118 -58t-36 -188v-180h285v-110h-285v-836h-147zM688 0v1462h148v-1462h-148z" />
    <glyph glyph-name=".notdef" horiz-adv-x="1024" 
d="M102 1239v-1044l349 522zM164 102h696l-348 523zM573 717l349 -522v1044zM512 809l348 522h-696zM0 0v1434h1024v-1434h-1024z" />
    <glyph glyph-name=".null" horiz-adv-x="0" 
 />
    <glyph glyph-name="nonmarkingreturn" horiz-adv-x="681" 
 />
    <glyph glyph-name="space" unicode=" " horiz-adv-x="569" 
 />
    <glyph glyph-name="exclam" unicode="!" horiz-adv-x="569" 
d="M205 160h160v-160h-160v160zM199 1360h172l-41 -1053h-90z" />
    <glyph glyph-name="quotedbl" unicode="&#x22;" horiz-adv-x="681" 
d="M403 905v557h119v-557h-119zM160 905v557h119v-557h-119z" />
    <glyph glyph-name="numbersign" unicode="#" 
d="M733 838h-268l-41 -299h268zM991 539l6 -99h-211l-61 -440h-111l64 440h-268l-60 -440h-110l63 440h-213l-6 99h231l43 299h-211l-6 98h230l61 440h111l-64 -440h269l59 440h111l-64 -440h195l6 -98h-213l-41 -299h190z" />
    <glyph glyph-name="dollar" unicode="$" 
d="M504 1608h127v-199q172 -8 299 -103t143 -257h-151q-16 123 -116 176t-239 53q-138 0 -242 -48q-57 -26 -91 -75t-33 -115q0 -94 93 -146t227 -78t267 -60q132 -34 226 -126q94 -91 94 -245q0 -190 -140 -300t-337 -118v-254h-127v254q-211 10 -342 123t-152 316h162
q23 -158 128 -233q104 -75 260 -75t277 72q120 72 119 207q0 84 -50 140t-130 84t-255 64t-274 80q-198 89 -198 277t134 282q135 93 321 105v199z" />
    <glyph glyph-name="percent" unicode="%" horiz-adv-x="1820" 
d="M1352 -33q-127 0 -200 110q-73 109 -73 263t73 264t200 109q128 0 200 -110q72 -111 72 -265t-72 -262t-200 -109zM467 664q-127 0 -200 110t-73 262q0 154 74 264q72 110 199 109q127 0 200 -110q73 -111 73 -265t-74 -262q-72 -108 -199 -108zM1352 70q162 0 161 270
q1 270 -161 270t-162 -270t162 -270zM1337 1358l-796 -1391l-84 51l796 1391zM467 766q162 0 162 270t-162 271q-162 -1 -162 -271t162 -270z" />
    <glyph glyph-name="ampersand" unicode="&#x26;" horiz-adv-x="1175" 
d="M694 1106q0 62 -41 101q-41 38 -105 38t-108 -48q-43 -49 -43 -105t37 -115t80 -100q102 71 141 119t39 110zM272 385q0 -131 92 -207t187 -76q176 1 289 138l-361 452q-67 -51 -105 -86t-70 -94t-32 -127zM557 -29q-180 0 -306 114t-126 298q0 244 270 418
q-73 85 -109 151t-36 152q0 125 89 199q89 73 215 73t203 -70t77 -196q0 -162 -140 -271q-26 -22 -92 -73l322 -414q49 104 59 195h139q-27 -180 -114 -303l192 -244h-176l-104 135q-135 -164 -363 -164z" />
    <glyph glyph-name="quotesingle" unicode="'" horiz-adv-x="454" 
d="M168 905v557h119v-557h-119z" />
    <glyph glyph-name="parenleft" unicode="(" horiz-adv-x="645" 
d="M238 731q0 -500 317 -592v-139q-237 53 -351 255t-114 476t114 476t351 255v-139q-317 -92 -317 -592z" />
    <glyph glyph-name="parenright" unicode=")" horiz-adv-x="645" 
d="M555 731q1 -274 -113 -476t-352 -255v139q317 92 318 592q0 500 -318 592v139q238 -53 352 -255t113 -476z" />
    <glyph glyph-name="asterisk" unicode="*" horiz-adv-x="757" 
d="M35 1257l92 60l229 -154l-69 273l96 71l84 -75l-74 -263l236 148l94 -70l-45 -106l-270 -15l204 -170l-39 -100l-108 4l-94 250l-103 -250l-118 -4l-27 115l215 162l-268 14z" />
    <glyph glyph-name="plus" unicode="+" horiz-adv-x="1228" 
d="M141 418v110h418v418h111v-418h417v-110h-417v-418h-111v418h-418z" />
    <glyph glyph-name="comma" unicode="," horiz-adv-x="569" 
d="M197 0v176h176v-82q0 -158 -64 -291h-108q53 82 67 197h-71z" />
    <glyph glyph-name="hyphen" unicode="-" horiz-adv-x="606" 
d="M100 412v123h404v-123h-404z" />
    <glyph glyph-name="period" unicode="." horiz-adv-x="569" 
d="M197 0v176h176v-176h-176z" />
    <glyph glyph-name="slash" unicode="/" horiz-adv-x="909" 
d="M184 -45h-127l668 1552h127z" />
    <glyph glyph-name="zero" unicode="0" 
d="M78 688q0 344 135 532t356 189q221 0 357 -188q136 -189 135 -533q0 -344 -135 -532q-134 -188 -356 -188t-357 188t-135 532zM229 688q1 -262 95 -426t246 -164t245 164q94 164 94 426t-94 426t-246 164t-246 -164t-94 -426z" />
    <glyph glyph-name="one" unicode="1" 
d="M678 1376v-1376h-152v1151l-180 -188l-80 88l285 325h127z" />
    <glyph glyph-name="two" unicode="2" 
d="M1004 0h-885q17 207 168 361q81 82 224 191q143 108 167 128q106 88 147 160q41 71 41 157q0 125 -83 199t-201 74q-172 0 -245 -83t-73 -257h-151v69q0 197 131 303q132 106 328 107q196 0 321 -113t125 -303q0 -228 -242 -418q-37 -29 -168 -124q-255 -185 -295 -304
h691v-147z" />
    <glyph glyph-name="three" unicode="3" 
d="M426 834h82q125 0 216 55t91 161t-74 162q-73 58 -189 58t-194 -69t-88 -195h-151q18 201 140 302q121 101 303 101t294 -96t111 -254q0 -211 -232 -291v-4q131 -43 206 -139t75 -236q0 -201 -142 -311t-336 -111t-324 103t-136 282h151q31 -246 318 -246q139 0 228 88
t89 222q0 133 -99 206t-237 72l-102 -8v148z" />
    <glyph glyph-name="four" unicode="4" 
d="M719 500v647h-4l-479 -647h483zM55 360v119l682 897h133v-876h166v-140h-166v-360h-151v360h-664z" />
    <glyph glyph-name="five" unicode="5" 
d="M195 631v745h782v-147h-631v-418q125 74 260 74q188 0 312 -125t122 -329q0 -204 -134 -334t-345 -130q-420 0 -465 400h158q16 -119 92 -190t214 -71t234 80q95 80 95 232t-79 236q-80 84 -242 83q-162 0 -230 -106h-143z" />
    <glyph glyph-name="six" unicode="6" 
d="M276 432q0 -150 85 -242t231 -92t230 92q85 92 85 242t-85 242t-230 92q-144 0 -230 -92t-86 -242zM632 1278q-306 0 -382 -412q-18 -96 -19 -198h5q53 104 150 166t206 63q219 0 343 -126t124 -339t-124 -339t-343 -126q-300 0 -413 203q-101 183 -99 471q0 768 569 768
q167 0 273 -94t122 -262h-151q-14 119 -79 172q-66 53 -182 53z" />
    <glyph glyph-name="seven" unicode="7" 
d="M143 1229v147h850v-110q-171 -268 -287 -602t-163 -664h-181q139 694 472 1229h-691z" />
    <glyph glyph-name="eight" unicode="8" 
d="M887 368q0 128 -94 208q-93 80 -223 79q-130 1 -224 -79t-94 -208t86 -199t231 -71t232 71q86 71 86 199zM133 1030q0 176 125 278t311 101q185 0 311 -101t126 -278q0 -110 -54 -192t-153 -121q125 -61 182 -147t57 -222q0 -197 -137 -289t-332 -92t-331 92t-138 289
q0 135 58 221t182 148q-98 39 -152 121t-55 192zM285 1032q0 -119 84 -182q85 -64 201 -64t200 64t84 182q0 119 -84 182q-84 64 -201 64t-201 -64t-83 -182z" />
    <glyph glyph-name="nine" unicode="9" 
d="M862 944q0 150 -85 242t-230 92t-231 -92t-85 -242q0 -150 85 -242q84 -92 230 -92t231 92t85 242zM907 709h-4q-53 -105 -150 -167t-206 -63q-219 0 -343 126t-124 339t124 339t343 126q301 0 412 -203q100 -181 100 -471q0 -768 -570 -768q-167 1 -273 95t-122 262h152
q14 -119 79 -172q65 -54 181 -54t200 60q83 60 123 157q78 186 78 394z" />
    <glyph glyph-name="colon" unicode=":" horiz-adv-x="569" 
d="M197 635v176h176v-176h-176zM197 0v176h176v-176h-176z" />
    <glyph glyph-name="semicolon" unicode=";" horiz-adv-x="569" 
d="M197 635v176h176v-176h-176zM197 0v176h176v-82q0 -158 -64 -291h-108q53 82 67 197h-71z" />
    <glyph glyph-name="less" unicode="&#x3c;" horiz-adv-x="1228" 
d="M1087 -14l-946 434v106l946 435v-115l-813 -373l813 -373v-114z" />
    <glyph glyph-name="equal" unicode="=" horiz-adv-x="1228" 
d="M141 233v111h946v-111h-946zM141 602v111h946v-111h-946z" />
    <glyph glyph-name="greater" unicode="&#x3e;" horiz-adv-x="1228" 
d="M141 961l946 -435v-106l-946 -434v114l813 373l-813 373v115z" />
    <glyph glyph-name="question" unicode="?" horiz-adv-x="985" 
d="M422 0v160h160v-160h-160zM571 303h-139v258q0 139 109 248q45 45 91 87q111 101 110 189t-67 145q-67 56 -171 56q-150 0 -205 -71t-55 -207h-152q0 209 114 305t288 96t286 -82t113 -216q0 -134 -113 -251q-47 -49 -95 -96q-114 -112 -114 -211v-250z" />
    <glyph glyph-name="at" unicode="@" horiz-adv-x="1638" 
d="M1110 373q119 0 221 161t103 328q0 242 -170 390t-410 149q-279 0 -464 -198t-185 -477t190 -472t465 -193q156 0 300 72t237 197h119q-96 -174 -274 -274t-382 -101q-330 0 -554 227q-224 228 -224 550t226 548t532 227q306 0 511 -183q206 -183 205 -460
q0 -244 -156 -421t-325 -177q-57 0 -95 36t-42 104l-4 -3q-129 -137 -262 -137t-214 92t-81 226q0 229 142 414t355 186q164 0 232 -172l49 135h123l-193 -602q-25 -82 -24 -113q0 -59 49 -59zM698 385q135 0 239 164q103 164 103 315q0 90 -51 146t-119 55
q-145 0 -247 -156t-103 -313q0 -92 50 -152t128 -59z" />
    <glyph glyph-name="A" unicode="A" horiz-adv-x="1366" 
d="M-10 0l639 1462h141l608 -1462h-172l-133 332h-772l-139 -332h-172zM692 1282l-336 -811h664z" />
    <glyph glyph-name="B" unicode="B" horiz-adv-x="1366" 
d="M319 717v-578h443q174 0 268 71t94 214t-105 218t-286 75h-414zM160 0v1462h626q195 0 300 -101t106 -253q0 -102 -54 -182t-149 -119v-4q145 -39 220 -140t75 -249q0 -198 -135 -306t-420 -108h-569zM319 1323v-467h390q151 0 237 64t86 182q0 221 -301 221h-412z" />
    <glyph glyph-name="C" unicode="C" horiz-adv-x="1517" 
d="M797 1368q-225 0 -380 -187t-155 -446t128 -444q62 -89 168 -143t239 -54q180 0 322 108t165 267h170q-57 -246 -234 -380t-423 -134q-315 0 -513 221t-198 550t214 555t497 226q250 1 417 -119t218 -333h-164q-51 153 -177 233t-294 80z" />
    <glyph glyph-name="D" unicode="D" horiz-adv-x="1517" 
d="M311 1323v-1184h334q270 0 438 168t168 424t-168 424t-438 168h-334zM152 0v1462h510q340 0 552 -202t213 -529q0 -327 -213 -529t-552 -202h-510z" />
    <glyph glyph-name="E" unicode="E" 
d="M152 0v1462h925v-147h-766v-459h664v-147h-664v-562h766v-147h-925z" />
    <glyph glyph-name="F" unicode="F" horiz-adv-x="1099" 
d="M152 0v1462h925v-147h-766v-459h664v-147h-664v-709h-159z" />
    <glyph glyph-name="G" unicode="G" horiz-adv-x="1593" 
d="M831 1368q-245 0 -405 -186t-160 -446t128 -445q62 -89 168 -143t239 -54q215 0 351 123t138 346h-274v148h422v-711h-115l-18 203h-5q-68 -123 -204 -185t-295 -63q-315 0 -513 221t-198 551t219 555t522 225q240 0 410 -129t207 -354h-164q-16 140 -149 242t-304 102z
" />
    <glyph glyph-name="H" unicode="H" horiz-adv-x="1402" 
d="M152 0v1462h159v-606h781v606h159v-1462h-159v717h-781v-717h-159z" />
    <glyph glyph-name="I" unicode="I" horiz-adv-x="454" 
d="M147 0v1462h160v-1462h-160z" />
    <glyph glyph-name="J" unicode="J" horiz-adv-x="1062" 
d="M750 1462h159v-979q-1 -279 -113 -403t-364 -125q-180 0 -290 113t-109 284v80h160q0 -160 63 -245t213 -85q149 0 215 92t66 285v983z" />
    <glyph glyph-name="K" unicode="K" horiz-adv-x="1327" 
d="M160 0v1462h159v-786l725 786h218l-584 -620l686 -842h-211l-580 733l-254 -272v-461h-159z" />
    <glyph glyph-name="L" unicode="L" horiz-adv-x="1099" 
d="M156 0v1462h159v-1315h766v-147h-925z" />
    <glyph glyph-name="M" unicode="M" horiz-adv-x="1820" 
d="M156 0v1462h174l581 -1233l596 1233h156v-1462h-160v1124h-4l-528 -1124h-127l-525 1124h-4v-1124h-159z" />
    <glyph glyph-name="N" unicode="N" horiz-adv-x="1517" 
d="M145 0v1462h158l905 -1188h4v1188h160v-1462h-160l-903 1206h-4v-1206h-160z" />
    <glyph glyph-name="O" unicode="O" horiz-adv-x="1593" 
d="M797 1368q-225 0 -380 -187t-155 -446t128 -444q62 -89 168 -143t239 -54q225 0 379 188t155 446q0 259 -128 443q-61 89 -167 143t-239 54zM86 726q0 329 214 555t513 226t497 -221t198 -550t-215 -555q-214 -226 -496 -226q-315 0 -513 221t-198 550z" />
    <glyph glyph-name="P" unicode="P" horiz-adv-x="1251" 
d="M168 0v1462h528q228 0 366 -119t138 -329t-138 -330q-138 -119 -366 -119h-368v-565h-160zM328 1323v-618h385q151 -1 239 75t88 234t-89 234t-238 75h-385z" />
    <glyph glyph-name="Q" unicode="Q" horiz-adv-x="1593" 
d="M797 1368q-225 0 -380 -187t-155 -446t128 -444q62 -89 168 -143t239 -54q225 0 379 188t155 446q0 259 -128 443q-61 89 -167 143t-239 54zM1087 -238v-139h-157q-113 0 -163 42t-50 153v141q-283 29 -457 244t-174 533t214 545q214 226 513 226t497 -221
q198 -222 198 -538t-186 -535q-185 -219 -445 -254v-96q-1 -55 21 -78t77 -23h112z" />
    <glyph glyph-name="R" unicode="R" horiz-adv-x="1366" 
d="M340 1323v-528h451q125 -1 201 67t77 197q0 129 -77 197t-201 67h-451zM1049 215v219q-1 125 -53 173t-187 48h-469v-655h-160v1462h635q188 0 301 -104t113 -295q0 -113 -65 -198t-173 -124v-4q135 -41 176 -98t41 -217v-164q0 -172 78 -258h-192q-45 96 -45 215z" />
    <glyph glyph-name="S" unicode="S" horiz-adv-x="1366" 
d="M663 1368q-182 0 -288 -71t-107 -203q0 -84 54 -136t142 -74q87 -22 191 -36q251 -34 401 -102q87 -40 141 -126t54 -214q0 -188 -155 -320q-156 -131 -418 -131t-420 124t-170 363h160q25 -348 442 -348q180 0 291 88t111 213q0 97 -54 157t-142 86q-87 26 -278 55
t-296 73q-213 87 -213 311q0 223 158 327q159 103 401 103q524 0 565 -434h-160q-8 147 -118 221t-292 74z" />
    <glyph glyph-name="T" unicode="T" horiz-adv-x="1099" 
d="M14 1462h1069v-147h-454v-1315h-160v1315h-455v147z" />
    <glyph glyph-name="U" unicode="U" horiz-adv-x="1478" 
d="M1182 1462h159v-966q0 -266 -161 -404q-162 -137 -441 -137q-602 0 -602 541v966h160v-958q0 -211 117 -310q118 -100 326 -100t325 100t117 310v958z" />
    <glyph glyph-name="V" unicode="V" horiz-adv-x="1402" 
d="M625 0l-617 1462h172l522 -1278l527 1278h168l-619 -1462h-153z" />
    <glyph glyph-name="W" unicode="W" horiz-adv-x="1972" 
d="M483 272l447 1190h119l430 -1200h4l327 1200h160l-418 -1462h-133l-436 1204l-451 -1204h-131l-397 1462h162l313 -1190h4z" />
    <glyph glyph-name="X" unicode="X" horiz-adv-x="1251" 
d="M14 0l525 750l-500 712h197l395 -590l405 590h193l-508 -712l516 -750h-195l-413 616l-420 -616h-195z" />
    <glyph glyph-name="Y" unicode="Y" horiz-adv-x="1290" 
d="M561 0v532l-557 930h186l455 -766l457 766h186l-567 -930v-532h-160z" />
    <glyph glyph-name="Z" unicode="Z" horiz-adv-x="1251" 
d="M90 1315v147h1098v-147l-967 -1168h959v-147h-1147v156l950 1159h-893z" />
    <glyph glyph-name="bracketleft" unicode="[" horiz-adv-x="606" 
d="M176 1462h373v-131h-225v-1200h225v-131h-373v1462z" />
    <glyph glyph-name="backslash" unicode="\" horiz-adv-x="569" 
d="M682 -45h-127l-668 1552h127z" />
    <glyph glyph-name="bracketright" unicode="]" horiz-adv-x="606" 
d="M430 0h-373v131h226v1200h-226v131h373v-1462z" />
    <glyph glyph-name="asciicircum" unicode="^" horiz-adv-x="1228" 
d="M227 469h-131l459 907h119l459 -907h-129l-392 770z" />
    <glyph glyph-name="underscore" unicode="_" horiz-adv-x="1024" 
d="M1024 -256h-1024v102h1024v-102z" />
    <glyph glyph-name="grave" unicode="`" horiz-adv-x="417" 
d="M311 1116h-127l-215 293h203z" />
    <glyph glyph-name="a" unicode="a" horiz-adv-x="1024" 
d="M760 367v190q-113 -70 -363 -106q-76 -11 -126 -59t-50 -131q1 -83 63 -135t174 -52t208 87q94 87 94 206zM551 983q193 0 275 -87t81 -282v-426q0 -121 43 -188h-157q-18 51 -33 141q-143 -178 -348 -178q-141 0 -240 73q-98 73 -98 198q0 126 51 198t127 94
q133 39 330 58q178 14 178 142q0 70 -76 108q-76 39 -166 38q-233 0 -256 -186h-147q33 172 138 234t298 63z" />
    <glyph glyph-name="b" unicode="b" horiz-adv-x="1099" 
d="M270 473q0 -174 75 -287q75 -112 227 -112t226 112q75 112 74 287q0 174 -74 287q-75 112 -227 112q-153 0 -227 -112t-74 -287zM123 0v1462h147v-651h4q123 172 326 172q204 0 312 -147q108 -146 108 -362t-109 -363t-309 -147t-328 175h-4v-139h-147z" />
    <glyph glyph-name="c" unicode="c" horiz-adv-x="1024" 
d="M528 872q-152 0 -226 -112t-75 -287q0 -174 75 -287t226 -112q215 0 271 237h143q-37 -182 -134 -265t-280 -83q-220 -1 -334 145t-114 365t115 365t333 145q162 0 276 -89t126 -249h-148q-6 106 -75 167q-70 60 -179 60z" />
    <glyph glyph-name="d" unicode="d" horiz-adv-x="1099" 
d="M227 473q0 -174 75 -287q74 -112 226 -112t227 112t74 287q0 174 -74 287q-75 112 -227 112t-226 -112t-75 -287zM977 1462v-1462h-148v139h-4q-127 -176 -327 -176q-200 -1 -310 147q-109 148 -108 363q0 215 108 363q109 147 312 147t325 -172h4v651h148z" />
    <glyph glyph-name="e" unicode="e" horiz-adv-x="1099" 
d="M238 559h630q-18 160 -86 237q-68 76 -212 76t-233 -91t-99 -222zM565 74q119 0 192 42t111 136h152q-39 -147 -157 -218t-285 -71q-227 0 -358 127q-130 126 -130 368t119 384t364 141q437 1 455 -534h-790q4 -171 89 -273t238 -102z" />
    <glyph glyph-name="f" unicode="f" horiz-adv-x="606" 
d="M190 0v836h-129v110h129v205q0 184 67 264t214 80q78 0 150 -25v-137q-82 39 -129 39q-82 0 -118 -58t-36 -188v-180h285v-110h-285v-836h-148z" />
    <glyph glyph-name="g" unicode="g" horiz-adv-x="1099" 
d="M227 473q0 -174 75 -287q74 -112 226 -112t227 112t74 287q0 174 -74 287q-75 112 -227 112t-226 -112t-75 -287zM829 946h148v-901q0 -483 -471 -483q-170 0 -274 90q-103 90 -103 201v4h143q27 -184 248 -185q137 0 223 89t86 247v123h-4q-129 -168 -329 -168
q-200 -1 -308 147q-109 148 -108 363q0 215 108 363q109 147 312 147t325 -172h4v135z" />
    <glyph glyph-name="h" unicode="h" horiz-adv-x="1062" 
d="M924 0h-148v655q0 93 -50 155t-160 62t-195 -95q-86 -95 -86 -269v-508h-148v1462h148v-678h4q111 199 321 199q142 0 228 -95t86 -249v-639z" />
    <glyph glyph-name="i" unicode="i" horiz-adv-x="417" 
d="M129 1143v160h160v-160h-160zM135 0v946h148v-946h-148z" />
    <glyph glyph-name="j" unicode="j" horiz-adv-x="417" 
d="M129 1143v160h160v-160h-160zM135 946h148v-1102q-1 -154 -59 -224t-146 -71q-88 0 -148 27v152q42 -47 92 -47q50 1 82 37t31 106v1122z" />
    <glyph glyph-name="k" unicode="k" horiz-adv-x="1024" 
d="M158 0v1462h147v-954l481 438h209l-379 -340l422 -606h-184l-346 512l-203 -184v-328h-147z" />
    <glyph glyph-name="l" unicode="l" horiz-adv-x="417" 
d="M135 0v1462h148v-1462h-148z" />
    <glyph glyph-name="m" unicode="m" horiz-adv-x="1630" 
d="M1499 0h-147v618q0 134 -44 194t-134 60q-121 0 -198 -96t-77 -223v-553h-147v618q0 134 -44 194t-135 60q-121 0 -197 -96t-77 -223v-553h-147v946h147v-137h4q98 174 292 174t279 -197q74 102 149 150t191 47q116 0 201 -78q84 -78 84 -225v-680z" />
    <glyph glyph-name="n" unicode="n" horiz-adv-x="1062" 
d="M924 0h-148v655q0 93 -50 155t-160 62t-195 -95q-86 -95 -86 -269v-508h-148v946h148v-162h4q111 199 321 199q142 0 228 -95t86 -249v-639z" />
    <glyph glyph-name="o" unicode="o" 
d="M569 -37q-209 0 -349 133t-140 377t140 377t349 133t349 -133t141 -377q-1 -244 -141 -377t-349 -133zM569 74q158 0 250 108t92 291q0 184 -92 292q-92 107 -250 107t-250 -108t-92 -291t92 -291t250 -108z" />
    <glyph glyph-name="p" unicode="p" horiz-adv-x="1099" 
d="M270 473q0 -174 75 -287q75 -112 227 -112t226 112q75 112 74 287q0 174 -74 287q-75 112 -227 112q-153 0 -227 -112t-74 -287zM123 -512v1458h147v-139h4q127 176 328 176q202 0 310 -147q108 -146 108 -362t-109 -363t-311 -147t-326 171h-4v-647h-147z" />
    <glyph glyph-name="q" unicode="q" horiz-adv-x="1099" 
d="M227 473q0 -174 75 -287q74 -112 226 -112t227 112t74 287q0 174 -74 287q-75 112 -227 112t-226 -112t-75 -287zM977 946v-1458h-148v647h-4q-123 -172 -325 -172q-202 -1 -312 147q-109 148 -108 363q0 215 108 363q109 147 310 147t327 -176h4v139h148z" />
    <glyph glyph-name="r" unicode="r" horiz-adv-x="681" 
d="M150 0v946h147v-203h4q125 240 420 240v-123q-424 0 -424 -389v-471h-147z" />
    <glyph glyph-name="s" unicode="s" horiz-adv-x="1024" 
d="M520 74q104 0 187 48q81 48 81 120t-49 110t-122 51q-73 11 -159 29t-158 40q-73 22 -122 81t-49 154q0 141 116 209q117 68 283 67q166 0 272 -81t113 -234h-131q-2 96 -72 150q-71 54 -191 54t-181 -43q-62 -43 -62 -117t67 -110q67 -37 161 -50q94 -14 188 -32
t161 -82t67 -162q0 -182 -137 -252q-118 -61 -287 -61q-168 0 -272 84t-122 254h144q29 -227 274 -227z" />
    <glyph glyph-name="t" unicode="t" horiz-adv-x="645" 
d="M199 946v311h147v-311h232v-110h-232v-607q0 -143 92 -143q74 0 144 49v-137q-113 -35 -160 -35q-117 -1 -170 61t-53 197v615h-138v110h138z" />
    <glyph glyph-name="u" unicode="u" horiz-adv-x="1062" 
d="M137 946h148v-655q0 -93 50 -155q49 -62 159 -62t196 95t86 269v508h148v-946h-148v162h-4q-111 -199 -321 -199q-141 0 -228 95q-86 95 -86 249v639z" />
    <glyph glyph-name="v" unicode="v" horiz-adv-x="985" 
d="M434 0l-440 946h160l338 -745l342 745h157l-444 -946h-113z" />
    <glyph glyph-name="w" unicode="w" horiz-adv-x="1478" 
d="M342 0l-340 946h158l252 -721l278 721h119l278 -721l5 2l235 719h150l-328 -946h-113l-291 752l-286 -752h-117z" />
    <glyph glyph-name="x" unicode="x" horiz-adv-x="948" 
d="M240 946l239 -319l256 319h191l-359 -432l389 -514h-184l-293 403l-313 -403h-174l405 514l-342 432h185z" />
    <glyph glyph-name="y" unicode="y" horiz-adv-x="985" 
d="M176 -446q-59 0 -147 30v164q61 -55 130 -55t121 59t142 248l-426 946h154l352 -780l350 780h154l-461 -1005q-6 -12 -54 -124t-84 -148q-35 -36 -66 -64q-56 -51 -165 -51z" />
    <glyph glyph-name="z" unicode="z" horiz-adv-x="909" 
d="M94 827v119h744v-139l-598 -688h598v-119h-772v137l596 690h-568z" />
    <glyph glyph-name="braceleft" unicode="{" horiz-adv-x="606" 
d="M508 131v-131h-141q-86 0 -139 53q-52 53 -52 144v233q0 100 -38 167t-113 69v131q75 3 113 69t38 166v234q0 90 52 143t139 53h141v-131h-111q-43 0 -58 -32t-15 -144v-188q0 -164 -152 -234v-4q152 -70 152 -233v-189q0 -113 15 -145t58 -31h111z" />
    <glyph glyph-name="bar" unicode="|" horiz-adv-x="454" 
d="M172 1536h111v-2048h-111v2048z" />
    <glyph glyph-name="braceright" unicode="}" horiz-adv-x="606" 
d="M98 0v131h111q43 0 58 32t16 144v189q0 164 151 233v4q-152 70 -151 234v188q1 113 -15 145t-59 31h-111v131h142q86 0 138 -53t52 -143v-234q0 -100 38 -167t114 -68v-131q-76 -2 -114 -69t-38 -167v-233q0 -89 -52 -143t-138 -54h-142z" />
    <glyph glyph-name="asciitilde" unicode="~" horiz-adv-x="1228" 
d="M823 346q-68 0 -207 70t-236 70t-165 -148l-74 86q92 176 256 176q74 0 234 -70t201 -70q40 0 76 26q36 24 56 50t50 72l73 -86q-41 -55 -67 -86q-26 -30 -78 -60q-51 -30 -119 -30z" />
    <glyph glyph-name="uni00A0" unicode="&#xa0;" horiz-adv-x="569" 
 />
    <glyph glyph-name="exclamdown" unicode="&#xa1;" horiz-adv-x="569" 
d="M365 786h-160v160h160v-160zM371 -414h-172l41 1053h90z" />
    <glyph glyph-name="cent" unicode="&#xa2;" 
d="M510 1180h119v-197q141 -12 244 -95t116 -241h-147q-41 225 -256 225q-133 0 -215 -106t-82 -281t80 -291t233 -116q201 0 256 235h143q-61 -338 -372 -346v-231h-119v231q-102 11 -177 61q-193 127 -196 476q1 186 99 319t274 160v197z" />
    <glyph glyph-name="sterling" unicode="&#xa3;" 
d="M719 748v-119h-283q29 -79 29 -183t-94 -239l4 -4q59 27 119 27t172 -54q113 -53 147 -53q135 0 139 221h152q-6 -152 -75 -264t-202 -113q-77 -1 -199 65t-202 66q-106 0 -217 -123l-107 105q102 96 157 174q54 78 54 151t-19 145t-22 79h-180v119h137q-84 168 -84 276
q0 176 122 280q123 104 319 105q196 0 312 -86t134 -293h-151q-2 108 -77 178t-200 70t-216 -59t-91 -187q1 -45 31 -134t63 -150h328z" />
    <glyph glyph-name="currency" unicode="&#xa4;" 
d="M569 1077q-161 -1 -275 -115t-114 -274t115 -274t275 -115q160 0 274 115q114 114 114 274t-114 275q-115 114 -275 114zM570 180q-182 0 -312 111l-115 -115l-86 86l113 111q-109 123 -109 315t109 316l-113 110l86 86l115 -115q129 111 311 111t312 -111l114 115
l86 -86l-112 -110q109 -123 109 -316t-109 -315l112 -111l-86 -86l-114 115q-129 -111 -311 -111z" />
    <glyph glyph-name="yen" unicode="&#xa5;" 
d="M496 397h-414v119h405l-79 143h-326v119h260l-332 598h164l395 -721l396 721h163l-335 -598h256v-119h-324l-82 -143h406v-119h-414v-397h-139v397z" />
    <glyph glyph-name="brokenbar" unicode="&#xa6;" horiz-adv-x="454" 
d="M172 358h111v-716h-111v716zM172 1382h111v-716h-111v716z" />
    <glyph glyph-name="section" unicode="&#xa7;" 
d="M836 532q0 110 -72 176t-184 66t-195 -74q-82 -74 -82 -184t72 -176t184 -66t195 74q82 74 82 184zM567 1278q-78 0 -128 -48t-50 -123q1 -75 63 -117t150 -66t176 -60q88 -35 150 -119t63 -209q1 -124 -67 -210t-183 -123v-4q85 -29 141 -97t56 -153q0 -135 -109 -224
t-259 -89t-254 79q-103 80 -111 240h155q0 -90 62 -139t152 -49t149 50t59 128q0 79 -66 119t-158 62q-93 22 -186 54t-159 113q-66 82 -66 217q0 238 265 346v4q-70 18 -124 87t-55 140q-1 156 95 239t244 83t233 -77q86 -77 104 -216h-155q-6 76 -58 119t-129 43z" />
    <glyph glyph-name="dieresis" unicode="&#xa8;" horiz-adv-x="417" 
d="M268 1147v168h160v-168h-160zM-10 1147v168h160v-168h-160z" />
    <glyph glyph-name="copyright" unicode="&#xa9;" horiz-adv-x="1638" 
d="M844 246q-209 0 -337 139t-128 348t128 348t337 140q152 0 260 -87t129 -239h-123q-18 90 -90 148t-176 59q-150 0 -242 -109t-92 -261t92 -260t242 -107q106 -1 178 59t88 154h123q-33 -152 -137 -242t-252 -90zM164 731q0 -283 188 -477t467 -193q279 0 467 194
q188 195 188 477t-188 476t-467 193q-279 1 -467 -193t-188 -477zM41 731q0 324 228 550t550 226t550 -226t228 -550t-228 -550t-550 -226t-550 226t-228 550z" />
    <glyph glyph-name="ordfeminine" unicode="&#xaa;" horiz-adv-x="614" 
d="M457 1038v99q-55 -35 -230 -68q-109 -23 -108 -104q0 -80 137 -80q84 -1 142 43t59 110zM327 1409q126 0 179 -52t53 -169v-256q0 -74 29 -113h-103q-10 23 -22 84q-94 -106 -225 -106q-92 0 -157 44t-65 134t70 136t153 47q221 3 218 93q0 76 -152 76q-74 1 -117 -19
t-49 -77h-96q23 104 90 141q68 37 194 37z" />
    <glyph glyph-name="guillemotleft" unicode="&#xab;" horiz-adv-x="1099" 
d="M455 227l-213 246l213 246h139l-213 -246l213 -246h-139zM719 227l-213 246l213 246h139l-213 -246l213 -246h-139z" />
    <glyph glyph-name="logicalnot" unicode="&#xac;" horiz-adv-x="1228" 
d="M977 233v369h-836v111h946v-480h-110z" />
    <glyph glyph-name="uni00AD" unicode="&#xad;" horiz-adv-x="606" 
d="M100 412v123h404v-123h-404z" />
    <glyph glyph-name="registered" unicode="&#xae;" horiz-adv-x="1638" 
d="M164 731q0 -283 188 -477t467 -193q279 0 467 194q188 195 188 477t-188 476t-467 193q-279 1 -467 -193t-188 -477zM41 731q0 324 228 550t550 226t550 -226t228 -550t-228 -550t-550 -226t-550 226t-228 550zM643 786h205q215 0 215 148t-215 147h-205v-295zM643 676
v-402h-115v918h349q309 0 309 -260q0 -115 -66 -176t-170 -76l269 -406h-140l-254 402h-182z" />
    <glyph glyph-name="macron" unicode="&#xaf;" horiz-adv-x="417" 
d="M-61 1167v111h540v-111h-540z" />
    <glyph glyph-name="degree" unicode="&#xb0;" horiz-adv-x="819" 
d="M119 1116q0 123 84 208t207 85q122 0 206 -85t84 -208t-84 -208t-206 -85t-207 85q-84 85 -84 208zM193 1116q0 -92 63 -160q64 -68 154 -68t153 68t64 160t-63 160t-154 68t-154 -68q-63 -68 -63 -160z" />
    <glyph glyph-name="plusminus" unicode="&#xb1;" horiz-adv-x="1228" 
d="M141 0v111h946v-111h-946zM559 618v328h111v-328h417v-110h-417v-326h-111v326h-418v110h418z" />
    <glyph glyph-name="twosuperior" unicode="&#xb2;" horiz-adv-x="681" 
d="M627 563h-576q6 74 46 136q40 61 78 95t105 83t99 71q88 60 122 110t35 113q2 64 -52 104t-150 40t-142 -46t-47 -149h-98v43q0 119 85 183t213 63q128 0 209 -68t81 -182q0 -81 -45 -143q-38 -57 -113 -108q-25 -17 -71 -49t-68 -48q-139 -102 -162 -149h451v-99z" />
    <glyph glyph-name="threesuperior" unicode="&#xb3;" horiz-adv-x="681" 
d="M262 1065h53q82 0 142 33q59 33 59 95t-47 94t-113 32q-182 0 -194 -152h-99q25 242 302 242q104 0 177 -57t72 -154q0 -125 -151 -174v-4q86 -23 134 -81t48 -142q0 -121 -92 -188t-218 -67t-211 64q-85 62 -87 168h98q18 -141 207 -141q90 0 147 50t57 129t-64 121
q-65 42 -152 42l-68 -4v94z" />
    <glyph glyph-name="acute" unicode="&#xb4;" horiz-adv-x="417" 
d="M233 1116h-127l140 293h203z" />
    <glyph glyph-name="mu" unicode="&#xb5;" horiz-adv-x="1062" 
d="M924 946v-946h-148v162h-4q-111 -199 -321 -199q-102 0 -166 45v-520h-148v1458h148v-655q0 -93 50 -155q49 -62 159 -62t196 95t86 269v508h148z" />
    <glyph glyph-name="paragraph" unicode="&#xb6;" horiz-adv-x="1228" 
d="M545 -365v1045q-197 0 -313 106t-116 284t116 286q116 106 313 106h499v-1827h-118v1717h-262v-1717h-119z" />
    <glyph glyph-name="periodcentered" unicode="&#xb7;" horiz-adv-x="569" 
d="M178 473q0 43 31 75t76 32t75 -32t31 -75q0 -43 -31 -75q-32 -32 -76 -32t-75 32t-31 75z" />
    <glyph glyph-name="cedilla" unicode="&#xb8;" horiz-adv-x="417" 
d="M139 -385q125 0 125 82t-94 82q-53 0 -82 -15l-31 37l119 176h90l-86 -127q38 6 92 6t99 -42q45 -43 45 -101q0 -90 -73 -133t-179 -43t-172 37l26 68q63 -27 121 -27z" />
    <glyph glyph-name="onesuperior" unicode="&#xb9;" horiz-adv-x="681" 
d="M416 1389v-826h-99v690l-116 -112l-54 53l187 195h82z" />
    <glyph glyph-name="ordmasculine" unicode="&#xba;" horiz-adv-x="684" 
d="M343 797q-136 0 -227 81t-91 226t91 225t228 80t227 -80q91 -80 91 -225t-92 -226t-227 -81zM344 1323q-102 0 -160 -58q-58 -59 -57 -161q0 -102 57 -162q58 -60 160 -59q102 0 159 58q56 57 56 161t-56 163q-57 58 -159 58z" />
    <glyph glyph-name="guillemotright" unicode="&#xbb;" horiz-adv-x="1099" 
d="M645 719l213 -246l-213 -246h-139l213 246l-213 246h139zM381 719l213 -246l-213 -246h-139l213 246l-213 246h139z" />
    <glyph glyph-name="onequarter" unicode="&#xbc;" horiz-adv-x="1708" 
d="M416 1389v-826h-99v690l-116 -112l-54 53l187 195h82zM358 -33l895 1442h131l-895 -1442h-131zM1423 299v389h-4l-309 -389h313zM991 217v70l445 538h86v-526h108v-82h-108v-217h-99v217h-432z" />
    <glyph glyph-name="onehalf" unicode="&#xbd;" horiz-adv-x="1708" 
d="M1638 0h-575q6 74 46 136t95 110t122 93q83 57 123 88q39 31 69 76q30 44 30 106q0 63 -53 103t-149 40t-142 -46q-47 -46 -47 -149h-98v43q0 119 85 182q85 64 213 64t209 -68t81 -182q0 -139 -158 -251q-271 -184 -301 -247h450v-98zM416 1389v-826h-99v690l-116 -112
l-54 53l187 195h82zM285 -33l895 1442h131l-895 -1442h-131z" />
    <glyph glyph-name="threequarters" unicode="&#xbe;" horiz-adv-x="1708" 
d="M1423 299v389h-4l-309 -389h313zM991 217v70l445 538h86v-526h108v-82h-108v-217h-99v217h-432zM422 -33l895 1442h131l-895 -1442h-131zM303 1065h53q82 0 142 33q59 33 59 95t-47 94t-113 32q-182 0 -194 -152h-99q25 242 302 242q104 0 177 -57t72 -154
q0 -125 -151 -174v-4q86 -23 134 -81t48 -142q0 -121 -92 -188t-218 -67t-211 64q-85 62 -87 168h98q18 -141 207 -141q90 0 147 50q58 50 58 129t-65 121t-152 42l-68 -4v94z" />
    <glyph glyph-name="questiondown" unicode="&#xbf;" horiz-adv-x="985" 
d="M563 946v-160h-160v160h160zM414 643h139v-258q0 -139 -109 -248q-45 -45 -91 -87q-111 -101 -110 -189t67 -145q67 -56 171 -56q150 0 205 71t55 208h152q0 -209 -114 -305t-288 -97q-175 0 -287 82t-112 216t114 251q48 49 95 96q113 113 113 211v250z" />
    <glyph glyph-name="Agrave" unicode="&#xc0;" horiz-adv-x="1366" 
d="M811 1569h-127l-215 293h203zM-10 0l639 1462h141l608 -1462h-172l-133 332h-772l-139 -332h-172zM692 1282l-336 -811h664z" />
    <glyph glyph-name="Aacute" unicode="&#xc1;" horiz-adv-x="1366" 
d="M733 1569h-127l139 293h203zM-10 0l639 1462h141l608 -1462h-172l-133 332h-772l-139 -332h-172zM692 1282l-336 -811h664z" />
    <glyph glyph-name="Acircumflex" unicode="&#xc2;" horiz-adv-x="1366" 
d="M788 1862l203 -293h-162l-124 182l-127 -182h-152l205 293h157zM-10 0l639 1462h141l608 -1462h-172l-133 332h-772l-139 -332h-172zM692 1282l-336 -811h664z" />
    <glyph glyph-name="Atilde" unicode="&#xc3;" horiz-adv-x="1366" 
d="M580 1817q66 0 149 -36q82 -36 105 -36q51 0 67 84h105q-14 -101 -54 -161t-129 -60q-41 0 -123 37t-110 37t-54 -32t-22 -59h-102q2 82 52 154t116 72zM-10 0l639 1462h141l608 -1462h-172l-133 332h-772l-139 -332h-172zM692 1282l-336 -811h664z" />
    <glyph glyph-name="Adieresis" unicode="&#xc4;" horiz-adv-x="1366" 
d="M768 1599v168h160v-168h-160zM489 1599v168h160v-168h-160zM-10 0l639 1462h141l608 -1462h-172l-133 332h-772l-139 -332h-172zM692 1282l-336 -811h664z" />
    <glyph glyph-name="Aring" unicode="&#xc5;" horiz-adv-x="1366" 
d="M827 1735q0 49 -34 84q-35 35 -84 35t-84 -36q-35 -34 -35 -83t35 -84t84 -35t84 35q34 35 34 84zM918 1735q0 -85 -62 -147t-147 -62q-86 0 -148 61q-61 61 -61 147t61 148t147 62t148 -62t62 -147zM-10 0l639 1462h141l608 -1462h-172l-133 332h-772l-139 -332h-172z
M692 1282l-336 -811h664z" />
    <glyph glyph-name="AE" unicode="&#xc6;" horiz-adv-x="2048" 
d="M1100 471v807l-4 4l-570 -811h574zM1989 1462v-147h-729v-459h622v-147h-622v-562h741v-147h-901v332h-674l-233 -332h-193l1065 1462h924z" />
    <glyph glyph-name="Ccedilla" unicode="&#xc7;" horiz-adv-x="1517" 
d="M797 1368q-225 0 -380 -187t-155 -446t128 -444q62 -89 168 -143t239 -54q180 0 322 108t165 267h170q-55 -231 -216 -365t-388 -145l-72 -109q38 6 92 6t99 -42q45 -43 45 -101q0 -90 -73 -133t-179 -43t-172 37l26 68q63 -27 121 -27q125 0 125 82t-94 82
q-53 0 -82 -15l-31 37l105 156q-301 14 -488 232q-186 218 -186 542t214 550t497 226q250 1 417 -119t218 -333h-164q-51 153 -177 233t-294 80z" />
    <glyph glyph-name="Egrave" unicode="&#xc8;" 
d="M707 1569h-127l-215 293h202zM152 0v1462h925v-147h-766v-459h664v-147h-664v-562h766v-147h-925z" />
    <glyph glyph-name="Eacute" unicode="&#xc9;" 
d="M629 1569h-127l139 293h203zM152 0v1462h925v-147h-766v-459h664v-147h-664v-562h766v-147h-925z" />
    <glyph glyph-name="Ecircumflex" unicode="&#xca;" 
d="M684 1862l203 -293h-162l-125 182l-127 -182h-151l204 293h158zM152 0v1462h925v-147h-766v-459h664v-147h-664v-562h766v-147h-925z" />
    <glyph glyph-name="Edieresis" unicode="&#xcb;" 
d="M664 1599v168h159v-168h-159zM385 1599v168h160v-168h-160zM152 0v1462h925v-147h-766v-459h664v-147h-664v-562h766v-147h-925z" />
    <glyph glyph-name="Igrave" unicode="&#xcc;" horiz-adv-x="454" 
d="M330 1569h-127l-215 293h202zM147 0v1462h160v-1462h-160z" />
    <glyph glyph-name="Iacute" unicode="&#xcd;" horiz-adv-x="454" 
d="M252 1569h-127l139 293h203zM147 0v1462h160v-1462h-160z" />
    <glyph glyph-name="Icircumflex" unicode="&#xce;" horiz-adv-x="454" 
d="M307 1862l203 -293h-162l-125 182l-127 -182h-151l205 293h157zM147 0v1462h160v-1462h-160z" />
    <glyph glyph-name="Idieresis" unicode="&#xcf;" horiz-adv-x="454" 
d="M287 1599v168h159v-168h-159zM8 1599v168h160v-168h-160zM147 0v1462h160v-1462h-160z" />
    <glyph glyph-name="Eth" unicode="&#xd0;" horiz-adv-x="1517" 
d="M758 856v-139h-447v-578h334q270 0 438 168t168 424t-168 424t-438 168h-334v-467h447zM152 1462h510q340 0 552 -202t213 -529q0 -327 -213 -529t-552 -202h-510v717h-181v139h181v606z" />
    <glyph glyph-name="Ntilde" unicode="&#xd1;" horiz-adv-x="1517" 
d="M666 1817q66 0 149 -36q82 -36 105 -36q51 0 67 84h105q-14 -101 -54 -161t-129 -60q-41 0 -123 37t-110 37t-54 -32t-22 -59h-102q2 82 52 154t116 72zM145 0v1462h158l905 -1188h4v1188h160v-1462h-160l-903 1206h-4v-1206h-160z" />
    <glyph glyph-name="Ograve" unicode="&#xd2;" horiz-adv-x="1593" 
d="M899 1569h-127l-215 293h203zM797 1368q-225 0 -380 -187t-155 -446t128 -444q62 -89 168 -143t239 -54q225 0 379 188t155 446q0 259 -128 443q-61 89 -167 143t-239 54zM86 726q0 329 214 555t513 226t497 -221t198 -550t-215 -555q-214 -226 -496 -226
q-315 0 -513 221t-198 550z" />
    <glyph glyph-name="Oacute" unicode="&#xd3;" horiz-adv-x="1593" 
d="M821 1569h-127l140 293h202zM797 1368q-225 0 -380 -187t-155 -446t128 -444q62 -89 168 -143t239 -54q225 0 379 188t155 446q0 259 -128 443q-61 89 -167 143t-239 54zM86 726q0 329 214 555t513 226t497 -221t198 -550t-215 -555q-214 -226 -496 -226q-315 0 -513 221
t-198 550z" />
    <glyph glyph-name="Ocircumflex" unicode="&#xd4;" horiz-adv-x="1593" 
d="M877 1862l202 -293h-161l-125 182l-127 -182h-152l205 293h158zM797 1368q-225 0 -380 -187t-155 -446t128 -444q62 -89 168 -143t239 -54q225 0 379 188t155 446q0 259 -128 443q-61 89 -167 143t-239 54zM86 726q0 329 214 555t513 226t497 -221t198 -550t-215 -555
q-214 -226 -496 -226q-315 0 -513 221t-198 550z" />
    <glyph glyph-name="Otilde" unicode="&#xd5;" horiz-adv-x="1593" 
d="M668 1817q66 0 149 -36q82 -36 105 -36q51 0 67 84h105q-14 -101 -54 -161t-129 -60q-39 0 -123 37t-112 37t-52 -32q-26 -32 -22 -59h-102q2 82 52 154t116 72zM797 1368q-225 0 -380 -187t-155 -446t128 -444q62 -89 168 -143t239 -54q225 0 379 188t155 446
q0 259 -128 443q-61 89 -167 143t-239 54zM86 726q0 329 214 555t513 226t497 -221t198 -550t-215 -555q-214 -226 -496 -226q-315 0 -513 221t-198 550z" />
    <glyph glyph-name="Odieresis" unicode="&#xd6;" horiz-adv-x="1593" 
d="M856 1599v168h160v-168h-160zM578 1599v168h159v-168h-159zM797 1368q-225 0 -380 -187t-155 -446t128 -444q62 -89 168 -143t239 -54q225 0 379 188t155 446q0 259 -128 443q-61 89 -167 143t-239 54zM86 726q0 329 214 555t513 226t497 -221t198 -550t-215 -555
q-214 -226 -496 -226q-315 0 -513 221t-198 550z" />
    <glyph glyph-name="multiply" unicode="&#xd7;" horiz-adv-x="1228" 
d="M614 551l390 395l83 -84l-395 -389l395 -393l-83 -80l-390 395l-391 -395l-82 82l396 391l-396 389l82 84z" />
    <glyph glyph-name="Oslash" unicode="&#xd8;" horiz-adv-x="1593" 
d="M86 731q0 324 214 550t486 226t459 -159l137 163l88 -69l-145 -172q182 -217 182 -540t-214 -549q-215 -226 -487 -226t-458 160l-147 -174l-84 65l155 184q-186 217 -186 541zM791 1368q-219 0 -374 -187t-155 -441t115 -425l772 918q-139 135 -358 135zM802 94
q220 0 375 188t155 440q0 253 -111 423l-775 -916q136 -135 356 -135z" />
    <glyph glyph-name="Ugrave" unicode="&#xd9;" horiz-adv-x="1478" 
d="M842 1569h-127l-215 293h202zM1182 1462h159v-966q0 -266 -161 -404q-162 -137 -441 -137q-602 0 -602 541v966h160v-958q0 -211 117 -310q118 -100 326 -100t325 100t117 310v958z" />
    <glyph glyph-name="Uacute" unicode="&#xda;" horiz-adv-x="1478" 
d="M764 1569h-127l139 293h203zM1182 1462h159v-966q0 -266 -161 -404q-162 -137 -441 -137q-602 0 -602 541v966h160v-958q0 -211 117 -310q118 -100 326 -100t325 100t117 310v958z" />
    <glyph glyph-name="Ucircumflex" unicode="&#xdb;" horiz-adv-x="1478" 
d="M819 1862l203 -293h-162l-125 182l-127 -182h-151l205 293h157zM1182 1462h159v-966q0 -266 -161 -404q-162 -137 -441 -137q-602 0 -602 541v966h160v-958q0 -211 117 -310q118 -100 326 -100t325 100t117 310v958z" />
    <glyph glyph-name="Udieresis" unicode="&#xdc;" horiz-adv-x="1478" 
d="M799 1599v168h159v-168h-159zM520 1599v168h160v-168h-160zM1182 1462h159v-966q0 -266 -161 -404q-162 -137 -441 -137q-602 0 -602 541v966h160v-958q0 -211 117 -310q118 -100 326 -100t325 100t117 310v958z" />
    <glyph glyph-name="Yacute" unicode="&#xdd;" horiz-adv-x="1290" 
d="M670 1569h-127l139 293h203zM561 0v532l-557 930h186l455 -766l457 766h186l-567 -930v-532h-160z" />
    <glyph glyph-name="Thorn" unicode="&#xde;" horiz-adv-x="1251" 
d="M328 1094v-619h385q151 0 239 76q88 75 88 233t-89 234t-238 76h-385zM168 0v1462h160v-229h368q228 0 366 -119t138 -330q0 -212 -138 -330t-366 -118h-368v-336h-160z" />
    <glyph glyph-name="germandbls" unicode="&#xdf;" 
d="M291 0h-148v1083q1 201 105 307t315 105q145 0 257 -80t112 -221q0 -110 -62 -180t-172 -96v-5q174 -49 253 -159t79 -308q0 -196 -118 -333t-328 -138q-109 0 -197 29v150q74 -55 182 -56q145 0 229 106t85 268q1 163 -97 266t-264 104h-53v123h92q80 0 152 55
q71 54 71 150t-67 149t-181 53t-180 -74t-65 -196v-1102z" />
    <glyph glyph-name="agrave" unicode="&#xe0;" horiz-adv-x="1024" 
d="M614 1116h-127l-215 293h203zM760 367v190q-113 -70 -363 -106q-76 -11 -126 -59t-50 -131q1 -83 63 -135t174 -52t208 87q94 87 94 206zM551 983q193 0 275 -87t81 -282v-426q0 -121 43 -188h-157q-18 51 -33 141q-143 -178 -348 -178q-141 0 -240 73q-98 73 -98 198
q0 126 51 198t127 94q133 39 330 58q178 14 178 142q0 70 -76 108q-76 39 -166 38q-233 0 -256 -186h-147q33 172 138 234t298 63z" />
    <glyph glyph-name="aacute" unicode="&#xe1;" horiz-adv-x="1024" 
d="M537 1116h-127l139 293h203zM760 367v190q-113 -70 -363 -106q-76 -11 -126 -59t-50 -131q1 -83 63 -135t174 -52t208 87q94 87 94 206zM551 983q193 0 275 -87t81 -282v-426q0 -121 43 -188h-157q-18 51 -33 141q-143 -178 -348 -178q-141 0 -240 73q-98 73 -98 198
q0 126 51 198t127 94q133 39 330 58q178 14 178 142q0 70 -76 108q-76 39 -166 38q-233 0 -256 -186h-147q33 172 138 234t298 63z" />
    <glyph glyph-name="acircumflex" unicode="&#xe2;" horiz-adv-x="1024" 
d="M592 1409l203 -293h-162l-125 182l-127 -182h-152l205 293h158zM760 367v190q-113 -70 -363 -106q-76 -11 -126 -59t-50 -131q1 -83 63 -135t174 -52t208 87q94 87 94 206zM551 983q193 0 275 -87t81 -282v-426q0 -121 43 -188h-157q-18 51 -33 141q-143 -178 -348 -178
q-141 0 -240 73q-98 73 -98 198q0 126 51 198t127 94q133 39 330 58q178 14 178 142q0 70 -76 108q-76 39 -166 38q-233 0 -256 -186h-147q33 172 138 234t298 63z" />
    <glyph glyph-name="atilde" unicode="&#xe3;" horiz-adv-x="1024" 
d="M384 1364q66 0 148 -36t105 -36q51 0 68 84h104q-14 -100 -54 -160t-128 -61q-41 0 -123 37t-111 37q-29 1 -55 -31t-21 -59h-102q2 81 52 153q51 72 117 72zM760 367v190q-113 -70 -363 -106q-76 -11 -126 -59t-50 -131q1 -83 63 -135t174 -52t208 87q94 87 94 206z
M551 983q193 0 275 -87t81 -282v-426q0 -121 43 -188h-157q-18 51 -33 141q-143 -178 -348 -178q-141 0 -240 73q-98 73 -98 198q0 126 51 198t127 94q133 39 330 58q178 14 178 142q0 70 -76 108q-76 39 -166 38q-233 0 -256 -186h-147q33 172 138 234t298 63z" />
    <glyph glyph-name="adieresis" unicode="&#xe4;" horiz-adv-x="1024" 
d="M571 1147v168h160v-168h-160zM293 1147v168h160v-168h-160zM760 367v190q-113 -70 -363 -106q-76 -11 -126 -59t-50 -131q1 -83 63 -135t174 -52t208 87q94 87 94 206zM551 983q193 0 275 -87t81 -282v-426q0 -121 43 -188h-157q-18 51 -33 141q-143 -178 -348 -178
q-141 0 -240 73q-98 73 -98 198q0 126 51 198t127 94q133 39 330 58q178 14 178 142q0 70 -76 108q-76 39 -166 38q-233 0 -256 -186h-147q33 172 138 234t298 63z" />
    <glyph glyph-name="aring" unicode="&#xe5;" horiz-adv-x="1024" 
d="M631 1282q0 49 -35 84t-84 35t-84 -35t-35 -84t35 -84t84 -35t84 35t35 84zM721 1282q1 -86 -61 -147t-148 -61t-147 60q-61 62 -62 148t61 148t148 61q86 1 148 -61t61 -148zM760 367v190q-113 -70 -363 -106q-76 -11 -126 -59t-50 -131q1 -83 63 -135t174 -52t208 87
q94 87 94 206zM551 983q193 0 275 -87t81 -282v-426q0 -121 43 -188h-157q-18 51 -33 141q-143 -178 -348 -178q-141 0 -240 73q-98 73 -98 198q0 126 51 198t127 94q133 39 330 58q178 14 178 142q0 70 -76 108q-76 39 -166 38q-233 0 -256 -186h-147q33 172 138 234
t298 63z" />
    <glyph glyph-name="ae" unicode="&#xe6;" horiz-adv-x="1744" 
d="M1520 559q0 145 -80 229t-216 84t-222 -85t-103 -228h621zM752 367v190q-76 -48 -140 -64t-74 -19t-37 -9q-28 -6 -36 -8t-39 -7q-213 -34 -213 -180q0 -92 62 -144t175 -52q114 0 208 87t94 206zM1233 74q213 0 287 178h151q-39 -147 -158 -218t-288 -71
q-281 0 -410 250q-57 -119 -166 -185t-248 -65q-139 0 -237 73t-98 198q0 126 51 198t127 94q132 39 329 58q179 14 179 142q0 70 -76 108q-76 39 -166 38q-233 0 -256 -186h-148q32 172 138 234t287 63q181 0 265 -74q42 -37 70 -92q119 166 360 166t342 -132t111 -402
h-780q4 -163 97 -269t237 -106z" />
    <glyph glyph-name="ccedilla" unicode="&#xe7;" horiz-adv-x="1024" 
d="M528 872q-152 0 -226 -112t-75 -287q0 -174 75 -287t226 -112q215 0 271 237h143q-35 -165 -116 -247t-228 -97l-80 -117q38 6 92 6t99 -42q45 -43 45 -101q0 -90 -73 -133t-179 -43t-172 37l26 68q63 -27 121 -27q125 0 125 82t-94 82q-53 0 -82 -15l-31 37l111 164
q-209 7 -318 151q-108 144 -108 360t115 362t333 145q162 0 276 -89t126 -249h-148q-6 106 -75 167q-70 60 -179 60z" />
    <glyph glyph-name="egrave" unicode="&#xe8;" horiz-adv-x="1099" 
d="M688 1116h-127l-215 293h203zM238 559h630q-18 160 -86 237q-68 76 -212 76t-233 -91t-99 -222zM565 74q119 0 192 42t111 136h152q-39 -147 -157 -218t-285 -71q-227 0 -358 127q-130 126 -130 368t119 384t364 141q437 1 455 -534h-790q4 -171 89 -273t238 -102z" />
    <glyph glyph-name="eacute" unicode="&#xe9;" horiz-adv-x="1099" 
d="M610 1116h-127l140 293h202zM238 559h630q-18 160 -86 237q-68 76 -212 76t-233 -91t-99 -222zM565 74q119 0 192 42t111 136h152q-39 -147 -157 -218t-285 -71q-227 0 -358 127q-130 126 -130 368t119 384t364 141q437 1 455 -534h-790q4 -171 89 -273t238 -102z" />
    <glyph glyph-name="ecircumflex" unicode="&#xea;" horiz-adv-x="1099" 
d="M666 1409l202 -293h-161l-125 182l-127 -182h-152l205 293h158zM238 559h630q-18 160 -86 237q-68 76 -212 76t-233 -91t-99 -222zM565 74q119 0 192 42t111 136h152q-39 -147 -157 -218t-285 -71q-227 0 -358 127q-130 126 -130 368t119 384t364 141q437 1 455 -534
h-790q4 -171 89 -273t238 -102z" />
    <glyph glyph-name="edieresis" unicode="&#xeb;" horiz-adv-x="1099" 
d="M645 1147v168h160v-168h-160zM367 1147v168h159v-168h-159zM238 559h630q-18 160 -86 237q-68 76 -212 76t-233 -91t-99 -222zM565 74q119 0 192 42t111 136h152q-39 -147 -157 -218t-285 -71q-227 0 -358 127q-130 126 -130 368t119 384t364 141q437 1 455 -534h-790
q4 -171 89 -273t238 -102z" />
    <glyph glyph-name="igrave" unicode="&#xec;" horiz-adv-x="417" 
d="M311 1116h-127l-215 293h203zM135 0v946h148v-946h-148z" />
    <glyph glyph-name="iacute" unicode="&#xed;" horiz-adv-x="417" 
d="M233 1116h-127l140 293h203zM135 0v946h148v-946h-148z" />
    <glyph glyph-name="icircumflex" unicode="&#xee;" horiz-adv-x="417" 
d="M289 1409l203 -293h-162l-125 182l-127 -182h-152l205 293h158zM135 0v946h148v-946h-148z" />
    <glyph glyph-name="idieresis" unicode="&#xef;" horiz-adv-x="417" 
d="M268 1147v168h160v-168h-160zM-10 1147v168h160v-168h-160zM135 0v946h148v-946h-148z" />
    <glyph glyph-name="eth" unicode="&#xf0;" 
d="M567 -37q-207 0 -347 133t-140 377t140 377t349 133q106 0 213 -43q-51 104 -202 244l-195 -127l-51 78l172 112q-129 109 -223 158l102 57q115 -61 221 -149l199 131l53 -78l-178 -117q172 -156 275 -346t104 -399q-1 -272 -143 -406t-349 -135zM569 74q158 0 250 108
t92 291q0 184 -92 292q-92 107 -250 107t-250 -108t-92 -291t92 -291t250 -108z" />
    <glyph glyph-name="ntilde" unicode="&#xf1;" horiz-adv-x="1062" 
d="M404 1364q66 0 149 -36q82 -36 104 -36q51 0 68 84h104q-14 -100 -54 -160t-128 -61q-41 0 -123 37t-110 37q-28 1 -54 -31t-22 -59h-102q2 81 52 153t116 72zM924 0h-148v655q0 93 -50 155t-160 62t-195 -95q-86 -95 -86 -269v-508h-148v946h148v-162h4q111 199 321 199
q142 0 228 -95t86 -249v-639z" />
    <glyph glyph-name="ograve" unicode="&#xf2;" 
d="M672 1116h-127l-215 293h202zM569 -37q-209 0 -349 133t-140 377t140 377t349 133t349 -133t141 -377q-1 -244 -141 -377t-349 -133zM569 74q158 0 250 108t92 291q0 184 -92 292q-92 107 -250 107t-250 -108t-92 -291t92 -291t250 -108z" />
    <glyph glyph-name="oacute" unicode="&#xf3;" 
d="M594 1116h-127l139 293h203zM569 -37q-209 0 -349 133t-140 377t140 377t349 133t349 -133t141 -377q-1 -244 -141 -377t-349 -133zM569 74q158 0 250 108t92 291q0 184 -92 292q-92 107 -250 107t-250 -108t-92 -291t92 -291t250 -108z" />
    <glyph glyph-name="ocircumflex" unicode="&#xf4;" 
d="M649 1409l203 -293h-162l-125 182l-127 -182h-151l205 293h157zM569 -37q-209 0 -349 133t-140 377t140 377t349 133t349 -133t141 -377q-1 -244 -141 -377t-349 -133zM569 74q158 0 250 108t92 291q0 184 -92 292q-92 107 -250 107t-250 -108t-92 -291t92 -291t250 -108
z" />
    <glyph glyph-name="otilde" unicode="&#xf5;" 
d="M442 1364q66 0 148 -36t104 -36q51 0 68 84h104q-14 -100 -54 -160t-128 -61q-41 0 -123 37q-83 37 -111 37q-28 1 -54 -31t-21 -59h-103q2 81 52 153q52 72 118 72zM569 -37q-209 0 -349 133t-140 377t140 377t349 133t349 -133t141 -377q-1 -244 -141 -377t-349 -133z
M569 74q158 0 250 108t92 291q0 184 -92 292q-92 107 -250 107t-250 -108t-92 -291t92 -291t250 -108z" />
    <glyph glyph-name="odieresis" unicode="&#xf6;" 
d="M629 1147v168h159v-168h-159zM350 1147v168h160v-168h-160zM569 -37q-209 0 -349 133t-140 377t140 377t349 133t349 -133t141 -377q-1 -244 -141 -377t-349 -133zM569 74q158 0 250 108t92 291q0 184 -92 292q-92 107 -250 107t-250 -108t-92 -291t92 -291t250 -108z
" />
    <glyph glyph-name="divide" unicode="&#xf7;" horiz-adv-x="1228" 
d="M614 199q45 0 79 -34t34 -79t-34 -79t-79 -34q-44 0 -78 34t-34 79t34 79t78 34zM614 973q45 0 79 -34t34 -79t-34 -79q-34 -33 -79 -33q-44 0 -78 34t-34 78q0 45 34 79t78 34zM1087 418h-946v110h946v-110z" />
    <glyph glyph-name="oslash" unicode="&#xf8;" 
d="M281 238l503 563q-88 72 -215 71q-158 0 -250 -108q-91 -108 -91 -270t53 -256zM569 983q170 0 297 -90l111 123l88 -70l-117 -129q111 -131 111 -359t-140 -362q-140 -133 -334 -133t-317 94l-106 -120l-88 69l114 127q-109 135 -108 340q0 244 140 377t349 133zM582 74
q144 0 237 108q92 108 92 272q0 165 -55 259l-504 -563q86 -76 230 -76z" />
    <glyph glyph-name="ugrave" unicode="&#xf9;" horiz-adv-x="1062" 
d="M635 1116h-127l-215 293h203zM137 946h148v-655q0 -93 50 -155q49 -62 159 -62t196 95t86 269v508h148v-946h-148v162h-4q-111 -199 -321 -199q-141 0 -228 95q-86 95 -86 249v639z" />
    <glyph glyph-name="uacute" unicode="&#xfa;" horiz-adv-x="1062" 
d="M557 1116h-127l139 293h203zM137 946h148v-655q0 -93 50 -155q49 -62 159 -62t196 95t86 269v508h148v-946h-148v162h-4q-111 -199 -321 -199q-141 0 -228 95q-86 95 -86 249v639z" />
    <glyph glyph-name="ucircumflex" unicode="&#xfb;" horiz-adv-x="1062" 
d="M612 1409l203 -293h-162l-125 182l-127 -182h-151l205 293h157zM137 946h148v-655q0 -93 50 -155q49 -62 159 -62t196 95t86 269v508h148v-946h-148v162h-4q-111 -199 -321 -199q-141 0 -228 95q-86 95 -86 249v639z" />
    <glyph glyph-name="udieresis" unicode="&#xfc;" horiz-adv-x="1062" 
d="M592 1147v168h160v-168h-160zM313 1147v168h160v-168h-160zM137 946h148v-655q0 -93 50 -155q49 -62 159 -62t196 95t86 269v508h148v-946h-148v162h-4q-111 -199 -321 -199q-141 0 -228 95q-86 95 -86 249v639z" />
    <glyph glyph-name="yacute" unicode="&#xfd;" horiz-adv-x="985" 
d="M518 1116h-127l139 293h203zM176 -446q-59 0 -147 30v164q61 -55 130 -55t121 59t142 248l-426 946h154l352 -780l350 780h154l-461 -1005q-6 -12 -54 -124t-84 -148q-35 -36 -66 -64q-56 -51 -165 -51z" />
    <glyph glyph-name="thorn" unicode="&#xfe;" horiz-adv-x="1099" 
d="M270 473q0 -174 75 -287q75 -112 227 -112t226 112q75 112 74 287q0 174 -74 287q-75 112 -227 112q-153 0 -227 -112t-74 -287zM123 -512v1974h147v-655h4q127 176 328 176q202 0 310 -147q108 -146 108 -362t-109 -363t-311 -147t-326 171h-4v-647h-147z" />
    <glyph glyph-name="ydieresis" unicode="&#xff;" horiz-adv-x="985" 
d="M553 1147v168h160v-168h-160zM274 1147v168h160v-168h-160zM176 -446q-59 0 -147 30v164q61 -55 130 -55t121 59t142 248l-426 946h154l352 -780l350 780h154l-461 -1005q-6 -12 -54 -124t-84 -148q-35 -36 -66 -64q-56 -51 -165 -51z" />
    <glyph glyph-name="dotlessi" unicode="&#x131;" horiz-adv-x="417" 
d="M135 0v946h148v-946h-148z" />
    <glyph glyph-name="Lslash" unicode="&#x141;" horiz-adv-x="1099" 
d="M1081 0h-925v621l-160 -101v148l160 100v694h159v-594l328 205v-147l-328 -205v-574h766v-147z" />
    <glyph glyph-name="lslash" unicode="&#x142;" horiz-adv-x="417" 
d="M283 0h-148v694l-127 -80v125l127 80v643h148v-551l127 80v-127l-127 -78v-786z" />
    <glyph glyph-name="OE" unicode="&#x152;" horiz-adv-x="2048" 
d="M827 1348q-243 0 -407 -168t-164 -449t165 -449t406 -167q106 0 281 20v1192q-175 21 -281 21zM1987 1462v-147h-719v-459h616v-147h-616v-562h735v-147h-873q-24 0 -108 -12t-162 -13q-350 0 -565 209t-215 547t215 547t565 209l397 -25h730z" />
    <glyph glyph-name="oe" unicode="&#x153;" horiz-adv-x="1896" 
d="M1362 872q-132 0 -224 -90t-100 -223h621q-8 127 -87 220t-210 93zM223 473q0 -184 92 -292q92 -107 246 -107t242 112t88 287q0 174 -88 287q-88 112 -242 112t-246 -108t-92 -291zM1372 74q213 0 287 178h151q-38 -147 -156 -218t-275 -71t-257 55t-166 172
q-113 -227 -391 -227q-209 0 -349 133t-140 377t140 377t349 133q268 0 398 -238q137 238 405 238q433 1 451 -534h-781q4 -163 92 -269t242 -106z" />
    <glyph glyph-name="Scaron" unicode="&#x160;" horiz-adv-x="1366" 
d="M967 1862l-203 -293h-158l-205 293h152l127 -183l125 183h162zM663 1368q-182 0 -288 -71t-107 -203q0 -84 54 -136t142 -74q87 -22 191 -36q251 -34 401 -102q87 -40 141 -126t54 -214q0 -188 -155 -320q-156 -131 -418 -131t-420 124t-170 363h160q25 -348 442 -348
q180 0 291 88t111 213q0 97 -54 157t-142 86q-87 26 -278 55t-296 73q-213 87 -213 311q0 223 158 327q159 103 401 103q524 0 565 -434h-160q-8 147 -118 221t-292 74z" />
    <glyph glyph-name="scaron" unicode="&#x161;" horiz-adv-x="1024" 
d="M795 1409l-203 -293h-158l-205 293h152l127 -182l125 182h162zM520 74q104 0 187 48q81 48 81 120t-49 110t-122 51q-73 11 -159 29t-158 40q-73 22 -122 81t-49 154q0 141 116 209q117 68 283 67q166 0 272 -81t113 -234h-131q-2 96 -72 150q-71 54 -191 54t-181 -43
q-62 -43 -62 -117t67 -110q67 -37 161 -50q94 -14 188 -32t161 -82t67 -162q0 -182 -137 -252q-118 -61 -287 -61q-168 0 -272 84t-122 254h144q29 -227 274 -227z" />
    <glyph glyph-name="Ydieresis" unicode="&#x178;" horiz-adv-x="1290" 
d="M705 1599v168h159v-168h-159zM426 1599v168h160v-168h-160zM561 0v532l-557 930h186l455 -766l457 766h186l-567 -930v-532h-160z" />
    <glyph glyph-name="Zcaron" unicode="&#x17d;" horiz-adv-x="1251" 
d="M909 1862l-202 -293h-158l-205 293h152l127 -183l125 183h161zM90 1315v147h1098v-147l-967 -1168h959v-147h-1147v156l950 1159h-893z" />
    <glyph glyph-name="zcaron" unicode="&#x17e;" horiz-adv-x="909" 
d="M737 1409l-202 -293h-158l-205 293h152l127 -182l124 182h162zM94 827v119h744v-139l-598 -688h598v-119h-772v137l596 690h-568z" />
    <glyph glyph-name="florin" unicode="&#x192;" 
d="M260 -311q84 0 119 58t55 251l68 631h-211l12 119h211l33 309q41 381 287 381q94 0 180 -37l-15 -133q-72 36 -122 39q-91 0 -131 -75t-60 -259l-24 -225h206l-14 -119h-205l-84 -758q-18 -162 -92 -238t-217 -75q-53 0 -131 34l14 138q78 -41 121 -41z" />
    <glyph glyph-name="circumflex" unicode="&#x2c6;" horiz-adv-x="417" 
d="M289 1409l203 -293h-162l-125 182l-127 -182h-152l205 293h158z" />
    <glyph glyph-name="caron" unicode="&#x2c7;" horiz-adv-x="417" 
d="M492 1409l-203 -293h-158l-205 293h152l127 -182l125 182h162z" />
    <glyph glyph-name="uni02C9" unicode="&#x2c9;" horiz-adv-x="417" 
d="M-61 1167v111h540v-111h-540z" />
    <glyph glyph-name="breve" unicode="&#x2d8;" horiz-adv-x="417" 
d="M208 1250q122 0 154 139h103q-29 -258 -256 -259q-227 0 -256 259h102q31 -139 153 -139z" />
    <glyph glyph-name="dotaccent" unicode="&#x2d9;" horiz-adv-x="417" 
d="M129 1147v168h160v-168h-160z" />
    <glyph glyph-name="ring" unicode="&#x2da;" horiz-adv-x="417" 
d="M328 1282q0 49 -35 84t-84 35t-84 -35t-35 -84t35 -84t84 -35t84 35t35 84zM418 1282q0 -86 -62 -147t-147 -61t-147 60q-62 62 -62 148t61 148t147 61q86 1 148 -61t62 -148z" />
    <glyph glyph-name="ogonek" unicode="&#x2db;" horiz-adv-x="417" 
d="M284 -430q-103 0 -159 49q-55 49 -55 123q0 106 108 178q109 72 344 119v-19q-301 -100 -301 -264q0 -40 32 -68t82 -28t206 86l28 -61q-182 -115 -285 -115z" />
    <glyph glyph-name="tilde" unicode="&#x2dc;" horiz-adv-x="417" 
d="M80 1364q66 0 149 -36q82 -36 105 -36q51 0 67 84h105q-14 -100 -54 -160t-128 -61q-41 0 -124 37t-111 37q-27 1 -53 -31t-22 -59h-102q2 81 52 153t116 72z" />
    <glyph glyph-name="hungarumlaut" unicode="&#x2dd;" horiz-adv-x="417" 
d="M322 1116h-127l139 293h205zM88 1116h-127l84 293h205z" />
    <glyph glyph-name="uni03A9" unicode="&#x3a9;" horiz-adv-x="1480" 
d="M414 113v6q-123 104 -202 264t-79 358q0 293 175 481t439 189q264 0 433 -194q168 -195 168 -467q0 -205 -84 -370t-203 -261v-6h313v-113h-485v82q135 86 227 253t92 392q0 137 -50 265t-159 217t-254 89q-213 0 -344 -166t-131 -394t94 -402t226 -254v-82h-486v113h310
z" />
    <glyph glyph-name="uni03BC" unicode="&#x3bc;" horiz-adv-x="1062" 
d="M924 946v-946h-148v162h-4q-111 -199 -321 -199q-102 0 -166 45v-520h-148v1458h148v-655q0 -93 50 -155q49 -62 159 -62t196 95t86 269v508h148z" />
    <glyph glyph-name="pi" unicode="&#x3c0;" horiz-adv-x="1157" 
d="M934 915v-618q0 -197 31 -297h-134q-35 53 -34 281v634h-385q-10 -219 -54 -503t-98 -412h-135q55 152 98 424t51 491q-162 0 -231 -26l-23 90q88 53 287 53h809l-14 -117h-168z" />
    <glyph glyph-name="endash" unicode="&#x2013;" horiz-adv-x="1024" 
d="M0 528h1024v-110h-1024v110z" />
    <glyph glyph-name="emdash" unicode="&#x2014;" horiz-adv-x="2048" 
d="M0 418v110h2048v-110h-2048z" />
    <glyph glyph-name="quoteleft" unicode="&#x2018;" horiz-adv-x="569" 
d="M373 1266v-176h-176v81q0 158 63 291h109q-53 -82 -68 -196h72z" />
    <glyph glyph-name="quoteright" unicode="&#x2019;" horiz-adv-x="569" 
d="M197 1286v176h176v-82q0 -158 -64 -290h-108q53 82 67 196h-71z" />
    <glyph glyph-name="quotesinglbase" unicode="&#x201a;" horiz-adv-x="569" 
d="M197 0v176h176v-82q0 -158 -64 -291h-108q53 82 67 197h-71z" />
    <glyph glyph-name="quotedblleft" unicode="&#x201c;" horiz-adv-x="1099" 
d="M791 1266v-176h-177v81q0 158 64 291h108q-53 -82 -67 -196h72zM485 1266v-176h-176v81q0 158 64 291h108q-53 -82 -67 -196h71z" />
    <glyph glyph-name="quotedblright" unicode="&#x201d;" horiz-adv-x="1099" 
d="M309 1286v176h176v-82q0 -158 -63 -290h-109q53 82 68 196h-72zM614 1286v176h177v-82q0 -158 -64 -290h-109q53 82 68 196h-72z" />
    <glyph glyph-name="quotedblbase" unicode="&#x201e;" horiz-adv-x="1099" 
d="M309 0v176h176v-82q0 -158 -63 -291h-109q53 82 68 197h-72zM614 0v176h177v-82q0 -158 -64 -291h-109q53 82 68 197h-72z" />
    <glyph glyph-name="dagger" unicode="&#x2020;" 
d="M494 987v389h151v-389h316v-131h-316v-856h-151v856h-316v131h316z" />
    <glyph glyph-name="daggerdbl" unicode="&#x2021;" 
d="M494 1077v299h151v-299h316v-131h-316v-516h309v-131h-309v-299h-151v299h-316v131h316v516h-316v131h316z" />
    <glyph glyph-name="bullet" unicode="&#x2022;" horiz-adv-x="1024" 
d="M147 731q1 152 107 258q106 107 258 107t260 -106t107 -259q0 -151 -108 -259q-107 -108 -259 -108t-258 108q-106 107 -107 259z" />
    <glyph glyph-name="ellipsis" unicode="&#x2026;" horiz-adv-x="2048" 
d="M1618 0v176h176v-176h-176zM936 0v176h176v-176h-176zM254 0v176h176v-176h-176z" />
    <glyph glyph-name="perthousand" unicode="&#x2030;" horiz-adv-x="2048" 
d="M1085 70q162 0 162 270t-162 270t-162 -270t162 -270zM1085 -33q-127 0 -199 110q-72 109 -73 263q0 154 73 264q74 110 200 109q126 0 199 -110q73 -111 73 -265t-73 -262t-200 -109zM293 664q-127 0 -200 110t-73 262q0 154 73 264t200 109q127 0 200 -110
q73 -111 73 -265t-74 -262q-72 -108 -199 -108zM1755 -33q-127 0 -200 110q-73 109 -73 263t74 264q72 110 199 109q127 0 200 -110q73 -111 73 -265t-73 -262t-200 -109zM293 766q162 0 162 270t-162 271q-162 -1 -162 -271t162 -270zM1112 1358l-797 -1391l-84 51
l797 1391zM1755 70q162 0 162 270t-162 270t-162 -270t162 -270z" />
    <glyph glyph-name="guilsinglleft" unicode="&#x2039;" horiz-adv-x="530" 
d="M287 227l-213 246l213 246h139l-213 -246l213 -246h-139z" />
    <glyph glyph-name="guilsinglright" unicode="&#x203a;" horiz-adv-x="530" 
d="M244 719l213 -246l-213 -246h-140l213 246l-213 246h140z" />
    <glyph glyph-name="fraction" unicode="&#x2044;" horiz-adv-x="342" 
d="M-342 -33l895 1442h131l-895 -1442h-131z" />
    <glyph glyph-name="Euro" unicode="&#x20ac;" 
d="M746 1276q-186 0 -282 -110q-97 -110 -118 -285h610l-41 -115h-583q-2 -20 -2 -76t2 -78h528l-41 -112h-471q23 -193 122 -297q99 -105 276 -105t303 111v-148q-104 -92 -332 -92q-444 0 -514 531h-148l39 112h96q-4 37 -4 75t4 79h-135l39 115h107q33 242 158 384
t349 142t341 -96v-148q-117 113 -303 113z" />
    <glyph glyph-name="afii61289" unicode="&#x2113;" horiz-adv-x="980" 
d="M352 1061v-461q156 168 242 312t86 286q0 221 -154 221q-70 0 -122 -87t-52 -271zM557 -23q-162 1 -245 105t-89 266v27q-16 -12 -56 -46t-63 -50l-43 79q156 133 162 140v551q0 251 88 363t213 112t190 -90t64 -230q0 -334 -426 -739v-62q2 -161 68 -239t160 -78t168 59
q73 60 116 140l68 -58q-133 -250 -375 -250z" />
    <glyph glyph-name="trademark" unicode="&#x2122;" horiz-adv-x="2027" 
d="M1075 1352v-734h-123v844h199l262 -661l254 661h199v-844h-123v734h-4l-293 -734h-74l-293 734h-4zM821 1462v-102h-268v-742h-123v742h-268v102h659z" />
    <glyph glyph-name="Omega" unicode="&#x2126;" horiz-adv-x="1480" 
d="M414 113v6q-123 104 -202 264t-79 358q0 293 175 481t439 189q264 0 433 -194q168 -195 168 -467q0 -205 -84 -370t-203 -261v-6h313v-113h-485v82q135 86 227 253t92 392q0 137 -50 265t-159 217t-254 89q-213 0 -344 -166t-131 -394t94 -402t226 -254v-82h-486v113h310
z" />
    <glyph glyph-name="estimated" unicode="&#x212e;" horiz-adv-x="1738" 
d="M1374 719v395q0 25 -18 47q-211 205 -490 205t-485 -211q-18 -20 -19 -49v-387q0 -12 11 -12h993q8 0 8 12zM1669 668h-1296q-10 0 -11 -9v-393q0 -23 17 -45q207 -213 503 -213t502 240h117q-111 -129 -277 -204t-358 -75q-330 0 -564 211t-234 509t234 509t566 211
t566 -211t235 -510v-20z" />
    <glyph glyph-name="partialdiff" unicode="&#x2202;" horiz-adv-x="1105" 
d="M487 88h2q143 0 239 148t120 364q-29 82 -113 156q-85 74 -205 74t-214 -116q-93 -116 -93 -273q1 -157 73 -255t191 -98zM1001 795q0 -490 -235 -708q-121 -112 -298 -112q-176 -1 -278 137t-102 342t127 344t305 140q127 0 217 -67t127 -134h2q2 25 2 92
q0 268 -113 438q-113 169 -269 169t-279 -97l-49 97q139 112 343 112t352 -196t148 -557z" />
    <glyph glyph-name="Delta" unicode="&#x2206;" horiz-adv-x="1323" 
d="M203 111h907l-309 788q-12 35 -69 177q-56 142 -70 196h-9q-10 -41 -62 -175t-63 -165zM63 0v96l523 1331h157l514 -1329v-98h-1194z" />
    <glyph glyph-name="product" unicode="&#x220f;" horiz-adv-x="1423" 
d="M1368 1266h-227v-1459h-135v1459h-592v-1459h-133v1459h-228v123h1315v-123z" />
    <glyph glyph-name="summation" unicode="&#x2211;" horiz-adv-x="1128" 
d="M1081 -193h-1036v93l557 696l-530 698v95h979v-119h-789v-6l498 -650l-535 -671v-6h856v-130z" />
    <glyph glyph-name="minus" unicode="&#x2212;" horiz-adv-x="1228" 
d="M141 418v110h946v-110h-946z" />
    <glyph glyph-name="uni2215" unicode="&#x2215;" horiz-adv-x="342" 
d="M-342 -33l895 1442h131l-895 -1442h-131z" />
    <glyph glyph-name="uni2219" unicode="&#x2219;" horiz-adv-x="569" 
d="M178 473q0 43 31 75t76 32t75 -32t31 -75q0 -43 -31 -75q-32 -32 -76 -32t-75 32t-31 75z" />
    <glyph glyph-name="radical" unicode="&#x221a;" horiz-adv-x="1155" 
d="M1157 1649l-452 -1948h-125l-330 928l-152 -58l-28 86l266 103l268 -760q29 -109 35 -139h2q2 18 12 65t15 72l385 1651h104z" />
    <glyph glyph-name="infinity" unicode="&#x221e;" horiz-adv-x="1572" 
d="M1165 801h-2q-47 0 -99 -28q-52 -29 -98 -71q-46 -43 -124 -127q116 -127 184 -178t152 -51t140 68t56 164t-58 160q-59 63 -151 63zM418 346h2q80 0 147 54q41 32 58 46q16 14 64 66t50 53q-53 67 -73 89q-129 145 -255 146q-100 1 -156 -68t-56 -163q1 -95 61 -159
t158 -64zM1468 578v-3q0 -139 -91 -228t-199 -89t-191 57q-82 57 -199 187q-68 -78 -112 -122t-120 -83q-75 -39 -153 -39q-123 0 -211 91t-88 224t90 223t208 89q120 1 207 -63t186 -181q125 137 184 178q94 66 211 66q118 0 198 -86t80 -221z" />
    <glyph glyph-name="integral" unicode="&#x222b;" horiz-adv-x="712" 
d="M434 182q0 -268 -88 -401q-63 -98 -192 -98q-80 0 -131 34l26 99q49 -25 102 -25t87 45q72 90 71 348q0 162 -13 512t-13 504q0 311 106 418q70 76 182 76q66 0 111 -29l-25 -94q-35 23 -87 23q-164 -2 -162 -406q0 -154 13 -499t13 -507z" />
    <glyph glyph-name="approxequal" unicode="&#x2248;" horiz-adv-x="1153" 
d="M360 432q-66 0 -112 -40t-92 -113l-60 49q47 90 119 140t149 50q102 0 219 -68t150 -77q34 -8 81 -8q94 0 183 149l58 -51q-100 -186 -260 -187q-73 0 -124 26t-118 60q-127 70 -193 70zM362 770q-68 0 -114 -39t-92 -110l-60 49q47 88 120 138t155 50t155 -41
q46 -23 66 -35t36 -20t21 -12q67 -45 139 -45q72 1 117 37t92 114l58 -51q-100 -188 -260 -189q-57 0 -105 18t-154 78q-106 58 -174 58z" />
    <glyph glyph-name="notequal" unicode="&#x2260;" horiz-adv-x="1153" 
d="M1047 805v-90h-365l-139 -301h504v-88h-543l-111 -244l-74 35l97 209h-312v88h351l139 301h-490v90h527l110 237l72 -34l-94 -203h328z" />
    <glyph glyph-name="lessequal" unicode="&#x2264;" horiz-adv-x="1153" 
d="M1047 10h-943v92h943v-92zM1040 186l-923 455v96l923 455v-109l-823 -391v-4l823 -393v-109z" />
    <glyph glyph-name="greaterequal" unicode="&#x2265;" horiz-adv-x="1153" 
d="M1044 10h-938v92h938v-92zM119 1192l923 -457v-94l-923 -455v109l823 391v4l-823 393v109z" />
    <glyph glyph-name="lozenge" unicode="&#x25ca;" horiz-adv-x="1157" 
d="M920 690l-302 574q-27 61 -38 100h-5q-23 -66 -40 -100l-297 -568l303 -577q31 -72 34 -99h7q23 66 36 99zM1044 694l-413 -786h-109l-409 786l411 787h111z" />
    </font>
</defs>
</svg>
