<?xml version="1.0" standalone="no"?>
<!DOCTYPE svg PUBLIC "-//W3C//DTD SVG 1.1//EN" "http://www.w3.org/Graphics/SVG/1.1/DTD/svg11.dtd" >
<svg xmlns="http://www.w3.org/2000/svg">
<metadata>
Created by FontPrep 20130207 at Sat Jun 27 00:37:16 2015
 By Rezki Bangsawan
Part of the digitally encoded machine readable outline data for producing the Typefaces provided is copyrighted (c) 2003 - 2006 Linotype GmbH, www.linotype.com. All rights reserved. This software is the property of Linotype GmbH, and may not be reproduced, modified, disclosed or transferred without the express written approval of Linotype GmbH. Copyright (c) 1988, 1990, 1993 Adobe Systems Incorporated. All Rights Reserved. Helvetica is a trademark of Heidelberger Druckmaschinen AG, exclusively licensed through Linotype GmbH, and may be registered in certain jurisdictions. This typeface is original artwork of Linotype Design Studio. The design may be protected in certain jurisdictions.
</metadata>
<defs>
<font id="8f165b9dc1735b8f782e4c107ad4a2ff" horiz-adv-x='1024' >
  <font-face 
    font-family="HelveticaNeueLTCom-BdIt"
    font-weight="700"
    font-style="italic"
    font-stretch="normal"
    units-per-em="2048"
    panose-1="2 11 8 4 2 2 2 9 2 4"
    ascent="1462"
    descent="-586"
    x-height="1059"
    cap-height="1462"
    bbox="-340 -444 2312 2019"
    underline-thickness="102"
    underline-position="-102"
    unicode-range="U+0020-FB02"
  />
<missing-glyph horiz-adv-x="1048" 
d="M1049 1470v-1470h-1049v1470h1049zM946 102v1264h-844v-1264h844zM680 988q0 56 -46 106.5t-109.5 50.5t-109.5 -45t-59 -150l-102 17q14 145 90 212.5t186 67.5t182 -73.5t72 -194.5q0 -66 -25.5 -120t-102.5 -124t-89 -108.5t-12 -147.5h-94l-4 35q0 113 26.5 165.5
t93.5 118.5t85 100t18 90zM455 240v137h114v-137h-114z" />
    <glyph glyph-name="IJ" unicode="IJ" horiz-adv-x="1751" 
d="M301 1462h324l-310 -1462h-323zM897 545q-28 -131 -28 -185q-1 -55 47 -90q48 -34 110 -34t99 20q38 20 62 54t36 80t24 95l203 977h324l-218 -1046q-52 -225 -178 -338q-127 -113 -356 -113q-301 0 -408 191q-36 68 -36 153t26 236h293z" />
    <glyph glyph-name="ij" unicode="ij" horiz-adv-x="1103" 
d="M201 1059h293l-226 -1059h-293zM526 1223h-293l54 239h293zM446 -133q40 0 67 31t38 84q10 53 16 75l211 1002h291l-231 -1098q-38 -178 -122 -255q-83 -77 -272 -79q-34 0 -70 4t-71 7l49 233q54 -4 94 -4zM1100 1223h-293l53 239h293z" />
    <glyph glyph-name="napostrophe" unicode="&#x22;n" horiz-adv-x="1292" 
d="M858 1087q152 -1 231 -73t78 -211q0 -16 -4 -42q-4 -27 -8 -53t-10 -50t-8 -37l-131 -621h-291l129 621q2 12 6 29q4 18 6 36l4 36t2 28q0 48 -44 78t-102 30t-109 -26q-138 -71 -181 -269l-119 -563h-291l222 1059h278l-33 -148h4q141 176 371 176zM197 1653h297
l-31 -150q-12 -59 -44 -101t-84 -66t-190 -25l17 75q102 8 133 76h-137z" />
    <glyph glyph-name="fi" unicode="fi" horiz-adv-x="1251" 
d="M1247 1223h-291l54 239h290zM924 1059h290l-225 -1059h-291zM709 1255q-39 0 -69 -13t-45 -38.5t-23.5 -62.5t-20.5 -82h207l-41 -195h-209l-182 -864h-291l182 864h-172l41 195h174q45 225 122.5 320.5t289.5 95.5q90 0 190 -17l-45 -209q-69 6 -108 6z" />
    <glyph glyph-name="fl" unicode="fl" horiz-adv-x="1251" 
d="M1008 1462h290l-311 -1462h-291zM709 1255q-39 0 -69 -13t-45 -38.5t-23.5 -62.5t-20.5 -82h207l-41 -195h-209l-182 -864h-291l182 864h-172l41 195h174q45 225 122.5 320.5t289.5 95.5q90 0 190 -17l-45 -209q-69 6 -108 6z" />
    <glyph glyph-name=".notdef" horiz-adv-x="1048" 
d="M1049 1470v-1470h-1049v1470h1049zM946 102v1264h-844v-1264h844zM680 988q0 56 -46 106.5t-109.5 50.5t-109.5 -45t-59 -150l-102 17q14 145 90 212.5t186 67.5t182 -73.5t72 -194.5q0 -66 -25.5 -120t-102.5 -124t-89 -108.5t-12 -147.5h-94l-4 35q0 113 26.5 165.5
t93.5 118.5t85 100t18 90zM455 240v137h114v-137h-114z" />
    <glyph glyph-name=".null" horiz-adv-x="1024" 
 />
    <glyph glyph-name="nonmarkingreturn" horiz-adv-x="0" 
 />
    <glyph glyph-name="space" unicode=" " horiz-adv-x="569" 
 />
    <glyph glyph-name="exclam" unicode="!" horiz-adv-x="606" 
d="M59 315h324l-68 -315h-323zM530 1065l-215 -627h-143l51 627l84 397h309z" />
    <glyph glyph-name="quotedbl" unicode="&#x22;" horiz-adv-x="985" 
d="M641 1462h219v-657h-219v657zM260 1462h219v-657h-219v657z" />
    <glyph glyph-name="numbersign" unicode="#" horiz-adv-x="1138" 
d="M223 406h-170l21 184h174l37 254h-170l20 184h174l58 406h198l-57 -406h199l55 406h199l-56 -406h172l-20 -184h-178l-35 -254h172l-21 -184h-178l-55 -406h-199l55 406h-196l-57 -406h-199zM483 844l-37 -254h199l35 254h-197z" />
    <glyph glyph-name="dollar" unicode="$" horiz-adv-x="1138" 
d="M755.5 535q-45.5 42 -116.5 71l-78 -401q153 0 196.5 76.5t43.5 144.5q0 67 -45.5 109zM647 1257q-79 0 -148 -46.5t-69 -124.5q0 -79 48 -116.5t118 -60.5l66 348h-15zM308.5 1384q158.5 113 393.5 113h7l32 162h99l-35 -176q260 -53 308 -200.5t40 -246.5h-281
q7 152 -116 203l-68 -362q78 -25 235.5 -85.5t157.5 -334.5q0 -244 -167 -368t-398 -124l-35 -178h-100l37 184q-203 23 -306.5 147t-99.5 374h281q-4 -137 42 -200t128 -77l82 422l-23 8q-78 27 -145.5 55.5t-147 100t-79.5 271.5q0 199 158.5 312z" />
    <glyph glyph-name="percent" unicode="%" horiz-adv-x="1972" 
d="M150 987q0 196 103 335.5t292 139.5q154 0 238.5 -77.5t84.5 -255.5t-112 -321.5t-305 -143.5q-150 0 -225.5 91t-75.5 232zM465 817q96 0 145 129t49 210t-25.5 117t-78.5 36t-93 -39t-72 -118t-32 -207t107 -128zM1460 1479h174l-1099 -1524h-177zM1425 125
q96 0 145.5 130.5t49.5 210t-25.5 115t-78.5 35.5t-93.5 -38.5t-72 -116t-31.5 -207.5q0 -129 106 -129zM1110 295q0 196 103 335.5t292 139.5q154 0 239 -78t85 -233q0 -202 -113.5 -345t-304.5 -143q-150 0 -225.5 91.5t-75.5 232.5z" />
    <glyph glyph-name="ampersand" unicode="&#x26;" horiz-adv-x="1402" 
d="M371 256.5q58 -45.5 131 -45.5q72 0 133 34t113 74l-201 326q-126 -74 -180 -122t-54 -134q0 -87 58 -132.5zM33 375q0 308 395 465q-35 59 -66.5 123.5t-31.5 144.5q0 168 113 269.5t283 101.5t280 -87.5t110 -244.5q0 -191 -139 -279t-197 -118l158 -254q75 78 106 206
h261q-48 -247 -232 -415l187 -287h-320l-66 115q-175 -144 -375 -144t-333 109t-133 295zM668 930q209 94 209 228q0 50 -37 88t-95 38t-106.5 -36t-48.5 -104t24.5 -117.5t53.5 -96.5z" />
    <glyph glyph-name="quotesingle" unicode="'" horiz-adv-x="569" 
d="M225 1462h219v-657h-219v657z" />
    <glyph glyph-name="parenleft" unicode="(" horiz-adv-x="606" 
d="M324 158q0 -190 77 -531h-221q-50 109 -88.5 314.5t-38.5 368.5q0 332 119 604.5t365 582.5h256q-262 -347 -365.5 -652.5t-103.5 -686.5z" />
    <glyph glyph-name="parenright" unicode=")" horiz-adv-x="606" 
d="M383 1497q127 -297 127 -719q0 -126 -33 -286t-116.5 -352t-333.5 -513h-256q259 343 364 650t105 692q0 193 -78 528h221z" />
    <glyph glyph-name="asterisk" unicode="*" horiz-adv-x="833" 
d="M592 1192l248 47l28 -162l-245 -37l116 -215l-147 -80l-113 224l-176 -199l-119 115l183 188l-222 107l70 149l223 -112l35 245l168 -8z" />
    <glyph glyph-name="plus" unicode="+" horiz-adv-x="1228" 
d="M98 627h408v407h219v-407h408v-219h-408v-408h-219v408h-408v219z" />
    <glyph glyph-name="comma" unicode="," horiz-adv-x="569" 
d="M39 315h323q-18 -74 -31.5 -150.5t-41.5 -194.5t-115 -211.5t-272 -100.5l30 145q90 14 128 61.5t55 135.5h-142z" />
    <glyph glyph-name="hyphen" unicode="-" horiz-adv-x="833" 
d="M109 684h616l-53 -250h-617z" />
    <glyph glyph-name="period" unicode="." horiz-adv-x="569" 
d="M41 315h324l-68 -315h-324z" />
    <glyph glyph-name="slash" unicode="/" horiz-adv-x="796" 
d="M567 1497h234l-572 -1532h-233z" />
    <glyph glyph-name="zero" unicode="0" horiz-adv-x="1138" 
d="M298.5 1316q155.5 146 380.5 146t347.5 -147t122.5 -395q0 -158 -42 -325t-129 -306t-219 -228.5t-313 -89.5q-228 0 -341 154.5t-113 382.5t75.5 445t231 363zM283 463q0 -252 200 -252q245 0 310 311t65 404q0 92 -11 139t-52 102.5t-146 55.5q-131 0 -231 -165
t-117.5 -355.5t-17.5 -239.5z" />
    <glyph glyph-name="one" unicode="1" horiz-adv-x="1138" 
d="M662 0h-310l197 930h-350l47 219q179 9 293.5 69t187.5 216h238z" />
    <glyph glyph-name="two" unicode="2" horiz-adv-x="1138" 
d="M1008 1353q135 -109 135 -323q0 -259 -207 -386.5t-298 -179.5t-173 -103.5t-137 -110.5h706l-57 -250h-1063q20 330 246.5 464t331.5 189q51 31 205.5 111.5t154.5 241.5q0 115 -64 160.5t-140 45.5q-134 0 -205.5 -87t-75.5 -207h-277q20 256 174 400t382 144
q227 0 362 -109z" />
    <glyph glyph-name="three" unicode="3" horiz-adv-x="1138" 
d="M569 854q184 0 229.5 67.5t45.5 117.5q0 90 -55.5 137t-159.5 47q-204 0 -256 -246h-277q33 236 180.5 360.5t374.5 124.5q314 0 393.5 -135t79.5 -251t-75.5 -205t-194.5 -113v-4q111 -35 156 -109.5t45 -192.5q0 -231 -167 -356t-426 -125t-387 132.5t-112 388.5h277
q-14 -127 45 -204t182 -77t203 67.5t80 177.5t-58.5 151.5t-144.5 41.5h-105l39 205h88z" />
    <glyph glyph-name="four" unicode="4" horiz-adv-x="1138" 
d="M643 571l117 551h-4l-539 -551h426zM920 571h190l-51 -239h-191l-71 -332h-277l72 332h-666l54 264l839 838h283z" />
    <glyph glyph-name="five" unicode="5" horiz-adv-x="1138" 
d="M532 756q-146 0 -229 -121h-262l250 799h848l-52 -240h-610l-94 -305l4 -4q88 70 156.5 80t136.5 10t139.5 -30t159.5 -118t88 -280q0 -262 -167.5 -419t-412.5 -157t-379.5 107.5t-142.5 339.5h281q2 -106 70 -156.5t150 -50.5q143 0 226.5 85.5t83.5 211.5
q0 125 -63.5 186.5t-180.5 61.5z" />
    <glyph glyph-name="six" unicode="6" horiz-adv-x="1138" 
d="M542 211q112 0 183.5 83t71.5 206t-62.5 183t-172.5 60t-182.5 -85.5t-72.5 -196.5q0 -112 61.5 -181t173.5 -69zM348 811q105 152 308 152t317 -119.5t114 -336.5t-159.5 -376.5t-406.5 -159.5t-370.5 157t-123.5 427q0 391 191 649t504 258t384.5 -147.5t75.5 -251.5
h-281q-2 82 -52 131t-132 49q-149 0 -230 -119t-143 -309z" />
    <glyph glyph-name="seven" unicode="7" horiz-adv-x="1138" 
d="M1157 1184q-238 -197 -434.5 -535t-273.5 -649h-310q76 300 279 632.5t422 530.5h-705l58 271h1017z" />
    <glyph glyph-name="eight" unicode="8" horiz-adv-x="1138" 
d="M325 251q75 -61 190 -61q116 0 191.5 64.5t75.5 177.5t-78 171.5t-156 58.5q-77 0 -128 -15.5t-110.5 -65.5t-59.5 -159q0 -110 75 -171zM139 1045q0 188 153 302.5t370 114.5q216 0 340 -111.5t124 -273.5q0 -104 -77 -199.5t-199 -119.5v-4q92 -20 157.5 -117
t65.5 -206q0 -208 -173.5 -334t-405.5 -126t-383.5 118t-151.5 304q0 227 141.5 294t216.5 85v4q-74 35 -126 104.5t-52 164.5zM610 856q116 0 186 52.5t70 145.5q0 92 -64.5 140.5t-170.5 48.5q-105 0 -168.5 -53.5t-63.5 -146.5t71.5 -140t139.5 -47z" />
    <glyph glyph-name="nine" unicode="9" horiz-adv-x="1138" 
d="M787 1154.5q-63 68.5 -173 68.5t-182 -83t-72 -206t62.5 -183.5t172.5 -60.5t182.5 85.5t72.5 197.5q0 113 -63 181.5zM809 623q-104 -152 -307 -152t-317.5 118.5t-114.5 336.5q0 217 159.5 376.5t406.5 159.5t370.5 -156t123.5 -427q0 -392 -138 -578t-268 -258
t-296 -72q-305 0 -376.5 147.5t-76.5 252.5h281q2 -82 52 -131.5t132 -49.5q149 0 231 119t142 309z" />
    <glyph glyph-name="colon" unicode=":" horiz-adv-x="569" 
d="M41 315h324l-68 -315h-324zM449 725h-324l68 315h323z" />
    <glyph glyph-name="semicolon" unicode=";" horiz-adv-x="569" 
d="M39 315h323q-18 -74 -31.5 -150.5t-41.5 -194.5t-115 -211.5t-272 -100.5l30 145q90 14 128 61.5t55 135.5h-142zM193 1040h323l-67 -315h-324z" />
    <glyph glyph-name="less" unicode="&#x3c;" horiz-adv-x="1228" 
d="M1135 817l-752 -299l752 -299v-235l-1041 413v242l1041 414v-236z" />
    <glyph glyph-name="equal" unicode="=" horiz-adv-x="1228" 
d="M1133 627h-1035v219h1035v-219zM1133 188h-1035v220h1035v-220z" />
    <glyph glyph-name="greater" unicode="&#x3e;" horiz-adv-x="1228" 
d="M94 219l752 299l-752 299v236l1041 -414v-242l-1041 -413v235z" />
    <glyph glyph-name="question" unicode="?" horiz-adv-x="1175" 
d="M1039 1401q128 -96 128 -285t-113.5 -271.5t-165.5 -111.5q-115 -64 -171.5 -123.5t-67.5 -158.5h-270q27 190 101 273t237 169q145 86 145 205q0 82 -53 120.5t-117 38.5q-113 0 -173.5 -71t-76.5 -180h-290q12 238 169.5 364.5t373.5 126.5t344 -96zM319 315h324
l-68 -315h-323z" />
    <glyph glyph-name="at" unicode="@" horiz-adv-x="1638" 
d="M596 638q0 -66 44 -116.5t108 -50.5q111 0 185.5 96.5t74.5 212.5q0 76 -46.5 125t-106.5 49t-107.5 -27.5t-81 -71.5t-52 -97.5t-18.5 -119.5zM387 627q0 202 125.5 362t321.5 160q66 0 135 -32t104 -111l33 110h168l-129 -528q-17 -57 -17 -96t35 -39q90 0 164 109
t74 250q0 253 -156 387t-405 134q-250 0 -410 -170.5t-160 -435.5t168.5 -431.5t435.5 -166.5q129 0 245 44t196 124h172q-104 -160 -268.5 -246t-342.5 -86t-321 58.5t-250.5 161t-169 242.5t-61.5 303t61.5 303.5t168 242.5t247.5 161.5t291 59.5t278.5 -45t227 -126
t158 -196.5t59.5 -265.5t-56.5 -262.5t-135.5 -184t-159.5 -105t-138.5 -33.5t-97.5 32.5t-43.5 83.5h-4q-72 -119 -212.5 -119t-235.5 104t-95 247z" />
    <glyph glyph-name="A" unicode="A" horiz-adv-x="1402" 
d="M494 565h391l-72 582h-4zM707 1462h329l244 -1462h-319l-48 326h-546l-185 -326h-340z" />
    <glyph glyph-name="B" unicode="B" horiz-adv-x="1478" 
d="M758 250q111 0 181.5 59.5t70.5 167.5t-69 141t-185 33h-316l-86 -401h404zM913 1462q242 0 359 -72.5t117 -269.5q0 -131 -76 -228t-199 -112v-4q104 -29 160.5 -109.5t56.5 -193.5q0 -223 -164 -348t-395 -125h-780l307 1462h614zM850 870q88 0 152.5 48.5t64.5 138.5
t-46 122.5t-124 32.5h-340l-72 -342h365z" />
    <glyph glyph-name="C" unicode="C" horiz-adv-x="1517" 
d="M1139 954q0 135 -72.5 204t-192.5 69t-211.5 -56.5t-178.5 -190t-87 -368.5q0 -160 83 -268t249 -108q128 0 225.5 85.5t118.5 204.5h322q-138 -435 -344.5 -498t-325.5 -63q-309 0 -479 168t-170 479q0 368 158.5 555t307 258.5t304.5 71.5q293 0 455.5 -142t158.5 -401
h-321z" />
    <glyph glyph-name="D" unicode="D" horiz-adv-x="1517" 
d="M829 1462q307 0 464 -149.5t157 -419.5q0 -396 -217.5 -644.5t-628.5 -248.5h-612l309 1462h528zM618 270q240 0 375 163.5t135 411.5t-116.5 297.5t-202.5 49.5h-242l-196 -922h247z" />
    <glyph glyph-name="E" unicode="E" horiz-adv-x="1366" 
d="M299 1462h1116l-55 -270h-795l-65 -313h735l-53 -250h-736l-75 -359h807l-58 -270h-1128z" />
    <glyph glyph-name="F" unicode="F" horiz-adv-x="1214" 
d="M301 1462h1040l-59 -270h-717l-71 -338h626l-53 -250h-625l-129 -604h-321z" />
    <glyph glyph-name="G" unicode="G" horiz-adv-x="1554" 
d="M1174 979q-11 248 -291 248q-238 0 -362 -190t-124 -425q0 -160 83 -268t249 -108q252 0 318.5 122.5t87.5 192.5h-338l51 240h620l-168 -791h-202v150h-4q-72 -98 -169.5 -141.5t-199.5 -43.5q-309 0 -479 168t-170 479q0 368 158.5 555t307 258.5t304.5 71.5
q302 0 475.5 -131t173.5 -387h-321z" />
    <glyph glyph-name="H" unicode="H" horiz-adv-x="1517" 
d="M301 1462h324l-119 -561h592l119 561h323l-309 -1462h-324l133 631h-591l-134 -631h-323z" />
    <glyph glyph-name="I" unicode="I" horiz-adv-x="606" 
d="M301 1462h324l-310 -1462h-323z" />
    <glyph glyph-name="J" unicode="J" horiz-adv-x="1138" 
d="M252 373q0 -68 48 -102.5t109.5 -34.5t99.5 20t61.5 54t35.5 80t25 95l203 977h323l-217 -1046q-103 -451 -518 -451q-204 0 -332.5 86.5t-128.5 267.5q0 84 27 226h293q-29 -136 -29 -172z" />
    <glyph glyph-name="K" unicode="K" horiz-adv-x="1478" 
d="M297 1462h321l-126 -612h4l663 612h426l-702 -602l448 -860h-362l-334 657l-223 -194l-97 -463h-323z" />
    <glyph glyph-name="L" unicode="L" horiz-adv-x="1175" 
d="M299 1462h324l-250 -1192h706l-57 -270h-1030z" />
    <glyph glyph-name="M" unicode="M" horiz-adv-x="1857" 
d="M301 1462h444l113 -1059h4l563 1059h449l-309 -1462h-301l266 1163h-4l-619 -1163h-245l-142 1163h-4l-219 -1163h-305z" />
    <glyph glyph-name="N" unicode="N" horiz-adv-x="1517" 
d="M301 1462h332l397 -1040h4l209 1040h295l-309 -1462h-322l-401 1026h-4l-209 -1026h-301z" />
    <glyph glyph-name="O" unicode="O" horiz-adv-x="1593" 
d="M397 626q0 -174 83 -282t249 -108q220 0 346.5 189t126.5 437t-118 306.5t-224 58.5t-197.5 -56.5t-149.5 -145.5t-87 -199t-29 -200zM76 612q0 368 158.5 555t307 258.5t314.5 71.5q324 0 496 -164t172 -463q0 -180 -53.5 -344t-155 -288.5t-249.5 -198.5t-341 -74
q-309 0 -479 168t-170 479z" />
    <glyph glyph-name="P" unicode="P" horiz-adv-x="1366" 
d="M1069 1030q0 182 -227 182h-275l-90 -438h328q123 0 193.5 62.5t70.5 193.5zM883 1462q367 0 437.5 -152.5t70.5 -329.5t-167 -316.5t-403 -139.5h-397l-111 -524h-321l305 1462h586z" />
    <glyph glyph-name="Q" unicode="Q" horiz-adv-x="1593" 
d="M1202 826q0 191 -79.5 296t-245.5 105q-123 0 -214.5 -56.5t-178.5 -190t-87 -368.5q0 -160 83 -268t249 -108q66 0 127 22l-115 129l172 141l129 -145q80 92 120 218.5t40 224.5zM725 -35q-309 0 -479 168t-170 479q0 368 158.5 555t307 258.5t314.5 71.5
q324 0 496 -164t172 -463q0 -211 -72 -397t-211 -315l156 -176l-172 -144l-172 197q-144 -70 -328 -70z" />
    <glyph glyph-name="R" unicode="R" horiz-adv-x="1478" 
d="M1434 1079q0 -151 -96 -262t-240 -131v-4q151 -47 151 -258l-10 -254q0 -117 21 -170h-314q-14 63 -14 98l16 297q0 147 -82 161.5t-129 14.5h-303l-121 -571h-321l307 1462h698q437 9 437 -383zM780 801q226 0 279 85t53 145q0 110 -62.5 145.5t-175.5 35.5h-305
l-86 -411h297z" />
    <glyph glyph-name="S" unicode="S" horiz-adv-x="1327" 
d="M909 418q0 98 -85 136t-151.5 56.5t-134.5 38.5q-160 47 -264 134t-104 259q0 227 171.5 341t408.5 114q378 0 463 -172t85 -299h-305q4 114 -66.5 167.5t-195.5 53.5q-172 0 -214 -65.5t-42 -118.5q0 -90 100 -131.5t248 -73.5q198 -53 294.5 -140.5t96.5 -268.5
q0 -243 -178 -363.5t-418 -120.5q-305 0 -456.5 127t-151.5 393h305q-15 -270 305 -270q117 0 203 52.5t86 150.5z" />
    <glyph glyph-name="T" unicode="T" horiz-adv-x="1251" 
d="M569 1192h-458l57 270h1221l-58 -270h-438l-250 -1192h-324z" />
    <glyph glyph-name="U" unicode="U" horiz-adv-x="1517" 
d="M243.5 72.5q-165.5 107.5 -165.5 326.5q0 68 31 217l178 846h321l-178 -846q-31 -140 -31 -176q0 -81 62.5 -142.5t212.5 -61.5q255 0 297.5 138t60.5 222l182 866h322l-178 -850q-70 -336 -225.5 -491.5t-439.5 -155.5t-449.5 107.5z" />
    <glyph glyph-name="V" unicode="V" horiz-adv-x="1290" 
d="M678 0h-363l-168 1462h322l96 -1097h4l555 1097h334z" />
    <glyph glyph-name="W" unicode="W" horiz-adv-x="1933" 
d="M1389 0h-320l-37 1044h-4l-455 -1044h-323l-100 1462h321l21 -1071h4l462 1071h308l37 -1067h4l446 1067h322z" />
    <glyph glyph-name="X" unicode="X" horiz-adv-x="1366" 
d="M522 770l-342 692h350l207 -483l375 483h381l-608 -706l362 -756h-354l-229 522l-418 -522h-389z" />
    <glyph glyph-name="Y" unicode="Y" horiz-adv-x="1327" 
d="M475 567l-350 895h330l219 -622l454 622h379l-712 -909l-113 -553h-324z" />
    <glyph glyph-name="Z" unicode="Z" horiz-adv-x="1327" 
d="M-33 266l977 926h-749l59 270h1155l-53 -258l-985 -934h825l-53 -270h-1231z" />
    <glyph glyph-name="bracketleft" unicode="[" horiz-adv-x="681" 
d="M317 1497h529l-49 -229h-256l-297 -1411h258l-49 -230h-529z" />
    <glyph glyph-name="backslash" unicode="\" horiz-adv-x="796" 
d="M801 -35h-234l-571 1532h233z" />
    <glyph glyph-name="bracketright" unicode="]" horiz-adv-x="681" 
d="M299 -373h-528l49 230h256l297 1411h-258l49 229h528z" />
    <glyph glyph-name="asciicircum" unicode="^" horiz-adv-x="1228" 
d="M477 1434h275l352 -789h-240l-250 563l-249 -563h-240z" />
    <glyph glyph-name="underscore" unicode="_" horiz-adv-x="1024" 
d="M0 -154h1024v-102h-1024v102z" />
    <glyph glyph-name="grave" unicode="`" 
d="M541 1206h-205l-287 291h311z" />
    <glyph glyph-name="a" unicode="a" horiz-adv-x="1175" 
d="M276 280q0 -54 48 -84t114 -30q117 0 177.5 64t93.5 176l28 102q-55 -33 -118.5 -40t-115.5 -11t-91 -13.5t-69 -28t-48.5 -50t-18.5 -85.5zM615 1087q456 0 450 -278q0 -76 -23 -178l-94 -426q-14 -51 -14 -112.5t10 -92.5h-291v104q-59 -68 -146 -100.5t-175 -32.5
q-167 0 -256.5 81t-89.5 198q0 154 107.5 246t297.5 114q102 12 178 18.5t126 20t75 39t25 70.5q0 135 -188 135q-75 0 -136 -38t-76 -118h-272q26 187 163.5 268.5t328.5 81.5z" />
    <glyph glyph-name="b" unicode="b" horiz-adv-x="1251" 
d="M680 868q-100 0 -159.5 -45t-115 -143.5t-55.5 -265.5q0 -98 55.5 -161t146.5 -63q161 0 240.5 140t79.5 303q0 100 -46 167.5t-146 67.5zM780 1087q195 0 289 -125.5t94 -324.5q0 -271 -148.5 -468.5t-405.5 -197.5t-326 195h-4l-35 -166h-269l308 1462h290l-108 -516h4
q68 74 138.5 107.5t172.5 33.5z" />
    <glyph glyph-name="c" unicode="c" horiz-adv-x="1138" 
d="M1038 387q-138 -416 -554 -416q-214 0 -339 111t-125 344q0 280 161 470.5t437 190.5q328 0 401 -145t75 -250h-291q0 94 -49.5 135t-139.5 41q-157 0 -230 -141.5t-73 -303.5t73 -197.5t128 -35.5q98 0 154.5 59.5t81.5 137.5h290z" />
    <glyph glyph-name="d" unicode="d" horiz-adv-x="1251" 
d="M424 -29q-193 0 -298.5 113t-105.5 305q0 285 150 491.5t428 206.5q157 0 219 -63t78 -106h4l117 544h291l-310 -1462h-280l28 131l-4 4q-49 -86 -134 -125t-183 -39zM641 868q-164 0 -247 -139.5t-83 -302.5q0 -98 53.5 -167t144.5 -69q157 0 243 145t86 304
q0 102 -51.5 165.5t-145.5 63.5z" />
    <glyph glyph-name="e" unicode="e" horiz-adv-x="1175" 
d="M299 436v-39q0 -92 57.5 -149.5t172.5 -57.5t159.5 60.5t61.5 85.5h290q-72 -184 -199 -274.5t-347 -90.5t-347 120t-127 363t116 384t224.5 195t231.5 54q242 0 374 -119.5t132 -342.5q0 -84 -17 -166h-780q-2 -20 -2 -23zM817 643q0 99 -40 162t-156 63
q-170 0 -221.5 -90t-67.5 -135h485z" />
    <glyph glyph-name="f" unicode="f" horiz-adv-x="720" 
d="M709 1255q-39 0 -69 -13t-45 -38.5t-23.5 -62.5t-20.5 -82h207l-41 -195h-209l-182 -864h-291l182 864h-172l41 195h174q45 225 122.5 320.5t289.5 95.5q90 0 190 -17l-45 -209q-69 6 -108 6z" />
    <glyph glyph-name="g" unicode="g" horiz-adv-x="1251" 
d="M639 868q-153 0 -233 -128.5t-80 -280.5t73 -187.5t137 -35.5t122.5 37.5t115.5 125t57 240.5q0 100 -51 164.5t-141 64.5zM-39 -55h291q-4 -76 54 -114t132 -38q128 0 186 87t113 282l-4 4q-113 -150 -296 -150t-292.5 119.5t-109.5 313.5q0 250 147 444t388 194
t323 -190h4l33 162h278l-211 -1004q-55 -246 -190.5 -351t-392.5 -105q-297 0 -375 124.5t-78 221.5z" />
    <glyph glyph-name="h" unicode="h" horiz-adv-x="1251" 
d="M817 1087q152 0 230.5 -72.5t78.5 -211.5q0 -16 -4 -42t-8 -52.5t-10 -50t-8 -37.5l-131 -621h-291l129 621q2 12 6 29.5t6 36t4 35.5t2 28q0 47 -44.5 77.5t-102.5 30.5q-112 0 -186.5 -82.5t-102.5 -212.5l-119 -563h-291l306 1462h290l-108 -526h4q66 95 172 123
t178 28z" />
    <glyph glyph-name="i" unicode="i" 
d="M201 1059h293l-226 -1059h-293zM526 1223h-293l54 239h293z" />
    <glyph glyph-name="j" unicode="j" 
d="M-128 -133q40 0 59.5 21.5t31.5 52t18.5 62.5t12.5 54l211 1002h291l-232 -1098q-39 -182 -123 -258t-270 -76q-35 0 -71 4t-70 7l49 233q53 -4 93 -4zM526 1223h-293l54 239h293z" />
    <glyph glyph-name="k" unicode="k" horiz-adv-x="1138" 
d="M283 1462h290l-167 -794l4 -4l417 395h359l-475 -402l272 -657h-319l-175 473l-151 -129l-72 -344h-291z" />
    <glyph glyph-name="l" unicode="l" 
d="M287 1462h291l-312 -1462h-291z" />
    <glyph glyph-name="m" unicode="m" horiz-adv-x="1857" 
d="M817 1087q96 0 167 -44t89 -140q52 79 152.5 131.5t183.5 52.5q157 0 250.5 -68.5t93.5 -199.5q0 -64 -31 -196l-131 -623h-291l140 670q8 46 8 84t-36 71t-93 33q-104 0 -175.5 -89.5t-94.5 -201.5l-119 -567h-293l139 670q8 46 8 84t-35 71t-93 33q-103 0 -175.5 -89.5
t-95.5 -201.5l-119 -567h-291l222 1059h278l-33 -150h4q131 178 371 178z" />
    <glyph glyph-name="n" unicode="n" horiz-adv-x="1251" 
d="M817 1087q152 0 230.5 -72.5t78.5 -211.5q0 -16 -4 -42t-8 -52.5t-10 -50t-8 -37.5l-131 -621h-291l129 621q2 12 6 29.5t6 36t4 35.5t2 28q0 47 -44.5 77.5t-102.5 30.5q-112 0 -186.5 -82.5t-102.5 -212.5l-119 -563h-291l222 1059h278l-33 -148h4q141 176 371 176z
" />
    <glyph glyph-name="o" unicode="o" horiz-adv-x="1214" 
d="M20 428q0 279 166.5 469t442.5 190q225 0 359 -112.5t134 -335.5q0 -288 -168 -478t-448 -190q-221 0 -353.5 115t-132.5 342zM831 635q0 233 -213 233q-146 0 -226.5 -142t-80.5 -298q0 -99 55.5 -168.5t145.5 -69.5q156 0 237.5 142.5t81.5 302.5z" />
    <glyph glyph-name="p" unicode="p" horiz-adv-x="1251" 
d="M646 868q-66 0 -125.5 -44t-119 -144.5t-59.5 -259.5q0 -102 51 -166t145 -64q165 0 247.5 140.5t82.5 300.5t-78 198.5t-144 38.5zM758 1087q193 0 297 -112.5t104 -304.5q0 -287 -150.5 -493t-424.5 -206q-156 0 -218.5 63.5t-78.5 106.5h-6l-111 -514h-291l305 1432
h281l-29 -131l4 -4q93 163 318 163z" />
    <glyph glyph-name="q" unicode="q" horiz-adv-x="1251" 
d="M20 422q0 268 147.5 466.5t406.5 198.5t327 -194h4l35 166h268l-301 -1432h-291l97 457h-4q-104 -113 -299 -113t-292.5 127.5t-97.5 323.5zM638 868q-165 0 -246 -142t-81 -304t78.5 -197t146.5 -35t127.5 44.5t119 145t59.5 265.5q0 98 -55.5 160.5t-148.5 62.5z" />
    <glyph glyph-name="r" unicode="r" horiz-adv-x="796" 
d="M680 817q-57 0 -160.5 -50.5t-154.5 -297.5l-99 -469h-291l222 1059h276l-43 -191l4 -4q49 111 148.5 167t216.5 56q43 0 90 -6l-60 -282q-92 18 -149 18z" />
    <glyph glyph-name="s" unicode="s" horiz-adv-x="1062" 
d="M379 788q0 -35 29.5 -59t103.5 -47l145 -47q203 -64 241 -150.5t38 -168.5t-44 -151t-148 -131.5t-299 -62.5t-329 79.5t-134 250.5v43h270v-35q0 -68 63 -105.5t121 -37.5q209 0 209 122q0 60 -28.5 82.5t-75.5 39.5l-224 71q-118 39 -173.5 96t-55.5 163t44 169.5
t143 120.5t292 57q431 0 424 -337h-270q-4 143 -173 143t-169 -105z" />
    <glyph glyph-name="t" unicode="t" horiz-adv-x="757" 
d="M435.5 225q25.5 -14 74.5 -14t102 6l-49 -225q-112 -10 -173 -10q-133 0 -211 50t-75 165q0 28 15 100l119 567h-191l45 195h187l65 321h291l-66 -321h209l-45 -195h-207l-108 -526q-8 -32 -8 -66q0 -33 25.5 -47z" />
    <glyph glyph-name="u" unicode="u" horiz-adv-x="1251" 
d="M358 -29q-152 0 -230.5 73t-78.5 212q0 74 31 182l131 621h291l-129 -621q-9 -26 -12 -55t-5 -46.5t-2 -27.5q0 -47 44 -77.5t103 -30.5q112 0 185.5 81.5t104.5 213.5l118 563h291l-221 -1059h-279l33 147h-4q-141 -176 -371 -176z" />
    <glyph glyph-name="v" unicode="v" horiz-adv-x="1062" 
d="M532 0h-331l-140 1059h299l66 -754h4l375 754h307z" />
    <glyph glyph-name="w" unicode="w" horiz-adv-x="1669" 
d="M1155 0h-303l-37 743h-4l-328 -743h-305l-117 1059h297l41 -746h4l326 746h295l33 -740h4l340 740h307z" />
    <glyph glyph-name="x" unicode="x" horiz-adv-x="1062" 
d="M647 551l268 -551h-307l-153 348l-283 -348h-330l492 567l-240 492h312l116 -305l240 305h325z" />
    <glyph glyph-name="y" unicode="y" horiz-adv-x="1062" 
d="M27 -373q-39 0 -78 4t-78 7l49 241l119 -12q120 0 149 61.5t43 81.5l-188 1049h299l92 -758h4l367 758h307l-674 -1209q-73 -134 -159.5 -178.5t-251.5 -44.5z" />
    <glyph glyph-name="z" unicode="z" horiz-adv-x="1024" 
d="M-59 215l663 625h-510l47 219h889l-45 -215l-666 -625h584l-47 -219h-960z" />
    <glyph glyph-name="braceleft" unicode="{" horiz-adv-x="681" 
d="M684 1268q-68 0 -99.5 -45t-41.5 -105l-66 -311q-28 -133 -104 -184.5t-150 -57.5v-6q96 -11 129 -64t33 -91t-6 -70l-68 -328q-8 -36 -8 -72q0 -78 86 -77h111l-47 -230h-260q-71 0 -136 58.5t-65 160.5q0 27 6 58l84 399q4 20 4 45t-31 75t-127 50l37 178
q64 0 136 45.5t92 139.5l79 385q26 129 128 202.5t182 73.5h260l-47 -229h-111z" />
    <glyph glyph-name="bar" unicode="|" horiz-adv-x="454" 
d="M119 1610h219v-2048h-219v2048z" />
    <glyph glyph-name="braceright" unicode="}" horiz-adv-x="681" 
d="M-68 -143q68 0 99.5 45t42.5 104l65 311q24 130 95.5 178.5t158.5 63.5v6q-98 11 -130 64t-32 90t7 72l67 327q8 36 8 72q0 78 -86 78h-110l47 229h260q70 0 135.5 -58.5t65.5 -160.5q0 -27 -7 -57l-83 -400q-2 -10 -3.5 -17t-1.5 -30t31 -73t127 -50l-37 -178
q-66 0 -137.5 -45.5t-89.5 -138.5l-80 -385q-26 -128 -126.5 -202.5t-182.5 -74.5h-260l47 230h110z" />
    <glyph glyph-name="asciitilde" unicode="~" horiz-adv-x="1228" 
d="M391 477q-91 0 -125.5 -60.5t-46.5 -86.5l-82 190q85 176 256 176q77 0 181 -45t159 -69.5t91 -24.5t61.5 13.5t47 34t40 47t37.5 53.5l82 -191q-58 -83 -115 -129.5t-144 -46.5t-206 70q-120 70 -236 69z" />
    <glyph glyph-name="uni00A0" unicode="&#xa0;" horiz-adv-x="569" 
 />
    <glyph glyph-name="exclamdown" unicode="&#xa1;" horiz-adv-x="606" 
d="M10 23l215 626h144l-52 -626l-84 -398h-309zM483 772h-323l67 315h324z" />
    <glyph glyph-name="cent" unicode="&#xa2;" horiz-adv-x="1138" 
d="M313 414q0 -72 29 -131.5t100 -79.5l140 665q-133 -14 -201 -153t-68 -301zM23 426q0 282 160.5 471.5t437.5 189.5h8l37 177h100l-39 -185q254 -33 310.5 -165t58.5 -222h-291q0 143 -123 168l-139 -670q86 10 135 67.5t72 129.5h290q-61 -213 -190 -314.5t-350 -101.5
h-4l-45 -211h-101l45 220q-372 48 -372 446z" />
    <glyph glyph-name="sterling" unicode="&#xa3;" horiz-adv-x="1138" 
d="M1061 70q-163 -105 -313 -105q-74 0 -126.5 12.5t-153 39t-168.5 26.5q-69 0 -121 -19.5t-116 -58.5l-86 199q126 93 192.5 169t66.5 183q0 56 -9 121h-198l37 174h131q-45 129 -45 234q0 104 45 190t157 174t339 88q226 0 353.5 -130t116.5 -392h-280q9 282 -195 282
q-111 0 -171 -66.5t-60 -179.5t37 -200h288l-34 -174h-234q2 -13 2 -27v-30q0 -121 -51 -201t-143 -146l4 -4q80 33 144 33q81 0 167.5 -23.5t142.5 -23.5q99 0 197 74z" />
    <glyph glyph-name="currency" unicode="&#xa4;" horiz-adv-x="1138" 
d="M59 725.5q0 185.5 99 284.5l-117 118l117 117l116 -115q51 43 132 69t165 26t160 -25.5t123 -66.5l119 116l125 -125l-115 -112q92 -100 92 -289t-94 -303l113 -115l-113 -112l-117 118q-106 -102 -295 -102t-299 100l-114 -119l-115 115l117 119q-99 116 -99 301.5z
M388 921q-69 -85 -69 -205q0 -121 69 -204.5t184 -83.5t179 86.5t64 204.5t-65.5 202.5t-179.5 84.5q-113 0 -182 -85z" />
    <glyph glyph-name="yen" unicode="&#xa5;" horiz-adv-x="1138" 
d="M326 283h-318l41 194h318l18 92l-16 62h-289l41 194h192l-180 637h338l121 -637h4l387 637h338l-444 -637h190l-41 -194h-285l-43 -62l-24 -92h321l-41 -194h-317l-59 -283h-312z" />
    <glyph glyph-name="brokenbar" unicode="&#xa6;" horiz-adv-x="454" 
d="M119 330h219v-512h-219v512zM338 842h-219v512h219v-512z" />
    <glyph glyph-name="section" unicode="&#xa7;" horiz-adv-x="1214" 
d="M866 435q0 48 -13 76t-34.5 51.5t-47.5 44t-50 40.5l-129 109q-23 18 -38 32.5t-35.5 26.5t-56.5 12q-62 0 -102.5 -38.5t-40.5 -81.5q0 -44 9.5 -67.5t26 -42.5t38 -35.5t43.5 -37.5l148 -121q14 -12 29.5 -26.5t46.5 -38t76 -23.5q44 0 87 36t43 84zM920 3
q0 -178 -137 -277t-333 -99t-319 106.5t-115 301.5h260q-6 -78 40 -133.5t130 -55.5q125 0 154 51.5t29 87.5q0 61 -47.5 110t-130.5 108l-207 149q-185 126 -185 320q0 112 82 200.5t211 104.5q-35 47 -50 81t-15 106t43 137t140.5 130.5t272.5 65.5q307 -7 362.5 -149
t43.5 -240h-260q4 72 -34 121t-113 49t-119.5 -37t-44.5 -104t69.5 -121.5t89.5 -67.5l189 -135q200 -149 200 -300q0 -147 -80 -230t-188 -111q62 -70 62 -169z" />
    <glyph glyph-name="dieresis" unicode="&#xa8;" 
d="M485 1464h269l-49 -239h-269zM84 1464h268l-49 -239h-268z" />
    <glyph glyph-name="copyright" unicode="&#xa9;" horiz-adv-x="1638" 
d="M33 731q0 174 64.5 316.5t173 242t251 153.5t298 54t298 -54t251 -153.5t173 -242t64.5 -316.5t-64.5 -315.5t-173 -241.5t-251 -154.5t-298 -54.5t-298 54.5t-251 154.5t-173 241.5t-64.5 315.5zM242 731q0 -259 166 -430.5t410 -171.5t411.5 172t167.5 430t-168 430
t-411 172q-244 0 -410 -171.5t-166 -430.5zM832 281q-84 0 -165 34.5t-170 129.5t-89 294q0 198 118 326.5t318 128.5q145 0 247.5 -83t122.5 -234h-159q-16 72 -73.5 112.5t-137.5 40.5q-117 0 -178.5 -82t-61.5 -208t68 -211t165 -85t152 43t66 117h166
q-23 -148 -127.5 -235.5t-261.5 -87.5z" />
    <glyph glyph-name="ordfeminine" unicode="&#xaa;" horiz-adv-x="704" 
d="M268 980q0 -79 102 -79q74 0 113 39t60 102l16 56q-43 -20 -127 -28q-84 -9 -124 -27.5t-40 -62.5zM586 1257q0 72 -124 72q-30 0 -69 -20.5t-49 -61.5h-194q33 215 339 215t306 -178q0 -36 -15 -106l-61 -256q-10 -40 -10 -71t8 -65h-217v64q-74 -82 -200 -82t-183.5 50
t-57.5 118q0 212 265 244q49 6 155.5 13t106.5 64z" />
    <glyph glyph-name="guillemotleft" unicode="&#xab;" horiz-adv-x="948" 
d="M444 446l58 267l370 235l-53 -252l-225 -139l158 -174l-45 -219zM43 446l57 267l371 235l-53 -252l-225 -139l157 -174l-45 -219z" />
    <glyph glyph-name="logicalnot" unicode="&#xac;" horiz-adv-x="1228" 
d="M1130 203h-219v409h-813v219h1032v-628z" />
    <glyph glyph-name="uni00AD" unicode="&#xad;" horiz-adv-x="833" 
d="M109 684h616l-53 -250h-617z" />
    <glyph glyph-name="registered" unicode="&#xae;" horiz-adv-x="1638" 
d="M33 732q0 175 64.5 316.5t173 241t251 153.5t298 54t298 -54t251 -153.5t173 -241t64.5 -316.5t-64.5 -316.5t-173 -241.5t-251 -154.5t-298 -54.5t-298 54.5t-251 154.5t-173 241.5t-64.5 316.5zM407.5 302q165.5 -173 410.5 -173t412 174t167 430t-168 428t-411 172
q-244 0 -410 -171.5t-166 -429t165.5 -430.5zM514 1163h324q162 0 249 -57t87 -208t-89.5 -182.5t-136.5 -35.5l230 -375h-179l-208 367h-103v-367h-174v858zM999 924q0 106 -172 106h-139v-225h148q70 0 116.5 20.5t46.5 98.5z" />
    <glyph glyph-name="macron" unicode="&#xaf;" 
d="M100 1421h625l-29 -153h-624z" />
    <glyph glyph-name="degree" unicode="&#xb0;" horiz-adv-x="819" 
d="M168 1159.5q0 63.5 23.5 118.5t64.5 96t96.5 64.5t119 23.5t118.5 -23.5t96 -64.5t64.5 -96t23.5 -118.5t-23.5 -119t-64.5 -96.5t-96 -64.5t-118.5 -23.5t-119 23.5t-96.5 64.5t-64.5 96.5t-23.5 119zM301 1159q0 -37 14.5 -69.5t38 -57t54 -39t63.5 -14.5t63.5 14.5
t54 39t38 57t14.5 69.5t-14.5 70t-38 57.5t-54 38.5t-63.5 14t-63.5 -14t-54 -38.5t-38 -57.5t-14.5 -70z" />
    <glyph glyph-name="plusminus" unicode="&#xb1;" horiz-adv-x="1228" 
d="M98 768h408v268h219v-268h408v-219h-408v-268h-219v268h-408v219zM98 219h1035v-219h-1035v219z" />
    <glyph glyph-name="twosuperior" unicode="&#xb2;" horiz-adv-x="802" 
d="M641 1182q-1 116 -147 116q-64 0 -108 -52t-48 -122h-209q14 166 115.5 252t279.5 86q231 0 278.5 -99t47.5 -159q0 -99 -55 -162t-148 -121q-94 -57 -183 -101t-145 -97h445l-37 -164h-694q11 158 100.5 242.5t225.5 150.5q137 66 209.5 117t72.5 113z" />
    <glyph glyph-name="threesuperior" unicode="&#xb3;" horiz-adv-x="802" 
d="M651 1022q135 -33 135 -181t-109.5 -224t-289.5 -76q-340 0 -340 286v39h197v-30q0 -59 39 -95t111 -36t122.5 38.5t50.5 98.5q0 108 -127 108h-69l26 144h58q117 0 146.5 36.5t29.5 77.5t-38.5 65.5t-102.5 24.5q-128 0 -160 -141h-197q20 154 117.5 229.5t257.5 75.5
q215 0 267 -85t52 -157t-49 -125t-127 -69v-4z" />
    <glyph glyph-name="acute" unicode="&#xb4;" 
d="M479 1206h-205l181 291h311z" />
    <glyph glyph-name="mu" unicode="&#xb5;" horiz-adv-x="1251" 
d="M358 -29q-43 0 -90 11l-73 -355h-291l307 1432h291l-129 -621q-9 -26 -12 -55t-5 -46.5t-2 -27.5q0 -47 44 -77.5t103 -30.5q112 0 185.5 81.5t104.5 213.5l118 563h291l-221 -1059h-279l33 147h-4q-141 -176 -371 -176z" />
    <glyph glyph-name="paragraph" unicode="&#xb6;" horiz-adv-x="1228" 
d="M721 1462h577l-378 -1802h-197l346 1638h-227l-346 -1638h-197l225 1063q-208 0 -305 99t-63 263q82 377 565 377z" />
    <glyph glyph-name="periodcentered" unicode="&#xb7;" horiz-adv-x="569" 
d="M88 589q0 70 52 121.5t122 51.5t121 -51.5t51 -118.5t-50 -121.5t-120 -54.5q-114 0 -145 68.5t-31 104.5z" />
    <glyph glyph-name="cedilla" unicode="&#xb8;" 
d="M239 -338q83 0 83 68q0 39 -24 52t-62 13t-78 -14l-43 49l121 170h100l-80 -109l6 -4q67 24 161.5 0t94.5 -123q0 -117 -67.5 -162.5t-178.5 -45.5t-165 17t-82 28l43 98q88 -37 171 -37z" />
    <glyph glyph-name="onesuperior" unicode="&#xb9;" horiz-adv-x="802" 
d="M512 559h-213l127 561h-225l35 154q107 4 177.5 39t123.5 131h174z" />
    <glyph glyph-name="ordmasculine" unicode="&#xba;" horiz-adv-x="729" 
d="M467 1462q172 0 262 -67.5t90 -231.5t-109 -279.5t-304 -115.5q-156 0 -243 70t-87 231t109.5 277t281.5 116zM610 1162q0 147 -122 147q-98 0 -150.5 -82t-52.5 -179q0 -42 33.5 -84t89.5 -42q97 0 149.5 83.5t52.5 156.5z" />
    <glyph glyph-name="guillemotright" unicode="&#xbb;" horiz-adv-x="948" 
d="M440 666l-57 -267l-371 -235l54 252l225 139l-158 174l45 219zM842 666l-58 -267l-370 -235l53 252l225 139l-157 174l45 219z" />
    <glyph glyph-name="onequarter" unicode="&#xbc;" horiz-adv-x="1820" 
d="M1266 1479h174l-844 -1524h-178zM551 559h-213l127 561h-225l34 154q108 4 179 39t122 131h175zM1339 182h-426l41 178l535 500h217l-119 -514h121l-33 -164h-127l-41 -182h-209zM1378 346l70 301l-4 4l-320 -305h254z" />
    <glyph glyph-name="onehalf" unicode="&#xbd;" horiz-adv-x="1820" 
d="M1262 1479h174l-844 -1524h-178zM467 1120h-225l34 154q108 4 178.5 39t123.5 131h174l-199 -885h-213zM1645 622q0 116 -147 117q-65 0 -108.5 -52t-48.5 -122h-208q14 166 115.5 252t279.5 86q230 0 277.5 -98.5t47.5 -158.5q0 -101 -56.5 -165.5t-148.5 -119.5
q-92 -56 -181 -100t-144 -97h444l-36 -164h-695q11 156 99.5 241t226.5 151q138 67 210.5 117.5t72.5 112.5z" />
    <glyph glyph-name="threequarters" unicode="&#xbe;" horiz-adv-x="1820" 
d="M1266 1479h174l-844 -1524h-178zM606 1022q135 -33 135 -181t-109.5 -224t-289.5 -76q-340 0 -340 286v39h197v-30q0 -59 38.5 -95t110.5 -36t123 38.5t51 98.5q0 108 -127 108h-69l26 144h58q117 0 146.5 36.5t29.5 77.5t-38 65.5t-102 24.5q-128 0 -161 -141h-197
q20 154 117.5 229.5t257.5 75.5q215 0 267 -85t52 -157t-49 -125t-127 -69v-4zM1339 182h-426l41 178l535 500h217l-119 -514h121l-33 -164h-127l-41 -182h-209zM1378 346l70 301l-4 4l-320 -305h254z" />
    <glyph glyph-name="questiondown" unicode="&#xbf;" horiz-adv-x="1175" 
d="M65 -305q-128 96 -128 286t113.5 271.5t164.5 110.5q122 69 175.5 126.5t64.5 155.5h270q-26 -188 -100.5 -272t-237.5 -170q-145 -86 -145 -205q0 -82 53 -121t117 -39q113 0 174 72.5t76 179.5h290q-12 -238 -170 -364.5t-374 -126.5q-215 0 -343 96zM784 772h-323
l67 315h324z" />
    <glyph glyph-name="Agrave" unicode="&#xc0;" horiz-adv-x="1402" 
d="M494 565h391l-72 582h-4zM707 1462h329l244 -1462h-319l-48 326h-546l-185 -326h-340zM1020 1595h-205l-287 291h312z" />
    <glyph glyph-name="Aacute" unicode="&#xc1;" horiz-adv-x="1402" 
d="M494 565h391l-72 582h-4zM707 1462h329l244 -1462h-319l-48 326h-546l-185 -326h-340zM944 1595h-205l181 291h311z" />
    <glyph glyph-name="Acircumflex" unicode="&#xc2;" horiz-adv-x="1402" 
d="M494 565h391l-72 582h-4zM707 1462h329l244 -1462h-319l-48 326h-546l-185 -326h-340zM811 1886h258l170 -291h-205l-102 166l-178 -166h-224z" />
    <glyph glyph-name="Atilde" unicode="&#xc3;" horiz-adv-x="1402" 
d="M494 565h391l-72 582h-4zM707 1462h329l244 -1462h-319l-48 326h-546l-185 -326h-340zM1020 1632q-68 0 -173 35t-147 35q-41 0 -58 -24t-28 -62h-125q24 110 63 157q38 49 83 71t97 22t82 -12q32 -12 94 -36t108 -24q45 0 65 22t19 50h141q-30 -106 -59 -147
q-63 -87 -162 -87z" />
    <glyph glyph-name="Adieresis" unicode="&#xc4;" horiz-adv-x="1402" 
d="M494 565h391l-72 582h-4zM707 1462h329l244 -1462h-319l-48 326h-546l-185 -326h-340zM1001 1853h269l-49 -239h-269zM600 1853h268l-49 -239h-268z" />
    <glyph glyph-name="Aring" unicode="&#xc5;" horiz-adv-x="1402" 
d="M494 565h391l-72 582h-4zM707 1462h329l244 -1462h-319l-48 326h-546l-185 -326h-340zM764 1774q0 -58 34 -98t93 -40t94 39t35 99t-35 98q-35 39 -94 39t-93 -39t-34 -98zM641 1774q0 164 151 226q46 19 98 19q109 0 179 -68t71 -177q1 -110 -68 -177t-182 -67t-181 66
t-68 178z" />
    <glyph glyph-name="AE" unicode="&#xc6;" horiz-adv-x="2009" 
d="M1036 1192h-41l-448 -637h352zM840 1462h1251l-57 -270h-674l-68 -313h631l-53 -250h-631l-78 -359h694l-57 -270h-1018l68 315h-451l-223 -315h-360z" />
    <glyph glyph-name="Ccedilla" unicode="&#xc7;" horiz-adv-x="1517" 
d="M574 -338q83 0 83 68q0 39 -23.5 52t-62.5 13t-77 -14l-43 49l106 150q-190 35 -311 153q-170 168 -170 479q0 368 158.5 555t307 258.5t304.5 71.5q293 0 455.5 -142t158.5 -401h-321q0 135 -72.5 204t-192.5 69t-211.5 -56.5t-178.5 -190t-87 -368.5q0 -160 83 -268
t249 -108q128 0 225.5 85.5t118.5 204.5h322q-138 -435 -344.5 -498t-285.5 -63t-118 4l-55 -78l6 -4q67 24 161.5 0t94.5 -123q0 -117 -68 -162.5t-145 -45.5q-117 0 -169 11t-112 34l43 98q88 -37 171 -37z" />
    <glyph glyph-name="Egrave" unicode="&#xc8;" horiz-adv-x="1366" 
d="M299 1462h1116l-55 -270h-795l-65 -313h735l-53 -250h-736l-75 -359h807l-58 -270h-1128zM1044 1595h-204l-287 291h311z" />
    <glyph glyph-name="Eacute" unicode="&#xc9;" horiz-adv-x="1366" 
d="M299 1462h1116l-55 -270h-795l-65 -313h735l-53 -250h-736l-75 -359h807l-58 -270h-1128zM965 1595h-205l180 291h311z" />
    <glyph glyph-name="Ecircumflex" unicode="&#xca;" horiz-adv-x="1366" 
d="M299 1462h1116l-55 -270h-795l-65 -313h735l-53 -250h-736l-75 -359h807l-58 -270h-1128zM791 1886h258l170 -291h-205l-103 166l-178 -166h-223z" />
    <glyph glyph-name="Edieresis" unicode="&#xcb;" horiz-adv-x="1366" 
d="M299 1462h1116l-55 -270h-795l-65 -313h735l-53 -250h-736l-75 -359h807l-58 -270h-1128zM981 1853h268l-49 -239h-268zM580 1853h268l-49 -239h-269z" />
    <glyph glyph-name="Igrave" unicode="&#xcc;" horiz-adv-x="606" 
d="M301 1462h324l-310 -1462h-323zM631 1595h-205l-287 291h312z" />
    <glyph glyph-name="Iacute" unicode="&#xcd;" horiz-adv-x="606" 
d="M301 1462h324l-310 -1462h-323zM520 1595h-205l181 291h311z" />
    <glyph glyph-name="Icircumflex" unicode="&#xce;" horiz-adv-x="606" 
d="M301 1462h324l-310 -1462h-323zM410 1886h258l170 -291h-205l-103 166l-178 -166h-223z" />
    <glyph glyph-name="Idieresis" unicode="&#xcf;" horiz-adv-x="606" 
d="M301 1462h324l-310 -1462h-323zM604 1853h268l-49 -239h-268zM203 1853h268l-49 -239h-268z" />
    <glyph glyph-name="Eth" unicode="&#xd0;" horiz-adv-x="1517" 
d="M829 1462q307 0 464 -149.5t157 -419.5q0 -396 -217.5 -644.5t-628.5 -248.5h-612l133 635h-168l51 239h170l123 588h528zM618 270q240 0 375 163.5t135 411.5t-116.5 297.5t-202.5 49.5h-242l-67 -318h344l-51 -239h-347l-75 -365h247z" />
    <glyph glyph-name="Ntilde" unicode="&#xd1;" horiz-adv-x="1517" 
d="M301 1462h332l397 -1040h4l209 1040h295l-309 -1462h-322l-401 1026h-4l-209 -1026h-301zM1120 1632q-68 0 -173 35t-146 35t-59 -24t-27 -62h-125q25 113 63 159q39 47 83 69t96 22t82 -12q32 -12 94 -36t108 -24q45 0 66 22q20 22 18 50h141q-30 -106 -59 -147
q-63 -87 -162 -87z" />
    <glyph glyph-name="Ograve" unicode="&#xd2;" horiz-adv-x="1593" 
d="M397 626q0 -270 182 -360q61 -30 165 -30t192 56t147 145q119 180 119 426t-175 333q-61 31 -167 31q-106 -1 -197 -57t-149 -145t-88 -199q-29 -110 -29 -200zM76 612q0 369 214 620q104 122 252 194t314 71q481 0 622 -356q46 -117 46 -284t-54 -331
q-111 -341 -404 -487q-148 -74 -341 -74q-309 0 -479 168t-170 479zM1038 1595h-204l-287 291h311z" />
    <glyph glyph-name="Oacute" unicode="&#xd3;" horiz-adv-x="1593" 
d="M397 626q0 -270 182 -360q61 -30 165 -30t192 56t147 145q119 180 119 426t-175 333q-61 31 -167 31q-106 -1 -197 -57t-149 -145t-88 -199q-29 -110 -29 -200zM76 612q0 369 214 620q104 122 252 194t314 71q481 0 622 -356q46 -117 46 -284t-54 -331
q-111 -341 -404 -487q-148 -74 -341 -74q-309 0 -479 168t-170 479zM1028 1595h-205l181 291h311z" />
    <glyph glyph-name="Ocircumflex" unicode="&#xd4;" horiz-adv-x="1593" 
d="M397 626q0 -270 182 -360q61 -30 165 -30t192 56t147 145q119 180 119 426t-175 333q-61 31 -167 31q-106 -1 -197 -57t-149 -145t-88 -199q-29 -110 -29 -200zM76 612q0 369 214 620q104 122 252 194t314 71q481 0 622 -356q46 -117 46 -284t-54 -331
q-111 -341 -404 -487q-148 -74 -341 -74q-309 0 -479 168t-170 479zM868 1886h258l170 -291h-204l-103 166l-178 -166h-223z" />
    <glyph glyph-name="Otilde" unicode="&#xd5;" horiz-adv-x="1593" 
d="M397 626q0 -270 182 -360q61 -30 165 -30t192 56t147 145q119 180 119 426t-175 333q-61 31 -167 31q-106 -1 -197 -57t-149 -145t-88 -199q-29 -110 -29 -200zM76 612q0 369 214 620q104 122 252 194t314 71q481 0 622 -356q46 -117 46 -284t-54 -331
q-111 -341 -404 -487q-148 -74 -341 -74q-309 0 -479 168t-170 479zM1106 1632q-68 0 -173 35t-147 35t-58 -24q-17 -24 -28 -62h-125q24 110 63 157q38 49 83 71t97 22t82 -12q32 -12 94 -36t108 -24q45 0 65 22t19 50h141q-30 -106 -59 -147q-63 -87 -162 -87z" />
    <glyph glyph-name="Odieresis" unicode="&#xd6;" horiz-adv-x="1593" 
d="M397 626q0 -270 182 -360q61 -30 165 -30t192 56t147 145q119 180 119 426t-175 333q-61 31 -167 31q-106 -1 -197 -57t-149 -145t-88 -199q-29 -110 -29 -200zM76 612q0 369 214 620q104 122 252 194t314 71q481 0 622 -356q46 -117 46 -284t-54 -331
q-111 -341 -404 -487q-148 -74 -341 -74q-309 0 -479 168t-170 479zM1051 1853h268l-49 -239h-269zM649 1853h269l-50 -239h-268z" />
    <glyph glyph-name="multiply" unicode="&#xd7;" horiz-adv-x="1228" 
d="M131 190l330 328l-326 328l156 155l325 -327l328 327l156 -155l-330 -328l330 -328l-156 -155l-328 330l-329 -330z" />
    <glyph glyph-name="Oslash" unicode="&#xd8;" horiz-adv-x="1593" 
d="M877 1227q-123 0 -214.5 -56.5t-178.5 -190t-87 -368.5q0 -82 23 -153l706 657q-86 111 -249 111zM729 236q220 0 346.5 189t126.5 423q0 85 -20 153l-705 -653q87 -112 252 -112zM1524 888q0 -198 -53.5 -362t-155 -288.5t-249.5 -198.5t-341 -74q-309 0 -475 170
l-207 -192l-82 90l211 196q-96 149 -96 355t55 366t158.5 282t252 193.5t332.5 71.5q312 0 480 -168l202 189l84 -93l-208 -192q92 -147 92 -345z" />
    <glyph glyph-name="Ugrave" unicode="&#xd9;" horiz-adv-x="1517" 
d="M685 -35q-417 0 -557 232q-50 82 -50 176t31 243l178 846h321l-178 -846q-31 -139 -31 -176q0 -81 54 -134q72 -70 221 -70q256 0 319 209q20 67 39 151l182 866h322l-178 -850q-70 -336 -215 -481q-166 -166 -458 -166zM1030 1595h-205l-286 291h311z" />
    <glyph glyph-name="Uacute" unicode="&#xda;" horiz-adv-x="1517" 
d="M685 -35q-417 0 -557 232q-50 82 -50 176t31 243l178 846h321l-178 -846q-31 -139 -31 -176q0 -81 54 -134q72 -70 221 -70q256 0 319 209q20 67 39 151l182 866h322l-178 -850q-70 -336 -215 -481q-166 -166 -458 -166zM1032 1595h-205l181 291h311z" />
    <glyph glyph-name="Ucircumflex" unicode="&#xdb;" horiz-adv-x="1517" 
d="M685 -35q-417 0 -557 232q-50 82 -50 176t31 243l178 846h321l-178 -846q-31 -139 -31 -176q0 -81 54 -134q72 -70 221 -70q256 0 319 209q20 67 39 151l182 866h322l-178 -850q-70 -336 -215 -481q-166 -166 -458 -166zM844 1886h258l170 -291h-205l-102 166l-179 -166
h-223z" />
    <glyph glyph-name="Udieresis" unicode="&#xdc;" horiz-adv-x="1517" 
d="M685 -35q-417 0 -557 232q-50 82 -50 176t31 243l178 846h321l-178 -846q-31 -139 -31 -176q0 -81 54 -134q72 -70 221 -70q256 0 319 209q20 67 39 151l182 866h322l-178 -850q-70 -336 -215 -481q-166 -166 -458 -166zM1040 1853h269l-49 -239h-269zM639 1853h268
l-49 -239h-268z" />
    <glyph glyph-name="Yacute" unicode="&#xdd;" horiz-adv-x="1327" 
d="M475 567l-350 895h330l219 -622l454 622h379l-712 -909l-113 -553h-324zM936 1595h-205l180 291h312z" />
    <glyph glyph-name="Thorn" unicode="&#xde;" horiz-adv-x="1366" 
d="M1030 831q0 183 -227 183h-277l-90 -436h330q123 0 193.5 62t70.5 191zM844 1264q366 0 437 -153t71 -330t-166.5 -315t-403.5 -138h-399l-70 -328h-321l305 1462h321l-40 -198h266z" />
    <glyph glyph-name="germandbls" unicode="&#xdf;" horiz-adv-x="1214" 
d="M870 805q226 -54 226 -303q0 -235 -164 -383t-404 -148q-84 0 -147 17l47 227q46 -4 98 -4q116 0 197.5 83.5t81.5 207.5q0 211 -227 207h-41l38 184h46q111 0 177 53t66 170q0 66 -47 103.5t-107 37.5q-114 0 -156 -58.5t-75 -188.5l-213 -1010h-291l226 1067
q86 430 514 430q176 0 308 -86.5t132 -263.5q0 -133 -80 -221t-205 -117v-4z" />
    <glyph glyph-name="agrave" unicode="&#xe0;" horiz-adv-x="1175" 
d="M438 166q66 0 112 22q90 42 128 131q18 43 31 87l28 102q-55 -33 -119 -40t-115 -11q-52 -3 -91 -13t-69 -28t-48 -50q-19 -32 -19 -86t48 -84t114 -30zM615 1087q81 0 159 -10q175 -22 251 -125q42 -55 41 -137t-24 -184l-94 -426q-14 -51 -14 -113t10 -92h-291v104
q-59 -68 -146 -100t-175 -33q-167 0 -258 82q-90 82 -88 197q0 154 107 246q108 92 298 114q102 12 178 18t126 20q50 13 75 39t25 71t-26 81q-39 54 -138 54q-207 0 -236 -156h-272q26 187 175 275q126 75 317 75zM887 1206h-205l-287 291h312z" />
    <glyph glyph-name="aacute" unicode="&#xe1;" horiz-adv-x="1175" 
d="M438 166q66 0 112 22q90 42 128 131q18 43 31 87l28 102q-55 -33 -119 -40t-115 -11q-52 -3 -91 -13t-69 -28t-48 -50q-19 -32 -19 -86t48 -84t114 -30zM615 1087q81 0 159 -10q175 -22 251 -125q42 -55 41 -137t-24 -184l-94 -426q-14 -51 -14 -113t10 -92h-291v104
q-59 -68 -146 -100t-175 -33q-167 0 -258 82q-90 82 -88 197q0 154 107 246q108 92 298 114q102 12 178 18t126 20q50 13 75 39t25 71t-26 81q-39 54 -138 54q-207 0 -236 -156h-272q26 187 175 275q126 75 317 75zM762 1206h-205l180 291h312z" />
    <glyph glyph-name="acircumflex" unicode="&#xe2;" horiz-adv-x="1175" 
d="M438 166q66 0 112 22q90 42 128 131q18 43 31 87l28 102q-55 -33 -119 -40t-115 -11q-52 -3 -91 -13t-69 -28t-48 -50q-19 -32 -19 -86t48 -84t114 -30zM615 1087q81 0 159 -10q175 -22 251 -125q42 -55 41 -137t-24 -184l-94 -426q-14 -51 -14 -113t10 -92h-291v104
q-59 -68 -146 -100t-175 -33q-167 0 -258 82q-90 82 -88 197q0 154 107 246q108 92 298 114q102 12 178 18t126 20q50 13 75 39t25 71t-26 81q-39 54 -138 54q-207 0 -236 -156h-272q26 187 175 275q126 75 317 75zM594 1497h258l170 -291h-205l-102 166l-178 -166h-224z
" />
    <glyph glyph-name="atilde" unicode="&#xe3;" horiz-adv-x="1175" 
d="M438 166q66 0 112 22q90 42 128 131q18 43 31 87l28 102q-55 -33 -119 -40t-115 -11q-52 -3 -91 -13t-69 -28t-48 -50q-19 -32 -19 -86t48 -84t114 -30zM615 1087q81 0 159 -10q175 -22 251 -125q42 -55 41 -137t-24 -184l-94 -426q-14 -51 -14 -113t10 -92h-291v104
q-59 -68 -146 -100t-175 -33q-167 0 -258 82q-90 82 -88 197q0 154 107 246q108 92 298 114q102 12 178 18t126 20q50 13 75 39t25 71t-26 81q-39 54 -138 54q-207 0 -236 -156h-272q26 187 175 275q126 75 317 75zM525 1313q-38 0 -55 -24t-28 -62h-125q24 110 63 157
q75 93 195 93q41 0 132 -36t137 -36q45 -1 65 21t19 51h141q-10 -35 -25 -76q-54 -158 -196 -158q-71 1 -143 25t-107 34t-73 11z" />
    <glyph glyph-name="adieresis" unicode="&#xe4;" horiz-adv-x="1175" 
d="M438 166q66 0 112 22q90 42 128 131q18 43 31 87l28 102q-55 -33 -119 -40t-115 -11q-52 -3 -91 -13t-69 -28t-48 -50q-19 -32 -19 -86t48 -84t114 -30zM615 1087q81 0 159 -10q175 -22 251 -125q42 -55 41 -137t-24 -184l-94 -426q-14 -51 -14 -113t10 -92h-291v104
q-59 -68 -146 -100t-175 -33q-167 0 -258 82q-90 82 -88 197q0 154 107 246q108 92 298 114q102 12 178 18t126 20q50 13 75 39t25 71t-26 81q-39 54 -138 54q-207 0 -236 -156h-272q26 187 175 275q126 75 317 75zM786 1464h269l-49 -239h-269zM385 1464h268l-49 -239h-268
z" />
    <glyph glyph-name="aring" unicode="&#xe5;" horiz-adv-x="1175" 
d="M438 166q66 0 112 22q90 42 128 131q18 43 31 87l28 102q-55 -33 -119 -40t-115 -11q-52 -3 -91 -13t-69 -28t-48 -50q-19 -32 -19 -86t48 -84t114 -30zM615 1087q81 0 159 -10q175 -22 251 -125q42 -55 41 -137t-24 -184l-94 -426q-14 -51 -14 -113t10 -92h-291v104
q-59 -68 -146 -100t-175 -33q-167 0 -258 82q-90 82 -88 197q0 154 107 246q108 92 298 114q102 12 178 18t126 20q50 13 75 39t25 71t-26 81q-39 54 -138 54q-207 0 -236 -156h-272q26 187 175 275q126 75 317 75zM565 1401q0 -59 34 -98t93 -39t94 39t35 98t-35 98t-94 39
t-93 -39t-34 -98zM442 1401q0 164 151 226q97 40 194 4q97 -37 137 -133q18 -46 18 -97q0 -111 -68 -176t-182 -67q-113 -1 -181 66q-69 66 -69 177z" />
    <glyph glyph-name="ae" unicode="&#xe6;" horiz-adv-x="1857" 
d="M1528 643q0 117 -31 164t-71 66.5t-101 19.5q-113 0 -187.5 -72.5t-93.5 -177.5h484zM641 1087q287 0 369 -139q112 139 350 139q428 0 428 -479q0 -46 -10 -149h-762q-10 -45 -10 -89q0 -88 61.5 -146t163.5 -58q170 0 223 162h291q-139 -357 -535 -357q-274 0 -385 197
q-66 -102 -180.5 -149.5t-236.5 -47.5q-219 0 -309.5 78.5t-90.5 218.5t101.5 233t332.5 111q76 6 145.5 10.5t152.5 25t83 110.5q0 135 -164 135q-211 0 -231 -156h-281q55 281 239.5 315.5t254.5 34.5zM299 293q0 -127 170 -127q241 0 289 254l16 90q-57 -33 -136 -43
t-157 -18.5t-130 -48.5t-52 -107z" />
    <glyph glyph-name="ccedilla" unicode="&#xe7;" horiz-adv-x="1138" 
d="M372 -338q83 0 83 68q0 39 -23.5 52t-62.5 13t-78 -14l-43 49l108 154q-336 60 -336 442q0 280 161 470.5t437 190.5q328 0 401 -145t75 -250h-291q0 94 -49.5 135t-139.5 41q-157 0 -230 -141.5t-73 -303.5t73 -197.5t128 -35.5q98 0 154.5 59.5t81.5 137.5h290
q-66 -199 -203 -307.5t-343 -108.5q-23 0 -43 2l-60 -82l6 -4q67 24 161.5 0t94.5 -123q0 -117 -67.5 -162.5t-177.5 -45.5t-165 17t-83 28l43 98q88 -37 171 -37z" />
    <glyph glyph-name="egrave" unicode="&#xe8;" horiz-adv-x="1175" 
d="M299 424v-27q0 -92 57 -149q57 -58 174 -58t184 95q19 27 36 51h290q-73 -187 -201 -276t-347 -89q-332 0 -438 263q-34 87 -34 207t41 238q86 247 299 354q109 54 232 54q366 0 470 -261q36 -87 36 -186t-17 -181h-780q-2 -21 -2 -35zM817 643q1 99 -27 143t-67 63
t-101 19q-210 0 -290 -225h485zM780 1206h-205l-286 291h311z" />
    <glyph glyph-name="eacute" unicode="&#xe9;" horiz-adv-x="1175" 
d="M299 424v-27q0 -92 57 -149q57 -58 174 -58t184 95q19 27 36 51h290q-73 -187 -201 -276t-347 -89q-332 0 -438 263q-34 87 -34 207t41 238q86 247 299 354q109 54 232 54q366 0 470 -261q36 -87 36 -186t-17 -181h-780q-2 -21 -2 -35zM817 643q1 99 -27 143t-67 63
t-101 19q-210 0 -290 -225h485zM750 1206h-205l180 291h311z" />
    <glyph glyph-name="ecircumflex" unicode="&#xea;" horiz-adv-x="1175" 
d="M299 424v-27q0 -92 57 -149q57 -58 174 -58t184 95q19 27 36 51h290q-73 -187 -201 -276t-347 -89q-332 0 -438 263q-34 87 -34 207t41 238q86 247 299 354q109 54 232 54q366 0 470 -261q36 -87 36 -186t-17 -181h-780q-2 -21 -2 -35zM817 643q1 99 -27 143t-67 63
t-101 19q-210 0 -290 -225h485zM590 1497h258l170 -291h-205l-102 166l-179 -166h-223z" />
    <glyph glyph-name="edieresis" unicode="&#xeb;" horiz-adv-x="1175" 
d="M299 424v-27q0 -92 57 -149q57 -58 174 -58t184 95q19 27 36 51h290q-73 -187 -201 -276t-347 -89q-332 0 -438 263q-34 87 -34 207t41 238q86 247 299 354q109 54 232 54q366 0 470 -261q36 -87 36 -186t-17 -181h-780q-2 -21 -2 -35zM817 643q1 99 -27 143t-67 63
t-101 19q-210 0 -290 -225h485zM782 1464h269l-50 -239h-268zM381 1464h268l-49 -239h-268z" />
    <glyph glyph-name="igrave" unicode="&#xec;" 
d="M268 0h-293l226 1059h293zM489 1206h-204l-287 291h311z" />
    <glyph glyph-name="iacute" unicode="&#xed;" 
d="M268 0h-293l226 1059h293zM412 1206h-205l180 291h311z" />
    <glyph glyph-name="icircumflex" unicode="&#xee;" 
d="M268 0h-293l226 1059h293zM295 1497h258l170 -291h-205l-102 166l-178 -166h-224z" />
    <glyph glyph-name="idieresis" unicode="&#xef;" 
d="M268 0h-293l226 1059h293zM492 1464h268l-49 -239h-269zM90 1464h268l-49 -239h-268z" />
    <glyph glyph-name="eth" unicode="&#xf0;" horiz-adv-x="1214" 
d="M534 190q66 0 124.5 44.5t115.5 144t57 256.5q0 86 -48.5 146.5t-146.5 60.5t-156 -43t-113.5 -138t-55.5 -214q0 -118 55.5 -187.5t167.5 -69.5zM632 1036q145 0 224 -92l4 4q-19 155 -117 289l-247 -121l-131 127l256 125q-94 78 -183 115l191 114q104 -59 186 -135
l248 121l129 -125l-254 -125q184 -240 184 -596q0 -250 -101 -447.5t-242.5 -258t-272.5 -60.5q-221 0 -353.5 115t-132.5 350t169 417.5t443 182.5z" />
    <glyph glyph-name="ntilde" unicode="&#xf1;" horiz-adv-x="1251" 
d="M817 1087q152 -1 231 -73t78 -211q0 -16 -4 -42q-4 -27 -8 -53t-10 -50t-8 -37l-131 -621h-291l129 621q2 12 6 29q4 18 6 36l4 36t2 28q0 48 -44 78q-45 30 -103 30t-108 -26q-138 -71 -181 -269l-119 -563h-291l222 1059h278l-33 -148h4q141 176 371 176zM1073 1401
q-54 -158 -205 -158q-64 1 -135 25q-73 24 -107 34t-72 11q-38 0 -55 -24t-28 -62h-125q24 110 63 157q75 93 195 93q42 0 132 -36t135 -36q46 0 67 21q20 22 18 51h142q-10 -35 -25 -76z" />
    <glyph glyph-name="ograve" unicode="&#xf2;" horiz-adv-x="1214" 
d="M20 428q0 279 167 469t442 190q225 0 359 -112t134 -336q0 -288 -168 -477t-448 -191q-222 0 -354 115t-132 342zM385 715q-74 -132 -74 -289t119 -216q40 -20 106 -20t124 44q171 130 171 420q0 86 -49 150q-48 64 -146 64t-156 -44t-95 -109zM793 1206h-205l-287 291
h311z" />
    <glyph glyph-name="oacute" unicode="&#xf3;" horiz-adv-x="1214" 
d="M20 428q0 279 167 469t442 190q225 0 359 -112t134 -336q0 -288 -168 -477t-448 -191q-222 0 -354 115t-132 342zM385 715q-74 -132 -74 -289t119 -216q40 -20 106 -20t124 44q171 130 171 420q0 86 -49 150q-48 64 -146 64t-156 -44t-95 -109zM797 1206h-205l180 291
h311z" />
    <glyph glyph-name="ocircumflex" unicode="&#xf4;" horiz-adv-x="1214" 
d="M20 428q0 279 167 469t442 190q225 0 359 -112t134 -336q0 -288 -168 -477t-448 -191q-222 0 -354 115t-132 342zM385 715q-74 -132 -74 -289t119 -216q40 -20 106 -20t124 44q171 130 171 420q0 86 -49 150q-48 64 -146 64t-156 -44t-95 -109zM618 1497h259l170 -291
h-205l-103 166l-178 -166h-223z" />
    <glyph glyph-name="otilde" unicode="&#xf5;" horiz-adv-x="1214" 
d="M20 428q0 279 167 469t442 190q225 0 359 -112t134 -336q0 -288 -168 -477t-448 -191q-222 0 -354 115t-132 342zM385 715q-74 -132 -74 -289t119 -216q40 -20 106 -20t124 44q171 130 171 420q0 86 -49 150q-48 64 -146 64t-156 -44t-95 -109zM866 1243q-72 1 -143 25
q-72 24 -107 34q-34 10 -72 11q-38 0 -56 -24t-27 -62h-125q25 113 63 159q39 46 83 68t96 23t82 -11q32 -12 94 -36t108 -25q45 0 66 21q20 22 18 51h141q-30 -106 -59 -147q-63 -87 -162 -87z" />
    <glyph glyph-name="odieresis" unicode="&#xf6;" horiz-adv-x="1214" 
d="M20 428q0 279 167 469t442 190q225 0 359 -112t134 -336q0 -288 -168 -477t-448 -191q-222 0 -354 115t-132 342zM385 715q-74 -132 -74 -289t119 -216q40 -20 106 -20t124 44q171 130 171 420q0 86 -49 150q-48 64 -146 64t-156 -44t-95 -109zM825 1464h269l-50 -239
h-268zM424 1464h268l-49 -239h-268z" />
    <glyph glyph-name="divide" unicode="&#xf7;" horiz-adv-x="1228" 
d="M98 627h1035v-219h-1035v219zM492.5 1064q50.5 52 122.5 52q71 0 122 -51t51 -119t-50 -122t-121 -54q-72 0 -123.5 51.5t-51.5 121.5q0 69 50.5 121zM492.5 212q50.5 52 122.5 52q71 0 122 -50t51 -118t-50.5 -123t-120.5 -55t-122.5 52.5t-52.5 121.5q0 68 50.5 120z
" />
    <glyph glyph-name="oslash" unicode="&#xf8;" horiz-adv-x="1214" 
d="M311 442q0 -54 8 -80l469 433q-47 74 -170 73q-146 0 -208 -109.5t-80.5 -186t-18.5 -130.5zM831 635q0 39 -6 70l-469 -431q58 -84 152 -84q160 0 241.5 142.5t81.5 302.5zM1122 651q0 -300 -168 -490t-448 -190q-231 0 -352 117l-150 -137l-59 67l149 138
q-74 109 -74 258q0 293 166.5 483t442.5 190q226 0 356 -110l139 127l62 -68l-139 -127q75 -107 75 -258z" />
    <glyph glyph-name="ugrave" unicode="&#xf9;" horiz-adv-x="1251" 
d="M358 -29q-152 0 -230 73t-79 212q0 16 4 42t9 62t18 78l131 621h291l-129 -621q-19 -56 -19 -116t44 -91t103 -31q112 1 187 85q75 83 103 211l118 563h291l-221 -1059h-279l33 147h-4q-141 -176 -371 -176zM836 1206h-205l-287 291h311z" />
    <glyph glyph-name="uacute" unicode="&#xfa;" horiz-adv-x="1251" 
d="M358 -29q-152 0 -230 73t-79 212q0 16 4 42t9 62t18 78l131 621h291l-129 -621q-19 -56 -19 -116t44 -91t103 -31q112 1 187 85q75 83 103 211l118 563h291l-221 -1059h-279l33 147h-4q-141 -176 -371 -176zM829 1206h-204l180 291h311z" />
    <glyph glyph-name="ucircumflex" unicode="&#xfb;" horiz-adv-x="1251" 
d="M358 -29q-152 0 -230 73t-79 212q0 16 4 42t9 62t18 78l131 621h291l-129 -621q-19 -56 -19 -116t44 -91t103 -31q112 1 187 85q75 83 103 211l118 563h291l-221 -1059h-279l33 147h-4q-141 -176 -371 -176zM647 1497h258l170 -291h-205l-102 166l-178 -166h-223z" />
    <glyph glyph-name="udieresis" unicode="&#xfc;" horiz-adv-x="1251" 
d="M358 -29q-152 0 -230 73t-79 212q0 16 4 42t9 62t18 78l131 621h291l-129 -621q-19 -56 -19 -116t44 -91t103 -31q112 1 187 85q75 83 103 211l118 563h291l-221 -1059h-279l33 147h-4q-141 -176 -371 -176zM844 1464h268l-49 -239h-268zM442 1464h269l-49 -239h-269z
" />
    <glyph glyph-name="yacute" unicode="&#xfd;" horiz-adv-x="1062" 
d="M27 -373q-39 0 -78 4t-78 7l49 241l119 -12q116 0 166 97q12 26 26 46l-188 1049h299l92 -758h4l367 758h307l-674 -1209q-72 -132 -157 -178q-86 -45 -254 -45zM727 1206h-205l180 291h312z" />
    <glyph glyph-name="thorn" unicode="&#xfe;" horiz-adv-x="1251" 
d="M758 1087q193 0 297 -112.5t104 -304.5q0 -287 -150.5 -493t-424.5 -206q-156 0 -218.5 63.5t-80.5 106.5h-4l-111 -514h-291l387 1835h291l-117 -536h4q45 86 130 123.5t184 37.5zM646 868q-66 0 -125.5 -44t-119 -144.5t-59.5 -259.5q0 -102 51 -166t145 -64
q165 0 247.5 140.5t82.5 300.5t-78 198.5t-144 38.5z" />
    <glyph glyph-name="ydieresis" unicode="&#xff;" horiz-adv-x="1062" 
d="M27 -373q-39 0 -78 4t-78 7l49 241l119 -12q116 0 166 97q12 26 26 46l-188 1049h299l92 -758h4l367 758h307l-674 -1209q-72 -132 -157 -178q-86 -45 -254 -45zM721 1464h268l-49 -239h-268zM319 1464h269l-49 -239h-269z" />
    <glyph glyph-name="Amacron" unicode="&#x100;" horiz-adv-x="1402" 
d="M494 565h391l-72 582h-4zM707 1462h329l244 -1462h-319l-48 326h-546l-185 -326h-340zM598 1810h625l-29 -153h-625z" />
    <glyph glyph-name="amacron" unicode="&#x101;" horiz-adv-x="1175" 
d="M438 166q66 0 112 22q90 42 128 131q18 43 31 87l28 102q-55 -33 -119 -40t-115 -11q-52 -3 -91 -13t-69 -28t-48 -50q-19 -32 -19 -86t48 -84t114 -30zM615 1087q81 0 159 -10q175 -22 251 -125q42 -55 41 -137t-24 -184l-94 -426q-14 -51 -14 -113t10 -92h-291v104
q-59 -68 -146 -100t-175 -33q-167 0 -258 82q-90 82 -88 197q0 154 107 246q108 92 298 114q102 12 178 18t126 20q50 13 75 39t25 71t-26 81q-39 54 -138 54q-207 0 -236 -156h-272q26 187 175 275q126 75 317 75zM403 1421h625l-29 -153h-624z" />
    <glyph glyph-name="Abreve" unicode="&#x102;" horiz-adv-x="1402" 
d="M494 565h391l-72 582h-4zM707 1462h329l244 -1462h-319l-48 326h-546l-185 -326h-340zM698 1890q11 -145 200 -145q85 0 137 38t89 107h136q-86 -299 -388 -299q-141 0 -224 81t-83 218h133z" />
    <glyph glyph-name="abreve" unicode="&#x103;" horiz-adv-x="1175" 
d="M438 166q66 0 112 22q90 42 128 131q18 43 31 87l28 102q-55 -33 -119 -40t-115 -11q-52 -3 -91 -13t-69 -28t-48 -50q-19 -32 -19 -86t48 -84t114 -30zM615 1087q81 0 159 -10q175 -22 251 -125q42 -55 41 -137t-24 -184l-94 -426q-14 -51 -14 -113t10 -92h-291v104
q-59 -68 -146 -100t-175 -33q-167 0 -258 82q-90 82 -88 197q0 154 107 246q108 92 298 114q102 12 178 18t126 20q50 13 75 39t25 71t-26 81q-39 54 -138 54q-207 0 -236 -156h-272q26 187 175 275q126 75 317 75zM494 1501q11 -145 199 -145q85 0 137 38t90 107h135
q-86 -299 -387 -299q-141 0 -225 81q-83 81 -83 218h134z" />
    <glyph glyph-name="Aogonek" unicode="&#x104;" horiz-adv-x="1402" 
d="M494 565h391l-72 582h-4zM934 -322q61 0 119 62l94 -51q-57 -72 -120.5 -102.5t-149.5 -30.5q-132 0 -176 58t-44 101t9.5 74t66 93t228.5 118l-48 326h-546l-185 -326h-340l865 1462h329l244 -1462h-186q-139 -81 -179.5 -126.5t-50.5 -72t-10 -55.5t24.5 -48.5
t55.5 -19.5z" />
    <glyph glyph-name="aogonek" unicode="&#x105;" horiz-adv-x="1175" 
d="M276 280q0 -54 48 -84t114 -30q117 0 177.5 64t93.5 176l28 102q-55 -33 -118.5 -40t-115.5 -11t-91 -13.5t-69 -28t-48.5 -50t-18.5 -85.5zM631 -322q52 0 102 62l80 -51q-49 -72 -103.5 -102.5t-125.5 -30.5q-113 0 -150 58t-37 101t7.5 74t57 93t191.5 118v104
q-59 -68 -146 -100.5t-175 -32.5q-167 0 -256.5 81t-89.5 198q0 154 107.5 246t297.5 114q102 12 178 18.5t126 20t75 39t25 70.5q0 135 -188 135q-75 0 -136 -38t-76 -118h-272q26 187 163.5 268.5t338.5 81.5q298 0 370 -95t71 -177t-24 -184l-94 -426q-14 -51 -14 -112.5
t10 -92.5h-176q-165 -112 -185 -168.5t-20 -85.5t21.5 -48.5t46.5 -19.5z" />
    <glyph glyph-name="Cacute" unicode="&#x106;" horiz-adv-x="1517" 
d="M1139 954q0 135 -73 204q-72 69 -192 69q-120 -1 -211 -57t-149 -145q-116 -177 -117 -413q0 -160 84 -269t248 -107q129 0 226 86t118 204h322q-139 -438 -450 -530q-101 -31 -220 -31q-309 0 -479 168t-170 479q0 369 214 620q104 122 252 194t304 71q442 0 573 -308
q43 -101 41 -235h-321zM1020 1595h-205l180 291h312z" />
    <glyph glyph-name="cacute" unicode="&#x107;" horiz-adv-x="1138" 
d="M1038 387q-138 -416 -554 -416q-215 0 -340 111q-124 111 -124 344q0 280 161 471q161 190 437 190q328 0 436 -215q38 -76 40 -180h-291q0 94 -49 135q-50 41 -140 41q-157 0 -237 -155q-63 -123 -65 -288q-1 -165 107 -216q38 -18 93 -19q98 0 154 60t82 137h290z
M743 1206h-204l180 291h311z" />
    <glyph glyph-name="Ccircumflex" unicode="&#x108;" horiz-adv-x="1517" 
d="M1139 954q0 135 -73 204q-72 69 -192 69q-120 -1 -211 -57t-149 -145q-116 -177 -117 -413q0 -160 84 -269t248 -107q129 0 226 86t118 204h322q-139 -438 -450 -530q-101 -31 -220 -31q-309 0 -479 168t-170 479q0 369 214 620q104 122 252 194t304 71q442 0 573 -308
q43 -101 41 -235h-321zM856 1886h258l170 -291h-205l-102 166l-178 -166h-224z" />
    <glyph glyph-name="ccircumflex" unicode="&#x109;" horiz-adv-x="1138" 
d="M1038 387q-138 -416 -554 -416q-215 0 -340 111q-124 111 -124 344q0 280 161 471q161 190 437 190q328 0 436 -215q38 -76 40 -180h-291q0 94 -49 135q-50 41 -140 41q-157 0 -237 -155q-63 -123 -65 -288q-1 -165 107 -216q38 -18 93 -19q98 0 154 60t82 137h290z
M590 1497h258l170 -291h-205l-102 166l-179 -166h-223z" />
    <glyph glyph-name="Cdotaccent" unicode="&#x10a;" horiz-adv-x="1517" 
d="M1139 954q0 135 -73 204q-72 69 -192 69q-120 -1 -211 -57t-149 -145q-116 -177 -117 -413q0 -160 84 -269t248 -107q129 0 226 86t118 204h322q-139 -438 -450 -530q-101 -31 -220 -31q-309 0 -479 168t-170 479q0 369 214 620q104 122 252 194t304 71q442 0 573 -308
q43 -101 41 -235h-321zM831 1853h269l-49 -239h-269z" />
    <glyph glyph-name="cdotaccent" unicode="&#x10b;" horiz-adv-x="1138" 
d="M1038 387q-138 -416 -554 -416q-215 0 -340 111q-124 111 -124 344q0 280 161 471q161 190 437 190q328 0 436 -215q38 -76 40 -180h-291q0 94 -49 135q-50 41 -140 41q-157 0 -237 -155q-63 -123 -65 -288q-1 -165 107 -216q38 -18 93 -19q98 0 154 60t82 137h290z
M584 1464h268l-49 -239h-268z" />
    <glyph glyph-name="Ccaron" unicode="&#x10c;" horiz-adv-x="1517" 
d="M1139 954q0 135 -73 204q-72 69 -192 69q-120 -1 -211 -57t-149 -145q-116 -177 -117 -413q0 -160 84 -269t248 -107q129 0 226 86t118 204h322q-139 -438 -450 -530q-101 -31 -220 -31q-309 0 -479 168t-170 479q0 369 214 620q104 122 252 194t304 71q442 0 573 -308
q43 -101 41 -235h-321zM1040 1595h-258l-170 291h205l103 -170l178 170h223z" />
    <glyph glyph-name="ccaron" unicode="&#x10d;" horiz-adv-x="1138" 
d="M1038 387q-138 -416 -554 -416q-215 0 -340 111q-124 111 -124 344q0 280 161 471q161 190 437 190q328 0 436 -215q38 -76 40 -180h-291q0 94 -49 135q-50 41 -140 41q-157 0 -237 -155q-63 -123 -65 -288q-1 -165 107 -216q38 -18 93 -19q98 0 154 60t82 137h290z
M782 1206h-258l-170 291h205l103 -170l178 170h223z" />
    <glyph glyph-name="Dcaron" unicode="&#x10e;" horiz-adv-x="1517" 
d="M829 1462q307 0 464 -150t157 -419q0 -398 -218 -645t-628 -248h-612l309 1462h528zM618 270q240 0 376 164t135 413q-1 248 -174 319q-60 26 -146 26h-242l-196 -922h247zM936 1595h-258l-170 291h205l102 -170l178 170h224z" />
    <glyph glyph-name="dcaron" unicode="&#x10f;" horiz-adv-x="1482" 
d="M424 -29q-193 0 -298 113t-106 305q0 286 142 479q161 219 436 219q161 0 249 -94q32 -33 48 -75h4l117 544h291l-310 -1462h-280l28 131l-4 4q-49 -86 -134 -125t-183 -39zM641 868q-163 0 -254 -151q-74 -125 -76 -291q0 -99 53 -166q53 -68 145 -69q156 -2 250 155
q77 132 79 310q0 84 -52 148t-145 64zM1542 1171h-201l138 291h303z" />
    <glyph glyph-name="Dcroat" unicode="&#x110;" horiz-adv-x="1517" 
d="M829 1462q307 0 464 -149.5t157 -419.5q0 -396 -217.5 -644.5t-628.5 -248.5h-612l133 635h-168l51 239h170l123 588h528zM618 270q240 0 375 163.5t135 411.5t-116.5 297.5t-202.5 49.5h-242l-67 -318h344l-51 -239h-347l-75 -365h247z" />
    <glyph glyph-name="dcroat" unicode="&#x111;" horiz-adv-x="1314" 
d="M641 868q-164 0 -247 -139.5t-83 -302.5q0 -98 53.5 -167t144.5 -69q157 0 243 145t86 304q0 102 -51.5 165.5t-145.5 63.5zM424 -29q-193 0 -298.5 113t-105.5 305q0 285 150 491.5t428 206.5q157 0 219 -63t78 -106h4l53 251h-235l28 154h240l31 139h291l-31 -139h190
l-28 -154h-193l-248 -1169h-280l28 131l-4 4q-49 -86 -134 -125t-183 -39z" />
    <glyph glyph-name="Emacron" unicode="&#x112;" horiz-adv-x="1366" 
d="M299 1462h1116l-55 -270h-795l-65 -313h735l-53 -250h-736l-75 -359h807l-58 -270h-1128zM586 1810h624l-28 -153h-625z" />
    <glyph glyph-name="emacron" unicode="&#x113;" horiz-adv-x="1175" 
d="M299 424v-27q0 -92 57 -149q57 -58 174 -58t184 95q19 27 36 51h290q-73 -187 -201 -276t-347 -89q-332 0 -438 263q-34 87 -34 207t41 238q86 247 299 354q109 54 232 54q366 0 470 -261q36 -87 36 -186t-17 -181h-780q-2 -21 -2 -35zM817 643q1 99 -27 143t-67 63
t-101 19q-210 0 -290 -225h485zM391 1421h625l-29 -153h-625z" />
    <glyph glyph-name="Ebreve" unicode="&#x114;" horiz-adv-x="1366" 
d="M299 1462h1116l-55 -270h-795l-65 -313h735l-53 -250h-736l-75 -359h807l-58 -270h-1128zM678 1890q11 -145 199 -145q85 0 138 38q52 38 89 107h135q-86 -299 -387 -299q-141 0 -224 81t-83 218h133z" />
    <glyph glyph-name="ebreve" unicode="&#x115;" horiz-adv-x="1175" 
d="M299 424v-27q0 -92 57 -149q57 -58 174 -58t184 95q19 27 36 51h290q-73 -187 -201 -276t-347 -89q-332 0 -438 263q-34 87 -34 207t41 238q86 247 299 354q109 54 232 54q366 0 470 -261q36 -87 36 -186t-17 -181h-780q-2 -21 -2 -35zM817 643q1 99 -27 143t-67 63
t-101 19q-210 0 -290 -225h485zM496 1501q11 -145 199 -145q85 0 138 38q52 38 89 107h135q-86 -299 -387 -299q-141 0 -225 81q-83 81 -83 218h134z" />
    <glyph glyph-name="Edotaccent" unicode="&#x116;" horiz-adv-x="1366" 
d="M299 1462h1116l-55 -270h-795l-65 -313h735l-53 -250h-736l-75 -359h807l-58 -270h-1128zM780 1853h269l-50 -239h-268z" />
    <glyph glyph-name="edotaccent" unicode="&#x117;" horiz-adv-x="1175" 
d="M299 424v-27q0 -92 57 -149q57 -58 174 -58t184 95q19 27 36 51h290q-73 -187 -201 -276t-347 -89q-332 0 -438 263q-34 87 -34 207t41 238q86 247 299 354q109 54 232 54q366 0 470 -261q36 -87 36 -186t-17 -181h-780q-2 -21 -2 -35zM817 643q1 99 -27 143t-67 63
t-101 19q-210 0 -290 -225h485zM586 1464h268l-49 -239h-268z" />
    <glyph glyph-name="Eogonek" unicode="&#x118;" horiz-adv-x="1366" 
d="M844 -322q61 0 119 62l94 -51q-57 -72 -121 -102.5t-150 -30.5q-131 0 -175 58t-44 101t9.5 74t66 92.5t227.5 118.5h-878l307 1462h1116l-55 -270h-795l-65 -313h735l-53 -250h-736l-75 -359h807l-58 -270h-116q-139 -81 -179.5 -126.5t-50.5 -72t-10 -55.5t24.5 -48.5
t55.5 -19.5z" />
    <glyph glyph-name="eogonek" unicode="&#x119;" horiz-adv-x="1175" 
d="M817 643q0 99 -40 162t-156 63q-170 0 -221.5 -90t-67.5 -135h485zM469 -322q61 0 119 62l94 -51q-57 -72 -120.5 -102.5t-149.5 -30.5q-132 0 -175.5 58t-43.5 101t14 91.5t127 121.5q37 25 90 47q-169 15 -286.5 125.5t-117.5 353.5t116 384t224.5 195t231.5 54
q242 0 374 -119.5t132 -342.5q0 -84 -17 -166h-780q-2 -20 -2 -35v-27q0 -92 57.5 -149.5t172.5 -57.5t159.5 60.5t61.5 85.5h290q-109 -280 -348 -340q-49 -14 -106 -21q-45 -29 -78 -51q-119 -93 -119 -176q0 -31 24.5 -50.5t55.5 -19.5z" />
    <glyph glyph-name="Ecaron" unicode="&#x11a;" horiz-adv-x="1366" 
d="M299 1462h1116l-55 -270h-795l-65 -313h735l-53 -250h-736l-75 -359h807l-58 -270h-1128zM987 1595h-258l-170 291h205l102 -170l178 170h224z" />
    <glyph glyph-name="ecaron" unicode="&#x11b;" horiz-adv-x="1175" 
d="M299 424v-27q0 -92 57 -149q57 -58 174 -58t184 95q19 27 36 51h290q-73 -187 -201 -276t-347 -89q-332 0 -438 263q-34 87 -34 207t41 238q86 247 299 354q109 54 232 54q366 0 470 -261q36 -87 36 -186t-17 -181h-780q-2 -21 -2 -35zM817 643q1 99 -27 143t-67 63
t-101 19q-210 0 -290 -225h485zM772 1206h-258l-170 291h205l102 -170l178 170h224z" />
    <glyph glyph-name="Gcircumflex" unicode="&#x11c;" horiz-adv-x="1554" 
d="M76 612q0 369 214 620q104 122 252 194t304 71q456 0 600 -286q49 -97 49 -232h-321q-6 133 -84 190t-207 57q-236 1 -370 -201q-116 -178 -116 -413q0 -160 84 -269t248 -107q250 0 353 187q32 58 53 128h-338l51 240h620l-168 -791h-202v150h-4q-136 -185 -369 -185
q-309 0 -479 168t-170 479zM852 1886h258l170 -291h-205l-102 166l-178 -166h-224z" />
    <glyph glyph-name="gcircumflex" unicode="&#x11d;" horiz-adv-x="1251" 
d="M831 656q0 84 -51 148t-141 64t-145 -39q-54 -39 -92 -97q-76 -117 -76 -270q0 -154 108 -208q38 -18 102 -18t122 38t97 96q76 116 76 286zM-39 -55h291q-5 -111 121 -144q35 -8 87 -8t98 29q89 56 134 194q23 68 45 146l-4 4q-113 -150 -297 -150t-293 120
q-110 120 -108 313q0 248 147 443t388 195t323 -190h4l33 162h278l-211 -1004q-55 -246 -192 -352t-391 -104q-298 0 -412 184q-41 66 -41 162zM674 1497h258l170 -291h-205l-102 166l-179 -166h-223z" />
    <glyph glyph-name="Gbreve" unicode="&#x11e;" horiz-adv-x="1554" 
d="M76 612q0 369 214 620q104 122 252 194t304 71q456 0 600 -286q49 -97 49 -232h-321q-6 133 -84 190t-207 57q-236 1 -370 -201q-116 -178 -116 -413q0 -160 84 -269t248 -107q250 0 353 187q32 58 53 128h-338l51 240h620l-168 -791h-202v150h-4q-136 -185 -369 -185
q-309 0 -479 168t-170 479zM737 1890q11 -145 200 -145q85 0 137 38t89 107h135q-86 -299 -387 -299q-141 0 -224 81t-83 218h133z" />
    <glyph glyph-name="gbreve" unicode="&#x11f;" horiz-adv-x="1251" 
d="M831 656q0 84 -51 148t-141 64t-145 -39q-54 -39 -92 -97q-76 -117 -76 -270q0 -154 108 -208q38 -18 102 -18t122 38t97 96q76 116 76 286zM-39 -55h291q-5 -111 121 -144q35 -8 87 -8t98 29q89 56 134 194q23 68 45 146l-4 4q-113 -150 -297 -150t-293 120
q-110 120 -108 313q0 248 147 443t388 195t323 -190h4l33 162h278l-211 -1004q-55 -246 -192 -352t-391 -104q-298 0 -412 184q-41 66 -41 162zM565 1501q11 -145 200 -145q85 0 137 38t89 107h135q-86 -299 -387 -299q-141 0 -224 81t-83 218h133z" />
    <glyph glyph-name="Gdotaccent" unicode="&#x120;" horiz-adv-x="1554" 
d="M76 612q0 369 214 620q104 122 252 194t304 71q456 0 600 -286q49 -97 49 -232h-321q-6 133 -84 190t-207 57q-236 1 -370 -201q-116 -178 -116 -413q0 -160 84 -269t248 -107q250 0 353 187q32 58 53 128h-338l51 240h620l-168 -791h-202v150h-4q-136 -185 -369 -185
q-309 0 -479 168t-170 479zM823 1853h269l-50 -239h-268z" />
    <glyph glyph-name="gdotaccent" unicode="&#x121;" horiz-adv-x="1251" 
d="M831 656q0 84 -51 148t-141 64t-145 -39q-54 -39 -92 -97q-76 -117 -76 -270q0 -154 108 -208q38 -18 102 -18t122 38t97 96q76 116 76 286zM-39 -55h291q-5 -111 121 -144q35 -8 87 -8t98 29q89 56 134 194q23 68 45 146l-4 4q-113 -150 -297 -150t-293 120
q-110 120 -108 313q0 248 147 443t388 195t323 -190h4l33 162h278l-211 -1004q-55 -246 -192 -352t-391 -104q-298 0 -412 184q-41 66 -41 162zM614 1464h269l-49 -239h-269z" />
    <glyph glyph-name="Gcommaaccent" unicode="&#x122;" horiz-adv-x="1554" 
d="M76 612q0 369 214 620q104 122 252 194t304 71q456 0 600 -286q49 -97 49 -232h-321q-6 133 -84 190t-207 57q-236 1 -370 -201q-116 -178 -116 -413q0 -160 84 -269t248 -107q250 0 353 187q32 58 53 128h-338l51 240h620l-168 -791h-202v150h-4q-136 -185 -369 -185
q-309 0 -479 168t-170 479zM551 -102h297l-31 -150q-12 -59 -44 -101q-32 -43 -84 -67t-189 -24l16 75q102 8 133 76h-137z" />
    <glyph glyph-name="gcommaaccent" unicode="&#x123;" horiz-adv-x="1251" 
d="M831 656q0 84 -51 148t-141 64t-145 -39q-54 -39 -92 -97q-76 -117 -76 -270q0 -154 108 -208q38 -18 102 -18t122 38t97 96q76 116 76 286zM-39 -55h291q-5 -111 121 -144q35 -8 87 -8t98 29q89 56 134 194q23 68 45 146l-4 4q-113 -150 -297 -150t-293 120
q-110 120 -108 313q0 248 147 443t388 195t323 -190h4l33 162h278l-211 -1004q-55 -246 -192 -352t-391 -104q-298 0 -412 184q-41 66 -41 162zM879 1272h-297l30 149q33 163 205 187q51 6 113 6l-17 -76q-49 -4 -82 -20t-51 -56h138z" />
    <glyph glyph-name="Hcircumflex" unicode="&#x124;" horiz-adv-x="1517" 
d="M301 1462h324l-119 -561h592l119 561h323l-309 -1462h-324l133 631h-591l-134 -631h-323zM850 1886h258l170 -291h-205l-102 166l-178 -166h-224z" />
    <glyph glyph-name="hcircumflex" unicode="&#x125;" horiz-adv-x="1251" 
d="M817 1087q152 -1 231 -73t78 -211q0 -16 -4 -42q-4 -27 -8 -53t-10 -50t-8 -37l-131 -621h-291l129 621q2 12 6 29q4 18 6 36l4 36t2 28q0 48 -44 78q-45 30 -103 30t-108 -26q-138 -71 -181 -269l-119 -563h-291l306 1462h290l-108 -526h4q66 95 221 136q57 15 129 15z
M690 1886h258l170 -291h-205l-102 166l-178 -166h-223z" />
    <glyph glyph-name="Hbar" unicode="&#x126;" horiz-adv-x="1517" 
d="M1090 860l32 158h-592l-32 -158h592zM301 1462h324l-62 -291h592l62 291h323l-309 -1462h-324l125 590h-592l-125 -590h-323z" />
    <glyph glyph-name="hbar" unicode="&#x127;" horiz-adv-x="1316" 
d="M883 1087q152 0 230.5 -72.5t78.5 -211.5q0 -16 -4 -42t-8 -52.5t-10.5 -50t-8.5 -37.5l-131 -621h-291l129 621q2 12 6.5 29.5t6.5 36t4 35.5t2 28q0 47 -44.5 77.5t-102.5 30.5q-112 0 -186.5 -82.5t-102.5 -212.5l-119 -563h-291l244 1169h-197l29 154h198l31 139h291
l-29 -139h205l-29 -154h-209l-47 -233h4q66 96 172.5 123.5t178.5 27.5z" />
    <glyph glyph-name="Itilde" unicode="&#x128;" horiz-adv-x="606" 
d="M301 1462h324l-310 -1462h-323zM645 1632q-68 0 -173 35t-146 35q-40 0 -58 -24t-28 -62h-125q25 112 62 158q74 92 196 92q40 0 131 -36t137 -36q45 0 66 22q20 22 18 50h141q-30 -106 -59 -147q-63 -87 -162 -87z" />
    <glyph glyph-name="itilde" unicode="&#x129;" 
d="M268 0h-293l226 1059h293zM524 1243q-71 1 -143 25t-107 34q-34 10 -72 11q-38 0 -56 -24t-27 -62h-125q25 113 63 159q39 46 83 68t96 23t82 -11q32 -12 94 -36q62 -25 108 -25q45 0 66 21q20 22 18 51h141q-30 -106 -59 -147q-63 -87 -162 -87z" />
    <glyph glyph-name="Imacron" unicode="&#x12a;" horiz-adv-x="606" 
d="M301 1462h324l-310 -1462h-323zM201 1810h624l-28 -153h-625z" />
    <glyph glyph-name="imacron" unicode="&#x12b;" 
d="M268 0h-293l226 1059h293zM90 1421h625l-29 -153h-625z" />
    <glyph glyph-name="Iogonek" unicode="&#x12e;" horiz-adv-x="606" 
d="M156 -322q61 0 118 62l95 -51q-57 -72 -121 -102.5t-150 -30.5q-132 0 -175.5 58t-43.5 101t9.5 74t66 92.5t227.5 118.5h-190l309 1462h324l-310 -1462q-197 -115 -218 -170t-21 -84t24.5 -48.5t55.5 -19.5z" />
    <glyph glyph-name="iogonek" unicode="&#x12f;" 
d="M526 1223h-293l54 239h293zM137 -322q41 0 94 62l84 -51q-51 -72 -108 -102.5t-135 -30.5q-120 0 -158.5 58t-38.5 101t8 74t60.5 93.5t203.5 117.5h-172l226 1059h293l-226 -1059q-176 -111 -196.5 -168t-20.5 -86t22.5 -48.5t63.5 -19.5z" />
    <glyph glyph-name="Idotaccent" unicode="&#x130;" horiz-adv-x="606" 
d="M301 1462h324l-310 -1462h-323zM403 1853h269l-49 -239h-269z" />
    <glyph glyph-name="dotlessi" unicode="&#x131;" 
d="M268 0h-293l226 1059h293z" />
    <glyph glyph-name="Jcircumflex" unicode="&#x134;" horiz-adv-x="1138" 
d="M252 373q0 -68 48 -103q48 -34 110 -34q157 1 196 154q12 46 25 95l203 977h323l-217 -1046q-51 -222 -178 -337q-127 -114 -335 -114t-337 87t-129 267q0 84 27 226h293q-29 -136 -29 -172zM932 1886h258l170 -291h-205l-102 166l-179 -166h-223z" />
    <glyph glyph-name="jcircumflex" unicode="&#x135;" 
d="M-128 -133q40 0 66 30t38 84t18 76l211 1002h291l-232 -1098q-38 -179 -122 -255q-83 -77 -271 -79q-35 0 -71 4t-70 7l49 233q53 -4 93 -4zM274 1497h258l170 -291h-204l-103 166l-178 -166h-223z" />
    <glyph glyph-name="Kcommaaccent" unicode="&#x136;" horiz-adv-x="1478" 
d="M297 1462h321l-126 -612h4l663 612h426l-702 -602l448 -860h-362l-334 657l-223 -194l-97 -463h-323zM467 -102h297l-31 -150q-12 -59 -44 -101q-32 -43 -84 -67t-189 -24l16 75q102 8 133 76h-137z" />
    <glyph glyph-name="kcommaaccent" unicode="&#x137;" horiz-adv-x="1138" 
d="M283 1462h290l-167 -794l4 -4l417 395h359l-475 -402l272 -657h-319l-175 473l-151 -129l-72 -344h-291zM303 -102h297l-31 -150q-12 -59 -44 -101q-32 -43 -83 -67t-190 -24l16 75q102 8 133 76h-137z" />
    <glyph glyph-name="Lacute" unicode="&#x139;" horiz-adv-x="1175" 
d="M299 1462h324l-250 -1192h706l-57 -270h-1030zM584 1595h-205l180 291h311z" />
    <glyph glyph-name="lacute" unicode="&#x13a;" 
d="M287 1462h291l-312 -1462h-291zM512 1595h-205l180 291h312z" />
    <glyph glyph-name="Lcommaaccent" unicode="&#x13b;" horiz-adv-x="1175" 
d="M299 1462h324l-250 -1192h706l-57 -270h-1030zM342 -102h297l-31 -150q-12 -59 -44 -101q-55 -73 -161 -85q-51 -6 -112 -6l16 75q102 8 133 76h-137z" />
    <glyph glyph-name="lcommaaccent" unicode="&#x13c;" 
d="M287 1462h291l-312 -1462h-291zM-43 -102h297l-31 -150q-12 -59 -44 -101q-55 -73 -161 -85q-51 -6 -112 -6l16 75q102 8 133 76h-137z" />
    <glyph glyph-name="Lcaron" unicode="&#x13d;" horiz-adv-x="1175" 
d="M299 1462h324l-250 -1192h706l-57 -270h-1030zM940 1171h-201l138 291h303z" />
    <glyph glyph-name="lcaron" unicode="&#x13e;" horiz-adv-x="751" 
d="M287 1462h291l-312 -1462h-291zM811 1171h-201l138 291h303z" />
    <glyph glyph-name="Ldot" unicode="&#x13f;" horiz-adv-x="1175" 
d="M299 1462h324l-250 -1192h706l-57 -270h-1030zM770 1061h268l-49 -240h-268z" />
    <glyph glyph-name="ldot" unicode="&#x140;" horiz-adv-x="940" 
d="M287 1462h291l-312 -1462h-291zM633 1061h268l-49 -240h-268z" />
    <glyph glyph-name="Lslash" unicode="&#x141;" horiz-adv-x="1175" 
d="M78 410l-168 -115l43 227l174 119l172 821h324l-119 -561l418 287l-54 -236l-413 -284l-84 -398h708l-57 -270h-1030z" />
    <glyph glyph-name="lslash" unicode="&#x142;" 
d="M-25 0l121 569l-145 -110l53 250l146 110l137 643h291l-80 -381l170 129l-54 -247l-170 -129l-178 -834h-291z" />
    <glyph glyph-name="Nacute" unicode="&#x143;" horiz-adv-x="1517" 
d="M301 1462h332l397 -1040h4l209 1040h295l-309 -1462h-322l-401 1026h-4l-209 -1026h-301zM1020 1595h-205l180 291h312z" />
    <glyph glyph-name="nacute" unicode="&#x144;" horiz-adv-x="1251" 
d="M817 1087q152 -1 231 -73t78 -211q0 -16 -4 -42q-4 -27 -8 -53t-10 -50t-8 -37l-131 -621h-291l129 621q2 12 6 29q4 18 6 36l4 36t2 28q0 48 -44 78q-45 30 -103 30t-108 -26q-138 -71 -181 -269l-119 -563h-291l222 1059h278l-33 -148h4q141 176 371 176zM780 1206
h-205l181 291h311z" />
    <glyph glyph-name="Ncommaaccent" unicode="&#x145;" horiz-adv-x="1517" 
d="M301 1462h332l397 -1040h4l209 1040h295l-309 -1462h-322l-401 1026h-4l-209 -1026h-301zM465 -102h297l-31 -150q-12 -59 -44 -101q-32 -43 -84 -67t-189 -24l16 75q102 8 133 76h-137z" />
    <glyph glyph-name="ncommaaccent" unicode="&#x146;" horiz-adv-x="1251" 
d="M817 1087q152 -1 231 -73t78 -211q0 -16 -4 -42q-4 -27 -8 -53t-10 -50t-8 -37l-131 -621h-291l129 621q2 12 6 29q4 18 6 36l4 36t2 28q0 48 -44 78q-45 30 -103 30t-108 -26q-138 -71 -181 -269l-119 -563h-291l222 1059h278l-33 -148h4q141 176 371 176zM305 -102h297
l-31 -150q-12 -59 -44 -101q-32 -43 -83 -67t-190 -24l16 75q102 8 133 76h-137z" />
    <glyph glyph-name="Ncaron" unicode="&#x147;" horiz-adv-x="1517" 
d="M301 1462h332l397 -1040h4l209 1040h295l-309 -1462h-322l-401 1026h-4l-209 -1026h-301zM1042 1595h-258l-170 291h205l103 -170l178 170h223z" />
    <glyph glyph-name="ncaron" unicode="&#x148;" horiz-adv-x="1251" 
d="M817 1087q152 -1 231 -73t78 -211q0 -16 -4 -42q-4 -27 -8 -53t-10 -50t-8 -37l-131 -621h-291l129 621q2 12 6 29q4 18 6 36l4 36t2 28q0 48 -44 78q-45 30 -103 30t-108 -26q-138 -71 -181 -269l-119 -563h-291l222 1059h278l-33 -148h4q141 176 371 176zM811 1206
h-258l-170 291h205l102 -170l178 170h224z" />
    <glyph glyph-name="Omacron" unicode="&#x14c;" horiz-adv-x="1593" 
d="M397 626q0 -270 182 -360q61 -30 165 -30t192 56t147 145q119 180 119 426t-175 333q-61 31 -167 31q-106 -1 -197 -57t-149 -145t-88 -199q-29 -110 -29 -200zM76 612q0 369 214 620q104 122 252 194t314 71q481 0 622 -356q46 -117 46 -284t-54 -331
q-111 -341 -404 -487q-148 -74 -341 -74q-309 0 -479 168t-170 479zM668 1810h624l-28 -153h-625z" />
    <glyph glyph-name="omacron" unicode="&#x14d;" horiz-adv-x="1214" 
d="M20 428q0 279 167 469t442 190q225 0 359 -112t134 -336q0 -288 -168 -477t-448 -191q-222 0 -354 115t-132 342zM385 715q-74 -132 -74 -289t119 -216q40 -20 106 -20t124 44q171 130 171 420q0 86 -49 150q-48 64 -146 64t-156 -44t-95 -109zM418 1421h624l-28 -153
h-625z" />
    <glyph glyph-name="Obreve" unicode="&#x14e;" horiz-adv-x="1593" 
d="M397 626q0 -270 182 -360q61 -30 165 -30t192 56t147 145q119 180 119 426t-175 333q-61 31 -167 31q-106 -1 -197 -57t-149 -145t-88 -199q-29 -110 -29 -200zM76 612q0 369 214 620q104 122 252 194t314 71q481 0 622 -356q46 -117 46 -284t-54 -331
q-111 -341 -404 -487q-148 -74 -341 -74q-309 0 -479 168t-170 479zM766 1890q11 -145 199 -145q85 0 138 38q52 38 89 107h135q-86 -299 -387 -299q-141 0 -224 81t-83 218h133z" />
    <glyph glyph-name="obreve" unicode="&#x14f;" horiz-adv-x="1214" 
d="M20 428q0 279 167 469t442 190q225 0 359 -112t134 -336q0 -288 -168 -477t-448 -191q-222 0 -354 115t-132 342zM385 715q-74 -132 -74 -289t119 -216q40 -20 106 -20t124 44q171 130 171 420q0 86 -49 150q-48 64 -146 64t-156 -44t-95 -109zM520 1501
q11 -145 200 -145q85 0 137 38t89 107h135q-86 -299 -387 -299q-141 0 -224 81t-83 218h133z" />
    <glyph glyph-name="Ohungarumlaut" unicode="&#x150;" horiz-adv-x="1593" 
d="M397 626q0 -270 182 -360q61 -30 165 -30t192 56t147 145q119 180 119 426t-175 333q-61 31 -167 31q-106 -1 -197 -57t-149 -145t-88 -199q-29 -110 -29 -200zM76 612q0 369 214 620q104 122 252 194t314 71q481 0 622 -356q46 -117 46 -284t-54 -331
q-111 -341 -404 -487q-148 -74 -341 -74q-309 0 -479 168t-170 479zM817 1595h-205l181 291h311zM1227 1595h-205l180 291h311z" />
    <glyph glyph-name="ohungarumlaut" unicode="&#x151;" horiz-adv-x="1214" 
d="M20 428q0 279 167 469t442 190q225 0 359 -112t134 -336q0 -288 -168 -477t-448 -191q-222 0 -354 115t-132 342zM385 715q-74 -132 -74 -289t119 -216q40 -20 106 -20t124 44q171 130 171 420q0 86 -49 150q-48 64 -146 64t-156 -44t-95 -109zM575 1206h-204l180 291
h311zM985 1206h-205l181 291h311z" />
    <glyph glyph-name="OE" unicode="&#x152;" horiz-adv-x="2275" 
d="M1008 119q-130 -154 -392 -154q-120 0 -224.5 49t-210 175.5t-105.5 400.5q0 178 53 342t155.5 290t251 200.5t338.5 74.5q252 0 371 -168l29 133h1038l-57 -270h-739l-68 -313h676l-53 -250h-674l-78 -359h754l-58 -270h-1028l25 115zM482 969.5q-85 -138.5 -85 -383.5
q0 -244 109.5 -297t189.5 -53q135 0 230.5 69.5t143.5 203.5t68.5 286.5t20.5 203.5q0 109 -84 168.5t-206 59.5t-212 -59.5t-175 -198z" />
    <glyph glyph-name="oe" unicode="&#x153;" horiz-adv-x="1896" 
d="M1546 692q0 69 -50.5 122.5t-127.5 53.5q-135 0 -199.5 -59t-105.5 -166h479q4 20 4 49zM854 147q-124 -176 -391 -176q-230 0 -336.5 137t-106.5 343q0 117 46.5 231.5t127 204.5t194.5 145t240 55t221.5 -44t143.5 -128q53 76 157 124t206 48q223 0 347 -122.5
t124 -341.5q0 -74 -21 -164h-772q-6 -38 -6 -70q0 -86 55.5 -142.5t146.5 -56.5q192 0 240 140h291q-85 -264 -262 -311.5t-283 -47.5t-201 35t-161 141zM311 419q0 -103 50 -166t140 -63q158 0 233 159t75 329q0 127 -67.5 158.5t-133.5 31.5t-126 -49t-98 -119.5
t-55.5 -149.5t-17.5 -131z" />
    <glyph glyph-name="Racute" unicode="&#x154;" horiz-adv-x="1478" 
d="M1434 1079q0 -151 -96 -262t-240 -131v-4q151 -47 151 -258l-10 -254q0 -117 21 -170h-314q-14 63 -14 98l16 297q0 147 -125 169q-39 7 -86 7h-303l-121 -571h-321l307 1462h698q437 9 437 -383zM780 801q227 0 304 126q28 44 28 104q0 154 -147 175q-43 6 -91 6h-305
l-86 -411h297zM913 1595h-204l180 291h311z" />
    <glyph glyph-name="racute" unicode="&#x155;" horiz-adv-x="796" 
d="M680 817q-58 0 -116 -29q-153 -76 -199 -319l-99 -469h-291l222 1059h276l-43 -191l4 -4q48 111 148 167t217 56q43 0 90 -6l-60 -282q-92 18 -149 18zM494 1206h-205l180 291h311z" />
    <glyph glyph-name="Rcommaaccent" unicode="&#x156;" horiz-adv-x="1478" 
d="M1434 1079q0 -151 -96 -262t-240 -131v-4q151 -47 151 -258l-10 -254q0 -117 21 -170h-314q-14 63 -14 98l16 297q0 147 -125 169q-39 7 -86 7h-303l-121 -571h-321l307 1462h698q437 9 437 -383zM780 801q227 0 304 126q28 44 28 104q0 154 -147 175q-43 6 -91 6h-305
l-86 -411h297zM465 -102h297l-31 -150q-12 -59 -44 -101q-32 -43 -84 -67t-189 -24l16 75q102 8 133 76h-137z" />
    <glyph glyph-name="rcommaaccent" unicode="&#x157;" horiz-adv-x="796" 
d="M680 817q-58 0 -116 -29q-153 -76 -199 -319l-99 -469h-291l222 1059h276l-43 -191l4 -4q48 111 148 167t217 56q43 0 90 -6l-60 -282q-92 18 -149 18zM-39 -102h297l-31 -150q-12 -59 -44 -101q-32 -43 -83 -67t-190 -24l16 75q102 8 133 76h-137z" />
    <glyph glyph-name="Rcaron" unicode="&#x158;" horiz-adv-x="1478" 
d="M1434 1079q0 -151 -96 -262t-240 -131v-4q151 -47 151 -258l-10 -254q0 -117 21 -170h-314q-14 63 -14 98l16 297q0 147 -125 169q-39 7 -86 7h-303l-121 -571h-321l307 1462h698q437 9 437 -383zM780 801q227 0 304 126q28 44 28 104q0 154 -147 175q-43 6 -91 6h-305
l-86 -411h297zM958 1595h-258l-170 291h205l103 -170l178 170h223z" />
    <glyph glyph-name="rcaron" unicode="&#x159;" horiz-adv-x="796" 
d="M680 817q-58 0 -116 -29q-153 -76 -199 -319l-99 -469h-291l222 1059h276l-43 -191l4 -4q48 111 148 167t217 56q43 0 90 -6l-60 -282q-92 18 -149 18zM672 1206h-258l-170 291h205l102 -170l178 170h223z" />
    <glyph glyph-name="Sacute" unicode="&#x15a;" horiz-adv-x="1327" 
d="M170 1042q0 227 184 350q159 105 396 105q382 0 504 -255q44 -89 44 -216h-305q7 221 -262 221q-171 0 -233 -96q-23 -35 -23 -88t40 -88q78 -68 223 -99q267 -56 372 -152q106 -96 104 -275q0 -244 -193 -373q-166 -111 -403 -111q-304 0 -456 127t-152 393h305
q-4 -78 19 -130q62 -140 286 -140q188 0 264 113q26 39 26 93q-1 95 -118 147q-52 24 -119 42t-135 38q-164 49 -252 125q-116 98 -116 269zM881 1595h-205l180 291h311z" />
    <glyph glyph-name="sacute" unicode="&#x15b;" horiz-adv-x="1062" 
d="M379 788q0 -36 30 -60t103 -46l145 -47q203 -64 257 -188q22 -49 22 -131t-44 -151q-121 -190 -460 -194q-183 0 -303 72q-147 87 -147 258v43h270v-35q0 -99 134 -134q38 -9 73 -9q124 0 170 66q16 24 16 70t-29 69t-75 39l-224 71q-120 39 -159 80q-70 73 -70 179
t44 169q124 178 425 178q441 0 434 -337h-270q-4 143 -173 143t-169 -105zM692 1206h-205l181 291h311z" />
    <glyph glyph-name="Scircumflex" unicode="&#x15c;" horiz-adv-x="1327" 
d="M170 1042q0 227 184 350q159 105 396 105q382 0 504 -255q44 -89 44 -216h-305q7 221 -262 221q-171 0 -233 -96q-23 -35 -23 -88t40 -88q78 -68 223 -99q267 -56 372 -152q106 -96 104 -275q0 -244 -193 -373q-166 -111 -403 -111q-304 0 -456 127t-152 393h305
q-4 -78 19 -130q62 -140 286 -140q188 0 264 113q26 39 26 93q-1 95 -118 147q-52 24 -119 42t-135 38q-164 49 -252 125q-116 98 -116 269zM721 1886h258l170 -291h-205l-102 166l-178 -166h-224z" />
    <glyph glyph-name="scircumflex" unicode="&#x15d;" horiz-adv-x="1062" 
d="M379 788q0 -36 30 -60t103 -46l145 -47q203 -64 257 -188q22 -49 22 -131t-44 -151q-121 -190 -460 -194q-183 0 -303 72q-147 87 -147 258v43h270v-35q0 -99 134 -134q38 -9 73 -9q124 0 170 66q16 24 16 70t-29 69t-75 39l-224 71q-120 39 -159 80q-70 73 -70 179
t44 169q124 178 425 178q441 0 434 -337h-270q-4 143 -173 143t-169 -105zM535 1497h258l170 -291h-205l-103 166l-178 -166h-223z" />
    <glyph glyph-name="Scedilla" unicode="&#x15e;" horiz-adv-x="1327" 
d="M490 -338q83 0 83 68q0 39 -23.5 52t-61.5 13t-78 -14l-43 49l102 143q-197 25 -307 119q-152 127 -152 393h305q-14 -270 316 -270q106 0 192 52.5t86 150.5t-85 136t-151.5 56.5t-134.5 38.5q-160 47 -264 134t-104 259q0 227 171.5 341t408.5 114q378 0 463 -172
t85 -299h-305q4 114 -66.5 167.5t-195.5 53.5q-172 0 -214 -65.5t-42 -118.5q0 -90 100 -131.5t248 -73.5q198 -53 294.5 -140.5t96.5 -268.5q0 -243 -178 -363.5t-418 -120.5q-29 0 -55 2l-55 -76l6 -4q67 24 161.5 0t94.5 -123q0 -117 -67.5 -162.5t-178.5 -45.5t-165 17
t-83 28l43 98q88 -37 171 -37z" />
    <glyph glyph-name="scedilla" unicode="&#x15f;" horiz-adv-x="1062" 
d="M316 -338q83 0 83 68q0 39 -23.5 52t-62.5 13t-77 -14l-43 49l108 154q-15 2 -61 11t-152 72t-106 234v43h270v-35q0 -68 63 -105.5t121 -37.5q209 0 209 122q0 60 -28.5 82.5t-75.5 39.5l-224 71q-118 39 -173.5 96t-55.5 163t44 169.5t143 120.5t292 57q431 0 424 -337
h-270q-4 143 -173 143t-169 -105q0 -35 29.5 -59t103.5 -47l145 -47q203 -64 241 -150.5t38 -168.5t-44 -151t-148 -131.5t-312 -62.5q-20 0 -39 2l-59 -82l6 -4q67 24 161.5 0t94.5 -123q0 -117 -68 -162.5t-145 -45.5q-117 0 -169 11t-112 34l43 98q88 -37 171 -37z" />
    <glyph glyph-name="Scaron" unicode="&#x160;" horiz-adv-x="1327" 
d="M170 1042q0 227 184 350q159 105 396 105q382 0 504 -255q44 -89 44 -216h-305q7 221 -262 221q-171 0 -233 -96q-23 -35 -23 -88t40 -88q78 -68 223 -99q267 -56 372 -152q106 -96 104 -275q0 -244 -193 -373q-166 -111 -403 -111q-304 0 -456 127t-152 393h305
q-4 -78 19 -130q62 -140 286 -140q188 0 264 113q26 39 26 93q-1 95 -118 147q-52 24 -119 42t-135 38q-164 49 -252 125q-116 98 -116 269zM932 1595h-258l-170 291h205l102 -170l178 170h223z" />
    <glyph glyph-name="scaron" unicode="&#x161;" horiz-adv-x="1062" 
d="M379 788q0 -36 30 -60t103 -46l145 -47q203 -64 257 -188q22 -49 22 -131t-44 -151q-121 -190 -460 -194q-183 0 -303 72q-147 87 -147 258v43h270v-35q0 -99 134 -134q38 -9 73 -9q124 0 170 66q16 24 16 70t-29 69t-75 39l-224 71q-120 39 -159 80q-70 73 -70 179
t44 169q124 178 425 178q441 0 434 -337h-270q-4 143 -173 143t-169 -105zM719 1206h-258l-170 291h205l102 -170l178 170h223z" />
    <glyph glyph-name="Tcommaaccent" unicode="&#x162;" horiz-adv-x="1251" 
d="M569 1192h-458l57 270h1221l-58 -270h-438l-250 -1192h-324zM315 -102h297l-30 -150q-12 -59 -44 -101q-32 -43 -84 -67t-190 -24l17 75q100 8 133 76h-138z" />
    <glyph glyph-name="tcommaaccent" unicode="&#x163;" horiz-adv-x="757" 
d="M418 338q-8 -32 -8 -64t25 -48q25 -15 74 -15q50 0 103 6l-49 -225q-112 -10 -208 -10t-150 34t-84 84q-33 54 -2 197l119 567h-191l45 195h187l65 321h291l-66 -321h209l-45 -195h-207zM180 -102h297l-31 -150q-12 -59 -44 -101q-32 -43 -83 -67t-190 -24l16 75
q101 8 134 76h-138z" />
    <glyph glyph-name="Tcaron" unicode="&#x164;" horiz-adv-x="1251" 
d="M569 1192h-458l57 270h1221l-58 -270h-438l-250 -1192h-324zM926 1595h-258l-170 291h204l103 -170l178 170h223z" />
    <glyph glyph-name="tcaron" unicode="&#x165;" horiz-adv-x="929" 
d="M981 1171h-201l138 291h303zM418 338q-8 -32 -8 -64t25 -48q25 -15 74 -15q50 0 103 6l-49 -225q-112 -10 -208 -10t-150 34t-84 84q-33 54 -2 197l119 567h-191l45 195h187l65 321h291l-66 -321h209l-45 -195h-207z" />
    <glyph glyph-name="Tbar" unicode="&#x166;" horiz-adv-x="1251" 
d="M207 954h311l51 238h-458l57 270h1221l-58 -270h-438l-51 -238h317l-29 -153h-319l-168 -801h-324l168 801h-309z" />
    <glyph glyph-name="tbar" unicode="&#x167;" horiz-adv-x="757" 
d="M435.5 225q25.5 -14 74.5 -14t102 6l-49 -225q-112 -10 -173 -10q-133 0 -211 50t-75 165q0 28 15 100l53 258h-207l29 154h211l33 155h-191l45 195h187l65 321h291l-66 -321h209l-45 -195h-207l-32 -155h227l-29 -154h-229l-45 -217q-8 -32 -8 -66q0 -33 25.5 -47z" />
    <glyph glyph-name="Utilde" unicode="&#x168;" horiz-adv-x="1517" 
d="M685 -35q-417 0 -557 232q-50 82 -50 176t31 243l178 846h321l-178 -846q-31 -139 -31 -176q0 -81 54 -134q72 -70 221 -70q256 0 319 209q20 67 39 151l182 866h322l-178 -850q-70 -336 -215 -481q-166 -166 -458 -166zM927 1667q-105 35 -147 35t-58 -24
q-17 -24 -28 -62h-125q24 110 63 157q75 93 195 93q41 0 131 -36t137 -36q46 0 66 22t19 50h141q-10 -35 -25 -76q-30 -90 -102 -134q-38 -24 -100 -24t-167 35z" />
    <glyph glyph-name="utilde" unicode="&#x169;" horiz-adv-x="1251" 
d="M358 -29q-152 0 -230 73t-79 212q0 16 4 42t9 62t18 78l131 621h291l-129 -621q-19 -56 -19 -116t44 -91t103 -31q112 1 187 85q75 83 103 211l118 563h291l-221 -1059h-279l33 147h-4q-141 -176 -371 -176zM1110 1401q-54 -158 -204 -158q-64 1 -136 25t-106 34t-73 11
q-38 0 -55 -24t-28 -62h-125q24 110 63 157q38 48 82 70t96 23t84 -11t93 -36t107 -25q46 0 67 21q20 22 18 51h142q-10 -35 -25 -76z" />
    <glyph glyph-name="Umacron" unicode="&#x16a;" horiz-adv-x="1517" 
d="M685 -35q-417 0 -557 232q-50 82 -50 176t31 243l178 846h321l-178 -846q-31 -139 -31 -176q0 -81 54 -134q72 -70 221 -70q256 0 319 209q20 67 39 151l182 866h322l-178 -850q-70 -336 -215 -481q-166 -166 -458 -166zM651 1810h625l-29 -153h-624z" />
    <glyph glyph-name="umacron" unicode="&#x16b;" horiz-adv-x="1251" 
d="M358 -29q-152 0 -230 73t-79 212q0 16 4 42t9 62t18 78l131 621h291l-129 -621q-19 -56 -19 -116t44 -91t103 -31q112 1 187 85q75 83 103 211l118 563h291l-221 -1059h-279l33 147h-4q-141 -176 -371 -176zM453 1421h624l-28 -153h-625z" />
    <glyph glyph-name="Ubreve" unicode="&#x16c;" horiz-adv-x="1517" 
d="M685 -35q-417 0 -557 232q-50 82 -50 176t31 243l178 846h321l-178 -846q-31 -139 -31 -176q0 -81 54 -134q72 -70 221 -70q256 0 319 209q20 67 39 151l182 866h322l-178 -850q-70 -336 -215 -481q-166 -166 -458 -166zM731 1890q11 -145 200 -145q85 0 137 38t89 107
h135q-86 -299 -387 -299q-141 0 -224 81t-83 218h133z" />
    <glyph glyph-name="ubreve" unicode="&#x16d;" horiz-adv-x="1251" 
d="M358 -29q-152 0 -230 73t-79 212q0 16 4 42t9 62t18 78l131 621h291l-129 -621q-19 -56 -19 -116t44 -91t103 -31q112 1 187 85q75 83 103 211l118 563h291l-221 -1059h-279l33 147h-4q-141 -176 -371 -176zM535 1501q11 -145 199 -145q85 0 137 38t90 107h135
q-86 -299 -387 -299q-141 0 -225 81q-83 81 -83 218h134z" />
    <glyph glyph-name="Uring" unicode="&#x16e;" horiz-adv-x="1517" 
d="M685 -35q-417 0 -557 232q-50 82 -50 176t31 243l178 846h321l-178 -846q-31 -139 -31 -176q0 -81 54 -134q72 -70 221 -70q256 0 319 209q20 67 39 151l182 866h322l-178 -850q-70 -336 -215 -481q-166 -166 -458 -166zM805 1769q0 -59 34 -98t93 -39t94 39t35 98
t-35 99t-94 39q-59 1 -93 -39t-34 -99zM682 1769q0 165 151 227q46 19 98 19q109 0 179 -68t71 -177q1 -110 -68 -177t-183 -67t-181 66t-67 177z" />
    <glyph glyph-name="uring" unicode="&#x16f;" horiz-adv-x="1251" 
d="M358 -29q-152 0 -230 73t-79 212q0 16 4 42t9 62t18 78l131 621h291l-129 -621q-19 -56 -19 -116t44 -91t103 -31q112 1 187 85q75 83 103 211l118 563h291l-221 -1059h-279l33 147h-4q-141 -176 -371 -176zM606 1401q0 -59 34 -98t93 -39t94 39t35 98t-35 98t-94 39
t-93 -39t-34 -98zM483 1401q0 164 151 226q98 40 195 4q97 -37 136 -133q18 -46 18 -97q0 -111 -68 -176t-182 -67q-113 -1 -181 66q-69 66 -69 177z" />
    <glyph glyph-name="Uhungarumlaut" unicode="&#x170;" horiz-adv-x="1517" 
d="M685 -35q-417 0 -557 232q-50 82 -50 176t31 243l178 846h321l-178 -846q-31 -139 -31 -176q0 -81 54 -134q72 -70 221 -70q256 0 319 209q20 67 39 151l182 866h322l-178 -850q-70 -336 -215 -481q-166 -166 -458 -166zM821 1595h-205l181 291h311zM1231 1595h-205
l180 291h312z" />
    <glyph glyph-name="uhungarumlaut" unicode="&#x171;" horiz-adv-x="1251" 
d="M358 -29q-152 0 -230 73t-79 212q0 16 4 42t9 62t18 78l131 621h291l-129 -621q-19 -56 -19 -116t44 -91t103 -31q112 1 187 85q75 83 103 211l118 563h291l-221 -1059h-279l33 147h-4q-141 -176 -371 -176zM627 1206h-205l180 291h311zM1036 1206h-205l181 291h311z" />
    <glyph glyph-name="Uogonek" unicode="&#x172;" horiz-adv-x="1517" 
d="M594 -322q61 0 119 62l94 -51q-57 -72 -120.5 -102.5t-149.5 -30.5q-132 0 -176 58t-44 101t15 91.5t127 121.5q35 23 82 43q-49 6 -125 23t-207 101t-131 304q0 68 31 217l178 846h321l-178 -846q-31 -140 -31 -176q0 -81 62.5 -142.5t212.5 -61.5q255 0 297.5 138
t60.5 222l182 866h322l-178 -850q-70 -336 -219.5 -485.5t-442.5 -161.5q-182 -113 -182 -217q0 -31 24.5 -50.5t55.5 -19.5z" />
    <glyph glyph-name="uogonek" unicode="&#x173;" horiz-adv-x="1251" 
d="M651 -254q0 -29 21.5 -48.5t56.5 -19.5t96 56l76 -45q-49 -72 -103.5 -102.5t-125.5 -30.5q-113 0 -150 58t-37 101t15.5 89t66.5 92.5t133 103.5l33 147h-4q-141 -176 -371 -176q-152 0 -230.5 73t-78.5 212q0 74 31 182l131 621h291l-129 -621q-9 -26 -12 -55t-5 -46.5
t-2 -27.5q0 -47 44 -77.5t103 -30.5q112 0 185.5 81.5t104.5 213.5l118 563h291l-221 -1059h-152q-109 -94 -134 -131t-33.5 -65.5t-8.5 -57.5z" />
    <glyph glyph-name="Wcircumflex" unicode="&#x174;" horiz-adv-x="1933" 
d="M1389 0h-320l-37 1044h-4l-455 -1044h-323l-100 1462h321l21 -1071h4l462 1071h308l37 -1067h4l446 1067h322zM1051 1886h258l170 -291h-205l-103 166l-178 -166h-223z" />
    <glyph glyph-name="wcircumflex" unicode="&#x175;" horiz-adv-x="1669" 
d="M1155 0h-303l-37 743h-4l-328 -743h-305l-117 1059h297l41 -746h4l326 746h295l33 -740h4l340 740h307zM834 1497h258l170 -291h-205l-103 166l-178 -166h-223z" />
    <glyph glyph-name="Ycircumflex" unicode="&#x176;" horiz-adv-x="1327" 
d="M475 567l-350 895h330l219 -622l454 622h379l-712 -909l-113 -553h-324zM745 1886h259l170 -291h-205l-103 166l-178 -166h-223z" />
    <glyph glyph-name="ycircumflex" unicode="&#x177;" horiz-adv-x="1062" 
d="M27 -373q-39 0 -78 4t-78 7l49 241l119 -12q116 0 166 97q12 26 26 46l-188 1049h299l92 -758h4l367 758h307l-674 -1209q-72 -132 -157 -178q-86 -45 -254 -45zM530 1497h258l170 -291h-204l-103 166l-178 -166h-223z" />
    <glyph glyph-name="Ydieresis" unicode="&#x178;" horiz-adv-x="1327" 
d="M475 567l-350 895h330l219 -622l454 622h379l-712 -909l-113 -553h-324zM926 1853h268l-49 -239h-268zM524 1853h269l-50 -239h-268z" />
    <glyph glyph-name="Zacute" unicode="&#x179;" horiz-adv-x="1327" 
d="M-33 266l977 926h-749l59 270h1155l-53 -258l-985 -934h825l-53 -270h-1231zM901 1595h-205l181 291h311z" />
    <glyph glyph-name="zacute" unicode="&#x17a;" horiz-adv-x="1024" 
d="M-59 215l663 625h-510l47 219h889l-45 -215l-666 -625h584l-47 -219h-960zM680 1206h-205l180 291h312z" />
    <glyph glyph-name="Zdotaccent" unicode="&#x17b;" horiz-adv-x="1327" 
d="M-33 266l977 926h-749l59 270h1155l-53 -258l-985 -934h825l-53 -270h-1231zM752 1853h268l-49 -239h-269z" />
    <glyph glyph-name="zdotaccent" unicode="&#x17c;" horiz-adv-x="1024" 
d="M-59 215l663 625h-510l47 219h889l-45 -215l-666 -625h584l-47 -219h-960zM524 1464h269l-50 -239h-268z" />
    <glyph glyph-name="Zcaron" unicode="&#x17d;" horiz-adv-x="1327" 
d="M-33 266l977 926h-749l59 270h1155l-53 -258l-985 -934h825l-53 -270h-1231zM958 1595h-258l-170 291h205l103 -170l178 170h223z" />
    <glyph glyph-name="zcaron" unicode="&#x17e;" horiz-adv-x="1024" 
d="M-59 215l663 625h-510l47 219h889l-45 -215l-666 -625h584l-47 -219h-960zM725 1206h-258l-170 291h205l102 -170l178 170h224z" />
    <glyph glyph-name="florin" unicode="&#x192;" horiz-adv-x="1138" 
d="M-6 -127l74 -2q76 0 106.5 52t40.5 90t21 71l165 606h-196l57 195h195l80 301q69 311 417 311q45 0 87 -6t85 -10l-57 -211l-86 8q-108 0 -134 -64.5t-38 -95.5l-61 -233h213l-54 -195h-217l-174 -643q-55 -202 -149.5 -298.5t-290.5 -96.5q-35 0 -71 3t-70 5z" />
    <glyph glyph-name="Scommaaccent" unicode="&#x218;" horiz-adv-x="1327" 
d="M170 1042q0 227 184 350q159 105 396 105q382 0 504 -255q44 -89 44 -216h-305q7 221 -262 221q-171 0 -233 -96q-23 -35 -23 -88t40 -88q78 -68 223 -99q267 -56 372 -152q106 -96 104 -275q0 -244 -193 -373q-166 -111 -403 -111q-304 0 -456 127t-152 393h305
q-4 -78 19 -130q62 -140 286 -140q188 0 264 113q26 39 26 93q-1 95 -118 147q-52 24 -119 42t-135 38q-164 49 -252 125q-116 98 -116 269zM426 -102h297l-31 -150q-12 -59 -44 -101q-55 -73 -161 -85q-51 -6 -112 -6l16 75q102 8 133 76h-137z" />
    <glyph glyph-name="scommaaccent" unicode="&#x219;" horiz-adv-x="1062" 
d="M379 788q0 -36 30 -60t103 -46l145 -47q203 -64 257 -188q22 -49 22 -131t-44 -151q-121 -190 -460 -194q-183 0 -303 72q-147 87 -147 258v43h270v-35q0 -99 134 -134q38 -9 73 -9q124 0 170 66q16 24 16 70t-29 69t-75 39l-224 71q-120 39 -159 80q-70 73 -70 179
t44 169q124 178 425 178q441 0 434 -337h-270q-4 143 -173 143t-169 -105zM260 -102h297l-31 -150q-12 -59 -44 -101q-32 -43 -83 -67t-190 -24l16 75q102 8 133 76h-137z" />
    <glyph glyph-name="uni021A" unicode="&#x21a;" horiz-adv-x="1251" 
d="M569 1192h-458l57 270h1221l-58 -270h-438l-250 -1192h-324zM315 -102h297l-30 -150q-12 -59 -44 -101q-32 -43 -84 -67t-190 -24l17 75q100 8 133 76h-138z" />
    <glyph glyph-name="uni021B" unicode="&#x21b;" horiz-adv-x="757" 
d="M418 338q-8 -32 -8 -64t25 -48q25 -15 74 -15q50 0 103 6l-49 -225q-112 -10 -208 -10t-150 34t-84 84q-33 54 -2 197l119 567h-191l45 195h187l65 321h291l-66 -321h209l-45 -195h-207zM180 -102h297l-31 -150q-12 -59 -44 -101q-32 -43 -83 -67t-190 -24l16 75
q101 8 134 76h-138z" />
    <glyph glyph-name="circumflex" unicode="&#x2c6;" 
d="M299 1497h258l170 -291h-205l-102 166l-178 -166h-224z" />
    <glyph glyph-name="caron" unicode="&#x2c7;" 
d="M492 1206h-259l-170 291h205l103 -170l178 170h223z" />
    <glyph glyph-name="uni02C9" unicode="&#x2c9;" 
d="M100 1421h625l-29 -153h-624z" />
    <glyph glyph-name="breve" unicode="&#x2d8;" 
d="M211 1501q11 -145 199 -145q84 0 137 38t90 107h135q-86 -299 -387 -299q-141 0 -224 81t-83 218h133z" />
    <glyph glyph-name="dotaccent" unicode="&#x2d9;" 
d="M285 1464h268l-49 -239h-268z" />
    <glyph glyph-name="ring" unicode="&#x2da;" 
d="M272 1400.5q0 -59.5 34 -98t93.5 -38.5t94 38.5t34.5 98t-34.5 98.5t-94 39t-93.5 -39t-34 -98.5zM222.5 1578.5q72.5 68.5 178.5 68.5t177 -69.5t71 -178t-69 -175.5t-181 -67t-180.5 65.5t-68.5 176.5t72.5 179.5z" />
    <glyph glyph-name="ogonek" unicode="&#x2db;" 
d="M295 -322q61 0 119 62l94 -51q-57 -72 -120.5 -102.5t-149.5 -30.5q-132 0 -176 58t-44 101t9.5 74t66 93t228.5 118h133q-196 -114 -218 -169.5t-22 -84.5t24.5 -48.5t55.5 -19.5z" />
    <glyph glyph-name="tilde" unicode="&#x2dc;" 
d="M557 1243q-68 0 -173 35t-146 35t-58.5 -23.5t-27.5 -62.5h-125q24 109 62 157t82.5 70.5t96.5 22.5t83.5 -11.5t93.5 -35.5q62 -25 108 -25q45 0 65.5 21.5t18.5 50.5h141q-30 -104 -75.5 -169t-145.5 -65z" />
    <glyph glyph-name="hungarumlaut" unicode="&#x2dd;" 
d="M193 1206h-205l180 291h311zM602 1206h-205l181 291h311z" />
    <glyph glyph-name="uni0394" unicode="&#x394;" horiz-adv-x="1437" 
d="M-141 0l841 1458h293l260 -1458h-1394zM799 1151l-500 -899h649z" />
    <glyph glyph-name="uni03A9" unicode="&#x3a9;" horiz-adv-x="1554" 
d="M1456 939q0 -232 -137 -414.5t-350 -219.5l-15 -72h371l-49 -233h-588l88 424q165 23 273 161t108 299q0 160 -83 252.5t-234 92.5q-198 0 -330.5 -155t-132.5 -357q0 -111 51 -192t168 -101l-90 -424h-576l50 233h356l18 80q-137 45 -204.5 156t-67.5 263t63.5 289.5
t171 239t249 159t281.5 57.5t247.5 -38t187.5 -108.5t127 -172t47 -219.5z" />
    <glyph glyph-name="uni03BC" unicode="&#x3bc;" horiz-adv-x="1251" 
d="M358 -29q-43 0 -90 11l-73 -355h-291l307 1432h291l-129 -621q-9 -26 -12 -55t-5 -46.5t-2 -27.5q0 -47 44 -77.5t103 -30.5q112 0 185.5 81.5t104.5 213.5l118 563h291l-221 -1059h-279l33 147h-4q-141 -176 -371 -176z" />
    <glyph glyph-name="pi" unicode="&#x3c0;" horiz-adv-x="1247" 
d="M938 254q0 -47 52.5 -47t103.5 22l-41 -194q-109 -51 -205 -51q-136 0 -165.5 56t-29.5 94t6.5 70t12.5 62l104 494h-356l-164 -760h-262l162 760h-148l53 241h1192l-51 -241h-164l-86 -414q-4 -23 -9 -46.5t-5 -45.5z" />
    <glyph glyph-name="endash" unicode="&#x2013;" horiz-adv-x="1024" 
d="M-6 684h1024l-53 -250h-1024z" />
    <glyph glyph-name="emdash" unicode="&#x2014;" horiz-adv-x="2048" 
d="M260 684h1516l-54 -250h-1515z" />
    <glyph glyph-name="quoteleft" unicode="&#x2018;" horiz-adv-x="569" 
d="M483 805h-323l65 315q32 155 122 245t274 97l-31 -143q-90 -16 -128 -63.5t-54 -135.5h141z" />
    <glyph glyph-name="quoteright" unicode="&#x2019;" horiz-adv-x="569" 
d="M291 1462h323l-65 -315q-32 -157 -120.5 -245.5t-274.5 -96.5l30 143q90 16 128 63.5t55 135.5h-142z" />
    <glyph glyph-name="quotesinglbase" unicode="&#x201a;" horiz-adv-x="569" 
d="M39 315h323l-65 -315q-32 -156 -120.5 -245t-274.5 -97l30 143q90 16 128 63.5t55 135.5h-142z" />
    <glyph glyph-name="quotedblleft" unicode="&#x201c;" horiz-adv-x="985" 
d="M459 805h-324l66 315q32 156 121 245t274 97l-31 -143q-90 -16 -128 -63.5t-54 -135.5h141zM891 805h-324l66 315q32 157 122 246t273 96l-31 -143q-90 -16 -128 -63.5t-54 -135.5h141z" />
    <glyph glyph-name="quotedblright" unicode="&#x201d;" horiz-adv-x="985" 
d="M698 1462h324l-66 -315q-33 -159 -120.5 -246.5t-274.5 -95.5l31 143q90 16 128 63.5t54 135.5h-141zM266 1462h324l-66 -315q-33 -159 -120.5 -246.5t-274.5 -95.5l31 143q90 16 128 63.5t54 135.5h-141z" />
    <glyph glyph-name="quotedblbase" unicode="&#x201e;" horiz-adv-x="985" 
d="M43 315h324l-66 -315q-32 -157 -120.5 -245.5t-274.5 -96.5l31 143q90 16 127.5 63.5t54.5 135.5h-142zM475 315h324l-66 -315q-32 -157 -120.5 -245.5t-274.5 -96.5l31 143q90 16 128 63.5t54 135.5h-141z" />
    <glyph glyph-name="dagger" unicode="&#x2020;" horiz-adv-x="1214" 
d="M496 819h-385l51 240h385l84 403h270l-84 -403h385l-51 -240h-385l-242 -1159h-270z" />
    <glyph glyph-name="daggerdbl" unicode="&#x2021;" horiz-adv-x="1214" 
d="M338 55h-385l49 240h385l111 524h-381l47 240h385l84 403h270l-84 -403h385l-51 -240h-385l-111 -524h385l-49 -240h-385l-84 -395h-270z" />
    <glyph glyph-name="bullet" unicode="&#x2022;" horiz-adv-x="1024" 
d="M147 731q0 76 29 142.5t78 115.5t115.5 78t142.5 29t142.5 -29t116.5 -78t79 -115.5t29 -142.5t-29 -142.5t-79 -116.5t-116.5 -78.5t-142.5 -28.5t-142.5 28.5t-115.5 78.5t-78 116.5t-29 142.5z" />
    <glyph glyph-name="ellipsis" unicode="&#x2026;" horiz-adv-x="2048" 
d="M782 315h324l-68 -315h-323zM1464 315h324l-68 -315h-323zM100 315h324l-68 -315h-323z" />
    <glyph glyph-name="perthousand" unicode="&#x2030;" horiz-adv-x="2314" 
d="M827 224q0 192 94 322t259 130q125 0 195.5 -65.5t70.5 -190.5q0 -185 -93 -317t-270 -132q-129 0 -192.5 75.5t-63.5 177.5zM1262 402q0 141 -82.5 141t-125 -108.5t-42.5 -196.5q0 -133 85 -134q81 0 123 113.5t42 184.5zM1546 224q0 192 93 322t259 130
q125 0 196 -65.5t71 -190.5q0 -185 -93 -317t-270 -132q-129 0 -192.5 75.5t-63.5 177.5zM1980 401q0 142 -82 142t-124.5 -108.5t-42.5 -196.5q0 -134 85 -134q81 0 122.5 112.5t41.5 184.5zM1257 1479h175l-1100 -1524h-176zM143 1010q0 193 92.5 322.5t260.5 129.5
q125 0 195.5 -65.5t70.5 -190.5q0 -184 -93 -316t-270 -132q-129 0 -192.5 75t-63.5 177zM578 1188q0 141 -82.5 141t-125 -109.5t-42.5 -195.5q0 -133 84 -133q81 0 123.5 112.5t42.5 184.5z" />
    <glyph glyph-name="guilsinglleft" unicode="&#x2039;" 
d="M35 446l57 267l371 235l-53 -252l-226 -139l158 -174l-45 -219z" />
    <glyph glyph-name="guilsinglright" unicode="&#x203a;" 
d="M418 666l-58 -267l-370 -235l53 252l225 139l-157 174l45 219z" />
    <glyph glyph-name="fraction" unicode="&#x2044;" horiz-adv-x="342" 
d="M508 1479h174l-844 -1524h-178z" />
    <glyph glyph-name="Euro" unicode="&#x20ac;" horiz-adv-x="1138" 
d="M834 1233q-217 0 -328 -301h500l-72 -146h-465l-10 -92h436l-72 -145h-364q25 -338 278 -338q137 0 338 137l-53 -303q-166 -78 -326 -78q-252 0 -379 159t-145 423h-154l72 145h84l12 92h-116l71 146h76q67 240 225 394t372 153q214 0 384 -131l-125 -232
q-115 117 -239 117z" />
    <glyph glyph-name="afii61289" unicode="&#x2113;" horiz-adv-x="1024" 
d="M795 1197q0 46 -17.5 72.5t-49.5 26.5q-73 0 -103 -145l-80 -367q101 85 175.5 201.5t74.5 211.5zM162 215q0 18 4 39.5t8 47.5t12 63l-125 -91h-4l-71 154l250 170l102 485q39 186 151.5 290t270.5 104q114 0 189 -75t75 -183q0 -174 -133 -335t-397 -339
q-58 -244 -58 -287t26.5 -64.5t63.5 -21.5q77 0 201 80h4l68 -158q-171 -123 -355 -123q-135 0 -208.5 67.5t-73.5 176.5z" />
    <glyph glyph-name="trademark" unicode="&#x2122;" horiz-adv-x="2027" 
d="M1901 618h-197v599h-4l-217 -599h-142l-217 599h-4v-599h-196v844h278l211 -555l211 555h277v-844zM815 1298h-240v-680h-208v680h-240v164h688v-164z" />
    <glyph glyph-name="Omega" unicode="&#x2126;" horiz-adv-x="1554" 
d="M1456 939q0 -232 -137 -414.5t-350 -219.5l-15 -72h371l-49 -233h-588l88 424q165 23 273 161t108 299q0 160 -83 252.5t-234 92.5q-198 0 -330.5 -155t-132.5 -357q0 -111 51 -192t168 -101l-90 -424h-576l50 233h356l18 80q-137 45 -204.5 156t-67.5 263t63.5 289.5
t171 239t249 159t281.5 57.5t247.5 -38t187.5 -108.5t127 -172t47 -219.5z" />
    <glyph glyph-name="estimated" unicode="&#x212e;" horiz-adv-x="1228" 
d="M918 604v297q-129 123 -301.5 123t-294.5 -123v-297h596zM322 530v-370q121 -121 296 -121q129 0 223.5 58.5t172.5 187.5l71 -43q-96 -151 -202 -214t-246 -63t-237 44t-166.5 121t-106.5 179.5t-37 284t146.5 342t382.5 160.5q235 0 382.5 -159t147.5 -407h-827z" />
    <glyph glyph-name="partialdiff" unicode="&#x2202;" horiz-adv-x="1171" 
d="M542 705q-113 0 -175 -79t-62 -194q0 -173 79.5 -217.5t141.5 -44.5t110 37t92.5 121t39.5 217v49q-43 49 -103.5 80t-122.5 31zM496 903q145 0 274 -96v29q0 280 -98.5 356t-178.5 76t-138 -31t-113 -78l-144 164q185 152 379 152q294 0 429.5 -215t135.5 -533
t-79.5 -468t-183 -220t-265.5 -70q-210 0 -339.5 133.5t-129.5 337.5t126.5 333.5t324.5 129.5z" />
    <glyph glyph-name="Delta" unicode="&#x2206;" horiz-adv-x="1437" 
d="M-141 0l841 1458h293l260 -1458h-1394zM799 1151l-500 -899h649z" />
    <glyph glyph-name="product" unicode="&#x220f;" horiz-adv-x="1533" 
d="M1149 -438v1790h-764v-1790h-272v2048h1306v-2048h-270z" />
    <glyph glyph-name="summation" unicode="&#x2211;" horiz-adv-x="1378" 
d="M55 -438v225l604 811l-579 786v226h1218v-258h-856l539 -752l-573 -780h915v-258h-1268z" />
    <glyph glyph-name="minus" unicode="&#x2212;" horiz-adv-x="1228" 
d="M98 627h1035v-219h-1035v219z" />
    <glyph glyph-name="uni2215" unicode="&#x2215;" horiz-adv-x="342" 
d="M508 1479h174l-844 -1524h-178z" />
    <glyph glyph-name="uni2219" unicode="&#x2219;" horiz-adv-x="569" 
d="M88 589q0 70 52 121.5t122 51.5t121 -51.5t51 -118.5t-50 -121.5t-120 -54.5q-114 0 -145 68.5t-31 104.5z" />
    <glyph glyph-name="radical" unicode="&#x221a;" horiz-adv-x="1167" 
d="M692 -438h-248l-301 620l-110 -53l-101 215l351 160l241 -522l330 1628h285z" />
    <glyph glyph-name="infinity" unicode="&#x221e;" horiz-adv-x="1736" 
d="M256 542q0 -70 42 -116.5t116 -46.5q128 0 256 162q-147 172 -260 172q-72 0 -113 -50.5t-41 -120.5zM1362 546q0 71 -42 120t-128 49t-154.5 -74t-91.5 -100q66 -77 127.5 -120.5t134.5 -43.5q74 0 114 49t40 120zM1481.5 257q-101.5 -116 -271.5 -116
q-171 0 -266.5 95.5t-134.5 142.5q-106 -121 -188.5 -177.5t-188.5 -56.5t-177 31t-120 84t-75.5 128t-26.5 205t101 242.5t277 112.5t266.5 -99t131.5 -151q91 119 183 184.5t198 65.5t176 -30.5t143.5 -112.5t73.5 -257t-101.5 -291z" />
    <glyph glyph-name="integral" unicode="&#x222b;" horiz-adv-x="1286" 
d="M467 1004q0 100 12 351t342 251q84 0 138.5 -31t79 -62.5t24.5 -80.5t-34 -87t-88 -38t-76.5 27.5t-35 61.5t-21.5 61.5t-32 27.5q-39 0 -39 -76l13 -330v-987q0 -287 -86 -407.5t-256 -120.5q-91 0 -146 33.5t-79.5 67.5t-24.5 84t39 82t90 32t72.5 -28t31.5 -61.5
t18.5 -61t34.5 -27.5t30.5 25.5t4.5 45.5l-12 295v953z" />
    <glyph glyph-name="approxequal" unicode="&#x2248;" horiz-adv-x="1214" 
d="M812 115q-70 0 -138 20.5t-137.5 45t-134 45t-116.5 20.5t-81 -39t-37 -86h-174q9 156 90.5 272.5t228.5 116.5q79 0 200.5 -43t187 -62.5t122.5 -19.5t85 38t36 85h176q-22 -265 -130 -329t-178 -64zM290 711q-54 0 -84 -39t-36 -86h-174q20 266 136 322.5t190 56.5
t136 -18.5t173.5 -57.5t181.5 -39q119 0 133 121h176q-10 -113 -51 -206t-146 -151t-212 -24.5t-174.5 57t-131 44t-117.5 20.5z" />
    <glyph glyph-name="notequal" unicode="&#x2260;" horiz-adv-x="1214" 
d="M12 174v266h348l107 211h-455v264h586l162 322l231 -117l-102 -205h215v-264h-346l-107 -211h453v-266h-586l-160 -321l-233 116l104 205h-217z" />
    <glyph glyph-name="lessequal" unicode="&#x2264;" horiz-adv-x="1214" 
d="M12 -88v264h1092v-264h-1092zM12 578v264l1092 338v-277l-723 -192l723 -201v-277z" />
    <glyph glyph-name="greaterequal" unicode="&#x2265;" horiz-adv-x="1214" 
d="M12 -88v264h1092v-264h-1092zM12 233v277l725 201l-725 192v277l1092 -338v-264z" />
    <glyph glyph-name="lozenge" unicode="&#x25ca;" horiz-adv-x="1214" 
d="M606 1264l-229 -535l229 -536l230 536zM727 -72h-244l-377 801l379 801h242l381 -801z" />
    <glyph glyph-name="uniF8FF" unicode="&#xf8ff;" horiz-adv-x="1048" 
d="M1049 1470v-1470h-1049v1470h1049zM946 102v1264h-844v-1264h844zM680 988q0 56 -46 106.5t-109.5 50.5t-109.5 -45t-59 -150l-102 17q14 145 90 212.5t186 67.5t182 -73.5t72 -194.5q0 -66 -25.5 -120t-102.5 -124t-89 -108.5t-12 -147.5h-94l-4 35q0 113 26.5 165.5
t93.5 118.5t85 100t18 90zM455 240v137h114v-137h-114z" />
    <glyph glyph-name="commaaccent" horiz-adv-x="569" 
d="M55 -102h297l-30 -150q-12 -59 -44 -101t-83.5 -66.5t-190.5 -24.5l16 75q101 8 134 76h-138z" />
    <glyph glyph-name="commaaccenttwo" horiz-adv-x="569" 
d="M426 1272h-297l31 149q12 59 44 101.5t83 67t190 24.5l-16 -76q-102 -8 -133 -76h137z" />
    <glyph glyph-name="carontwo" 
d="M514 1171h-201l138 291h303z" />
    <glyph glyph-name="dotlessj" 
d="M-128 -133q40 0 59.5 21.5t31.5 52t18.5 62.5t12.5 54l211 1002h291l-232 -1098q-39 -182 -123 -258t-270 -76q-35 0 -71 4t-70 7l49 233q53 -4 93 -4z" />
    <glyph glyph-name="grave.cap" 
d="M541 1595h-205l-287 291h311z" />
    <glyph glyph-name="acute.cap" 
d="M479 1595h-205l181 291h311z" />
    <glyph glyph-name="circumflex.cap" 
d="M299 1886h258l170 -291h-205l-102 166l-178 -166h-224z" />
    <glyph glyph-name="caron.cap" 
d="M492 1595h-259l-170 291h205l103 -170l178 170h223z" />
    <glyph glyph-name="caron.alt" 
d="M514 1171h-201l138 291h303z" />
    <glyph glyph-name="tilde.cap" 
d="M557 1632q-68 0 -173 35t-146 35t-58.5 -23.5t-27.5 -62.5h-125q24 109 62 157t82.5 70.5t96.5 22.5t83.5 -12t93.5 -36q62 -25 108 -24q45 0 65.5 21.5t18.5 50.5h141q-30 -104 -75.5 -169t-145.5 -65z" />
    <glyph glyph-name="dieresis.cap" 
d="M485 1853h269l-49 -239h-269zM84 1853h268l-49 -239h-268z" />
    <glyph glyph-name="macron.cap" 
d="M100 1810h625l-29 -153h-624z" />
    <glyph glyph-name="breve.cap" 
d="M211 1890q11 -145 199 -145q84 0 137 38t90 107h135q-86 -299 -387 -299q-141 0 -224 81t-83 218h133z" />
    <glyph glyph-name="ring.cap" 
d="M272 1773.5q0 -59.5 34 -98.5t93.5 -39t94 39t34.5 98.5t-34.5 98.5t-94 39t-93.5 -39t-34 -98.5zM223 1951.5q73 67.5 179 67.5t176.5 -69t70.5 -177.5t-69 -175.5t-181 -67t-180.5 65.5t-68.5 177t73 179z" />
    <glyph glyph-name="hungarumlaut.cap" 
d="M193 1595h-205l180 291h311zM602 1595h-205l181 291h311z" />
    <glyph glyph-name="dotaccent.cap" 
d="M285 1769h268l-49 -239h-268z" />
    <glyph glyph-name="commaaccent.alt" horiz-adv-x="569" 
d="M426 1272h-297l31 149q12 59 44 101t84 68q52 24 189 24l-16 -76q-49 -4 -82 -20t-51 -56h137z" />
    </font>
</defs>
</svg>
