<?xml version="1.0" standalone="no"?>
<!DOCTYPE svg PUBLIC "-//W3C//DTD SVG 1.1//EN" "http://www.w3.org/Graphics/SVG/1.1/DTD/svg11.dtd" >
<svg xmlns="http://www.w3.org/2000/svg">
<metadata>
Created by FontPrep 20130207 at Sat Jun 27 00:37:26 2015
 By Rezki Bangsawan
Part of the digitally encoded machine readable outline data for producing the Typefaces provided is copyrighted (c) 2003 - 2006 Linotype GmbH, www.linotype.com. All rights reserved. This software is the property of Linotype GmbH, and may not be reproduced, modified, disclosed or transferred without the express written approval of Linotype GmbH. Copyright (c) 1988, 1990, 1993 Adobe Systems Incorporated. All Rights Reserved. Helvetica is a trademark of Heidelberger Druckmaschinen AG, exclusively licensed through Linotype GmbH, and may be registered in certain jurisdictions. This typeface is original artwork of Linotype Design Studio. The design may be protected in certain jurisdictions.
</metadata>
<defs>
<font id="418acb17f4f3af8f69e7fffa5901eee1" horiz-adv-x='1024' >
  <font-face 
    font-family="HelveticaNeueLTCom-MdIt"
    font-weight="500"
    font-style="italic"
    font-stretch="normal"
    units-per-em="2048"
    panose-1="2 11 6 4 2 2 2 9 2 4"
    ascent="1462"
    descent="-586"
    x-height="1059"
    cap-height="1462"
    bbox="-338 -459 2304 1958"
    underline-thickness="102"
    underline-position="-102"
    unicode-range="U+0020-FB02"
  />
<missing-glyph horiz-adv-x="1048" 
d="M1049 1470v-1470h-1049v1470h1049zM946 102v1264h-844v-1264h844zM680 988q0 56 -46 106.5t-109.5 50.5t-109.5 -45t-59 -150l-102 17q14 145 90 212.5t186 67.5t182 -73.5t72 -194.5q0 -66 -25.5 -120t-102.5 -124t-89 -108.5t-12 -147.5h-94l-4 35q0 113 26.5 165.5
t93.5 118.5t85 100t18 90zM455 240v137h114v-137h-114z" />
    <glyph glyph-name="IJ" unicode="IJ" horiz-adv-x="1622" 
d="M313 1462h256l-305 -1462h-256zM766 352q0 -178 180 -178t238 217q18 68 35 150l190 921h256l-168 -817q-8 -35 -21 -95q-56 -256 -124 -380q-129 -205 -416 -205q-232 0 -338 131q-69 85 -70 207q-2 122 21 209h239q-22 -86 -22 -160z" />
    <glyph glyph-name="ij" unicode="ij" horiz-adv-x="1017" 
d="M195 1059h233l-219 -1059h-234zM279 1462h231l-45 -221h-232zM401 -420q-92 0 -149 12l41 187q15 -13 65 -14t79 26t39 81q9 54 16 85l227 1102h233l-223 -1075q-32 -151 -59 -209q-41 -107 -109 -151t-160 -44zM803 1462h231l-45 -221h-231z" />
    <glyph glyph-name="napostrophe" unicode="&#x22;n" horiz-adv-x="1249" 
d="M823 1087q160 1 235 -75t75 -205q0 -80 -11 -131l-141 -676h-233l135 653q16 72 16 116q0 134 -162 134q-117 0 -211 -93q-95 -93 -125 -237l-118 -573h-234l219 1059h219l-32 -154l4 -4q63 88 158 137t206 49zM229 1665h269l-37 -182q-25 -101 -121 -145
q-53 -24 -154 -27l17 78q45 6 69 22t39 51h-123z" />
    <glyph glyph-name="fi" unicode="fi" 
d="M604 1462q78 0 121 -5t84 -9l-39 -178q-39 8 -94 8t-87 -16.5t-49.5 -46t-25.5 -69.5t-20 -87h204l-34 -174h-205l-185 -885h-233l184 885h-174l35 174h174q41 209 89 277.5t112.5 97t142.5 28.5zM840 1059h233l-219 -1059h-233zM922 1462h233l-45 -221h-233z" />
    <glyph glyph-name="fl" unicode="fl" 
d="M604 1462q78 0 121 -5t84 -9l-39 -178q-39 8 -94 8t-87 -16.5t-49.5 -46t-25.5 -69.5t-20 -87h204l-34 -174h-205l-185 -885h-233l184 885h-174l35 174h174q41 209 89 277.5t112.5 97t142.5 28.5zM924 1462h233l-303 -1462h-233z" />
    <glyph glyph-name=".notdef" horiz-adv-x="1048" 
d="M1049 1470v-1470h-1049v1470h1049zM946 102v1264h-844v-1264h844zM680 988q0 56 -46 106.5t-109.5 50.5t-109.5 -45t-59 -150l-102 17q14 145 90 212.5t186 67.5t182 -73.5t72 -194.5q0 -66 -25.5 -120t-102.5 -124t-89 -108.5t-12 -147.5h-94l-4 35q0 113 26.5 165.5
t93.5 118.5t85 100t18 90zM455 240v137h114v-137h-114z" />
    <glyph glyph-name=".null" horiz-adv-x="1024" 
 />
    <glyph glyph-name="nonmarkingreturn" horiz-adv-x="0" 
 />
    <glyph glyph-name="space" unicode=" " horiz-adv-x="569" 
 />
    <glyph glyph-name="exclam" unicode="!" horiz-adv-x="606" 
d="M74 256h264l-55 -256h-265zM328 1462h252l-91 -434l-200 -620h-119l70 628z" />
    <glyph glyph-name="quotedbl" unicode="&#x22;" horiz-adv-x="909" 
d="M252 1462h209v-577h-209v577zM612 1462h209v-577h-209v577z" />
    <glyph glyph-name="numbersign" unicode="#" 
d="M1014 430h-195l-61 -430h-164l59 430h-225l-61 -430h-164l59 430h-192l20 154h195l37 266h-193l21 154h192l59 430h166l-61 -430h227l60 430h165l-61 -430h197l-21 -154h-196l-37 -266h194zM485 850l-36 -266h227l37 266h-228z" />
    <glyph glyph-name="dollar" unicode="$" 
d="M141 1048q0 104 85.5 280t469.5 169l31 145h86l-31 -153q180 -23 271.5 -125t85.5 -283h-221q8 92 -36 152.5t-137 79.5l-96 -471q188 -60 258 -118t102.5 -123.5t32.5 -173.5t-46 -200t-166.5 -183.5t-360.5 -78.5l-37 -174h-86l35 176q-182 20 -290.5 119.5
t-108.5 271.5v31q0 31 4 53h231q-2 -14 -2 -27v-26q0 -201 205 -235l104 503q-175 44 -245 102t-104 121.5t-34 167.5zM754 557q-55 49 -148 76l-100 -483q128 0 215.5 71t87.5 179t-55 157zM426 922.5q51 -38.5 141 -60.5l92 451q-119 4 -201.5 -64.5t-82.5 -177.5
q0 -110 51 -148.5z" />
    <glyph glyph-name="percent" unicode="%" horiz-adv-x="1933" 
d="M1296 1483h150l-819 -1532h-146zM168 956q0 196 104.5 351t294.5 155q133 0 214 -79.5t81 -223.5q0 -201 -101 -353.5t-313 -152.5q-118 0 -199 80t-81 223zM346 942q0 -156 116 -156t169 127.5t53 260.5q0 155 -113 155q-120 0 -172.5 -129.5t-52.5 -257.5zM1071 274
q0 197 105.5 351.5t293.5 154.5q133 0 214 -79.5t81 -223.5q0 -201 -100.5 -353.5t-312.5 -152.5q-118 0 -199.5 80t-81.5 223zM1587 492q0 155 -112 155q-118 0 -172 -128.5t-54 -229.5t25.5 -143t91.5 -42q117 0 169 128t52 260z" />
    <glyph glyph-name="ampersand" unicode="&#x26;" horiz-adv-x="1366" 
d="M254 368q0 -99 63.5 -155.5t145.5 -56.5q122 0 195 56t100 89l-226 371q-178 -82 -228 -166t-50 -138zM858 135q-172 -164 -384 -164q-199 0 -320 109.5t-121 296.5q0 155 111 262t290 190q-108 156 -108 311t107.5 256t266.5 101q155 4 260 -83t105 -251
q0 -188 -143.5 -278t-202.5 -121l190 -311q87 95 121 243h211q-18 -106 -78.5 -217.5t-142.5 -197.5l180 -281h-260zM704 1323q-68 0 -118.5 -45t-50.5 -128t27.5 -132t58.5 -109q104 56 169.5 111.5t65.5 139.5q0 83 -42 123t-110 40z" />
    <glyph glyph-name="quotesingle" unicode="'" horiz-adv-x="569" 
d="M262 1462h209v-577h-209v577z" />
    <glyph glyph-name="parenleft" unicode="(" horiz-adv-x="606" 
d="M57 319q0 493 196 772t306 406h199q-237 -297 -358 -602.5t-121 -652.5t94 -633h-172q-144 367 -144 710z" />
    <glyph glyph-name="parenright" unicode=")" horiz-adv-x="606" 
d="M514 766q0 -465 -197.5 -748.5t-306.5 -408.5h-198q260 347 370.5 625.5t110.5 619.5q0 342 -96 643h170q147 -357 147 -731z" />
    <glyph glyph-name="asterisk" unicode="*" horiz-adv-x="796" 
d="M721 872l-125 -63l-104 217l-175 -186l-94 92l170 182l-207 107l66 120l209 -108l39 229h137l-47 -248l235 33l19 -131l-230 -31z" />
    <glyph glyph-name="plus" unicode="+" horiz-adv-x="1228" 
d="M510 1036h209v-413h411v-209h-411v-414h-209v414h-412v209h412v413z" />
    <glyph glyph-name="comma" unicode="," horiz-adv-x="569" 
d="M61 276h287q-25 -90 -41 -188t-51 -182t-100.5 -141.5t-186.5 -63.5l23 119q78 10 113.5 59t50.5 121h-156z" />
    <glyph glyph-name="hyphen" unicode="-" horiz-adv-x="796" 
d="M86 668h606l-43 -222h-606z" />
    <glyph glyph-name="period" unicode="." horiz-adv-x="569" 
d="M61 276h285l-61 -276h-285z" />
    <glyph glyph-name="slash" unicode="/" horiz-adv-x="720" 
d="M-55 -35l587 1532h224l-588 -1532h-223z" />
    <glyph glyph-name="zero" unicode="0" 
d="M256 453q0 -287 217 -287q136 0 246.5 176t132.5 379t22 260q0 287 -217 287q-135 0 -246 -178t-133 -379t-22 -258zM23 466q0 68 6 144t44.5 264t185 388t425.5 200q229 0 326.5 -143t97.5 -406q0 -133 -98.5 -537.5t-563.5 -404.5q-323 0 -373 213.5t-50 281.5z" />
    <glyph glyph-name="one" unicode="1" 
d="M270 1196q239 0 338 88t133 150h187l-301 -1434h-248l217 1047q-161 -35 -365 -35z" />
    <glyph glyph-name="two" unicode="2" 
d="M651 1268q-147 0 -226 -92.5t-87 -237.5h-221q32 372 223.5 448t299.5 76q210 0 336 -102t126 -297q0 -235 -146 -352.5t-273.5 -189.5t-240.5 -144.5t-184 -167.5h727l-45 -209h-995q55 340 385 539q223 136 324.5 198t157.5 135.5t56 180.5t-66.5 161t-150.5 54z" />
    <glyph glyph-name="three" unicode="3" 
d="M784 465q0 201 -268 201h-61l37 174h49q152 0 213 32.5t88.5 77.5t27.5 133t-64.5 136.5t-152.5 48.5q-125 0 -197.5 -78t-95.5 -197h-221q58 337 239.5 403t281.5 66q193 0 318.5 -90.5t125.5 -265.5q0 -135 -74 -226.5t-190 -119.5v-4q178 -67 178 -297t-166 -359
t-391 -129q-224 0 -344.5 107.5t-120.5 298.5q0 44 4 94h221q-4 -32 -4 -61q0 -113 70.5 -178.5t200.5 -65.5t213 81t83 218z" />
    <glyph glyph-name="four" unicode="4" 
d="M788 1124h-4l-555 -600h426zM1044 340h-194l-72 -340h-233l71 340h-614l45 225l799 869h233l-190 -910h194z" />
    <glyph glyph-name="five" unicode="5" 
d="M375 883q108 82 279 82t280.5 -121t109.5 -301q0 -257 -163 -414.5t-416 -157.5q-212 0 -340.5 113.5t-120.5 321.5h234q13 -240 243 -240q142 0 236 98t94 237q0 138 -68.5 208.5t-179.5 70.5q-170 0 -264 -129h-207l236 783h788l-41 -209h-598l-106 -338z" />
    <glyph glyph-name="six" unicode="6" 
d="M322 803q111 139 309 139q199 0 309.5 -123t110.5 -333t-147 -362.5t-355 -152.5q-389 0 -445.5 221.5t-56.5 356.5q0 241 100.5 490.5t261 336t333.5 86.5t288 -102t119 -289h-234q0 90 -50 143.5t-141 53.5q-164 0 -258 -130.5t-149 -330.5zM740 268.5
q77 102.5 77 224.5t-61.5 193.5t-191.5 71.5t-206.5 -94.5t-76.5 -219.5q0 -126 65.5 -202t190.5 -76q126 0 203 102.5z" />
    <glyph glyph-name="seven" unicode="7" 
d="M236 1434h991l-45 -222q-133 -133 -272.5 -298.5t-267.5 -404.5t-202 -509h-260q190 662 740 1225h-730z" />
    <glyph glyph-name="eight" unicode="8" 
d="M103.5 652.5q103.5 107.5 244.5 129.5v4q-86 47 -132 113t-46 165q0 190 138.5 294t348.5 104q290 0 360 -129t70 -227q0 -143 -75.5 -232.5t-186.5 -111.5v-2q104 -41 156.5 -131.5t52.5 -200.5q0 -200 -169 -328.5t-379 -128.5t-348 113.5t-138 286.5
q0 174 103.5 281.5zM866 1079q0 149 -90 174t-135 25q-115 0 -182.5 -65t-67.5 -163t63.5 -150t171.5 -52q107 0 173.5 56.5t66.5 174.5zM801 440q0 234 -280 234q-128 0 -208 -73t-80 -198t73 -186t200 -61q126 0 210.5 79.5t84.5 204.5z" />
    <glyph glyph-name="nine" unicode="9" 
d="M90 992.5q0 165.5 146 317.5t376 152t337.5 -118.5t125 -236.5t15 -167t-2.5 -100t-14 -152.5t-65.5 -264t-200 -307.5t-383.5 -145q-184 0 -300 103.5t-120 287.5h234q2 -90 53 -143t151.5 -53t166 43t108.5 110.5t66.5 149.5t41.5 158l-4 4q-106 -142 -311 -142
q-315 0 -367.5 169t-52.5 334.5zM324 942q0 -268 248 -268q132 0 207 96t75 236q0 182 -86 222t-154 40q-134 0 -212 -101.5t-78 -224.5z" />
    <glyph glyph-name="colon" unicode=":" horiz-adv-x="569" 
d="M221 1036h285l-62 -276h-284zM61 276h285l-61 -276h-285z" />
    <glyph glyph-name="semicolon" unicode=";" horiz-adv-x="569" 
d="M61 276h287q-25 -90 -41 -188t-51 -182t-100.5 -141.5t-186.5 -63.5l23 119q78 10 113.5 59t50.5 121h-156zM221 1036h285l-62 -276h-284z" />
    <glyph glyph-name="less" unicode="&#x3c;" horiz-adv-x="1228" 
d="M1135 -16l-1041 460v148l1041 461v-209l-766 -326l766 -325v-209z" />
    <glyph glyph-name="equal" unicode="=" horiz-adv-x="1228" 
d="M1130 621h-1032v208h1032v-208zM1130 207h-1032v209h1032v-209z" />
    <glyph glyph-name="greater" unicode="&#x3e;" horiz-adv-x="1228" 
d="M860 518l-766 326v209l1041 -461v-148l-1041 -460v209z" />
    <glyph glyph-name="question" unicode="?" 
d="M816 1252q-67 51 -139 51q-129 0 -204.5 -82.5t-93.5 -210.5h-232q24 216 165.5 351.5t359.5 135.5q304 0 374 -134.5t70 -230.5t-28.5 -159.5t-76.5 -113.5t-109.5 -92t-117.5 -80q-97 -66 -130.5 -115.5t-61.5 -155.5h-217q24 147 64 212.5t82.5 105.5t96.5 75
t100 63.5t105.5 85t59.5 150.5q0 93 -67 144zM322 256h264l-56 -256h-264z" />
    <glyph glyph-name="at" unicode="@" horiz-adv-x="1638" 
d="M734 442q121 0 203.5 122t82.5 243q0 71 -47.5 125.5t-111.5 54.5q-119 0 -200 -116.5t-81 -241.5q0 -82 44 -134.5t110 -52.5zM850 1141q155 0 229 -148l37 117h144l-148 -539q-18 -56 -18 -98.5t43 -42.5t91 34t111.5 130t63.5 278q0 225 -159.5 358.5t-403.5 133.5
t-410 -177t-166 -455q0 -279 171.5 -456.5t434.5 -177.5q135 0 256 53.5t205 149.5h144q-98 -160 -260.5 -248t-336.5 -88t-313 58.5t-242.5 163t-163 250t-59.5 311.5t60.5 300t163 234t238.5 157.5t282 57.5t269.5 -44t217.5 -124t150.5 -190.5t56.5 -252.5t-52 -257
t-127 -191t-159 -113.5t-138 -37.5t-89 29.5t-39 89.5h-4q-41 -47 -102.5 -82t-125.5 -35q-129 0 -215 94.5t-86 209.5q0 219 127 383.5t322 164.5z" />
    <glyph glyph-name="A" unicode="A" horiz-adv-x="1402" 
d="M842 1204h-4l-353 -622h447zM754 1462h270l254 -1462h-260l-60 387h-581l-225 -387h-275z" />
    <glyph glyph-name="B" unicode="B" horiz-adv-x="1441" 
d="M1303 461q0 -57 -23 -136t-124 -202t-402 -123h-752l303 1462h631q250 0 339 -107t89 -235q0 -204 -108.5 -271t-172.5 -77v-4q220 -68 220 -307zM817 850q167 0 229 73t62 156q0 174 -225 174h-365l-84 -403h383zM668 209q138 0 267 41t115.5 191.5t-90.5 187.5t-176 37
h-387l-96 -457h367z" />
    <glyph glyph-name="C" unicode="C" horiz-adv-x="1478" 
d="M1169 975q0 154 -86 233.5t-230 79.5q-259 0 -396.5 -204.5t-137.5 -471.5q0 -205 104.5 -321.5t286.5 -116.5t269.5 107.5t120.5 228.5h256q-60 -269 -233.5 -407t-409.5 -138q-308 0 -479 181.5t-171 457.5q0 229 69 398t180.5 279t252 163t276.5 53
q271 0 432.5 -137.5t151.5 -384.5h-256z" />
    <glyph glyph-name="D" unicode="D" horiz-adv-x="1478" 
d="M846 1462q281 0 427 -153.5t146 -458.5q0 -235 -98 -413t-241.5 -286.5t-285 -129.5t-278.5 -21h-514l307 1462h537zM623 209q198 0 319 118t171 267.5t50 257.5q0 193 -84 297t-237 104h-320l-219 -1044h320z" />
    <glyph glyph-name="E" unicode="E" horiz-adv-x="1290" 
d="M305 1462h1065l-45 -221h-813l-80 -383h754l-43 -209h-756l-88 -428h819l-45 -221h-1071z" />
    <glyph glyph-name="F" unicode="F" horiz-adv-x="1214" 
d="M307 1462h998l-45 -221h-744l-80 -383h645l-45 -209h-643l-135 -649h-256z" />
    <glyph glyph-name="G" unicode="G" horiz-adv-x="1554" 
d="M1106 0v154h-4q-109 -137 -226.5 -163t-162.5 -26q-308 0 -479 181.5t-171 457.5q0 229 69 398t180.5 279t252 163t276.5 53q278 0 447.5 -127.5t169.5 -374.5h-256q-8 150 -104.5 221.5t-242.5 71.5q-261 0 -398.5 -204.5t-137.5 -471.5q0 -205 104.5 -321.5
t297.5 -116.5q266 0 345 156.5t99 244.5h-401l41 195h629l-164 -770h-164z" />
    <glyph glyph-name="H" unicode="H" horiz-adv-x="1478" 
d="M291 1462h256l-121 -581h684l121 581h256l-303 -1462h-256l137 659h-684l-137 -659h-256z" />
    <glyph glyph-name="I" unicode="I" horiz-adv-x="569" 
d="M313 1462h256l-305 -1462h-256z" />
    <glyph glyph-name="J" unicode="J" horiz-adv-x="1099" 
d="M244 352q0 -178 188 -178q123 0 175 88.5t89 278.5l191 921h256l-168 -817q-8 -35 -21.5 -95.5t-45.5 -179t-74 -189.5q-129 -216 -422 -216q-230 0 -319 110.5t-89 230.5t23 206h239q-22 -86 -22 -160z" />
    <glyph glyph-name="K" unicode="K" horiz-adv-x="1402" 
d="M305 1462h256l-137 -663l4 -4l746 667h342l-703 -604l459 -858h-291l-367 698l-258 -221l-98 -477h-256z" />
    <glyph glyph-name="L" unicode="L" horiz-adv-x="1175" 
d="M311 1462h256l-258 -1241h738l-46 -221h-993z" />
    <glyph glyph-name="M" unicode="M" horiz-adv-x="1820" 
d="M311 1462h353l159 -1114h4l635 1114h363l-301 -1462h-246l254 1171h-4l-662 -1171h-200l-185 1171h-4l-223 -1171h-246z" />
    <glyph glyph-name="N" unicode="N" horiz-adv-x="1478" 
d="M305 1462h281l448 -1091h4l224 1091h256l-304 -1462h-280l-451 1085h-4l-221 -1085h-256z" />
    <glyph glyph-name="O" unicode="O" horiz-adv-x="1554" 
d="M63 604q0 229 69 398t180.5 279t252 163t356.5 53t391 -179t175 -460q0 -435 -226.5 -664t-552.5 -229q-302 0 -473.5 181.5t-171.5 457.5zM319 612q0 -205 104.5 -321.5t297.5 -116.5q237 0 373.5 203t136.5 473q0 205 -99.5 321.5t-291.5 116.5q-246 0 -383.5 -204.5
t-137.5 -471.5z" />
    <glyph glyph-name="P" unicode="P" horiz-adv-x="1366" 
d="M1100 1044q0 209 -244 209h-332l-100 -483h387q226 0 257.5 117t31.5 157zM899 1462q206 0 326.5 -88.5t125.5 -206t5 -135.5t-3 -53t-31.5 -126.5t-146.5 -191.5t-356 -100h-438l-117 -561h-256l303 1462h588z" />
    <glyph glyph-name="Q" unicode="Q" horiz-adv-x="1554" 
d="M1231 850q0 205 -99.5 321.5t-291.5 116.5q-246 0 -383.5 -204.5t-137.5 -471.5q0 -205 104.5 -321.5t297.5 -116.5q88 0 160 31l-136 141l144 129l151 -160q138 144 164.5 302.5t26.5 232.5zM63 604q0 229 69 398t180.5 279t252 163t356.5 53t391 -179t175 -447
q0 -486 -283 -728l158 -166l-143 -129l-179 189q-152 -72 -318 -72q-316 0 -487.5 181.5t-171.5 457.5z" />
    <glyph glyph-name="R" unicode="R" horiz-adv-x="1441" 
d="M942 121q0 74 12.5 152.5t12.5 150.5q0 123 -70 150.5t-205 27.5h-305l-125 -602h-260l303 1462h633q171 0 261.5 -45t145 -119t54.5 -228t-88 -251.5t-244 -126.5v-4q92 -35 124 -103.5t32 -152.5t-22 -217t26 -215h-269q-16 47 -16 121zM803 797q164 0 252 68.5
t88 197.5q0 159 -105.5 174.5t-156.5 15.5h-359l-94 -456h375z" />
    <glyph glyph-name="S" unicode="S" horiz-adv-x="1327" 
d="M608 174q205 0 265.5 85t60.5 147q0 110 -83 158t-200 80q-116 32 -184 54.5t-175.5 92t-107.5 261.5t145 318.5t400 126.5q389 0 467 -169t74 -298h-246q-2 137 -76 197.5t-232 60.5t-217 -70t-59 -134q0 -108 78 -152t191 -71q114 -27 193 -51t183.5 -97t104.5 -270
t-150.5 -337.5t-457.5 -140.5q-413 0 -486 190.5t-69 327.5h245q-8 -170 84.5 -239.5t251.5 -69.5z" />
    <glyph glyph-name="T" unicode="T" horiz-adv-x="1214" 
d="M162 1462h1204l-47 -221h-465l-258 -1241h-256l258 1241h-481z" />
    <glyph glyph-name="U" unicode="U" horiz-adv-x="1517" 
d="M674 186q156 0 254.5 80.5t144.5 294.5l193 901h256l-193 -917q-50 -248 -192 -414t-494 -166q-232 0 -386.5 116t-154.5 335q0 74 25 196l180 850h256l-188 -895q-33 -161 18 -271t281 -110z" />
    <glyph glyph-name="V" unicode="V" horiz-adv-x="1251" 
d="M137 1462h260l138 -1155h4l610 1155h272l-803 -1462h-290z" />
    <glyph glyph-name="W" unicode="W" horiz-adv-x="1896" 
d="M143 1462h263l49 -1118h4l506 1118h252l75 -1118h4l480 1118h262l-680 -1462h-260l-70 1118h-4l-512 -1118h-260z" />
    <glyph glyph-name="X" unicode="X" horiz-adv-x="1327" 
d="M543 768l-346 694h280l240 -524l418 524h301l-605 -714l363 -748h-274l-263 567l-460 -567h-306z" />
    <glyph glyph-name="Y" unicode="Y" horiz-adv-x="1290" 
d="M467 580l-361 882h269l252 -663l512 663h303l-723 -903l-115 -559h-256z" />
    <glyph glyph-name="Z" unicode="Z" horiz-adv-x="1290" 
d="M252 1462h1114l-43 -209l-1042 -1032h876l-47 -221h-1196l45 213l1030 1028h-782z" />
    <glyph glyph-name="bracketleft" unicode="[" horiz-adv-x="606" 
d="M326 1497h460l-38 -184h-236l-315 -1520h231l-39 -184h-457z" />
    <glyph glyph-name="backslash" unicode="\" horiz-adv-x="720" 
d="M553 -35l-588 1532h223l588 -1532h-223z" />
    <glyph glyph-name="bracketright" unicode="]" horiz-adv-x="606" 
d="M209 -391h-461l39 184h236l315 1520h-232l39 184h457z" />
    <glyph glyph-name="asciicircum" unicode="^" horiz-adv-x="1228" 
d="M172 686l369 748h147l369 -748h-209l-234 485l-233 -485h-209z" />
    <glyph glyph-name="underscore" unicode="_" horiz-adv-x="1024" 
d="M0 -256v102h1024v-102h-1024z" />
    <glyph glyph-name="grave" unicode="`" horiz-adv-x="493" 
d="M379 1204l-242 293h256l158 -293h-172z" />
    <glyph glyph-name="a" unicode="a" 
d="M618 1087q253 0 325.5 -75.5t72.5 -155.5t-21 -174l-77 -375q-6 -29 -13.5 -55.5t-7.5 -61t49 -34.5q20 0 41 5t41 7l-37 -168q-130 -29 -186 -29q-55 0 -94 37t-43 98q-135 -135 -357 -135q-135 0 -232 73.5t-97 209.5q0 180 122 265t322 99q59 4 117.5 9.5t118.5 9.5
q120 7 120 147q0 118 -178 119q-96 0 -167.5 -33.5t-96.5 -132.5h-221q64 350 499 350zM215 304q0 -148 192 -148q153 0 227 95.5t101 268.5l-4 4q-38 -38 -116 -46q-78 -7 -142.5 -11t-121 -21.5t-96.5 -53.5t-40 -88z" />
    <glyph glyph-name="b" unicode="b" horiz-adv-x="1251" 
d="M647 903q-163 0 -256.5 -150t-93.5 -331q0 -123 59.5 -194.5t188.5 -71.5q162 0 256 148.5t94 330.5q0 123 -59.5 195.5t-188.5 72.5zM1128 636q0 -110 -34.5 -231.5t-104 -218t-174.5 -156t-235 -59.5t-217 46t-140 161h-4l-31 -178h-213l304 1462h233l-109 -524l5 -4
q119 154 314 154t300.5 -121.5t105.5 -330.5z" />
    <glyph glyph-name="c" unicode="c" 
d="M610 903q-167 0 -259.5 -149.5t-92.5 -332.5q0 -184 85 -224.5t170 -40.5t151.5 56t95.5 153h233q-57 -205 -193 -299.5t-344 -94.5t-319.5 125.5t-111.5 327.5q0 280 164 471.5t438 191.5q182 0 304 -98t118 -280h-234q4 98 -54.5 146t-150.5 48z" />
    <glyph glyph-name="d" unicode="d" horiz-adv-x="1251" 
d="M858 634q0 128 -58 198.5t-165 70.5q-192 0 -286.5 -149.5t-94.5 -347.5q0 -119 60 -184.5t166 -65.5t173.5 47t113.5 119.5t68.5 159t22.5 152.5zM456 -29q-171 0 -303.5 88t-132.5 353t157.5 470t410.5 205t327 -174h5l116 549h234l-312 -1462h-223l33 143l-4 4
q-70 -102 -154 -139t-154 -37z" />
    <glyph glyph-name="e" unicode="e" 
d="M20 434q0 261 159.5 457t421 196t360 -144t98.5 -343q0 -50 -12 -131h-789q-4 -18 -4 -23v-45q0 -111 59 -178t173 -67q222 0 274 172h233q-106 -357 -510 -357q-205 0 -334 127t-129 336zM825 656v32q0 94 -59 154.5t-177 60.5t-196 -79t-112 -201h542q2 18 2 33z" />
    <glyph glyph-name="f" unicode="f" horiz-adv-x="645" 
d="M604 1462q78 0 121 -5t84 -9l-39 -178q-39 8 -94 8t-87 -16.5t-49.5 -46t-25.5 -69.5t-20 -87h204l-34 -174h-205l-185 -885h-233l184 885h-174l35 174h174q41 209 89 277.5t112.5 97t142.5 28.5z" />
    <glyph glyph-name="g" unicode="g" horiz-adv-x="1214" 
d="M586 1087q247 0 327 -204h5l30 176h221l-223 -1030q-56 -250 -172 -349.5t-362 -99.5q-308 0 -380.5 123t-74.5 215h233q4 -90 73 -127t158 -37q152 0 214.5 72t95.5 225l23 105l-4 4q-109 -160 -303 -160q-195 0 -301.5 116.5t-106.5 317.5q0 257 104.5 398t207 198
t235.5 57zM272 456q0 -125 54 -198.5t158 -73.5q183 0 272.5 142t89.5 327q0 115 -59 182.5t-161 67.5t-165.5 -44t-105.5 -111.5t-62.5 -148.5t-20.5 -143z" />
    <glyph glyph-name="h" unicode="h" horiz-adv-x="1175" 
d="M750 1087q160 0 234.5 -75.5t74.5 -204.5q0 -83 -10 -131l-142 -676h-233l135 653q16 71 16 91q0 67 -25 113t-141 46q-115 0 -208 -93t-123 -237l-119 -573h-234l304 1462h233l-115 -553h4q59 80 153.5 129t195.5 49z" />
    <glyph glyph-name="i" unicode="i" horiz-adv-x="493" 
d="M195 1059h233l-219 -1059h-234zM279 1462h231l-45 -221h-232z" />
    <glyph glyph-name="j" unicode="j" horiz-adv-x="493" 
d="M-165 -236q48 0 68.5 18.5t33 46.5t18.5 62.5t12 65.5l228 1102h233l-223 -1075q-31 -147 -60 -209q-41 -106 -108.5 -150.5t-159.5 -44.5t-149 12l41 187q18 -15 66 -15zM279 1462h231l-45 -221h-232z" />
    <glyph glyph-name="k" unicode="k" horiz-adv-x="1062" 
d="M279 1462h233l-172 -827l4 -4l479 428h295l-467 -389l258 -670h-258l-186 514l-180 -154l-76 -360h-234z" />
    <glyph glyph-name="l" unicode="l" horiz-adv-x="493" 
d="M279 1462h233l-303 -1462h-234z" />
    <glyph glyph-name="m" unicode="m" horiz-adv-x="1820" 
d="M770 1087q226 0 262 -188q165 188 359 188q154 0 227.5 -75.5t73.5 -204.5q0 -49 -17 -131l-135 -676h-233l131 627q18 80 20 125q0 151 -145 151q-122 0 -203.5 -90t-99.5 -195l-129 -618h-234l121 582q8 41 19.5 92t11.5 98q0 131 -129 131q-115 0 -206.5 -91.5
t-115.5 -199.5l-127 -612h-233l219 1059h221l-31 -150l4 -4q143 182 369 182z" />
    <glyph glyph-name="n" unicode="n" horiz-adv-x="1175" 
d="M750 1087q160 0 234.5 -75.5t74.5 -204.5q0 -83 -10 -131l-142 -676h-233l135 653q16 71 16 91q0 67 -25 113t-141 46q-115 0 -208 -93t-123 -237l-119 -573h-234l220 1059h219l-33 -154l4 -4q63 88 158.5 137t206.5 49z" />
    <glyph glyph-name="o" unicode="o" horiz-adv-x="1214" 
d="M25 434q0 268 121.5 407.5t233.5 192.5t249 53q219 0 341 -115.5t122 -338.5q0 -289 -165.5 -475.5t-439.5 -186.5q-219 0 -340.5 120t-121.5 343zM614 903q-164 0 -260 -146t-96 -329q0 -117 58.5 -194.5t185.5 -77.5q165 0 260.5 145t95.5 330q0 117 -58.5 194.5
t-185.5 77.5z" />
    <glyph glyph-name="p" unicode="p" horiz-adv-x="1251" 
d="M785 1087q146 0 250 -121.5t104 -316.5q0 -270 -100.5 -413.5t-203 -204t-229.5 -60.5t-217 40t-139 153h-4l-115 -555h-233l301 1450h231l-31 -135l4 -4q55 80 145.5 123.5t236.5 43.5zM309 440q0 -133 57 -208.5t164 -75.5q189 0 282 142.5t93 331.5t-85.5 231
t-163.5 42t-147 -43t-113 -111.5t-65.5 -153.5t-21.5 -155z" />
    <glyph glyph-name="q" unicode="q" horiz-adv-x="1251" 
d="M399 -29q-187 0 -283 117.5t-96 304.5q0 281 157 487.5t431 206.5q104 0 190.5 -44t127.5 -144h4l33 160h217l-301 -1450h-234l109 518l-4 4q-120 -160 -351 -160zM254 436q0 -132 59.5 -206t167.5 -74q190 0 282.5 150t92.5 345q0 111 -59.5 181.5t-162.5 70.5t-173 -45
t-116 -114.5t-68.5 -154.5t-22.5 -153z" />
    <glyph glyph-name="r" unicode="r" horiz-adv-x="757" 
d="M672 866q-66 0 -185.5 -56.5t-179.5 -340.5l-98 -469h-234l220 1059h221l-43 -207l4 -4q92 158 188.5 198.5t157.5 40.5t104 -6l-49 -223q-40 8 -106 8z" />
    <glyph glyph-name="s" unicode="s" horiz-adv-x="1024" 
d="M512 903q-180 0 -180 -133q0 -37 27.5 -59.5t72.5 -40t100.5 -32t106.5 -34.5q123 -47 186.5 -109t63.5 -165q0 -180 -136 -269.5t-333 -89.5q-313 0 -376.5 130t-66.5 239h222q-8 -184 233 -184q146 0 184.5 53t38.5 96t-29.5 69.5t-75.5 47t-104.5 36.5t-109.5 34
q-110 40 -174 100.5t-64 159.5q0 173 128 254t309 81q298 0 355.5 -119.5t55.5 -217.5h-221q-2 80 -60.5 116.5t-152.5 36.5z" />
    <glyph glyph-name="t" unicode="t" horiz-adv-x="681" 
d="M322 248q0 -74 70 -74q95 0 138 10l-38 -172q-100 -22 -178 -22q-132 0 -179 54.5t-47 132.5q0 79 14 128l121 580h-184l37 174h184l66 317h227l-66 -317h211l-36 -174h-211l-109 -518q-20 -88 -20 -119z" />
    <glyph glyph-name="u" unicode="u" horiz-adv-x="1175" 
d="M344 -29q-160 0 -234.5 76t-74.5 205q0 83 10 131l141 676h234l-135 -653q-6 -27 -11.5 -51.5t-5.5 -42.5q0 -65 26 -110.5t144 -45.5t210 100.5t118 228.5l119 574h233l-219 -1059h-219l33 154l-4 4q-63 -88 -158.5 -137.5t-206.5 -49.5z" />
    <glyph glyph-name="v" unicode="v" horiz-adv-x="1024" 
d="M70 1059h241l88 -772h4l410 772h246l-586 -1059h-260z" />
    <glyph glyph-name="w" unicode="w" horiz-adv-x="1593" 
d="M59 1059h240l63 -764h5l352 764h244l45 -764h6l366 764h246l-551 -1059h-246l-45 772h-4l-352 -772h-244z" />
    <glyph glyph-name="x" unicode="x" horiz-adv-x="1024" 
d="M115 1059h250l145 -338l274 338h271l-451 -512l270 -547h-253l-172 389l-324 -389h-268l491 563z" />
    <glyph glyph-name="y" unicode="y" horiz-adv-x="1024" 
d="M14 -225q99 0 140 90l92 170l-187 1024h246l111 -774h4l399 774h250l-606 -1092q-41 -76 -80 -145.5t-118.5 -155.5t-254.5 -86q-66 0 -141 17l43 194q61 -16 102 -16z" />
    <glyph glyph-name="z" unicode="z" horiz-adv-x="985" 
d="M141 1059h850l-39 -170l-698 -705h600l-39 -184h-915l39 172l696 702h-535z" />
    <glyph glyph-name="braceleft" unicode="{" horiz-adv-x="606" 
d="M309 389q0 -38 -6 -65l-82 -387q-8 -25 -8 -57t17.5 -59.5t76.5 -27.5h121l-39 -184h-186q-72 0 -141.5 58t-69.5 159q0 29 6 63l76 357q14 68 14 95q0 28 -33.5 74t-130.5 46l39 184q113 0 163 52.5t60 97.5l88 422q33 156 121 218t201 62h186l-39 -184h-120
q-100 0 -120 -60.5t-26 -83.5l-82 -399q-25 -108 -105.5 -158.5t-152.5 -56.5v-4q172 -17 172 -162z" />
    <glyph glyph-name="bar" unicode="|" horiz-adv-x="454" 
d="M123 1610h209v-2048h-209v2048z" />
    <glyph glyph-name="braceright" unicode="}" horiz-adv-x="606" 
d="M375 555q-172 17 -172 162q0 38 6 65l82 387q8 25 8 57t-17.5 59.5t-76.5 27.5h-121l39 184h186q71 0 141 -59t70 -158q0 -31 -6 -63l-76 -357q-14 -68 -14 -95q0 -28 33.5 -74t130.5 -46l-39 -184q-58 0 -133.5 -35.5t-89.5 -114.5l-88 -422q-31 -145 -109 -212.5
t-213 -67.5h-186l39 184h120q100 0 120 60.5t26 83.5l82 399q41 180 258 215v4z" />
    <glyph glyph-name="asciitilde" unicode="~" horiz-adv-x="1228" 
d="M397 692q77 0 181 -45t159.5 -69.5t91.5 -24.5t61 13.5t46.5 32.5t40 44t37.5 49l73 -172q-59 -84 -115 -130t-127 -46t-121 19.5t-100 48.5q-122 71 -232 71t-177 -139l-74 172q85 176 256 176z" />
    <glyph glyph-name="uni00A0" unicode="&#xa0;" horiz-adv-x="569" 
 />
    <glyph glyph-name="exclamdown" unicode="&#xa1;" horiz-adv-x="606" 
d="M186 831l56 256h264l-55 -256h-265zM354 680l-69 -629l-88 -426h-252l90 434l201 621h118z" />
    <glyph glyph-name="cent" unicode="&#xa2;" 
d="M262 417q0 -89 38 -162t132 -91l162 739q-157 -11 -244.5 -157.5t-87.5 -328.5zM29 424q0 279 163.5 471t438.5 192l43 183h84l-41 -189q150 -20 245 -116t91 -256h-234q4 80 -36 127t-107 61l-162 -741q187 8 250 209h233q-106 -386 -524 -394l-45 -209h-84l47 215
q-178 20 -270 141.5t-92 305.5z" />
    <glyph glyph-name="sterling" unicode="&#xa3;" 
d="M248 180q70 51 192 51q42 0 156.5 -35.5t164.5 -35.5t102 29.5t98 58.5l73 -182q-161 -101 -329 -101q-59 0 -185.5 41t-227.5 41t-226 -82l-70 178q130 109 191 189t61 211q0 26 -21 110h-180l29 133h129q-41 105 -41 230q0 231 148 356t369 125t344.5 -133t107.5 -348
h-228q16 129 -45.5 208t-201.5 79t-200.5 -80t-60.5 -209q0 -76 15.5 -128t25.5 -100h310l-25 -133h-262q8 -51 8 -111q0 -112 -59 -194t-166 -164z" />
    <glyph glyph-name="currency" unicode="&#xa4;" 
d="M55 725.5q0 185.5 103 284.5l-117 125l117 116l116 -114q51 43 132 68.5t165 25.5t160 -25.5t123 -66.5l119 116l125 -125l-115 -118q96 -100 96 -286.5t-98 -305.5l113 -121l-113 -113l-117 119q-106 -102 -295 -102t-299 100l-114 -119l-115 115l117 125
q-103 116 -103 301.5zM776.5 931.5q-81.5 90.5 -205.5 90.5q-123 0 -209 -89.5t-86 -216.5t85 -215.5t209.5 -88.5t206 90.5t81.5 214.5t-81.5 214.5z" />
    <glyph glyph-name="yen" unicode="&#xa5;" 
d="M162 743h219l-272 719h245l213 -663l486 663h245l-544 -719h223l-27 -133h-291l-28 -139h291l-29 -133h-291l-70 -338h-233l70 338h-291l28 133h291l29 139h-291z" />
    <glyph glyph-name="brokenbar" unicode="&#xa6;" horiz-adv-x="454" 
d="M123 330h209v-512h-209v512zM123 1354h209v-512h-209v512z" />
    <glyph glyph-name="section" unicode="&#xa7;" 
d="M764 141q55 -89 55 -164q0 -156 -94.5 -276.5t-308.5 -120.5t-314 106t-100 285h209q-4 -92 52 -149.5t164 -57.5t139.5 71t31.5 119t-23.5 88t-61.5 79t-86 78t-133.5 106.5t-161 168.5t-75.5 220t85 208t210 97q-45 74 -45 161q0 154 115.5 245.5t267.5 91.5
q213 0 305 -89t92 -286h-208q2 80 -42 135.5t-122 55.5t-132.5 -39t-54.5 -95q0 -55 23.5 -97t61.5 -81.5t86.5 -78.5t96.5 -79q126 -105 189.5 -184.5t63.5 -195.5q0 -117 -79 -208t-206 -114zM332.5 821.5q-53.5 -42.5 -53.5 -100.5q0 -59 18 -94t55 -74l293 -285
q72 0 127 40t55 129t-71 151l-244 235q-16 16 -29.5 28.5t-55.5 12.5q-41 0 -94.5 -42.5z" />
    <glyph glyph-name="dieresis" unicode="&#xa8;" horiz-adv-x="493" 
d="M750 1452l-39 -221h-226l39 221h226zM381 1452l-39 -221h-225l39 221h225z" />
    <glyph glyph-name="copyright" unicode="&#xa9;" horiz-adv-x="1638" 
d="M1571 731q0 -172 -60.5 -313.5t-164 -241.5t-239.5 -155.5t-294 -55.5t-296 58.5t-237.5 161t-155.5 242.5t-56 308t60 309.5t163.5 241.5t241 155.5t287.5 55.5t286.5 -55.5t240 -155.5t164 -241.5t60.5 -313.5zM1238 1187q-169 177 -419 177q-251 0 -419.5 -178
t-168.5 -451t163 -455t419 -182t425 177t169 456t-169 456zM500 433.5q-88 95.5 -88 292.5t117.5 321t312.5 124q141 0 242.5 -78.5t121.5 -230.5h-139q-16 78 -76.5 127t-137.5 49q-134 0 -206 -86.5t-72 -223.5t76 -232t182 -95q105 0 164.5 51.5t69.5 131.5h141
q-23 -141 -123.5 -228.5t-254.5 -87.5q-82 0 -162 35t-168 130.5z" />
    <glyph glyph-name="ordfeminine" unicode="&#xaa;" horiz-adv-x="684" 
d="M485 1329q-135 0 -163 -92h-166q25 129 114.5 177t206.5 48q190 0 240.5 -46.5t50.5 -101.5t-14 -110l-49 -213q-13 -53 -13 -81t33 -27q12 0 25.5 3t27.5 5l-26 -115q-69 -12 -118 -12q-48 0 -77 30.5t-31 67.5q-80 -98 -231 -98q-96 0 -162.5 44t-66.5 138
q0 214 292 231q94 6 146 10q53 5 71.5 27.5t18.5 51.5t-34 46t-75 17zM240 966q0 -42 32.5 -62.5t81.5 -20.5q88 0 134.5 55t58.5 111l14 59l-4 4q-25 -25 -72 -29t-85 -7t-73.5 -13t-61 -32.5t-25.5 -64.5z" />
    <glyph glyph-name="guillemotleft" unicode="&#xab;" horiz-adv-x="948" 
d="M104 698l363 226l-45 -219l-232 -140l164 -184l-43 -191l-258 283zM502 698l362 226l-45 -219l-231 -140l164 -184l-43 -191l-258 283z" />
    <glyph glyph-name="logicalnot" unicode="&#xac;" horiz-adv-x="1228" 
d="M922 621h-824v208h1032v-608h-208v400z" />
    <glyph glyph-name="uni00AD" unicode="&#xad;" horiz-adv-x="796" 
d="M86 668h606l-43 -222h-606z" />
    <glyph glyph-name="registered" unicode="&#xae;" horiz-adv-x="1638" 
d="M666 293h-136v848h322q154 0 231.5 -57.5t77.5 -179.5t-63.5 -175t-157.5 -63l238 -373h-158l-219 362h-135v-362zM1026 907q0 115 -188 115h-172v-248h159q102 0 135 17.5t49.5 43t16.5 72.5zM1571 731q0 -172 -60.5 -313.5t-164 -241.5t-239.5 -155.5t-294 -55.5
t-296 58.5t-237.5 161t-155.5 242.5t-56 308t60 309.5t163.5 241.5t241 155.5t287.5 55.5t286.5 -55.5t240 -155.5t164 -241.5t60.5 -313.5zM1238 1187q-169 177 -419 177q-251 0 -419.5 -178t-168.5 -451t163 -455t419 -182t425 177t169 456t-169 456z" />
    <glyph glyph-name="macron" unicode="&#xaf;" horiz-adv-x="493" 
d="M121 1276l24 133h584l-27 -133h-581z" />
    <glyph glyph-name="degree" unicode="&#xb0;" horiz-adv-x="819" 
d="M158 1155.5q0 63.5 24.5 119.5t65.5 97t97 65.5t119.5 24.5t120 -24.5t97.5 -65.5t65.5 -97t24.5 -119.5t-24.5 -120t-65.5 -97.5t-97.5 -65.5t-120 -24.5t-119.5 24.5t-97 65.5t-65.5 97.5t-24.5 120zM328 1019q56 -56 136 -56t136.5 55t56.5 137t-57 137.5t-136 55.5
t-135.5 -56.5t-56.5 -136.5t56 -136z" />
    <glyph glyph-name="plusminus" unicode="&#xb1;" horiz-adv-x="1228" 
d="M510 1036h209v-256h411v-209h-411v-256h-209v256h-412v209h412v256zM98 209h1032v-209h-1032v209z" />
    <glyph glyph-name="twosuperior" unicode="&#xb2;" horiz-adv-x="681" 
d="M475 1462q213 0 259 -90t46 -165q0 -170 -212 -283t-269 -155t-72 -67h467l-35 -143h-649q43 229 256 352q51 29 106.5 61t106.5 60q91 49 114 86.5t23 82.5t-14 64t-45.5 36.5t-97.5 17.5t-119 -50t-61 -128h-164q32 321 360 321z" />
    <glyph glyph-name="threesuperior" unicode="&#xb3;" horiz-adv-x="681" 
d="M401 1090q213 0 213 123q0 55 -41.5 80.5t-102.5 25.5t-111 -40t-66 -105h-164q25 154 120 221t228 67t217 -53.5t84 -167.5q0 -82 -48 -136t-122 -71v-4q115 -42 115 -180q0 -224 -151.5 -266.5t-231.5 -42.5q-143 0 -223 65.5t-80 194.5v21q0 20 2 36h164l-2 -37
q0 -61 45 -99t126 -38t134 47t53 123q0 117 -174 117h-41l25 119h32z" />
    <glyph glyph-name="acute" unicode="&#xb4;" horiz-adv-x="493" 
d="M702 1497l-241 -293h-172l157 293h256z" />
    <glyph glyph-name="mu" unicode="&#xb5;" horiz-adv-x="1175" 
d="M350 -29q-105 0 -147 45l-84 -407h-234l301 1450h234l-135 -653q-6 -27 -11.5 -51.5t-5.5 -42.5q0 -65 26 -110.5t144 -45.5t210 100.5t118 228.5l119 574h233l-219 -1059h-219l33 154l-4 4q-63 -88 -158.5 -137.5t-200.5 -49.5z" />
    <glyph glyph-name="paragraph" unicode="&#xb6;" horiz-adv-x="1228" 
d="M170 981q0 53 7 101t39.5 133.5t158.5 166t352 80.5h487l-372 -1790h-164l346 1657h-225l-346 -1657h-164l211 1016q-145 -4 -213 59.5t-92.5 122t-24.5 111.5z" />
    <glyph glyph-name="periodcentered" unicode="&#xb7;" horiz-adv-x="569" 
d="M131 603q0 46 12.5 72.5t34 48t49 34t73.5 12.5t92 -46t46 -106t-45 -107.5t-108.5 -47.5t-108.5 47t-45 93z" />
    <glyph glyph-name="cedilla" unicode="&#xb8;" horiz-adv-x="493" 
d="M152 -129q68 0 123 -36t55 -97q0 -102 -76.5 -149.5t-151.5 -47.5q-144 0 -235 47l41 80q49 -24 103 -30q75 -9 115 13.5t40 57.5q0 80 -96 80q-34 0 -76 -14l-35 43l150 182h100l-117 -135q42 6 60 6z" />
    <glyph glyph-name="onesuperior" unicode="&#xb9;" horiz-adv-x="681" 
d="M199 1300q92 0 175 37t113 107h152l-201 -885h-190l145 645q-86 -22 -221 -22z" />
    <glyph glyph-name="ordmasculine" unicode="&#xba;" horiz-adv-x="729" 
d="M485 1462q316 0 316 -288q0 -182 -108 -296t-300 -114q-154 0 -234.5 73.5t-80.5 230.5t111.5 275.5t295.5 118.5zM392 897q115 0 175 87.5t60 170.5q0 174 -152 174q-103 0 -163 -89t-60 -171q0 -81 37 -126.5t103 -45.5z" />
    <glyph glyph-name="guillemotright" unicode="&#xbb;" horiz-adv-x="948" 
d="M453 410l231 139l-164 184l43 191l258 -283l-51 -225l-362 -226zM55 410l232 139l-164 184l43 191l258 -283l-51 -225l-363 -226z" />
    <glyph glyph-name="onequarter" unicode="&#xbc;" horiz-adv-x="1708" 
d="M1190 1483h160l-856 -1532h-162zM176 1300q92 0 175 37t114 107h151l-200 -885h-191l146 645q-86 -22 -221 -22zM1458 664l-4 4l-307 -316h237zM1651 199h-115l-47 -199h-191l48 199h-400l33 147l522 549h199l-127 -543h115z" />
    <glyph glyph-name="onehalf" unicode="&#xbd;" horiz-adv-x="1708" 
d="M1124 1483h160l-856 -1532h-162zM176 1300q92 0 175 37t114 107h151l-200 -885h-191l146 645q-86 -22 -221 -22zM1413 913q305 0 305 -265q0 -170 -215 -285t-269 -155t-69 -65h467l-35 -143h-649q43 229 256 352q157 89 211 119q53 29 79 49.5t39 42t17 45.5t4 64
t-45 69t-117 29t-120.5 -55.5t-54.5 -132.5h-164q14 156 102 243.5t258 87.5z" />
    <glyph glyph-name="threequarters" unicode="&#xbe;" horiz-adv-x="1708" 
d="M1278 1483h160l-856 -1532h-162zM371 1090q213 0 213 123q0 55 -42 80.5t-103 25.5t-110.5 -40t-66.5 -105h-164q53 288 365 288q189 0 237 -79.5t48 -151.5t-48.5 -126t-121.5 -71v-4q114 -42 114 -180q0 -224 -151.5 -266.5t-231.5 -42.5q-143 0 -223 65.5t-80 194.5
v21q0 20 2 36h164l-2 -37q0 -61 45 -99t126 -38t134 47t53 123q0 117 -174 117h-41l25 119h33zM1460 664l-4 4l-307 -316h237zM1653 199h-115l-47 -199h-191l48 199h-400l33 147l522 549h199l-127 -543h115z" />
    <glyph glyph-name="questiondown" unicode="&#xbf;" 
d="M247 -164q67 -51 139 -51q131 0 206 83.5t92 209.5h231q-24 -218 -165 -353t-359 -135q-308 0 -376 135.5t-68 229.5t28.5 158.5t76.5 115t108 92t116 79.5q103 71 135.5 119.5t59.5 152.5h217q-25 -148 -64.5 -213.5t-82.5 -106.5t-97 -75t-99.5 -62.5t-105 -84
t-59.5 -149.5t67 -145zM532 1087h265l-56 -256h-264z" />
    <glyph glyph-name="Agrave" unicode="&#xc0;" horiz-adv-x="1402" 
d="M842 1204h-4l-353 -622h447zM754 1462h270l254 -1462h-260l-60 387h-581l-225 -387h-275zM844 1602l-242 292h256l158 -292h-172z" />
    <glyph glyph-name="Aacute" unicode="&#xc1;" horiz-adv-x="1402" 
d="M842 1204h-4l-353 -622h447zM754 1462h270l254 -1462h-260l-60 387h-581l-225 -387h-275zM1180 1894l-242 -292h-172l158 292h256z" />
    <glyph glyph-name="Acircumflex" unicode="&#xc2;" horiz-adv-x="1402" 
d="M842 1204h-4l-353 -622h447zM754 1462h270l254 -1462h-260l-60 387h-581l-225 -387h-275zM578 1602l274 292h213l160 -292h-176l-105 184l-178 -184h-188z" />
    <glyph glyph-name="Atilde" unicode="&#xc3;" horiz-adv-x="1402" 
d="M842 1204h-4l-353 -622h447zM754 1462h270l254 -1462h-260l-60 387h-581l-225 -387h-275zM1052 1774q67 0 97 96h119q-24 -150 -132 -220q-36 -24 -87 -24t-124 34t-109 50t-66 16t-53 -34q-24 -34 -33 -60h-121q31 109 63 152q66 86 144 86t170 -47q38 -17 72 -33
t60 -16z" />
    <glyph glyph-name="Adieresis" unicode="&#xc4;" horiz-adv-x="1402" 
d="M842 1204h-4l-353 -622h447zM754 1462h270l254 -1462h-260l-60 387h-581l-225 -387h-275zM1245 1849l-39 -221h-225l39 221h225zM877 1849l-39 -221h-226l39 221h226z" />
    <glyph glyph-name="Aring" unicode="&#xc5;" horiz-adv-x="1402" 
d="M842 1204h-4l-353 -622h447zM754 1462h270l254 -1462h-260l-60 387h-581l-225 -387h-275zM899 1536q-87 0 -146 58t-60 149t62 153t150 62t148 -62t61 -150q0 -87 -64 -149q-64 -61 -151 -61zM778 1747q0 -53 36 -89t89 -36t89 36t36 89t-36 89t-89 36t-89 -36t-36 -89z
" />
    <glyph glyph-name="AE" unicode="&#xc6;" horiz-adv-x="1972" 
d="M885 1462h1167l-47 -221h-713l-80 -383h668l-43 -209h-668l-88 -428h721l-47 -221h-969l78 375h-471l-262 -375h-295zM526 569h385l144 684h-56z" />
    <glyph glyph-name="Ccedilla" unicode="&#xc7;" horiz-adv-x="1478" 
d="M555 -211q-32 0 -76 -14l-35 43l129 157q-209 34 -359.5 193.5t-150.5 435.5q0 229 69 398t180.5 279t252 163t276.5 53q271 0 432.5 -137.5t151.5 -384.5h-256q0 154 -86 233.5t-230 79.5q-259 0 -396.5 -204.5t-137.5 -471.5q0 -205 104.5 -321.5t286.5 -116.5
t269.5 107.5t120.5 228.5h256q-60 -269 -233.5 -407t-409.5 -138q-25 0 -49 2l-86 -102l28 4q14 2 31 2q68 0 123 -36t55 -97q0 -102 -76.5 -149.5t-151.5 -47.5q-144 0 -235 47l41 80q49 -24 103 -30q75 -9 115 13.5t40 57.5q0 80 -96 80z" />
    <glyph glyph-name="Egrave" unicode="&#xc8;" horiz-adv-x="1290" 
d="M305 1462h1065l-45 -221h-813l-80 -383h754l-43 -209h-756l-88 -428h819l-45 -221h-1071zM829 1602l-241 292h256l157 -292h-172z" />
    <glyph glyph-name="Eacute" unicode="&#xc9;" horiz-adv-x="1290" 
d="M305 1462h1065l-45 -221h-813l-80 -383h754l-43 -209h-756l-88 -428h819l-45 -221h-1071zM1163 1894l-241 -292h-172l157 292h256z" />
    <glyph glyph-name="Ecircumflex" unicode="&#xca;" horiz-adv-x="1290" 
d="M305 1462h1065l-45 -221h-813l-80 -383h754l-43 -209h-756l-88 -428h819l-45 -221h-1071zM524 1602l275 292h213l159 -292h-176l-104 184l-178 -184h-189z" />
    <glyph glyph-name="Edieresis" unicode="&#xcb;" horiz-adv-x="1290" 
d="M305 1462h1065l-45 -221h-813l-80 -383h754l-43 -209h-756l-88 -428h819l-45 -221h-1071zM1188 1849l-39 -221h-225l39 221h225zM819 1849l-39 -221h-225l39 221h225z" />
    <glyph glyph-name="Igrave" unicode="&#xcc;" horiz-adv-x="569" 
d="M313 1462h256l-305 -1462h-256zM397 1602l-241 292h256l157 -292h-172z" />
    <glyph glyph-name="Iacute" unicode="&#xcd;" horiz-adv-x="569" 
d="M313 1462h256l-305 -1462h-256zM729 1894l-242 -292h-172l158 292h256z" />
    <glyph glyph-name="Icircumflex" unicode="&#xce;" horiz-adv-x="569" 
d="M313 1462h256l-305 -1462h-256zM139 1602l275 292h213l159 -292h-176l-104 184l-178 -184h-189z" />
    <glyph glyph-name="Idieresis" unicode="&#xcf;" horiz-adv-x="569" 
d="M313 1462h256l-305 -1462h-256zM803 1849l-39 -221h-225l39 221h225zM434 1849l-39 -221h-225l39 221h225z" />
    <glyph glyph-name="Eth" unicode="&#xd0;" horiz-adv-x="1478" 
d="M846 1462q281 0 427 -153.5t146 -458.5q0 -235 -98 -413t-241.5 -286.5t-285 -129.5t-278.5 -21h-514l137 649h-133l41 209h135l127 604h537zM623 209q198 0 319 118t171 267.5t50 257.5q0 193 -84 297t-237 104h-320l-82 -395h398l-41 -209h-402l-92 -440h320z" />
    <glyph glyph-name="Ntilde" unicode="&#xd1;" horiz-adv-x="1478" 
d="M305 1462h281l448 -1091h4l224 1091h256l-304 -1462h-280l-451 1085h-4l-221 -1085h-256zM1104 1774q67 0 96 96h119q-14 -93 -55 -145q-77 -99 -158 -99q-56 0 -130 34q-73 34 -109 50q-35 16 -65 16t-54 -34t-33 -60h-121q66 238 217 238q69 0 160 -47q37 -17 71 -33
q36 -16 62 -16z" />
    <glyph glyph-name="Ograve" unicode="&#xd2;" horiz-adv-x="1554" 
d="M63 604q0 229 69 398q134 329 432 442q140 53 284 53q290 0 464 -179q175 -179 175 -460q0 -433 -240 -677q-214 -216 -528 -216t-485 181q-171 180 -171 458zM319 612q1 -206 105 -322t297 -116q238 0 382 215q128 189 128 461q0 206 -99 322t-292 116q-248 0 -390 -215
q-131 -193 -131 -461zM842 1602l-242 292h256l158 -292h-172z" />
    <glyph glyph-name="Oacute" unicode="&#xd3;" horiz-adv-x="1554" 
d="M63 604q0 229 69 398q134 329 432 442q140 53 284 53q290 0 464 -179q175 -179 175 -460q0 -433 -240 -677q-214 -216 -528 -216t-485 181q-171 180 -171 458zM319 612q1 -206 105 -322t297 -116q238 0 382 215q128 189 128 461q0 206 -99 322t-292 116q-248 0 -390 -215
q-131 -193 -131 -461zM1217 1894l-242 -292h-172l158 292h256z" />
    <glyph glyph-name="Ocircumflex" unicode="&#xd4;" horiz-adv-x="1554" 
d="M63 604q0 229 69 398q134 329 432 442q140 53 284 53q290 0 464 -179q175 -179 175 -460q0 -433 -240 -677q-214 -216 -528 -216t-485 181q-171 180 -171 458zM319 612q1 -206 105 -322t297 -116q238 0 382 215q128 189 128 461q0 206 -99 322t-292 116q-248 0 -390 -215
q-131 -193 -131 -461zM582 1602l274 292h213l160 -292h-176l-105 184l-178 -184h-188z" />
    <glyph glyph-name="Otilde" unicode="&#xd5;" horiz-adv-x="1554" 
d="M63 604q0 229 69 398q134 329 432 442q140 53 284 53q290 0 464 -179q175 -179 175 -460q0 -433 -240 -677q-214 -216 -528 -216t-485 181q-171 180 -171 458zM319 612q1 -206 105 -322t297 -116q238 0 382 215q128 189 128 461q0 206 -99 322t-292 116q-248 0 -390 -215
q-131 -193 -131 -461zM772 1870q69 0 160 -47q37 -17 72 -33t61 -16q66 0 96 96h119q-14 -93 -55 -145q-77 -99 -158 -99q-56 0 -130 34q-73 34 -109 50t-66 16t-52 -34q-24 -34 -34 -60h-121q66 238 217 238z" />
    <glyph glyph-name="Odieresis" unicode="&#xd6;" horiz-adv-x="1554" 
d="M63 604q0 229 69 398q134 329 432 442q140 53 284 53q290 0 464 -179q175 -179 175 -460q0 -433 -240 -677q-214 -216 -528 -216t-485 181q-171 180 -171 458zM319 612q1 -206 105 -322t297 -116q238 0 382 215q128 189 128 461q0 206 -99 322t-292 116q-248 0 -390 -215
q-131 -193 -131 -461zM1233 1849l-39 -221h-225l39 221h225zM864 1849l-39 -221h-225l39 221h225z" />
    <glyph glyph-name="multiply" unicode="&#xd7;" horiz-adv-x="1228" 
d="M113 874l176 115l323 -325l328 325l176 -115l-358 -356l358 -356l-176 -115l-328 328l-323 -328l-176 115l356 356z" />
    <glyph glyph-name="Oslash" unicode="&#xd8;" horiz-adv-x="1554" 
d="M63 609q0 224 69 393t180.5 279t252 163t283.5 53q289 0 469 -184l211 198l74 -79l-218 -205q102 -156 102 -378t-65 -390t-173.5 -277.5t-248 -163t-286.5 -53.5q-305 0 -475 180l-209 -196l-74 80l213 200q-105 156 -105 380zM840 1288q-246 0 -383.5 -204.5
t-137.5 -471.5q0 -119 37 -204l789 743q-98 137 -305 137zM1231 850q0 121 -33 201l-786 -742q100 -135 309 -135q237 0 373.5 203t136.5 473z" />
    <glyph glyph-name="Ugrave" unicode="&#xd9;" horiz-adv-x="1517" 
d="M102 416q0 74 25 196l180 850h256l-188 -895q-10 -49 -17 -118q-4 -137 81 -199t237 -63q153 -1 252 80t145 294l193 901h256l-193 -917q-50 -248 -164 -381q-170 -197 -522 -199q-230 0 -385 116q-156 115 -156 335zM881 1602l-242 292h256l158 -292h-172z" />
    <glyph glyph-name="Uacute" unicode="&#xda;" horiz-adv-x="1517" 
d="M102 416q0 74 25 196l180 850h256l-188 -895q-10 -49 -17 -118q-4 -137 81 -199t237 -63q153 -1 252 80t145 294l193 901h256l-193 -917q-50 -248 -164 -381q-170 -197 -522 -199q-230 0 -385 116q-156 115 -156 335zM1217 1894l-242 -292h-172l158 292h256z" />
    <glyph glyph-name="Ucircumflex" unicode="&#xdb;" horiz-adv-x="1517" 
d="M102 416q0 74 25 196l180 850h256l-188 -895q-10 -49 -17 -118q-4 -137 81 -199t237 -63q153 -1 252 80t145 294l193 901h256l-193 -917q-50 -248 -164 -381q-170 -197 -522 -199q-230 0 -385 116q-156 115 -156 335zM604 1602l275 292h213l159 -292h-176l-104 184
l-178 -184h-189z" />
    <glyph glyph-name="Udieresis" unicode="&#xdc;" horiz-adv-x="1517" 
d="M102 416q0 74 25 196l180 850h256l-188 -895q-10 -49 -17 -118q-4 -137 81 -199t237 -63q153 -1 252 80t145 294l193 901h256l-193 -917q-50 -248 -164 -381q-170 -197 -522 -199q-230 0 -385 116q-156 115 -156 335zM1270 1849l-39 -221h-225l38 221h226zM901 1849
l-39 -221h-225l39 221h225z" />
    <glyph glyph-name="Yacute" unicode="&#xdd;" horiz-adv-x="1290" 
d="M467 580l-361 882h269l252 -663l512 663h303l-723 -903l-115 -559h-256zM1116 1894l-242 -292h-172l158 292h256z" />
    <glyph glyph-name="Thorn" unicode="&#xde;" horiz-adv-x="1366" 
d="M1055 822q0 210 -244 210h-332l-100 -483h387q226 0 257.5 116.5t31.5 156.5zM854 1241q206 0 326.5 -89t125.5 -206t5 -135t-3 -53t-31.5 -126.5t-146.5 -191.5t-356 -100h-438l-72 -340h-256l303 1462h256l-45 -221h332z" />
    <glyph glyph-name="germandbls" unicode="&#xdf;" horiz-adv-x="1175" 
d="M504 156q127 0 211 105.5t84 248.5q0 168 -103.5 192.5t-152.5 24.5h-43l35 154h36q202 0 248.5 91.5t46.5 171.5t-50 124.5t-122 44.5q-124 0 -179 -69t-81 -206l-225 -1038h-234l242 1108q84 389 488 389q162 0 278.5 -87t116.5 -251q0 -130 -86 -229.5t-209 -118.5v-4
q115 -23 171 -106t56 -193t-44 -217t-126 -181q-152 -139 -370 -139q-37 0 -73 4.5t-73 6.5l37 182q57 -8 121 -8z" />
    <glyph glyph-name="agrave" unicode="&#xe0;" 
d="M618 1087q252 0 344 -94q54 -55 54 -136t-21 -175l-77 -375q-6 -29 -14 -55t-7 -50q0 -46 49 -46q20 0 40 5t42 7l-37 -168q-125 -28 -183 -28q-58 -1 -97 36t-43 98q-135 -135 -357 -135q-135 0 -233 74t-96 209q0 183 135 274q108 76 309 90q60 4 118 10t118 9
q122 7 120 147q0 68 -53 94t-137 26t-156 -35q-72 -34 -96 -132h-221q64 350 499 350zM215 304q0 -86 57 -117t136 -31q80 0 138 28q112 55 155 194q22 67 34 142l-4 4q-38 -38 -116 -46q-78 -7 -143 -11q-65 -3 -121 -21t-96 -54t-40 -88zM653 1204l-241 293h256l157 -293
h-172z" />
    <glyph glyph-name="aacute" unicode="&#xe1;" 
d="M618 1087q252 0 344 -94q54 -55 54 -136t-21 -175l-77 -375q-6 -29 -14 -55t-7 -50q0 -46 49 -46q20 0 40 5t42 7l-37 -168q-125 -28 -183 -28q-58 -1 -97 36t-43 98q-135 -135 -357 -135q-135 0 -233 74t-96 209q0 183 135 274q108 76 309 90q60 4 118 10t118 9
q122 7 120 147q0 68 -53 94t-137 26t-156 -35q-72 -34 -96 -132h-221q64 350 499 350zM215 304q0 -86 57 -117t136 -31q80 0 138 28q112 55 155 194q22 67 34 142l-4 4q-38 -38 -116 -46q-78 -7 -143 -11q-65 -3 -121 -21t-96 -54t-40 -88zM961 1497l-242 -293h-172l158 293
h256z" />
    <glyph glyph-name="acircumflex" unicode="&#xe2;" 
d="M618 1087q252 0 344 -94q54 -55 54 -136t-21 -175l-77 -375q-6 -29 -14 -55t-7 -50q0 -46 49 -46q20 0 40 5t42 7l-37 -168q-125 -28 -183 -28q-58 -1 -97 36t-43 98q-135 -135 -357 -135q-135 0 -233 74t-96 209q0 183 135 274q108 76 309 90q60 4 118 10t118 9
q122 7 120 147q0 68 -53 94t-137 26t-156 -35q-72 -34 -96 -132h-221q64 350 499 350zM215 304q0 -86 57 -117t136 -31q80 0 138 28q112 55 155 194q22 67 34 142l-4 4q-38 -38 -116 -46q-78 -7 -143 -11q-65 -3 -121 -21t-96 -54t-40 -88zM330 1204l274 293h213l160 -293
h-176l-105 185l-178 -185h-188z" />
    <glyph glyph-name="atilde" unicode="&#xe3;" 
d="M618 1087q252 0 344 -94q54 -55 54 -136t-21 -175l-77 -375q-6 -29 -14 -55t-7 -50q0 -46 49 -46q20 0 40 5t42 7l-37 -168q-125 -28 -183 -28q-58 -1 -97 36t-43 98q-135 -135 -357 -135q-135 0 -233 74t-96 209q0 183 135 274q108 76 309 90q60 4 118 10t118 9
q122 7 120 147q0 68 -53 94t-137 26t-156 -35q-72 -34 -96 -132h-221q64 350 499 350zM215 304q0 -86 57 -117t136 -31q80 0 138 28q112 55 155 194q22 67 34 142l-4 4q-38 -38 -116 -46q-78 -7 -143 -11q-65 -3 -121 -21t-96 -54t-40 -88zM536 1329q-30 0 -54 -34t-33 -60
h-121q31 109 63 152q66 86 146 86t168 -48q37 -16 71 -32q116 -54 158 80h119q-23 -150 -131 -221q-76 -50 -211 10q-74 34 -110 50q-35 16 -65 17z" />
    <glyph glyph-name="adieresis" unicode="&#xe4;" 
d="M618 1087q252 0 344 -94q54 -55 54 -136t-21 -175l-77 -375q-6 -29 -14 -55t-7 -50q0 -46 49 -46q20 0 40 5t42 7l-37 -168q-125 -28 -183 -28q-58 -1 -97 36t-43 98q-135 -135 -357 -135q-135 0 -233 74t-96 209q0 183 135 274q108 76 309 90q60 4 118 10t118 9
q122 7 120 147q0 68 -53 94t-137 26t-156 -35q-72 -34 -96 -132h-221q64 350 499 350zM215 304q0 -86 57 -117t136 -31q80 0 138 28q112 55 155 194q22 67 34 142l-4 4q-38 -38 -116 -46q-78 -7 -143 -11q-65 -3 -121 -21t-96 -54t-40 -88zM1006 1452l-39 -221h-226l39 221
h226zM637 1452l-39 -221h-225l39 221h225z" />
    <glyph glyph-name="aring" unicode="&#xe5;" 
d="M618 1087q252 0 344 -94q54 -55 54 -136t-21 -175l-77 -375q-6 -29 -14 -55t-7 -50q0 -46 49 -46q20 0 40 5t42 7l-37 -168q-125 -28 -183 -28q-58 -1 -97 36t-43 98q-135 -135 -357 -135q-135 0 -233 74t-96 209q0 183 135 274q108 76 309 90q60 4 118 10t118 9
q122 7 120 147q0 68 -53 94t-137 26t-156 -35q-72 -34 -96 -132h-221q64 350 499 350zM215 304q0 -86 57 -117t136 -31q80 0 138 28q112 55 155 194q22 67 34 142l-4 4q-38 -38 -116 -46q-78 -7 -143 -11q-65 -3 -121 -21t-96 -54t-40 -88zM678 1167q-43 -1 -84 17
q-127 54 -127 194q0 87 62 149t150 62t148 -61t61 -150q1 -88 -64 -150q-64 -61 -146 -61zM553 1378q0 -53 36 -89t89 -36t89 36t36 89t-36 89t-89 36t-89 -36t-36 -89z" />
    <glyph glyph-name="ae" unicode="&#xe6;" horiz-adv-x="1820" 
d="M1501 648v48q0 207 -221 207q-127 0 -201.5 -80t-107.5 -200h526q4 20 4 25zM-18 254q0 180 122 265t322 99q59 4 117.5 9.5t120.5 9.5t97.5 41.5t35.5 105.5q0 118 -193 119q-96 0 -167.5 -33.5t-96.5 -132.5h-221q64 350 499 350q102 0 189.5 -29.5t146.5 -123.5
q134 153 347 153q214 0 324 -119.5t110 -305.5q0 -107 -21 -193h-772q-10 -45 -10 -87q0 -95 58.5 -160.5t170.5 -65.5q214 0 266 172h242q-53 -169 -192.5 -263t-325.5 -94q-304 0 -373 213q-144 -213 -430 -213q-161 0 -263.5 73t-102.5 210zM215 291q11 -135 191 -135
q137 0 206.5 66.5t92.5 164.5l32 137h-4q-50 -35 -125 -44t-234 -19t-159 -170z" />
    <glyph glyph-name="ccedilla" unicode="&#xe7;" 
d="M356 -211q-35 0 -80 -14l-34 43l129 159q-146 21 -246 133t-100 314q0 280 164 471.5t438 191.5q182 0 304 -98t118 -280h-234q4 98 -54.5 146t-150.5 48q-167 0 -259.5 -149.5t-92.5 -332.5q0 -184 85 -224.5t170 -40.5t151.5 56t95.5 153h233q-57 -205 -191 -297
t-335 -97l-92 -106l28 4q14 2 31 2q68 0 123 -36t55 -97q0 -101 -75.5 -149t-151.5 -48q-147 0 -235 47l40 80q49 -24 103 -30q75 -9 115.5 13.5t40.5 61.5t-29 57.5t-64 18.5z" />
    <glyph glyph-name="egrave" unicode="&#xe8;" 
d="M20 434q0 261 160 457t420 196q453 0 459 -487q0 -53 -12 -131h-789q-4 -19 -4 -35v-33q0 -111 59 -179t193 -66q94 0 162 44t92 128h233q-106 -357 -510 -357q-205 0 -334 127t-129 336zM825 656v32q0 94 -59 154t-177 61q-118 0 -196 -79t-112 -201h542q2 18 2 33z
M612 1204l-241 293h256l157 -293h-172z" />
    <glyph glyph-name="eacute" unicode="&#xe9;" 
d="M20 434q0 261 160 457t420 196q453 0 459 -487q0 -53 -12 -131h-789q-4 -19 -4 -35v-33q0 -111 59 -179t193 -66q94 0 162 44t92 128h233q-106 -357 -510 -357q-205 0 -334 127t-129 336zM825 656v32q0 94 -59 154t-177 61q-118 0 -196 -79t-112 -201h542q2 18 2 33z
M961 1497l-242 -293h-172l158 293h256z" />
    <glyph glyph-name="ecircumflex" unicode="&#xea;" 
d="M20 434q0 261 160 457t420 196q453 0 459 -487q0 -53 -12 -131h-789q-4 -19 -4 -35v-33q0 -111 59 -179t193 -66q94 0 162 44t92 128h233q-106 -357 -510 -357q-205 0 -334 127t-129 336zM825 656v32q0 94 -59 154t-177 61q-118 0 -196 -79t-112 -201h542q2 18 2 33z
M307 1204l275 293h213l159 -293h-176l-104 185l-178 -185h-189z" />
    <glyph glyph-name="edieresis" unicode="&#xeb;" 
d="M20 434q0 261 160 457t420 196q453 0 459 -487q0 -53 -12 -131h-789q-4 -19 -4 -35v-33q0 -111 59 -179t193 -66q94 0 162 44t92 128h233q-106 -357 -510 -357q-205 0 -334 127t-129 336zM825 656v32q0 94 -59 154t-177 61q-118 0 -196 -79t-112 -201h542q2 18 2 33z
M987 1452l-39 -221h-225l39 221h225zM618 1452l-38 -221h-226l39 221h225z" />
    <glyph glyph-name="igrave" unicode="&#xec;" horiz-adv-x="493" 
d="M-25 0l220 1059h233l-219 -1059h-234zM256 1204l-242 293h256l158 -293h-172z" />
    <glyph glyph-name="iacute" unicode="&#xed;" horiz-adv-x="493" 
d="M-25 0l220 1059h233l-219 -1059h-234zM614 1497l-241 -293h-172l157 293h256z" />
    <glyph glyph-name="icircumflex" unicode="&#xee;" horiz-adv-x="493" 
d="M-25 0l220 1059h233l-219 -1059h-234zM16 1204l275 293h213l160 -293h-177l-104 185l-178 -185h-189z" />
    <glyph glyph-name="idieresis" unicode="&#xef;" horiz-adv-x="493" 
d="M-25 0l220 1059h233l-219 -1059h-234zM676 1452l-39 -221h-225l39 221h225zM307 1452l-39 -221h-225l39 221h225z" />
    <glyph glyph-name="eth" unicode="&#xf0;" horiz-adv-x="1214" 
d="M502 156q165 0 260.5 145t95.5 330q0 145 -90 183t-167 38t-143.5 -42t-133 -136t-66.5 -228q0 -290 244 -290zM1092 711q0 -340 -163 -540t-442 -200q-219 0 -340.5 120t-121.5 352t168 412.5t436 180.5q115 0 167 -32.5t68 -57.5l4 4q-36 176 -143 305l-217 -106
l-102 111l210 104q-60 51 -178 119l176 102q104 -61 183 -133l219 107l102 -111l-217 -107q191 -237 191 -630z" />
    <glyph glyph-name="ntilde" unicode="&#xf1;" horiz-adv-x="1175" 
d="M750 1087q160 1 234 -75t75 -205q0 -84 -10 -131l-142 -676h-233l135 653q16 72 16 116q0 134 -161 134q-115 0 -222 -102q-83 -83 -114 -228l-119 -573h-234l220 1059h219l-33 -154l4 -4q63 88 159 137t206 49zM515 1329q-29 0 -53 -34t-34 -60h-121q66 238 217 238
q72 0 160 -48q37 -16 72 -32t69 -17q58 0 88 97h119q-23 -151 -131 -221q-65 -42 -145 -14q-80 29 -146 60q-65 31 -95 31z" />
    <glyph glyph-name="ograve" unicode="&#xf2;" horiz-adv-x="1214" 
d="M629 1087q219 1 341 -115t122 -339q0 -289 -166 -475q-166 -187 -439 -187q-219 0 -341 120t-121 343q0 268 168 460q168 193 436 193zM614 903q-164 0 -268 -159q-88 -135 -88 -316q0 -117 58 -195t186 -77q165 0 262 147t94 328q0 117 -58 195t-186 77zM631 1204
l-242 293h256l158 -293h-172z" />
    <glyph glyph-name="oacute" unicode="&#xf3;" horiz-adv-x="1214" 
d="M629 1087q219 1 341 -115t122 -339q0 -289 -166 -475q-166 -187 -439 -187q-219 0 -341 120t-121 343q0 268 168 460q168 193 436 193zM614 903q-164 0 -268 -159q-88 -135 -88 -316q0 -117 58 -195t186 -77q165 0 262 147t94 328q0 117 -58 195t-186 77zM975 1497
l-242 -293h-172l158 293h256z" />
    <glyph glyph-name="ocircumflex" unicode="&#xf4;" horiz-adv-x="1214" 
d="M629 1087q219 1 341 -115t122 -339q0 -289 -166 -475q-166 -187 -439 -187q-219 0 -341 120t-121 343q0 268 168 460q168 193 436 193zM614 903q-164 0 -268 -159q-88 -135 -88 -316q0 -117 58 -195t186 -77q165 0 262 147t94 328q0 117 -58 195t-186 77zM348 1204
l275 293h213l159 -293h-176l-104 185l-178 -185h-189z" />
    <glyph glyph-name="otilde" unicode="&#xf5;" horiz-adv-x="1214" 
d="M629 1087q219 1 341 -115t122 -339q0 -289 -166 -475q-166 -187 -439 -187q-219 0 -341 120t-121 343q0 268 168 460q168 193 436 193zM614 903q-164 0 -268 -159q-88 -135 -88 -316q0 -117 58 -195t186 -77q165 0 262 147t94 328q0 117 -58 195t-186 77zM555 1473
q72 0 160 -48q37 -16 71 -32q116 -54 158 80h119q-14 -93 -55 -145q-78 -100 -146 -100q-69 1 -142 35q-73 33 -109 49q-35 16 -65 17q-30 0 -54 -34t-33 -60h-121q66 238 217 238z" />
    <glyph glyph-name="odieresis" unicode="&#xf6;" horiz-adv-x="1214" 
d="M629 1087q219 1 341 -115t122 -339q0 -289 -166 -475q-166 -187 -439 -187q-219 0 -341 120t-121 343q0 268 168 460q168 193 436 193zM614 903q-164 0 -268 -159q-88 -135 -88 -316q0 -117 58 -195t186 -77q165 0 262 147t94 328q0 117 -58 195t-186 77zM1016 1452
l-39 -221h-225l39 221h225zM647 1452l-39 -221h-225l39 221h225z" />
    <glyph glyph-name="divide" unicode="&#xf7;" horiz-adv-x="1228" 
d="M98 414v209h1032v-209h-1032zM601 793q-44 0 -89 44t-45 104t44 103t103.5 43t103.5 -44t44 -88t-12.5 -69.5t-32 -47t-46 -33.5t-70.5 -12zM601 -51q-44 0 -89 44t-45 104t44 103.5t103.5 43.5t103.5 -44t44 -88t-12.5 -70t-32 -47.5t-46 -33.5t-70.5 -12z" />
    <glyph glyph-name="oslash" unicode="&#xf8;" horiz-adv-x="1214" 
d="M858 631q0 41 -10 96l-537 -487q62 -84 191 -84q165 0 260.5 145t95.5 330zM258 428q0 -63 16 -111l537 490q-58 96 -209 96q-152 0 -248 -146t-96 -329zM629 1087q233 0 350 -126l145 131l56 -62l-150 -137q62 -103 62 -251q1 -297 -165 -484t-440 -187q-221 0 -337 121
l-150 -135l-55 61l151 138q-72 109 -72 259t43.5 268t122 208t190.5 143t249 53z" />
    <glyph glyph-name="ugrave" unicode="&#xf9;" horiz-adv-x="1175" 
d="M344 -29q-160 0 -234 76t-75 205q0 83 10 131l141 676h234l-135 -653q-17 -76 -17 -118q0 -132 162 -132q126 0 218 101t118 228l119 574h233l-219 -1059h-219l33 154l-4 4q-63 -88 -159 -138t-206 -49zM623 1204l-242 293h256l158 -293h-172z" />
    <glyph glyph-name="uacute" unicode="&#xfa;" horiz-adv-x="1175" 
d="M344 -29q-160 0 -234 76t-75 205q0 83 10 131l141 676h234l-135 -653q-17 -76 -17 -118q0 -132 162 -132q126 0 218 101t118 228l119 574h233l-219 -1059h-219l33 154l-4 4q-63 -88 -159 -138t-206 -49zM987 1497l-242 -293h-172l158 293h256z" />
    <glyph glyph-name="ucircumflex" unicode="&#xfb;" horiz-adv-x="1175" 
d="M344 -29q-160 0 -234 76t-75 205q0 83 10 131l141 676h234l-135 -653q-17 -76 -17 -118q0 -132 162 -132q126 0 218 101t118 228l119 574h233l-219 -1059h-219l33 154l-4 4q-63 -88 -159 -138t-206 -49zM332 1204l274 293h213l160 -293h-176l-105 185l-178 -185h-188z
" />
    <glyph glyph-name="udieresis" unicode="&#xfc;" horiz-adv-x="1175" 
d="M344 -29q-160 0 -234 76t-75 205q0 83 10 131l141 676h234l-135 -653q-17 -76 -17 -118q0 -132 162 -132q126 0 218 101t118 228l119 574h233l-219 -1059h-219l33 154l-4 4q-63 -88 -159 -138t-206 -49zM1006 1452l-39 -221h-226l39 221h226zM637 1452l-39 -221h-225
l39 221h225z" />
    <glyph glyph-name="yacute" unicode="&#xfd;" horiz-adv-x="1024" 
d="M14 -225q100 0 140 90l92 170l-187 1024h246l111 -774h4l399 774h250l-606 -1092q-41 -75 -80 -145t-89 -124q-109 -118 -284 -118q-66 0 -141 17l43 194q61 -16 102 -16zM932 1497l-242 -293h-172l158 293h256z" />
    <glyph glyph-name="thorn" unicode="&#xfe;" horiz-adv-x="1251" 
d="M785 1087q146 0 250 -121.5t104 -316.5q0 -270 -100.5 -413.5t-203 -204t-229.5 -60.5t-217 40t-139 153h-4l-115 -555h-233l385 1853h235l-115 -538l5 -4q53 80 142 123.5t235 43.5zM309 440q0 -133 57 -208.5t164 -75.5q189 0 282 142.5t93 331.5t-85.5 231t-163.5 42
t-147 -43t-113 -111.5t-65.5 -153.5t-21.5 -155z" />
    <glyph glyph-name="ydieresis" unicode="&#xff;" horiz-adv-x="1024" 
d="M14 -225q100 0 140 90l92 170l-187 1024h246l111 -774h4l399 774h250l-606 -1092q-41 -75 -80 -145t-89 -124q-109 -118 -284 -118q-66 0 -141 17l43 194q61 -16 102 -16zM932 1452l-39 -221h-225l39 221h225zM563 1452l-39 -221h-225l39 221h225z" />
    <glyph glyph-name="Amacron" unicode="&#x100;" horiz-adv-x="1402" 
d="M842 1204h-4l-353 -622h447zM754 1462h270l254 -1462h-260l-60 387h-581l-225 -387h-275zM623 1673l24 133h584l-27 -133h-581z" />
    <glyph glyph-name="amacron" unicode="&#x101;" 
d="M618 1087q252 0 344 -94q54 -55 54 -136t-21 -175l-77 -375q-6 -29 -14 -55t-7 -50q0 -46 49 -46q20 0 40 5t42 7l-37 -168q-125 -28 -183 -28q-58 -1 -97 36t-43 98q-135 -135 -357 -135q-135 0 -233 74t-96 209q0 183 135 274q108 76 309 90q60 4 118 10t118 9
q122 7 120 147q0 68 -53 94t-137 26t-156 -35q-72 -34 -96 -132h-221q64 350 499 350zM215 304q0 -86 57 -117t136 -31q80 0 138 28q112 55 155 194q22 67 34 142l-4 4q-38 -38 -116 -46q-78 -7 -143 -11q-65 -3 -121 -21t-96 -54t-40 -88zM385 1276l25 133h583l-26 -133
h-582z" />
    <glyph glyph-name="Abreve" unicode="&#x102;" horiz-adv-x="1402" 
d="M842 1204h-4l-353 -622h447zM754 1462h270l254 -1462h-260l-60 387h-581l-225 -387h-275zM899 1739q86 0 150 39q63 39 86 116h114q-27 -143 -121 -216t-235 -72q-215 0 -279 164q-20 54 -16 124h115q8 -155 186 -155z" />
    <glyph glyph-name="abreve" unicode="&#x103;" 
d="M618 1087q252 0 344 -94q54 -55 54 -136t-21 -175l-77 -375q-6 -29 -14 -55t-7 -50q0 -46 49 -46q20 0 40 5t42 7l-37 -168q-125 -28 -183 -28q-58 -1 -97 36t-43 98q-135 -135 -357 -135q-135 0 -233 74t-96 209q0 183 135 274q108 76 309 90q60 4 118 10t118 9
q122 7 120 147q0 68 -53 94t-137 26t-156 -35q-72 -34 -96 -132h-221q64 350 499 350zM215 304q0 -86 57 -117t136 -31q80 0 138 28q112 55 155 194q22 67 34 142l-4 4q-38 -38 -116 -46q-78 -7 -143 -11q-65 -3 -121 -21t-96 -54t-40 -88zM885 1281q-94 -73 -234 -73
t-221 75t-76 214h115q8 -156 186 -156q86 0 150 39q63 39 86 117h115q-27 -143 -121 -216z" />
    <glyph glyph-name="Aogonek" unicode="&#x104;" horiz-adv-x="1402" 
d="M842 1204h-4l-353 -622h447zM1157 0q-270 -170 -270 -257t65 -87q56 0 117 68l98 -17q-93 -164 -274 -164q-107 0 -138.5 52.5t-31.5 103.5q0 90 88.5 166.5t206.5 134.5l-60 387h-581l-225 -387h-275l877 1462h270l254 -1462h-121z" />
    <glyph glyph-name="aogonek" unicode="&#x105;" 
d="M215 304q0 -148 192 -148q153 0 227 95.5t101 268.5l-4 4q-38 -38 -116 -46q-78 -7 -142.5 -11t-121 -21.5t-96.5 -53.5t-40 -88zM485 -301q0 51 42 115.5t151 136.5q33 20 61 37q-65 33 -71 118q-135 -135 -357 -135q-135 0 -232 73.5t-97 209.5q0 180 122 265t322 99
q59 4 117.5 9.5t118.5 9.5q120 7 120 147q0 118 -178 119q-96 0 -167.5 -33.5t-96.5 -132.5h-221q64 350 499 350q253 0 325.5 -75.5t72.5 -155.5t-21 -174l-77 -375q-6 -29 -13.5 -55.5t-7.5 -61t49 -34.5q20 0 41 5t41 7l-37 -168q-45 -10 -77 -16t-56 -11
q-217 -147 -217 -232t64 -85q52 0 110 68l92 -17q-86 -164 -260 -164q-103 0 -132.5 52.5t-29.5 103.5z" />
    <glyph glyph-name="Cacute" unicode="&#x106;" horiz-adv-x="1478" 
d="M1169 975q0 153 -86 233t-230 80q-261 0 -403 -215q-131 -193 -131 -461q1 -206 105 -322t287 -116t287 130q69 85 102 206h256q-60 -271 -233 -408q-172 -137 -410 -137q-308 0 -479 181t-171 458q0 229 69 398q134 329 432 442q140 53 276 53q271 0 433 -138t152 -384
h-256zM1204 1894l-241 -292h-172l157 292h256z" />
    <glyph glyph-name="cacute" unicode="&#x107;" 
d="M610 903q-92 0 -158 -45q-126 -87 -172 -267q-22 -83 -22 -151q0 -136 57 -211t170 -74q215 2 275 210h233q-57 -205 -193 -299t-343 -94t-321 125q-113 126 -111 327q0 278 164 471q164 192 438 192q184 0 305 -98t117 -280h-234q4 98 -54 146q-59 48 -151 48zM973 1497
l-242 -293h-172l158 293h256z" />
    <glyph glyph-name="Ccircumflex" unicode="&#x108;" horiz-adv-x="1478" 
d="M1169 975q0 153 -86 233t-230 80q-261 0 -403 -215q-131 -193 -131 -461q1 -206 105 -322t287 -116t287 130q69 85 102 206h256q-60 -271 -233 -408q-172 -137 -410 -137q-308 0 -479 181t-171 458q0 229 69 398q134 329 432 442q140 53 276 53q271 0 433 -138t152 -384
h-256zM567 1602l275 292h213l159 -292h-176l-104 184l-178 -184h-189z" />
    <glyph glyph-name="ccircumflex" unicode="&#x109;" 
d="M610 903q-92 0 -158 -45q-126 -87 -172 -267q-22 -83 -22 -151q0 -136 57 -211t170 -74q215 2 275 210h233q-57 -205 -193 -299t-343 -94t-321 125q-113 126 -111 327q0 278 164 471q164 192 438 192q184 0 305 -98t117 -280h-234q4 98 -54 146q-59 48 -151 48zM346 1204
l275 293h213l159 -293h-176l-104 185l-178 -185h-189z" />
    <glyph glyph-name="Cdotaccent" unicode="&#x10a;" horiz-adv-x="1478" 
d="M1169 975q0 153 -86 233t-230 80q-261 0 -403 -215q-131 -193 -131 -461q1 -206 105 -322t287 -116t287 130q69 85 102 206h256q-60 -271 -233 -408q-172 -137 -410 -137q-308 0 -479 181t-171 458q0 229 69 398q134 329 432 442q140 53 276 53q271 0 433 -138t152 -384
h-256zM1032 1849l-39 -221h-225l39 221h225z" />
    <glyph glyph-name="cdotaccent" unicode="&#x10b;" 
d="M610 903q-92 0 -158 -45q-126 -87 -172 -267q-22 -83 -22 -151q0 -136 57 -211t170 -74q215 2 275 210h233q-57 -205 -193 -299t-343 -94t-321 125q-113 126 -111 327q0 278 164 471q164 192 438 192q184 0 305 -98t117 -280h-234q4 98 -54 146q-59 48 -151 48zM809 1452
l-39 -221h-225l39 221h225z" />
    <glyph glyph-name="Ccaron" unicode="&#x10c;" horiz-adv-x="1478" 
d="M1169 975q0 153 -86 233t-230 80q-261 0 -403 -215q-131 -193 -131 -461q1 -206 105 -322t287 -116t287 130q69 85 102 206h256q-60 -271 -233 -408q-172 -137 -410 -137q-308 0 -479 181t-171 458q0 229 69 398q134 329 432 442q140 53 276 53q271 0 433 -138t152 -384
h-256zM623 1894h172l106 -180l191 180h188l-281 -292h-217z" />
    <glyph glyph-name="ccaron" unicode="&#x10d;" 
d="M610 903q-92 0 -158 -45q-126 -87 -172 -267q-22 -83 -22 -151q0 -136 57 -211t170 -74q215 2 275 210h233q-57 -205 -193 -299t-343 -94t-321 125q-113 126 -111 327q0 278 164 471q164 192 438 192q184 0 305 -98t117 -280h-234q4 98 -54 146q-59 48 -151 48zM379 1497
h172l106 -180l191 180h188l-280 -293h-217z" />
    <glyph glyph-name="Dcaron" unicode="&#x10e;" horiz-adv-x="1478" 
d="M846 1462q281 0 427 -154t146 -458q0 -235 -129 -469q-66 -119 -229 -245q-127 -96 -310 -122q-97 -14 -235 -14h-514l307 1462h537zM623 209q199 0 335 134q108 106 163 277q42 124 42 232q0 193 -84 297t-237 104h-320l-219 -1044h320zM522 1894h172l107 -180l190 180
h189l-281 -292h-217z" />
    <glyph glyph-name="dcaron" unicode="&#x10f;" horiz-adv-x="1423" 
d="M858 634q0 189 -127 249q-45 20 -125 20t-149 -44q-134 -84 -182 -276q-21 -89 -21 -193t60 -169t166 -65t173 47q135 93 183 279q22 86 22 152zM456 -29q-434 0 -436 435q0 271 158 476t411 205t326 -174h5l116 549h234l-312 -1462h-223l33 143l-4 4q-70 -102 -154 -139
t-154 -37zM1681 1462l-208 -293h-156l117 293h247z" />
    <glyph glyph-name="Dcroat" unicode="&#x110;" horiz-adv-x="1478" 
d="M846 1462q281 0 427 -153.5t146 -458.5q0 -235 -98 -413t-241.5 -286.5t-285 -129.5t-278.5 -21h-514l137 649h-133l41 209h135l127 604h537zM623 209q198 0 319 118t171 267.5t50 257.5q0 193 -84 297t-237 104h-320l-82 -395h398l-41 -209h-402l-92 -440h320z" />
    <glyph glyph-name="dcroat" unicode="&#x111;" horiz-adv-x="1257" 
d="M858 634q0 128 -58 198.5t-165 70.5q-192 0 -286.5 -149.5t-94.5 -347.5q0 -119 60 -184.5t166 -65.5t173.5 47t113.5 119.5t68.5 159t22.5 152.5zM456 -29q-171 0 -303.5 88t-132.5 353t157.5 470t410.5 205t327 -174h5l59 283h-297l25 133h301l28 133h234l-29 -133h180
l-26 -133h-183l-254 -1196h-223l33 143l-4 4q-70 -102 -154 -139t-154 -37z" />
    <glyph glyph-name="Emacron" unicode="&#x112;" horiz-adv-x="1290" 
d="M305 1462h1065l-45 -221h-813l-80 -383h754l-43 -209h-756l-88 -428h819l-45 -221h-1071zM571 1673l25 133h584l-27 -133h-582z" />
    <glyph glyph-name="emacron" unicode="&#x113;" 
d="M20 434q0 261 160 457t420 196q453 0 459 -487q0 -53 -12 -131h-789q-4 -19 -4 -35v-33q0 -111 59 -179t193 -66q94 0 162 44t92 128h233q-106 -357 -510 -357q-205 0 -334 127t-129 336zM825 656v32q0 94 -59 154t-177 61q-118 0 -196 -79t-112 -201h542q2 18 2 33z
M356 1276l25 133h584l-27 -133h-582z" />
    <glyph glyph-name="Ebreve" unicode="&#x114;" horiz-adv-x="1290" 
d="M305 1462h1065l-45 -221h-813l-80 -383h754l-43 -209h-756l-88 -428h819l-45 -221h-1071zM846 1739q86 0 149 39t86 116h115q-27 -143 -121 -216t-235 -72q-215 0 -279 164q-20 54 -16 124h114q8 -155 187 -155z" />
    <glyph glyph-name="ebreve" unicode="&#x115;" 
d="M20 434q0 261 160 457t420 196q453 0 459 -487q0 -53 -12 -131h-789q-4 -19 -4 -35v-33q0 -111 59 -179t193 -66q94 0 162 44t92 128h233q-106 -357 -510 -357q-205 0 -334 127t-129 336zM825 656v32q0 94 -59 154t-177 61q-118 0 -196 -79t-112 -201h542q2 18 2 33z
M891 1281q-94 -73 -234 -73t-221 75t-76 214h115q8 -156 187 -156q86 0 149 39t86 117h115q-27 -143 -121 -216z" />
    <glyph glyph-name="Edotaccent" unicode="&#x116;" horiz-adv-x="1290" 
d="M305 1462h1065l-45 -221h-813l-80 -383h754l-43 -209h-756l-88 -428h819l-45 -221h-1071zM999 1849l-38 -221h-226l39 221h225z" />
    <glyph glyph-name="edotaccent" unicode="&#x117;" 
d="M20 434q0 261 160 457t420 196q453 0 459 -487q0 -53 -12 -131h-789q-4 -19 -4 -35v-33q0 -111 59 -179t193 -66q94 0 162 44t92 128h233q-106 -357 -510 -357q-205 0 -334 127t-129 336zM825 656v32q0 94 -59 154t-177 61q-118 0 -196 -79t-112 -201h542q2 18 2 33z
M793 1452l-39 -221h-226l39 221h226z" />
    <glyph glyph-name="Eogonek" unicode="&#x118;" horiz-adv-x="1290" 
d="M997 0q-270 -170 -270 -257t66 -87q55 0 116 68l99 -17q-93 -164 -275 -164q-107 0 -138.5 52.5t-31.5 103.5q0 89 89.5 166.5t205.5 134.5h-856l303 1462h1065l-45 -221h-813l-80 -383h754l-43 -209h-756l-88 -428h819l-45 -221h-76z" />
    <glyph glyph-name="eogonek" unicode="&#x119;" 
d="M825 655v33q0 94 -59 154.5t-177 60.5t-196 -79t-112 -201h542q2 18 2 32zM178 -303q0 139 244 278q-163 15 -282.5 132.5t-119.5 326.5q0 261 159.5 457t421 196t360 -144t98.5 -343q0 -50 -12 -131h-789q-4 -18 -4 -35v-33q0 -111 59 -178t173 -67q222 0 274 172h233
q-55 -186 -188 -273q-98 -61 -232 -78q-230 -152 -231 -236q-1 -85 66 -85q55 0 116 68l99 -17q-93 -164 -275 -164q-107 0 -138.5 52.5t-31.5 101.5z" />
    <glyph glyph-name="Ecaron" unicode="&#x11a;" horiz-adv-x="1290" 
d="M305 1462h1065l-45 -221h-813l-80 -383h754l-43 -209h-756l-88 -428h819l-45 -221h-1071zM573 1894h172l107 -180l190 180h189l-281 -292h-217z" />
    <glyph glyph-name="ecaron" unicode="&#x11b;" 
d="M20 434q0 261 160 457t420 196q453 0 459 -487q0 -53 -12 -131h-789q-4 -19 -4 -35v-33q0 -111 59 -179t193 -66q94 0 162 44t92 128h233q-106 -357 -510 -357q-205 0 -334 127t-129 336zM825 656v32q0 94 -59 154t-177 61q-118 0 -196 -79t-112 -201h542q2 18 2 33z
M377 1497h172l106 -180l191 180h188l-280 -293h-217z" />
    <glyph glyph-name="Gcircumflex" unicode="&#x11c;" horiz-adv-x="1554" 
d="M1106 0v154h-4q-72 -90 -180 -140q-108 -49 -237 -49q-130 0 -251 49q-239 97 -328 338q-43 117 -43 252q0 229 69 398q134 329 432 442q140 53 276 53q278 0 448 -127t170 -375h-256q-8 150 -104 222q-96 71 -242 71q-264 -1 -406 -215q-131 -193 -131 -461
q1 -206 105 -322t297 -116q267 0 387 240q37 74 57 161h-401l41 195h629l-164 -770h-164zM573 1602l275 292h213l160 -292h-177l-104 184l-178 -184h-189z" />
    <glyph glyph-name="gcircumflex" unicode="&#x11d;" horiz-adv-x="1214" 
d="M586 1087q247 0 327 -204h5l30 176h221l-223 -1030q-56 -251 -173 -350t-361 -99q-308 0 -415 181q-38 65 -40 157h233q4 -90 73 -127t158 -37q218 0 277 177q18 54 33 120l23 105l-4 4q-109 -160 -303 -160q-195 0 -302 117q-106 117 -106 317q0 119 36 237
q76 248 275 359q102 57 236 57zM272 456q0 -268 222 -272q173 0 270 154q80 126 82 315q0 115 -60 183t-176 67q-156 1 -254 -155q-42 -68 -64 -149q-20 -81 -20 -143zM418 1204l274 293h213l160 -293h-176l-105 185l-178 -185h-188z" />
    <glyph glyph-name="Gbreve" unicode="&#x11e;" horiz-adv-x="1554" 
d="M1106 0v154h-4q-72 -90 -180 -140q-108 -49 -237 -49q-130 0 -251 49q-239 97 -328 338q-43 117 -43 252q0 229 69 398q134 329 432 442q140 53 276 53q278 0 448 -127t170 -375h-256q-8 150 -104 222q-96 71 -242 71q-264 -1 -406 -215q-131 -193 -131 -461
q1 -206 105 -322t297 -116q267 0 387 240q37 74 57 161h-401l41 195h629l-164 -770h-164zM883 1739q86 0 149 39t86 116h115q-27 -143 -121 -216q-94 -72 -234 -72t-221 75q-82 75 -75 213h114q8 -155 187 -155z" />
    <glyph glyph-name="gbreve" unicode="&#x11f;" horiz-adv-x="1214" 
d="M586 1087q247 0 327 -204h5l30 176h221l-223 -1030q-56 -251 -173 -350t-361 -99q-308 0 -415 181q-38 65 -40 157h233q4 -90 73 -127t158 -37q218 0 277 177q18 54 33 120l23 105l-4 4q-109 -160 -303 -160q-195 0 -302 117q-106 117 -106 317q0 119 36 237
q76 248 275 359q102 57 236 57zM272 456q0 -268 222 -272q173 0 270 154q80 126 82 315q0 115 -60 183t-176 67q-156 1 -254 -155q-42 -68 -64 -149q-20 -81 -20 -143zM954 1281q-94 -73 -234 -73t-221 76q-82 76 -75 213h115q8 -156 186 -156q86 0 149 39t87 117h114
q-27 -143 -121 -216z" />
    <glyph glyph-name="Gdotaccent" unicode="&#x120;" horiz-adv-x="1554" 
d="M1106 0v154h-4q-72 -90 -180 -140q-108 -49 -237 -49q-130 0 -251 49q-239 97 -328 338q-43 117 -43 252q0 229 69 398q134 329 432 442q140 53 276 53q278 0 448 -127t170 -375h-256q-8 150 -104 222q-96 71 -242 71q-264 -1 -406 -215q-131 -193 -131 -461
q1 -206 105 -322t297 -116q267 0 387 240q37 74 57 161h-401l41 195h629l-164 -770h-164zM1047 1849l-39 -221h-226l39 221h226z" />
    <glyph glyph-name="gdotaccent" unicode="&#x121;" horiz-adv-x="1214" 
d="M586 1087q247 0 327 -204h5l30 176h221l-223 -1030q-56 -251 -173 -350t-361 -99q-308 0 -415 181q-38 65 -40 157h233q4 -90 73 -127t158 -37q218 0 277 177q18 54 33 120l23 105l-4 4q-109 -160 -303 -160q-195 0 -302 117q-106 117 -106 317q0 119 36 237
q76 248 275 359q102 57 236 57zM272 456q0 -268 222 -272q173 0 270 154q80 126 82 315q0 115 -60 183t-176 67q-156 1 -254 -155q-42 -68 -64 -149q-20 -81 -20 -143zM848 1452l-39 -221h-225l39 221h225z" />
    <glyph glyph-name="Gcommaaccent" unicode="&#x122;" horiz-adv-x="1554" 
d="M1106 0v154h-4q-72 -90 -180 -140q-108 -49 -237 -49q-130 0 -251 49q-239 97 -328 338q-43 117 -43 252q0 229 69 398q134 329 432 442q140 53 276 53q278 0 448 -127t170 -375h-256q-8 150 -104 222q-96 71 -242 71q-264 -1 -406 -215q-131 -193 -131 -461
q1 -206 105 -322t297 -116q267 0 387 240q37 74 57 161h-401l41 195h629l-164 -770h-164zM543 -102h268l-37 -183q-25 -102 -121 -144q-53 -24 -153 -28l16 78q45 7 70 23t39 51h-123z" />
    <glyph glyph-name="gcommaaccent" unicode="&#x123;" horiz-adv-x="1214" 
d="M586 1087q247 0 327 -204h5l30 176h221l-223 -1030q-56 -251 -173 -350t-361 -99q-308 0 -415 181q-38 65 -40 157h233q4 -90 73 -127t158 -37q218 0 277 177q18 54 33 120l23 105l-4 4q-109 -160 -303 -160q-195 0 -302 117q-106 117 -106 317q0 119 36 237
q76 248 275 359q102 57 236 57zM272 456q0 -268 222 -272q173 0 270 154q80 126 82 315q0 115 -60 183t-176 67q-156 1 -254 -155q-42 -68 -64 -149q-20 -81 -20 -143zM844 1260h-269l37 182q25 102 121 144q53 24 154 28l-17 -78q-46 -6 -70 -22t-38 -52h123z" />
    <glyph glyph-name="Hcircumflex" unicode="&#x124;" horiz-adv-x="1478" 
d="M291 1462h256l-121 -581h684l121 581h256l-303 -1462h-256l137 659h-684l-137 -659h-256zM563 1602l275 292h213l159 -292h-176l-104 184l-178 -184h-189z" />
    <glyph glyph-name="hcircumflex" unicode="&#x125;" horiz-adv-x="1175" 
d="M750 1087q160 1 234 -75t75 -205q0 -84 -10 -131l-142 -676h-233l135 653q16 72 16 116q0 134 -161 134q-115 0 -222 -102q-83 -83 -114 -228l-119 -573h-234l304 1462h233l-115 -553h4q59 80 153 129t196 49zM397 1602l275 292h213l159 -292h-176l-104 184l-178 -184
h-189z" />
    <glyph glyph-name="Hbar" unicode="&#x126;" horiz-adv-x="1478" 
d="M1102 829l28 148h-684l-28 -148h684zM291 1462h256l-72 -352h684l72 352h256l-303 -1462h-256l129 608h-684l-129 -608h-256z" />
    <glyph glyph-name="hbar" unicode="&#x127;" horiz-adv-x="1232" 
d="M807 1087q160 0 234.5 -75.5t74.5 -204.5q0 -83 -10 -131l-141 -676h-234l135 653q6 27 11.5 51t5.5 42q0 65 -26 111t-141 46q-114 0 -207 -93t-124 -237l-119 -573h-233l248 1196h-181l25 133h182l29 133h233l-28 -133h250l-27 -133h-250l-59 -287h4q59 80 153.5 129
t194.5 49z" />
    <glyph glyph-name="Itilde" unicode="&#x128;" horiz-adv-x="569" 
d="M313 1462h256l-305 -1462h-256zM620 1774q67 0 97 96h119q-24 -150 -132 -220q-36 -24 -87 -24t-124 34t-109 50t-66 16t-53 -34q-24 -34 -34 -60h-120q31 109 63 152q66 86 145 86t168 -47q37 -17 72 -33t61 -16z" />
    <glyph glyph-name="itilde" unicode="&#x129;" horiz-adv-x="493" 
d="M-25 0l220 1059h233l-219 -1059h-234zM173 1329q-29 0 -53 -34t-34 -60h-121q66 238 217 238q72 0 160 -48q37 -16 72 -32t69 -17q58 0 88 97h119q-23 -151 -131 -221q-65 -42 -145 -14q-80 29 -146 60q-65 31 -95 31z" />
    <glyph glyph-name="Imacron" unicode="&#x12a;" horiz-adv-x="569" 
d="M313 1462h256l-305 -1462h-256zM180 1673l25 133h583l-26 -133h-582z" />
    <glyph glyph-name="imacron" unicode="&#x12b;" horiz-adv-x="493" 
d="M-25 0l220 1059h233l-219 -1059h-234zM45 1276l25 133h583l-26 -133h-582z" />
    <glyph glyph-name="Iogonek" unicode="&#x12e;" horiz-adv-x="569" 
d="M262 0q-242 -169 -242 -256q0 -88 54 -88t110 68l88 -17q-86 -164 -247 -164q-96 0 -124 52.5t-28 103.5q0 89 79.5 166.5t184.5 134.5h-129l305 1462h256l-305 -1462h-2z" />
    <glyph glyph-name="iogonek" unicode="&#x12f;" horiz-adv-x="493" 
d="M279 1462h231l-45 -221h-232zM207 0q-242 -169 -242 -256q0 -88 53 -88t111 68l88 -17q-86 -164 -248 -164q-97 0 -124 52.5t-27 103.5q0 89 79.5 166.5t184.5 134.5h-107l220 1059h233l-219 -1059h-2z" />
    <glyph glyph-name="Idotaccent" unicode="&#x130;" horiz-adv-x="569" 
d="M313 1462h256l-305 -1462h-256zM625 1849l-39 -221h-226l39 221h226z" />
    <glyph glyph-name="dotlessi" unicode="&#x131;" horiz-adv-x="493" 
d="M-25 0l220 1059h233l-219 -1059h-234z" />
    <glyph glyph-name="Jcircumflex" unicode="&#x134;" horiz-adv-x="1099" 
d="M244 352q0 -178 188 -178q122 0 182 101q44 74 82 266l191 921h256l-168 -817q-7 -35 -21 -95q-60 -268 -125 -380q-129 -205 -415 -205q-232 0 -338 131q-72 89 -72 209t23 207h239q-22 -86 -22 -160zM698 1602l275 292h213l160 -292h-177l-104 184l-178 -184h-189z" />
    <glyph glyph-name="jcircumflex" unicode="&#x135;" horiz-adv-x="493" 
d="M-123 -420q-92 0 -149 12l41 187q21 -13 66 -14q73 -2 96 62t36 130l228 1102h233l-223 -1075q-29 -139 -55 -209q-45 -107 -113 -151t-160 -44zM4 1204l275 293h213l159 -293h-176l-104 185l-178 -185h-189z" />
    <glyph glyph-name="Kcommaaccent" unicode="&#x136;" horiz-adv-x="1402" 
d="M305 1462h256l-137 -663l4 -4l746 667h342l-703 -604l459 -858h-291l-367 698l-258 -221l-98 -477h-256zM440 -102h269l-37 -183q-25 -102 -121 -144q-53 -24 -154 -28l17 78q46 7 70 23t38 51h-123z" />
    <glyph glyph-name="kcommaaccent" unicode="&#x137;" horiz-adv-x="1062" 
d="M279 1462h233l-172 -827l4 -4l479 428h295l-467 -389l258 -670h-258l-186 514l-180 -154l-76 -360h-234zM279 -102h268l-37 -183q-25 -102 -121 -144q-53 -24 -153 -28l16 78q45 7 70 23t38 51h-122z" />
    <glyph glyph-name="Lacute" unicode="&#x139;" horiz-adv-x="1175" 
d="M311 1462h256l-258 -1241h738l-46 -221h-993zM793 1894l-242 -292h-172l158 292h256z" />
    <glyph glyph-name="lacute" unicode="&#x13a;" horiz-adv-x="493" 
d="M279 1462h233l-303 -1462h-234zM698 1894l-241 -292h-172l157 292h256z" />
    <glyph glyph-name="Lcommaaccent" unicode="&#x13b;" horiz-adv-x="1175" 
d="M311 1462h256l-258 -1241h738l-46 -221h-993zM373 -102h268l-37 -183q-25 -102 -121 -144q-53 -24 -153 -28l16 78q45 7 70 23t39 51h-123z" />
    <glyph glyph-name="lcommaaccent" unicode="&#x13c;" horiz-adv-x="493" 
d="M279 1462h233l-303 -1462h-234zM-53 -102h268l-37 -183q-25 -102 -121 -144q-53 -24 -153 -28l16 78q45 7 70 23t39 51h-123z" />
    <glyph glyph-name="Lcaron" unicode="&#x13d;" horiz-adv-x="1175" 
d="M311 1462h256l-258 -1241h738l-46 -221h-993zM1067 1462l-209 -293h-156l117 293h248z" />
    <glyph glyph-name="lcaron" unicode="&#x13e;" horiz-adv-x="669" 
d="M279 1462h233l-303 -1462h-234zM928 1462l-209 -293h-156l117 293h248z" />
    <glyph glyph-name="Ldot" unicode="&#x13f;" horiz-adv-x="1175" 
d="M311 1462h256l-258 -1241h738l-46 -221h-993zM967 1061l-39 -221h-226l39 221h226z" />
    <glyph glyph-name="ldot" unicode="&#x140;" horiz-adv-x="784" 
d="M279 1462h233l-303 -1462h-234zM786 1061l-38 -221h-226l39 221h225z" />
    <glyph glyph-name="Lslash" unicode="&#x141;" horiz-adv-x="1175" 
d="M311 1462h256l-131 -626l471 290l-39 -190l-471 -291l-88 -424h738l-46 -221h-993l96 465l-178 -111l39 185l178 110z" />
    <glyph glyph-name="lslash" unicode="&#x142;" horiz-adv-x="493" 
d="M279 1462h233l-100 -481l190 129l-31 -145l-190 -129l-172 -836h-234l136 653l-166 -112l30 145l166 113z" />
    <glyph glyph-name="Nacute" unicode="&#x143;" horiz-adv-x="1478" 
d="M305 1462h281l448 -1091h4l224 1091h256l-304 -1462h-280l-451 1085h-4l-221 -1085h-256zM1243 1894l-242 -292h-172l158 292h256z" />
    <glyph glyph-name="nacute" unicode="&#x144;" horiz-adv-x="1175" 
d="M750 1087q160 1 234 -75t75 -205q0 -84 -10 -131l-142 -676h-233l135 653q16 72 16 116q0 134 -161 134q-115 0 -222 -102q-83 -83 -114 -228l-119 -573h-234l220 1059h219l-33 -154l4 -4q63 88 159 137t206 49zM967 1497l-242 -293h-172l158 293h256z" />
    <glyph glyph-name="Ncommaaccent" unicode="&#x145;" horiz-adv-x="1478" 
d="M305 1462h281l448 -1091h4l224 1091h256l-304 -1462h-280l-451 1085h-4l-221 -1085h-256zM469 -102h268l-37 -183q-25 -103 -120 -144q-53 -24 -154 -28l16 78q45 7 70 23t39 51h-123z" />
    <glyph glyph-name="ncommaaccent" unicode="&#x146;" horiz-adv-x="1175" 
d="M750 1087q160 1 234 -75t75 -205q0 -84 -10 -131l-142 -676h-233l135 653q16 72 16 116q0 134 -161 134q-115 0 -222 -102q-83 -83 -114 -228l-119 -573h-234l220 1059h219l-33 -154l4 -4q63 88 159 137t206 49zM293 -102h268l-37 -183q-25 -102 -121 -144
q-53 -24 -153 -28l16 78q45 7 70 23t39 51h-123z" />
    <glyph glyph-name="Ncaron" unicode="&#x147;" horiz-adv-x="1478" 
d="M305 1462h281l448 -1091h4l224 1091h256l-304 -1462h-280l-451 1085h-4l-221 -1085h-256zM639 1894h172l107 -180l190 180h188l-280 -292h-217z" />
    <glyph glyph-name="ncaron" unicode="&#x148;" horiz-adv-x="1175" 
d="M750 1087q160 1 234 -75t75 -205q0 -84 -10 -131l-142 -676h-233l135 653q16 72 16 116q0 134 -161 134q-115 0 -222 -102q-83 -83 -114 -228l-119 -573h-234l220 1059h219l-33 -154l4 -4q63 88 159 137t206 49zM389 1497h172l107 -180l190 180h189l-281 -293h-217z" />
    <glyph glyph-name="Omacron" unicode="&#x14c;" horiz-adv-x="1554" 
d="M63 604q0 229 69 398q134 329 432 442q140 53 284 53q290 0 464 -179q175 -179 175 -460q0 -433 -240 -677q-214 -216 -528 -216t-485 181q-171 180 -171 458zM319 612q1 -206 105 -322t297 -116q238 0 382 215q128 189 128 461q0 206 -99 322t-292 116q-248 0 -390 -215
q-131 -193 -131 -461zM623 1673l24 133h584l-27 -133h-581z" />
    <glyph glyph-name="omacron" unicode="&#x14d;" horiz-adv-x="1214" 
d="M629 1087q219 1 341 -115t122 -339q0 -289 -166 -475q-166 -187 -439 -187q-219 0 -341 120t-121 343q0 268 168 460q168 193 436 193zM614 903q-164 0 -268 -159q-88 -135 -88 -316q0 -117 58 -195t186 -77q165 0 262 147t94 328q0 117 -58 195t-186 77zM401 1276
l25 133h584l-27 -133h-582z" />
    <glyph glyph-name="Obreve" unicode="&#x14e;" horiz-adv-x="1554" 
d="M63 604q0 229 69 398q134 329 432 442q140 53 284 53q290 0 464 -179q175 -179 175 -460q0 -433 -240 -677q-214 -216 -528 -216t-485 181q-171 180 -171 458zM319 612q1 -206 105 -322t297 -116q238 0 382 215q128 189 128 461q0 206 -99 322t-292 116q-248 0 -390 -215
q-131 -193 -131 -461zM907 1739q86 0 150 39q63 39 86 116h114q-27 -143 -121 -216q-94 -72 -234 -72q-141 0 -221 75q-81 75 -75 213h115q8 -155 186 -155z" />
    <glyph glyph-name="obreve" unicode="&#x14f;" horiz-adv-x="1214" 
d="M629 1087q219 1 341 -115t122 -339q0 -289 -166 -475q-166 -187 -439 -187q-219 0 -341 120t-121 343q0 268 168 460q168 193 436 193zM614 903q-164 0 -268 -159q-88 -135 -88 -316q0 -117 58 -195t186 -77q165 0 262 147t94 328q0 117 -58 195t-186 77zM920 1281
q-94 -73 -234 -73t-221 75t-76 214h115q8 -156 186 -156q86 0 150 39q63 39 86 117h114q-26 -143 -120 -216z" />
    <glyph glyph-name="Ohungarumlaut" unicode="&#x150;" horiz-adv-x="1554" 
d="M63 604q0 229 69 398q134 329 432 442q140 53 284 53q290 0 464 -179q175 -179 175 -460q0 -433 -240 -677q-214 -216 -528 -216t-485 181q-171 180 -171 458zM319 612q1 -206 105 -322t297 -116q238 0 382 215q128 189 128 461q0 206 -99 322t-292 116q-248 0 -390 -215
q-131 -193 -131 -461zM1374 1894l-241 -292h-152l137 292h256zM1001 1894l-241 -292h-152l137 292h256z" />
    <glyph glyph-name="ohungarumlaut" unicode="&#x151;" horiz-adv-x="1214" 
d="M629 1087q219 1 341 -115t122 -339q0 -289 -166 -475q-166 -187 -439 -187q-219 0 -341 120t-121 343q0 268 168 460q168 193 436 193zM614 903q-164 0 -268 -159q-88 -135 -88 -316q0 -117 58 -195t186 -77q165 0 262 147t94 328q0 117 -58 195t-186 77zM1165 1497
l-241 -293h-152l137 293h256zM793 1497l-242 -293h-152l138 293h256z" />
    <glyph glyph-name="OE" unicode="&#x152;" horiz-adv-x="2238" 
d="M90 604q0 172 53.5 333t154.5 286t246.5 199.5t329.5 74.5q264 0 402 -178l31 143h997l-47 -221h-764l-80 -383h696l-43 -209h-696l-88 -428h772l-47 -221h-1003l26 125h-4q-123 -160 -382 -160t-406.5 182t-147.5 457zM1198 1035q0 86 -69 169.5t-259 83.5
q-244 0 -384 -195t-140 -486t128 -362t220 -71q158 0 266.5 92t137.5 246l84 414q16 82 16 109z" />
    <glyph glyph-name="oe" unicode="&#x153;" horiz-adv-x="1896" 
d="M270 406q0 -250 244 -250q156 0 241 163.5t85 315.5t-60 210t-153 58q-94 0 -162 -49t-131.5 -158.5t-63.5 -289.5zM1573 648v48q0 207 -221 207q-127 0 -202 -80t-108 -200h527q4 20 4 25zM1806 651q0 -101 -20 -182h-772q-10 -45 -10 -87q0 -94 57.5 -160t171.5 -66
q214 0 266 172h242q-53 -169 -192.5 -263t-325.5 -94q-137 0 -202 30t-101.5 67.5t-65.5 97.5q-74 -109 -175 -152t-235 -43q-205 0 -306 119t-101 330q0 267 119.5 411t230.5 200t248 56q266 0 352 -190q66 94 169.5 142t214 48t193.5 -32.5t136 -90t79.5 -135t26.5 -178.5
z" />
    <glyph glyph-name="Racute" unicode="&#x154;" horiz-adv-x="1441" 
d="M942 121q0 75 12 153t12 150q1 121 -85 157q-55 21 -189 21h-305l-125 -602h-260l303 1462h633q172 0 262 -45t144 -120t55 -228q0 -153 -88 -251t-244 -126v-4q92 -36 124 -104t32 -152q-1 -84 -13 -160q-32 -193 17 -272h-269q-16 47 -16 121zM803 797q164 1 252 69
t88 187t-71 160q-71 40 -191 40h-359l-94 -456h375zM1124 1894l-241 -292h-172l157 292h256z" />
    <glyph glyph-name="racute" unicode="&#x155;" horiz-adv-x="757" 
d="M672 866q-66 0 -132 -32q-176 -83 -233 -365l-98 -469h-234l220 1059h221l-43 -207l4 -4q93 160 233 218q80 35 217 15l-49 -223q-40 8 -106 8zM686 1497l-242 -293h-172l158 293h256z" />
    <glyph glyph-name="Rcommaaccent" unicode="&#x156;" horiz-adv-x="1441" 
d="M942 121q0 75 12 153t12 150q1 121 -85 157q-55 21 -189 21h-305l-125 -602h-260l303 1462h633q172 0 262 -45t144 -120t55 -228q0 -153 -88 -251t-244 -126v-4q92 -36 124 -104t32 -152q-1 -84 -13 -160q-32 -193 17 -272h-269q-16 47 -16 121zM803 797q164 1 252 69
t88 187t-71 160q-71 40 -191 40h-359l-94 -456h375zM455 -102h268l-37 -183q-25 -102 -121 -144q-53 -24 -153 -28l16 78q45 7 70 23t39 51h-123z" />
    <glyph glyph-name="rcommaaccent" unicode="&#x157;" horiz-adv-x="757" 
d="M672 866q-66 0 -132 -32q-176 -83 -233 -365l-98 -469h-234l220 1059h221l-43 -207l4 -4q93 160 233 218q80 35 217 15l-49 -223q-40 8 -106 8zM-51 -102h268l-37 -183q-25 -102 -121 -144q-53 -24 -153 -28l16 78q45 7 70 23t39 51h-123z" />
    <glyph glyph-name="Rcaron" unicode="&#x158;" horiz-adv-x="1441" 
d="M942 121q0 75 12 153t12 150q1 121 -85 157q-55 21 -189 21h-305l-125 -602h-260l303 1462h633q172 0 262 -45t144 -120t55 -228q0 -153 -88 -251t-244 -126v-4q92 -36 124 -104t32 -152q-1 -84 -13 -160q-32 -193 17 -272h-269q-16 47 -16 121zM803 797q164 1 252 69
t88 187t-71 160q-71 40 -191 40h-359l-94 -456h375zM545 1894h172l106 -180l191 180h188l-280 -292h-217z" />
    <glyph glyph-name="rcaron" unicode="&#x159;" horiz-adv-x="757" 
d="M672 866q-66 0 -132 -32q-176 -83 -233 -365l-98 -469h-234l220 1059h221l-43 -207l4 -4q93 160 233 218q80 35 217 15l-49 -223q-40 8 -106 8zM238 1497h172l106 -180l191 180h188l-281 -293h-217z" />
    <glyph glyph-name="Sacute" unicode="&#x15a;" horiz-adv-x="1327" 
d="M608 174q205 0 294 125q32 45 32 107t-30 104q-30 41 -78 69t-111 47q-63 18 -121 34t-127 38q-159 53 -239 172q-44 68 -44 169q0 207 147 332q147 126 398 126q391 0 504 -249q41 -89 37 -218h-246q-2 138 -76 198t-231 60t-242 -99q-35 -41 -35 -105q0 -107 91 -159
q56 -32 174 -62q118 -29 197 -53q288 -87 288 -372q0 -193 -138 -321q-163 -152 -470 -152q-413 0 -522 283q-38 98 -33 235h245q-8 -169 84 -239t252 -70zM1092 1894l-242 -292h-172l158 292h256z" />
    <glyph glyph-name="sacute" unicode="&#x15b;" horiz-adv-x="1024" 
d="M332 770q0 -37 35 -66t127 -55q240 -69 317 -141q76 -73 77 -177q1 -103 -40 -169q-117 -187 -428 -191q-436 0 -443 369h222q-8 -184 233 -184q149 0 202 76q22 30 22 73q-1 97 -167 141t-227 77q-61 32 -94 64q-68 66 -69 165q-2 171 137 260q117 75 305 75
q412 0 405 -337h-221q-4 153 -213 153q-180 0 -180 -133zM885 1497l-242 -293h-172l158 293h256z" />
    <glyph glyph-name="Scircumflex" unicode="&#x15c;" horiz-adv-x="1327" 
d="M608 174q205 0 294 125q32 45 32 107t-30 104q-30 41 -78 69t-111 47q-63 18 -121 34t-127 38q-159 53 -239 172q-44 68 -44 169q0 207 147 332q147 126 398 126q391 0 504 -249q41 -89 37 -218h-246q-2 138 -76 198t-231 60t-242 -99q-35 -41 -35 -105q0 -107 91 -159
q56 -32 174 -62q118 -29 197 -53q288 -87 288 -372q0 -193 -138 -321q-163 -152 -470 -152q-413 0 -522 283q-38 98 -33 235h245q-8 -169 84 -239t252 -70zM467 1602l274 292h213l160 -292h-176l-104 184l-179 -184h-188z" />
    <glyph glyph-name="scircumflex" unicode="&#x15d;" horiz-adv-x="1024" 
d="M332 770q0 -37 35 -66t127 -55q240 -69 317 -141q76 -73 77 -177q1 -103 -40 -169q-117 -187 -428 -191q-436 0 -443 369h222q-8 -184 233 -184q149 0 202 76q22 30 22 73q-1 97 -167 141t-227 77q-61 32 -94 64q-68 66 -69 165q-2 171 137 260q117 75 305 75
q412 0 405 -337h-221q-4 153 -213 153q-180 0 -180 -133zM266 1204l275 293h213l159 -293h-176l-104 185l-178 -185h-189z" />
    <glyph glyph-name="Scedilla" unicode="&#x15e;" horiz-adv-x="1327" 
d="M463 -211q-32 0 -76 -14l-35 43l125 153q-70 6 -129 25q-333 93 -321 487h245q-8 -170 84.5 -239.5t251.5 -69.5q205 0 265.5 85t60.5 147q0 110 -83 158t-200 80q-116 32 -184 54.5t-175.5 92t-107.5 261.5t145 318.5t400 126.5q389 0 467 -169t74 -298h-246
q-2 137 -76 197.5t-232 60.5t-217 -70t-59 -134q0 -108 78 -152t191 -71q114 -27 193 -51t183.5 -97t104.5 -270t-150.5 -337.5t-457.5 -140.5h-11l-86 -100l29 4q14 2 31 2q68 0 123 -36t55 -97q0 -102 -76.5 -149.5t-151.5 -47.5q-144 0 -235 47l41 80q49 -24 103 -30
q76 -9 115.5 13.5t39.5 57.5q0 80 -96 80z" />
    <glyph glyph-name="scedilla" unicode="&#x15f;" horiz-adv-x="1024" 
d="M512 903q-180 0 -180 -133q0 -37 27.5 -59.5t72.5 -40t100.5 -32t106.5 -34.5q123 -47 186.5 -109t63.5 -165q0 -180 -136 -269.5t-333 -89.5l-92 -106l28 4q14 2 31 2q68 0 123 -36t55 -97q0 -102 -76.5 -149.5t-151.5 -47.5q-144 0 -235 47l41 80q49 -24 103 -30
q75 -9 115 13.5t40 57.5q0 80 -96 80q-32 0 -76 -14l-34 43l129 159q-134 14 -204.5 63.5t-105 120t-37.5 179.5h222q-8 -184 233 -184q146 0 184.5 53t38.5 96t-29.5 69.5t-75.5 47t-104.5 36.5t-109.5 34q-110 40 -174 100.5t-64 159.5q0 173 128 254t309 81
q298 0 355.5 -119.5t55.5 -217.5h-221q-2 80 -60.5 116.5t-152.5 36.5z" />
    <glyph glyph-name="Scaron" unicode="&#x160;" horiz-adv-x="1327" 
d="M608 174q205 0 294 125q32 45 32 107t-30 104q-30 41 -78 69t-111 47q-63 18 -121 34t-127 38q-159 53 -239 172q-44 68 -44 169q0 207 147 332q147 126 398 126q391 0 504 -249q41 -89 37 -218h-246q-2 138 -76 198t-231 60t-242 -99q-35 -41 -35 -105q0 -107 91 -159
q56 -32 174 -62q118 -29 197 -53q288 -87 288 -372q0 -193 -138 -321q-163 -152 -470 -152q-413 0 -522 283q-38 98 -33 235h245q-8 -169 84 -239t252 -70zM512 1894h172l107 -180l190 180h188l-280 -292h-217z" />
    <glyph glyph-name="scaron" unicode="&#x161;" horiz-adv-x="1024" 
d="M332 770q0 -37 35 -66t127 -55q240 -69 317 -141q76 -73 77 -177q1 -103 -40 -169q-117 -187 -428 -191q-436 0 -443 369h222q-8 -184 233 -184q149 0 202 76q22 30 22 73q-1 97 -167 141t-227 77q-61 32 -94 64q-68 66 -69 165q-2 171 137 260q117 75 305 75
q412 0 405 -337h-221q-4 153 -213 153q-180 0 -180 -133zM311 1497h172l107 -180l190 180h189l-281 -293h-217z" />
    <glyph glyph-name="Tcommaaccent" unicode="&#x162;" horiz-adv-x="1214" 
d="M162 1462h1204l-47 -221h-465l-258 -1241h-256l258 1241h-481zM317 -102h269l-37 -183q-25 -102 -121 -144q-53 -24 -154 -28l17 78q45 7 69 23t39 51h-123z" />
    <glyph glyph-name="tcommaaccent" unicode="&#x163;" horiz-adv-x="681" 
d="M322 248q0 -74 70 -74q95 0 138 10l-38 -172q-100 -22 -178 -22q-133 0 -179 54q-47 54 -47 134q0 78 14 127l121 580h-184l37 174h184l66 317h227l-66 -317h211l-36 -174h-211l-109 -518q-20 -88 -20 -119zM135 -102h268l-36 -183q-25 -102 -121 -144q-53 -24 -154 -28
l17 78q45 7 69 23t39 51h-123z" />
    <glyph glyph-name="Tcaron" unicode="&#x164;" horiz-adv-x="1214" 
d="M162 1462h1204l-47 -221h-465l-258 -1241h-256l258 1241h-481zM518 1894h172l107 -180l190 180h189l-281 -292h-217z" />
    <glyph glyph-name="tcaron" unicode="&#x165;" horiz-adv-x="811" 
d="M1061 1462l-209 -293h-156l117 293h248zM322 248q0 -74 70 -74q95 0 138 10l-38 -172q-100 -22 -178 -22q-133 0 -179 54q-47 54 -47 134q0 78 14 127l121 580h-184l37 174h184l66 317h227l-66 -317h211l-36 -174h-211l-109 -518q-20 -88 -20 -119z" />
    <glyph glyph-name="Tbar" unicode="&#x166;" horiz-adv-x="1214" 
d="M162 1462h1204l-47 -221h-465l-59 -283h327l-26 -133h-328l-172 -825h-256l172 825h-326l25 133h328l59 283h-481z" />
    <glyph glyph-name="tbar" unicode="&#x167;" horiz-adv-x="681" 
d="M322 248q0 -74 70 -74q95 0 138 10l-38 -172q-100 -22 -178 -22q-132 0 -179 54.5t-47 132.5q0 79 14 128l56 270h-201l25 134h204l37 176h-184l37 174h184l66 317h227l-66 -317h211l-36 -174h-211l-37 -176h231l-27 -134h-233l-43 -208q-20 -88 -20 -119z" />
    <glyph glyph-name="Utilde" unicode="&#x168;" horiz-adv-x="1517" 
d="M102 416q0 74 25 196l180 850h256l-188 -895q-10 -49 -17 -118q-4 -137 81 -199t237 -63q153 -1 252 80t145 294l193 901h256l-193 -917q-50 -248 -164 -381q-170 -197 -522 -199q-230 0 -385 116q-156 115 -156 335zM1106 1774q67 0 96 96h119q-14 -93 -55 -145
q-77 -99 -158 -99q-56 0 -130 34q-73 34 -109 50q-35 16 -65 16t-54 -34t-33 -60h-121q66 238 217 238q69 0 160 -47q37 -17 71 -33q36 -16 62 -16z" />
    <glyph glyph-name="utilde" unicode="&#x169;" horiz-adv-x="1175" 
d="M344 -29q-160 0 -234 76t-75 205q0 83 10 131l141 676h234l-135 -653q-17 -76 -17 -118q0 -132 162 -132q126 0 218 101t118 228l119 574h233l-219 -1059h-219l33 154l-4 4q-63 -88 -159 -138t-206 -49zM527 1329q-29 0 -53 -34t-34 -60h-121q30 107 63 151q66 87 147 87
t167 -48q37 -16 72 -32t70 -17q51 0 88 97h118q-23 -151 -131 -221q-66 -43 -160 -8q-57 20 -126 53q-70 32 -100 32z" />
    <glyph glyph-name="Umacron" unicode="&#x16a;" horiz-adv-x="1517" 
d="M102 416q0 74 25 196l180 850h256l-188 -895q-10 -49 -17 -118q-4 -137 81 -199t237 -63q153 -1 252 80t145 294l193 901h256l-193 -917q-50 -248 -164 -381q-170 -197 -522 -199q-230 0 -385 116q-156 115 -156 335zM647 1673l25 133h583l-26 -133h-582z" />
    <glyph glyph-name="umacron" unicode="&#x16b;" horiz-adv-x="1175" 
d="M344 -29q-160 0 -234 76t-75 205q0 83 10 131l141 676h234l-135 -653q-17 -76 -17 -118q0 -132 162 -132q126 0 218 101t118 228l119 574h233l-219 -1059h-219l33 154l-4 4q-63 -88 -159 -138t-206 -49zM375 1276l24 133h584l-27 -133h-581z" />
    <glyph glyph-name="Ubreve" unicode="&#x16c;" horiz-adv-x="1517" 
d="M102 416q0 74 25 196l180 850h256l-188 -895q-10 -49 -17 -118q-4 -137 81 -199t237 -63q153 -1 252 80t145 294l193 901h256l-193 -917q-50 -248 -164 -381q-170 -197 -522 -199q-230 0 -385 116q-156 115 -156 335zM922 1739q86 0 149 39t86 116h115
q-27 -143 -121 -216q-94 -72 -234 -72t-221 75q-82 75 -75 213h114q8 -155 187 -155z" />
    <glyph glyph-name="ubreve" unicode="&#x16d;" horiz-adv-x="1175" 
d="M344 -29q-160 0 -234 76t-75 205q0 83 10 131l141 676h234l-135 -653q-17 -76 -17 -118q0 -132 162 -132q126 0 218 101t118 228l119 574h233l-219 -1059h-219l33 154l-4 4q-63 -88 -159 -138t-206 -49zM899 1281q-94 -73 -233 -73t-222 76t-75 213h114q8 -156 187 -156
q86 0 149 39t86 117h115q-27 -143 -121 -216z" />
    <glyph glyph-name="Uring" unicode="&#x16e;" horiz-adv-x="1517" 
d="M102 416q0 74 25 196l180 850h256l-188 -895q-10 -49 -17 -118q-4 -137 81 -199t237 -63q153 -1 252 80t145 294l193 901h256l-193 -917q-50 -248 -164 -381q-170 -197 -522 -199q-230 0 -385 116q-156 115 -156 335zM794 1896q63 62 150 62t148 -62t61 -150
q0 -87 -64 -149q-64 -61 -147 -61q-90 0 -155 63q-56 54 -56 145q0 90 63 152zM817 1747q0 -53 36 -89t89 -36t89 36t36 89t-36 89t-89 36t-89 -36t-36 -89z" />
    <glyph glyph-name="uring" unicode="&#x16f;" horiz-adv-x="1175" 
d="M344 -29q-160 0 -234 76t-75 205q0 83 10 131l141 676h234l-135 -653q-17 -76 -17 -118q0 -132 162 -132q126 0 218 101t118 228l119 574h233l-219 -1059h-219l33 154l-4 4q-63 -88 -159 -138t-206 -49zM678 1167q-43 -1 -84 17q-127 54 -127 194q0 87 62 149t150 62
t148 -61t61 -150q1 -88 -64 -150q-64 -61 -146 -61zM553 1378q0 -53 36 -89t89 -36t89 36t36 89t-36 89t-89 36t-89 -36t-36 -89z" />
    <glyph glyph-name="Uhungarumlaut" unicode="&#x170;" horiz-adv-x="1517" 
d="M102 416q0 74 25 196l180 850h256l-188 -895q-10 -49 -17 -118q-4 -137 81 -199t237 -63q153 -1 252 80t145 294l193 901h256l-193 -917q-50 -248 -164 -381q-170 -197 -522 -199q-230 0 -385 116q-156 115 -156 335zM1436 1894l-242 -292h-152l138 292h256zM1063 1894
l-242 -292h-151l137 292h256z" />
    <glyph glyph-name="uhungarumlaut" unicode="&#x171;" horiz-adv-x="1175" 
d="M344 -29q-160 0 -234 76t-75 205q0 83 10 131l141 676h234l-135 -653q-17 -76 -17 -118q0 -132 162 -132q126 0 218 101t118 228l119 574h233l-219 -1059h-219l33 154l-4 4q-63 -88 -159 -138t-206 -49zM1161 1497l-241 -293h-152l137 293h256zM788 1497l-241 -293h-152
l137 293h256z" />
    <glyph glyph-name="Uogonek" unicode="&#x172;" horiz-adv-x="1517" 
d="M317 -301q0 51 44.5 116.5t158.5 135.5q16 10 33 18q-300 41 -375.5 186.5t-75.5 239.5t25 217l180 850h256l-188 -895q-33 -161 18 -271t279 -110q158 0 256.5 80.5t144.5 294.5l193 901h256l-193 -917q-50 -248 -186 -407.5t-445 -170.5q-102 -70 -159 -125t-57 -98
q-1 -88 65 -88q56 0 117 68l98 -17q-93 -164 -275 -164q-107 0 -138.5 52.5t-31.5 103.5z" />
    <glyph glyph-name="uogonek" unicode="&#x173;" horiz-adv-x="1175" 
d="M813 0q-258 -169 -258 -257q0 -87 63 -87q53 0 111 68l92 -17q-86 -164 -260 -164q-103 0 -132.5 52.5t-29.5 103.5q0 89 86.5 167.5t194.5 133.5l33 154l-4 4q-63 -88 -158.5 -137.5t-206.5 -49.5q-160 0 -234.5 76t-74.5 205q0 83 10 131l141 676h234l-135 -653
q-6 -27 -11.5 -51.5t-5.5 -42.5q0 -65 26 -110.5t144 -45.5t210 100.5t118 228.5l119 574h233l-219 -1059h-86z" />
    <glyph glyph-name="Wcircumflex" unicode="&#x174;" horiz-adv-x="1896" 
d="M143 1462h263l49 -1118h4l506 1118h252l75 -1118h4l480 1118h262l-680 -1462h-260l-70 1118h-4l-512 -1118h-260zM788 1602l275 292h213l160 -292h-176l-105 184l-178 -184h-189z" />
    <glyph glyph-name="wcircumflex" unicode="&#x175;" horiz-adv-x="1593" 
d="M59 1059h240l63 -764h5l352 764h244l45 -764h6l366 764h246l-551 -1059h-246l-45 772h-4l-352 -772h-244zM541 1204l274 293h213l160 -293h-176l-105 185l-178 -185h-188z" />
    <glyph glyph-name="Ycircumflex" unicode="&#x176;" horiz-adv-x="1290" 
d="M467 580l-361 882h269l252 -663l512 663h303l-723 -903l-115 -559h-256zM459 1602l274 292h213l160 -292h-176l-105 184l-178 -184h-188z" />
    <glyph glyph-name="ycircumflex" unicode="&#x177;" horiz-adv-x="1024" 
d="M14 -225q100 0 140 90l92 170l-187 1024h246l111 -774h4l399 774h250l-606 -1092q-41 -75 -80 -145t-89 -124q-109 -118 -284 -118q-66 0 -141 17l43 194q61 -16 102 -16zM266 1204l275 293h213l159 -293h-176l-104 185l-178 -185h-189z" />
    <glyph glyph-name="Ydieresis" unicode="&#x178;" horiz-adv-x="1290" 
d="M467 580l-361 882h269l252 -663l512 663h303l-723 -903l-115 -559h-256zM1124 1849l-39 -221h-225l39 221h225zM756 1849l-39 -221h-225l38 221h226z" />
    <glyph glyph-name="Zacute" unicode="&#x179;" horiz-adv-x="1290" 
d="M252 1462h1114l-43 -209l-1042 -1032h876l-47 -221h-1196l45 213l1030 1028h-782zM1106 1894l-242 -292h-172l158 292h256z" />
    <glyph glyph-name="zacute" unicode="&#x17a;" horiz-adv-x="985" 
d="M141 1059h850l-39 -170l-698 -705h600l-39 -184h-915l39 172l696 702h-535zM897 1497l-242 -293h-172l158 293h256z" />
    <glyph glyph-name="Zdotaccent" unicode="&#x17b;" horiz-adv-x="1290" 
d="M252 1462h1114l-43 -209l-1042 -1032h876l-47 -221h-1196l45 213l1030 1028h-782zM963 1849l-39 -221h-226l39 221h226z" />
    <glyph glyph-name="zdotaccent" unicode="&#x17c;" horiz-adv-x="985" 
d="M141 1059h850l-39 -170l-698 -705h600l-39 -184h-915l39 172l696 702h-535zM733 1452l-39 -221h-225l39 221h225z" />
    <glyph glyph-name="Zcaron" unicode="&#x17d;" horiz-adv-x="1290" 
d="M252 1462h1114l-43 -209l-1042 -1032h876l-47 -221h-1196l45 213l1030 1028h-782zM532 1894h173l106 -180l190 180h189l-281 -292h-217z" />
    <glyph glyph-name="zcaron" unicode="&#x17e;" horiz-adv-x="985" 
d="M141 1059h850l-39 -170l-698 -705h600l-39 -184h-915l39 172l696 702h-535zM301 1497h172l107 -180l190 180h188l-280 -293h-217z" />
    <glyph glyph-name="florin" unicode="&#x192;" 
d="M76 -164q82 0 121 43t57 117l199 727h-193l45 174h193l69 250q47 172 132 261t282 89q35 0 68.5 -5t68.5 -9l-51 -183q-185 54 -222.5 -45.5t-47.5 -138.5l-58 -219h219l-45 -174h-219l-192 -686q-23 -76 -46.5 -146.5t-73.5 -128.5t-126 -84t-159 -26t-126 10l49 182
q28 -8 56 -8z" />
    <glyph glyph-name="Scommaaccent" unicode="&#x218;" horiz-adv-x="1327" 
d="M608 174q205 0 294 125q32 45 32 107t-30 104q-30 41 -78 69t-111 47q-63 18 -121 34t-127 38q-159 53 -239 172q-44 68 -44 169q0 207 147 332q147 126 398 126q391 0 504 -249q41 -89 37 -218h-246q-2 138 -76 198t-231 60t-242 -99q-35 -41 -35 -105q0 -107 91 -159
q56 -32 174 -62q118 -29 197 -53q288 -87 288 -372q0 -193 -138 -321q-163 -152 -470 -152q-413 0 -522 283q-38 98 -33 235h245q-8 -169 84 -239t252 -70zM418 -102h268l-37 -183q-25 -102 -121 -144q-53 -24 -153 -28l16 78q45 7 70 23t39 51h-123z" />
    <glyph glyph-name="scommaaccent" unicode="&#x219;" horiz-adv-x="1024" 
d="M332 770q0 -37 35 -66t127 -55q240 -69 317 -141q76 -73 77 -177q1 -103 -40 -169q-117 -187 -428 -191q-436 0 -443 369h222q-8 -184 233 -184q149 0 202 76q22 30 22 73q-1 97 -167 141t-227 77q-61 32 -94 64q-68 66 -69 165q-2 171 137 260q117 75 305 75
q412 0 405 -337h-221q-4 153 -213 153q-180 0 -180 -133zM252 -102h268l-37 -183q-25 -102 -121 -144q-53 -24 -153 -28l16 78q45 7 70 23t39 51h-123z" />
    <glyph glyph-name="uni021A" unicode="&#x21a;" horiz-adv-x="1214" 
d="M162 1462h1204l-47 -221h-465l-258 -1241h-256l258 1241h-481zM317 -102h269l-37 -183q-25 -102 -121 -144q-53 -24 -154 -28l17 78q45 7 69 23t39 51h-123z" />
    <glyph glyph-name="uni021B" unicode="&#x21b;" horiz-adv-x="681" 
d="M322 248q0 -74 70 -74q95 0 138 10l-38 -172q-100 -22 -178 -22q-133 0 -179 54q-47 54 -47 134q0 78 14 127l121 580h-184l37 174h184l66 317h227l-66 -317h211l-36 -174h-211l-109 -518q-20 -88 -20 -119zM135 -102h268l-36 -183q-25 -102 -121 -144q-53 -24 -154 -28
l17 78q45 7 69 23t39 51h-123z" />
    <glyph glyph-name="circumflex" unicode="&#x2c6;" horiz-adv-x="493" 
d="M74 1204l274 293h213l160 -293h-176l-105 185l-178 -185h-188z" />
    <glyph glyph-name="caron" unicode="&#x2c7;" horiz-adv-x="493" 
d="M84 1497h172l106 -180l191 180h188l-280 -293h-217z" />
    <glyph glyph-name="uni02C9" unicode="&#x2c9;" horiz-adv-x="493" 
d="M121 1276l24 133h584l-27 -133h-581z" />
    <glyph glyph-name="breve" unicode="&#x2d8;" horiz-adv-x="493" 
d="M653.5 1281q-93.5 -73 -233.5 -73t-222.5 76t-74.5 213h115q8 -156 186 -156q86 0 149.5 39t85.5 117h115q-27 -143 -120.5 -216z" />
    <glyph glyph-name="dotaccent" unicode="&#x2d9;" horiz-adv-x="493" 
d="M563 1452l-39 -221h-225l39 221h225z" />
    <glyph glyph-name="ring" unicode="&#x2da;" horiz-adv-x="493" 
d="M373 1167q-43 0 -84 17.5t-71 46.5t-43 66.5t-13 80.5t16.5 81t46 67.5t67.5 46t81 16.5t81 -16.5t67.5 -46t46 -67.5t16.5 -81t-16.5 -80.5t-46 -66.5t-67.5 -46.5t-81 -17.5zM248 1378.5q0 -53.5 35.5 -89.5t89 -36t89.5 36t36 89.5t-36 89t-89.5 35.5t-89 -35.5
t-35.5 -89z" />
    <glyph glyph-name="ogonek" unicode="&#x2db;" horiz-adv-x="493" 
d="M461 0q-271 -171 -271 -257q0 -87 66 -87q56 0 117 68l98 -17q-93 -164 -274 -164q-109 0 -139.5 52.5t-30.5 103.5q0 90 88.5 166.5t206.5 134.5h139z" />
    <glyph glyph-name="tilde" unicode="&#x2dc;" horiz-adv-x="493" 
d="M575 1229q-41 0 -82.5 15.5t-82.5 33.5t-77 34.5t-66 16.5t-53.5 -33.5t-33.5 -60.5h-121q30 107 80 172.5t129 65.5t168 -48q37 -16 72.5 -32.5t61.5 -16.5q67 0 96 97h118q-14 -93 -54 -145t-77 -75.5t-78 -23.5z" />
    <glyph glyph-name="hungarumlaut" unicode="&#x2dd;" horiz-adv-x="493" 
d="M868 1497l-241 -293h-152l137 293h256zM496 1497l-242 -293h-152l138 293h256z" />
    <glyph glyph-name="uni0394" unicode="&#x394;" horiz-adv-x="1398" 
d="M-160 0l867 1458h225l270 -1458h-1362zM780 1204l-585 -1005h763z" />
    <glyph glyph-name="uni03A9" unicode="&#x3a9;" horiz-adv-x="1550" 
d="M1295.5 500q-142.5 -186 -363.5 -221l-21 -101h385l-39 -178h-552l81 393q183 28 302.5 177.5t119.5 326.5q0 178 -99 279.5t-269 101.5q-220 0 -371.5 -171t-151.5 -381t91.5 -267.5t154.5 -65.5l-82 -393h-536l37 178h364l27 113q-134 37 -210.5 157t-76.5 272
q0 151 61.5 290t166 242.5t243.5 164t279 60.5t247 -39t231 -153.5t124 -356.5t-142.5 -428z" />
    <glyph glyph-name="uni03BC" unicode="&#x3bc;" horiz-adv-x="1175" 
d="M350 -29q-105 0 -147 45l-84 -407h-234l301 1450h234l-135 -653q-6 -27 -11.5 -51.5t-5.5 -42.5q0 -65 26 -110.5t144 -45.5t210 100.5t118 228.5l119 574h233l-219 -1059h-219l33 154l-4 4q-63 -88 -158.5 -137.5t-200.5 -49.5z" />
    <glyph glyph-name="pi" unicode="&#x3c0;" horiz-adv-x="1206" 
d="M885 213q0 -51 63 -51q37 0 92 20l-32 -155q-105 -41 -174 -41t-120.5 30.5t-51.5 106.5q0 36 18 129l115 541h-428l-168 -793h-209l168 793h-144l41 196h1151l-43 -196h-159l-107 -502q-12 -54 -12 -78z" />
    <glyph glyph-name="endash" unicode="&#x2013;" horiz-adv-x="1024" 
d="M-10 668h1026l-43 -222h-1026z" />
    <glyph glyph-name="emdash" unicode="&#x2014;" horiz-adv-x="2048" 
d="M256 668h1518l-43 -222h-1518z" />
    <glyph glyph-name="quoteleft" unicode="&#x2018;" horiz-adv-x="569" 
d="M262 1159q31 137 101 216.5t221 86.5l-25 -119q-82 -10 -115.5 -58t-50.5 -124h154l-58 -276h-284z" />
    <glyph glyph-name="quoteright" unicode="&#x2019;" horiz-adv-x="569" 
d="M274 1462h285l-57 -274q-31 -137 -101 -216.5t-221 -86.5l25 119q82 10 115.5 58t50.5 124h-154z" />
    <glyph glyph-name="quotesinglbase" unicode="&#x201a;" horiz-adv-x="569" 
d="M344 276l-57 -274q-31 -137 -101 -216.5t-221 -86.5l25 119q82 10 115.5 58t50.5 124h-154l57 276h285z" />
    <glyph glyph-name="quotedblleft" unicode="&#x201c;" horiz-adv-x="909" 
d="M211 1159q31 137 101 216.5t220 86.5l-24 -119q-82 -10 -116 -58t-50 -124h154l-58 -276h-284zM614 1159q31 135 78 189.5t103.5 82t140.5 31.5l-25 -119q-82 -10 -115.5 -58t-50.5 -124h154l-57 -276h-285z" />
    <glyph glyph-name="quotedblright" unicode="&#x201d;" horiz-adv-x="909" 
d="M651 1462h285l-57 -274q-31 -135 -78 -189.5t-103.5 -82t-140.5 -31.5l25 119q82 10 115.5 58t50.5 124h-154zM248 1462h284l-57 -274q-31 -137 -78 -190.5t-103 -81t-140 -31.5l24 119q82 10 116 58t50 124h-154z" />
    <glyph glyph-name="quotedblbase" unicode="&#x201e;" horiz-adv-x="909" 
d="M297 276l-57 -274q-31 -135 -78 -189.5t-103.5 -82t-140.5 -31.5l25 119q82 10 115.5 58t50.5 124h-154l57 276h285zM700 276l-57 -274q-31 -137 -78 -190.5t-103 -81t-140 -31.5l24 119q82 10 116 58t50 124h-154l58 276h284z" />
    <glyph glyph-name="dagger" unicode="&#x2020;" 
d="M90 864l41 195h383l86 403h234l-86 -403h393l-41 -195h-391l-248 -1192h-234l248 1192h-385z" />
    <glyph glyph-name="daggerdbl" unicode="&#x2021;" 
d="M467 864h-377l41 195h377l84 403h233l-84 -403h396l-41 -195h-396l-122 -594h391l-39 -194h-393l-84 -404h-234l84 404h-381l41 194h381z" />
    <glyph glyph-name="bullet" unicode="&#x2022;" horiz-adv-x="1024" 
d="M147 731q0 76 29 142.5t78 115.5t115.5 78t142.5 29t142.5 -29t116.5 -78t79 -115.5t29 -142.5t-29 -142.5t-79 -116.5t-116.5 -78.5t-142.5 -28.5t-142.5 28.5t-115.5 78.5t-78 116.5t-29 142.5z" />
    <glyph glyph-name="ellipsis" unicode="&#x2026;" horiz-adv-x="2048" 
d="M104 276h285l-61 -276h-285zM786 276h285l-61 -276h-285zM1468 276h285l-61 -276h-285z" />
    <glyph glyph-name="perthousand" unicode="&#x2030;" horiz-adv-x="2238" 
d="M1346 393q0 -166 -99 -294t-266 -128q-129 0 -191.5 77t-62.5 220t92 274.5t262 131.5q265 0 265 -281zM891 252q0 -158 102 -158t145.5 104.5t43.5 201.5t-36 124t-80 27t-103.5 -58t-71.5 -241zM2071 393q0 -166 -99 -294t-266 -128q-129 0 -191.5 77t-62.5 220
t92 274.5t262 131.5q265 0 265 -281zM1616 252q0 -158 102 -158t145.5 104.5t43.5 201.5t-36 124t-80 27t-103.5 -58t-71.5 -241zM1092 1483h149l-819 -1532h-146zM522 1462q264 0 264 -280q0 -169 -98 -295.5t-266 -126.5q-129 0 -191.5 76.5t-62.5 220.5t92 274.5
t262 130.5zM332 1040q0 -157 102 -157t145.5 104.5t43.5 194.5q0 157 -105 157q-98 0 -138.5 -97.5t-47.5 -201.5z" />
    <glyph glyph-name="guilsinglleft" unicode="&#x2039;" horiz-adv-x="530" 
d="M104 698l363 226l-45 -219l-232 -140l164 -184l-43 -191l-258 283z" />
    <glyph glyph-name="guilsinglright" unicode="&#x203a;" horiz-adv-x="530" 
d="M55 410l232 139l-164 184l43 191l258 -283l-51 -225l-363 -226z" />
    <glyph glyph-name="fraction" unicode="&#x2044;" horiz-adv-x="342" 
d="M520 1483h160l-856 -1532h-162z" />
    <glyph glyph-name="Euro" unicode="&#x20ac;" 
d="M887 1462q192 0 360 -127l-119 -186q-113 131 -252 131t-251 -111q-100 -94 -148 -237h541l-72 -131h-502q-15 -57 -20 -139h473l-70 -130h-411q2 -377 301 -376q166 0 330 135l-33 -228q-152 -90 -322 -90q-256 0 -391 152q-127 150 -125 407h-158l74 130h92
q5 76 21 139h-148l72 131h109q186 530 649 530z" />
    <glyph glyph-name="afii61289" unicode="&#x2113;" horiz-adv-x="1024" 
d="M809 1224q0 114 -80 113q-90 0 -131 -182l-90 -416q196 173 248.5 302t52.5 183zM197 193q0 30 14 95.5t27 127.5l-134 -107h-4l-59 117l233 170l109 512q39 180 137 274.5t217 94.5t181.5 -67t62.5 -161q0 -331 -512 -696q-58 -244 -60.5 -278.5t-2.5 -45.5
q0 -59 30.5 -81.5t67.5 -22.5q84 0 203 82h4l53 -121q-164 -115 -318 -115q-117 0 -183 58.5t-66 163.5z" />
    <glyph glyph-name="trademark" unicode="&#x2122;" horiz-adv-x="2027" 
d="M801 1329h-258v-711h-164v711h-258v133h680v-133zM1907 1462v-844h-154v660h-4l-252 -660h-115l-252 660h-4v-660h-153v844h237l232 -598l229 598h236z" />
    <glyph glyph-name="Omega" unicode="&#x2126;" horiz-adv-x="1550" 
d="M1295.5 500q-142.5 -186 -363.5 -221l-21 -101h385l-39 -178h-552l81 393q183 28 302.5 177.5t119.5 326.5q0 178 -99 279.5t-269 101.5q-220 0 -371.5 -171t-151.5 -381t91.5 -267.5t154.5 -65.5l-82 -393h-536l37 178h364l27 113q-134 37 -210.5 157t-76.5 272
q0 151 61.5 290t166 242.5t243.5 164t279 60.5t247 -39t231 -153.5t124 -356.5t-142.5 -428z" />
    <glyph glyph-name="estimated" unicode="&#x212e;" horiz-adv-x="1228" 
d="M918 604v297q-129 123 -301.5 123t-294.5 -123v-297h596zM322 530v-370q121 -121 296 -121q129 0 223.5 58.5t172.5 187.5l71 -43q-96 -151 -202 -214t-246 -63t-237 44t-166.5 121t-106.5 179.5t-37 284t146.5 342t382.5 160.5q235 0 382.5 -159t147.5 -407h-827z" />
    <glyph glyph-name="partialdiff" unicode="&#x2202;" horiz-adv-x="1122" 
d="M463 1477q133 0 329.5 -122t196.5 -620q0 -320 -114.5 -540t-401.5 -220q-198 0 -320 132.5t-122 329.5q0 196 120 324t298 128q179 0 317 -119l2 61q5 179 -74 327.5t-258 148.5q-103 0 -231 -99l-117 135q84 66 163 100t212 34zM762 588q-115 137 -250 137t-202.5 -84
t-67.5 -213q0 -194 89 -241.5t157 -47.5t122 39t106.5 130.5t47.5 232.5z" />
    <glyph glyph-name="Delta" unicode="&#x2206;" horiz-adv-x="1398" 
d="M-160 0l867 1458h225l270 -1458h-1362zM780 1204l-585 -1005h763z" />
    <glyph glyph-name="product" unicode="&#x220f;" horiz-adv-x="1509" 
d="M1159 -438v1847h-811v-1847h-219v2048h1251v-2048h-221z" />
    <glyph glyph-name="summation" unicode="&#x2211;" horiz-adv-x="1316" 
d="M51 -438v176l627 858l-600 842v172h1161v-201h-868l571 -811l-608 -838h932v-198h-1215z" />
    <glyph glyph-name="minus" unicode="&#x2212;" horiz-adv-x="1228" 
d="M98 414v209h1032v-209h-1032z" />
    <glyph glyph-name="uni2215" unicode="&#x2215;" horiz-adv-x="342" 
d="M520 1483h160l-856 -1532h-162z" />
    <glyph glyph-name="uni2219" unicode="&#x2219;" horiz-adv-x="569" 
d="M131 603q0 46 12.5 72.5t34 48t49 34t73.5 12.5t92 -46t46 -106t-45 -107.5t-108.5 -47.5t-108.5 47t-45 93z" />
    <glyph glyph-name="radical" unicode="&#x221a;" horiz-adv-x="1087" 
d="M629 -438h-207l-316 653l-102 -47l-80 174l291 133l272 -575l349 1710h225z" />
    <glyph glyph-name="infinity" unicode="&#x221e;" horiz-adv-x="1650" 
d="M14 529q0 156 90.5 260t252.5 104t257 -97.5t136 -144.5q102 118 194 181t186 63q171 0 262 -102.5t91 -259.5t-92 -260t-246 -103q-193 0 -395 229q-43 -43 -136 -134t-240 -91q-170 0 -265 99.5t-95 255.5zM1149 358q76 0 117 50t41 124t-43 124.5t-132 50.5t-120 -31
l-150 -150q156 -168 287 -168zM348 705q-74 0 -116 -52.5t-42 -125.5t44.5 -120t134.5 -47t166.5 69.5t101.5 98.5q-177 177 -289 177z" />
    <glyph glyph-name="integral" unicode="&#x222b;" horiz-adv-x="1228" 
d="M465 1067q0 82 1 177t43.5 230.5t246.5 135.5q79 0 147 -39.5t68 -110.5q0 -43 -31 -71.5t-75 -28.5t-64.5 20.5t-31.5 46t-21 46t-32 20.5q-34 0 -34 -66l4 -272l2 -1073q0 -80 -3 -171t-47 -220t-239 -129q-128 0 -168.5 54t-40.5 95t27 70t71 29t65.5 -21.5
t32.5 -47.5t19.5 -47.5t39.5 -21.5t28.5 45t-2.5 56l-6 198v1096z" />
    <glyph glyph-name="approxequal" unicode="&#x2248;" horiz-adv-x="1214" 
d="M852.5 774q80.5 0 108.5 135h139q-21 -233 -121.5 -287.5t-168.5 -54.5t-142 22.5t-145.5 48.5t-136 48.5t-116.5 22.5t-84 -44t-43 -98h-139q22 233 122 288.5t168 55.5t137 -21.5t138.5 -47t136 -47t147 -21.5zM808 152q-68 0 -142 22.5t-147 48t-137.5 48t-116.5 22.5
t-85 -44t-41 -97h-139q22 229 121.5 286.5t169.5 57.5t138.5 -21.5t136 -47.5t134 -47.5t126.5 -21.5t91 41t41 95h140q-21 -235 -121.5 -288.5t-168.5 -53.5z" />
    <glyph glyph-name="notequal" unicode="&#x2260;" horiz-adv-x="1214" 
d="M18 203v209h357l123 239h-480v207h584l160 311l180 -92l-111 -219h250v-207h-356l-123 -239h479v-209h-583l-158 -312l-182 95l110 217h-250z" />
    <glyph glyph-name="lessequal" unicode="&#x2264;" horiz-adv-x="1214" 
d="M18 557v211l1063 367v-220l-780 -251l780 -240v-219zM18 -72v207h1063v-207h-1063z" />
    <glyph glyph-name="greaterequal" unicode="&#x2265;" horiz-adv-x="1214" 
d="M18 205v219l781 240l-781 251v220l1063 -367v-211zM18 -72v207h1063v-207h-1063z" />
    <glyph glyph-name="lozenge" unicode="&#x25ca;" horiz-adv-x="1214" 
d="M702 -72h-194l-361 801l361 801h194l363 -801zM604 1323l-244 -594l244 -596l250 596z" />
    <glyph glyph-name="uniF8FF" unicode="&#xf8ff;" horiz-adv-x="1048" 
d="M1049 1470v-1470h-1049v1470h1049zM946 102v1264h-844v-1264h844zM680 988q0 56 -46 106.5t-109.5 50.5t-109.5 -45t-59 -150l-102 17q14 145 90 212.5t186 67.5t182 -73.5t72 -194.5q0 -66 -25.5 -120t-102.5 -124t-89 -108.5t-12 -147.5h-94l-4 35q0 113 26.5 165.5
t93.5 118.5t85 100t18 90zM455 240v137h114v-137h-114z" />
    <glyph glyph-name="dotlessj" horiz-adv-x="493" 
d="M-163 -236q71 0 93.5 59.5t36.5 133.5l228 1102h233l-223 -1075q-29 -139 -55 -209q-45 -106 -113 -150.5t-160 -44.5t-149 12l41 187q24 -15 68 -15z" />
    <glyph glyph-name="grave.cap" horiz-adv-x="493" 
d="M379 1602l-242 292h256l158 -292h-172z" />
    <glyph glyph-name="acute.cap" horiz-adv-x="493" 
d="M702 1894l-241 -292h-172l157 292h256z" />
    <glyph glyph-name="circumflex.cap" horiz-adv-x="493" 
d="M74 1602l274 292h213l160 -292h-176l-105 184l-178 -184h-188z" />
    <glyph glyph-name="caron.cap" horiz-adv-x="493" 
d="M84 1894h172l106 -180l191 180h188l-280 -292h-217z" />
    <glyph glyph-name="caron.alt" horiz-adv-x="493" 
d="M674 1462l-209 -293h-156l117 293h248z" />
    <glyph glyph-name="tilde.cap" horiz-adv-x="493" 
d="M578 1774q56 0 88 96h118q-14 -93 -72 -168.5t-141 -75.5q-55 0 -128.5 35t-109.5 50t-66 15t-53.5 -33.5t-33.5 -60.5h-121q30 107 80 172.5t128 65.5t169 -47q37 -16 72 -32.5t70 -16.5z" />
    <glyph glyph-name="dieresis.cap" horiz-adv-x="493" 
d="M750 1849l-39 -221h-226l39 221h226zM381 1849l-39 -221h-225l39 221h225z" />
    <glyph glyph-name="macron.cap" horiz-adv-x="493" 
d="M121 1673l24 133h584l-27 -133h-581z" />
    <glyph glyph-name="breve.cap" horiz-adv-x="493" 
d="M378 1739q132 0 195.5 39t85.5 116h115q-27 -143 -121 -215.5t-235 -72.5q-216 0 -257.5 108.5t-37.5 179.5h115q8 -155 140 -155z" />
    <glyph glyph-name="ring.cap" horiz-adv-x="493" 
d="M219 1599.5q-65 63.5 -57 147.5q0 86 62.5 148.5t148.5 62.5t148.5 -62.5t62.5 -149t-64 -148.5t-150 -62t-151 63.5zM248 1747q0 -53 35.5 -89t89 -36t89.5 36t36 89t-36 89t-89.5 36t-89 -36t-35.5 -89z" />
    <glyph glyph-name="hungarumlaut.cap" horiz-adv-x="493" 
d="M868 1894l-241 -292h-152l137 292h256zM496 1894l-242 -292h-152l138 292h256z" />
    <glyph glyph-name="dotaccent.cap" horiz-adv-x="493" 
d="M563 1849l-39 -221h-225l39 221h225z" />
    <glyph glyph-name="commaaccent" horiz-adv-x="569" 
d="M74 -102h268l-37 -183q-25 -103 -99.5 -135.5t-174.5 -36.5l16 78q45 6 69.5 22.5t39.5 51.5h-123z" />
    <glyph glyph-name="commaaccent.alt" horiz-adv-x="569" 
d="M446 1260h-268l37 182q29 119 153 153q48 14 121 19l-16 -78q-45 -6 -70 -22t-38 -52h122z" />
    <glyph glyph-name="commaaccenttwo" horiz-adv-x="569" 
d="M446 1260h-268l37 182q25 102 99.5 135t174.5 37l-16 -78q-45 -6 -69.5 -22.5t-38.5 -51.5h122z" />
    <glyph glyph-name="carontwo" horiz-adv-x="493" 
d="M674 1462l-209 -293h-156l117 293h248z" />
    </font>
</defs>
</svg>
