<?xml version="1.0" standalone="no"?>
<!DOCTYPE svg PUBLIC "-//W3C//DTD SVG 1.1//EN" "http://www.w3.org/Graphics/SVG/1.1/DTD/svg11.dtd" >
<svg xmlns="http://www.w3.org/2000/svg">
<metadata>
Created by FontPrep 20130207 at Sat Jun 27 00:37:33 2015
 By Rezki Bangsawan
Part of the digitally encoded machine readable outline data for producing the Typefaces provided is copyrighted (c) 2006 Linotype GmbH, www.linotype.com. All rights reserved. This software is the property of Linotype GmbH, and may not be reproduced, used, displayed, modified, disclosed or transferred without the express written approval of Linotype GmbH.  Copyright (c) 1988, 1990, 1993 Adobe Systems Incorporated. All Rights Reserved. Helvetica is a trademark of Heidelberger Druckmaschinen AG, exclusively licensed through Linotype GmbH, and may be registered in certain jurisdictions. This typeface is original artwork of Linotype Design Studio. The design may be protected in certain jurisdictions.
</metadata>
<defs>
<font id="e817bac80c1c82582d2752a4761aef64" horiz-adv-x='1024' >
  <font-face 
    font-family="HelveticaNeueLTCom-UltLtIt"
    font-weight="275"
    font-style="italic"
    font-stretch="normal"
    units-per-em="2048"
    panose-1="2 11 3 3 2 2 2 9 2 4"
    ascent="1462"
    descent="-586"
    x-height="1053"
    cap-height="1462"
    bbox="-367 -449 2169 1937"
    underline-thickness="102"
    underline-position="-102"
    slope="-12"
    unicode-range="U+000D-FB02"
  />
<missing-glyph horiz-adv-x="1048" 
d="M1049 1470v-1470h-1049v1470h1049zM946 102v1264h-844v-1264h844zM680 988q0 56 -46 106.5t-109.5 50.5t-109.5 -45t-59 -150l-102 17q14 145 90 212.5t186 67.5t182 -73.5t72 -194.5q0 -66 -25.5 -120t-102.5 -124t-89 -108.5t-12 -147.5h-94l-4 35q0 113 26.5 165.5
t93.5 118.5t85 100t18 90zM455 240v137h114v-137h-114z" />
    <glyph glyph-name="IJ" unicode="IJ" horiz-adv-x="1304" 
d="M-14 0l313 1462h41l-313 -1462h-41zM354 295q0 -145 92 -217t244 -72q250 0 337 237q26 71 44 154l227 1065h43l-231 -1083q-42 -192 -116 -282q-109 -132 -302 -132q-192 0 -285 91t-94 239q0 96 19 156h41q-19 -102 -19 -156z" />
    <glyph glyph-name="ij" unicode="ij" horiz-adv-x="591" 
d="M2 0h-45l225 1053h45zM264 1462h45l-47 -213h-45zM32 -324q19 0 55 -1t70 24t57 64t52 165l242 1125h45l-246 -1141q-31 -140 -61 -185q-62 -91 -178 -89q-42 0 -84 4l6 36q23 -2 42 -2zM590 1462h45l-47 -213h-45z" />
    <glyph glyph-name="napostrophe" unicode="&#x22;n" horiz-adv-x="1083" 
d="M668 1077q219 0 286 -164q23 -53 23 -114t-25 -174l-131 -625h-43l133 635q9 39 17 78t8 78q-2 123 -77 184t-191 61t-202 -49q-222 -128 -298 -502l-105 -485h-43l228 1053h43l-53 -250l4 -4q72 129 172 203t254 75zM383 1618l-33 -160q-26 -114 -145 -125l8 33
q51 10 71 38q19 28 27 66l31 148h41z" />
    <glyph glyph-name="fi" unicode="fi" horiz-adv-x="681" 
d="M520 1462q27 0 51.5 -1t53.5 -1l-9 -41q-23 2 -28 2h-68q-118 0 -155 -73.5t-46.5 -120.5t-19.5 -82l-23 -92h226l-10 -41h-226l-223 -1012h-43l223 1012h-184l10 41h184l25 92q28 138 73.5 227.5t188.5 89.5zM418 0h-45l225 1053h45zM680 1462h45l-47 -213h-45z" />
    <glyph glyph-name="fl" unicode="fl" horiz-adv-x="681" 
d="M520 1462q27 0 51.5 -1t53.5 -1l-9 -41q-23 2 -28 2h-68q-118 0 -155 -73.5t-46.5 -120.5t-19.5 -82l-23 -92h226l-10 -41h-226l-223 -1012h-43l223 1012h-184l10 41h184l25 92q28 138 73.5 227.5t188.5 89.5zM373 0l307 1462h45l-307 -1462h-45z" />
    <glyph glyph-name=".notdef" horiz-adv-x="1048" 
d="M1049 1470v-1470h-1049v1470h1049zM946 102v1264h-844v-1264h844zM680 988q0 56 -46 106.5t-109.5 50.5t-109.5 -45t-59 -150l-102 17q14 145 90 212.5t186 67.5t182 -73.5t72 -194.5q0 -66 -25.5 -120t-102.5 -124t-89 -108.5t-12 -147.5h-94l-4 35q0 113 26.5 165.5
t93.5 118.5t85 100t18 90zM455 240v137h114v-137h-114z" />
    <glyph glyph-name=".null" 
 />
    <glyph glyph-name=".null" 
 />
    <glyph glyph-name="nonmarkingreturn" unicode="&#xd;" horiz-adv-x="0" 
 />
    <glyph glyph-name="space" unicode=" " horiz-adv-x="569" 
 />
    <glyph glyph-name="exclam" unicode="!" horiz-adv-x="378" 
d="M57 201h43l-45 -201h-43zM334 1462h43l-242 -1089h-43z" />
    <glyph glyph-name="quotedbl" unicode="&#x22;" horiz-adv-x="569" 
d="M299 1462v-461h-41v461h41zM528 1462v-461h-41v461h41z" />
    <glyph glyph-name="numbersign" unicode="#" horiz-adv-x="1138" 
d="M1067 913v-41h-248l-49 -362h240v-41h-248l-64 -469h-41l64 469h-352l-64 -469h-41l64 469h-256v41h266l49 362h-258v41h268l64 480h41l-64 -480h350l64 480h41l-64 -480h238zM379 510h350l49 362h-350z" />
    <glyph glyph-name="dollar" unicode="$" horiz-adv-x="1138" 
d="M472 8h40q169 0 325 93t156 292q4 149 -80 201.5t-157.5 76t-159.5 50.5l-164 -709q20 -4 40 -4zM721 1456q-82 9 -183.5 -15t-208 -95.5t-110.5 -242.5t131 -245q59 -33 107.5 -49t107.5 -35zM-33 454q0 16 2 31h41q-2 -12 -2 -27v-36q-4 -167 99 -272t284 -132l166 713
q-76 25 -230 81.5t-150 268.5t152.5 314t354.5 102h18q19 0 29 -2l33 143h41l-33 -145q293 -26 349.5 -164.5t56.5 -236.5v-23q0 -10 -2 -25h-41q2 14 2 26v24q0 169 -99.5 258t-275.5 102l-158 -692q35 -12 151 -44.5t198.5 -109t81.5 -206.5q-2 -225 -164 -332t-359 -107
h-45q-20 0 -43 4l-47 -198h-41l47 204q-294 38 -356 194.5t-60 256.5v30z" />
    <glyph glyph-name="percent" unicode="%" horiz-adv-x="1402" 
d="M372 727q-129 0 -207.5 74t-78.5 190q0 172 96.5 299t259.5 127q125 0 200 -68.5t75 -215.5t-71 -239.5t-137.5 -129.5t-136.5 -37zM345 768q153 0 242 113.5t89 261.5q0 104 -55.5 168.5t-190.5 64.5t-219 -116t-84 -269q0 -102 66.5 -162.5t151.5 -60.5zM972 -25
q-129 0 -207.5 74t-78.5 191q0 171 96.5 298.5t259.5 127.5q125 0 200 -69t75 -216t-70.5 -239.5t-137.5 -129.5t-137 -37zM945 16q151 0 241 113.5t90 261.5q0 104 -55.5 169t-190.5 65t-219 -116.5t-84 -268.5q0 -102 66.5 -163t151.5 -61zM1149 1462h47l-975 -1532h-47z
" />
    <glyph glyph-name="ampersand" unicode="&#x26;" horiz-adv-x="1175" 
d="M167.5 93q97.5 -87 239.5 -87t249.5 73t177.5 185l-328 500q-72 -39 -148.5 -77t-182 -118t-105.5 -235q0 -154 97.5 -241zM671.5 37.5q-104.5 -72.5 -262.5 -72.5t-269 95.5t-111 258.5q0 255 187 347t267 131q-18 33 -43.5 72.5t-64.5 114t-39 142.5q0 128 87.5 209.5
t214.5 81.5t213.5 -68.5t86.5 -189.5q0 -169 -166 -258.5t-227 -120.5l311 -477q58 115 96 258h41q-21 -134 -108 -293l174 -268h-51l-148 227q-84 -117 -188.5 -189.5zM824 1317.5q-73 58.5 -181 58.5q-171 0 -218.5 -91t-47.5 -139t13 -87t34.5 -80t47.5 -83t50 -81
q53 27 119 60.5t161 105t95 174.5q0 104 -73 162.5z" />
    <glyph glyph-name="quotesingle" unicode="'" horiz-adv-x="342" 
d="M299 1462v-461h-41v461h41z" />
    <glyph glyph-name="parenleft" unicode="(" horiz-adv-x="454" 
d="M129 195q0 -229 86 -557h-41q-86 314 -86 557q0 754 453 1302h51q-463 -558 -463 -1302z" />
    <glyph glyph-name="parenright" unicode=")" horiz-adv-x="454" 
d="M285 940q0 154 -27 292t-59 265h41q86 -314 86 -557q0 -752 -453 -1302h-51q463 558 463 1302z" />
    <glyph glyph-name="asterisk" unicode="*" horiz-adv-x="720" 
d="M190 936l203 205l-227 133l24 33l226 -131l47 286h41l-47 -293l272 99l12 -39l-272 -99l158 -208l-31 -29l-170 225l-207 -211z" />
    <glyph glyph-name="plus" unicode="+" horiz-adv-x="1228" 
d="M594 498h-496v41h496v497h41v-497h495v-41h-495v-498h-41v498z" />
    <glyph glyph-name="comma" unicode="," horiz-adv-x="569" 
d="M227 201l-59 -269q-38 -151 -152 -192l9 53q53 29 73.5 71t30.5 89l55 248h43z" />
    <glyph glyph-name="hyphen" unicode="-" horiz-adv-x="681" 
d="M121 569h377l-9 -41h-376z" />
    <glyph glyph-name="period" unicode="." horiz-adv-x="569" 
d="M139 0l45 201h43l-45 -201h-43z" />
    <glyph glyph-name="slash" unicode="/" horiz-adv-x="681" 
d="M-14 -35l669 1532h41l-669 -1532h-41z" />
    <glyph glyph-name="zero" unicode="0" horiz-adv-x="1138" 
d="M1057 937q0 439 -400 439q-197 0 -325.5 -153.5t-191 -371t-62.5 -404.5q0 -188 95.5 -309.5t292.5 -121.5t360.5 180t197 415t33.5 326zM1098 939q0 -99 -15.5 -207.5t-69.5 -282t-198 -324t-353 -150.5q-208 0 -316.5 131.5t-108.5 335.5q0 329 122.5 582t254.5 323
t248 70t200 -37t136.5 -101.5t76 -152.5t23.5 -187z" />
    <glyph glyph-name="one" unicode="1" horiz-adv-x="1138" 
d="M457 0l293 1348l-5 4q-209 -214 -434 -267l13 45q125 31 226 104t193 159h60l-303 -1393h-43z" />
    <glyph glyph-name="two" unicode="2" horiz-adv-x="1138" 
d="M1028 1063q0 162 -102 237.5t-254 75.5q-195 0 -313.5 -118.5t-122.5 -305.5h-41q12 215 139 340t338 125q172 0 284.5 -87t112.5 -257q0 -171 -128.5 -285.5t-373 -240t-337.5 -197t-148 -144.5t-72 -165h887l-8 -41h-928q20 259 240.5 391t380 211.5t244.5 143
t143.5 145.5t58.5 172z" />
    <glyph glyph-name="three" unicode="3" horiz-adv-x="1138" 
d="M68 343q0 -153 113 -240t294 -87t319 103t138 286t-131.5 252.5t-313.5 59.5l11 39q233 0 386.5 58.5t153.5 237t-102.5 251.5t-274.5 73q-171 0 -280 -102.5t-139 -280.5h-41q29 195 150.5 309.5t326.5 114.5q273 0 337 -125t64 -249t-100.5 -210.5t-271.5 -99.5v-4
q117 -12 189.5 -98.5t74.5 -202.5q4 -216 -143.5 -334.5t-351.5 -118.5t-326.5 98.5t-122.5 274.5q0 65 8 123h43q-10 -51 -10 -128z" />
    <glyph glyph-name="four" unicode="4" horiz-adv-x="1138" 
d="M918 1317l-5 4l-845 -915h657zM8 365l8 45l912 983h47l-205 -987h248l-6 -41h-248l-76 -365h-45l76 365h-711z" />
    <glyph glyph-name="five" unicode="5" horiz-adv-x="1138" 
d="M100 326q0 -142 100.5 -226t270.5 -84q230 0 358.5 152.5t128.5 378.5q0 160 -106.5 256t-276.5 96q-111 0 -213 -49t-167 -143h-58l258 686h731l-12 -41h-690l-191 -508l-32 -74l4 -4q57 84 157.5 129t200.5 45q196 0 316 -105.5t120 -287.5q0 -250 -143 -411t-385 -161
q-186 0 -299 96.5t-113 268.5q0 35 7 96h40q-6 -44 -6 -110z" />
    <glyph glyph-name="six" unicode="6" horiz-adv-x="1138" 
d="M706 1376q-280 0 -377.5 -170.5t-118.5 -236.5q-52 -164 -85 -328h4q52 131 172.5 212t292.5 81t294 -116.5t122 -301.5q0 -233 -138 -387t-364 -154q-327 0 -382.5 176.5t-55.5 292.5q0 207 95 519q95 311 265 382.5t268 71.5q190 0 301.5 -96t96.5 -268h-41
q19 147 -82 235t-267 88zM859 788.5q-110 104.5 -297 104.5q-188 0 -319.5 -140t-131.5 -334q0 -193 103 -298t303 -105t326 142.5t126 334.5q0 191 -110 295.5z" />
    <glyph glyph-name="seven" unicode="7" horiz-adv-x="1138" 
d="M262 1393h881l-13 -45q-297 -291 -519 -621t-353 -727h-45q129 387 352 729t516 623h-825z" />
    <glyph glyph-name="eight" unicode="8" horiz-adv-x="1138" 
d="M931 1310q-116 66 -272 66q-288 0 -349.5 -114.5t-61.5 -197.5q0 -151 112.5 -223.5t274.5 -72.5t287 86t125 238t-116 218zM836 642.5q-129 84.5 -316 84.5t-326 -96t-139 -283q7 -171 137 -251.5t332 -80.5t321.5 99.5t119.5 270.5q0 172 -129 256.5zM157.5 70
q-143.5 95 -143.5 280q0 184 123 289.5t320 118.5v4q-113 23 -181.5 99.5t-68.5 186.5q0 195 126 282t326 87q287 0 357.5 -116.5t70.5 -216.5t-49 -169t-113.5 -109t-129 -54.5t-93.5 -14.5v-4q139 -25 221.5 -115t82.5 -220t-43 -206.5t-142.5 -146.5t-309.5 -70
t-353.5 95z" />
    <glyph glyph-name="nine" unicode="9" horiz-adv-x="1138" 
d="M924.5 1271.5q-103.5 104.5 -303.5 104.5t-325.5 -142t-125.5 -357q0 -171 110.5 -274t297.5 -103t318.5 140t131.5 334q0 193 -103.5 297.5zM1016 766q-53 -142 -176 -224.5t-297 -82.5t-294 117t-120 301q0 234 138.5 387t363.5 153q327 0 382.5 -176.5t55.5 -292.5
q0 -206 -95 -517q-95 -312 -264.5 -384t-267.5 -72q-191 0 -302.5 97t-96.5 268h41q-19 -148 81.5 -236t286.5 -88q104 0 195.5 50.5t178.5 153.5t130 279.5t51.5 212.5t12.5 50z" />
    <glyph glyph-name="colon" unicode=":" horiz-adv-x="569" 
d="M317 807l45 201h44l-46 -201h-43zM139 0l45 201h43l-45 -201h-43z" />
    <glyph glyph-name="semicolon" unicode=";" horiz-adv-x="569" 
d="M227 201l-59 -269q-38 -151 -152 -192l9 53q53 29 73.5 71t30.5 89l55 248h43zM317 807l45 201h44l-46 -201h-43z" />
    <glyph glyph-name="less" unicode="&#x3c;" horiz-adv-x="1228" 
d="M1135 -16l-1041 510v49l1041 510v-43l-1004 -492l1004 -491v-43z" />
    <glyph glyph-name="equal" unicode="=" horiz-adv-x="1228" 
d="M98 696v41h1032v-41h-1032zM98 299v41h1032v-41h-1032z" />
    <glyph glyph-name="greater" unicode="&#x3e;" horiz-adv-x="1228" 
d="M1098 518l-1004 492v43l1041 -510v-49l-1041 -510v43z" />
    <glyph glyph-name="question" unicode="?" 
d="M892.5 1409q106.5 -88 106.5 -246q0 -201 -115.5 -284.5t-170.5 -118.5q-125 -80 -170 -128t-70 -159l-24 -102h-43l26 108q40 175 123 229t143 91q137 85 198.5 162.5t61.5 201.5q0 216 -136 254.5t-221 38.5q-172 0 -276.5 -121.5t-117.5 -320.5h-41q12 214 129 348.5
t304 134.5t293.5 -88zM328 0l45 201h43l-45 -201h-43z" />
    <glyph glyph-name="at" unicode="@" horiz-adv-x="1638" 
d="M438 582q0 -123 70 -197t172 -74t185 56t134 190l146 377q-25 95 -102 139.5t-171 44.5t-175 -54t-138 -136t-89 -179t-32 -167zM397 552q0 109 35 213.5t98.5 193t153.5 144.5t192 56t181.5 -46t105.5 -128h4l50 135h43l-228 -590q-88 -219 51 -219q63 0 133 41
t167.5 159.5t97.5 330.5q0 253 -176 414t-460 161t-485.5 -201.5t-201.5 -507.5q0 -158 56 -290.5t201 -267t443 -134.5q178 0 336.5 90.5t257.5 233.5h47q-98 -165 -277.5 -265t-339.5 -100q-326 0 -545.5 192t-219.5 556q0 315 159.5 470t295 210t279.5 55
q289 0 480 -169.5t191 -446.5q0 -227 -105.5 -354.5t-185 -172.5t-145.5 -45t-102 36t-26 93h-4q-94 -129 -278 -129q-119 0 -199 86.5t-80 195.5z" />
    <glyph glyph-name="A" unicode="A" horiz-adv-x="1175" 
d="M932 522l-162 883h-4l-551 -883h717zM938 481h-750l-301 -481h-45l916 1462h41l270 -1462h-41z" />
    <glyph glyph-name="B" unicode="B" horiz-adv-x="1251" 
d="M653 41q174 0 314.5 98t140.5 293t-110.5 252t-305.5 57h-508l-149 -700h618zM862 1462q148 0 219.5 -41t111.5 -106.5t40 -166.5q0 -179 -108 -274.5t-251 -109.5v-4q141 -12 208 -96t67 -205q0 -223 -140.5 -341t-379.5 -118h-643l309 1462h567zM1192 1137
q0 284 -318 284h-542l-142 -639h529q215 0 344 94t129 261z" />
    <glyph glyph-name="C" unicode="C" horiz-adv-x="1402" 
d="M68 559q0 170 51 338t150.5 300t248 215t357.5 84t368.5 -128.5t159.5 -345.5h-41q0 196 -151 315t-342 119t-330.5 -76.5t-234.5 -202.5t-145 -288.5t-50 -314.5q0 -282 146.5 -425t378.5 -143t406.5 136.5t245.5 373.5h41q-62 -243 -251.5 -397t-445.5 -154
q-260 0 -411 161t-151 433z" />
    <glyph glyph-name="D" unicode="D" horiz-adv-x="1366" 
d="M438 41q222 0 311 29.5t153.5 72.5t120.5 103q104 112 168 282t64 357q0 188 -53 294.5t-141 161t-205 67.5t-242 13h-274l-303 -1380h401zM614 1462q199 0 336.5 -30t241.5 -153.5t104 -392.5t-108.5 -473t-251.5 -297.5t-273.5 -104.5t-224.5 -11h-452l321 1462h307z
" />
    <glyph glyph-name="E" unicode="E" horiz-adv-x="1062" 
d="M952 41l-10 -41h-962l313 1462h928l-9 -41h-886l-138 -639h828l-8 -41h-830l-149 -700h923z" />
    <glyph glyph-name="F" unicode="F" horiz-adv-x="985" 
d="M952 741h-772l-160 -741h-40l313 1462h893l-8 -41h-852l-138 -639h770z" />
    <glyph glyph-name="G" unicode="G" horiz-adv-x="1478" 
d="M109 566q0 -173 107 -360.5t443 -199.5q281 4 450 179t234 458h-567l8 41h605l-146 -684h-41l43 203l51 198l-4 5q-92 -213 -245.5 -325t-387.5 -116q-131 4 -245.5 41t-196.5 133q-153 180 -149 432q0 180 52 348t153.5 297.5t251 206t343.5 74.5q231 4 378 -120
t167 -353h-41q-23 221 -157 328.5t-347 103.5q-184 2 -326.5 -72.5t-238.5 -199.5t-145 -285t-49 -333z" />
    <glyph glyph-name="H" unicode="H" horiz-adv-x="1327" 
d="M1176 782l147 680h41l-313 -1462h-41l157 741h-981l-159 -741h-41l313 1462h41l-145 -680h981z" />
    <glyph glyph-name="I" unicode="I" horiz-adv-x="303" 
d="M-14 0l313 1462h41l-313 -1462h-41z" />
    <glyph glyph-name="J" unicode="J" horiz-adv-x="948" 
d="M-2 295q0 -145 92 -217t244 -72q251 0 306.5 153.5t74.5 237.5l227 1065h43l-231 -1083q-41 -190 -133 -302t-284 -112q-193 0 -286.5 91t-93.5 239q0 93 18 156h41q-18 -97 -18 -156z" />
    <glyph glyph-name="K" unicode="K" horiz-adv-x="1214" 
d="M141 537l-114 -537h-41l311 1462h41l-184 -868l1179 868h68l-852 -628l598 -834h-49l-582 809z" />
    <glyph glyph-name="L" unicode="L" horiz-adv-x="985" 
d="M883 41l-11 -41h-886l313 1462h43l-305 -1421h846z" />
    <glyph glyph-name="M" unicode="M" horiz-adv-x="1630" 
d="M295 1462h61l320 -1417h4l922 1417h65l-311 -1462h-43l299 1399l-4 4l-910 -1403h-53l-315 1403h-4l-297 -1403h-43z" />
    <glyph glyph-name="N" unicode="N" horiz-adv-x="1366" 
d="M1034 0l-704 1415h-4l-297 -1415h-43l311 1462h55l705 -1415h4l299 1415h43l-313 -1462h-56z" />
    <glyph glyph-name="O" unicode="O" horiz-adv-x="1478" 
d="M1427 872q0 -156 -51 -320.5t-149.5 -295.5t-242.5 -211t-308 -80q-303 0 -455.5 164.5t-152.5 443.5q0 172 50 337t148.5 296t242.5 211t308 80t272.5 -43t184.5 -122t114.5 -191.5t38.5 -268.5zM1386 874q0 280 -141.5 431t-402.5 151q-178 0 -315.5 -78t-229.5 -202.5
t-140 -283t-48 -302.5q0 -274 145 -429t399 -155q176 0 313.5 78t230.5 203t141 284t48 303z" />
    <glyph glyph-name="P" unicode="P" horiz-adv-x="1175" 
d="M678 707q352 0 424 155.5t72 253.5q0 173 -98.5 239t-241.5 66h-512l-154 -714h510zM842 1462q193 0 282.5 -95t89.5 -247q0 -293 -188 -373.5t-360 -80.5h-504l-144 -666h-43l314 1462h553z" />
    <glyph glyph-name="Q" unicode="Q" horiz-adv-x="1478" 
d="M68 573q0 172 50 337t148.5 296t242.5 211t308 80q298 0 454 -162t156 -446q0 -355 -129 -534t-213 -242l205 -185l-28 -30l-213 190q-171 -123 -396 -123q-280 0 -432.5 164.5t-152.5 443.5zM1244.5 1304.5q-141.5 151.5 -402.5 151.5q-178 0 -315.5 -78t-229.5 -202.5
t-140 -283t-48 -302.5q0 -274 145 -429t399 -155q207 0 363 111l-217 196l30 31l224 -203q159 118 246 324t87 447t-141.5 392.5z" />
    <glyph glyph-name="R" unicode="R" horiz-adv-x="1214" 
d="M672 727q192 0 293.5 50t158 127.5t58.5 195.5t-33 178.5t-101.5 101.5t-207.5 41h-512l-146 -694h490zM854 1462q247 0 309 -119t60 -221q-4 -194 -122 -307t-304 -117v-4q225 -32 221 -303q-4 -100 -6 -215t18 -176h-41q-32 89 -12 391q4 167 -89 231t-216 64h-502
l-143 -686h-41l305 1462h563z" />
    <glyph glyph-name="S" unicode="S" horiz-adv-x="1251" 
d="M534 6q203 0 354.5 86.5t151.5 294.5t-166.5 261.5t-307 95t-245 115t-104.5 228.5q4 206 149 308t353 102q374 0 439 -165t56 -288h-40q15 214 -109 313t-329 99t-339.5 -92.5t-139.5 -282.5q-4 -190 164.5 -245.5t308 -96t245.5 -115t106 -231.5q0 -230 -163 -329
t-355 -99q-259 0 -415.5 133.5t-133.5 386.5h41q-23 -221 85 -318t206 -129t188 -32z" />
    <glyph glyph-name="T" unicode="T" 
d="M123 1421l8 41h1100l-8 -41h-529l-303 -1421h-43l303 1421h-528z" />
    <glyph glyph-name="U" unicode="U" horiz-adv-x="1327" 
d="M113 355q0 -68 33.5 -139t124 -142.5t279.5 -69.5t348 98t224 404l209 956h43l-205 -944q-46 -226 -177.5 -389.5t-448.5 -163.5t-394 153.5t-77 244.5t22 219l193 880h43l-203 -934q-14 -105 -14 -173z" />
    <glyph glyph-name="V" unicode="V" horiz-adv-x="1138" 
d="M395 0l-258 1462h41l250 -1421h4l840 1421h45l-864 -1462h-58z" />
    <glyph glyph-name="W" unicode="W" horiz-adv-x="1820" 
d="M285 0l-133 1462h41l126 -1409h5l710 1409h66l127 -1409h4l711 1409h47l-744 -1462h-53l-129 1425h-4l-721 -1425h-53z" />
    <glyph glyph-name="X" unicode="X" horiz-adv-x="1062" 
d="M920 0l-379 719l-680 -719h-54l715 756l-372 706h47l358 -678l643 678h53l-678 -714l394 -748h-47z" />
    <glyph glyph-name="Y" unicode="Y" horiz-adv-x="1062" 
d="M518 659l715 803h51l-749 -841l-134 -621h-43l134 621l-398 841h47z" />
    <glyph glyph-name="Z" unicode="Z" 
d="M936 41l-6 -41h-1092l8 49l1284 1372h-972l10 41h1018l-8 -49l-1284 -1372h1042z" />
    <glyph glyph-name="bracketleft" unicode="[" horiz-adv-x="454" 
d="M614 1497l-10 -41h-201l-391 -1778h203l-10 -40h-246l410 1859h245z" />
    <glyph glyph-name="backslash" unicode="\" horiz-adv-x="681" 
d="M655 -35l-669 1532h41l669 -1532h-41z" />
    <glyph glyph-name="bracketright" unicode="]" horiz-adv-x="454" 
d="M-205 -362l10 40h201l385 1778h-205l11 41h245l-401 -1859h-246z" />
    <glyph glyph-name="asciicircum" unicode="^" horiz-adv-x="1228" 
d="M1108 465h-41l-453 887l-452 -887h-41l473 928h41z" />
    <glyph glyph-name="underscore" unicode="_" 
d="M0 -256v102h1024v-102h-1024z" />
    <glyph glyph-name="grave" unicode="`" horiz-adv-x="266" 
d="M231 1499l230 -295h-51l-230 295h51z" />
    <glyph glyph-name="a" unicode="a" horiz-adv-x="985" 
d="M0 256q0 -130 79 -185t185 -55q193 0 313.5 105.5t170.5 290.5l43 182l-5 4q-53 -61 -366 -61q-192 -10 -306 -68t-114 -213zM872 815q0 -46 -16 -129l-121 -514q-8 -36 -8 -76t19.5 -51.5t52.5 -11.5t63 8v-41q-35 -8 -69 -8q-106 0 -107 108q0 41 7 64.5t14 50.5h-5
q-74 -121 -175 -180.5t-255 -59.5q-210 0 -261.5 95.5t-51.5 183.5t39 154.5t126 116.5t294 50q80 5 154 5t132 19t92.5 67t34.5 130q0 138 -72.5 189t-219.5 52q-148 1 -245 -75.5t-132 -213.5h-41q76 326 413 328q338 2 338 -261z" />
    <glyph glyph-name="b" unicode="b" horiz-adv-x="1099" 
d="M952 656q0 176 -85.5 278t-224.5 102q-138 0 -232.5 -59t-160 -151.5t-100 -204t-36.5 -206.5q-4 -186 86 -292.5t233 -106.5t237.5 61.5t158 157t94 211.5t30.5 210zM897.5 962q95.5 -115 95.5 -290q0 -271 -101 -421.5t-204.5 -213t-246.5 -62.5t-243 90t-112 238h-4
l-66 -303h-43l312 1462h43l-142 -665l4 -4q63 123 177 203.5t275 80.5q160 0 255.5 -115z" />
    <glyph glyph-name="c" unicode="c" 
d="M907 735q1 301 -359 301q-102 0 -197 -57t-190 -195.5t-95 -392.5q0 -170 91 -272.5t271 -102.5q303 8 416 322h41q-45 -166 -172 -264.5t-303 -98.5q-177 0 -281 113t-104 303q0 276 147 481t401 205q174 0 274.5 -88t100.5 -254h-41z" />
    <glyph glyph-name="d" unicode="d" horiz-adv-x="1099" 
d="M567 1036q-233 0 -340.5 -159.5t-140.5 -276.5t-33 -210q0 -177 86 -275.5t231 -98.5q144 0 239.5 63.5t191 209.5t100.5 399q0 158 -84 253t-250 95zM389 -25q-182 0 -279.5 109t-97.5 291q0 115 37 238.5t108.5 227t174 170t248.5 66.5t248 -86t102 -246h4l24 134
l127 583h43l-315 -1462h-43l33 156l33 129l-5 4q-96 -218 -227 -266t-215 -48z" />
    <glyph glyph-name="e" unicode="e" 
d="M938 679q0 -75 -8 -161h-875q-6 -47 -6 -141t63 -227.5t285 -133.5q343 0 434 330h43q-97 -371 -475 -371q-187 0 -289 120.5t-102 312.5q0 267 144 468t405 201q185 0 283 -116t98 -282zM897 675q0 155 -89 258t-251 103q-202 0 -328 -135t-166 -342h824q10 49 10 116z
" />
    <glyph glyph-name="f" unicode="f" horiz-adv-x="417" 
d="M520 1462q27 0 51.5 -1t53.5 -1l-9 -41q-23 2 -28 2h-68q-118 0 -155 -73.5t-46.5 -120.5t-19.5 -82l-23 -92h226l-10 -41h-226l-223 -1012h-43l223 1012h-184l10 41h184l25 92q28 138 73.5 227.5t188.5 89.5z" />
    <glyph glyph-name="g" unicode="g" horiz-adv-x="1062" 
d="M72 477q0 -267 129 -326t231 -59t188.5 53.5t176.5 181.5t90 349q-9 177 -92.5 268.5t-262.5 91.5q-99 0 -185.5 -48t-180.5 -168.5t-94 -342.5zM305 -387q-256 0 -303 121t-43 205h41q-12 -142 73 -213.5t231 -71.5t235.5 51t142.5 138t82 203t53 243l-4 4
q-55 -111 -160 -176.5t-217 -65.5q-203 0 -304 117.5t-101 308.5q0 104 33.5 212t143.5 248t355 140q145 0 241.5 -87t110.5 -251h5l28 154l33 160h41l-209 -975q-51 -240 -171 -352.5t-337 -112.5z" />
    <glyph glyph-name="h" unicode="h" 
d="M608 1077q217 0 263.5 -108.5t46.5 -163.5t-8.5 -97t-16.5 -83l-131 -625h-43l133 635q8 39 16.5 78t8.5 78q-2 123 -77 184t-239 61t-284 -157.5t-168 -393.5l-105 -485h-43l315 1462h43l-114 -540l-27 -119l4 -4q72 129 172.5 203.5t253.5 74.5z" />
    <glyph glyph-name="i" unicode="i" horiz-adv-x="266" 
d="M2 0h-45l225 1053h45zM264 1462h45l-47 -213h-45z" />
    <glyph glyph-name="j" unicode="j" horiz-adv-x="266" 
d="M-239 -362q-63 0 -103 4l6 36q23 -2 42 -2t55 -1t70 24t55.5 61.5t32.5 80.5t22 87l241 1125h45l-245 -1141q-30 -138 -77 -206t-144 -68zM264 1462h45l-47 -213h-45z" />
    <glyph glyph-name="k" unicode="k" horiz-adv-x="909" 
d="M74 414l-90 -414h-43l317 1462h43l-213 -989l836 580h69l-626 -439l438 -614h-55l-418 592z" />
    <glyph glyph-name="l" unicode="l" horiz-adv-x="266" 
d="M-43 0l307 1462h45l-307 -1462h-45z" />
    <glyph glyph-name="m" unicode="m" horiz-adv-x="1593" 
d="M547 1077q131 0 200.5 -81t65.5 -203l4 -5q41 125 139.5 207t228.5 82t212 -71.5t82 -206.5q0 -60 -25 -168l-139 -631h-43l147 670q19 83 19 129q0 111 -67 174t-171 63q-178 0 -278 -134t-136 -304l-131 -598h-43l150 705q10 62 10 100q0 104 -61.5 167.5t-155.5 63.5
q-167 0 -284.5 -146.5t-149.5 -318.5l-125 -571h-43l227 1053h45l-51 -242h4q94 184 198.5 225t170.5 41z" />
    <glyph glyph-name="n" unicode="n" 
d="M608 1077q217 0 263.5 -108.5t46.5 -163.5t-8.5 -97t-16.5 -83l-131 -625h-43l133 635q8 39 16.5 78t8.5 78q-2 123 -77 184t-239 61t-284 -157.5t-168 -393.5l-105 -485h-43l227 1053h43l-26 -131l-27 -119l4 -4q72 129 172.5 203.5t253.5 74.5z" />
    <glyph glyph-name="o" unicode="o" horiz-adv-x="1062" 
d="M12 391q0 274 147 480t402 206q188 0 297 -118.5t109 -313.5q0 -254 -105.5 -400.5t-208 -208t-237.5 -61.5q-195 0 -299.5 113t-104.5 303zM53 391q0 -170 91.5 -272.5t271.5 -102.5q125 0 221 58.5t159.5 149.5t96.5 203t33 218q0 184 -99.5 287.5t-265.5 103.5
q-239 0 -373.5 -196t-134.5 -449z" />
    <glyph glyph-name="p" unicode="p" horiz-adv-x="1099" 
d="M963 629q0 190 -81 298.5t-251 108.5q-125 0 -221.5 -66.5t-161 -168t-98 -221t-33.5 -226.5q0 -156 85 -247t249 -91q223 0 331.5 148.5t144.5 259.5t36 205zM631 1077q187 0 280 -119.5t93 -308.5q0 -117 -38 -236.5t-110 -217t-174 -159t-248 -61.5t-240 81t-104 220
h-4l-135 -638h-43l299 1415h43l-60 -279h5q154 303 436 303z" />
    <glyph glyph-name="q" unicode="q" horiz-adv-x="1099" 
d="M834 258q-134 -283 -431 -283q-160 0 -266 108t-106 279q0 115 32.5 241t98 231.5t167 174t251.5 68.5t250 -98.5t104 -259.5h4l20 108l50 226h43l-308 -1415h-43l138 616zM905 652q0 173 -88.5 278.5t-231.5 105.5q-252 0 -382.5 -208.5t-130.5 -465.5q0 -152 95 -249
t231 -97q137 0 229 61.5t153.5 158t93 210.5t31.5 206z" />
    <glyph glyph-name="r" unicode="r" horiz-adv-x="530" 
d="M539 1028q-116 0 -243 -123t-187 -377l-113 -528h-43l223 1053h45l-28 -135l-31 -130l4 -4q63 125 158.5 205t224.5 80q49 0 84 -8l-8 -41q-24 8 -86 8z" />
    <glyph glyph-name="s" unicode="s" horiz-adv-x="948" 
d="M375 16q230 0 288 94.5t58 157.5t-22.5 100.5t-59.5 63t-82 43t-94 36.5t-107.5 38.5t-106.5 50.5t-80 77t-32 150.5t105 177t254 72.5q274 0 316 -123t32 -217h-41q28 225 -102 262t-194 37q-139 0 -234 -60t-95 -185q0 -126 99.5 -165.5t148.5 -59.5t192.5 -66.5
t143.5 -223.5q0 -155 -112.5 -228t-274.5 -73q-269 0 -326 109t-57 195l4 77h43q-43 -340 336 -340z" />
    <glyph glyph-name="t" unicode="t" horiz-adv-x="493" 
d="M219 -8q-160 0 -160 119q0 31 6.5 60.5t10.5 59.5l166 781h-199l8 41h199l69 331h43l-69 -331h229l-8 -41h-229l-164 -768q-6 -29 -12.5 -59.5t-7.5 -64.5q-2 -62 35.5 -74.5t100.5 -12.5q64 0 103 8l-8 -41q-58 -8 -113 -8z" />
    <glyph glyph-name="u" unicode="u" 
d="M334 -25q-217 0 -263 109t-46 165t24 179l131 625h43q-133 -635 -145 -693.5t-12 -97.5q2 -123 76.5 -184.5t239 -61.5t283 155.5t169.5 395.5l102 486h45l-227 -1053h-43l26 131l27 119l-4 4q-72 -129 -172.5 -204t-253.5 -75z" />
    <glyph glyph-name="v" unicode="v" horiz-adv-x="833" 
d="M236 0l-193 1053h43l180 -1012h4l580 1012h47l-606 -1053h-55z" />
    <glyph glyph-name="w" unicode="w" horiz-adv-x="1402" 
d="M918 0h-62l-115 1012h-4l-536 -1012h-62l-121 1053h43l113 -1012h4l537 1012h61l115 -1012h4l535 1012h47z" />
    <glyph glyph-name="x" unicode="x" horiz-adv-x="833" 
d="M-104 0h-56l525 549l-273 504h47l258 -475l447 475h53l-475 -510l299 -543h-47l-285 516z" />
    <glyph glyph-name="y" unicode="y" horiz-adv-x="833" 
d="M-88 -362h-49l6 40q115 -4 160 22t71.5 58.5t57.5 81.5l90 158l-205 1055h45l195 -1000l575 1000h51l-690 -1194q-74 -122 -125 -168.5t-162 -50.5q-16 -2 -20 -2z" />
    <glyph glyph-name="z" unicode="z" horiz-adv-x="833" 
d="M678 41l-10 -41h-801l12 55l963 957h-727l8 41h786l-12 -47l-971 -965h752z" />
    <glyph glyph-name="braceleft" unicode="{" horiz-adv-x="681" 
d="M217 -322h100l-8 -40h-94q-66 0 -93.5 28t-27.5 84t17 141l71 349q10 46 15 112q0 149 -97 203l9 41q117 6 163.5 130t59.5 192l71 350q27 121 69 175t124 54h100l-8 -41h-92q-63 0 -95 -43t-55 -153l-75 -355q-59 -288 -224 -340q91 -64 91 -203q3 -45 -15 -129
l-71 -348q-35 -168 -5.5 -187.5t70.5 -19.5z" />
    <glyph glyph-name="bar" unicode="|" horiz-adv-x="454" 
d="M207 -438v2048h41v-2048h-41z" />
    <glyph glyph-name="braceright" unicode="}" horiz-adv-x="681" 
d="M319 774q0 60 15 148l74 352q14 49 14 104q0 78 -84 78h-102l8 41h98q57 0 89 -30.5t32 -79.5t-17 -123l-71 -353q-15 -92 -15 -154q0 -61 25 -108t70 -55l-11 -45q-106 -30 -152 -149t-59 -173l-88 -405q-31 -184 -186 -184h-102l8 40h98q59 0 92 34t49 114l89 407
q27 117 82 212.5t135 127.5q-91 37 -91 201z" />
    <glyph glyph-name="asciitilde" unicode="~" horiz-adv-x="1228" 
d="M387 608q97 0 236 -67q137 -72 205 -72q69 0 118 47t90 105l33 -25q-82 -120 -138.5 -144t-116.5 -24t-151 46t-148.5 69.5t-129.5 23.5t-116 -44t-79 -107l-30 26q80 166 227 166z" />
    <glyph glyph-name="uni00A0" unicode="&#xa0;" horiz-adv-x="569" 
 />
    <glyph glyph-name="exclamdown" unicode="&#xa1;" horiz-adv-x="378" 
d="M256 909h-43l45 201h43zM-23 -362h-43l244 1099h43z" />
    <glyph glyph-name="cent" unicode="&#xa2;" horiz-adv-x="1138" 
d="M125 389q0 -135 68.5 -239.5t224.5 -126.5l215 1013q-123 -2 -218.5 -58t-160 -144.5t-97 -199t-32.5 -245.5zM84 414q0 258 106.5 402.5t211 202.5t239.5 58l37 168h37l-37 -170q154 -10 242 -95t88 -241h-41q2 139 -80 214t-217 81l-217 -1016q6 -2 20 -2
q315 8 430 328h41q-46 -163 -174 -266t-297 -103q-20 0 -29 2l-45 -210h-37l48 217q-165 15 -245.5 131t-80.5 299z" />
    <glyph glyph-name="sterling" unicode="&#xa3;" horiz-adv-x="1138" 
d="M344 535q0 -144 -73 -255.5t-195 -213.5l4 -9q90 41 164 41t166 -30t139 -46t94 -16q96 -2 182 49t129 127l29 -24q-70 -138 -181.5 -165.5t-159.5 -27.5t-97 15.5t-144 46t-164 30.5t-134.5 -24.5t-104.5 -61.5l-25 33q55 59 192.5 192t137.5 334q0 100 -24 177h-193
l6 41h170q-23 68 -47.5 143t-24.5 183q0 206 133 314.5t345 108.5q156 0 266 -62t143 -147.5t33 -137.5v-48q0 -47 -2 -70h-41q2 23 2 28v64q0 168 -114.5 250t-294.5 82t-304.5 -95t-124.5 -286q0 -121 29 -197.5t45 -129.5h344l-12 -41h-315q22 -89 22 -172z" />
    <glyph glyph-name="currency" unicode="&#xa4;" horiz-adv-x="1138" 
d="M1077 698q0 -199 -135 -346l117 -116l-29 -29l-117 117q-144 -132 -344 -136q-196 0 -344 136l-116 -117l-29 29l117 116q-136 148 -136 344q4 202 136 344l-117 117l29 29l116 -117q147 135 347 135t341 -135l117 117l29 -29l-117 -117q135 -143 135 -342zM1036 696.5
q0 96.5 -36.5 181.5t-100 148.5t-148.5 100t-181.5 36.5t-181.5 -36.5t-148.5 -100t-100.5 -148.5t-37 -181.5t37 -181.5t100.5 -148.5t148.5 -100.5t181.5 -37t181.5 37t148.5 100.5t100 148.5t36.5 181.5z" />
    <glyph glyph-name="yen" unicode="&#xa5;" horiz-adv-x="1138" 
d="M770 416l-8 -41h-287l-76 -375h-41l76 375h-287l9 41h286l41 209h-286l10 41h270l-362 796h41l358 -788l672 788h47l-678 -796h266l-10 -41h-287l-41 -209h287z" />
    <glyph glyph-name="brokenbar" unicode="&#xa6;" horiz-adv-x="454" 
d="M248 -182h-41v512h41v-512zM248 842h-41v512h41v-512z" />
    <glyph glyph-name="section" unicode="&#xa7;" horiz-adv-x="1138" 
d="M651 98q76 -71 76 -196t-97 -207t-255 -82q-159 0 -257 107.5t-75 289.5h41q-20 -166 63.5 -261t247.5 -95q115 0 203 67.5t88 183.5t-71.5 181.5t-102.5 95.5l-217 219q-180 169 -180 322q0 125 81.5 217.5t198.5 106.5q-56 79 -55 157q3 143 96 218t221 75
q167 0 265.5 -104t72.5 -275h-41q20 158 -64 248t-233 90q-107 0 -190.5 -65.5t-83.5 -179.5t76 -182t108 -99l215 -201q166 -153 166 -311q0 -130 -91 -219t-206 -101zM907 412q0 149 -151 284l-338 314q-77 0 -169.5 -77t-92.5 -210t178 -299l289 -289q117 13 200.5 92
t83.5 185z" />
    <glyph glyph-name="dieresis" unicode="&#xa8;" horiz-adv-x="266" 
d="M549 1423l-27 -166h-43l27 166h43zM225 1423l-26 -166h-43l26 166h43z" />
    <glyph glyph-name="copyright" unicode="&#xa9;" horiz-adv-x="1638" 
d="M818 1145q-78 0 -153 -33t-127.5 -89t-79 -134t-26.5 -216.5t111 -262t299 -123.5q113 0 206 71.5t126 206.5h40q-32 -142 -133 -230.5t-221 -88.5t-204.5 36.5t-142.5 100t-90 149.5t-32 238t118.5 284t326.5 132q146 0 252 -80t126 -229h-40q-19 128 -114 198t-242 70z
M53 731q0 160 60.5 299t164 242.5t242.5 164t299 60.5t299 -60.5t242.5 -164t164 -242.5t60.5 -299t-60.5 -299t-164 -242.5t-242.5 -164t-299 -60.5t-299 60.5t-242.5 164t-164 242.5t-60.5 299zM94 730q0 -151 56.5 -283t154.5 -230t230.5 -154.5t282.5 -56.5t282.5 56.5
t231 154.5t155.5 230.5t57 282.5t-57 282.5t-155.5 230.5t-230.5 155.5t-283 57.5t-283 -57.5t-230 -155.5t-154.5 -230t-56.5 -283z" />
    <glyph glyph-name="ordfeminine" unicode="&#xaa;" horiz-adv-x="591" 
d="M508 825q0 30 18 72h-4q-39 -78 -119.5 -115t-157.5 -37q-125 0 -172.5 49.5t-47.5 114.5q0 111 68 151.5t136 47.5q68 6 121 8t114 5q132 6 132 139q0 49 -30 80.5t-152 35.5q-180 2 -240 -166h-41q23 98 96.5 152.5t180.5 54.5q227 0 227 -147q0 -40 -12 -94l-72 -304
q-4 -10 -4 -21v-24q0 -30 31 -30t41 2l-9 -39q-12 -4 -15 -4h-32q-25 0 -41 19.5t-16 49.5zM66 907q0 -62 47 -91.5t114 -29.5q115 0 198 55.5t116 172.5l30 110l-4 2q-29 -44 -187 -48.5t-208.5 -24t-78 -52t-27.5 -94.5z" />
    <glyph glyph-name="guillemotleft" unicode="&#xab;" horiz-adv-x="720" 
d="M119 565l268 285h4l-18 -76l-217 -231l123 -230l-13 -65h-4l-149 284zM326 565l268 285h4l-18 -76l-218 -231l123 -230l-12 -65h-4l-150 284z" />
    <glyph glyph-name="logicalnot" unicode="&#xac;" horiz-adv-x="1228" 
d="M1090 696h-992v41h1032v-547h-40v506z" />
    <glyph glyph-name="uni00AD" unicode="&#xad;" horiz-adv-x="681" 
d="M121 569h377l-9 -41h-376z" />
    <glyph glyph-name="registered" unicode="&#xae;" horiz-adv-x="1638" 
d="M561 1157h289q150 0 220.5 -62.5t70.5 -174.5q0 -158 -92.5 -192t-137.5 -38l271 -414h-52l-264 410q-16 -2 -31 -2h-233v-408h-41v881zM815 725q126 0 205.5 39.5t79.5 155.5q0 160 -102.5 178t-151.5 18h-244v-391h213zM53 731q0 160 60.5 299t164 242.5t242.5 164
t299 60.5t299 -60.5t242.5 -164t164 -242.5t60.5 -299t-60.5 -299t-164 -242.5t-242.5 -164t-299 -60.5t-299 60.5t-242.5 164t-164 242.5t-60.5 299zM94 730q0 -151 56.5 -283t154.5 -230t230.5 -154.5t282.5 -56.5t282.5 56.5t231 154.5t155.5 230.5t57 282.5t-57 282.5
t-155.5 230.5t-230.5 155.5t-283 57.5t-283 -57.5t-230 -155.5t-154.5 -230t-56.5 -283z" />
    <glyph glyph-name="macron" unicode="&#xaf;" horiz-adv-x="266" 
d="M590 1352l-10 -41h-476l9 41h477z" />
    <glyph glyph-name="degree" unicode="&#xb0;" horiz-adv-x="569" 
d="M137 1134.5q0 -49.5 19.5 -93.5t52.5 -76.5t77 -52t93 -19.5t93 19.5t77 52t52.5 76.5t19.5 93.5t-19.5 93.5t-52.5 76.5t-77 52t-93 19.5t-93 -19.5t-77 -52t-52.5 -76.5t-19.5 -93.5zM179 1333.5q83 83.5 200 83.5t200 -84.5t83 -198.5q0 -115 -82.5 -198.5
t-200.5 -83.5q-117 0 -200 83t-83 199t83 199.5z" />
    <glyph glyph-name="plusminus" unicode="&#xb1;" horiz-adv-x="1228" 
d="M594 590h-496v41h496v405h41v-405h495v-41h-495v-406h-41v406zM98 41h1032v-41h-1032v41z" />
    <glyph glyph-name="twosuperior" unicode="&#xb2;" horiz-adv-x="681" 
d="M705 1226q0 150 -234 150q-113 0 -180.5 -62.5t-71.5 -174.5h-41q6 129 84 203.5t235 74.5t202.5 -68.5t45.5 -141.5t-45 -128t-114.5 -99t-152.5 -81t-156.5 -78t-129 -92t-69.5 -121h559l-8 -41h-598q3 118 89.5 193.5t241.5 148.5q49 25 108.5 51.5t112 61.5
t87.5 80.5t35 123.5z" />
    <glyph glyph-name="threesuperior" unicode="&#xb3;" horiz-adv-x="681" 
d="M53 760q0 42 6 90h43q-8 -33 -8 -74q0 -86 68.5 -134t180.5 -48t199 60.5t87 157.5t-69.5 137t-172.5 40h-35l10 41h31q132 0 189 23.5t86.5 60t29.5 90.5q0 86 -63.5 129t-157.5 43q-223 0 -268 -213h-41q18 117 97 185.5t212 68.5q177 0 219.5 -74.5t42.5 -125.5
q0 -104 -65.5 -153.5t-167.5 -57.5v-5q76 -4 119 -55.5t44 -121.5q2 -129 -94 -200t-228 -71q-207 0 -250.5 82.5t-43.5 124.5z" />
    <glyph glyph-name="acute" unicode="&#xb4;" horiz-adv-x="266" 
d="M236 1204h-58l334 295h57z" />
    <glyph glyph-name="mu" unicode="&#xb5;" horiz-adv-x="1138" 
d="M395 -25q-193 0 -238.5 102.5t-45.5 186.5h-5l-24 -155l-102 -471h-43l305 1411h43l-121 -560q-21 -117 -19.5 -212.5t59 -178t183.5 -82.5q390 0 508 551l102 486h45l-227 -1053h-43l53 250l-4 4q-72 -129 -172 -204t-254 -75z" />
    <glyph glyph-name="paragraph" unicode="&#xb6;" horiz-adv-x="1228" 
d="M752 1462h385l-363 -1749h-43l354 1708h-311l-354 -1708h-43l203 979q-193 0 -298.5 105.5t-67.5 297.5q38 193 182.5 280t355.5 87z" />
    <glyph glyph-name="periodcentered" unicode="&#xb7;" horiz-adv-x="569" 
d="M223 696.5q0 28.5 18.5 47t47 18.5t47 -18.5t18.5 -47t-18.5 -47t-47 -18.5t-47 18.5t-18.5 47z" />
    <glyph glyph-name="cedilla" unicode="&#xb8;" horiz-adv-x="266" 
d="M-41 -235q0 53 -35 72.5t-76 19.5t-106 -27l-31 18l150 152h53l-109 -106l2 -5q27 9 68 9t85 -32t44 -84q0 -88 -57 -126.5t-139 -38.5t-175 45l17 39q84 -43 151 -43q68 0 113 27t45 80z" />
    <glyph glyph-name="onesuperior" unicode="&#xb9;" horiz-adv-x="681" 
d="M571 1403l-196 -836h-41l186 789l-4 4q-53 -55 -128 -98t-152 -60l12 39q137 38 270 162h53z" />
    <glyph glyph-name="ordmasculine" unicode="&#xba;" horiz-adv-x="636" 
d="M694 1178q0 -179 -98 -306t-260 -127q-127 0 -193.5 70.5t-66.5 168.5q0 185 97.5 309t270.5 124q127 0 188.5 -74t61.5 -165zM653 1180q0 85 -49.5 140.5t-147.5 55.5q-175 0 -257 -109.5t-82 -262.5q0 -90 52.5 -154t150.5 -64t158.5 34t99 88.5t57 120.5t18.5 151z
" />
    <glyph glyph-name="guillemotright" unicode="&#xbb;" horiz-adv-x="720" 
d="M561 532l-268 -284h-4l18 76l217 231l-121 229l11 66h4l149 -285zM354 532l-268 -284h-4l18 76l217 231l-120 229l10 66h4l149 -285z" />
    <glyph glyph-name="onequarter" unicode="&#xbc;" horiz-adv-x="1708" 
d="M1294 1462h47l-974 -1532h-48zM596 1403l-197 -836h-41l187 789l-4 4q-53 -55 -128 -98t-153 -60l12 39q135 38 271 162h53zM1421 786l-2 -2l-4 4l-543 -544h424zM827 203l13 57l573 576h62l-136 -592h148l-6 -41h-148l-47 -203h-43l47 203h-463z" />
    <glyph glyph-name="onehalf" unicode="&#xbd;" horiz-adv-x="1708" 
d="M1171 1462h48l-975 -1532h-47zM473 1403l-197 -836h-40l186 789l-4 4q-53 -55 -128 -98t-153 -60l13 39q134 38 270 162h53zM1534 660q0 150 -234 149q-112 0 -179.5 -62.5t-71.5 -175.5h-41q6 129 83.5 204t234.5 75t203 -68.5t46 -141.5t-45 -128t-114.5 -99
t-152.5 -81t-157 -78t-129 -92t-70 -121h559l-8 -41h-598q3 117 81.5 185.5t137 99t110.5 56.5t111.5 52.5t111.5 61t87 81t35 124.5z" />
    <glyph glyph-name="threequarters" unicode="&#xbe;" horiz-adv-x="1708" 
d="M1382 1462h48l-975 -1532h-47zM104 756q0 38 7 94h43q-8 -33 -9 -74q0 -86 69 -134t180 -48t198.5 60.5t87.5 157.5t-69.5 137t-172.5 40h-35l11 41h30q132 0 189 23.5t87 60t30 90.5q0 87 -64 129.5t-158 42.5q-221 0 -268 -213h-41q18 117 97 185.5t212 68.5
q178 0 220.5 -74.5t42.5 -125.5q0 -104 -66 -153.5t-168 -57.5v-5q76 -4 119 -55.5t44 -121.5q2 -129 -93.5 -200t-239.5 -71q-193 0 -238 82.5t-45 120.5zM1497 786l-2 -2l-4 4l-543 -544h424zM903 203l12 57l574 576h61l-135 -592h148l-7 -41h-147l-47 -203h-43l47 203
h-463z" />
    <glyph glyph-name="questiondown" unicode="&#xbf;" 
d="M-37 -53q0 202 116 285t171 118t93 60.5t79.5 71t66.5 155.5l25 102h43l-27 -108q-40 -176 -123 -229.5t-144 -90.5q-134 -81 -196.5 -161.5t-62.5 -202.5q0 -215 136 -254t220 -39t230 68t166 374h41q-12 -214 -129.5 -348.5t-309.5 -134.5q-180 0 -287.5 88t-107.5 246
zM635 1110l-45 -201h-43l45 201h43z" />
    <glyph glyph-name="Agrave" unicode="&#xc0;" horiz-adv-x="1175" 
d="M932 522l-162 883h-4l-551 -883h717zM938 481h-750l-301 -481h-45l916 1462h41l270 -1462h-41zM573 1888l230 -295h-51l-230 295h51z" />
    <glyph glyph-name="Aacute" unicode="&#xc1;" horiz-adv-x="1175" 
d="M932 522l-162 883h-4l-551 -883h717zM938 481h-750l-301 -481h-45l916 1462h41l270 -1462h-41zM817 1593h-57l334 295h57z" />
    <glyph glyph-name="Acircumflex" unicode="&#xc2;" horiz-adv-x="1175" 
d="M932 522l-162 883h-4l-551 -883h717zM938 481h-750l-301 -481h-45l916 1462h41l270 -1462h-41zM1051 1593h-50l-167 267l-254 -267h-54l277 295h61z" />
    <glyph glyph-name="Atilde" unicode="&#xc3;" horiz-adv-x="1175" 
d="M932 522l-162 883h-4l-551 -883h717zM938 481h-750l-301 -481h-45l916 1462h41l270 -1462h-41zM936 1688q63 0 104 116h39q-13 -62 -41 -95q-52 -62 -100 -62q-49 0 -82 19q-34 19 -64 43q-117 92 -172 50q-34 -24 -48 -58q-13 -34 -19 -52h-41q12 63 51 113t101 50
t140 -62q30 -24 62 -43t70 -19z" />
    <glyph glyph-name="Adieresis" unicode="&#xc4;" horiz-adv-x="1175" 
d="M932 522l-162 883h-4l-551 -883h717zM938 481h-750l-301 -481h-45l916 1462h41l270 -1462h-41zM1016 1812l-27 -165h-43l27 165h43zM692 1812l-26 -165h-43l26 165h43z" />
    <glyph glyph-name="Aring" unicode="&#xc5;" horiz-adv-x="1175" 
d="M932 522l-162 883h-4l-551 -883h717zM938 481h-750l-301 -481h-45l916 1462h41l270 -1462h-41zM612 1741q0 82 58 139t139 57q82 0 139 -57q58 -57 58 -139t-58 -139q-58 -58 -139 -58t-139 58t-58 139zM653 1741q0 -66 45 -111t111 -45t111 45t45 111q0 67 -45 111
t-111 44t-111 -44t-45 -111z" />
    <glyph glyph-name="AE" unicode="&#xc6;" horiz-adv-x="1705" 
d="M1595 41l-8 -41h-848l121 561h-565l-440 -561h-56l1141 1462h926l-8 -41h-777l-135 -639h715l-8 -41h-715l-147 -700h804zM866 602l174 819h-84l-637 -819h547z" />
    <glyph glyph-name="Ccedilla" unicode="&#xc7;" horiz-adv-x="1402" 
d="M670 -235q0 92 -112 92q-42 0 -105 -27l-31 18l119 123q-196 20 -334.5 168t-138.5 420q0 170 51 338t150.5 300t248 215t357.5 84t368.5 -128.5t159.5 -345.5h-41q0 196 -151 315t-342 119t-330.5 -76.5t-234.5 -202.5t-145 -288.5t-50 -314.5q0 -282 146.5 -425
t378.5 -143t406.5 136.5t245.5 373.5h41q-62 -243 -251.5 -397t-444.5 -154q-20 0 -41 2l-74 -73l2 -5q82 27 139.5 -14t57.5 -93q0 -88 -57 -126.5t-139 -38.5t-175 45l16 39q84 -43 152 -43t113 27t45 80z" />
    <glyph glyph-name="Egrave" unicode="&#xc8;" horiz-adv-x="1062" 
d="M952 41l-10 -41h-962l313 1462h928l-9 -41h-886l-138 -639h828l-8 -41h-830l-149 -700h923zM602 1888l229 -295h-51l-229 295h51z" />
    <glyph glyph-name="Eacute" unicode="&#xc9;" horiz-adv-x="1062" 
d="M952 41l-10 -41h-962l313 1462h928l-9 -41h-886l-138 -639h828l-8 -41h-830l-149 -700h923zM782 1593h-57l334 295h57z" />
    <glyph glyph-name="Ecircumflex" unicode="&#xca;" horiz-adv-x="1062" 
d="M952 41l-10 -41h-962l313 1462h928l-9 -41h-886l-138 -639h828l-8 -41h-830l-149 -700h923zM1024 1593h-49l-168 267l-254 -267h-53l276 295h62z" />
    <glyph glyph-name="Edieresis" unicode="&#xcb;" horiz-adv-x="1062" 
d="M952 41l-10 -41h-962l313 1462h928l-9 -41h-886l-138 -639h828l-8 -41h-830l-149 -700h923zM977 1812l-27 -165h-43l27 165h43zM653 1812l-26 -165h-43l26 165h43z" />
    <glyph glyph-name="Igrave" unicode="&#xcc;" horiz-adv-x="303" 
d="M-14 0l313 1462h41l-313 -1462h-41zM127 1888l229 -295h-51l-229 295h51z" />
    <glyph glyph-name="Iacute" unicode="&#xcd;" horiz-adv-x="303" 
d="M-14 0l313 1462h41l-313 -1462h-41zM358 1593h-57l334 295h57z" />
    <glyph glyph-name="Icircumflex" unicode="&#xce;" horiz-adv-x="303" 
d="M-14 0l313 1462h41l-313 -1462h-41zM602 1593h-49l-168 267l-254 -267h-53l276 295h62z" />
    <glyph glyph-name="Idieresis" unicode="&#xcf;" horiz-adv-x="303" 
d="M-14 0l313 1462h41l-313 -1462h-41zM561 1812l-26 -165h-43l26 165h43zM238 1812l-27 -165h-43l27 165h43z" />
    <glyph glyph-name="Eth" unicode="&#xd0;" horiz-adv-x="1366" 
d="M438 41q222 0 311 29.5t153.5 72.5t120.5 103q104 112 168 282t64 357q0 188 -53 294.5t-141 161t-205 67.5t-242 13h-274l-141 -639h536l-8 -41h-537l-153 -700h401zM614 1462q199 0 336.5 -30t241.5 -153.5t104 -392.5t-108.5 -473t-251.5 -297.5t-273.5 -104.5
t-224.5 -11h-452l164 741h-168l8 41h168l149 680h307z" />
    <glyph glyph-name="Ntilde" unicode="&#xd1;" horiz-adv-x="1366" 
d="M1034 0l-704 1415h-4l-297 -1415h-43l311 1462h55l705 -1415h4l299 1415h43l-313 -1462h-56zM655 1762q39 50 103 50t138 -62q78 -62 122 -62q63 0 99 79q9 20 16 37h38q-13 -62 -52 -109q-39 -48 -98 -48t-136 62q-118 92 -173 50q-34 -24 -48 -58q-13 -34 -19 -52h-41
q12 63 51 113z" />
    <glyph glyph-name="Ograve" unicode="&#xd2;" horiz-adv-x="1478" 
d="M1427 872q0 -156 -51 -320q-108 -350 -392 -507q-144 -80 -308 -80q-446 0 -570 359q-38 113 -38 267t50 319q106 350 391 507q144 80 308 80t273 -43q337 -133 337 -582zM1386 874q0 423 -310 542q-100 40 -256 40t-294 -78t-229 -202q-92 -124 -140 -283t-48 -303
q0 -274 145 -429t399 -155q176 0 314 78q270 154 371 486q48 160 48 304zM741 1888l230 -295h-51l-230 295h51z" />
    <glyph glyph-name="Oacute" unicode="&#xd3;" horiz-adv-x="1478" 
d="M1427 872q0 -156 -51 -320q-108 -350 -392 -507q-144 -80 -308 -80q-446 0 -570 359q-38 113 -38 267t50 319q106 350 391 507q144 80 308 80t273 -43q337 -133 337 -582zM1386 874q0 423 -310 542q-100 40 -256 40t-294 -78t-229 -202q-92 -124 -140 -283t-48 -303
q0 -274 145 -429t399 -155q176 0 314 78q270 154 371 486q48 160 48 304zM862 1593h-57l334 295h57z" />
    <glyph glyph-name="Ocircumflex" unicode="&#xd4;" horiz-adv-x="1478" 
d="M1427 872q0 -156 -51 -320q-108 -350 -392 -507q-144 -80 -308 -80q-446 0 -570 359q-38 113 -38 267t50 319q106 350 391 507q144 80 308 80t273 -43q337 -133 337 -582zM1386 874q0 423 -310 542q-100 40 -256 40t-294 -78t-229 -202q-92 -124 -140 -283t-48 -303
q0 -274 145 -429t399 -155q176 0 314 78q270 154 371 486q48 160 48 304zM1159 1593h-49l-168 267l-254 -267h-53l276 295h62z" />
    <glyph glyph-name="Otilde" unicode="&#xd5;" horiz-adv-x="1478" 
d="M1427 872q0 -156 -51 -320q-108 -350 -392 -507q-144 -80 -308 -80q-446 0 -570 359q-38 113 -38 267t50 319q106 350 391 507q144 80 308 80t273 -43q337 -133 337 -582zM1386 874q0 423 -310 542q-100 40 -256 40t-294 -78t-229 -202q-92 -124 -140 -283t-48 -303
q0 -274 145 -429t399 -155q176 0 314 78q270 154 371 486q48 160 48 304zM1063 1688q63 0 104 116h39q-13 -62 -41 -95q-52 -62 -100 -62q-49 0 -82 19t-63 43q-78 62 -132 63q-67 0 -108 -123h-41q12 63 51 113t101 50t140 -62q29 -24 61 -43t71 -19z" />
    <glyph glyph-name="Odieresis" unicode="&#xd6;" horiz-adv-x="1478" 
d="M1427 872q0 -156 -51 -320q-108 -350 -392 -507q-144 -80 -308 -80q-446 0 -570 359q-38 113 -38 267t50 319q106 350 391 507q144 80 308 80t273 -43q337 -133 337 -582zM1386 874q0 423 -310 542q-100 40 -256 40t-294 -78t-229 -202q-92 -124 -140 -283t-48 -303
q0 -274 145 -429t399 -155q176 0 314 78q270 154 371 486q48 160 48 304zM1118 1812l-26 -165h-43l26 165h43zM795 1812l-27 -165h-43l27 165h43z" />
    <glyph glyph-name="multiply" unicode="&#xd7;" horiz-adv-x="1228" 
d="M614 492l-389 -390l-28 29l389 389l-389 387l28 29l389 -387l390 387l28 -29l-389 -387l389 -389l-28 -29z" />
    <glyph glyph-name="Oslash" unicode="&#xd8;" horiz-adv-x="1478" 
d="M68 573q0 172 50 337t148.5 296t242.5 211t333 80q248 0 395 -131l121 145l28 -22l-120 -150q162 -166 161 -450q0 -172 -51 -337t-149.5 -296t-242.5 -211t-331 -80q-251 0 -401 135l-137 -168l-29 25l139 170q-157 165 -157 446zM653 6q176 0 313.5 78t230.5 203
t141 283.5t48 318.5q0 270 -145 420l-960 -1174q144 -129 372 -129zM109 573q0 -260 145 -411l958 1173q-144 121 -370 121q-178 0 -315.5 -78t-229.5 -202.5t-140 -282.5t-48 -320z" />
    <glyph glyph-name="Ugrave" unicode="&#xd9;" horiz-adv-x="1327" 
d="M113 355q-1 -68 33 -139q66 -140 233 -188q129 -39 319 -9q190 29 318 211q70 99 106 276l209 956h43l-205 -944q-46 -225 -149 -354q-160 -197 -467 -199q-207 0 -344 106t-137 308q0 75 22 203l193 880h43l-203 -934q-14 -105 -14 -173zM678 1888l229 -295h-51
l-229 295h51z" />
    <glyph glyph-name="Uacute" unicode="&#xda;" horiz-adv-x="1327" 
d="M113 355q-1 -68 33 -139q66 -140 233 -188q129 -39 319 -9q190 29 318 211q70 99 106 276l209 956h43l-205 -944q-46 -225 -149 -354q-160 -197 -467 -199q-207 0 -344 106t-137 308q0 75 22 203l193 880h43l-203 -934q-14 -105 -14 -173zM831 1593h-57l334 295h57z" />
    <glyph glyph-name="Ucircumflex" unicode="&#xdb;" horiz-adv-x="1327" 
d="M113 355q-1 -68 33 -139q66 -140 233 -188q129 -39 319 -9q190 29 318 211q70 99 106 276l209 956h43l-205 -944q-46 -225 -149 -354q-160 -197 -467 -199q-207 0 -344 106t-137 308q0 75 22 203l193 880h43l-203 -934q-14 -105 -14 -173zM1104 1593h-49l-168 267
l-254 -267h-53l276 295h62z" />
    <glyph glyph-name="Udieresis" unicode="&#xdc;" horiz-adv-x="1327" 
d="M113 355q-1 -68 33 -139q66 -140 233 -188q129 -39 319 -9q190 29 318 211q70 99 106 276l209 956h43l-205 -944q-46 -225 -149 -354q-160 -197 -467 -199q-207 0 -344 106t-137 308q0 75 22 203l193 880h43l-203 -934q-14 -105 -14 -173zM1059 1812l-27 -165h-43l27 165
h43zM735 1812l-26 -165h-43l26 165h43z" />
    <glyph glyph-name="Yacute" unicode="&#xdd;" horiz-adv-x="1062" 
d="M518 659l715 803h51l-749 -841l-134 -621h-43l134 621l-398 841h47zM731 1593h-57l334 295h57z" />
    <glyph glyph-name="Thorn" unicode="&#xde;" horiz-adv-x="1175" 
d="M633 453q226 0 360.5 106.5t134.5 308.5q0 167 -98 233t-242 66h-512l-153 -714h510zM797 1208q193 0 282.5 -93t89.5 -237q0 -256 -161.5 -361t-386.5 -105h-504l-88 -412h-43l311 1462h43l-53 -254h510z" />
    <glyph glyph-name="germandbls" unicode="&#xdf;" horiz-adv-x="985" 
d="M879 1174q0 137 -83 204.5t-194 67.5q-110 0 -172.5 -28.5t-114.5 -94t-92 -254.5l-227 -1069h-43l229 1081q40 193 127.5 299.5t276.5 106.5q143 0 238.5 -78.5t95.5 -216.5q0 -236 -130.5 -300.5t-201.5 -74.5v-4q131 -20 196.5 -108.5t65.5 -202.5q0 -222 -135 -370
t-359 -148q-50 0 -110 10l12 41q52 -10 124 -10t156.5 34.5t177.5 133t93 281.5q0 331 -395 321l12 41q307 0 380 130t73 208z" />
    <glyph glyph-name="agrave" unicode="&#xe0;" horiz-adv-x="985" 
d="M0 256q0 -238 294 -240q76 0 154 30q225 86 300 366l43 182l-5 4q-53 -61 -366 -61q-194 -10 -269 -50q-151 -78 -151 -231zM872 815q0 -46 -16 -129l-121 -514q-8 -36 -8 -76t19 -51q18 -12 52 -12t64 8v-41q-35 -8 -69 -8q-106 0 -107 108q0 41 7 65t14 50h-5
q-74 -121 -175 -180t-255 -60q-211 0 -286 142q-27 49 -27 137t39 155q40 67 104 103q110 62 316 63q80 5 154 5q260 2 260 216q-1 197 -168 230q-51 10 -113 10q-160 2 -257 -74t-132 -214h-41q76 326 413 328q338 2 338 -261zM418 1499l229 -295h-51l-229 295h51z" />
    <glyph glyph-name="aacute" unicode="&#xe1;" horiz-adv-x="985" 
d="M0 256q0 -238 294 -240q76 0 154 30q225 86 300 366l43 182l-5 4q-53 -61 -366 -61q-194 -10 -269 -50q-151 -78 -151 -231zM872 815q0 -46 -16 -129l-121 -514q-8 -36 -8 -76t19 -51q18 -12 52 -12t64 8v-41q-35 -8 -69 -8q-106 0 -107 108q0 41 7 65t14 50h-5
q-74 -121 -175 -180t-255 -60q-211 0 -286 142q-27 49 -27 137t39 155q40 67 104 103q110 62 316 63q80 5 154 5q260 2 260 216q-1 197 -168 230q-51 10 -113 10q-160 2 -257 -74t-132 -214h-41q76 326 413 328q338 2 338 -261zM594 1204h-57l333 295h58z" />
    <glyph glyph-name="acircumflex" unicode="&#xe2;" horiz-adv-x="985" 
d="M0 256q0 -238 294 -240q76 0 154 30q225 86 300 366l43 182l-5 4q-53 -61 -366 -61q-194 -10 -269 -50q-151 -78 -151 -231zM872 815q0 -46 -16 -129l-121 -514q-8 -36 -8 -76t19 -51q18 -12 52 -12t64 8v-41q-35 -8 -69 -8q-106 0 -107 108q0 41 7 65t14 50h-5
q-74 -121 -175 -180t-255 -60q-211 0 -286 142q-27 49 -27 137t39 155q40 67 104 103q110 62 316 63q80 5 154 5q260 2 260 216q-1 197 -168 230q-51 10 -113 10q-160 2 -257 -74t-132 -214h-41q76 326 413 328q338 2 338 -261zM862 1204h-49l-168 266l-254 -266h-53
l276 295h62z" />
    <glyph glyph-name="atilde" unicode="&#xe3;" horiz-adv-x="985" 
d="M0 256q0 -238 294 -240q76 0 154 30q225 86 300 366l43 182l-5 4q-53 -61 -366 -61q-194 -10 -269 -50q-151 -78 -151 -231zM872 815q0 -46 -16 -129l-121 -514q-8 -36 -8 -76t19 -51q18 -12 52 -12t64 8v-41q-35 -8 -69 -8q-106 0 -107 108q0 41 7 65t14 50h-5
q-74 -121 -175 -180t-255 -60q-211 0 -286 142q-27 49 -27 137t39 155q40 67 104 103q110 62 316 63q80 5 154 5q260 2 260 216q-1 197 -168 230q-51 10 -113 10q-160 2 -257 -74t-132 -214h-41q76 326 413 328q338 2 338 -261zM475 1382q-70 0 -100 -83q-8 -22 -15 -39h-41
q11 63 51 113t103 50t139 -62t135 -62q59 -1 101 116h39q-12 -58 -41 -94q-50 -62 -100 -63q-50 -2 -82 18t-64 44q-80 62 -125 62z" />
    <glyph glyph-name="adieresis" unicode="&#xe4;" horiz-adv-x="985" 
d="M0 256q0 -238 294 -240q76 0 154 30q225 86 300 366l43 182l-5 4q-53 -61 -366 -61q-194 -10 -269 -50q-151 -78 -151 -231zM872 815q0 -46 -16 -129l-121 -514q-8 -36 -8 -76t19 -51q18 -12 52 -12t64 8v-41q-35 -8 -69 -8q-106 0 -107 108q0 41 7 65t14 50h-5
q-74 -121 -175 -180t-255 -60q-211 0 -286 142q-27 49 -27 137t39 155q40 67 104 103q110 62 316 63q80 5 154 5q260 2 260 216q-1 197 -168 230q-51 10 -113 10q-160 2 -257 -74t-132 -214h-41q76 326 413 328q338 2 338 -261zM799 1423l-27 -166h-43l27 166h43zM475 1423
l-26 -166h-43l26 166h43z" />
    <glyph glyph-name="aring" unicode="&#xe5;" horiz-adv-x="985" 
d="M0 256q0 -238 294 -240q76 0 154 30q225 86 300 366l43 182l-5 4q-53 -61 -366 -61q-194 -10 -269 -50q-151 -78 -151 -231zM872 815q0 -46 -16 -129l-121 -514q-8 -36 -8 -76t19 -51q18 -12 52 -12t64 8v-41q-35 -8 -69 -8q-106 0 -107 108q0 41 7 65t14 50h-5
q-74 -121 -175 -180t-255 -60q-211 0 -286 142q-27 49 -27 137t39 155q40 67 104 103q110 62 316 63q80 5 154 5q260 2 260 216q-1 197 -168 230q-51 10 -113 10q-160 2 -257 -74t-132 -214h-41q76 326 413 328q338 2 338 -261zM408 1372q0 82 57 139t139 57t139 -56
q57 -58 57 -140t-56 -139q-58 -57 -140 -57t-139 57t-57 139zM449 1372q0 -66 45 -110q44 -44 110 -45q66 0 111 45q45 44 45 110t-45 111t-111 45t-110 -45t-45 -111z" />
    <glyph glyph-name="ae" unicode="&#xe6;" horiz-adv-x="1705" 
d="M1569 675q0 155 -89 258t-256 103t-285 -142.5t-151 -334.5h771q10 49 10 116zM762 378q0 -163 93 -262.5t247 -99.5t267.5 81t154.5 249h47q-101 -371 -479 -371q-152 0 -256.5 99t-104.5 243h-4q-48 -145 -178.5 -243.5t-284.5 -98.5q-210 0 -261.5 95.5t-51.5 183.5
t39 154.5t126 116.5t294 50q53 4 99 6.5t83 6.5q98 8 146 51t49 127q2 145 -67 207.5t-177 62.5q-160 2 -257.5 -74.5t-131.5 -213.5h-41q41 176 152.5 251.5t277.5 77.5q127 0 208 -77t70 -216l4 -4q83 204 207.5 250.5t207.5 46.5q172 0 271 -115.5t99 -293.5
q0 -84 -8 -150h-820q-20 -58 -20 -140zM-8 256q0 -130 79 -185t197 -55q119 0 240.5 76.5t167 205t84.5 310.5l-4 4q-50 -54 -152 -63q-49 -4 -96.5 -8t-109.5 -6t-137 -13.5t-134 -42t-97 -89t-38 -134.5z" />
    <glyph glyph-name="ccedilla" unicode="&#xe7;" 
d="M907 735q1 301 -359 301q-102 0 -197 -57t-190 -195.5t-95 -392.5q0 -170 91 -272.5t271 -102.5q303 8 416 322h41q-45 -166 -172 -264.5t-285 -98.5h-14l-84 -81l2 -5q28 9 68 9t84 -32t44 -84q0 -90 -57 -127.5t-139 -37.5t-174 45l16 39q84 -43 152 -43t112.5 26.5
t44.5 80.5q0 92 -110 92q-41 0 -107 -27l-30 18l126 132q-147 16 -233 108q-104 113 -104 303q0 276 147 481t401 205q174 0 274.5 -88t100.5 -254h-41z" />
    <glyph glyph-name="egrave" unicode="&#xe8;" 
d="M938 678q0 -74 -8 -160h-875q-6 -47 -6 -141t36 -170q88 -186 312 -191q345 0 434 330h43q-96 -369 -475 -371q-189 0 -290 120t-101 313q0 267 145 468t404 201q185 0 283 -116t98 -283zM897 675q0 157 -90 260t-250 101q-200 0 -334 -141q-120 -130 -160 -336h824
q10 49 10 116zM410 1499l229 -295h-51l-230 295h52z" />
    <glyph glyph-name="eacute" unicode="&#xe9;" 
d="M938 678q0 -74 -8 -160h-875q-6 -47 -6 -141t36 -170q88 -186 312 -191q345 0 434 330h43q-96 -369 -475 -371q-189 0 -290 120t-101 313q0 267 145 468t404 201q185 0 283 -116t98 -283zM897 675q0 157 -90 260t-250 101q-200 0 -334 -141q-120 -130 -160 -336h824
q10 49 10 116zM586 1204h-58l334 295h58z" />
    <glyph glyph-name="ecircumflex" unicode="&#xea;" 
d="M938 678q0 -74 -8 -160h-875q-6 -47 -6 -141t36 -170q88 -186 312 -191q345 0 434 330h43q-96 -369 -475 -371q-189 0 -290 120t-101 313q0 267 145 468t404 201q185 0 283 -116t98 -283zM897 675q0 157 -90 260t-250 101q-200 0 -334 -141q-120 -130 -160 -336h824
q10 49 10 116zM846 1204h-49l-168 266l-254 -266h-53l276 295h61z" />
    <glyph glyph-name="edieresis" unicode="&#xeb;" 
d="M938 678q0 -74 -8 -160h-875q-6 -47 -6 -141t36 -170q88 -186 312 -191q345 0 434 330h43q-96 -369 -475 -371q-189 0 -290 120t-101 313q0 267 145 468t404 201q185 0 283 -116t98 -283zM897 675q0 157 -90 260t-250 101q-200 0 -334 -141q-120 -130 -160 -336h824
q10 49 10 116zM786 1423l-26 -166h-43l26 166h43zM463 1423l-27 -166h-43l27 166h43z" />
    <glyph glyph-name="igrave" unicode="&#xec;" horiz-adv-x="266" 
d="M2 0h-45l225 1053h45zM4 1499l229 -295h-51l-229 295h51z" />
    <glyph glyph-name="iacute" unicode="&#xed;" horiz-adv-x="266" 
d="M2 0h-45l225 1053h45zM242 1204h-58l334 295h57z" />
    <glyph glyph-name="icircumflex" unicode="&#xee;" horiz-adv-x="266" 
d="M2 0h-45l225 1053h45zM492 1204h-50l-168 266l-254 -266h-53l277 295h61z" />
    <glyph glyph-name="idieresis" unicode="&#xef;" horiz-adv-x="266" 
d="M2 0h-45l225 1053h45zM449 1423l-27 -166h-43l27 166h43zM125 1423l-27 -166h-43l27 166h43z" />
    <glyph glyph-name="eth" unicode="&#xf0;" horiz-adv-x="1062" 
d="M53 391q0 -172 91.5 -273.5t271.5 -101.5q230 0 372 190.5t142 448.5q0 157 -101.5 257t-241.5 100q-257 0 -395.5 -184t-138.5 -437zM684 1329q287 -312 287 -641t-160.5 -521t-394.5 -192q-195 0 -299.5 113t-104.5 303q0 277 151 469.5t419 192.5q94 0 184 -46
t135 -133h4q-46 172 -141.5 289t-126.5 148l-272 -140l-27 31l272 137q-93 82 -170 123l39 29q98 -57 174 -131l275 139l26 -33z" />
    <glyph glyph-name="ntilde" unicode="&#xf1;" 
d="M608 1077q217 0 287 -164q23 -53 23 -108t-8 -97t-17 -83l-131 -625h-43q133 635 145 693q12 59 13 98q-2 123 -77 184t-192 61q-211 0 -346 -176q-105 -139 -153 -375l-105 -485h-43l227 1053h43l-26 -131l-27 -119l4 -4q72 129 172 203t254 75zM477 1382
q-70 0 -100 -83q-8 -22 -15 -39h-40q12 63 51 113t102 50t139 -62t135 -62q59 -1 101 116h39q-12 -58 -41 -94q-50 -62 -100 -63q-50 -2 -82 18t-64 44q-80 62 -125 62z" />
    <glyph glyph-name="ograve" unicode="&#xf2;" horiz-adv-x="1062" 
d="M12 391q0 275 148 481q148 205 401 205q189 0 297 -118q109 -118 109 -314q0 -255 -142 -450q-159 -218 -409 -220q-196 0 -300 113t-104 303zM53 391q0 -170 91 -272t272 -103q125 0 221 58q185 113 256 353q33 112 33 218q0 183 -100 287t-265 104q-239 0 -381 -207
q-127 -185 -127 -438zM432 1499l230 -295h-52l-229 295h51z" />
    <glyph glyph-name="oacute" unicode="&#xf3;" horiz-adv-x="1062" 
d="M12 391q0 275 148 481q148 205 401 205q189 0 297 -118q109 -118 109 -314q0 -255 -142 -450q-159 -218 -409 -220q-196 0 -300 113t-104 303zM53 391q0 -170 91 -272t272 -103q125 0 221 58q185 113 256 353q33 112 33 218q0 183 -100 287t-265 104q-239 0 -381 -207
q-127 -185 -127 -438zM625 1204h-58l334 295h57z" />
    <glyph glyph-name="ocircumflex" unicode="&#xf4;" horiz-adv-x="1062" 
d="M12 391q0 275 148 481q148 205 401 205q189 0 297 -118q109 -118 109 -314q0 -255 -142 -450q-159 -218 -409 -220q-196 0 -300 113t-104 303zM53 391q0 -170 91 -272t272 -103q125 0 221 58q185 113 256 353q33 112 33 218q0 183 -100 287t-265 104q-239 0 -381 -207
q-127 -185 -127 -438zM872 1204h-49l-168 266l-254 -266h-53l277 295h61z" />
    <glyph glyph-name="otilde" unicode="&#xf5;" horiz-adv-x="1062" 
d="M12 391q0 275 148 481q148 205 401 205q189 0 297 -118q109 -118 109 -314q0 -255 -142 -450q-159 -218 -409 -220q-196 0 -300 113t-104 303zM53 391q0 -170 91 -272t272 -103q125 0 221 58q185 113 256 353q33 112 33 218q0 183 -100 287t-265 104q-239 0 -381 -207
q-127 -185 -127 -438zM487 1382q-66 0 -100 -83q-8 -22 -14 -39h-41q12 63 51 113t101 50t140 -62q77 -62 136 -62q59 -1 100 116h39q-13 -62 -41 -95q-51 -61 -100 -62q-50 -2 -82 18t-64 44q-80 62 -125 62z" />
    <glyph glyph-name="odieresis" unicode="&#xf6;" horiz-adv-x="1062" 
d="M12 391q0 275 148 481q148 205 401 205q189 0 297 -118q109 -118 109 -314q0 -255 -142 -450q-159 -218 -409 -220q-196 0 -300 113t-104 303zM53 391q0 -170 91 -272t272 -103q125 0 221 58q185 113 256 353q33 112 33 218q0 183 -100 287t-265 104q-239 0 -381 -207
q-127 -185 -127 -438zM817 1423l-26 -166h-43l26 166h43zM494 1423l-27 -166h-43l27 166h43z" />
    <glyph glyph-name="divide" unicode="&#xf7;" horiz-adv-x="1228" 
d="M98 498v41h1032v-41h-1032zM614 868q-84 0 -84 86q0 36 25 59t59.5 23t59 -24.5t24.5 -84t-84 -59.5zM614 0q-84 0 -84 84q0 37 25 60.5t59.5 23.5t59 -24.5t24.5 -84t-84 -59.5z" />
    <glyph glyph-name="oslash" unicode="&#xf8;" horiz-adv-x="1062" 
d="M394 16q148 0 243.5 58.5t159 149.5t96.5 203t33 218q0 172 -86 264l-670 -817q76 -76 224 -76zM576 1036q-254 0 -388.5 -196t-134.5 -449q0 -176 88 -272l674 821q-97 96 -239 96zM12 391q0 274 147 480t402 206q172 0 281 -104l92 112l31 -24l-97 -117
q98 -111 99 -299q0 -254 -105.5 -400.5t-208 -208t-237.5 -61.5q-184 0 -273 84l-96 -118l-31 24l99 121q-103 111 -103 305z" />
    <glyph glyph-name="ugrave" unicode="&#xf9;" 
d="M334 -25q-216 0 -287 164q-37 85 -14 206q8 42 16 83l131 625h43q-133 -635 -145 -693q-12 -59 -12 -98q2 -123 76 -184q74 -62 192 -62q212 -1 346 177q103 136 154 374l102 486h45l-227 -1053h-43l26 131l27 119l-4 4q-72 -129 -172 -204t-254 -75zM420 1499l229 -295
h-51l-229 295h51z" />
    <glyph glyph-name="uacute" unicode="&#xfa;" 
d="M334 -25q-216 0 -287 164q-37 85 -14 206q8 42 16 83l131 625h43q-133 -635 -145 -693q-12 -59 -12 -98q2 -123 76 -184q74 -62 192 -62q212 -1 346 177q103 136 154 374l102 486h45l-227 -1053h-43l26 131l27 119l-4 4q-72 -129 -172 -204t-254 -75zM616 1204h-57
l334 295h57z" />
    <glyph glyph-name="ucircumflex" unicode="&#xfb;" 
d="M334 -25q-216 0 -287 164q-37 85 -14 206q8 42 16 83l131 625h43q-133 -635 -145 -693q-12 -59 -12 -98q2 -123 76 -184q74 -62 192 -62q212 -1 346 177q103 136 154 374l102 486h45l-227 -1053h-43l26 131l27 119l-4 4q-72 -129 -172 -204t-254 -75zM872 1204h-49
l-168 266l-254 -266h-53l277 295h61z" />
    <glyph glyph-name="udieresis" unicode="&#xfc;" 
d="M334 -25q-216 0 -287 164q-37 85 -14 206q8 42 16 83l131 625h43q-133 -635 -145 -693q-12 -59 -12 -98q2 -123 76 -184q74 -62 192 -62q212 -1 346 177q103 136 154 374l102 486h45l-227 -1053h-43l26 131l27 119l-4 4q-72 -129 -172 -204t-254 -75zM813 1423l-27 -166
h-43l27 166h43zM489 1423l-26 -166h-43l26 166h43z" />
    <glyph glyph-name="yacute" unicode="&#xfd;" horiz-adv-x="833" 
d="M-102 -362h-35l6 40q115 -4 160 22q45 25 71 58t58 82l90 158l-205 1055h45l195 -1000l575 1000h51l-690 -1194q-74 -122 -109 -153q-69 -62 -178 -66q-16 -2 -34 -2zM541 1204h-58l334 295h57z" />
    <glyph glyph-name="thorn" unicode="&#xfe;" horiz-adv-x="1099" 
d="M963 629q0 190 -81 298.5t-251 108.5q-125 0 -221.5 -66.5t-161 -168t-98 -221t-33.5 -226.5q0 -156 85 -247t249 -91q223 0 331.5 148.5t144.5 259.5t36 205zM631 1077q187 0 280 -119.5t93 -308.5q0 -117 -38 -236.5t-110 -217t-174 -159t-248 -61.5t-240 81t-104 220
h-4l-135 -638h-43l385 1824h43l-146 -688h5q154 303 436 303z" />
    <glyph glyph-name="ydieresis" unicode="&#xff;" horiz-adv-x="833" 
d="M-102 -362h-35l6 40q115 -4 160 22q45 25 71 58t58 82l90 158l-205 1055h45l195 -1000l575 1000h51l-690 -1194q-74 -122 -109 -153q-69 -62 -178 -66q-16 -2 -34 -2zM702 1423l-26 -166h-43l26 166h43zM379 1423l-27 -166h-43l27 166h43z" />
    <glyph glyph-name="Amacron" unicode="&#x100;" horiz-adv-x="1175" 
d="M932 522l-162 883h-4l-551 -883h717zM938 481h-750l-301 -481h-45l916 1462h41l270 -1462h-41zM1042 1741l-10 -41h-475l8 41h477z" />
    <glyph glyph-name="amacron" unicode="&#x101;" horiz-adv-x="985" 
d="M0 256q0 -238 294 -240q76 0 154 30q225 86 300 366l43 182l-5 4q-53 -61 -366 -61q-194 -10 -269 -50q-151 -78 -151 -231zM872 815q0 -46 -16 -129l-121 -514q-8 -36 -8 -76t19 -51q18 -12 52 -12t64 8v-41q-35 -8 -69 -8q-106 0 -107 108q0 41 7 65t14 50h-5
q-74 -121 -175 -180t-255 -60q-211 0 -286 142q-27 49 -27 137t39 155q40 67 104 103q110 62 316 63q80 5 154 5q260 2 260 216q-1 197 -168 230q-51 10 -113 10q-160 2 -257 -74t-132 -214h-41q76 326 413 328q338 2 338 -261zM868 1352l-10 -41h-475l8 41h477z" />
    <glyph glyph-name="Abreve" unicode="&#x102;" horiz-adv-x="1175" 
d="M932 522l-162 883h-4l-551 -883h717zM938 481h-750l-301 -481h-45l916 1462h41l270 -1462h-41zM796 1669q86 0 152 52q64 52 92 134h41q-25 -101 -104 -163t-180 -63q-103 -1 -165 61t-63 165h41q-4 -80 48 -133t138 -53z" />
    <glyph glyph-name="abreve" unicode="&#x103;" horiz-adv-x="985" 
d="M0 256q0 -238 294 -240q76 0 154 30q225 86 300 366l43 182l-5 4q-53 -61 -366 -61q-194 -10 -269 -50q-151 -78 -151 -231zM872 815q0 -46 -16 -129l-121 -514q-8 -36 -8 -76t19 -51q18 -12 52 -12t64 8v-41q-35 -8 -69 -8q-106 0 -107 108q0 41 7 65t14 50h-5
q-74 -121 -175 -180t-255 -60q-211 0 -286 142q-27 49 -27 137t39 155q40 67 104 103q110 62 316 63q80 5 154 5q260 2 260 216q-1 197 -168 230q-51 10 -113 10q-160 2 -257 -74t-132 -214h-41q76 326 413 328q338 2 338 -261zM592 1280q86 0 150 52t94 134h41
q-37 -151 -188 -210q-46 -17 -97 -17q-102 0 -165 61q-62 61 -62 166h41q-4 -80 48 -133t138 -53z" />
    <glyph glyph-name="Aogonek" unicode="&#x104;" horiz-adv-x="1175" 
d="M932 522l-162 883h-4l-551 -883h717zM803 -265q0 81 69 146.5t156 118.5l-90 481h-750l-301 -481h-45l916 1462h41l270 -1462q-164 -122 -191.5 -174.5t-27.5 -87.5t22.5 -57.5t63.5 -22.5q80 0 147 74l29 -27q-80 -88 -166 -88t-114.5 37t-28.5 81z" />
    <glyph glyph-name="aogonek" unicode="&#x105;" horiz-adv-x="985" 
d="M0 256q0 -130 79 -185t185 -55q193 0 313.5 105.5t170.5 290.5l43 182l-5 4q-53 -61 -366 -61q-192 -10 -306 -68t-114 -213zM612 -383q-131 0 -131 133q0 106 238 262q-33 27 -33 78t7 74.5t14 50.5h-5q-74 -121 -175 -180.5t-255 -59.5q-210 0 -261.5 95.5t-51.5 183.5
t39 154.5t126 116.5t294 50q80 5 154 5t132 19t92.5 67t34.5 130q0 138 -72.5 189t-219.5 52q-148 1 -245 -75.5t-132 -213.5h-41q76 326 413 328q338 2 338 -261q0 -46 -16 -129l-121 -514q-8 -36 -8 -76t19.5 -51.5t52.5 -11.5t63 8v-41q-36 -8 -64 -8t-46 4
q-224 -151 -224 -254q0 -39 22.5 -61.5t63.5 -22.5q79 0 148 74l29 -27q-80 -88 -179 -88z" />
    <glyph glyph-name="Cacute" unicode="&#x106;" horiz-adv-x="1402" 
d="M1403 1022h-41q0 197 -153 316q-153 118 -342 118q-349 0 -563 -279q-95 -126 -145 -288q-50 -163 -50 -315q-1 -152 39 -256q79 -207 277 -277q95 -35 210 -35q230 0 405 137t246 373h41q-63 -245 -252 -398t-447 -153t-410 162t-150 432q0 170 51 338q107 353 398 515
q148 83 356 84t369 -128t161 -346zM895 1593h-57l333 295h58z" />
    <glyph glyph-name="cacute" unicode="&#x107;" 
d="M907 735q0 301 -359 301q-102 0 -197 -57q-183 -110 -254 -357q-32 -116 -31 -231q0 -170 91 -272t271 -103q303 8 416 322h41q-46 -168 -172 -266q-126 -97 -303 -97t-281 113t-104 303q0 277 148 481q148 205 400 205q175 0 275 -88t100 -254h-41zM616 1204h-57
l334 295h57z" />
    <glyph glyph-name="Ccircumflex" unicode="&#x108;" horiz-adv-x="1402" 
d="M1403 1022h-41q0 197 -153 316q-153 118 -342 118q-349 0 -563 -279q-95 -126 -145 -288q-50 -163 -50 -315q-1 -152 39 -256q79 -207 277 -277q95 -35 210 -35q230 0 405 137t246 373h41q-63 -245 -252 -398t-447 -153t-410 162t-150 432q0 170 51 338q107 353 398 515
q148 83 356 84t369 -128t161 -346zM1159 1593h-49l-168 267l-254 -267h-53l276 295h62z" />
    <glyph glyph-name="ccircumflex" unicode="&#x109;" 
d="M907 735q0 301 -359 301q-102 0 -197 -57q-183 -110 -254 -357q-32 -116 -31 -231q0 -170 91 -272t271 -103q303 8 416 322h41q-46 -168 -172 -266q-126 -97 -303 -97t-281 113t-104 303q0 277 148 481q148 205 400 205q175 0 275 -88t100 -254h-41zM866 1204h-49
l-168 266l-254 -266h-53l276 295h62z" />
    <glyph glyph-name="Cdotaccent" unicode="&#x10a;" horiz-adv-x="1402" 
d="M1403 1022h-41q0 197 -153 316q-153 118 -342 118q-349 0 -563 -279q-95 -126 -145 -288q-50 -163 -50 -315q-1 -152 39 -256q79 -207 277 -277q95 -35 210 -35q230 0 405 137t246 373h41q-63 -245 -252 -398t-447 -153t-410 162t-150 432q0 170 51 338q107 353 398 515
q148 83 356 84t369 -128t161 -346zM932 1812l-27 -165h-43l27 165h43z" />
    <glyph glyph-name="cdotaccent" unicode="&#x10b;" 
d="M907 735q0 301 -359 301q-102 0 -197 -57q-183 -110 -254 -357q-32 -116 -31 -231q0 -170 91 -272t271 -103q303 8 416 322h41q-46 -168 -172 -266q-126 -97 -303 -97t-281 113t-104 303q0 277 148 481q148 205 400 205q175 0 275 -88t100 -254h-41zM645 1423l-27 -166
h-43l27 166h43z" />
    <glyph glyph-name="Ccaron" unicode="&#x10c;" horiz-adv-x="1402" 
d="M1403 1022h-41q0 197 -153 316q-153 118 -342 118q-349 0 -563 -279q-95 -126 -145 -288q-50 -163 -50 -315q-1 -152 39 -256q79 -207 277 -277q95 -35 210 -35q230 0 405 137t246 373h41q-63 -245 -252 -398t-447 -153t-410 162t-150 432q0 170 51 338q107 353 398 515
q148 83 356 84t369 -128t161 -346zM844 1593l-187 295h50l167 -266l254 266h54l-277 -295h-61z" />
    <glyph glyph-name="ccaron" unicode="&#x10d;" 
d="M907 735q0 301 -359 301q-102 0 -197 -57q-183 -110 -254 -357q-32 -116 -31 -231q0 -170 91 -272t271 -103q303 8 416 322h41q-46 -168 -172 -266q-126 -97 -303 -97t-281 113t-104 303q0 277 148 481q148 205 400 205q175 0 275 -88t100 -254h-41zM565 1204l-186 295
h49l168 -266l254 266h53l-276 -295h-62z" />
    <glyph glyph-name="Dcaron" unicode="&#x10e;" horiz-adv-x="1366" 
d="M438 41q222 0 311 30q162 55 274 175q164 177 215 454q17 92 17 189q0 471 -399 519q-117 13 -242 13h-274l-303 -1380h401zM614 1462q198 0 287 -19q187 -40 281 -153q116 -138 115 -405q-1 -268 -129 -509q-89 -167 -233 -261q-145 -94 -319 -108q-84 -7 -178 -7h-452
l321 1462h307zM711 1593l-187 295h49l168 -266l254 266h54l-277 -295h-61z" />
    <glyph glyph-name="dcaron" unicode="&#x10f;" horiz-adv-x="1263" 
d="M567 1036q-233 0 -383 -222q-66 -97 -98 -214t-33 -210q0 -266 188 -347q61 -27 167 -27t201 64q189 126 257 379q33 119 34 253t-83 229t-250 95zM389 -25q-182 0 -279 109t-98 291q0 115 37 239t109 226q72 104 174 171t248 67t248 -87q101 -86 102 -246h4l24 134
l127 583h43l-315 -1462h-43l33 156l33 129l-5 4q-96 -219 -289 -289q-69 -25 -153 -25zM1208 1167h-37l170 295h66z" />
    <glyph glyph-name="Dcroat" unicode="&#x110;" horiz-adv-x="1366" 
d="M438 41q222 0 311 29.5t153.5 72.5t120.5 103q104 112 168 282t64 357q0 188 -53 294.5t-141 161t-205 67.5t-242 13h-274l-141 -639h536l-8 -41h-537l-153 -700h401zM614 1462q199 0 336.5 -30t241.5 -153.5t104 -392.5t-108.5 -473t-251.5 -297.5t-273.5 -104.5
t-224.5 -11h-452l164 741h-168l8 41h168l149 680h307z" />
    <glyph glyph-name="dcroat" unicode="&#x111;" horiz-adv-x="1128" 
d="M567 1036q-233 0 -340.5 -159.5t-140.5 -276.5t-33 -210q0 -177 86 -275.5t231 -98.5q144 0 239.5 63.5t191 209.5t100.5 399q0 158 -84 253t-250 95zM389 -25q-182 0 -279.5 109t-97.5 291q0 115 37 238.5t108.5 227t174 170t248.5 66.5t248 -86t102 -246h4l24 134
l82 376h-352l8 41h353l36 166h43l-36 -166h157l-10 -41h-156l-270 -1255h-43l33 156l33 129l-5 4q-96 -218 -227 -266t-215 -48z" />
    <glyph glyph-name="Emacron" unicode="&#x112;" horiz-adv-x="1062" 
d="M952 41l-10 -41h-962l313 1462h928l-9 -41h-886l-138 -639h828l-8 -41h-830l-149 -700h923zM1016 1741l-10 -41h-476l9 41h477z" />
    <glyph glyph-name="emacron" unicode="&#x113;" 
d="M938 678q0 -74 -8 -160h-875q-6 -47 -6 -141t36 -170q88 -186 312 -191q345 0 434 330h43q-96 -369 -475 -371q-189 0 -290 120t-101 313q0 267 145 468t404 201q185 0 283 -116t98 -283zM897 675q0 157 -90 260t-250 101q-200 0 -334 -141q-120 -130 -160 -336h824
q10 49 10 116zM858 1352l-10 -41h-475l8 41h477z" />
    <glyph glyph-name="Ebreve" unicode="&#x114;" horiz-adv-x="1062" 
d="M952 41l-10 -41h-962l313 1462h928l-9 -41h-886l-138 -639h828l-8 -41h-830l-149 -700h923zM760 1669q86 0 150 52t94 134h40q-25 -103 -104 -164t-180 -62q-102 -1 -164 61t-64 165h41q-3 -80 49 -133t138 -53z" />
    <glyph glyph-name="ebreve" unicode="&#x115;" 
d="M938 678q0 -74 -8 -160h-875q-6 -47 -6 -141t36 -170q88 -186 312 -191q345 0 434 330h43q-96 -369 -475 -371q-189 0 -290 120t-101 313q0 267 145 468t404 201q185 0 283 -116t98 -283zM897 675q0 157 -90 260t-250 101q-200 0 -334 -141q-120 -130 -160 -336h824
q10 49 10 116zM594 1280q86 0 150 52t94 134h41q-37 -151 -188 -210q-46 -17 -97 -17q-102 0 -165 61q-62 61 -62 166h41q-4 -80 48 -133t138 -53z" />
    <glyph glyph-name="Edotaccent" unicode="&#x116;" horiz-adv-x="1062" 
d="M952 41l-10 -41h-962l313 1462h928l-9 -41h-886l-138 -639h828l-8 -41h-830l-149 -700h923zM811 1812l-27 -165h-43l27 165h43z" />
    <glyph glyph-name="edotaccent" unicode="&#x117;" 
d="M938 678q0 -74 -8 -160h-875q-6 -47 -6 -141t36 -170q88 -186 312 -191q345 0 434 330h43q-96 -369 -475 -371q-189 0 -290 120t-101 313q0 267 145 468t404 201q185 0 283 -116t98 -283zM897 675q0 157 -90 260t-250 101q-200 0 -334 -141q-120 -130 -160 -336h824
q10 49 10 116zM621 1423l-27 -166h-43l27 166h43z" />
    <glyph glyph-name="Eogonek" unicode="&#x118;" horiz-adv-x="1062" 
d="M573 -250q0 100 222 250h-815l313 1462h928l-9 -41h-886l-138 -639h828l-8 -41h-830l-149 -700h923l-10 -41h-92q-229 -151 -229 -258q0 -39 22.5 -61.5t63.5 -22.5q78 0 147 74l29 -27q-80 -88 -178 -88q-132 0 -132 133z" />
    <glyph glyph-name="eogonek" unicode="&#x119;" 
d="M897 675q0 155 -89 258t-251 103q-202 0 -328 -135t-166 -342h824q10 49 10 116zM315 -383q-131 0 -131 133q0 29 27.5 78.5t157.5 148.5q-168 8 -264.5 123.5t-96.5 307.5q0 267 144 468t405 201q185 0 283 -116t98 -282q0 -75 -8 -161h-875q-6 -47 -6 -141t63 -227.5
t285 -133.5q343 0 434 330h43q-93 -357 -450 -371q-71 -49 -116.5 -97t-61 -76.5t-15.5 -63.5t22.5 -57.5t63.5 -22.5q79 0 148 74l29 -27q-80 -88 -179 -88z" />
    <glyph glyph-name="Ecaron" unicode="&#x11a;" horiz-adv-x="1062" 
d="M952 41l-10 -41h-962l313 1462h928l-9 -41h-886l-138 -639h828l-8 -41h-830l-149 -700h923zM727 1593l-186 295h49l168 -266l254 266h53l-277 -295h-61z" />
    <glyph glyph-name="ecaron" unicode="&#x11b;" 
d="M938 678q0 -74 -8 -160h-875q-6 -47 -6 -141t36 -170q88 -186 312 -191q345 0 434 330h43q-96 -369 -475 -371q-189 0 -290 120t-101 313q0 267 145 468t404 201q185 0 283 -116t98 -283zM897 675q0 157 -90 260t-250 101q-200 0 -334 -141q-120 -130 -160 -336h824
q10 49 10 116zM532 1204l-186 295h49l168 -266l254 266h53l-276 -295h-62z" />
    <glyph glyph-name="Gcircumflex" unicode="&#x11c;" horiz-adv-x="1478" 
d="M109 563q0 -176 86 -320q87 -150 249 -201q102 -32 215 -36q285 4 460 189q156 162 224 448h-567l8 41h605l-146 -684h-41l43 203l51 198l-4 5q-92 -213 -246 -325t-387 -116q-131 4 -245 41t-197 133q-155 182 -149 432q0 181 52 349q109 353 404 502q150 77 344 75
q228 4 377 -120t168 -353h-41q-23 221 -157 329t-347 103q-184 2 -326 -73q-281 -149 -384 -484q-49 -160 -49 -336zM1169 1593h-49l-168 267l-254 -267h-53l277 295h61z" />
    <glyph glyph-name="gcircumflex" unicode="&#x11d;" horiz-adv-x="1062" 
d="M432 92q102 0 188 53q169 103 236 325q31 104 31 206q-18 364 -348 360q-205 0 -337 -171t-130 -388q0 -266 192 -355q66 -30 168 -30zM305 -387q-255 0 -327 181q-24 60 -19 145h41q-11 -140 73 -212q84 -73 230 -73q147 0 237 51t142 138q53 87 82 203t53 243l-4 4
q-55 -111 -159 -177t-218 -65q-203 0 -305 119t-100 307q0 104 34 212q71 227 268 334q99 54 237 54t234 -87t111 -251h5l28 154l33 160h41l-209 -975q-51 -240 -171 -352t-337 -113zM903 1204h-49l-168 266l-254 -266h-53l276 295h62z" />
    <glyph glyph-name="Gbreve" unicode="&#x11e;" horiz-adv-x="1478" 
d="M109 563q0 -176 86 -320q87 -150 249 -201q102 -32 215 -36q285 4 460 189q156 162 224 448h-567l8 41h605l-146 -684h-41l43 203l51 198l-4 5q-92 -213 -246 -325t-387 -116q-131 4 -245 41t-197 133q-155 182 -149 432q0 181 52 349q109 353 404 502q150 77 344 75
q228 4 377 -120t168 -353h-41q-23 221 -157 329t-347 103q-184 2 -326 -73q-281 -149 -384 -484q-49 -160 -49 -336zM901 1669q86 0 151 52t93 134h41q-25 -102 -104 -163q-79 -62 -181 -63q-103 -1 -165 61t-62 165h41q-4 -80 48 -133t138 -53z" />
    <glyph glyph-name="gbreve" unicode="&#x11f;" horiz-adv-x="1062" 
d="M432 92q102 0 188 53q169 103 236 325q31 104 31 206q-18 364 -348 360q-205 0 -337 -171t-130 -388q0 -266 192 -355q66 -30 168 -30zM305 -387q-255 0 -327 181q-24 60 -19 145h41q-11 -140 73 -212q84 -73 230 -73q147 0 237 51t142 138q53 87 82 203t53 243l-4 4
q-55 -111 -159 -177t-218 -65q-203 0 -305 119t-100 307q0 104 34 212q71 227 268 334q99 54 237 54t234 -87t111 -251h5l28 154l33 160h41l-209 -975q-51 -240 -171 -352t-337 -113zM639 1280q86 0 151 52t93 134h41q-37 -151 -188 -210q-46 -17 -97 -17q-102 0 -165 61
q-62 61 -62 166h41q-4 -80 48 -133t138 -53z" />
    <glyph glyph-name="Gdotaccent" unicode="&#x120;" horiz-adv-x="1478" 
d="M109 563q0 -176 86 -320q87 -150 249 -201q102 -32 215 -36q285 4 460 189q156 162 224 448h-567l8 41h605l-146 -684h-41l43 203l51 198l-4 5q-92 -213 -246 -325t-387 -116q-131 4 -245 41t-197 133q-155 182 -149 432q0 181 52 349q109 353 404 502q150 77 344 75
q228 4 377 -120t168 -353h-41q-23 221 -157 329t-347 103q-184 2 -326 -73q-281 -149 -384 -484q-49 -160 -49 -336zM938 1812l-27 -165h-43l27 165h43z" />
    <glyph glyph-name="gdotaccent" unicode="&#x121;" horiz-adv-x="1062" 
d="M432 92q102 0 188 53q169 103 236 325q31 104 31 206q-18 364 -348 360q-205 0 -337 -171t-130 -388q0 -266 192 -355q66 -30 168 -30zM305 -387q-255 0 -327 181q-24 60 -19 145h41q-11 -140 73 -212q84 -73 230 -73q147 0 237 51t142 138q53 87 82 203t53 243l-4 4
q-55 -111 -159 -177t-218 -65q-203 0 -305 119t-100 307q0 104 34 212q71 227 268 334q99 54 237 54t234 -87t111 -251h5l28 154l33 160h41l-209 -975q-51 -240 -171 -352t-337 -113zM662 1423l-27 -166h-43l26 166h44z" />
    <glyph glyph-name="Gcommaaccent" unicode="&#x122;" horiz-adv-x="1478" 
d="M109 563q0 -176 86 -320q87 -150 249 -201q102 -32 215 -36q285 4 460 189q156 162 224 448h-567l8 41h605l-146 -684h-41l43 203l51 198l-4 5q-92 -213 -246 -325t-387 -116q-131 4 -245 41t-197 133q-155 182 -149 432q0 181 52 349q109 353 404 502q150 77 344 75
q228 4 377 -120t168 -353h-41q-23 221 -157 329t-347 103q-184 2 -326 -73q-281 -149 -384 -484q-49 -160 -49 -336zM676 -102l-33 -160q-26 -114 -145 -125l8 33q51 10 71 38q19 28 27 66l31 148h41z" />
    <glyph glyph-name="gcommaaccent" unicode="&#x123;" horiz-adv-x="1062" 
d="M432 92q102 0 188 53q169 103 236 325q31 104 31 206q-18 364 -348 360q-205 0 -337 -171t-130 -388q0 -266 192 -355q66 -30 168 -30zM305 -387q-255 0 -327 181q-24 60 -19 145h41q-11 -140 73 -212q84 -73 230 -73q147 0 237 51t142 138q53 87 82 203t53 243l-4 4
q-55 -111 -159 -177t-218 -65q-203 0 -305 119t-100 307q0 104 34 212q71 227 268 334q99 54 237 54t234 -87t111 -251h5l28 154l33 160h41l-209 -975q-51 -240 -171 -352t-337 -113zM582 1262l32 159q21 114 144 125l-6 -33q-51 -10 -72 -37q-20 -28 -27 -67l-30 -147h-41z
" />
    <glyph glyph-name="Hcircumflex" unicode="&#x124;" horiz-adv-x="1327" 
d="M1176 782l147 680h41l-313 -1462h-41l157 741h-981l-159 -741h-41l313 1462h41l-145 -680h981zM1108 1593h-49l-168 267l-254 -267h-53l276 295h62z" />
    <glyph glyph-name="hcircumflex" unicode="&#x125;" 
d="M608 1077q217 0 287 -164q23 -53 23 -108t-8 -97t-17 -83l-131 -625h-43q133 635 145 693q12 59 13 98q-2 123 -77 184t-192 61q-211 0 -346 -176q-105 -139 -153 -375l-105 -485h-43l315 1462h43l-114 -540l-27 -119l4 -4q72 129 172 203t254 75zM926 1593h-49l-168 267
l-254 -267h-54l277 295h61z" />
    <glyph glyph-name="Hbar" unicode="&#x126;" horiz-adv-x="1327" 
d="M1176 782l49 230h-981l-49 -230h981zM1323 1462h41l-313 -1462h-41l157 741h-981l-159 -741h-41l313 1462h41l-88 -409h983z" />
    <glyph glyph-name="hbar" unicode="&#x127;" horiz-adv-x="1054" 
d="M639 1077q218 0 263.5 -108.5t45.5 -164.5t-24 -179l-131 -625h-43l149 713q8 39 8 78q-2 123 -76.5 184t-239 61t-283 -155t-169.5 -396l-104 -485h-43l270 1255h-147l8 41h147l37 166h43l-35 -166h324l-10 -41h-324l-69 -333l-27 -119l4 -4q72 129 172 203.5t254 74.5z
" />
    <glyph glyph-name="Itilde" unicode="&#x128;" horiz-adv-x="303" 
d="M-14 0l313 1462h41l-313 -1462h-41zM502 1688q63 0 104 116h39q-13 -62 -41 -95q-52 -62 -100 -62q-49 0 -82 19t-64 43q-80 62 -131 63q-67 0 -108 -123h-41q12 63 51 113t101 50t140 -62q30 -24 62 -43t70 -19z" />
    <glyph glyph-name="itilde" unicode="&#x129;" horiz-adv-x="266" 
d="M2 0h-45l225 1053h45zM104 1382q-66 0 -100 -83q-8 -22 -14 -39h-41q12 63 51 113t101 50t140 -62q77 -62 136 -62q59 -1 100 116h39q-13 -62 -41 -95q-51 -61 -100 -62q-51 -2 -83 18t-63 44q-80 62 -125 62z" />
    <glyph glyph-name="Imacron" unicode="&#x12a;" horiz-adv-x="303" 
d="M-14 0l313 1462h41l-313 -1462h-41zM602 1741l-10 -41h-475l8 41h477z" />
    <glyph glyph-name="imacron" unicode="&#x12b;" horiz-adv-x="266" 
d="M2 0h-45l225 1053h45zM487 1352l-10 -41h-475l8 41h477z" />
    <glyph glyph-name="Iogonek" unicode="&#x12e;" horiz-adv-x="303" 
d="M59 -295q-72 -88 -149 -88t-104 37.5t-27 78.5q0 77 66 145.5t141 121.5l313 1462h41l-313 -1462q-151 -118 -178 -172.5t-27 -89.5t21.5 -57.5t58.5 -22.5q69 0 133 74z" />
    <glyph glyph-name="iogonek" unicode="&#x12f;" horiz-adv-x="266" 
d="M264 1462h45l-47 -213h-45zM37 -295q-76 -88 -157 -88t-108.5 35.5t-27.5 81.5q0 80 60.5 140.5t152.5 125.5l225 1053h45l-225 -1053q-215 -154 -215 -258q0 -39 21.5 -61.5t60.5 -22.5q74 0 141 74z" />
    <glyph glyph-name="Idotaccent" unicode="&#x130;" horiz-adv-x="303" 
d="M-14 0l313 1462h41l-313 -1462h-41zM401 1812l-26 -165h-43l26 165h43z" />
    <glyph glyph-name="dotlessi" unicode="&#x131;" horiz-adv-x="266" 
d="M2 0h-45l225 1053h45z" />
    <glyph glyph-name="Jcircumflex" unicode="&#x134;" horiz-adv-x="948" 
d="M-2 295q0 -145 92 -217t244 -72q250 0 337 237q26 71 44 154l227 1065h43l-231 -1083q-42 -192 -116 -282q-109 -132 -302 -132q-192 0 -286 91q-93 91 -93 239q0 93 18 156h41q-18 -97 -18 -156zM1241 1593h-49l-168 267l-254 -267h-53l276 295h62z" />
    <glyph glyph-name="jcircumflex" unicode="&#x135;" horiz-adv-x="266" 
d="M-294 -324q19 0 55 -1t70 24q33 25 55 61t33 81q11 44 22 87l241 1125h45l-245 -1141q-30 -138 -62 -184q-63 -92 -178 -90q-42 0 -84 4l6 36q23 -2 42 -2zM487 1204h-49l-168 266l-254 -266h-53l277 295h61z" />
    <glyph glyph-name="Kcommaaccent" unicode="&#x136;" horiz-adv-x="1214" 
d="M141 537l-114 -537h-41l311 1462h41l-184 -868l1179 868h68l-852 -628l598 -834h-49l-582 809zM526 -102l-32 -160q-26 -114 -146 -125l8 33q51 10 71 38q19 28 28 66l30 148h41z" />
    <glyph glyph-name="kcommaaccent" unicode="&#x137;" horiz-adv-x="909" 
d="M74 414l-90 -414h-43l317 1462h43l-213 -989l836 580h69l-626 -439l438 -614h-55l-418 592zM360 -102l-32 -160q-26 -114 -146 -125l8 33q51 10 71 38q19 28 28 66l30 148h41z" />
    <glyph glyph-name="Lacute" unicode="&#x139;" horiz-adv-x="985" 
d="M883 41l-11 -41h-886l313 1462h43l-305 -1421h846zM377 1593h-58l334 295h58z" />
    <glyph glyph-name="lacute" unicode="&#x13a;" horiz-adv-x="266" 
d="M-43 0l307 1462h45l-307 -1462h-45zM322 1593h-58l334 295h57z" />
    <glyph glyph-name="Lcommaaccent" unicode="&#x13b;" horiz-adv-x="985" 
d="M883 41l-11 -41h-886l313 1462h43l-305 -1421h846zM422 -102l-33 -160q-26 -114 -145 -125l8 33q51 10 71 38q19 28 27 66l31 148h41z" />
    <glyph glyph-name="lcommaaccent" unicode="&#x13c;" horiz-adv-x="266" 
d="M-43 0l307 1462h45l-307 -1462h-45zM-20 -102l-33 -160q-26 -114 -146 -125l9 33q51 10 70 38t28 66l31 148h41z" />
    <glyph glyph-name="Lcaron" unicode="&#x13d;" horiz-adv-x="985" 
d="M883 41l-11 -41h-886l313 1462h43l-305 -1421h846zM547 1167h-37l170 295h65z" />
    <glyph glyph-name="lcaron" unicode="&#x13e;" horiz-adv-x="446" 
d="M-43 0l307 1462h45l-307 -1462h-45zM391 1167h-37l170 295h66z" />
    <glyph glyph-name="Ldot" unicode="&#x13f;" horiz-adv-x="985" 
d="M883 41l-11 -41h-886l313 1462h43l-305 -1421h846zM657 1055l-26 -166h-43l26 166h43z" />
    <glyph glyph-name="ldot" unicode="&#x140;" horiz-adv-x="415" 
d="M-43 0l307 1462h45l-307 -1462h-45zM393 1055l-26 -166h-43l26 166h43z" />
    <glyph glyph-name="Lslash" unicode="&#x141;" horiz-adv-x="985" 
d="M-14 0l123 586l-209 -133l14 57l209 131l176 821h43l-168 -788l485 305l-14 -57l-483 -306l-125 -575h846l-11 -41h-886z" />
    <glyph glyph-name="lslash" unicode="&#x142;" horiz-adv-x="266" 
d="M-43 649l10 58l162 110l135 645h45l-129 -610l178 121l-12 -58l-178 -120l-166 -795h-45l160 760z" />
    <glyph glyph-name="Nacute" unicode="&#x143;" horiz-adv-x="1366" 
d="M1034 0l-704 1415h-4l-297 -1415h-43l311 1462h55l705 -1415h4l299 1415h43l-313 -1462h-56zM879 1593h-58l334 295h57z" />
    <glyph glyph-name="nacute" unicode="&#x144;" 
d="M608 1077q217 0 287 -164q23 -53 23 -108t-8 -97t-17 -83l-131 -625h-43q133 635 145 693q12 59 13 98q-2 123 -77 184t-192 61q-211 0 -346 -176q-105 -139 -153 -375l-105 -485h-43l227 1053h43l-26 -131l-27 -119l4 -4q72 129 172 203t254 75zM596 1204h-57l333 295
h58z" />
    <glyph glyph-name="Ncommaaccent" unicode="&#x145;" horiz-adv-x="1366" 
d="M1034 0l-704 1415h-4l-297 -1415h-43l311 1462h55l705 -1415h4l299 1415h43l-313 -1462h-56zM557 -102l-33 -160q-26 -114 -145 -125l8 33q51 10 71 38q19 28 27 66l31 148h41z" />
    <glyph glyph-name="ncommaaccent" unicode="&#x146;" 
d="M608 1077q217 0 287 -164q23 -53 23 -108t-8 -97t-17 -83l-131 -625h-43q133 635 145 693q12 59 13 98q-2 123 -77 184t-192 61q-211 0 -346 -176q-105 -139 -153 -375l-105 -485h-43l227 1053h43l-26 -131l-27 -119l4 -4q72 129 172 203t254 75zM375 -102l-33 -160
q-26 -114 -145 -125l8 33q51 10 70 38t28 66l31 148h41z" />
    <glyph glyph-name="Ncaron" unicode="&#x147;" horiz-adv-x="1366" 
d="M1034 0l-704 1415h-4l-297 -1415h-43l311 1462h55l705 -1415h4l299 1415h43l-313 -1462h-56zM817 1593l-186 295h49l168 -266l254 266h53l-276 -295h-62z" />
    <glyph glyph-name="ncaron" unicode="&#x148;" 
d="M608 1077q217 0 287 -164q23 -53 23 -108t-8 -97t-17 -83l-131 -625h-43q133 635 145 693q12 59 13 98q-2 123 -77 184t-192 61q-211 0 -346 -176q-105 -139 -153 -375l-105 -485h-43l227 1053h43l-26 -131l-27 -119l4 -4q72 129 172 203t254 75zM555 1204l-186 295h49
l168 -266l254 266h53l-277 -295h-61z" />
    <glyph glyph-name="Omacron" unicode="&#x14c;" horiz-adv-x="1478" 
d="M1427 872q0 -156 -51 -320q-108 -350 -392 -507q-144 -80 -308 -80q-446 0 -570 359q-38 113 -38 267t50 319q106 350 391 507q144 80 308 80t273 -43q337 -133 337 -582zM1386 874q0 423 -310 542q-100 40 -256 40t-294 -78t-229 -202q-92 -124 -140 -283t-48 -303
q0 -274 145 -429t399 -155q176 0 314 78q270 154 371 486q48 160 48 304zM1165 1741l-10 -41h-475l8 41h477z" />
    <glyph glyph-name="omacron" unicode="&#x14d;" horiz-adv-x="1062" 
d="M12 391q0 275 148 481q148 205 401 205q189 0 297 -118q109 -118 109 -314q0 -255 -142 -450q-159 -218 -409 -220q-196 0 -300 113t-104 303zM53 391q0 -170 91 -272t272 -103q125 0 221 58q185 113 256 353q33 112 33 218q0 183 -100 287t-265 104q-239 0 -381 -207
q-127 -185 -127 -438zM883 1352l-11 -41h-475l9 41h477z" />
    <glyph glyph-name="Obreve" unicode="&#x14e;" horiz-adv-x="1478" 
d="M1427 872q0 -156 -51 -320q-108 -350 -392 -507q-144 -80 -308 -80q-446 0 -570 359q-38 113 -38 267t50 319q106 350 391 507q144 80 308 80t273 -43q337 -133 337 -582zM1386 874q0 423 -310 542q-100 40 -256 40t-294 -78t-229 -202q-92 -124 -140 -283t-48 -303
q0 -274 145 -429t399 -155q176 0 314 78q270 154 371 486q48 160 48 304zM899 1669q86 0 151 52t93 134h41q-25 -102 -104 -163q-79 -62 -181 -63q-103 -1 -165 61t-62 165h41q-4 -80 48 -133t138 -53z" />
    <glyph glyph-name="obreve" unicode="&#x14f;" horiz-adv-x="1062" 
d="M12 391q0 275 148 481q148 205 401 205q189 0 297 -118q109 -118 109 -314q0 -255 -142 -450q-159 -218 -409 -220q-196 0 -300 113t-104 303zM53 391q0 -170 91 -272t272 -103q125 0 221 58q185 113 256 353q33 112 33 218q0 183 -100 287t-265 104q-239 0 -381 -207
q-127 -185 -127 -438zM639 1280q86 0 151 52t93 134h41q-37 -151 -188 -210q-46 -17 -97 -17q-102 0 -165 61q-62 61 -62 166h41q-4 -80 48 -133t138 -53z" />
    <glyph glyph-name="Ohungarumlaut" unicode="&#x150;" horiz-adv-x="1478" 
d="M1427 872q0 -156 -51 -320q-108 -350 -392 -507q-144 -80 -308 -80q-446 0 -570 359q-38 113 -38 267t50 319q106 350 391 507q144 80 308 80t273 -43q337 -133 337 -582zM1386 874q0 423 -310 542q-100 40 -256 40t-294 -78t-229 -202q-92 -124 -140 -283t-48 -303
q0 -274 145 -429t399 -155q176 0 314 78q270 154 371 486q48 160 48 304zM745 1593h-57l334 295h57zM1073 1593h-57l334 295h57z" />
    <glyph glyph-name="ohungarumlaut" unicode="&#x151;" horiz-adv-x="1062" 
d="M12 391q0 275 148 481q148 205 401 205q189 0 297 -118q109 -118 109 -314q0 -255 -142 -450q-159 -218 -409 -220q-196 0 -300 113t-104 303zM53 391q0 -170 91 -272t272 -103q125 0 221 58q185 113 256 353q33 112 33 218q0 183 -100 287t-265 104q-239 0 -381 -207
q-127 -185 -127 -438zM475 1204h-57l334 295h57zM803 1204h-58l334 295h58z" />
    <glyph glyph-name="OE" unicode="&#x152;" horiz-adv-x="2009" 
d="M109 596q0 -274 140 -432t394 -158q147 0 248.5 66.5t140.5 103.5t49 53l207 975q-140 252 -454 252q-176 0 -311.5 -78t-227.5 -201.5t-139 -281.5t-47 -299zM634 -35q-265 0 -415.5 169t-150.5 444q0 164 49 331.5t151 300.5t248 210t304 77q342 0 478 -237l45 202h826
l-8 -41h-785l-137 -639h727l-8 -41h-725l-150 -700h818l-9 -41h-860l35 158h-4q-76 -90 -186.5 -141.5t-242.5 -51.5z" />
    <glyph glyph-name="oe" unicode="&#x153;" horiz-adv-x="1820" 
d="M799 929.5q-73 106.5 -218 106.5q-259 0 -393.5 -196t-134.5 -449q0 -172 89 -273.5t266 -101.5q121 0 230.5 79t171.5 245t62 325q0 158 -73 264.5zM1700 678q0 147 -82 252.5t-254 105.5t-291.5 -137t-161.5 -340h781q8 59 8 119zM1741 667q0 -83 -15 -149h-823
q-16 -70 -16 -146q0 -154 90.5 -255t259.5 -101q335 0 430 330h41q-45 -178 -165 -274.5t-306 -96.5q-129 0 -247 74t-140 270h-4q-147 -344 -438 -344q-193 0 -294.5 113t-101.5 303q0 274 147 480t408 206q162 0 252 -112t86 -281l4 -4q76 272 225.5 334.5t240.5 62.5
t160 -31.5t115 -88t68.5 -132t22.5 -158.5z" />
    <glyph glyph-name="Racute" unicode="&#x154;" horiz-adv-x="1214" 
d="M672 727q501 0 510 391q4 177 -120 253q-81 50 -222 50h-512l-146 -694h490zM854 1462q247 0 336 -172q35 -68 33 -169q-4 -193 -121 -306t-305 -117v-4q225 -32 221 -303q-4 -100 -6 -215t18 -176h-41q-32 88 -12 391q4 166 -104 241q-78 54 -201 54h-502l-143 -686h-41
l305 1462h563zM733 1593h-57l334 295h57z" />
    <glyph glyph-name="racute" unicode="&#x155;" horiz-adv-x="530" 
d="M539 1028q-110 0 -230 -110q-140 -134 -200 -390l-113 -528h-43l223 1053h45l-28 -135l-31 -130l4 -4q62 125 158 205t225 80q49 0 84 -8l-8 -41q-24 8 -86 8zM254 1204h-57l333 295h58z" />
    <glyph glyph-name="Rcommaaccent" unicode="&#x156;" horiz-adv-x="1214" 
d="M672 727q501 0 510 391q4 177 -120 253q-81 50 -222 50h-512l-146 -694h490zM854 1462q247 0 336 -172q35 -68 33 -169q-4 -193 -121 -306t-305 -117v-4q225 -32 221 -303q-4 -100 -6 -215t18 -176h-41q-32 88 -12 391q4 166 -104 241q-78 54 -201 54h-502l-143 -686h-41
l305 1462h563zM496 -102l-33 -160q-26 -114 -146 -125l9 33q51 10 70 38t28 66l31 148h41z" />
    <glyph glyph-name="rcommaaccent" unicode="&#x157;" horiz-adv-x="530" 
d="M539 1028q-110 0 -230 -110q-140 -134 -200 -390l-113 -528h-43l223 1053h45l-28 -135l-31 -130l4 -4q62 125 158 205t225 80q49 0 84 -8l-8 -41q-24 8 -86 8zM-20 -102l-33 -160q-26 -114 -146 -125l9 33q51 10 70 38t28 66l31 148h41z" />
    <glyph glyph-name="Rcaron" unicode="&#x158;" horiz-adv-x="1214" 
d="M672 727q501 0 510 391q4 177 -120 253q-81 50 -222 50h-512l-146 -694h490zM854 1462q247 0 336 -172q35 -68 33 -169q-4 -193 -121 -306t-305 -117v-4q225 -32 221 -303q-4 -100 -6 -215t18 -176h-41q-32 88 -12 391q4 166 -104 241q-78 54 -201 54h-502l-143 -686h-41
l305 1462h563zM690 1593l-186 295h49l168 -266l254 266h53l-276 -295h-62z" />
    <glyph glyph-name="rcaron" unicode="&#x159;" horiz-adv-x="530" 
d="M539 1028q-110 0 -230 -110q-140 -134 -200 -390l-113 -528h-43l223 1053h45l-28 -135l-31 -130l4 -4q62 125 158 205t225 80q49 0 84 -8l-8 -41q-24 8 -86 8zM348 1204l-186 295h49l168 -266l254 266h53l-276 -295h-62z" />
    <glyph glyph-name="Sacute" unicode="&#x15a;" horiz-adv-x="1251" 
d="M534 6q327 0 455 191q51 76 51 177t-34 154q-65 99 -226 151q-74 25 -152 47q-201 58 -282 115q-129 91 -129 246q4 206 151 309t351 101q377 0 470 -244q34 -86 25 -209h-40q15 214 -110 314t-330 99q-206 -1 -328 -87q-144 -98 -149 -289q-4 -191 259 -276
q74 -25 152 -47t152 -50q264 -95 262 -320q-1 -225 -184 -336q-139 -84 -335 -87q-257 0 -414 134t-135 386h41q-23 -220 124 -354q69 -61 167 -93t188 -32zM799 1593h-58l334 295h58z" />
    <glyph glyph-name="sacute" unicode="&#x15b;" horiz-adv-x="948" 
d="M721 268q0 144 -164 206q-45 16 -94 36t-107 40t-107 50q-48 31 -80 77t-32 120q0 135 104 207q104 73 255 73q274 0 335 -180q23 -66 13 -160h-41q28 227 -170 282q-61 17 -125 17q-139 0 -224 -53q-106 -67 -106 -193q0 -127 155 -187q44 -17 93 -37q48 -20 108 -38
q228 -75 228 -252q0 -155 -120 -233q-101 -66 -267 -68q-270 0 -352 159q-31 58 -31 145l4 77h43q-34 -265 181 -321q140 -37 275 -7t195 127q31 50 31 113zM549 1204h-57l333 295h58z" />
    <glyph glyph-name="Scircumflex" unicode="&#x15c;" horiz-adv-x="1251" 
d="M534 6q327 0 455 191q51 76 51 177t-34 154q-65 99 -226 151q-74 25 -152 47q-201 58 -282 115q-129 91 -129 246q4 206 151 309t351 101q377 0 470 -244q34 -86 25 -209h-40q15 214 -110 314t-330 99q-206 -1 -328 -87q-144 -98 -149 -289q-4 -191 259 -276
q74 -25 152 -47t152 -50q264 -95 262 -320q-1 -225 -184 -336q-139 -84 -335 -87q-257 0 -414 134t-135 386h41q-23 -220 124 -354q69 -61 167 -93t188 -32zM1061 1593h-49l-168 267l-254 -267h-53l276 295h61z" />
    <glyph glyph-name="scircumflex" unicode="&#x15d;" horiz-adv-x="948" 
d="M721 268q0 144 -164 206q-45 16 -94 36t-107 40t-107 50q-48 31 -80 77t-32 120q0 135 104 207q104 73 255 73q274 0 335 -180q23 -66 13 -160h-41q28 227 -170 282q-61 17 -125 17q-139 0 -224 -53q-106 -67 -106 -193q0 -127 155 -187q44 -17 93 -37q48 -20 108 -38
q228 -75 228 -252q0 -155 -120 -233q-101 -66 -267 -68q-270 0 -352 159q-31 58 -31 145l4 77h43q-34 -265 181 -321q140 -37 275 -7t195 127q31 50 31 113zM827 1204h-49l-168 266l-254 -266h-53l277 295h61z" />
    <glyph glyph-name="Scedilla" unicode="&#x15e;" horiz-adv-x="1251" 
d="M291 -299q84 -43 151 -43q68 0 113 27t45 80t-35 72.5t-76 19.5t-106 -27l-31 18l119 123q-191 16 -335.5 138.5t-121.5 375.5h41q-23 -221 120.5 -350t387.5 -129q297 0 387 133t90 235t-34.5 155t-93 89.5t-132 60t-214 65t-245 115t-104.5 228.5q4 206 149 308
t353 102q374 0 439 -165t56 -288h-40q15 214 -109 313t-329 99t-339.5 -92.5t-139.5 -282.5q-4 -190 164.5 -245.5t308 -96t245.5 -115t106 -231.5q0 -230 -163 -329t-355 -99q-23 0 -43 2l-74 -73l3 -5q83 28 139.5 -13.5t56.5 -93.5q0 -88 -57 -126.5t-139 -38.5t-175 45z
" />
    <glyph glyph-name="scedilla" unicode="&#x15f;" horiz-adv-x="948" 
d="M436 -235q0 92 -110 92q-41 0 -107 -27l-31 18l127 129q-323 29 -323 302l4 77h43q-43 -340 336 -340q230 0 288 94.5t58 157.5t-22.5 100.5t-59.5 63t-82 43t-94 36.5t-107.5 38.5t-106.5 50.5t-80 77t-32 150.5t105 177t254 72.5q274 0 316 -123t32 -217h-41
q28 225 -102 262t-194 37q-139 0 -234 -60t-95 -185q0 -126 99.5 -165.5t148.5 -59.5t192.5 -66.5t143.5 -223.5q0 -155 -112.5 -228t-274.5 -73h-8l-84 -81l2 -5q27 9 67 9t84.5 -32t44.5 -84q0 -88 -57 -126.5t-139 -38.5t-174 45l16 39q84 -43 152 -43t112.5 27t44.5 80z
" />
    <glyph glyph-name="Scaron" unicode="&#x160;" horiz-adv-x="1251" 
d="M534 6q327 0 455 191q51 76 51 177t-34 154q-65 99 -226 151q-74 25 -152 47q-201 58 -282 115q-129 91 -129 246q4 206 151 309t351 101q377 0 470 -244q34 -86 25 -209h-40q15 214 -110 314t-330 99q-206 -1 -328 -87q-144 -98 -149 -289q-4 -191 259 -276
q74 -25 152 -47t152 -50q264 -95 262 -320q-1 -225 -184 -336q-139 -84 -335 -87q-257 0 -414 134t-135 386h41q-23 -220 124 -354q69 -61 167 -93t188 -32zM731 1593l-186 295h49l168 -266l254 266h53l-276 -295h-62z" />
    <glyph glyph-name="scaron" unicode="&#x161;" horiz-adv-x="948" 
d="M721 268q0 144 -164 206q-45 16 -94 36t-107 40t-107 50q-48 31 -80 77t-32 120q0 135 104 207q104 73 255 73q274 0 335 -180q23 -66 13 -160h-41q28 227 -170 282q-61 17 -125 17q-139 0 -224 -53q-106 -67 -106 -193q0 -127 155 -187q44 -17 93 -37q48 -20 108 -38
q228 -75 228 -252q0 -155 -120 -233q-101 -66 -267 -68q-270 0 -352 159q-31 58 -31 145l4 77h43q-34 -265 181 -321q140 -37 275 -7t195 127q31 50 31 113zM518 1204l-186 295h49l168 -266l254 266h53l-276 -295h-62z" />
    <glyph glyph-name="Tcommaaccent" unicode="&#x162;" 
d="M123 1421l8 41h1100l-8 -41h-529l-303 -1421h-43l303 1421h-528zM371 -102l-33 -160q-26 -114 -145 -125l8 33q51 10 70 38t28 66l31 148h41z" />
    <glyph glyph-name="tcommaaccent" unicode="&#x163;" horiz-adv-x="493" 
d="M332 0q-58 -8 -120 -8q-149 0 -153 119q1 31 7 61t10 59l166 781h-199l8 41h199l69 331h43l-69 -331h229l-8 -41h-229l-164 -768q-17 -83 -21 -121q0 -63 50 -81q23 -8 87 -9q64 0 103 8zM176 -102l-33 -160q-26 -114 -145 -125l8 33q51 10 71 38q19 28 27 66l31 148h41z
" />
    <glyph glyph-name="Tcaron" unicode="&#x164;" 
d="M123 1421l8 41h1100l-8 -41h-529l-303 -1421h-43l303 1421h-528zM676 1593l-187 295h50l168 -266l254 266h53l-277 -295h-61z" />
    <glyph glyph-name="tcaron" unicode="&#x165;" horiz-adv-x="606" 
d="M551 1167h-37l170 295h66zM332 0q-58 -8 -120 -8q-149 0 -153 119q1 31 7 61t10 59l166 781h-199l8 41h199l69 331h43l-69 -331h229l-8 -41h-229l-164 -768q-17 -83 -21 -121q0 -63 50 -81q23 -8 87 -9q64 0 103 8z" />
    <glyph glyph-name="Tbar" unicode="&#x166;" 
d="M123 1421l8 41h1100l-8 -41h-529l-92 -430h387l-10 -41h-387l-201 -950h-43l203 950h-375l8 41h375l92 430h-528z" />
    <glyph glyph-name="tbar" unicode="&#x167;" horiz-adv-x="493" 
d="M219 -8q-160 0 -160 119q0 31 6.5 60.5t10.5 59.5l92 437h-217l8 41h217l66 303h-199l8 41h199l69 331h43l-69 -331h229l-8 -41h-229l-66 -303h254l-10 -41h-252l-90 -424q-6 -29 -12.5 -59.5t-7.5 -64.5q-2 -62 35.5 -74.5t100.5 -12.5q64 0 103 8l-8 -41
q-58 -8 -113 -8z" />
    <glyph glyph-name="Utilde" unicode="&#x168;" horiz-adv-x="1327" 
d="M113 355q-1 -68 33 -139q66 -140 233 -188q129 -39 319 -9q190 29 318 211q70 99 106 276l209 956h43l-205 -944q-46 -225 -149 -354q-160 -197 -467 -199q-207 0 -344 106t-137 308q0 75 22 203l193 880h43l-203 -934q-14 -105 -14 -173zM624 1762q40 50 103 50t139 -62
t130 -62t90 79q9 20 16 37h39q-6 -29 -20 -56q-47 -101 -136 -101q-51 0 -131 62q-118 92 -173 50q-36 -25 -48 -59q-12 -33 -19 -51h-41q11 63 51 113z" />
    <glyph glyph-name="utilde" unicode="&#x169;" 
d="M334 -25q-216 0 -287 164q-37 85 -14 206q8 42 16 83l131 625h43q-133 -635 -145 -693q-12 -59 -12 -98q2 -123 76 -184q74 -62 192 -62q212 -1 346 177q103 136 154 374l102 486h45l-227 -1053h-43l26 131l27 119l-4 4q-72 -129 -172 -204t-254 -75zM481 1382
q-70 0 -100 -83q-8 -22 -14 -39h-41q12 63 51 113t102 50t139 -62t135 -62q59 -1 101 116h39q-12 -58 -41 -94q-50 -62 -100 -63q-50 -2 -82 18t-64 44q-80 62 -125 62z" />
    <glyph glyph-name="Umacron" unicode="&#x16a;" horiz-adv-x="1327" 
d="M113 355q-1 -68 33 -139q66 -140 233 -188q129 -39 319 -9q190 29 318 211q70 99 106 276l209 956h43l-205 -944q-46 -225 -149 -354q-160 -197 -467 -199q-207 0 -344 106t-137 308q0 75 22 203l193 880h43l-203 -934q-14 -105 -14 -173zM1098 1741l-11 -41h-475l9 41
h477z" />
    <glyph glyph-name="umacron" unicode="&#x16b;" 
d="M334 -25q-216 0 -287 164q-37 85 -14 206q8 42 16 83l131 625h43q-133 -635 -145 -693q-12 -59 -12 -98q2 -123 76 -184q74 -62 192 -62q212 -1 346 177q103 136 154 374l102 486h45l-227 -1053h-43l26 131l27 119l-4 4q-72 -129 -172 -204t-254 -75zM856 1352l-10 -41
h-475l8 41h477z" />
    <glyph glyph-name="Ubreve" unicode="&#x16c;" horiz-adv-x="1327" 
d="M113 355q-1 -68 33 -139q66 -140 233 -188q129 -39 319 -9q190 29 318 211q70 99 106 276l209 956h43l-205 -944q-46 -225 -149 -354q-160 -197 -467 -199q-207 0 -344 106t-137 308q0 75 22 203l193 880h43l-203 -934q-14 -105 -14 -173zM840 1669q86 0 150 52t93 134
h41q-25 -101 -104 -163t-180 -63q-102 -1 -164 61t-64 165h41q-4 -80 48 -133q53 -53 139 -53z" />
    <glyph glyph-name="ubreve" unicode="&#x16d;" 
d="M334 -25q-216 0 -287 164q-37 85 -14 206q8 42 16 83l131 625h43q-133 -635 -145 -693q-12 -59 -12 -98q2 -123 76 -184q74 -62 192 -62q212 -1 346 177q103 136 154 374l102 486h45l-227 -1053h-43l26 131l27 119l-4 4q-72 -129 -172 -204t-254 -75zM596 1280
q86 0 150 52t94 134h41q-37 -151 -188 -210q-46 -17 -97 -17q-102 0 -165 61q-62 61 -62 166h41q-4 -80 48 -133t138 -53z" />
    <glyph glyph-name="Uring" unicode="&#x16e;" horiz-adv-x="1327" 
d="M113 355q-1 -68 33 -139q66 -140 233 -188q129 -39 319 -9q190 29 318 211q70 99 106 276l209 956h43l-205 -944q-46 -225 -149 -354q-160 -197 -467 -199q-207 0 -344 106t-137 308q0 75 22 203l193 880h43l-203 -934q-14 -105 -14 -173zM645 1741q0 82 57 139
q58 57 140 57t139 -57t57 -139t-57 -139q-57 -58 -139 -58t-140 58t-57 139zM686 1741q0 -66 45 -111t111 -45t110 45t45 111q0 67 -45 111q-44 44 -110 44t-111 -44t-45 -111z" />
    <glyph glyph-name="uring" unicode="&#x16f;" 
d="M334 -25q-216 0 -287 164q-37 85 -14 206q8 42 16 83l131 625h43q-133 -635 -145 -693q-12 -59 -12 -98q2 -123 76 -184q74 -62 192 -62q212 -1 346 177q103 136 154 374l102 486h45l-227 -1053h-43l26 131l27 119l-4 4q-72 -129 -172 -204t-254 -75zM391 1372
q-1 82 57 139t140 57t139 -56q57 -58 57 -140t-57 -139t-139 -57t-140 57t-57 139zM432 1372q0 -66 45 -110t111 -45q66 0 110 45q44 44 45 110q0 66 -45 111q-44 45 -110 45t-111 -45t-45 -111z" />
    <glyph glyph-name="Uhungarumlaut" unicode="&#x170;" horiz-adv-x="1327" 
d="M113 355q-1 -68 33 -139q66 -140 233 -188q129 -39 319 -9q190 29 318 211q70 99 106 276l209 956h43l-205 -944q-46 -225 -149 -354q-160 -197 -467 -199q-207 0 -344 106t-137 308q0 75 22 203l193 880h43l-203 -934q-14 -105 -14 -173zM692 1593h-57l334 295h57z
M1020 1593h-57l333 295h58z" />
    <glyph glyph-name="uhungarumlaut" unicode="&#x171;" 
d="M334 -25q-216 0 -287 164q-37 85 -14 206q8 42 16 83l131 625h43q-133 -635 -145 -693q-12 -59 -12 -98q2 -123 76 -184q74 -62 192 -62q212 -1 346 177q103 136 154 374l102 486h45l-227 -1053h-43l26 131l27 119l-4 4q-72 -129 -172 -204t-254 -75zM459 1204h-58
l334 295h58zM786 1204h-57l334 295h57z" />
    <glyph glyph-name="Uogonek" unicode="&#x172;" horiz-adv-x="1327" 
d="M449 -383q-132 0 -132 133q0 29 24 72t120 123q14 10 28 22q-277 26 -347 165.5t-70 230.5t22 219l193 880h43l-203 -934q-14 -105 -14 -173t33.5 -139t124 -142.5t279.5 -69.5t348 98t224 404l209 956h43l-205 -944q-46 -226 -177.5 -389.5t-438.5 -163.5h-12
q-51 -36 -98.5 -85.5t-62.5 -78t-15 -63.5t22.5 -57.5t63.5 -22.5q78 0 147 74l29 -27q-80 -88 -178 -88z" />
    <glyph glyph-name="uogonek" unicode="&#x173;" 
d="M496 -266q0 80 58 138t157 128l51 250l-2 4q-72 -129 -172.5 -204t-253.5 -75q-217 0 -263 109t-46 165t24 179l131 625h43l-149 -713q-8 -39 -8 -78q2 -123 76.5 -184.5t239 -61.5t283 155.5t169.5 395.5l102 486h45l-227 -1053q-215 -154 -215 -258q0 -39 21.5 -61.5
t60.5 -22.5q72 0 141 74l26 -27q-76 -88 -170 -88q-67 0 -94.5 36t-27.5 81z" />
    <glyph glyph-name="Wcircumflex" unicode="&#x174;" horiz-adv-x="1820" 
d="M285 0l-133 1462h41l126 -1409h5l710 1409h66l127 -1409h4l711 1409h47l-744 -1462h-53l-129 1425h-4l-721 -1425h-53zM1358 1593h-49l-168 267l-254 -267h-53l276 295h61z" />
    <glyph glyph-name="wcircumflex" unicode="&#x175;" horiz-adv-x="1402" 
d="M918 0h-62l-115 1012h-4l-536 -1012h-62l-121 1053h43l113 -1012h4l537 1012h61l115 -1012h4l535 1012h47zM1036 1204h-49l-168 266l-254 -266h-53l276 295h62z" />
    <glyph glyph-name="Ycircumflex" unicode="&#x176;" horiz-adv-x="1062" 
d="M518 659l715 803h51l-749 -841l-134 -621h-43l134 621l-398 841h47zM971 1593h-49l-168 267l-254 -267h-54l277 295h61z" />
    <glyph glyph-name="ycircumflex" unicode="&#x177;" horiz-adv-x="833" 
d="M-102 -362h-35l6 40q115 -4 160 22q45 25 71 58t58 82l90 158l-205 1055h45l195 -1000l575 1000h51l-690 -1194q-74 -122 -109 -153q-69 -62 -178 -66q-16 -2 -34 -2zM772 1204h-49l-168 266l-254 -266h-53l276 295h62z" />
    <glyph glyph-name="Ydieresis" unicode="&#x178;" horiz-adv-x="1062" 
d="M518 659l715 803h51l-749 -841l-134 -621h-43l134 621l-398 841h47zM918 1812l-27 -165h-43l26 165h44zM594 1812l-27 -165h-43l27 165h43z" />
    <glyph glyph-name="Zacute" unicode="&#x179;" 
d="M936 41l-6 -41h-1092l8 49l1284 1372h-972l10 41h1018l-8 -49l-1284 -1372h1042zM678 1593h-57l333 295h58z" />
    <glyph glyph-name="zacute" unicode="&#x17a;" horiz-adv-x="833" 
d="M678 41l-10 -41h-801l12 55l963 957h-727l8 41h786l-12 -47l-971 -965h752zM522 1204h-57l334 295h57z" />
    <glyph glyph-name="Zdotaccent" unicode="&#x17b;" 
d="M936 41l-6 -41h-1092l8 49l1284 1372h-972l10 41h1018l-8 -49l-1284 -1372h1042zM717 1812l-27 -165h-43l27 165h43z" />
    <glyph glyph-name="zdotaccent" unicode="&#x17c;" horiz-adv-x="833" 
d="M678 41l-10 -41h-801l12 55l963 957h-727l8 41h786l-12 -47l-971 -965h752zM565 1423l-26 -166h-43l26 166h43z" />
    <glyph glyph-name="Zcaron" unicode="&#x17d;" 
d="M936 41l-6 -41h-1092l8 49l1284 1372h-972l10 41h1018l-8 -49l-1284 -1372h1042zM631 1593l-187 295h50l168 -266l253 266h54l-277 -295h-61z" />
    <glyph glyph-name="zcaron" unicode="&#x17e;" horiz-adv-x="833" 
d="M678 41l-10 -41h-801l12 55l963 957h-727l8 41h786l-12 -47l-971 -965h752zM483 1204l-186 295h49l168 -266l254 266h53l-276 -295h-62z" />
    <glyph glyph-name="florin" unicode="&#x192;" horiz-adv-x="1138" 
d="M27 -362h-34q-34 0 -61 4l13 41q51 -7 107 -3t104.5 41t79 95.5t51 134.5t43.5 160l186 731h-235l12 41h233l90 356q40 151 104.5 204.5t205.5 53.5q58 0 98 -4l-12 -41l-86 4q-121 0 -179.5 -51t-91.5 -180l-86 -342h254l-12 -41h-252l-188 -738q-25 -98 -48.5 -183
t-82 -184t-213.5 -99z" />
    <glyph glyph-name="Scommaaccent" unicode="&#x218;" horiz-adv-x="1251" 
d="M534 6q327 0 455 191q51 76 51 177t-34 154q-65 99 -226 151q-74 25 -152 47q-201 58 -282 115q-129 91 -129 246q4 206 151 309t351 101q377 0 470 -244q34 -86 25 -209h-40q15 214 -110 314t-330 99q-206 -1 -328 -87q-144 -98 -149 -289q-4 -191 259 -276
q74 -25 152 -47t152 -50q264 -95 262 -320q-1 -225 -184 -336q-139 -84 -335 -87q-257 0 -414 134t-135 386h41q-23 -220 124 -354q69 -61 167 -93t188 -32zM535 -102l-33 -160q-26 -114 -146 -125l9 33q51 10 70 38t28 66l31 148h41z" />
    <glyph glyph-name="scommaaccent" unicode="&#x219;" horiz-adv-x="948" 
d="M721 268q0 144 -164 206q-45 16 -94 36t-107 40t-107 50q-48 31 -80 77t-32 120q0 135 104 207q104 73 255 73q274 0 335 -180q23 -66 13 -160h-41q28 227 -170 282q-61 17 -125 17q-139 0 -224 -53q-106 -67 -106 -193q0 -127 155 -187q44 -17 93 -37q48 -20 108 -38
q228 -75 228 -252q0 -155 -120 -233q-101 -66 -267 -68q-270 0 -352 159q-31 58 -31 145l4 77h43q-34 -265 181 -321q140 -37 275 -7t195 127q31 50 31 113zM362 -102l-32 -160q-26 -114 -146 -125l9 33q51 10 70 38t28 66l31 148h40z" />
    <glyph glyph-name="uni021A" unicode="&#x21a;" 
d="M123 1421l8 41h1100l-8 -41h-529l-303 -1421h-43l303 1421h-528zM371 -102l-33 -160q-26 -114 -145 -125l8 33q51 10 70 38t28 66l31 148h41z" />
    <glyph glyph-name="uni021B" unicode="&#x21b;" horiz-adv-x="493" 
d="M332 0q-58 -8 -120 -8q-149 0 -153 119q1 31 7 61t10 59l166 781h-199l8 41h199l69 331h43l-69 -331h229l-8 -41h-229l-164 -768q-17 -83 -21 -121q0 -63 50 -81q23 -8 87 -9q64 0 103 8zM176 -102l-33 -160q-26 -114 -145 -125l8 33q51 10 71 38q19 28 27 66l31 148h41z
" />
    <glyph glyph-name="circumflex" unicode="&#x2c6;" horiz-adv-x="266" 
d="M594 1204h-49l-168 266l-254 -266h-53l276 295h62z" />
    <glyph glyph-name="caron" unicode="&#x2c7;" horiz-adv-x="266" 
d="M299 1204l-186 295h49l168 -266l254 266h53l-277 -295h-61z" />
    <glyph glyph-name="uni02C9" unicode="&#x2c9;" horiz-adv-x="266" 
d="M590 1352l-10 -41h-476l9 41h477z" />
    <glyph glyph-name="breve" unicode="&#x2d8;" horiz-adv-x="266" 
d="M348 1280q86 0 150.5 52t93.5 134h41q-37 -153 -135.5 -190t-149.5 -37q-102 0 -164.5 61.5t-62.5 165.5h41q-4 -80 48 -133t138 -53z" />
    <glyph glyph-name="dotaccent" unicode="&#x2d9;" horiz-adv-x="266" 
d="M299 1423l-27 -166h-43l27 166h43z" />
    <glyph glyph-name="ring" unicode="&#x2da;" horiz-adv-x="266" 
d="M143 1372q0 82 57.5 139.5t139.5 57.5t139.5 -57.5t57.5 -139.5t-57.5 -139t-139.5 -57t-139.5 57t-57.5 139zM184 1372.5q0 -65.5 45 -110.5t111 -45t111 45t45 110.5t-45 110.5t-111 45t-111 -45t-45 -110.5z" />
    <glyph glyph-name="ogonek" unicode="&#x2db;" horiz-adv-x="266" 
d="M-266 -258q0 -39 22.5 -61.5t63.5 -22.5q80 0 147 74l29 -27q-80 -88 -166 -88t-114.5 37t-28.5 81q0 79 68.5 144t152.5 121h55q-229 -151 -229 -258z" />
    <glyph glyph-name="tilde" unicode="&#x2dc;" horiz-adv-x="266" 
d="M496 1298q60 0 104 117h39q-12 -59 -53 -108.5t-89 -49.5q-49 0 -81.5 19.5t-63 43t-62.5 43t-63 19.5q-47 0 -71 -32.5t-43 -89.5h-41q12 63 51 113t101 50t115.5 -43t85.5 -62.5t71 -19.5z" />
    <glyph glyph-name="hungarumlaut" unicode="&#x2dd;" horiz-adv-x="266" 
d="M143 1204h-57l334 295h57zM471 1204h-57l334 295h57z" />
    <glyph glyph-name="uni0394" unicode="&#x394;" horiz-adv-x="1251" 
d="M-131 0l901 1458h14l291 -1458h-1206zM762 1374l-825 -1337h1089z" />
    <glyph glyph-name="uni03A9" unicode="&#x3a9;" horiz-adv-x="1478" 
d="M1225.5 512q-140.5 -185 -385.5 -233l-56 -242h412l-8 -37h-449l68 309q232 27 376 212.5t144 414.5q0 228 -137 367t-354 139q-150 0 -275 -60.5t-214 -162t-138 -234.5t-49 -241q0 -181 79 -291t222 -144l-68 -309h-409l8 37h373l53 244q-147 53 -222 165.5t-75 267.5
t53 293t148.5 242.5t226.5 166t269 61.5t235.5 -39t205 -146.5t107.5 -351.5q0 -243 -140.5 -428z" />
    <glyph glyph-name="uni03BC" unicode="&#x3bc;" horiz-adv-x="1138" 
d="M395 -25q-193 0 -238.5 102.5t-45.5 186.5h-5l-24 -155l-102 -471h-43l305 1411h43l-121 -560q-21 -117 -19.5 -212.5t59 -178t183.5 -82.5q390 0 508 551l102 486h45l-227 -1053h-43l53 250l-4 4q-72 -129 -172 -204t-254 -75z" />
    <glyph glyph-name="pi" unicode="&#x3c0;" horiz-adv-x="1138" 
d="M831 -8q-88 0 -88 84q0 27 6.5 52.5t10.5 49.5l149 713h-594l-188 -891h-39l191 891h-158l8 37h985l-6 -37h-162l-149 -709q-4 -25 -10.5 -51.5t-6.5 -52.5q0 -53 53 -53t105 36l-8 -38q-47 -31 -99 -31z" />
    <glyph glyph-name="endash" unicode="&#x2013;" 
d="M1004 569l-9 -41h-1024l9 41h1024z" />
    <glyph glyph-name="emdash" unicode="&#x2014;" horiz-adv-x="2048" 
d="M238 528l8 41h1515l-8 -41h-1515z" />
    <glyph glyph-name="quoteleft" unicode="&#x2018;" horiz-adv-x="342" 
d="M184 1001l60 269q38 150 151 192l-8 -53q-53 -29 -73.5 -71t-30.5 -89l-56 -248h-43z" />
    <glyph glyph-name="quoteright" unicode="&#x2019;" horiz-adv-x="342" 
d="M360 1462l-59 -268q-38 -150 -151 -193l8 54q53 29 73.5 70.5t30.5 88.5l55 248h43z" />
    <glyph glyph-name="quotesinglbase" unicode="&#x201a;" horiz-adv-x="342" 
d="M119 201l-60 -269q-38 -150 -151 -192l8 53q53 29 73.5 71t30.5 89l56 248h43z" />
    <glyph glyph-name="quotedblleft" unicode="&#x201c;" horiz-adv-x="569" 
d="M190 1001l60 269q38 150 151 192l-8 -53q-53 -29 -73.5 -71t-30.5 -89l-56 -248h-43zM397 1001l60 269q38 150 151 192l-8 -53q-53 -29 -73.5 -71t-30.5 -89l-56 -248h-43z" />
    <glyph glyph-name="quotedblright" unicode="&#x201d;" horiz-adv-x="569" 
d="M375 1462l-60 -268q-38 -150 -151 -193l8 54q53 29 73.5 70.5t30.5 88.5l56 248h43zM582 1462l-60 -268q-38 -150 -151 -193l8 54q53 29 73.5 70.5t30.5 88.5l56 248h43z" />
    <glyph glyph-name="quotedblbase" unicode="&#x201e;" horiz-adv-x="569" 
d="M125 201l-59 -269q-38 -151 -152 -192l8 53q53 29 73.5 71t31.5 89l55 248h43zM332 201l-60 -269q-38 -150 -151 -192l8 53q53 29 73.5 71t30.5 89l56 248h43z" />
    <glyph glyph-name="dagger" unicode="&#x2020;" horiz-adv-x="1138" 
d="M162 920l6 41h432l107 501h43l-107 -501h428l-8 -41h-430l-258 -1209h-43l258 1209h-428z" />
    <glyph glyph-name="daggerdbl" unicode="&#x2021;" horiz-adv-x="1138" 
d="M463 115l-86 -402h-43l86 402h-432l10 41h430l184 862h-432l10 41h433l88 403h43l-88 -403h428l-11 -41h-428l-184 -862h428l-8 -41h-428z" />
    <glyph glyph-name="bullet" unicode="&#x2022;" 
d="M147 731q0 76 29 142.5t78 116.5t115.5 79t142.5 29t142.5 -29t116.5 -79t79 -116.5t29 -142.5t-29 -142.5t-79 -115.5t-116.5 -77.5t-142.5 -28.5t-142.5 28.5t-115.5 77.5t-78 115.5t-29 142.5z" />
    <glyph glyph-name="ellipsis" unicode="&#x2026;" horiz-adv-x="2048" 
d="M299 0l45 201h43l-45 -201h-43zM981 0l45 201h43l-45 -201h-43zM1663 0l45 201h43l-45 -201h-43z" />
    <glyph glyph-name="perthousand" unicode="&#x2030;" horiz-adv-x="2123" 
d="M1692 -25q-129 0 -207 74t-78 191q0 171 96.5 298.5t259.5 127.5q125 0 200 -69t75 -216t-71 -239.5t-138 -129.5t-137 -37zM1666 16q151 0 241 113.5t90 261.5q0 104 -55.5 169t-190.5 65t-219 -116.5t-84 -268.5q0 -102 66.5 -163t151.5 -61zM462 1417
q106 0 180.5 -68.5t74.5 -215.5t-99.5 -276.5t-259.5 -129.5q-116 0 -194 74t-78 190q0 172 97 299t279 127zM127 991q0 -102 66.5 -162.5t151.5 -60.5q153 0 242 113.5t89 261.5q0 104 -55.5 168.5t-190.5 64.5t-219 -116t-84 -269zM948 -25q-130 0 -208 73.5t-78 191.5
q0 171 96.5 298.5t259.5 127.5q125 0 199.5 -69t74.5 -216t-70.5 -239.5t-137 -129.5t-136.5 -37zM921 16q150 0 240 113.5t90 261.5q0 104 -55 169t-190 65t-219.5 -116.5t-84.5 -268.5q0 -102 67 -163t152 -61zM1153 1462h47l-975 -1532h-47z" />
    <glyph glyph-name="guilsinglleft" unicode="&#x2039;" horiz-adv-x="530" 
d="M119 565l268 285h4l-18 -76l-217 -231l123 -230l-13 -65h-4l-149 284z" />
    <glyph glyph-name="guilsinglright" unicode="&#x203a;" horiz-adv-x="530" 
d="M350 532l-268 -284h-4l18 76l217 231l-120 229l10 66h4l149 -285z" />
    <glyph glyph-name="fraction" unicode="&#x2044;" horiz-adv-x="342" 
d="M635 1462h47l-975 -1532h-47z" />
    <glyph glyph-name="Euro" unicode="&#x20ac;" horiz-adv-x="1138" 
d="M803 1386q-223 0 -377 -165q-129 -135 -195 -375h746l-29 -35h-727q-20 -104 -28 -203h675l-28 -35h-650v-36q0 -223 103 -369q113 -166 333 -166t394 205l-10 -70q-174 -170 -405 -170t-349 191q-100 158 -100 415h-150l27 35h125q6 102 28 203h-125l25 35h109
q160 578 612 571q197 6 334 -135l-23 -27q-145 131 -315 131z" />
    <glyph glyph-name="afii61289" unicode="&#x2113;" 
d="M324 157q0 -151 127 -151q93 0 206 88h5l14 -24q-123 -99 -225 -99q-66 0 -116 37t-50 127q0 50 77 408l-155 -146h-4l-19 25l189 172l123 575q37 170 102.5 239t132.5 69t107.5 -43t40.5 -130q0 -159 -133.5 -343.5t-337.5 -385.5q-84 -361 -84 -418zM842 1294
q0 74 -30 111t-68 37q-154 0 -212 -273l-116 -542q168 162 252 280.5t129 215.5t45 171z" />
    <glyph glyph-name="trademark" unicode="&#x2122;" horiz-adv-x="2027" 
d="M168 1421v41h655v-41h-307v-803h-41v803h-307zM1016 618v844h69l332 -786l332 786h70v-844h-41v803h-4l-336 -803h-41l-336 803h-4v-803h-41z" />
    <glyph glyph-name="Omega" unicode="&#x2126;" horiz-adv-x="1478" 
d="M1225.5 512q-140.5 -185 -385.5 -233l-56 -242h412l-8 -37h-449l68 309q232 27 376 212.5t144 414.5q0 228 -137 367t-354 139q-150 0 -275 -60.5t-214 -162t-138 -234.5t-49 -241q0 -181 79 -291t222 -144l-68 -309h-409l8 37h373l53 244q-147 53 -222 165.5t-75 267.5
t53 293t148.5 242.5t226.5 166t269 61.5t235.5 -39t205 -146.5t107.5 -351.5q0 -243 -140.5 -428z" />
    <glyph glyph-name="estimated" unicode="&#x212e;" horiz-adv-x="1228" 
d="M918 604v297q-129 123 -301.5 123t-294.5 -123v-297h596zM322 530v-370q121 -121 296 -121q129 0 223.5 58.5t172.5 187.5l71 -43q-96 -151 -202 -214t-246 -63t-237 44t-166.5 121t-106.5 179.5t-37 284t146.5 342t382.5 160.5q235 0 382.5 -159t147.5 -407h-827z" />
    <glyph glyph-name="partialdiff" unicode="&#x2202;" horiz-adv-x="909" 
d="M357 1475q128 0 281 -129.5t153 -579.5q0 -277 -70 -477t-167.5 -258t-187.5 -58q-166 0 -262 146t-96 317t98 298.5t271 127.5q113 0 211 -60.5t160 -152.5q2 35 2 44v100q0 231 -72.5 394t-159 208t-163.5 45t-132 -25.5t-114 -68.5l-23 32q143 97 271 97zM360 827
q-74 0 -134 -35.5t-119.5 -119.5t-59.5 -244q0 -159 85.5 -290.5t229.5 -131.5q100 0 172 62.5t140.5 199.5t68.5 332q-119 167 -214 197t-169 30z" />
    <glyph glyph-name="Delta" unicode="&#x2206;" horiz-adv-x="1251" 
d="M-131 0l901 1458h14l291 -1458h-1206zM762 1374l-825 -1337h1089z" />
    <glyph glyph-name="product" unicode="&#x220f;" horiz-adv-x="1441" 
d="M1214 -438v2011h-987v-2011h-37v2048h1061v-2048h-37z" />
    <glyph glyph-name="summation" unicode="&#x2211;" horiz-adv-x="1214" 
d="M55 -438v37l699 995l-668 979v37h981v-37h-936l670 -979l-699 -995h985v-37h-1032z" />
    <glyph glyph-name="minus" unicode="&#x2212;" horiz-adv-x="1228" 
d="M1130 539v-41h-1032v41h1032z" />
    <glyph glyph-name="uni2215" unicode="&#x2215;" horiz-adv-x="342" 
d="M635 1462h47l-975 -1532h-47z" />
    <glyph glyph-name="uni2219" unicode="&#x2219;" horiz-adv-x="569" 
d="M223 696.5q0 28.5 18.5 47t47 18.5t47 -18.5t18.5 -47t-18.5 -47t-47 -18.5t-47 18.5t-18.5 47z" />
    <glyph glyph-name="radical" unicode="&#x221a;" horiz-adv-x="909" 
d="M461 -449h-21l-385 791l-90 -43l-12 31l119 57l368 -764l432 1970l37 -2z" />
    <glyph glyph-name="infinity" unicode="&#x221e;" horiz-adv-x="1478" 
d="M1305 492q0 -110 -67 -181t-181 -71q-143 0 -240.5 95t-140.5 132q-45 -37 -86 -76t-113 -94t-186 -55q-113 0 -179.5 69.5t-66.5 179.5t66.5 183.5t186.5 73.5t229.5 -97.5t148.5 -130.5q120 107 210.5 167.5t187.5 60.5q98 0 164.5 -73t66.5 -183zM1268 491
q0 93 -54.5 156.5t-156.5 63.5t-213 -93.5t-146 -123.5q111 -105 190 -161.5t175 -56.5t150.5 61t54.5 154zM84 492q0 -92 53 -152.5t152 -60.5q126 0 224.5 89t135.5 124q-232 219 -370 219q-87 0 -141 -63.5t-54 -155.5z" />
    <glyph glyph-name="integral" unicode="&#x222b;" horiz-adv-x="1099" 
d="M481 -290v1365q0 29 -1 80t2.5 151.5t43.5 202t133 101.5q27 0 50.5 -13t23.5 -39q0 -50 -47 -51q-25 0 -35 13.5t-26 29.5l-11 4q-59 0 -86 -192q-8 -91 -8 -270v-998q0 -31 1 -82t-5.5 -250.5t-171.5 -199.5q-25 0 -45 14t-20 38q0 50 45 50q25 0 43.5 -23.5
t27.5 -23.5q86 0 86 93z" />
    <glyph glyph-name="approxequal" unicode="&#x2248;" horiz-adv-x="1214" 
d="M105.5 670.5q-50.5 -50.5 -72.5 -119.5h-37q43 138 114.5 172.5t103.5 34.5t57.5 -6.5t30.5 -8.5t82.5 -24.5t127.5 -39.5t83.5 -29.5t98 -32t104.5 -19.5q73 0 126.5 51.5t74.5 120.5h37q-42 -137 -141 -184q-61 -31 -92 -23q-207 45 -296 78t-166.5 56.5t-131.5 23.5
q-53 0 -103.5 -50.5zM108 330q-53 -51 -75 -119h-37q41 136 143 184q66 28 88 23q49 -12 99.5 -22.5t89.5 -21.5t88 -29.5t146 -51.5t143 -33q77 0 131 50t75 120h37q-42 -137 -141 -184q-61 -31 -92 -23q-200 45 -292.5 78t-168.5 56.5t-128 23.5q-53 0 -106 -51z" />
    <glyph glyph-name="notequal" unicode="&#x2260;" horiz-adv-x="1214" 
d="M49 287v37h381l182 340h-563v36h582l153 287l33 -16l-143 -271h362v-36h-383l-182 -340h565v-37h-583l-154 -287l-33 16l146 271h-363z" />
    <glyph glyph-name="lessequal" unicode="&#x2264;" horiz-adv-x="1214" 
d="M49 532v37l987 424v-39l-944 -403l944 -399v-39zM49 -6v37h987v-37h-987z" />
    <glyph glyph-name="greaterequal" unicode="&#x2265;" horiz-adv-x="1214" 
d="M49 113v39l944 399l-944 403v39l987 -424v-37zM49 -6v37h987v-37h-987z" />
    <glyph glyph-name="lozenge" unicode="&#x25ca;" horiz-adv-x="1214" 
d="M614 -72h-16l-348 801l348 801h16l351 -801zM606 1460l-315 -731l315 -731l318 731z" />
    <glyph glyph-name="uniF8FF" unicode="&#xf8ff;" horiz-adv-x="1048" 
d="M1049 1470v-1470h-1049v1470h1049zM946 102v1264h-844v-1264h844zM680 988q0 56 -46 106.5t-109.5 50.5t-109.5 -45t-59 -150l-102 17q14 145 90 212.5t186 67.5t182 -73.5t72 -194.5q0 -66 -25.5 -120t-102.5 -124t-89 -108.5t-12 -147.5h-94l-4 35q0 113 26.5 165.5
t93.5 118.5t85 100t18 90zM455 240v137h114v-137h-114z" />
    <glyph glyph-name="dotlessj" horiz-adv-x="266" 
d="M-239 -362q-63 0 -103 4l6 36q23 -2 42 -2t55 -1t70 24t55.5 61.5t32.5 80.5t22 87l241 1125h45l-245 -1141q-30 -138 -77 -206t-144 -68z" />
    <glyph glyph-name="grave.cap" horiz-adv-x="266" 
d="M231 1888l230 -295h-51l-230 295h51z" />
    <glyph glyph-name="acute.cap" horiz-adv-x="266" 
d="M236 1593h-58l334 295h57z" />
    <glyph glyph-name="circumflex.cap" horiz-adv-x="266" 
d="M594 1593h-49l-168 267l-254 -267h-53l276 295h62z" />
    <glyph glyph-name="caron.cap" horiz-adv-x="266" 
d="M299 1593l-186 295h49l168 -266l254 266h53l-277 -295h-61z" />
    <glyph glyph-name="caron.alt" horiz-adv-x="266" 
d="M289 1167h-37l170 295h65z" />
    <glyph glyph-name="tilde.cap" horiz-adv-x="266" 
d="M496 1688q63 0 104 116h39q-14 -66 -41 -98q-52 -59 -101 -59t-81 19t-64 43q-118 92 -173 50q-36 -25 -48 -59q-12 -33 -18 -51h-41q12 63 51 113t101 50t140 -62q30 -24 62 -43t70 -19z" />
    <glyph glyph-name="dieresis.cap" horiz-adv-x="266" 
d="M549 1812l-27 -165h-43l27 165h43zM225 1812l-26 -165h-43l26 165h43z" />
    <glyph glyph-name="macron.cap" horiz-adv-x="266" 
d="M590 1741l-10 -41h-476l9 41h477z" />
    <glyph glyph-name="breve.cap" horiz-adv-x="266" 
d="M347 1669q87 0 152 52t93 134h41q-25 -102 -104 -163q-79 -62 -182 -63t-165 61t-61 165h41q-4 -80 47 -133t138 -53z" />
    <glyph glyph-name="ring.cap" horiz-adv-x="266" 
d="M143 1741q0 82 57.5 139t139.5 57t139.5 -57t57.5 -139t-57.5 -139.5t-139.5 -57.5t-139.5 57.5t-57.5 139.5zM184 1740.5q0 -65.5 45 -110.5t111 -45t111 45t45 110.5t-45 110.5t-111 45t-111 -45t-45 -110.5z" />
    <glyph glyph-name="hungarumlaut.cap" horiz-adv-x="266" 
d="M143 1593h-57l334 295h57zM471 1593h-57l334 295h57z" />
    <glyph glyph-name="dotaccent.cap" horiz-adv-x="266" 
d="M299 1812l-27 -165h-43l27 165h43z" />
    <glyph glyph-name="commaaccent" horiz-adv-x="569" 
d="M-20 -102l-33 -160q-26 -114 -146 -125l9 33q51 10 70.5 37.5t27.5 66.5l31 148h41z" />
    <glyph glyph-name="commaaccent.alt" horiz-adv-x="569" 
d="M201 1262l32 159q23 113 144 125l-6 -33q-51 -10 -72 -37q-20 -28 -27 -67l-30 -147h-41z" />
    <glyph glyph-name="commaaccenttwo" horiz-adv-x="569" 
d="M201 1262l32 159q21 114 144 125l-6 -33q-51 -10 -71.5 -37.5t-27.5 -66.5l-30 -147h-41z" />
    <glyph glyph-name="carontwo" horiz-adv-x="266" 
d="M289 1167h-37l170 295h65z" />
    </font>
</defs>
</svg>
