<?xml version="1.0" standalone="no"?>
<!DOCTYPE svg PUBLIC "-//W3C//DTD SVG 1.1//EN" "http://www.w3.org/Graphics/SVG/1.1/DTD/svg11.dtd" >
<svg xmlns="http://www.w3.org/2000/svg">
<metadata>
Created by FontPrep 20130207 at Thu Jun 25 05:52:21 2015
 By Rezki Bangsawan
Copyright (c) 1991, 2002 Adobe Systems Incorporated. All Rights Reserved.  (c) Copyright 1991, 2002 The Monotype Corporation Plc. All Rights Reserved.
</metadata>
<defs>
<font id="6929d8286dd45beed6efb79044785eb7" horiz-adv-x='1024' >
  <font-face 
    font-family="PlantinStd-LightItalic"
    font-weight="300"
    font-style="italic"
    font-stretch="normal"
    units-per-em="2048"
    panose-1="2 4 5 3 6 5 6 9 2 3"
    ascent="1423"
    descent="-625"
    x-height="909"
    cap-height="1397"
    bbox="-535 -535.043 2296 1825"
    underline-thickness="102"
    underline-position="-102"
    slope="-17"
    unicode-range="U+0020-FB02"
  />
<missing-glyph horiz-adv-x="1333" 
d="M412 1239v-1044l348 522zM473 102h696l-348 523zM883 717l348 -522v1044zM821 809l348 522h-696zM309 0v1434h1024v-1434h-1024z" />
    <glyph glyph-name=".notdef" horiz-adv-x="1333" 
d="M412 1239v-1044l348 522zM473 102h696l-348 523zM883 717l348 -522v1044zM821 809l348 522h-696zM309 0v1434h1024v-1434h-1024z" />
    <glyph glyph-name=".null" horiz-adv-x="0" 
 />
    <glyph glyph-name="nonmarkingreturn" horiz-adv-x="681" 
 />
    <glyph glyph-name="space" unicode=" " horiz-adv-x="542" 
 />
    <glyph glyph-name="exclam" unicode="!" horiz-adv-x="555" 
d="M182 211q47 0 82 -35t35 -82t-35 -82t-82 -35t-82 35t-34 82q0 47 34 82q35 35 82 35zM311 408h-57l199 895q15 75 37 97t83 21q96 0 97 -59q0 -29 -27 -96z" />
    <glyph glyph-name="quotedbl" unicode="&#x22;" horiz-adv-x="659" 
d="M265 1366q50 0 85 -34t35 -92t-23 -161l-73 -327h-45l-72 327q-22 105 -22 161t32 91q33 35 83 35zM563 1240q0 56 33 91t83 35t85 -34t35 -92t-23 -161l-74 -327h-45l-71 327q-23 105 -23 161z" />
    <glyph glyph-name="numbersign" unicode="#" horiz-adv-x="1368" 
d="M1044 883h-436l-82 -387h437zM1376 987v-104h-227l-82 -387h309v-105h-329l-86 -411h-105l86 411h-436l-86 -411h-105l86 411h-206v105h227l82 387h-309v104h331l84 410h105l-84 -410h434l86 410h104l-84 -410h205z" />
    <glyph glyph-name="dollar" unicode="$" horiz-adv-x="1067" 
d="M766 297q0 96 -74 190l-123 -450q92 23 145 93q52 71 52 167zM555 635l-160 -592q63 -33 121 -10l135 502zM768 1276q-29 0 -43 -4l-119 -447l96 -106l144 541q-49 16 -78 16zM504 1028q0 -84 63 -156l103 388q-166 -82 -166 -232zM211 369q84 0 65 -172q0 -88 72 -134
l168 619q-150 145 -149 309q0 127 88 218t233 118l19 70h51l-17 -64q61 0 121 -18l21 82h51l-25 -97q186 -80 187 -237q0 -51 -20 -84t-53 -33q-32 0 -51 23t-20 57l13 102q0 66 -72 113l-152 -563q96 -104 132 -171t36 -161t-56 -186q-57 -92 -141 -131t-157 -47l-51 -189
h-51l51 184q-61 -6 -125 11l-51 -195h-52l56 209q-195 98 -195 254q0 113 74 113z" />
    <glyph glyph-name="percent" unicode="%" horiz-adv-x="1622" 
d="M172 -86l1323 1507h98l-1323 -1507h-98zM684 1167q0 66 -29 104t-73 38q-110 0 -186 -244q-46 -150 -46 -216q0 -67 29 -105t77 -38t93 46q45 44 90 196t45 219zM782 1118q0 -178 -102 -318t-229 -141q-90 0 -145 68q-54 68 -54 178q0 171 101 311t227 140q88 0 145 -68
t57 -170zM1438 496q0 66 -29 104t-74 37q-45 0 -80 -35q-59 -59 -105 -209t-46 -216t29 -104t77 -38t92 45q44 46 90 198t46 218zM1536 446q0 -178 -102 -318t-230 -140q-90 0 -144 68t-54 177q0 171 101 311t226 140q87 0 145 -68t58 -170z" />
    <glyph glyph-name="ampersand" unicode="&#x26;" horiz-adv-x="1921" 
d="M885 102q153 0 287 45t217 127q117 118 117 252t-87 218q-86 84 -215 83q-90 0 -154 -43t-65 -94q0 -51 28 -73q29 -23 63 -27t62 -28t28 -64t-24 -63q-22 -24 -55 -23q-69 0 -117 64t-48 153q0 127 94 218t225 91q76 0 163 -30t150 -66q171 -96 254 -94q47 0 81 36
t34 80q0 76 -87 82q-32 2 -60 18t-27 53q0 35 25 61t57 26q63 0 107 -60t44 -157q0 -96 -68 -175t-167 -79q-98 0 -219 72l-4 -5q45 -78 45 -188q0 -174 -129 -303q-128 -129 -270 -181t-326 -53q-381 0 -555 175q-131 131 -131 296q0 299 368 435q-84 70 -84 168
q0 133 138 253t333 119q139 0 239 -54t101 -130q1 -35 -25 -61t-69 -27q-43 0 -65 34q-22 33 -28 73q-5 40 -44 74t-119 34q-131 0 -217 -92t-86 -174q0 -161 219 -183l-10 -49l-45 2q-86 2 -178 -28t-144 -82q-111 -111 -110 -248q0 -164 152 -286t401 -122z" />
    <glyph glyph-name="quotesingle" unicode="'" horiz-adv-x="329" 
d="M309 1366q51 0 85 -34t34 -92t-22 -161l-74 -327h-45l-72 327q-23 105 -23 161t33 91t84 35z" />
    <glyph glyph-name="parenleft" unicode="(" horiz-adv-x="555" 
d="M258 152q0 -286 82 -508l-27 -21q-139 299 -139 610q0 571 409 992q105 108 224 190l29 -18q-298 -249 -451 -637q-127 -322 -127 -608z" />
    <glyph glyph-name="parenright" unicode=")" horiz-adv-x="555" 
d="M430 883q0 274 -82 514l25 18q141 -297 141 -629t-162 -636t-471 -527l-28 19q43 35 102 94q227 227 351 550t124 597z" />
    <glyph glyph-name="asterisk" unicode="*" horiz-adv-x="960" 
d="M807 1421l51 -14l-22 -352l338 -51v-54l-338 -80l55 -344l-49 -22l-178 305l-314 -170l-33 45l228 266l-254 242l33 45l325 -131z" />
    <glyph glyph-name="plus" unicode="+" horiz-adv-x="1366" 
d="M225 594h486v485h108v-485h486v-109h-486v-485h-108v485h-486v109z" />
    <glyph glyph-name="comma" unicode="," horiz-adv-x="555" 
d="M287 -16q0 32 -26 54q-27 22 -57 31t-56 37t-26 72q0 45 35 77q33 32 95 32q62 -1 110 -63t48 -152q0 -150 -127 -262t-324 -115v57q158 2 243 73t85 159z" />
    <glyph glyph-name="hyphen" unicode="-" horiz-adv-x="768" 
d="M143 535h615l-45 -144h-615z" />
    <glyph glyph-name="period" unicode="." horiz-adv-x="555" 
d="M266 211q47 0 82 -35t35 -82t-35 -82t-82 -35t-82 35t-34 82q0 47 34 82q35 35 82 35z" />
    <glyph glyph-name="slash" unicode="/" horiz-adv-x="546" 
d="M541 1421h88l-459 -1697h-88z" />
    <glyph glyph-name="zero" unicode="0" 
d="M328 320q0 -126 47 -202q47 -77 125 -77q176 0 293 319q53 140 105 346t52 328t-45 194t-122 72q-148 -1 -251 -233q-71 -164 -137 -392q-67 -229 -67 -355zM193 406q0 198 61 399q82 257 234 409t298 152t228 -137t82 -323t-78 -405q-78 -220 -217 -373t-285 -153
t-234 117q-89 116 -89 314z" />
    <glyph glyph-name="one" unicode="1" 
d="M612 164q0 -98 152 -103l-16 -61h-531l16 61q102 -2 155 45q52 47 83 164l186 695q15 51 15 87q1 78 -189 70l17 62q118 14 190 54t160 128h74l-281 -1049q-31 -121 -31 -153z" />
    <glyph glyph-name="two" unicode="2" 
d="M633 156q123 0 172 41t65 149h62l-68 -346h-743v57q104 133 183 211q200 197 327 324q262 262 262 424q0 102 -69 168t-175 65q-152 0 -321 -164l-45 43q197 238 442 238q150 0 244 -84t94 -215q0 -96 -49 -183q-50 -88 -140 -178t-275 -258t-314 -292h348z" />
    <glyph glyph-name="three" unicode="3" 
d="M503 741q59 1 121 19q173 51 247 158q49 68 49 148t-58 133q-58 54 -135 54q-141 0 -278 -151l-46 43q158 221 371 221q129 0 214 -77t85 -199t-94 -220q-94 -100 -262 -149q213 -109 213 -322q0 -167 -129 -295t-418 -129q-93 -1 -155 15q-108 27 -105 71q0 21 18 51
t43 30t63 -26q114 -74 224 -73q147 0 220 97q73 98 73 208t-49 192t-124 110t-188 28l17 67q25 -4 83 -4z" />
    <glyph glyph-name="four" unicode="4" 
d="M692 522l178 666l-4 4l-657 -670h483zM129 399v133l819 834h129l-225 -844h235l-34 -123h-234l-114 -424h-160l114 424h-530z" />
    <glyph glyph-name="five" unicode="5" 
d="M377 -25q-119 0 -193 25t-73 61q1 27 23 54t46 26q4 0 114 -39t232 -39q122 -1 219 97q96 98 97 237q0 94 -45 174q-45 79 -121 135q-147 107 -336 152l233 485h447l24 41l56 -28l-82 -150h-445l-96 -221q235 -55 353 -194t118 -301t-80 -282q-92 -143 -272 -201
q-100 -32 -219 -32z" />
    <glyph glyph-name="six" unicode="6" 
d="M369 330q0 -122 58 -204q58 -83 153 -83q118 0 200 125t82 303q0 121 -53 189t-157 67q-104 0 -230 -100q-53 -175 -53 -297zM740 827q132 0 214 -91t82 -247q0 -211 -136 -363t-312 -151q-176 0 -277 126q-102 126 -102 323q0 135 66 290q147 340 453 529
q163 100 339 123l41 -41q-233 -87 -401 -237t-256 -351l4 -4q153 94 285 94z" />
    <glyph glyph-name="seven" unicode="7" 
d="M604 1192q-68 0 -106 -33t-66 -104h-61l75 288h771l-836 -1368h-105l744 1217h-416z" />
    <glyph glyph-name="eight" unicode="8" 
d="M262 295q0 -106 84 -179t204 -73t201 72t80 180q0 68 -50 151t-173 216q-346 -160 -346 -367zM975 1085q0 93 -68 153t-167 60t-167 -57q-67 -57 -67 -127t46 -140q46 -71 161 -192q262 135 262 303zM362 1036q0 134 118 232t268 98t252 -86q100 -86 100 -196t-74 -190
q-74 -79 -268 -165q217 -215 217 -375t-121 -270t-301 -109t-298 97t-118 233q1 137 103 233t319 173q-197 190 -197 325z" />
    <glyph glyph-name="nine" unicode="9" 
d="M936 1010q0 122 -58 205t-153 83q-119 0 -202 -124t-83 -304q0 -120 54 -188t156 -68q104 0 231 101q55 173 55 295zM564 514q-132 0 -214 91t-82 247q0 214 135 364t326 150q160 0 263 -126t104 -322q0 -123 -62 -273q-144 -345 -445 -539q-167 -106 -353 -131l-41 41
q233 86 401 237t256 351l-4 4q-152 -94 -284 -94z" />
    <glyph glyph-name="colon" unicode=":" horiz-adv-x="555" 
d="M266 211q47 0 82 -35t35 -82t-35 -82t-82 -35t-82 35t-34 82q0 47 34 82q35 35 82 35zM424 913q47 -1 82 -35t35 -81t-35 -82t-82 -35t-82 35t-35 82t35 81t82 35z" />
    <glyph glyph-name="semicolon" unicode=";" horiz-adv-x="555" 
d="M424 913q47 -1 82 -35t35 -81t-35 -82t-82 -35t-82 35t-35 82t35 81t82 35zM287 -16q0 32 -26 54q-27 22 -57 31t-56 37t-26 72q0 45 35 77q33 32 95 32q62 -1 110 -63t48 -152q0 -150 -127 -262t-324 -115v57q158 2 243 73t85 159z" />
    <glyph glyph-name="less" unicode="&#x3c;" horiz-adv-x="1366" 
d="M369 541l934 -385v-117l-1078 455v96l1078 454v-116z" />
    <glyph glyph-name="equal" unicode="=" horiz-adv-x="1366" 
d="M225 365h1080v-109h-1080v109zM225 831h1080v-108h-1080v108z" />
    <glyph glyph-name="greater" unicode="&#x3e;" horiz-adv-x="1366" 
d="M1159 543l-934 385v116l1078 -454v-96l-1078 -455v117z" />
    <glyph glyph-name="question" unicode="?" horiz-adv-x="854" 
d="M276 211q47 0 82 -35t35 -82t-35 -82t-82 -35q-48 0 -82 35t-34 82t34 82t82 35zM856 962q0 -188 -100 -288q-51 -50 -119 -70t-128 -32t-89 -42q-50 -49 -64 -153h-55q10 55 25 160t26 138q10 34 26 49t72 18q175 9 252 86q76 76 76 192t-51 176t-139 59l-125 -10
q-29 1 -49 21t-20 57t36 68q37 31 88 30q118 0 228 -136q110 -135 110 -323z" />
    <glyph glyph-name="at" unicode="@" horiz-adv-x="1878" 
d="M1229 778q0 60 -29 100t-76 40q-78 0 -165 -120t-140 -266t-53 -214t28 -105t62 -37q68 0 158 91t153 239q62 148 62 272zM1282 190q0 -42 23 -64t65 -22t111 40t139 117t118 211t48 269q0 269 -177 447t-470 178q-338 0 -588 -250q-137 -137 -208 -318t-71 -376
q0 -354 220 -574t573 -221q352 0 596 244q123 123 203 311h59q-81 -260 -323 -436t-547 -176q-383 0 -631 250t-248 646t273 676t673 279q340 0 532 -192q191 -193 191 -492q0 -163 -63 -319t-168 -252q-147 -135 -340 -135q-80 0 -125 39t-45 99t10 110l10 45l-4 4
q-110 -154 -196 -226t-168 -72t-132 66t-51 160q0 168 89 339q90 171 218 275t238 105q60 0 102 -38t50 -103h4l31 110l190 17l-188 -650q-23 -80 -23 -121z" />
    <glyph glyph-name="A" unicode="A" horiz-adv-x="1386" 
d="M1040 637l66 639l-4 4l-524 -643h462zM1176 184q0 -70 38 -103q38 -32 138 -30l-15 -51h-575l14 51q139 0 177 45t55 211l24 260h-510l-162 -196q-121 -150 -120 -209q0 -106 155 -111l-14 -51h-481l14 51q60 19 110 61t156 169l963 1140h149l-110 -1114q-6 -53 -6 -123z
" />
    <glyph glyph-name="B" unicode="B" horiz-adv-x="1409" 
d="M428 170q0 -63 61 -91t216 -28q223 1 327 105t104 240t-92 220t-280 84h-199l-106 -395q-31 -117 -31 -135zM756 752q219 0 341 87t122 248q0 123 -86 191t-244 68h-152l-157 -594h176zM993 1397q185 1 269 -49q168 -99 168 -267q0 -133 -112 -227t-306 -125v-4
q158 -27 240 -117t83 -214q0 -124 -111 -248q-58 -66 -176 -106t-278 -40h-754l17 51q106 1 158 63t88 193l208 789q29 106 29 143q0 113 -174 107l14 51h637z" />
    <glyph glyph-name="C" unicode="C" horiz-adv-x="1536" 
d="M1092 1364q-227 0 -396 -168q-135 -134 -209 -322t-73 -337q0 -219 127 -361t325 -143q334 0 523 463h43l-82 -349q-252 -172 -518 -172t-448 162q-181 162 -181 404q1 157 71 315q149 334 472 486q167 79 346 79q228 0 507 -139l-71 -313h-51q19 186 -109 302
q-32 29 -108 61t-168 32z" />
    <glyph glyph-name="D" unicode="D" horiz-adv-x="1579" 
d="M430 172q0 -115 276 -115t439 162q205 205 205 572q0 251 -129 403t-369 152h-115l-274 -1029q-33 -119 -33 -145zM967 1397q272 1 433 -183t161 -432q0 -196 -107 -392q-59 -108 -146 -194q-88 -86 -228 -140q-140 -56 -314 -56h-723l14 51q93 7 139 61t83 195l208 793
q27 102 27 137q4 111 -158 109l15 51h596z" />
    <glyph glyph-name="E" unicode="E" horiz-adv-x="1323" 
d="M641 51h154q260 0 460 291h52l-152 -342h-1135l15 51q100 0 155 55t84 166l218 826q31 117 30 139q2 53 -41 82t-123 27l15 51h1079l-84 -316h-51q8 31 8 64q0 96 -46 148t-134 53h-402l-157 -588h288q123 0 193 49t109 151h51l-131 -489h-52q10 98 -30 168
q-41 70 -156 70h-287l-120 -449q-19 -66 -19 -106t50 -70q50 -31 159 -31z" />
    <glyph glyph-name="F" unicode="F" horiz-adv-x="1259" 
d="M872 766q129 0 198 44t110 144h51l-127 -475h-51q4 104 -36 170t-132 66h-318l-108 -408q-29 -104 -29 -149t35 -76t104 -31h56l-17 -51h-598l17 51q182 2 239 219l221 830q29 104 29 150t-52 76t-140 24l14 47h1114l-74 -328h-51q2 164 -49 220t-231 57h-312l-153 -580
h290z" />
    <glyph glyph-name="G" unicode="G" horiz-adv-x="1599" 
d="M1532 981q0 146 -81 256q-42 57 -122 92t-188 35q-272 0 -465 -193q-123 -123 -190 -297t-66 -354q0 -219 121 -353t319 -134q139 0 307 94l74 274q31 113 31 156t-49 75t-146 25l13 52h577l-12 -50q-101 -16 -151 -65t-81 -162l-94 -354q-90 -43 -232 -73t-257 -30
q-285 0 -458 159t-173 427q0 225 133 425t356 318q455 241 961 -4l-76 -319h-51z" />
    <glyph glyph-name="H" unicode="H" horiz-adv-x="1642" 
d="M432 156q0 -47 42 -77t114 -28l-17 -51h-553l17 51q174 0 229 203l225 838q29 110 29 152t-43 74t-121 28l13 51h559l-13 -51q-92 -4 -146 -54t-85 -162l-100 -370h733l90 332q29 109 29 141q0 102 -154 113l12 51h557l-12 -51q-107 -2 -159 -56t-83 -170l-217 -813
q-26 -96 -26 -146t41 -81t114 -29l-16 -51h-573l16 51q190 -8 250 215l108 414h-733l-98 -373q-29 -104 -29 -151z" />
    <glyph glyph-name="I" unicode="I" horiz-adv-x="724" 
d="M428 164q0 -102 154 -113l-15 -51h-557l15 51q94 -2 153 55t92 179l213 807q31 118 31 156t-42 69t-120 29l17 51h573l-16 -51q-104 2 -162 -52t-90 -172l-215 -815q-31 -119 -31 -143z" />
    <glyph glyph-name="J" unicode="J" horiz-adv-x="1003" 
d="M-156 -225q0 39 24 65t62 25q38 0 69 -30q30 -31 45 -67t51 -66t91 -30q106 0 178 108q71 108 142 380l147 549h-307l23 82h307q35 162 139 327l-16 -2h-23q-68 0 -131 39q-20 11 -94 77t-128 66t-92 -34t-38 -68q0 -35 17 -51q17 -15 40 -25t40 -34q18 -24 18 -58
t-26 -60t-68 -26t-74 44t-33 108q0 108 92 218t215 110t189 -74q28 -31 52 -61q56 -70 119 -66q78 201 181 200q33 -1 55 -25t20 -61q0 -111 -178 -196l-94 -348h170l-22 -82h-170l-101 -373q-63 -238 -123 -367q-163 -354 -489 -354q-117 0 -198 46t-81 114z" />
    <glyph glyph-name="K" unicode="K" horiz-adv-x="1579" 
d="M1331 1268q0 82 -137 78l14 51h570l-15 -51q-147 -12 -313 -136l-129 -96q-76 -57 -328 -215l-188 -117l-27 -18q60 -59 202 -226t302 -327t305 -160l-12 -51h-320q-55 31 -147 123t-277 316q-184 224 -235 282q143 82 391 242q248 159 296 207t48 98zM426 162
q0 -117 188 -111l-14 -51h-592l15 51q180 -6 237 213l221 828q29 102 29 147t-43 77t-125 30l16 51h576l-16 -51q-184 12 -242 -207l-221 -832q-29 -109 -29 -145z" />
    <glyph glyph-name="L" unicode="L" horiz-adv-x="1236" 
d="M430 164q0 -113 188 -113h158q172 0 283 67t229 232h45l-151 -350h-1170l17 51q113 3 165 59t87 189l211 793q29 109 28 143q0 100 -133 111l12 51h537l-12 -51q-109 0 -162 -60t-88 -194l-228 -848q-16 -57 -16 -80z" />
    <glyph glyph-name="M" unicode="M" horiz-adv-x="2027" 
d="M879 1226q0 -108 36 -354l39 -249q41 -272 62 -363q197 303 340 510l141 203q190 274 211 424h414l-13 -51q-115 0 -169 -52t-70 -192l-94 -799q-12 -91 -12 -139q-1 -101 153 -113l-16 -51h-541l16 51q104 0 152 53q47 53 61 168l119 916l-4 4q-49 -94 -382 -580
t-374 -612h-94q8 125 -71 589t-81 619h-4l-305 -794q-67 -174 -67 -238t47 -97q47 -32 123 -28l-17 -51h-487l16 51q90 8 159 84t144 262l275 674q49 123 49 164q0 113 -135 111l14 51h383q-18 -63 -18 -171z" />
    <glyph glyph-name="N" unicode="N" horiz-adv-x="1622" 
d="M319 203q-1 -72 51 -112t152 -40l-12 -51h-490l13 51q96 4 149 54t82 163l254 953q-45 77 -88 101t-131 24l14 51h297q37 -51 84 -131l576 -1004l209 780q29 104 29 165t-49 101q-48 40 -130 38l12 51h469l-12 -51q-102 0 -156 -66t-106 -254l-223 -833q12 -33 56 -102
t56 -91h-200q-49 66 -152 248l-508 905l-219 -817q-27 -96 -27 -133z" />
    <glyph glyph-name="O" unicode="O" horiz-adv-x="1622" 
d="M1027 1364q-179 0 -327 -147t-218 -353q-72 -206 -72 -390t104 -312t281 -129q92 0 187 42t165 111q117 117 195 326q79 209 79 377q0 215 -107 345q-108 130 -287 130zM209 549q0 166 79 330q78 165 200 281t274 189t295 72q241 0 403 -172t162 -426q0 -199 -113 -395
t-315 -324q-202 -129 -434 -129t-392 165t-159 409z" />
    <glyph glyph-name="P" unicode="P" horiz-adv-x="1300" 
d="M430 162q0 -121 195 -111l-13 -51h-594l13 51q94 4 148 50t87 165l223 826q29 104 29 150t-46 78t-130 26l12 51h604q225 -1 340 -105t115 -241q0 -168 -148 -282t-347 -114t-199 50q0 25 37 24h104q156 0 249 94t93 242q0 109 -85 195t-269 86h-111l-278 -1043
q-29 -113 -29 -141z" />
    <glyph glyph-name="Q" unicode="Q" horiz-adv-x="1622" 
d="M1027 1364q-179 0 -325 -145t-218 -349q-74 -204 -74 -390t102 -316t283 -131q100 0 195 46t157 107q119 119 196 326q78 208 78 400t-107 322q-108 130 -287 130zM783 -184q105 0 259 -31t228 -31q156 0 356 88v-51q-319 -176 -567 -176q-102 0 -262 38t-219 38
q-123 0 -287 -76l-39 31l465 329q-233 25 -371 188q-137 163 -137 385t132 428t328 326t384 119q249 0 409 -175t160 -423q0 -199 -112 -393t-306 -321q-194 -128 -413 -134l-306 -225l4 -4q188 70 294 70z" />
    <glyph glyph-name="R" unicode="R" horiz-adv-x="1429" 
d="M750 745q223 -1 349 87t126 222t-84 213t-236 79h-164l-161 -601h170zM432 148q0 -42 47 -73q47 -30 129 -24l-12 -51h-561l12 51q92 7 143 59t78 154l224 838q28 108 28 150t-44 72t-132 26l12 47h674q197 -1 301 -97q105 -96 105 -232t-133 -250t-381 -124v-4
q43 -30 99 -138t127 -239t129 -189t120 -73l-13 -51h-245q-57 57 -184 308q-126 251 -226 386h-164l-104 -391q-29 -113 -29 -155z" />
    <glyph glyph-name="S" unicode="S" horiz-adv-x="1216" 
d="M590 33q150 0 245 75t95 189q0 139 -200 307l-166 140t-141 154q-58 85 -58 171q0 156 131 254q132 98 348 98t448 -131l-78 -297l-45 13q-6 172 -97 265q-92 93 -234 93t-223 -62t-81 -146t59 -157q58 -73 140 -137t165 -134t141 -166q58 -95 59 -202q0 -152 -124 -268
t-362 -117q-126 0 -278 44t-279 118l88 326l50 -12q-16 -170 88 -294t309 -124z" />
    <glyph glyph-name="T" unicode="T" horiz-adv-x="1429" 
d="M1286 1346h-199l-280 -1043q-31 -111 -31 -143q0 -111 180 -109l-12 -51h-610l12 51q111 -6 173 44t91 155l295 1096h-194q-111 0 -183 -56t-178 -229h-49l90 336h1243l-90 -336h-49q4 157 -40 221t-169 64z" />
    <glyph glyph-name="U" unicode="U" horiz-adv-x="1556" 
d="M442 352q0 -123 114 -208t284 -85q229 0 354 125q82 82 119 230l145 608q23 90 23 165t-51 118t-138 41l13 51h487l-12 -51q-106 2 -162 -65t-98 -232l-156 -641q-53 -217 -204 -325t-378 -108q-131 0 -235 38q-180 66 -253 221q-30 66 -30 130t33 189l145 543
q31 110 31 152t-46 72t-132 26l12 51h584l-12 -51q-184 8 -238 -189l-176 -657q-23 -74 -23 -148z" />
    <glyph glyph-name="V" unicode="V" horiz-adv-x="1472" 
d="M651 1114v-917h4l621 766q84 102 116 157t31 105q0 102 -133 121l13 51h452l-12 -51q-84 -11 -162 -103l-897 -1089q-121 -145 -135 -179h-109q29 115 29 324v846q0 111 -32 157t-132 44l12 51h529l-12 -51q-102 -2 -142 -60t-41 -172z" />
    <glyph glyph-name="W" unicode="W" horiz-adv-x="2027" 
d="M1501 1258q0 68 -86 88l12 51h361l-12 -51q-49 -12 -81 -38t-110 -116l-371 -428l50 -418q2 -27 14 -162l623 830q100 133 100 203q0 92 -100 129l12 51h383l-12 -51q-37 -6 -74 -39t-109 -127l-778 -1026q-82 -109 -119 -179h-92q19 71 -6 261l-43 358l-303 -342
q-56 -64 -114 -150t-75 -127h-102q12 57 8 113l-61 1014q-8 133 -30 177t-91 67l12 51h424l-12 -51q-145 -12 -133 -259l39 -677q10 -195 0 -236l4 -4l426 502l-56 471q-14 115 -45 157t-102 46l12 51h426l-12 -51q-68 -2 -98 -46t-19 -116l43 -336l211 244q86 98 86 166z
" />
    <glyph glyph-name="X" unicode="X" horiz-adv-x="1599" 
d="M1124 145q0 41 -51 140l-192 362l-392 -336q-100 -86 -100 -147q0 -102 148 -113l-13 -51h-508l13 51q80 12 188 105l639 542l-283 531q-37 70 -72 89q-36 19 -128 28l14 51h571l-14 -51q-160 8 -160 -101q0 -51 54 -149l153 -283l264 225q84 72 117 117t33 88
q0 84 -121 103l14 51h517l-15 -51q-115 -10 -254 -127l-528 -455l256 -479q84 -158 124 -193t144 -41l-12 -51h-596l12 51q178 0 178 94z" />
    <glyph glyph-name="Y" unicode="Y" horiz-adv-x="1515" 
d="M659 1239q0 -84 46 -186l202 -469l363 420q90 104 116 148q27 44 27 90t-35 76t-108 28l12 51h479l-12 -51q-59 -4 -113 -42t-168 -167l-540 -611l-60 -223q-29 -109 -28 -141q0 -121 192 -111l-12 -51h-598l12 51q182 -6 236 191l75 284l-251 611q-54 135 -96 172
t-132 37l13 51h559l-13 -51q-166 0 -166 -107z" />
    <glyph glyph-name="Z" unicode="Z" horiz-adv-x="1386" 
d="M1487 1397v-41l-1194 -1305h461q147 0 255 71t224 234h49l-145 -356h-1090v51l1186 1295h-393q-132 0 -224 -58t-192 -192h-45l102 301h1006z" />
    <glyph glyph-name="bracketleft" unicode="[" horiz-adv-x="681" 
d="M213 -240h285l-17 -53h-372l464 1690h369l-16 -54h-271z" />
    <glyph glyph-name="backslash" unicode="\" horiz-adv-x="546" 
d="M211 1421l459 -1697h-88l-459 1697h88z" />
    <glyph glyph-name="bracketright" unicode="]" horiz-adv-x="681" 
d="M553 1343h-285l17 54h372l-467 -1690h-366l14 53h273z" />
    <glyph glyph-name="asciicircum" unicode="^" horiz-adv-x="995" 
d="M598 1397l428 -717h-104l-344 575l-342 -575h-105l428 717h39z" />
    <glyph glyph-name="underscore" unicode="_" horiz-adv-x="1024" 
d="M1036 -256h-1048v102h1048v-102z" />
    <glyph glyph-name="grave" unicode="`" horiz-adv-x="681" 
d="M338 1317q0 31 45 31h68q47 0 66 -12t30 -42l76 -247h-64l-203 235q-18 18 -18 35z" />
    <glyph glyph-name="a" unicode="a" horiz-adv-x="1024" 
d="M373 98q27 0 75 20q139 60 260 321q77 165 76 272q0 63 -36 102q-37 39 -101 39q-103 0 -201 -98t-162 -238t-65 -232q0 -90 42 -138t112 -48zM805 76q61 0 168 188h59q-55 -125 -137 -206t-154 -81q-47 0 -75 38q-28 37 -29 99q0 62 37 175l-4 4q-166 -315 -387 -316
q-88 0 -148 66q-59 67 -59 177t63 241q116 242 350 386q102 62 179 62q150 0 209 -108q37 39 75 102h54l-228 -743q-25 -84 27 -84z" />
    <glyph glyph-name="b" unicode="b" horiz-adv-x="937" 
d="M788 584q0 94 -42 146t-116 52q-75 0 -158 -83t-144 -237q-62 -154 -62 -238q0 -83 41 -125t125 -42t164 80t136 216q56 137 56 231zM716 909q93 1 155 -73t63 -191q0 -262 -244 -506q-162 -162 -330 -162q-106 0 -172 65t-65 167q0 68 35 180l258 844q12 41 12 65
t-30 36q-30 11 -130 9l17 54q207 -2 305 24h28l-229 -743l4 -4q92 133 161 184t162 51z" />
    <glyph glyph-name="c" unicode="c" horiz-adv-x="768" 
d="M86 256q0 129 90 288t219 262t236 103q71 0 115 -41t44 -93t-22 -79q-23 -27 -57 -26q-70 0 -70 86q0 51 -10 68q-10 18 -54 18q-43 0 -137 -88t-145 -218t-51 -230t50 -160q50 -58 126 -58t138 46t142 151h62q-174 -307 -426 -308q-110 0 -180 75t-70 204z" />
    <glyph glyph-name="d" unicode="d" horiz-adv-x="1044" 
d="M242 286q0 -190 154 -190q75 0 167 92t169 263t77 247t-39 115t-102 39q-104 0 -202 -98t-162 -236q-62 -136 -62 -232zM975 1292q0 53 -113 54h-74l17 51q254 -8 325 24h29l-352 -1267q-23 -78 24 -78q76 0 160 188h60q-45 -125 -124 -206t-157 -81q-43 0 -72 34
q-28 33 -28 93t39 209l-4 4q-170 -340 -396 -340q-92 0 -153 67t-62 165q0 137 95 303t237 282t266 115q88 0 166 -57l90 330q27 106 27 110z" />
    <glyph glyph-name="e" unicode="e" horiz-adv-x="768" 
d="M662 719q0 47 -32 79t-79 31q-78 1 -157 -109t-138 -300q217 29 338 149q68 68 68 150zM342 -23q-114 0 -186 73t-72 204t89 291t215 262t233 102q71 0 113 -43q42 -42 42 -130t-80 -168t-207 -134q-127 -53 -249 -65q-10 -20 -10 -95q0 -74 48 -130q50 -56 124 -56
t148 49t124 137h65q-168 -297 -397 -297z" />
    <glyph glyph-name="f" unicode="f" horiz-adv-x="555" 
d="M756 1421q63 1 102 -29t39 -70t-19 -60q-18 -20 -48 -20t-52 16q-22 17 -30 39q-25 55 -68 56t-75 -65t-73 -235l-40 -172h182l-17 -52h-180l-155 -651q-80 -328 -213 -461q-102 -102 -213 -102q-68 0 -108 29q-40 28 -40 68t20 62t56 22q35 0 75 -57q40 -56 74 -56
q88 0 142 227l219 919h-201l14 52h201l47 163q49 172 147 274t214 103z" />
    <glyph glyph-name="g" unicode="g" horiz-adv-x="897" 
d="M57 -193q0 -55 72 -95q73 -40 197 -40t201 40t77 102t-56 97q-56 33 -171 61t-139 36q-100 -59 -140 -102t-41 -99zM328 512q0 -66 39 -106t102 -41q102 0 163 99q60 99 60 238q0 66 -40 108t-110 42t-122 -65t-72 -137t-20 -138zM125 143q0 104 176 189
q-123 63 -123 203q0 139 122 257t278 117q90 0 151 -49q83 55 139 55t72 -17q16 -16 16 -72t-38 -56q-20 0 -52 32t-56 32t-38 -15q63 -78 64 -174q0 -135 -113 -236t-262 -102q-27 0 -72 6q-154 -61 -153 -116q0 -31 50 -51t122 -37q72 -16 144 -39t121 -73q50 -50 50 -124
q0 -121 -115 -189t-294 -69q-179 0 -277 48t-98 124q0 57 57 115t194 131q-65 42 -65 110z" />
    <glyph glyph-name="h" unicode="h" horiz-adv-x="1044" 
d="M461 1290q0 35 -33 45t-149 8l14 54q246 -6 328 24h28l-311 -1015l4 -5q119 201 240 334q156 174 280 174q57 1 91 -31t34 -86t-35 -159l-164 -477q-23 -68 19 -68q29 0 82 55t92 125h63q-72 -131 -158 -211t-159 -80q-41 0 -68 29t-27 71t32 138l165 494q20 61 21 79
q0 18 -14 32t-33 14q-57 0 -146 -89q-131 -131 -272 -352t-170 -393h-143l377 1227q12 49 12 63z" />
    <glyph glyph-name="i" unicode="i" horiz-adv-x="575" 
d="M467 1321q0 41 30 71q31 30 71 30t70 -30t30 -71t-30 -71t-71 -30t-71 30t-29 71zM393 909q45 -1 75 -31t30 -80t-33 -149l-176 -506q-22 -75 20 -75q35 0 95 62t100 138h63q-55 -121 -147 -206t-168 -85q-47 0 -76 31t-29 82t19 111l174 504q41 117 -6 116
q-38 0 -92 -54t-97 -134h-59q59 121 145 199t162 77z" />
    <glyph glyph-name="j" unicode="j" horiz-adv-x="532" 
d="M444 1321q0 41 30 71t71 30t71 -30t29 -71q0 -41 -30 -71q-31 -30 -71 -30t-70 30t-30 71zM504 806q0 -46 -19 -108l-184 -659q-117 -424 -377 -424q-66 0 -110 32t-45 70q1 37 23 59t54 22t55 -18q21 -17 29 -40q19 -57 59 -57q39 0 69 53t65 180l229 815q23 88 -18 88
q-27 0 -72 -51t-88 -131h-68q80 139 148 206t143 66q47 -1 77 -29t30 -74z" />
    <glyph glyph-name="k" unicode="k" horiz-adv-x="1024" 
d="M854 709q0 45 -33 75t-84 29q-110 0 -225 -115t-160 -252q258 8 380 85t122 178zM792 909q92 0 151 -51q58 -51 58 -141t-92 -168t-260 -121q37 -100 51 -137l41 -107q37 -96 76 -96q25 0 68 52t80 124h59q-57 -123 -133 -205t-135 -82q-78 0 -140 152l-114 274
q-115 -14 -166 -12l-121 -391h-143l372 1221q16 45 16 75t-37 40q-38 11 -144 7l18 54q221 -2 326 24h26l-229 -749l4 -4q108 131 192 186t176 55z" />
    <glyph glyph-name="l" unicode="l" horiz-adv-x="532" 
d="M295 72q29 0 86 57t102 131h68q-66 -121 -161 -202t-171 -81q-41 0 -71 30t-30 75t36 156l290 948q25 78 25 108t-32 41q-32 10 -150 8l14 54q252 -6 332 24h29l-394 -1286q-18 -63 27 -63z" />
    <glyph glyph-name="m" unicode="m" horiz-adv-x="1579" 
d="M397 909q41 1 68 -23t27 -71t-31 -139l-133 -385l4 -4q205 362 331 492t232 130q47 1 77 -27t30 -73t-31 -133l-123 -363l4 -4q195 338 318 469q124 131 229 131q49 -1 81 -33t32 -87t-33 -152l-162 -455q-33 -94 10 -94q25 0 71 50t93 130h63q-74 -135 -156 -213
t-149 -78q-41 0 -69 31t-27 72q0 41 29 127l166 469q26 78 26 119t-42 41t-136 -94t-237 -330q-142 -236 -195 -412h-143l217 709q22 78 22 93q-1 32 -39 33q-39 1 -131 -91t-237 -332q-145 -238 -197 -412h-143l217 709q37 119 -4 118q-70 0 -164 -174h-60q131 256 295 256
z" />
    <glyph glyph-name="n" unicode="n" 
d="M328 829q-31 0 -74 -46t-86 -126h-57q55 117 132 185t154 67q41 1 69 -25t28 -69t-25 -125l-90 -282l4 -5q166 267 289 387t231 119q59 -1 94 -31t35 -82t-45 -184l-151 -434q-33 -90 16 -90q57 0 170 178h65q-75 -121 -159 -205t-154 -84q-43 0 -73 30q-29 30 -29 70
t26 120l174 503q43 133 -28 136q-55 0 -159 -104q-105 -104 -229 -294t-163 -313l-39 -125h-143l227 743q27 86 -10 86z" />
    <glyph glyph-name="o" unicode="o" horiz-adv-x="917" 
d="M254 278q0 -232 161 -233q77 1 149 73t123 225q50 153 50 263t-43 172q-44 62 -114 64q-70 0 -150 -80t-128 -224q-48 -142 -48 -260zM90 272q0 140 81 292t210 249q129 96 250 96t195 -82q74 -81 75 -211q0 -130 -76 -280q-75 -150 -205 -254t-258 -104t-200 77t-72 217
z" />
    <glyph glyph-name="p" unicode="p" horiz-adv-x="1024" 
d="M852 537q0 121 -69 191t-183 71q-39 0 -68 -4l-204 -752q231 6 362 137q162 162 162 357zM670 909q150 0 240 -89t91 -234q0 -223 -190 -414q-96 -96 -217 -140t-285 -57l-37 -137q-18 -68 -18 -100q0 -67 160 -72l-17 -51h-473l17 51q81 2 119 36t61 112l258 940
q-113 -41 -258 -193h-68q74 94 168 170t180 111l62 225h143l-45 -170q46 12 109 12z" />
    <glyph glyph-name="q" unicode="q" horiz-adv-x="937" 
d="M385 104q66 0 127 62q90 90 156 290t66 262t-33 93q-32 31 -85 31q-84 0 -174 -91t-150 -229q-111 -262 -16 -368q43 -50 109 -50zM886 901q20 0 32 -9t12 -18l-277 -1005q-25 -88 -24 -125q0 -78 131 -78l-17 -51h-454l16 51q78 2 119 34t61 97l125 416l-4 4
q-131 -240 -299 -240q-96 0 -159 68q-62 67 -62 187t82 283t216 279t252 116t195 -83l23 45q12 29 32 29z" />
    <glyph glyph-name="r" unicode="r" horiz-adv-x="747" 
d="M350 764q0 24 -11 38t-28 13q-72 0 -161 -172h-58q63 125 138 196t145 70q45 -1 74 -33t28 -85q0 -106 -59 -302l4 -4q106 233 183 329t147 95q88 0 88 -121q0 -63 -22 -103t-56 -40t-46 24q-11 23 -6 53q13 76 -22 77q-16 0 -43 -27q-80 -80 -162 -252t-116 -315
l-50 -205h-143l158 657q18 83 18 107z" />
    <glyph glyph-name="s" unicode="s" horiz-adv-x="704" 
d="M227 687q0 83 82 153q83 70 181 70t150 -38q52 -37 52 -94q0 -32 -22 -54t-50 -22q-30 0 -51 22q-20 22 -29 48t-31 48q-21 22 -63 22t-78 -31t-36 -76q0 -83 126 -222q48 -52 87 -125t39 -142q0 -115 -85 -192t-195 -77q-110 -1 -175 47q-66 48 -66 113q0 31 22 53
q21 22 53 21q32 0 55 -26q23 -25 35 -57t40 -58q29 -26 77 -25q48 0 87 39t39 90q0 50 -38 114t-84 116t-84 126t-38 157z" />
    <glyph glyph-name="t" unicode="t" horiz-adv-x="618" 
d="M494 829l-183 -667q-29 -102 27 -103q82 0 215 177h65q-174 -258 -350 -259q-51 0 -84 30q-32 30 -32 67t10 73l188 682h-168l17 52q123 18 189 60t134 146h51l-63 -206h176l-16 -52h-176z" />
    <glyph glyph-name="u" unicode="u" 
d="M844 61q29 1 79 55t81 117h55q-57 -119 -135 -187t-154 -69q-43 0 -69 25q-25 25 -25 72t31 145l79 254l-4 4q-162 -258 -284 -379t-242 -121q-53 0 -86 32t-33 87t39 172l162 475q22 66 -24 66t-164 -182h-62q172 283 311 282q41 1 68 -27t27 -68t-33 -134l-168 -498
q-19 -56 -19 -78t14 -35t36 -14q66 1 184 119t238 318t165 401h144l-228 -754q-25 -78 17 -78z" />
    <glyph glyph-name="v" unicode="v" horiz-adv-x="1044" 
d="M240 600q0 -36 -22 -62q-22 -24 -52 -24t-51 29q-20 29 -21 75q0 100 71 190t200 89h221q20 0 69 4l-159 -336q-109 -229 -109 -309t49 -127t121 -47q105 0 189 83t141 210t57 201t-45 136t-45 104t23 68t63 26t66 -50q26 -49 26 -142t-39 -220q-94 -305 -279 -442
q-108 -79 -224 -79t-192 69t-75 173q0 68 35 130t122 182t152 235q-12 -2 -47 -2l-233 12q-43 0 -68 -22t-24 -56q0 -18 40 -40t40 -58z" />
    <glyph glyph-name="w" unicode="w" horiz-adv-x="1429" 
d="M1286 909q113 0 113 -223q1 -112 -55 -276t-164 -298t-228 -135q-80 0 -124 83t-31 243l-4 4q-111 -174 -207 -252t-192 -78q-96 -1 -151 51q-57 52 -57 137t47 161t145 196t165 238q-33 -4 -58 -2l-194 6q-53 2 -83 -18t-30 -46t40 -57t40 -65t-20 -53t-52 -19t-56 26
q-22 26 -21 64q0 98 64 198q65 99 183 99l179 -4q37 0 151 8q-214 -346 -280 -482q-66 -135 -66 -201t35 -104t84 -38q79 0 157 83t191 265q35 489 166 489q59 0 59 -75q0 -141 -182 -437q10 -135 57 -210t119 -74q113 1 200 163t87 287q0 57 -48 137t-48 122t19 65t50 22z
" />
    <glyph glyph-name="x" unicode="x" horiz-adv-x="1003" 
d="M300 807q-18 0 -47 -44q-30 -44 -56 -112h-62q106 258 238 258q43 0 63 -20t45 -88l92 -250l78 111q103 147 155 197t98 50q46 1 74 -31t28 -76t-20 -71t-52 -27q-33 0 -48 46q-15 45 -32 45q-37 0 -117 -111l-141 -192l109 -289q27 -72 39 -92q12 -21 33 -21q22 0 57 45
t65 125h57q-46 -121 -116 -202t-133 -81q-81 0 -129 144l-82 235l-66 -92q-125 -176 -182 -231q-58 -55 -110 -55q-106 -1 -103 108q0 41 17 69q17 27 46 27t48 -42t40 -42q51 0 183 178l102 142l-119 325q-14 37 -24 51t-28 13z" />
    <glyph glyph-name="y" unicode="y" horiz-adv-x="1024" 
d="M350 909q59 0 88 -38t51 -128l154 -661q119 142 187 290t69 263q0 45 -26 109q-25 64 -25 94q0 28 20 50t60 22t70 -42q30 -41 30 -102q0 -166 -136 -414t-349 -461q-276 -276 -510 -276q-72 0 -117 28q-45 27 -45 65t21 59q22 20 56 20t91 -40t98 -40q137 0 391 244
l-188 792q-14 63 -41 64q-61 0 -137 -201h-60q51 143 120 223t128 80z" />
    <glyph glyph-name="z" unicode="z" horiz-adv-x="1003" 
d="M1010 866q0 -76 -131 -207q-76 -77 -341 -239t-331 -238l4 -4q63 16 142 16t202 -59q103 -61 146 -61t65 19q44 39 -8 103q-29 34 -29 62q1 28 21 48t51 20t55 -29t23 -70q0 -96 -80 -173q-81 -77 -177 -77t-243 72t-180 72q-33 1 -49 -15t-17 -36l10 -52q0 -41 -39 -41
q-45 0 -45 46q0 78 117 204q46 49 112 99t266 172t273 194q37 33 41 35l-4 4q-68 -29 -128 -29t-175 60q-101 59 -151 59t-74 -18q-24 -17 -23 -35q0 -18 31 -49t31 -62q-1 -31 -21 -51t-52 -20t-56 26t-23 64q0 96 81 165q82 69 186 69t224 -61t152 -61t54 14q20 14 20 32
l-8 51q0 25 33 24q45 0 45 -43z" />
    <glyph glyph-name="braceleft" unicode="{" horiz-adv-x="970" 
d="M623 741q0 49 -23 157t-22 149q0 139 98 245t254 135v-36q-106 -25 -166 -85t-59 -131q0 -71 21 -181t22 -154q0 -111 -74 -201t-209 -145q135 -56 209 -146t74 -201q0 -45 -21 -159q-23 -100 -23 -173t60 -133q59 -60 166 -85v-37q-156 29 -254 135t-98 246q0 41 22 157
q23 98 23 163q-1 65 -65 131t-173 79v45q109 14 173 80t65 145z" />
    <glyph glyph-name="bar" unicode="|" horiz-adv-x="1044" 
d="M575 1536h89v-2048h-89v2048z" />
    <glyph glyph-name="braceright" unicode="}" horiz-adv-x="970" 
d="M598 -59q0 -139 -98 -245t-254 -136v37q106 25 166 85q59 60 59 144q0 51 -20 162q-23 104 -23 159q0 111 74 201t209 146q-135 55 -209 145t-74 201q0 55 23 159q20 115 20 162q0 85 -59 145t-166 85v36q156 -29 254 -135t98 -245q0 -59 -23 -167t-22 -139
q1 -79 65 -145t173 -80v-45q-109 -14 -174 -80t-64 -145q0 -31 22 -148q23 -98 23 -157z" />
    <glyph glyph-name="asciitilde" unicode="~" horiz-adv-x="1366" 
d="M1050 389q-108 0 -319 90t-278 90q-139 0 -172 -180h-58q2 153 73 229t191 76q82 0 300 -92t291 -92t117 49t52 135h58q-6 -150 -76 -228q-71 -78 -179 -77z" />
    <glyph glyph-name="uni00A0" unicode="&#xa0;" horiz-adv-x="542" 
 />
    <glyph glyph-name="exclamdown" unicode="&#xa1;" horiz-adv-x="555" 
d="M453 676q-47 0 -82 35t-35 82t35 81t82 35q47 0 82 -35q35 -36 35 -82t-36 -81q-34 -35 -81 -35zM61 -535q-96 0 -96 60q0 29 27 96l332 858h57l-199 -895q-16 -76 -38 -98t-83 -21z" />
    <glyph glyph-name="cent" unicode="&#xa2;" horiz-adv-x="768" 
d="M250 298q0 -116 74 -171l315 698q-23 16 -43 17q-68 0 -156 -88t-138 -214q-52 -126 -52 -242zM430 88q72 0 136 46t141 151h61q-94 -156 -204 -239t-257 -66l-117 -261h-49l121 271q-80 26 -125 94t-45 162q0 137 89 295t219 263t239 105q20 0 35 -2l141 318h49
l-147 -332q35 -14 57 -51t23 -77q0 -40 -23 -68t-57 -27q-66 0 -68 69h-4l-280 -635q45 -16 65 -16z" />
    <glyph glyph-name="sterling" unicode="&#xa3;" horiz-adv-x="1449" 
d="M220 -385q-83 0 -83 87q0 44 50 102t135 92l100 350h-266l16 59h266l129 469q176 647 580 647q111 0 181 -40t71 -99q-1 -32 -21 -56t-54 -24t-76 36t-92 71t-112 35t-113 -53q-52 -52 -98 -177t-110 -358l-125 -451h285l-17 -59h-284q-37 -137 -127 -316q83 29 165 29
t172 -55q90 -56 162 -110t120 -54t78 24t30 55q0 32 -33 86t-33 91q0 38 22 62t60 24t70 -38q31 -38 30 -97q0 -113 -91 -223t-222 -109q-71 0 -141 38t-117 83t-113 83t-121 38t-79 -7q-46 -109 -100 -172t-94 -63z" />
    <glyph glyph-name="currency" unicode="&#xa4;" horiz-adv-x="1366" 
d="M682 999q-140 0 -240 -99q-100 -98 -100 -240t99 -242t241 -100t242 100t100 241t-100 241q-101 99 -242 99zM685 1106q161 0 276 -96l126 127l74 -76l-127 -127q96 -117 96 -277t-96 -274l127 -127l-74 -74l-126 127q-123 -96 -282 -96t-271 98l-129 -129l-74 74
l129 129q-96 119 -96 281t96 266l-129 129l74 76l129 -129q116 98 277 98z" />
    <glyph glyph-name="yen" unicode="&#xa5;" horiz-adv-x="1515" 
d="M713 1237q0 -63 47 -184l139 -351h8l295 349q62 75 82 111t22 81t-36 75q-39 30 -105 28l11 51h479l-13 -51q-53 -2 -103 -37t-126 -119l-436 -483h467l-17 -58h-501l-70 -231h506l-16 -58h-502l-17 -53q-29 -109 -29 -153t48 -77q47 -32 145 -26l-12 -51h-598l12 51
q96 0 154 50q57 50 86 159l31 100h-490l16 58h486l63 231h-483l16 58h449l-178 426q-61 145 -101 180t-127 33l13 51h559l-13 -51q-92 0 -126 -23t-35 -86z" />
    <glyph glyph-name="brokenbar" unicode="&#xa6;" horiz-adv-x="1044" 
d="M575 1382h89v-716h-89v716zM575 358h89v-716h-89v716z" />
    <glyph glyph-name="section" unicode="&#xa7;" horiz-adv-x="831" 
d="M543 317q0 139 -42 285t-78 274t-24 240h-4q-100 -250 -100 -422q1 -172 67 -422t66 -300t-25 -132l5 -4q135 196 135 481zM-127 -242q1 102 95 101q44 0 110 -77t121 -77t99 70t44 164t-71 322t-71 389t65 342t187 305t267 124q91 0 157 -43t66 -94q0 -106 -90 -104
q-43 0 -102 74q-58 74 -118 75q-60 0 -108 -71q-48 -70 -49 -160q0 -90 39 -214t78 -266t39 -280q0 -319 -158 -521t-373 -202q-90 0 -158 46q-68 47 -69 97z" />
    <glyph glyph-name="dieresis" unicode="&#xa8;" horiz-adv-x="681" 
d="M633 1198q0 41 30 71q31 29 71 29t70 -30t30 -70q0 -41 -30 -71q-30 -29 -71 -29t-71 30t-29 70zM246 1198q0 41 29 71q30 29 71 29t71 -30q29 -30 29 -70q0 -41 -30 -71q-30 -29 -70 -29q-41 0 -71 29q-29 30 -29 71z" />
    <glyph glyph-name="copyright" unicode="&#xa9;" horiz-adv-x="1579" 
d="M1556 688q0 268 -189 458t-457 189q-268 0 -458 -189q-190 -190 -190 -458t190 -458t457 -189q268 0 458 189q189 190 189 458zM1618 688q0 -293 -208 -501q-208 -207 -501 -207t-501 208t-207 500q0 293 208 501q209 208 501 208t500 -208t208 -501zM936 1100
q-148 0 -234 -106t-86 -298t90 -296t240 -103q197 0 311 164l39 -21q-139 -203 -385 -202q-197 0 -329 128t-133 320q0 192 143 326q143 133 354 133q72 0 142 -23t81 -22q31 0 50 45h38l21 -281h-39q-72 236 -303 236z" />
    <glyph glyph-name="ordfeminine" unicode="&#xaa;" horiz-adv-x="661" 
d="M317 1044q0 -110 103 -110q51 0 111 60q59 60 105 154t46 142q0 50 -25 72t-63 22q-74 0 -137 -63t-101 -144t-39 -133zM694 920q43 0 111 112h39q-39 -78 -90 -124q-52 -46 -90 -46q-74 0 -74 82q0 45 20 100l-4 5q-106 -186 -250 -187q-57 0 -94 39t-37 98
q0 137 132 279t261 143q84 0 125 -65q37 35 52 61h32l-151 -446q-18 -51 18 -51z" />
    <glyph glyph-name="guillemotleft" unicode="&#xab;" horiz-adv-x="768" 
d="M309 526l140 -417h-41l-240 417l369 406h43zM565 526l97 -366h-50l-176 366l326 355h49z" />
    <glyph glyph-name="logicalnot" unicode="&#xac;" horiz-adv-x="1366" 
d="M225 831h1080v-575h-109v467h-971v108z" />
    <glyph glyph-name="uni00AD" unicode="&#xad;" horiz-adv-x="768" 
d="M143 535h615l-45 -144h-615z" />
    <glyph glyph-name="registered" unicode="&#xae;" horiz-adv-x="1579" 
d="M1556 688q0 268 -189 458t-457 189q-268 0 -458 -189q-190 -190 -190 -458t190 -458t457 -189q268 0 458 189q189 190 189 458zM1618 688q0 -293 -208 -501q-208 -207 -501 -207t-501 208t-207 500q0 293 208 501q209 208 501 208t500 -208t208 -501zM754 707h28
q121 0 189 48q67 48 67 132t-57 138t-145 54q-33 0 -82 -14v-358zM608 389v604q0 53 -20 73t-72 21v37h385q135 0 217 -61t82 -164q0 -166 -223 -221l209 -299q33 -49 58 -67q26 -17 63 -21v-33h-185l-295 406h-73v-285q0 -51 25 -70q26 -18 91 -18v-33h-366v33q61 0 83 22
q21 23 21 76z" />
    <glyph glyph-name="macron" unicode="&#xaf;" horiz-adv-x="681" 
d="M268 1264h690l-40 -134h-691z" />
    <glyph glyph-name="degree" unicode="&#xb0;" horiz-adv-x="759" 
d="M315 1075q0 -93 65 -157t157 -64q93 0 157 65t64 157t-65 156t-157 64t-156 -64q-65 -64 -65 -157zM215 1075q0 133 94 227q93 94 227 95q134 0 228 -94q94 -93 94 -227t-94 -228t-227 -94t-228 94q-94 94 -94 227z" />
    <glyph glyph-name="plusminus" unicode="&#xb1;" horiz-adv-x="1366" 
d="M225 109h1080v-109h-1080v109zM225 915h486v486h108v-486h486v-108h-486v-485h-108v485h-486v108z" />
    <glyph glyph-name="two.superior" unicode="&#xb2;" horiz-adv-x="661" 
d="M528 778q66 0 90 20t39 76h64l-51 -188h-465l10 37q31 43 171 161t212 190t74 130q0 58 -36 88q-36 31 -108 31t-176 -88l-43 33q117 129 273 129q90 0 150 -44t60 -118q0 -75 -68 -143t-198 -168t-184 -146h186z" />
    <glyph glyph-name="three.superior" unicode="&#xb3;" horiz-adv-x="661" 
d="M655 1232q0 44 -29 71q-30 27 -73 26q-78 0 -164 -86l-41 33q100 121 234 121q80 0 134 -41q54 -42 54 -102t-49 -112t-152 -83q115 -66 115 -164q0 -97 -90 -159t-250 -62t-160 53q0 17 16 31t29 14t69 -24t116 -25q60 0 104 42q45 41 45 109t-45 113t-170 45l12 45
q178 -6 256 72q39 39 39 83z" />
    <glyph glyph-name="acute" unicode="&#xb4;" horiz-adv-x="681" 
d="M674 1348q45 0 45 -31q0 -16 -19 -35l-202 -235h-64l76 247q10 31 30 42t66 12h68z" />
    <glyph glyph-name="mu" unicode="&#xb5;" horiz-adv-x="1024" 
d="M246 104q0 -22 14 -35t42 -13t65 23q37 24 110 97q129 129 231 301q101 172 148 324l29 92h143l-225 -748q-25 -84 12 -84q27 -1 74 49t86 123h57q-59 -119 -136 -187t-153 -69q-45 0 -71 25t-25 69q0 44 33 148l78 254l-4 4q-305 -500 -525 -500q-61 0 -94 39
q-18 -53 -41 -225q-24 -172 -56 -205q-32 -32 -64 -32t-54 20t-22 51t18 70t52 93t70 132t107 336l217 637h144l-242 -711q-18 -56 -18 -78z" />
    <glyph glyph-name="paragraph" unicode="&#xb6;" horiz-adv-x="897" 
d="M809 1346h-184v-1745h-60v1071q-223 -4 -345 85t-122 257t112 276t327 107h467v-37q-90 -4 -113 -34t-23 -140v-1585h-59v1745z" />
    <glyph glyph-name="periodcentered" unicode="&#xb7;" horiz-adv-x="555" 
d="M412 815q47 0 82 -35q34 -35 34 -82t-34 -82q-34 -34 -82 -34q-47 0 -82 34t-35 82q0 47 35 82t82 35z" />
    <glyph glyph-name="cedilla" unicode="&#xb8;" horiz-adv-x="681" 
d="M131 -354h-53l16 53q186 -4 187 92q0 55 -76 80l92 129h51l-37 -66q97 -35 97 -119q2 -169 -277 -169z" />
    <glyph glyph-name="one.superior" unicode="&#xb9;" horiz-adv-x="661" 
d="M500 778q0 -53 90 -47l-12 -45h-336l12 45q68 1 94 21t51 102l103 334q6 20 6 39t-23 25t-90 5l11 43q99 11 159 56q20 14 58 47h63l-170 -549q-16 -49 -16 -76z" />
    <glyph glyph-name="ordmasculine" unicode="&#xba;" horiz-adv-x="598" 
d="M340 1040q0 -68 28 -102q28 -35 78 -35t100 48q48 48 78 135q61 176 2 257q-28 37 -75 37t-100 -53t-82 -136t-29 -151zM233 1030q0 143 114 267t245 124q74 0 122 -49t48 -123q0 -125 -109 -256t-247 -131q-76 0 -124 46t-49 122z" />
    <glyph glyph-name="guillemotright" unicode="&#xbb;" horiz-adv-x="768" 
d="M575 514l-137 418h41l238 -418l-369 -405h-43zM319 514l-96 367h47l179 -367l-326 -354h-49z" />
    <glyph glyph-name="onequarter" unicode="&#xbc;" horiz-adv-x="1622" 
d="M80 -86l1333 1507h90l-1323 -1507h-100zM408 778q0 -53 90 -47l-13 -45h-335l12 45q68 1 94 21t51 102l103 334q6 20 6 39t-23 25t-90 5l10 43q101 11 160 56q20 14 57 47h64l-170 -549q-16 -49 -16 -76zM1214 279l97 301l-4 4l-344 -305h251zM883 203v76l489 430h94
l-137 -430h141l-20 -76h-139l-60 -215h-114l57 215h-311z" />
    <glyph glyph-name="onehalf" unicode="&#xbd;" horiz-adv-x="1622" 
d="M408 778q0 -53 90 -47l-13 -45h-335l12 45q68 1 94 21t51 102l103 334q6 20 6 39t-23 25t-90 5l10 43q101 11 160 56q20 14 57 47h64l-170 -549q-16 -49 -16 -76zM1386 518q0 120 -144 119q-73 0 -175 -88l-43 33q117 129 272 129q90 0 150 -44t61 -118q0 -75 -68 -143
q-69 -68 -199 -168t-183 -146h186q65 0 89 20t40 76h64l-52 -188h-464l10 37q31 43 171 161q141 118 213 190t72 130zM80 -86l1333 1507h90l-1323 -1507h-100z" />
    <glyph glyph-name="threequarters" unicode="&#xbe;" horiz-adv-x="1622" 
d="M121 -86l1333 1507h90l-1323 -1507h-100zM582 1232q0 44 -30 71t-73 26q-78 0 -164 -86l-41 33q100 121 234 121q80 0 134 -41q54 -42 54 -102t-49 -112t-151 -83q114 -66 114 -164q0 -97 -90 -159t-250 -62t-159 53q0 17 16 31q17 14 29 14t68 -24t116 -25q60 0 104 42
q44 41 45 109q0 68 -45 113t-170 45l13 45q178 -6 256 72q39 39 39 83zM1255 279l97 301l-4 4l-344 -305h251zM924 203v76l489 430h94l-137 -430h141l-20 -76h-139l-60 -215h-114l57 215h-311z" />
    <glyph glyph-name="questiondown" unicode="&#xbf;" horiz-adv-x="854" 
d="M670 676q-47 0 -82 35t-35 82t35 81t82 35q47 0 82 -35q34 -36 34 -82t-34 -81t-82 -35zM428 -535q-118 1 -228 137t-110 323t100 288q51 51 119 71t128 31q60 12 89 41q50 50 64 154h55q-10 -55 -20 -126t-20 -133t-31 -83q-21 -20 -78 -24q-177 -11 -252 -87
q-76 -75 -76 -191t51 -175t139 -60q37 0 125 11q29 0 49 -20t20 -58q0 -37 -36 -68q-37 -31 -88 -31z" />
    <glyph glyph-name="Agrave" unicode="&#xc0;" horiz-adv-x="1386" 
d="M1053 1765q0 31 45 31h67q47 0 67 -11t30 -42l75 -248h-63l-203 236q-18 18 -18 34zM1040 637l66 639l-4 4l-524 -643h462zM1176 184q0 -70 38 -103q38 -32 138 -30l-15 -51h-575l14 51q139 0 177 45t55 211l24 260h-510l-162 -196q-121 -150 -120 -209q0 -106 155 -111
l-14 -51h-481l14 51q60 19 110 61t156 169l963 1140h149l-110 -1114q-6 -53 -6 -123z" />
    <glyph glyph-name="Aacute" unicode="&#xc1;" horiz-adv-x="1386" 
d="M1321 1796h68q45 0 45 -31q0 -16 -19 -34l-203 -236h-63l76 248q10 31 29 42t67 11zM1040 637l66 639l-4 4l-524 -643h462zM1176 184q0 -70 38 -103q38 -32 138 -30l-15 -51h-575l14 51q139 0 177 45t55 211l24 260h-510l-162 -196q-121 -150 -120 -209q0 -106 155 -111
l-14 -51h-481l14 51q60 19 110 61t156 169l963 1140h149l-110 -1114q-6 -53 -6 -123z" />
    <glyph glyph-name="Acircumflex" unicode="&#xc2;" horiz-adv-x="1386" 
d="M1257 1683l-260 -200h-75l288 323h176l72 -323h-65zM1040 637l66 639l-4 4l-524 -643h462zM1176 184q0 -70 38 -103q38 -32 138 -30l-15 -51h-575l14 51q139 0 177 45t55 211l24 260h-510l-162 -196q-121 -150 -120 -209q0 -106 155 -111l-14 -51h-481l14 51
q60 19 110 61t156 169l963 1140h149l-110 -1114q-6 -53 -6 -123z" />
    <glyph glyph-name="Atilde" unicode="&#xc3;" horiz-adv-x="1386" 
d="M1399 1671q74 0 121 105l57 -29q-57 -223 -193 -223q-63 0 -152 51t-127 51t-65 -22q-26 -23 -55 -78l-55 24q20 100 71 162t111 64q60 0 158 -52q96 -52 129 -53zM1040 637l66 639l-4 4l-524 -643h462zM1176 184q0 -70 38 -103q38 -32 138 -30l-15 -51h-575l14 51
q139 0 177 45t55 211l24 260h-510l-162 -196q-121 -150 -120 -209q0 -106 155 -111l-14 -51h-481l14 51q60 19 110 61t156 169l963 1140h149l-110 -1114q-6 -53 -6 -123z" />
    <glyph glyph-name="Adieresis" unicode="&#xc4;" horiz-adv-x="1386" 
d="M1348 1647q0 41 30 71t70 29q41 0 71 -30q29 -31 29 -71t-30 -70t-70 -30q-41 0 -71 30q-29 30 -29 71zM961 1647q-1 41 29 71t71 29q41 0 71 -30q30 -31 30 -71t-30 -70t-71 -30t-71 30q-29 30 -29 71zM1040 637l66 639l-4 4l-524 -643h462zM1176 184q0 -70 38 -103
q38 -32 138 -30l-15 -51h-575l14 51q139 0 177 45t55 211l24 260h-510l-162 -196q-121 -150 -120 -209q0 -106 155 -111l-14 -51h-481l14 51q60 19 110 61t156 169l963 1140h149l-110 -1114q-6 -53 -6 -123z" />
    <glyph glyph-name="Aring" unicode="&#xc5;" horiz-adv-x="1386" 
d="M1262 1765q-47 1 -81 -33t-34 -81t34 -82t81 -35q48 0 82 35t34 82t-34 81t-82 33zM1266 1825q72 0 123 -51t51 -123t-51 -124t-123 -52t-124 52t-52 124t52 123t124 51zM1040 637l66 639l-4 4l-524 -643h462zM1176 184q0 -70 38 -103q38 -32 138 -30l-15 -51h-575l14 51
q139 0 177 45t55 211l24 260h-510l-162 -196q-121 -150 -120 -209q0 -106 155 -111l-14 -51h-481l14 51q60 19 110 61t156 169l963 1140h149l-110 -1114q-6 -53 -6 -123z" />
    <glyph glyph-name="AE" unicode="&#xc6;" horiz-adv-x="1878" 
d="M1141 1288q0 51 -43 51q-23 0 -43 -19t-76 -91l-358 -471h385l127 471q8 31 8 59zM219 177q0 -58 38 -92t108 -34l-13 -51h-485l12 51q68 6 123 45t162 176l665 856q63 84 63 124t-36 68q-37 28 -108 26l12 51h1243l-84 -316h-53q10 41 10 64q0 201 -184 201h-346
l-158 -588h246q121 0 184 48t108 152h50l-131 -489h-50q10 98 -30 168q-41 70 -121 70h-270l-119 -445q-20 -78 -21 -98q0 -113 207 -113h127q121 0 242 83t198 208h50l-152 -342h-1096l13 51q123 1 173 57t87 197l108 402h-416l-274 -363q-82 -109 -82 -167z" />
    <glyph glyph-name="Ccedilla" unicode="&#xc7;" horiz-adv-x="1536" 
d="M203 541q1 157 71 315q149 334 472 486q167 79 346 79q229 0 507 -139l-71 -313h-51q19 186 -109 302q-32 29 -108 61t-168 32q-227 0 -396 -168q-135 -134 -209 -322t-73 -337q0 -219 127 -361t325 -143q334 0 523 463h43l-82 -349q-252 -172 -514 -172h-68l-27 -41
q97 -35 97 -119q1 -169 -277 -169h-53l16 53q186 -4 187 92q0 55 -76 80l84 113q-229 37 -373 190q-143 154 -143 367z" />
    <glyph glyph-name="Egrave" unicode="&#xc8;" horiz-adv-x="1323" 
d="M813 1765q0 31 45 31h68q47 0 66 -11t30 -42l76 -248h-64l-203 236q-18 18 -18 34zM641 51h154q260 0 460 291h52l-152 -342h-1135l15 51q100 0 155 55t84 166l218 826q31 117 30 139q2 53 -41 82t-123 27l15 51h1079l-84 -316h-51q8 31 8 64q0 96 -46 148t-134 53h-402
l-157 -588h288q123 0 193 49t109 151h51l-131 -489h-52q10 98 -30 168q-41 70 -156 70h-287l-120 -449q-19 -66 -19 -106t50 -70q50 -31 159 -31z" />
    <glyph glyph-name="Eacute" unicode="&#xc9;" horiz-adv-x="1323" 
d="M1081 1796h68q45 0 45 -31q0 -16 -18 -34l-203 -236h-64l76 248q9 31 29 42t67 11zM641 51h154q260 0 460 291h52l-152 -342h-1135l15 51q100 0 155 55t84 166l218 826q31 117 30 139q2 53 -41 82t-123 27l15 51h1079l-84 -316h-51q8 31 8 64q0 96 -46 148t-134 53h-402
l-157 -588h288q123 0 193 49t109 151h51l-131 -489h-52q10 98 -30 168q-41 70 -156 70h-287l-120 -449q-19 -66 -19 -106t50 -70q50 -31 159 -31z" />
    <glyph glyph-name="Ecircumflex" unicode="&#xca;" horiz-adv-x="1323" 
d="M1018 1683l-260 -200h-76l289 323h176l72 -323h-66zM641 51h154q260 0 460 291h52l-152 -342h-1135l15 51q100 0 155 55t84 166l218 826q31 117 30 139q2 53 -41 82t-123 27l15 51h1079l-84 -316h-51q8 31 8 64q0 96 -46 148t-134 53h-402l-157 -588h288q123 0 193 49
t109 151h51l-131 -489h-52q10 98 -30 168q-41 70 -156 70h-287l-120 -449q-19 -66 -19 -106t50 -70q50 -31 159 -31z" />
    <glyph glyph-name="Edieresis" unicode="&#xcb;" horiz-adv-x="1323" 
d="M1108 1647q0 41 30 71t70 29q40 0 71 -30q30 -31 30 -71t-30 -70t-71 -30q-40 0 -70 30t-30 71zM721 1647q0 41 30 71q31 30 71 29q40 0 70 -30q30 -31 30 -71t-30 -70t-71 -30t-71 30t-29 71zM641 51h154q260 0 460 291h52l-152 -342h-1135l15 51q100 0 155 55t84 166
l218 826q31 117 30 139q2 53 -41 82t-123 27l15 51h1079l-84 -316h-51q8 31 8 64q0 96 -46 148t-134 53h-402l-157 -588h288q123 0 193 49t109 151h51l-131 -489h-52q10 98 -30 168q-41 70 -156 70h-287l-120 -449q-19 -66 -19 -106t50 -70q50 -31 159 -31z" />
    <glyph glyph-name="Igrave" unicode="&#xcc;" horiz-adv-x="724" 
d="M514 1765q0 31 45 31h68q47 0 66 -11t30 -42l76 -248h-64l-203 236q-18 18 -18 34zM428 164q0 -102 154 -113l-15 -51h-557l15 51q94 -2 153 55t92 179l213 807q31 118 31 156t-42 69t-120 29l17 51h573l-16 -51q-104 2 -162 -52t-90 -172l-215 -815q-31 -119 -31 -143z
" />
    <glyph glyph-name="Iacute" unicode="&#xcd;" horiz-adv-x="724" 
d="M782 1796h68q45 0 45 -31q0 -16 -18 -34l-203 -236h-64l76 248q10 31 30 42t66 11zM428 164q0 -102 154 -113l-15 -51h-557l15 51q94 -2 153 55t92 179l213 807q31 118 31 156t-42 69t-120 29l17 51h573l-16 -51q-104 2 -162 -52t-90 -172l-215 -815q-31 -119 -31 -143z
" />
    <glyph glyph-name="Icircumflex" unicode="&#xce;" horiz-adv-x="724" 
d="M719 1683l-260 -200h-76l289 323h176l72 -323h-66zM428 164q0 -102 154 -113l-15 -51h-557l15 51q94 -2 153 55t92 179l213 807q31 118 31 156t-42 69t-120 29l17 51h573l-16 -51q-104 2 -162 -52t-90 -172l-215 -815q-31 -119 -31 -143z" />
    <glyph glyph-name="Idieresis" unicode="&#xcf;" horiz-adv-x="724" 
d="M809 1647q0 41 30 71q31 30 71 29q40 0 70 -30q30 -31 30 -71t-30 -70t-71 -30t-71 30t-29 71zM422 1647q0 41 30 71t70 29q40 0 71 -30q30 -31 30 -71t-30 -70t-71 -30q-40 0 -70 30t-30 71zM428 164q0 -102 154 -113l-15 -51h-557l15 51q94 -2 153 55t92 179l213 807
q31 118 31 156t-42 69t-120 29l17 51h573l-16 -51q-104 2 -162 -52t-90 -172l-215 -815q-31 -119 -31 -143z" />
    <glyph glyph-name="Eth" unicode="&#xd0;" horiz-adv-x="1579" 
d="M430 172q0 -115 276 -115t439 162q205 205 205 572q0 251 -129 403t-369 152h-115l-166 -621h414l-14 -51h-414l-94 -357q-33 -119 -33 -145zM967 1397q272 1 433 -183t161 -432q0 -196 -107 -392q-59 -108 -146 -194q-88 -86 -228 -140q-140 -56 -314 -56h-723l14 51
q91 9 137 61t85 195l96 367h-164l14 51h164l100 379q27 102 27 144t-41 73t-117 29l15 47h594z" />
    <glyph glyph-name="Ntilde" unicode="&#xd1;" horiz-adv-x="1622" 
d="M1309 1671q74 0 121 105l57 -29q-57 -223 -193 -223q-63 0 -152 51t-127 51t-65 -22q-26 -23 -55 -78l-55 24q20 100 71 162t111 64q60 0 158 -52q96 -52 129 -53zM319 203q-1 -72 51 -112t152 -40l-12 -51h-490l13 51q96 4 149 54t82 163l254 953q-45 77 -88 101
t-131 24l14 51h297q37 -51 84 -131l576 -1004l209 780q29 104 29 165t-49 101q-48 40 -130 38l12 51h469l-12 -51q-102 0 -156 -66t-106 -254l-223 -833q12 -33 56 -102t56 -91h-200q-49 66 -152 248l-508 905l-219 -817q-27 -96 -27 -133z" />
    <glyph glyph-name="Ograve" unicode="&#xd2;" horiz-adv-x="1622" 
d="M963 1765q0 31 45 31h67q47 0 67 -11t29 -42l76 -248h-63l-203 236q-18 18 -18 34zM1027 1364q-179 0 -327 -147t-218 -353q-72 -206 -72 -390t104 -312t281 -129q92 0 187 42t165 111q117 117 195 326q79 209 79 377q0 215 -107 345q-108 130 -287 130zM209 549
q0 166 79 330q78 165 200 281t274 189t295 72q241 0 403 -172t162 -426q0 -199 -113 -395t-315 -324q-202 -129 -434 -129t-392 165t-159 409z" />
    <glyph glyph-name="Oacute" unicode="&#xd3;" horiz-adv-x="1622" 
d="M1231 1796h67q45 0 45 -31q0 -16 -18 -34l-203 -236h-63l76 248q10 31 29 42t67 11zM1027 1364q-179 0 -327 -147t-218 -353q-72 -206 -72 -390t104 -312t281 -129q92 0 187 42t165 111q117 117 195 326q79 209 79 377q0 215 -107 345q-108 130 -287 130zM209 549
q0 166 79 330q78 165 200 281t274 189t295 72q241 0 403 -172t162 -426q0 -199 -113 -395t-315 -324q-202 -129 -434 -129t-392 165t-159 409z" />
    <glyph glyph-name="Ocircumflex" unicode="&#xd4;" horiz-adv-x="1622" 
d="M1167 1683l-260 -200h-76l289 323h176l72 -323h-65zM1027 1364q-179 0 -327 -147t-218 -353q-72 -206 -72 -390t104 -312t281 -129q92 0 187 42t165 111q117 117 195 326q79 209 79 377q0 215 -107 345q-108 130 -287 130zM209 549q0 166 79 330q78 165 200 281t274 189
t295 72q241 0 403 -172t162 -426q0 -199 -113 -395t-315 -324q-202 -129 -434 -129t-392 165t-159 409z" />
    <glyph glyph-name="Otilde" unicode="&#xd5;" horiz-adv-x="1622" 
d="M1309 1671q74 0 121 105l57 -29q-57 -223 -193 -223q-63 0 -152 51t-127 51t-65 -22q-26 -23 -55 -78l-55 24q20 100 71 162t111 64q60 0 158 -52q96 -52 129 -53zM1027 1364q-179 0 -327 -147t-218 -353q-72 -206 -72 -390t104 -312t281 -129q92 0 187 42t165 111
q117 117 195 326q79 209 79 377q0 215 -107 345q-108 130 -287 130zM209 549q0 166 79 330q78 165 200 281t274 189t295 72q241 0 403 -172t162 -426q0 -199 -113 -395t-315 -324q-202 -129 -434 -129t-392 165t-159 409z" />
    <glyph glyph-name="Odieresis" unicode="&#xd6;" horiz-adv-x="1622" 
d="M1257 1647q0 41 30 71t71 29q40 0 70 -30q30 -31 30 -71t-30 -70t-70 -30t-71 30q-30 30 -30 71zM870 1647q0 41 30 71t71 29q41 0 71 -30q30 -31 29 -71q0 -40 -30 -70q-31 -30 -71 -30t-70 30t-30 71zM1027 1364q-179 0 -327 -147t-218 -353q-72 -206 -72 -390
t104 -312t281 -129q92 0 187 42t165 111q117 117 195 326q79 209 79 377q0 215 -107 345q-108 130 -287 130zM209 549q0 166 79 330q78 165 200 281t274 189t295 72q241 0 403 -172t162 -426q0 -199 -113 -395t-315 -324q-202 -129 -434 -129t-392 165t-159 409z" />
    <glyph glyph-name="multiply" unicode="&#xd7;" horiz-adv-x="1368" 
d="M274 952l76 76l414 -414l416 416l75 -76l-415 -415l415 -416l-75 -76l-416 416l-414 -414l-76 76l414 414z" />
    <glyph glyph-name="Oslash" unicode="&#xd8;" horiz-adv-x="1622" 
d="M1421 880q0 160 -59 281l-868 -973q117 -156 301 -155q92 0 187 42t165 111q117 117 195 326q79 208 79 368zM209 549q0 166 79 330q152 315 474 470q262 126 499 34q97 -38 150 -91l121 135l41 -30l-123 -140q172 -172 172 -434q0 -199 -113 -395t-315 -324
q-202 -129 -419 -129q-218 0 -361 123l-119 -133l-39 35l119 133q-166 166 -166 416zM1030 1364q-182 0 -330 -147t-219 -353t-71 -366q0 -162 55 -262l870 970q-45 70 -128 114t-177 44z" />
    <glyph glyph-name="Ugrave" unicode="&#xd9;" horiz-adv-x="1556" 
d="M930 1765q0 31 45 31h67q46 0 66 -11t31 -42l75 -248h-63l-203 236q-18 18 -18 34zM442 352q0 -123 114 -208t284 -85q229 0 354 125q82 82 119 230l145 608q23 90 23 165t-51 118t-138 41l13 51h487l-12 -51q-106 2 -162 -65t-98 -232l-156 -641q-53 -217 -204 -325
t-378 -108q-131 0 -235 38q-180 66 -253 221q-30 66 -30 130t33 189l145 543q31 110 31 152t-46 72t-132 26l12 51h584l-12 -51q-184 8 -238 -189l-176 -657q-23 -74 -23 -148z" />
    <glyph glyph-name="Uacute" unicode="&#xda;" horiz-adv-x="1556" 
d="M1198 1796h68q45 0 45 -31q0 -16 -19 -34l-202 -236h-64l76 248q10 31 30 42t66 11zM442 352q0 -123 114 -208t284 -85q229 0 354 125q82 82 119 230l145 608q23 90 23 165t-51 118t-138 41l13 51h487l-12 -51q-106 2 -162 -65t-98 -232l-156 -641q-53 -217 -204 -325
t-378 -108q-131 0 -235 38q-180 66 -253 221q-30 66 -30 130t33 189l145 543q31 110 31 152t-46 72t-132 26l12 51h584l-12 -51q-184 8 -238 -189l-176 -657q-23 -74 -23 -148z" />
    <glyph glyph-name="Ucircumflex" unicode="&#xdb;" horiz-adv-x="1556" 
d="M1135 1683l-261 -200h-75l288 323h177l71 -323h-65zM442 352q0 -123 114 -208t284 -85q229 0 354 125q82 82 119 230l145 608q23 90 23 165t-51 118t-138 41l13 51h487l-12 -51q-106 2 -162 -65t-98 -232l-156 -641q-53 -217 -204 -325t-378 -108q-131 0 -235 38
q-180 66 -253 221q-30 66 -30 130t33 189l145 543q31 110 31 152t-46 72t-132 26l12 51h584l-12 -51q-184 8 -238 -189l-176 -657q-23 -74 -23 -148z" />
    <glyph glyph-name="Udieresis" unicode="&#xdc;" horiz-adv-x="1556" 
d="M1225 1647q-1 41 29 71t71 29q41 0 71 -30q30 -31 30 -71t-30 -70t-71 -30t-71 30q-29 30 -29 71zM838 1647q0 41 30 71t70 29q41 0 71 -30q29 -31 29 -71t-30 -70t-70 -30q-41 0 -71 30q-29 30 -29 71zM442 352q0 -123 114 -208t284 -85q229 0 354 125q82 82 119 230
l145 608q23 90 23 165t-51 118t-138 41l13 51h487l-12 -51q-106 2 -162 -65t-98 -232l-156 -641q-53 -217 -204 -325t-378 -108q-131 0 -235 38q-180 66 -253 221q-30 66 -30 130t33 189l145 543q31 110 31 152t-46 72t-132 26l12 51h584l-12 -51q-184 8 -238 -189
l-176 -657q-23 -74 -23 -148z" />
    <glyph glyph-name="Yacute" unicode="&#xdd;" horiz-adv-x="1515" 
d="M1178 1796h67q45 0 45 -31q0 -16 -18 -34l-203 -236h-63l75 248q9 31 29 42t68 11zM659 1239q0 -84 46 -186l202 -469l363 420q90 104 116 148q27 44 27 90t-35 76t-108 28l12 51h479l-12 -51q-59 -4 -113 -42t-168 -167l-540 -611l-60 -223q-29 -109 -28 -141
q0 -121 192 -111l-12 -51h-598l12 51q182 -6 236 191l75 284l-251 611q-54 135 -96 172t-132 37l13 51h559l-13 -51q-166 0 -166 -107z" />
    <glyph glyph-name="Thorn" unicode="&#xde;" horiz-adv-x="1300" 
d="M864 1055q223 -1 339 -105t116 -241q-1 -168 -149 -282t-346 -114t-199 49q0 25 37 25h104q156 0 249 97t93 243q0 105 -85 191t-267 86h-111l-186 -701q-29 -113 -29 -141q0 -121 195 -111l-13 -51h-594l13 51q94 4 148 50t87 165l223 828q29 112 29 154t-46 72t-130 26
l12 51h568l-13 -47q-94 -4 -144 -50t-85 -170l-21 -75h205z" />
    <glyph glyph-name="germandbls" unicode="&#xdf;" horiz-adv-x="1067" 
d="M-297 -284q0 80 80 79q39 0 75 -56t82 -56t87 78q41 80 94 305l205 849q57 244 182 375t299 131q131 0 221 -80t90 -196q0 -209 -291 -316v-4q96 -31 150 -112q53 -82 53 -199q0 -192 -150 -364t-317 -173q-78 0 -129 34t-51 77t21 67q22 24 58 23t72 -56q13 -22 43 -39
t70 -17q106 0 167 112q60 112 60 266t-60 232t-191 100l14 51q59 -8 127 16q68 25 108 65t69 113q28 73 28 153t-51 136t-149 56q-193 0 -280 -373l-200 -841q-57 -240 -170 -388t-266 -149q-66 0 -108 31q-42 32 -42 70z" />
    <glyph glyph-name="agrave" unicode="&#xe0;" horiz-adv-x="1024" 
d="M510 1317q0 31 45 31h68q47 0 66 -12t30 -42l76 -247h-64l-203 235q-18 18 -18 35zM373 98q27 0 75 20q139 60 260 321q77 165 76 272q0 63 -36 102q-37 39 -101 39q-103 0 -201 -98t-162 -238t-65 -232q0 -90 42 -138t112 -48zM805 76q61 0 168 188h59
q-55 -125 -137 -206t-154 -81q-47 0 -75 38q-28 37 -29 99q0 62 37 175l-4 4q-166 -315 -387 -316q-88 0 -148 66q-59 67 -59 177t63 241q116 242 350 386q102 62 179 62q150 0 209 -108q37 39 75 102h54l-228 -743q-25 -84 27 -84z" />
    <glyph glyph-name="aacute" unicode="&#xe1;" horiz-adv-x="1024" 
d="M846 1348q45 0 45 -31q0 -16 -19 -35l-202 -235h-64l76 247q10 31 30 42t66 12h68zM373 98q27 0 75 20q139 60 260 321q77 165 76 272q0 63 -36 102q-37 39 -101 39q-103 0 -201 -98t-162 -238t-65 -232q0 -90 42 -138t112 -48zM805 76q61 0 168 188h59
q-55 -125 -137 -206t-154 -81q-47 0 -75 38q-28 37 -29 99q0 62 37 175l-4 4q-166 -315 -387 -316q-88 0 -148 66q-59 67 -59 177t63 241q116 242 350 386q102 62 179 62q150 0 209 -108q37 39 75 102h54l-228 -743q-25 -84 27 -84z" />
    <glyph glyph-name="acircumflex" unicode="&#xe2;" horiz-adv-x="1024" 
d="M715 1235l-260 -201h-76l289 324h176l71 -324h-65zM373 98q27 0 75 20q139 60 260 321q77 165 76 272q0 63 -36 102q-37 39 -101 39q-103 0 -201 -98t-162 -238t-65 -232q0 -90 42 -138t112 -48zM805 76q61 0 168 188h59q-55 -125 -137 -206t-154 -81q-47 0 -75 38
q-28 37 -29 99q0 62 37 175l-4 4q-166 -315 -387 -316q-88 0 -148 66q-59 67 -59 177t63 241q116 242 350 386q102 62 179 62q150 0 209 -108q37 39 75 102h54l-228 -743q-25 -84 27 -84z" />
    <glyph glyph-name="atilde" unicode="&#xe3;" horiz-adv-x="1024" 
d="M570 1327q60 0 157 -52t129 -52q74 0 121 104l57 -29q-57 -223 -192 -223q-62 0 -152 51q-90 52 -128 52t-64 -23t-56 -78l-55 25q19 100 71 162t112 63zM373 98q27 0 75 20q139 60 260 321q77 165 76 272q0 63 -36 102q-37 39 -101 39q-103 0 -201 -98t-162 -238
t-65 -232q0 -90 42 -138t112 -48zM805 76q61 0 168 188h59q-55 -125 -137 -206t-154 -81q-47 0 -75 38q-28 37 -29 99q0 62 37 175l-4 4q-166 -315 -387 -316q-88 0 -148 66q-59 67 -59 177t63 241q116 242 350 386q102 62 179 62q150 0 209 -108q37 39 75 102h54l-228 -743
q-25 -84 27 -84z" />
    <glyph glyph-name="adieresis" unicode="&#xe4;" horiz-adv-x="1024" 
d="M805 1198q0 41 30 71q31 29 71 29t70 -30t30 -70q0 -41 -30 -71q-30 -29 -71 -29t-71 30t-29 70zM418 1198q0 41 29 71q30 29 71 29t71 -30q29 -30 29 -70q0 -41 -30 -71q-30 -29 -70 -29q-41 0 -71 29q-29 30 -29 71zM373 98q27 0 75 20q139 60 260 321q77 165 76 272
q0 63 -36 102q-37 39 -101 39q-103 0 -201 -98t-162 -238t-65 -232q0 -90 42 -138t112 -48zM805 76q61 0 168 188h59q-55 -125 -137 -206t-154 -81q-47 0 -75 38q-28 37 -29 99q0 62 37 175l-4 4q-166 -315 -387 -316q-88 0 -148 66q-59 67 -59 177t63 241q116 242 350 386
q102 62 179 62q150 0 209 -108q37 39 75 102h54l-228 -743q-25 -84 27 -84z" />
    <glyph glyph-name="aring" unicode="&#xe5;" horiz-adv-x="1024" 
d="M719 1317q-47 0 -81 -34t-34 -81t34 -82t81 -35t82 35t35 82t-35 81t-82 34zM723 1376q72 0 123 -51t51 -123t-51 -124t-123 -52t-124 52t-52 124t52 123t124 51zM373 98q27 0 75 20q139 60 260 321q77 165 76 272q0 63 -36 102q-37 39 -101 39q-103 0 -201 -98
t-162 -238t-65 -232q0 -90 42 -138t112 -48zM805 76q61 0 168 188h59q-55 -125 -137 -206t-154 -81q-47 0 -75 38q-28 37 -29 99q0 62 37 175l-4 4q-166 -315 -387 -316q-88 0 -148 66q-59 67 -59 177t63 241q116 242 350 386q102 62 179 62q150 0 209 -108q37 39 75 102h54
l-228 -743q-25 -84 27 -84z" />
    <glyph glyph-name="ae" unicode="&#xe6;" horiz-adv-x="1343" 
d="M223 213q0 -55 37 -93t90 -38q90 0 162 68t121 167q47 100 119 235t219 265l-2 2q-395 -102 -598 -305q-148 -147 -148 -301zM1245 731q0 41 -30 70t-74 28q-94 0 -192 -121q-97 -122 -136 -286q190 41 311 127t121 182zM892 -23q-120 0 -184 73t-57 198l-4 4
q-160 -274 -368 -275q-95 1 -157 63t-63 157q0 162 148 309q106 106 269 191t311 127q308 87 396 86q89 -1 138 -46t49 -114q0 -102 -85 -182q-151 -143 -486 -195q-14 -63 -15 -94q0 -81 50 -133t125 -52t155 52t135 133h64q-78 -143 -190 -223q-111 -80 -231 -79z" />
    <glyph glyph-name="ccedilla" unicode="&#xe7;" horiz-adv-x="768" 
d="M86 264q0 120 90 280q90 159 219 262t236 103q71 0 115 -41t44 -93t-22 -79q-23 -27 -57 -26q-70 0 -70 86q0 51 -10 68q-10 18 -54 18q-43 0 -137 -88t-145 -218t-51 -230t50 -160q50 -58 126 -58t138 45t142 152h62q-174 -307 -426 -308l-25 -43q97 -35 97 -119
q1 -169 -277 -169h-53l16 53q186 -4 187 92q0 55 -76 80l80 113q-90 16 -145 88q-54 72 -54 192z" />
    <glyph glyph-name="egrave" unicode="&#xe8;" horiz-adv-x="768" 
d="M381 1317q0 31 45 31h68q47 0 66 -12t30 -42l76 -247h-64l-203 235q-18 18 -18 35zM662 719q0 47 -32 79t-79 31q-78 1 -157 -109t-138 -300q217 29 338 149q68 68 68 150zM342 -23q-114 0 -186 73t-72 204t89 291t215 262t233 102q71 0 113 -43q42 -42 42 -130t-80 -168
t-207 -134q-127 -53 -249 -65q-10 -20 -10 -95q0 -74 48 -130q50 -56 124 -56t148 49t124 137h65q-168 -297 -397 -297z" />
    <glyph glyph-name="eacute" unicode="&#xe9;" horiz-adv-x="768" 
d="M717 1348q45 0 45 -31q0 -16 -19 -35l-202 -235h-64l76 247q9 31 29 42t67 12h68zM662 719q0 47 -32 79t-79 31q-78 1 -157 -109t-138 -300q217 29 338 149q68 68 68 150zM342 -23q-114 0 -186 73t-72 204t89 291t215 262t233 102q71 0 113 -43q42 -42 42 -130t-80 -168
t-207 -134q-127 -53 -249 -65q-10 -20 -10 -95q0 -74 48 -130q50 -56 124 -56t148 49t124 137h65q-168 -297 -397 -297z" />
    <glyph glyph-name="ecircumflex" unicode="&#xea;" horiz-adv-x="768" 
d="M586 1235l-260 -201h-76l289 324h176l71 -324h-65zM662 719q0 47 -32 79t-79 31q-78 1 -157 -109t-138 -300q217 29 338 149q68 68 68 150zM342 -23q-114 0 -186 73t-72 204t89 291t215 262t233 102q71 0 113 -43q42 -42 42 -130t-80 -168t-207 -134q-127 -53 -249 -65
q-10 -20 -10 -95q0 -74 48 -130q50 -56 124 -56t148 49t124 137h65q-168 -297 -397 -297z" />
    <glyph glyph-name="edieresis" unicode="&#xeb;" horiz-adv-x="768" 
d="M676 1198q0 41 30 71q30 29 70 29t71 -30q30 -30 30 -70q0 -41 -30 -71q-30 -29 -71 -29q-40 0 -70 30t-30 70zM289 1198q0 41 29 71q30 29 71 29t71 -30t30 -70q0 -41 -30 -71q-30 -29 -71 -29t-71 29q-29 30 -29 71zM662 719q0 47 -32 79t-79 31q-78 1 -157 -109
t-138 -300q217 29 338 149q68 68 68 150zM342 -23q-114 0 -186 73t-72 204t89 291t215 262t233 102q71 0 113 -43q42 -42 42 -130t-80 -168t-207 -134q-127 -53 -249 -65q-10 -20 -10 -95q0 -74 48 -130q50 -56 124 -56t148 49t124 137h65q-168 -297 -397 -297z" />
    <glyph glyph-name="igrave" unicode="&#xec;" horiz-adv-x="575" 
d="M285 1317q0 31 45 31h67q47 0 67 -12t30 -42l75 -247h-63l-203 235q-18 18 -18 35zM393 909q45 -1 75 -31t30 -80t-33 -149l-176 -506q-22 -75 20 -75q35 0 95 62t100 138h63q-55 -121 -147 -206t-168 -85q-47 0 -76 31t-29 82t19 111l174 504q41 117 -6 116
q-38 0 -92 -54t-97 -134h-59q59 121 145 199t162 77z" />
    <glyph glyph-name="iacute" unicode="&#xed;" horiz-adv-x="575" 
d="M621 1348q45 0 45 -31q0 -16 -19 -35l-203 -235h-63l76 247q10 31 29 42t67 12h68zM393 909q45 -1 75 -31t30 -80t-33 -149l-176 -506q-22 -75 20 -75q35 0 95 62t100 138h63q-55 -121 -147 -206t-168 -85q-47 0 -76 31t-29 82t19 111l174 504q41 117 -6 116
q-38 0 -92 -54t-97 -134h-59q59 121 145 199t162 77z" />
    <glyph glyph-name="icircumflex" unicode="&#xee;" horiz-adv-x="575" 
d="M489 1235l-260 -201h-75l288 324h176l72 -324h-65zM393 909q45 -1 75 -31t30 -80t-33 -149l-176 -506q-22 -75 20 -75q35 0 95 62t100 138h63q-55 -121 -147 -206t-168 -85q-47 0 -76 31t-29 82t19 111l174 504q41 117 -6 116q-38 0 -92 -54t-97 -134h-59q59 121 145 199
t162 77z" />
    <glyph glyph-name="idieresis" unicode="&#xef;" horiz-adv-x="575" 
d="M580 1198q0 41 29 71q30 29 71 29t71 -30q29 -30 29 -70q0 -41 -30 -71q-30 -29 -70 -29q-41 0 -71 29q-29 30 -29 71zM193 1198q0 41 29 71q30 29 71 29t71 -30t30 -70q0 -41 -30 -71q-30 -29 -71 -29t-71 29q-29 30 -29 71zM393 909q45 -1 75 -31t30 -80t-33 -149
l-176 -506q-22 -75 20 -75q35 0 95 62t100 138h63q-55 -121 -147 -206t-168 -85q-47 0 -76 31t-29 82t19 111l174 504q41 117 -6 116q-38 0 -92 -54t-97 -134h-59q59 121 145 199t162 77z" />
    <glyph glyph-name="eth" unicode="&#xf0;" horiz-adv-x="917" 
d="M901 678q0 -276 -176 -488t-373 -213q-118 0 -190 78t-72 201q6 141 67 270q102 219 299 336q79 47 130 47q92 0 149 -80l4 5q4 164 -106 376l-221 -112l-29 55l217 113q-35 68 -98 137l59 24q66 -49 123 -118l231 118l29 -55l-221 -115q94 -137 136 -298t42 -281z
M254 278q0 -232 161 -233q77 1 149 73t123 225q50 153 50 263t-43 172q-44 62 -114 64q-70 0 -150 -80t-128 -224q-48 -142 -48 -260z" />
    <glyph glyph-name="ntilde" unicode="&#xf1;" 
d="M600 1327q60 0 158 -52q96 -52 129 -52q74 0 121 104l57 -29q-57 -223 -193 -223q-63 0 -152 51q-89 52 -127 52q-39 0 -65 -23t-55 -78l-55 25q20 100 71 162t111 63zM328 829q-31 0 -74 -46t-86 -126h-57q55 117 132 185t154 67q41 1 69 -25t28 -69t-25 -125l-90 -282
l4 -5q166 267 289 387t231 119q59 -1 94 -31t35 -82t-45 -184l-151 -434q-33 -90 16 -90q57 0 170 178h65q-75 -121 -159 -205t-154 -84q-43 0 -73 30q-29 30 -29 70t26 120l174 503q43 133 -28 136q-55 0 -159 -104q-105 -104 -229 -294t-163 -313l-39 -125h-143l227 743
q27 86 -10 86z" />
    <glyph glyph-name="ograve" unicode="&#xf2;" horiz-adv-x="917" 
d="M457 1317q0 31 45 31h67q47 0 67 -12t30 -42l75 -247h-63l-203 235q-18 18 -18 35zM254 278q0 -232 161 -233q77 1 149 73t123 225q50 153 50 263t-43 172q-44 62 -114 64q-70 0 -150 -80t-128 -224q-48 -142 -48 -260zM90 272q0 140 81 292t210 249q129 96 250 96
t195 -82q74 -81 75 -211q0 -130 -76 -280q-75 -150 -205 -254t-258 -104t-200 77t-72 217z" />
    <glyph glyph-name="oacute" unicode="&#xf3;" horiz-adv-x="917" 
d="M793 1348q45 0 45 -31q0 -16 -19 -35l-203 -235h-63l76 247q10 31 29 42t67 12h68zM254 278q0 -232 161 -233q77 1 149 73t123 225q50 153 50 263t-43 172q-44 62 -114 64q-70 0 -150 -80t-128 -224q-48 -142 -48 -260zM90 272q0 140 81 292t210 249q129 96 250 96
t195 -82q74 -81 75 -211q0 -130 -76 -280q-75 -150 -205 -254t-258 -104t-200 77t-72 217z" />
    <glyph glyph-name="ocircumflex" unicode="&#xf4;" horiz-adv-x="917" 
d="M662 1235l-261 -201h-75l288 324h177l71 -324h-65zM254 278q0 -232 161 -233q77 1 149 73t123 225q50 153 50 263t-43 172q-44 62 -114 64q-70 0 -150 -80t-128 -224q-48 -142 -48 -260zM90 272q0 140 81 292t210 249q129 96 250 96t195 -82q74 -81 75 -211
q0 -130 -76 -280q-75 -150 -205 -254t-258 -104t-200 77t-72 217z" />
    <glyph glyph-name="otilde" unicode="&#xf5;" horiz-adv-x="917" 
d="M517 1327q61 0 157 -52t129 -52q74 0 121 104l57 -29q-57 -223 -193 -223q-63 0 -152 51q-89 52 -127 52q-39 0 -65 -23t-55 -78l-55 25q20 100 72 162t111 63zM254 278q0 -232 161 -233q77 1 149 73t123 225q50 153 50 263t-43 172q-44 62 -114 64q-70 0 -150 -80
t-128 -224q-48 -142 -48 -260zM90 272q0 140 81 292t210 249q129 96 250 96t195 -82q74 -81 75 -211q0 -130 -76 -280q-75 -150 -205 -254t-258 -104t-200 77t-72 217z" />
    <glyph glyph-name="odieresis" unicode="&#xf6;" horiz-adv-x="917" 
d="M752 1198q0 41 29 71q30 29 71 29t71 -30q29 -30 29 -70q0 -41 -30 -71q-30 -29 -70 -29q-41 0 -71 29q-29 30 -29 71zM365 1198q0 41 29 71q30 29 71 29t71 -30t30 -70q0 -41 -30 -71q-30 -29 -71 -29t-71 29q-29 30 -29 71zM254 278q0 -232 161 -233q77 1 149 73
t123 225q50 153 50 263t-43 172q-44 62 -114 64q-70 0 -150 -80t-128 -224q-48 -142 -48 -260zM90 272q0 140 81 292t210 249q129 96 250 96t195 -82q74 -81 75 -211q0 -130 -76 -280q-75 -150 -205 -254t-258 -104t-200 77t-72 217z" />
    <glyph glyph-name="divide" unicode="&#xf7;" horiz-adv-x="1368" 
d="M225 594h1080v-109h-1080v109zM766 1022q31 0 51 -20q21 -20 21 -52q0 -30 -20 -52t-52 -22q-30 0 -52 22t-22 52t22 52q22 20 52 20zM766 203q31 -1 51 -21q21 -20 21 -51t-20 -53t-52 -21q-30 0 -52 22q-22 23 -22 53t22 50t52 21z" />
    <glyph glyph-name="oslash" unicode="&#xf8;" horiz-adv-x="917" 
d="M570 842q-60 0 -140 -80t-128 -223t-48 -283q0 -31 2 -39l461 520q-14 43 -51 74q-36 31 -96 31zM90 281q0 131 81 283t210 249q129 96 241 96t189 -65l72 82l39 -33l-78 -88q57 -71 57 -195t-76 -274q-75 -150 -205 -254t-254 -104t-194 69l-86 -96l-37 33l90 102
q-49 64 -49 195zM412 45q80 1 152 73t123 225q50 153 50 271q0 41 -6 66l-463 -524q43 -111 144 -111z" />
    <glyph glyph-name="ugrave" unicode="&#xf9;" 
d="M541 1317q0 31 45 31h67q47 0 67 -12t30 -42l75 -247h-63l-203 235q-18 18 -18 35zM844 61q29 1 79 55t81 117h55q-57 -119 -135 -187t-154 -69q-43 0 -69 25q-25 25 -25 72t31 145l79 254l-4 4q-162 -258 -284 -379t-242 -121q-53 0 -86 32t-33 87t39 172l162 475
q22 66 -24 66t-164 -182h-62q172 283 311 282q41 1 68 -27t27 -68t-33 -134l-168 -498q-19 -56 -19 -78t14 -35t36 -14q66 1 184 119t238 318t165 401h144l-228 -754q-25 -78 17 -78z" />
    <glyph glyph-name="uacute" unicode="&#xfa;" 
d="M877 1348q45 0 45 -31q0 -16 -19 -35l-203 -235h-63l76 247q10 31 29 42t67 12h68zM844 61q29 1 79 55t81 117h55q-57 -119 -135 -187t-154 -69q-43 0 -69 25q-25 25 -25 72t31 145l79 254l-4 4q-162 -258 -284 -379t-242 -121q-53 0 -86 32t-33 87t39 172l162 475
q22 66 -24 66t-164 -182h-62q172 283 311 282q41 1 68 -27t27 -68t-33 -134l-168 -498q-19 -56 -19 -78t14 -35t36 -14q66 1 184 119t238 318t165 401h144l-228 -754q-25 -78 17 -78z" />
    <glyph glyph-name="ucircumflex" unicode="&#xfb;" 
d="M745 1235l-260 -201h-75l288 324h176l72 -324h-65zM844 61q29 1 79 55t81 117h55q-57 -119 -135 -187t-154 -69q-43 0 -69 25q-25 25 -25 72t31 145l79 254l-4 4q-162 -258 -284 -379t-242 -121q-53 0 -86 32t-33 87t39 172l162 475q22 66 -24 66t-164 -182h-62
q172 283 311 282q41 1 68 -27t27 -68t-33 -134l-168 -498q-19 -56 -19 -78t14 -35t36 -14q66 1 184 119t238 318t165 401h144l-228 -754q-25 -78 17 -78z" />
    <glyph glyph-name="udieresis" unicode="&#xfc;" 
d="M836 1198q0 41 29 71q30 29 71 29t71 -30q29 -30 29 -70q0 -41 -30 -71q-30 -29 -70 -29q-41 0 -71 29q-29 30 -29 71zM449 1198q0 41 29 71q30 29 71 29t71 -30t30 -70q0 -41 -30 -71q-30 -29 -71 -29t-71 29q-29 30 -29 71zM844 61q29 1 79 55t81 117h55
q-57 -119 -135 -187t-154 -69q-43 0 -69 25q-25 25 -25 72t31 145l79 254l-4 4q-162 -258 -284 -379t-242 -121q-53 0 -86 32t-33 87t39 172l162 475q22 66 -24 66t-164 -182h-62q172 283 311 282q41 1 68 -27t27 -68t-33 -134l-168 -498q-19 -56 -19 -78t14 -35t36 -14
q66 1 184 119t238 318t165 401h144l-228 -754q-25 -78 17 -78z" />
    <glyph glyph-name="yacute" unicode="&#xfd;" horiz-adv-x="1024" 
d="M846 1348q45 0 45 -31q0 -16 -19 -35l-202 -235h-64l76 247q10 31 30 42t66 12h68zM350 909q59 0 88 -38t51 -128l154 -661q119 142 187 290t69 263q0 45 -26 109q-25 64 -25 94q0 28 20 50t60 22t70 -42q30 -41 30 -102q0 -166 -136 -414t-349 -461q-276 -276 -510 -276
q-72 0 -117 28q-45 27 -45 65t21 59q22 20 56 20t91 -40t98 -40q137 0 391 244l-188 792q-14 63 -41 64q-61 0 -137 -201h-60q51 143 120 223t128 80z" />
    <glyph glyph-name="thorn" unicode="&#xfe;" horiz-adv-x="1024" 
d="M852 537q0 121 -69 191t-183 71q-39 0 -68 -4l-204 -752q231 6 362 137q162 162 162 357zM670 909q150 0 240 -89t91 -234q0 -223 -190 -414q-96 -96 -217 -140t-285 -57l-37 -137q-18 -68 -18 -100q0 -67 160 -72l-17 -51h-473l17 51q79 2 119 36t61 112l254 940
q-106 -39 -254 -193h-68q162 207 346 281l103 379q14 57 16 79q4 45 -76 46h-112l14 51h129q133 0 207 24h25l-144 -524q46 12 109 12z" />
    <glyph glyph-name="ydieresis" unicode="&#xff;" horiz-adv-x="1024" 
d="M805 1198q0 41 30 71q31 29 71 29t70 -30t30 -70q0 -41 -30 -71q-30 -29 -71 -29t-71 30t-29 70zM418 1198q0 41 29 71q30 29 71 29t71 -30q29 -30 29 -70q0 -41 -30 -71q-30 -29 -70 -29q-41 0 -71 29q-29 30 -29 71zM350 909q59 0 88 -38t51 -128l154 -661
q119 142 187 290t69 263q0 45 -26 109q-25 64 -25 94q0 28 20 50t60 22t70 -42q30 -41 30 -102q0 -166 -136 -414t-349 -461q-276 -276 -510 -276q-72 0 -117 28q-45 27 -45 65t21 59q22 20 56 20t91 -40t98 -40q137 0 391 244l-188 792q-14 63 -41 64q-61 0 -137 -201h-60
q51 143 120 223t128 80z" />
    <glyph glyph-name="dotlessi" unicode="&#x131;" horiz-adv-x="575" 
d="M393 909q45 -1 75 -31t30 -80t-33 -149l-176 -506q-22 -75 20 -75q35 0 95 62t100 138h63q-55 -121 -147 -206t-168 -85q-47 0 -76 31t-29 82t19 111l174 504q41 117 -6 116q-38 0 -92 -54t-97 -134h-59q59 121 145 199t162 77z" />
    <glyph glyph-name="Lslash" unicode="&#x141;" horiz-adv-x="1236" 
d="M430 164q0 -113 188 -113h158q172 0 283 67t229 232h45l-151 -350h-1170l17 51q113 3 165 59t87 189l90 330l-4 4l-185 -146l29 117l190 148l91 340q29 109 28 143q0 100 -133 111l12 51h537l-12 -51q-109 0 -162 -60t-88 -194l-56 -199l5 -4l225 176l-33 -119l-227 -174
l-142 -528q-16 -57 -16 -80z" />
    <glyph glyph-name="lslash" unicode="&#x142;" horiz-adv-x="555" 
d="M295 72q29 0 86 57t102 131h68q-66 -121 -161 -202t-171 -81q-41 0 -71 30t-30 75t36 156l96 313l-4 4l-164 -129l33 111l168 127l161 522q25 78 25 108t-32 41q-32 10 -150 8l14 54q252 -6 332 24h29l-199 -649l4 -4l225 174l-35 -111l-229 -174l-160 -522
q-18 -63 27 -63z" />
    <glyph glyph-name="OE" unicode="&#x152;" horiz-adv-x="2134" 
d="M750 57q74 0 154 33t138 90q133 133 212 347q79 213 79 403t-92 300t-247 110q-154 0 -280 -129q-126 -128 -213 -354t-87 -409t104 -287t232 -104zM1702 758q197 0 272 200h51l-133 -489h-51q14 104 -30 171t-140 67h-172q-25 -180 -171 -376t-357 -276v-4h612
q145 0 250 65q104 65 223 226h49l-149 -342h-1211q-238 0 -385 167t-147 392q0 160 75 318q141 298 424 450q128 70 236 70h1307l-84 -316h-49q14 105 -26 185t-136 80h-711v-5q131 -71 202 -197t71 -286q-1 -45 -9 -100h189z" />
    <glyph glyph-name="oe" unicode="&#x153;" horiz-adv-x="1366" 
d="M1262 721q0 41 -32 71t-77 29q-96 0 -173 -100t-126 -291q158 25 283 114t125 177zM260 248q0 -203 150 -203q75 0 156 81q81 80 128 236t47 262t-41 162q-40 56 -114 56t-133 -60q-89 -90 -141 -248t-52 -286zM924 -23q-184 0 -236 168q-168 -168 -338 -168
q-114 0 -184 77t-70 206t74 281q74 153 203 261t264 107q95 0 155 -44t101 -142q51 82 138 134t170 52t130 -42t47 -111q0 -131 -152 -239t-388 -140q-16 -61 -16 -126t46 -114q47 -49 125 -49q156 0 279 188h65q-73 -137 -185 -218t-228 -81z" />
    <glyph glyph-name="Scaron" unicode="&#x160;" horiz-adv-x="1216" 
d="M948 1606l260 200h76l-289 -323h-176l-71 323h65zM590 33q150 0 245 75t95 189q0 139 -200 307l-166 140t-141 154q-58 85 -58 171q0 156 131 254q132 98 348 98t448 -131l-78 -297l-45 13q-6 172 -97 265q-92 93 -234 93t-223 -62t-81 -146t59 -157q58 -73 140 -137
t165 -134t141 -166q58 -95 59 -202q0 -152 -124 -268t-362 -117q-126 0 -278 44t-279 118l88 326l50 -12q-16 -170 88 -294t309 -124z" />
    <glyph glyph-name="scaron" unicode="&#x161;" horiz-adv-x="704" 
d="M539 1157l260 201h75l-288 -324h-176l-72 324h65zM227 687q0 83 82 153q83 70 181 70t150 -38q52 -37 52 -94q0 -32 -22 -54t-50 -22q-30 0 -51 22q-20 22 -29 48t-31 48q-21 22 -63 22t-78 -31t-36 -76q0 -83 126 -222q48 -52 87 -125t39 -142q0 -115 -85 -192t-195 -77
q-110 -1 -175 47q-66 48 -66 113q0 31 22 53q21 22 53 21q32 0 55 -26q23 -25 35 -57t40 -58q29 -26 77 -25q48 0 87 39t39 90q0 50 -38 114t-84 116t-84 126t-38 157z" />
    <glyph glyph-name="Ydieresis" unicode="&#x178;" horiz-adv-x="1515" 
d="M1204 1647q0 41 30 71t71 29q41 0 71 -30q30 -31 29 -71q0 -40 -30 -70q-31 -30 -71 -30t-70 30t-30 71zM817 1647q0 41 30 71t71 29q40 0 70 -30q30 -31 30 -71t-30 -70t-70 -30t-71 30q-30 30 -30 71zM659 1239q0 -84 46 -186l202 -469l363 420q90 104 116 148
q27 44 27 90t-35 76t-108 28l12 51h479l-12 -51q-59 -4 -113 -42t-168 -167l-540 -611l-60 -223q-29 -109 -28 -141q0 -121 192 -111l-12 -51h-598l12 51q182 -6 236 191l75 284l-251 611q-54 135 -96 172t-132 37l13 51h559l-13 -51q-166 0 -166 -107z" />
    <glyph glyph-name="Zcaron" unicode="&#x17d;" horiz-adv-x="1386" 
d="M1032 1606l260 200h76l-289 -323h-176l-72 323h66zM1487 1397v-41l-1194 -1305h461q147 0 255 71t224 234h49l-145 -356h-1090v51l1186 1295h-393q-132 0 -224 -58t-192 -192h-45l102 301h1006z" />
    <glyph glyph-name="zcaron" unicode="&#x17e;" horiz-adv-x="1003" 
d="M688 1157l260 201h76l-289 -324h-176l-72 324h66zM1010 866q0 -76 -131 -207q-76 -77 -341 -239t-331 -238l4 -4q63 16 142 16t202 -59q103 -61 146 -61t65 19q44 39 -8 103q-29 34 -29 62q1 28 21 48t51 20t55 -29t23 -70q0 -96 -80 -173q-81 -77 -177 -77t-243 72
t-180 72q-33 1 -49 -15t-17 -36l10 -52q0 -41 -39 -41q-45 0 -45 46q0 78 117 204q46 49 112 99t266 172t273 194q37 33 41 35l-4 4q-68 -29 -128 -29t-175 60q-101 59 -151 59t-74 -18q-24 -17 -23 -35q0 -18 31 -49t31 -62q-1 -31 -21 -51t-52 -20t-56 26t-23 64
q0 96 81 165q82 69 186 69t224 -61t152 -61t54 14q20 14 20 32l-8 51q0 25 33 24q45 0 45 -43z" />
    <glyph glyph-name="florin" unicode="&#x192;" horiz-adv-x="1067" 
d="M1008 1421q68 -1 106 -29t39 -69q0 -41 -20 -61q-21 -20 -57 -20t-75 55q-79 114 -137 0q-29 -56 -63 -201l-53 -215h182l-12 -52h-183l-155 -651q-135 -563 -428 -563q-68 0 -108 28q-40 29 -40 69t20 62t54 22q33 0 72 -57q39 -56 77 -56q88 0 148 245l217 901h-203
l12 52h203l10 45q52 238 156 366t238 129z" />
    <glyph glyph-name="circumflex" unicode="&#x2c6;" horiz-adv-x="681" 
d="M543 1235l-260 -201h-76l289 324h176l71 -324h-65z" />
    <glyph glyph-name="caron" unicode="&#x2c7;" horiz-adv-x="681" 
d="M526 1157l260 201h76l-289 -324h-176l-71 324h65z" />
    <glyph glyph-name="uni02C9" unicode="&#x2c9;" horiz-adv-x="681" 
d="M268 1264h690l-40 -134h-691z" />
    <glyph glyph-name="breve" unicode="&#x2d8;" horiz-adv-x="681" 
d="M536 1180q87 0 142 38t102 128h23q-76 -291 -279 -291q-84 0 -139 51t-55 115t20 125h19q-4 -86 38 -126t129 -40z" />
    <glyph glyph-name="dotaccent" unicode="&#x2d9;" horiz-adv-x="681" 
d="M539 1298q41 0 71 -30t29 -70q0 -41 -30 -71q-31 -29 -71 -29t-70 30t-30 70t30 70t71 30z" />
    <glyph glyph-name="ring" unicode="&#x2da;" horiz-adv-x="681" 
d="M547 1317q-47 0 -81 -34t-34 -81t34 -82t81 -35t82 35t35 82t-35 81t-82 34zM551 1376q72 0 123 -51t51 -123t-51 -124t-123 -52t-124 52t-52 124t52 123t124 51z" />
    <glyph glyph-name="ogonek" unicode="&#x2db;" horiz-adv-x="681" 
d="M266 -162q0 -118 133 -117q49 0 111 19l-10 -72q-164 -70 -271 22q-57 50 -57 129t102 181h84q-92 -102 -92 -162z" />
    <glyph glyph-name="tilde" unicode="&#x2dc;" horiz-adv-x="681" 
d="M398 1327q60 0 156 -52t130 -52q74 0 121 104l57 -29q-57 -223 -192 -223q-62 0 -152 51q-90 52 -128 52t-64 -23t-56 -78l-55 25q19 100 71 162t112 63z" />
    <glyph glyph-name="hungarumlaut" unicode="&#x2dd;" horiz-adv-x="681" 
d="M639 1346q45 0 45 -31q0 -16 -18 -35l-203 -236h-64l76 248q9 31 29 42t67 12h68zM915 1346q45 0 46 -31q0 -16 -19 -35l-203 -236h-63l76 248q10 31 29 42t67 12h67z" />
    <glyph glyph-name="uni03A9" unicode="&#x3a9;" horiz-adv-x="1423" 
d="M178 102h217q-236 291 -131 633q86 281 301 453t459 172t349 -163t20 -445q-39 -130 -139 -264t-184 -214q-85 -80 -202 -172h219q63 0 98 26q34 26 97 128l41 -4l-123 -252h-444l-2 33q8 8 90 96q240 258 332 435q43 83 67 169q66 209 39 337t-98 183q-72 55 -183 56
q-182 -1 -342 -145t-251 -443q-41 -148 -38 -218q3 -71 4 -97t10 -73t12 -65q2 -18 16 -65t17 -57t21 -60q18 -49 17 -51l-25 -35h-438l33 252l41 4q0 -96 20 -125t80 -29z" />
    <glyph glyph-name="uni03BC" unicode="&#x3bc;" horiz-adv-x="1024" 
d="M246 104q0 -22 14 -35t42 -13t65 23q37 24 110 97q129 129 231 301q101 172 148 324l29 92h143l-225 -748q-25 -84 12 -84q27 -1 74 49t86 123h57q-59 -119 -136 -187t-153 -69q-45 0 -71 25t-25 69q0 44 33 148l78 254l-4 4q-305 -500 -525 -500q-61 0 -94 39
q-18 -53 -41 -225q-24 -172 -56 -205q-32 -32 -64 -32t-54 20t-22 51t18 70t52 93t70 132t107 336l217 637h144l-242 -711q-18 -56 -18 -78z" />
    <glyph glyph-name="pi" unicode="&#x3c0;" horiz-adv-x="1083" 
d="M813 70q51 0 125 67l14 -33q-109 -127 -225 -127q-77 1 -99 49t15 193q49 160 184 531q-121 4 -335 4l-13 -43q-61 -201 -166 -422t-178 -279q-76 -31 -115 -33v29q133 115 242 332t170 420q-116 0 -202 -46q-28 -15 -83 -53l-14 35q109 92 185 128t182 36l518 -8
q46 0 72 14t65 54l35 -19q-49 -88 -111 -145q-43 -8 -141 -9q-25 -63 -160 -493q-53 -182 35 -182z" />
    <glyph glyph-name="endash" unicode="&#x2013;" horiz-adv-x="1024" 
d="M-12 578h1048v-132h-1048v132z" />
    <glyph glyph-name="emdash" unicode="&#x2014;" horiz-adv-x="2048" 
d="M-12 578h2072v-132h-2072v132z" />
    <glyph glyph-name="quoteleft" unicode="&#x2018;" horiz-adv-x="555" 
d="M332 1065q0 103 105 218q106 115 288 138v-59q-119 -14 -193 -82t-73 -154q-1 -38 23 -60t53 -30t53 -30t22 -66q0 -43 -30 -73q-30 -29 -92 -29q-60 0 -108 62t-48 165z" />
    <glyph glyph-name="quoteright" unicode="&#x2019;" horiz-adv-x="555" 
d="M512 1133q0 37 -24 59t-52 31t-52 31t-24 64t31 73t91 31t109 -63q48 -62 48 -165q1 -103 -105 -218t-288 -138v59q118 14 192 82t74 154z" />
    <glyph glyph-name="quotesinglbase" unicode="&#x201a;" horiz-adv-x="555" 
d="M303 -10q1 38 -23 60t-53 30t-53 31t-22 65q0 42 30 72q32 31 92 31q60 -1 108 -63t48 -165t-106 -218t-287 -138v59q119 14 193 82t73 154z" />
    <glyph glyph-name="quotedblleft" unicode="&#x201c;" horiz-adv-x="1003" 
d="M434 1126q0 -38 24 -60t52 -30t52 -30t24 -66q0 -43 -31 -73q-31 -29 -91 -29t-109 62q-48 62 -48 165q-1 103 105 218t288 138v-59q-118 -14 -192 -82t-74 -154zM905 1126q0 -38 24 -60q25 -22 53 -30t52 -30t23 -66q0 -43 -31 -73q-32 -29 -92 -29t-108 62t-48 165
t106 218t287 138v-59q-119 -14 -193 -82t-73 -154z" />
    <glyph glyph-name="quotedblright" unicode="&#x201d;" horiz-adv-x="1003" 
d="M496 1133q0 37 -24 59t-52 31t-52 31t-24 64t31 73t91 31t108 -63q48 -62 48 -165t-105 -218q-106 -115 -288 -138v59q119 14 193 82t74 154zM967 1133q0 37 -24 59q-25 22 -53 31t-52 31t-23 64q0 42 31 73q32 31 92 31t108 -63q48 -62 48 -165t-106 -218t-288 -138v59
q119 14 193 82t74 154z" />
    <glyph glyph-name="quotedblbase" unicode="&#x201e;" horiz-adv-x="1003" 
d="M301 -10q1 38 -23 60t-53 30t-53 31t-22 65q0 42 29 72q29 31 91 31q62 -1 110 -63t48 -165t-106 -218t-287 -138v59q119 14 193 82t73 154zM772 -10q0 38 -24 60t-52 30t-52 31t-24 65t30 72q30 31 92 31q62 -1 109 -63q48 -62 48 -165q1 -103 -105 -218t-288 -138v59
q118 14 192 82t74 154z" />
    <glyph glyph-name="dagger" unicode="&#x2020;" horiz-adv-x="1067" 
d="M741 1421h121q53 0 53 -43q0 -14 -22 -63l-201 -447l307 56q51 10 81 10t50 -18t20 -55q0 -36 -18 -78q-19 -42 -57 -42l-41 2l-364 52l-273 -1123q-14 -57 -67 -57h-107q-51 0 -51 43q0 16 14 45l398 1092l-301 -45q-61 -10 -90 -11q-53 0 -53 69q0 68 18 96
q20 28 69 28l97 -14l282 -50l86 494q10 59 49 59z" />
    <glyph glyph-name="daggerdbl" unicode="&#x2021;" horiz-adv-x="854" 
d="M922 983q34 0 34 -41q0 -22 -26 -86t-65 -64q-40 0 -81 15l-180 59l-69 -356l-111 -356l231 65q25 8 47 8t37 -14t15 -36t-27 -84t-53 -62q-33 0 -70 12l-198 51l-35 -307q-12 -104 -40 -138q-27 -34 -101 -34t-74 49q0 27 18 66l164 364l-221 -47q-74 -16 -86 -16
q-29 0 -29 43t26 99t56 56q20 0 55 -10l215 -65l62 356l121 356l-230 -59q-66 -14 -80 -14t-25 12q-12 12 -12 37t25 83t64 58q25 0 65 -10l209 -53l49 403q8 61 30 79t92 19q70 0 71 -39q0 -18 -35 -106l-139 -356l227 49q58 14 74 14z" />
    <glyph glyph-name="bullet" unicode="&#x2022;" horiz-adv-x="575" 
d="M389 940q109 0 187 -78t77 -186q0 -108 -78 -187q-79 -77 -187 -77t-186 78t-77 186q-1 108 77 186t187 78z" />
    <glyph glyph-name="ellipsis" unicode="&#x2026;" horiz-adv-x="2048" 
d="M1706 203q47 0 80 -34t33 -79t-33 -79t-80 -34t-80 34t-33 79t33 79t80 34zM1024 203q45 0 79 -34t34 -79t-34 -79t-79 -34t-79 34t-34 79t34 79t79 34zM342 203q47 0 80 -34t33 -79t-33 -79t-80 -34t-80 34t-33 79t33 79t80 34z" />
    <glyph glyph-name="perthousand" unicode="&#x2030;" horiz-adv-x="2304" 
d="M145 -86l1323 1507h99l-1323 -1507h-99zM651 1167q0 66 -28 104q-29 38 -74 38t-80 -35q-59 -59 -105 -209t-46 -216q0 -67 28 -105q29 -38 77 -38t93 46q45 44 90 196t45 219zM750 1118q0 -178 -102 -318t-230 -141q-90 0 -145 68q-54 68 -54 178q-1 171 101 311
t227 140q87 0 145 -68t58 -170zM1393 496q0 66 -29 104t-74 37q-45 0 -80 -35q-59 -59 -105 -209t-46 -216q1 -66 29 -104t76 -38t93 45q45 46 91 198t45 218zM1491 446q0 -178 -102 -318t-230 -140q-90 0 -144 68t-54 177q0 171 101 311t226 140q88 0 146 -68t57 -170z
M2128 496q0 66 -29 104t-74 37q-45 0 -79 -35q-60 -59 -106 -209t-46 -216t29 -104t77 -38t92 45q44 46 90 198t46 218zM2226 446q0 -178 -102 -318t-230 -140q-90 0 -144 68t-54 177q0 171 101 311t226 140q87 0 145 -68t58 -170z" />
    <glyph glyph-name="guilsinglleft" unicode="&#x2039;" horiz-adv-x="555" 
d="M319 526l140 -417h-41l-240 417l369 406h45z" />
    <glyph glyph-name="guilsinglright" unicode="&#x203a;" horiz-adv-x="555" 
d="M352 514l-141 418h43l240 -418l-371 -405h-43z" />
    <glyph glyph-name="fraction" unicode="&#x2044;" horiz-adv-x="256" 
d="M-535 -86l1334 1507h90l-1323 -1507h-101z" />
    <glyph glyph-name="Euro" unicode="&#x20ac;" 
d="M401 557v-45q0 -469 261 -469q131 0 270 139l43 -35q-147 -172 -329 -172t-299 156q-118 156 -118 385q0 27 2 41h-114l16 59h103q4 35 20 115h-115l17 60h114q72 241 229 409t329 168t315 -102l-47 -299h-56v28q0 115 -55 212t-147 98q-144 -1 -248 -145t-158 -369h615
l-17 -60h-610q-12 -70 -16 -115h602l-17 -59h-590z" />
    <glyph glyph-name="afii61289" unicode="&#x2113;" horiz-adv-x="763" 
d="M711 1372q-51 0 -108 -103q-56 -104 -128 -337l-82 -264q125 112 223 246t136 260q29 84 19 141q-9 57 -60 57zM651 207l23 -29q-168 -199 -363 -198q-123 0 -161 76t24 278l53 174l-149 -94l-10 39l178 118l73 240q77 261 129 365t136 174q86 78 165 78t99 -76t-12 -176
q-88 -285 -465 -586l-60 -193q-53 -199 -30 -265t112 -66q121 0 258 141z" />
    <glyph glyph-name="trademark" unicode="&#x2122;" horiz-adv-x="1855" 
d="M2085 1356v-37q-70 -2 -88 -26t-19 -109v-469q0 -82 18 -105t89 -26v-35h-420v35q76 2 96 24t21 107v495h-4l-308 -661h-30l-307 655h-5v-502q0 -76 22 -98t103 -20v-35h-297v35q72 2 92 24q19 23 19 107v469q0 88 -19 112t-92 23v37h318l256 -543l252 543h303zM582 1296
v-581q0 -82 19 -106t85 -25v-35h-403v35q72 6 87 26t15 105v581h-61q-96 0 -138 -32q-41 -33 -55 -119h-33l13 211h745l14 -211h-34q-10 86 -54 119t-141 32h-59z" />
    <glyph glyph-name="Omega" unicode="&#x2126;" horiz-adv-x="1423" 
d="M178 102h217q-236 291 -131 633q86 281 301 453t459 172t349 -163t20 -445q-39 -130 -139 -264t-184 -214q-85 -80 -202 -172h219q63 0 98 26q34 26 97 128l41 -4l-123 -252h-444l-2 33q8 8 90 96q240 258 332 435q43 83 67 169q66 209 39 337t-98 183q-72 55 -183 56
q-182 -1 -342 -145t-251 -443q-41 -148 -38 -218q3 -71 4 -97t10 -73t12 -65q2 -18 16 -65t17 -57t21 -60q18 -49 17 -51l-25 -35h-438l33 252l41 4q0 -96 20 -125t80 -29z" />
    <glyph glyph-name="estimated" unicode="&#x212e;" horiz-adv-x="1982" 
d="M1632 700v379q0 27 -18 45q-201 197 -470 197t-468 -203q-18 -18 -19 -47v-371q0 -12 11 -12h956q8 0 8 12zM1917 649h-1249q-10 0 -11 -8v-377q0 -23 17 -43q198 -205 484 -205t484 230h111q-104 -123 -265 -196t-345 -73q-317 0 -544 203q-226 203 -226 490
q0 288 225 490t546 202t547 -203t226 -491v-19z" />
    <glyph glyph-name="partialdiff" unicode="&#x2202;" horiz-adv-x="1009" 
d="M666 770h-2q-143 0 -269 -117q-125 -125 -190 -338q-39 -113 -4 -197t133 -85q147 0 307 205q102 131 211 374q-8 54 -58 106t-128 52zM651 838h2q78 0 144 -38t90 -112q41 94 85 230t32 288q-6 84 -62 151t-147 66q-135 0 -291 -104q-14 -2 -25 14q-10 16 -9 40t13 42
q145 82 295 82q246 0 301 -272q37 -176 -43 -447q-98 -309 -243 -499q-225 -299 -474 -299q-158 0 -220 105t-7 287t209 320q74 62 169 104t181 42z" />
    <glyph glyph-name="Delta" unicode="&#x2206;" horiz-adv-x="1216" 
d="M903 76l-86 1089l-743 -1089h829zM1036 0h-1073l10 37l901 1304l62 19l113 -1323z" />
    <glyph glyph-name="product" unicode="&#x220f;" horiz-adv-x="1597" 
d="M1544 1339v-41q-122 -8 -148 -25t-26 -87v-1178q0 -84 27 -106t143 -29v-43h-463v43q119 7 145 27t25 108v1217q0 39 -12 49t-53 10h-465q-41 0 -52 -9t-12 -42v-1225q0 -84 22 -104t134 -31v-43h-447v43q117 9 143 29t25 106v1178q0 70 -25 87q-26 17 -149 25v41h1188z
" />
    <glyph glyph-name="summation" unicode="&#x2211;" horiz-adv-x="1361" 
d="M954 1286h-422l383 -643l-438 -704h529q127 1 168 35t98 202l45 -12l-80 -336h-879v39l445 700l-434 736v36h868l23 -297l-43 -10q-23 135 -62 199q-18 33 -56 44t-145 11z" />
    <glyph glyph-name="minus" unicode="&#x2212;" horiz-adv-x="1366" 
d="M225 594h1080v-109h-1080v109z" />
    <glyph glyph-name="uni2215" unicode="&#x2215;" horiz-adv-x="256" 
d="M-535 -86l1334 1507h90l-1323 -1507h-101z" />
    <glyph glyph-name="uni2219" unicode="&#x2219;" horiz-adv-x="555" 
d="M412 815q47 0 82 -35q34 -35 34 -82t-34 -82q-34 -34 -82 -34q-47 0 -82 34t-35 82q0 47 35 82t82 35z" />
    <glyph glyph-name="radical" unicode="&#x221a;" horiz-adv-x="1363" 
d="M1325 1737l-313 -2005l-31 -21l-428 1077l-168 -83l-18 53l270 133l352 -901h4l267 1763z" />
    <glyph glyph-name="infinity" unicode="&#x221e;" horiz-adv-x="1605" 
d="M1231 764h-2q-75 0 -168 -76q-27 -23 -75 -75t-54 -58q109 -121 169 -167t139 -46t131 62t52 154t-53 148q-53 58 -139 58zM537 342h2q51 0 106 29q54 29 119 100q64 70 70 76q-48 57 -68 80q-83 93 -138 115t-104 22q-88 0 -139 -64t-50 -151q1 -88 57 -148
q57 -59 145 -59zM1511 557v-2q0 -131 -84 -213t-184 -82t-178 53t-184 172q-61 -73 -105 -113t-112 -76t-140 -36q-114 0 -196 84t-82 208t83 208t193 84t193 -60q82 -60 174 -166q88 98 143 145q91 78 210 80q120 1 194 -79t75 -207z" />
    <glyph glyph-name="integral" unicode="&#x222b;" horiz-adv-x="999" 
d="M838 1649q52 -1 85 -21q31 -20 31 -55t-19 -52t-48 -17t-53 35q-24 36 -46 36q-58 0 -83 -131q-16 -82 -11 -211l35 -762q27 -572 -98 -753q-39 -54 -79 -71t-88 -17t-77 23t-30 55t23 54t54 21q30 0 52 -38t42 -38q49 0 75 95t18 251l-35 811q-20 464 57 624
q77 161 195 161z" />
    <glyph glyph-name="approxequal" unicode="&#x2248;" horiz-adv-x="1198" 
d="M485 502q69 0 120 -27q17 -7 52 -27t39 -22q115 -66 181 -66q98 1 178 140l57 -47q-92 -176 -242 -177q-53 0 -97 18q-43 18 -139 70q-96 54 -158 54t-105 -37t-86 -105l-58 48q92 178 258 178zM870 590q-70 0 -137 35q-25 12 -110 60t-147 48t-104 -37t-87 -104l-58 47
q92 178 258 178q83 1 213 -77q98 -59 130 -62q32 -2 46 -2q101 0 181 139l57 -47q-88 -178 -242 -178z" />
    <glyph glyph-name="notequal" unicode="&#x2260;" horiz-adv-x="1249" 
d="M1153 768v-86h-332l-129 -276h461v-87h-496l-102 -221l-70 31l88 190h-284v87h321l127 276h-448v86h483l100 219l70 -33l-86 -186h297z" />
    <glyph glyph-name="lessequal" unicode="&#x2264;" horiz-adv-x="1292" 
d="M1198 25h-864v88h864v-88zM1194 190l-850 426v91l850 423v-102l-754 -362v-4l754 -367v-105z" />
    <glyph glyph-name="greaterequal" unicode="&#x2265;" horiz-adv-x="1294" 
d="M1198 25h-862v88h862v-88zM346 1130l848 -423v-91l-848 -426v105l752 364v5l-752 364v102z" />
    <glyph glyph-name="lozenge" unicode="&#x25ca;" horiz-adv-x="1378" 
d="M1184 647l-336 688h-4l-338 -684l338 -688h4zM1282 647l-389 -780h-98l-389 780l391 789h96z" />
    <glyph glyph-name="f_i" unicode="&#xfb01;" horiz-adv-x="1173" 
d="M811 829h-344l-156 -653q-66 -276 -177 -419q-112 -142 -257 -142q-59 0 -102 32q-43 31 -43 67t21 58q23 22 59 22t72 -56q36 -55 82 -55q46 -1 84 69t79 248l195 829h-195l16 52h195q58 241 206 391t376 149q90 -1 144 -31t54 -73t-22 -65t-63 -22q-40 0 -97 62
q-57 61 -127 62q-219 0 -328 -473h371q88 0 162 22h41l-193 -786q-10 -43 19 -43t81 53t93 127h67q-68 -121 -156 -199t-163 -78q-41 0 -66 26q-25 27 -25 57t11 75l149 629q4 23 4 37q-2 28 -67 28z" />
    <glyph glyph-name="f_l" unicode="&#xfb02;" horiz-adv-x="1173" 
d="M944 881l88 362q-24 12 -50 42q-60 67 -136 69q-219 0 -328 -473h426zM926 78q29 0 84 55t90 123h65q-67 -123 -153 -201t-158 -78q-41 0 -69 26q-27 26 -27 62t10 82l164 682h-430l-154 -661q-35 -147 -88 -265t-143 -203t-201 -85q-63 0 -106 31q-43 32 -43 68t21 58
q22 22 56 22t55 -28q22 -28 41 -56t52 -27q55 -1 95 71t79 246l192 829h-192l16 52h193q68 254 224 397q157 143 362 143q75 1 118 -24l146 24q-20 -45 -45 -145l-273 -1153q-10 -45 19 -45z" />
    </font>
</defs>
</svg>
