<?xml version="1.0" standalone="no"?>
<!DOCTYPE svg PUBLIC "-//W3C//DTD SVG 1.1//EN" "http://www.w3.org/Graphics/SVG/1.1/DTD/svg11.dtd" >
<svg xmlns="http://www.w3.org/2000/svg">
<metadata>
Created by FontPrep 20130207 at Thu Jun 25 05:52:23 2015
 By Rezki Bangsawan
Copyright (c) 1991, 2002 Adobe Systems Incorporated. All Rights Reserved.  (c) Copyright 1991, 2002 The Monotype Corporation Plc. All Rights Reserved.
</metadata>
<defs>
<font id="b8d53949ef813bce2b1dccc7dce8bd95" horiz-adv-x='1024' >
  <font-face 
    font-family="PlantinStd-SemiboldItalic"
    font-weight="600"
    font-style="italic"
    font-stretch="normal"
    units-per-em="2048"
    panose-1="2 4 7 3 5 5 6 9 2 3"
    ascent="1423"
    descent="-625"
    x-height="915"
    cap-height="1397"
    bbox="-532 -537 2267 1866"
    underline-thickness="102"
    underline-position="-102"
    slope="-15"
    unicode-range="U+0020-FB02"
  />
<missing-glyph horiz-adv-x="1296" 
d="M375 1239v-1044l348 522zM436 102h697l-349 523zM846 717l348 -522v1044zM784 809l349 522h-697zM272 0v1434h1024v-1434h-1024z" />
    <glyph glyph-name=".notdef" horiz-adv-x="1296" 
d="M375 1239v-1044l348 522zM436 102h697l-349 523zM846 717l348 -522v1044zM784 809l349 522h-697zM272 0v1434h1024v-1434h-1024z" />
    <glyph glyph-name=".null" horiz-adv-x="0" 
 />
    <glyph glyph-name="nonmarkingreturn" horiz-adv-x="681" 
 />
    <glyph glyph-name="space" unicode=" " horiz-adv-x="585" 
 />
    <glyph glyph-name="exclam" unicode="!" horiz-adv-x="598" 
d="M176 254q57 0 98 -41t41 -98t-41 -99t-98 -41q-57 0 -98 41q-41 40 -41 98t41 99t98 41zM692 1362q0 -29 -20 -78l-383 -885h-45l184 885q18 90 50 117t123 27t91 -66z" />
    <glyph glyph-name="quotedbl" unicode="&#x22;" horiz-adv-x="1136" 
d="M482 1397q50 0 85 -35t35 -92t-22 -160l-74 -328h-45l-72 328q-23 106 -23 162t33 90q33 35 83 35zM776 1272q0 56 33 90q33 35 83 35t85 -35t35 -92t-23 -160l-74 -328h-45l-71 328q-23 106 -23 162z" />
    <glyph glyph-name="numbersign" unicode="#" horiz-adv-x="1368" 
d="M612 850l-67 -326h375l67 326h-375zM164 358v166h215l67 326h-282v166h317l82 391h166l-82 -391h375l82 391h166l-82 -391h178v-166h-213l-68 -326h281v-166h-315l-82 -389h-166l82 389h-375l-82 -389h-166l82 389h-180z" />
    <glyph glyph-name="dollar" unicode="$" horiz-adv-x="1087" 
d="M801 300q0 101 -160 241l-152 -494q127 -6 220 73q92 79 92 180zM510 1028q0 -59 30 -106t109 -109l131 430q-114 12 -192 -50t-78 -165zM973 373q0 -145 -131 -269t-373 -127l-49 -163h-76l49 163q-127 23 -202 113t-74 221q0 80 39 80q22 0 66 -14t44 -25l-6 -100
q0 -158 158 -195l164 535q-145 129 -193 204q-47 75 -47 165q0 158 118 258t304 100q20 0 39 -2l24 80h76l-29 -90q123 -23 190 -98t66 -179q0 -41 -8 -54t-32 -13h-66q-49 0 -49 32l8 86q0 61 -35 103t-96 49l-143 -471q264 -211 264 -389z" />
    <glyph glyph-name="percent" unicode="%" horiz-adv-x="1642" 
d="M201 -86l1323 1507h108l-1323 -1507h-108zM1461 653q-41 1 -97 -55t-102 -194t-45 -212t27 -111q26 -36 69 -36t88 45q45 46 98 194t53 224q0 146 -91 145zM1081 244q0 180 117 323t264 144q100 0 162 -72q63 -78 64 -190q0 -177 -116 -319t-261 -142q-102 0 -168 71
q-62 72 -62 185zM513 1309q-41 1 -97 -55t-102 -194t-46 -214q0 -74 27 -110t70 -36t87 45t98 193t54 225q0 146 -91 146zM133 899q0 179 117 323t264 144q100 0 162 -72q63 -78 63 -190q0 -176 -115 -319q-116 -142 -262 -142q-102 -1 -166 71t-63 185z" />
    <glyph glyph-name="ampersand" unicode="&#x26;" horiz-adv-x="1941" 
d="M422 500q0 -166 164 -290t383 -124t362 110t144 269q0 117 -76 213t-213 96q-76 0 -123 -35t-47 -84t28 -71t59 -26q87 -14 87 -79q0 -35 -26 -59t-64 -23q-66 -1 -115 61t-49 144q0 121 90 231t250 109q94 0 193 -48t183 -96t133 -48q50 0 81 34q30 34 30 88
q0 55 -32 89q-33 33 -71 39q-105 18 -103 85q0 33 27 56q28 23 69 22q78 0 134 -78q56 -77 56 -197t-85 -217t-191 -97t-191 71l-4 -4q43 -94 43 -182q0 -209 -202 -349t-502 -141q-133 0 -246 33q-201 59 -307 195q-105 136 -105 262q0 283 385 428q-94 92 -94 180
q0 145 156 253t368 107q143 0 237 -54t93 -136q1 -45 -27 -71t-79 -26t-78 34t-36 72t-47 71t-110 33q-112 0 -176 -82t-63 -176q0 -135 143 -170l-18 -68q-184 4 -301 -92t-117 -262z" />
    <glyph glyph-name="quotesingle" unicode="'" horiz-adv-x="569" 
d="M274 1272q0 56 33 90q33 35 84 35t85 -35t34 -92t-23 -160l-73 -328h-45l-72 328q-23 106 -23 162z" />
    <glyph glyph-name="parenleft" unicode="(" horiz-adv-x="661" 
d="M139 263q-1 183 53 365q119 405 412 627q160 123 354 172l-24 -86q-147 -73 -269 -237q-208 -281 -298 -734q-37 -183 -37 -325q0 -223 98 -354l-25 -80q-125 125 -194 297q-70 172 -70 355z" />
    <glyph glyph-name="parenright" unicode=")" horiz-adv-x="661" 
d="M317 1348l25 79q125 -125 195 -297q69 -172 69 -355q-1 -374 -206 -707q-99 -162 -259 -285t-354 -172l25 86q147 73 269 237q205 277 298 735q37 183 37 324q-1 224 -99 355z" />
    <glyph glyph-name="asterisk" unicode="*" horiz-adv-x="1024" 
d="M659 840l-301 -193l-45 55l250 252l-276 230l37 61l323 -158l131 334l68 -24l-51 -350l360 -25l2 -68l-356 -57l90 -348l-66 -27z" />
    <glyph glyph-name="plus" unicode="+" 
d="M201 645h461v461h184v-461h461v-184h-461v-461h-184v461h-461v184z" />
    <glyph glyph-name="comma" unicode="," horiz-adv-x="598" 
d="M260 -76q0 33 -66 66q-67 32 -67 122q0 50 36 88q37 38 99 38t109 -56t47 -139q0 -143 -126 -264t-302 -148l22 74q92 20 170 90t78 129z" />
    <glyph glyph-name="hyphen" unicode="-" horiz-adv-x="831" 
d="M74 356l57 193h649l-57 -193h-649z" />
    <glyph glyph-name="period" unicode="." horiz-adv-x="598" 
d="M231 254q59 0 99 -41t41 -98q0 -57 -40 -99q-39 -42 -99 -41q-60 0 -100 41q-40 40 -40 98t40 99t99 41z" />
    <glyph glyph-name="slash" unicode="/" horiz-adv-x="606" 
d="M707 1425l-478 -1701h-186l477 1701h187z" />
    <glyph glyph-name="zero" unicode="0" horiz-adv-x="1173" 
d="M369 332q0 -121 50 -195t129 -74t138 60q100 100 195 404q94 304 94 491q0 120 -46 190t-123 70t-147 -70q-115 -115 -203 -396t-87 -480zM180 468q0 224 88 433t232 337t302 128q159 0 260 -138t101 -362q-1 -354 -197 -622t-423 -269q-167 1 -265 135t-98 358z" />
    <glyph glyph-name="one" unicode="1" horiz-adv-x="1173" 
d="M659 173q0 -49 35 -67t140 -18l-23 -88h-604l22 88q96 -6 151 35q54 41 81 137l186 682q17 63 17 97q1 65 -111 65h-88l22 88q240 8 375 174h107l-283 -1049q-27 -94 -27 -144z" />
    <glyph glyph-name="two" unicode="2" horiz-adv-x="1173" 
d="M115 0v59q76 106 307 328l153 148q168 161 238 271t70 204q-1 94 -61 151t-148 57t-160 -32q-72 -33 -176 -115l-66 62q260 233 488 233q150 0 248 -84t98 -211q0 -90 -39 -174t-132 -177q-93 -92 -309 -276t-268 -245h312q119 1 167 33t72 133h92l-83 -365h-803z" />
    <glyph glyph-name="three" unicode="3" horiz-adv-x="1173" 
d="M909 1053q0 80 -54 128t-144 48q-129 0 -252 -115l-64 57q147 195 383 195q172 0 255 -83t83 -206t-98 -218t-270 -132v-4q233 -100 233 -328q0 -107 -48 -187q-47 -80 -105 -125q-58 -46 -156 -77t-226 -31q-330 0 -329 91q1 30 31 70t65 40q9 0 115 -56
q239 -127 366 26q70 84 70 224t-87 224t-247 76l23 88q211 0 333 80t123 215z" />
    <glyph glyph-name="four" unicode="4" horiz-adv-x="1173" 
d="M686 532l162 594l-4 4l-627 -598h469zM856 383l-111 -408h-208l110 408h-545l17 176l844 807h155l-223 -834h248l-39 -149h-248z" />
    <glyph glyph-name="five" unicode="5" horiz-adv-x="1173" 
d="M410 -25q-140 0 -228 25t-88 66q0 22 29 62t53 40t141 -45t211 -45q139 0 235 92q95 92 95 231t-100 240q-139 139 -451 195l250 505h471l35 56l76 -41l-115 -201h-457l-73 -145q231 -50 372 -198t142 -337q0 -129 -76 -251q-93 -150 -278 -213q-105 -36 -244 -36z" />
    <glyph glyph-name="six" unicode="6" horiz-adv-x="1173" 
d="M362 332q0 -115 62 -192t154 -77q92 1 149 45t86 110q55 126 55 238q0 111 -58 182t-142 71q-132 0 -275 -131q-31 -131 -31 -246zM756 829q142 0 232 -98q91 -98 91 -269t-134 -329t-340 -158q-205 0 -327 127q-122 126 -122 318t88 362q162 313 527 488q162 78 316 96
l76 -72q-252 -76 -422 -210t-278 -345l4 -4q147 94 289 94z" />
    <glyph glyph-name="seven" unicode="7" horiz-adv-x="1173" 
d="M610 1149q-88 0 -128 -30t-64 -109h-90l90 331h854l-920 -1366h-135l789 1174h-396z" />
    <glyph glyph-name="eight" unicode="8" horiz-adv-x="1173" 
d="M638 63q104 1 178 55t73 146q0 92 -109 217l-133 150q-184 -67 -262 -139t-78 -163t62 -170q75 -96 269 -96zM1014 1077q0 89 -65 145t-164 56t-160 -51t-61 -128t67 -151l141 -153q242 115 242 282zM375 1044q0 138 125 230t311 92q187 0 279 -91t92 -201t-80 -193
q-80 -84 -260 -166q135 -135 181 -215t46 -154t-20 -128q-21 -54 -67 -112t-143 -94q-97 -37 -229 -37q-347 0 -449 246q-24 55 -24 105q0 127 116 226t325 163q-117 115 -160 185t-43 144z" />
    <glyph glyph-name="nine" unicode="9" horiz-adv-x="1173" 
d="M742 1278q-92 0 -151 -45q-58 -45 -87 -113q-53 -124 -53 -235q0 -109 58 -181t142 -71q133 0 277 131q30 132 30 246t-62 191t-154 77zM566 512q-142 0 -233 97t-91 260t118 322q58 77 154 126t215 49q190 0 313 -127t123 -326q-1 -331 -281 -611t-651 -327l-75 72
q252 76 422 210t278 345l-4 4q-146 -94 -288 -94z" />
    <glyph glyph-name="colon" unicode=":" horiz-adv-x="598" 
d="M231 254q59 0 99 -41t41 -98q0 -57 -40 -99q-39 -42 -99 -41q-60 0 -100 41q-40 40 -40 98t40 99t99 41zM436 915q59 0 100 -39q40 -40 40 -100t-40 -99q-40 -40 -100 -40t-99 40q-40 40 -40 99t40 99t99 40z" />
    <glyph glyph-name="semicolon" unicode=";" horiz-adv-x="598" 
d="M436 915q59 0 100 -39q40 -40 40 -100t-40 -99q-40 -40 -100 -40t-99 40q-40 40 -40 99t40 99t99 40zM260 -76q0 33 -66 66q-67 32 -67 122q0 50 36 88q37 38 99 38t109 -56t47 -139q0 -143 -126 -264t-302 -148l22 74q92 20 170 90t78 129z" />
    <glyph glyph-name="less" unicode="&#x3c;" 
d="M1305 8l-1102 461v168l1102 461v-201l-850 -344l850 -346v-199z" />
    <glyph glyph-name="equal" unicode="=" 
d="M203 410h1104v-185h-1104v185zM203 885h1104v-185h-1104v185z" />
    <glyph glyph-name="greater" unicode="&#x3e;" 
d="M203 8v199l852 346l-852 344v201l1102 -461v-168z" />
    <glyph glyph-name="question" unicode="?" horiz-adv-x="1024" 
d="M293 254q59 0 99 -41t40 -98t-40 -99t-99 -41q-59 0 -99 41q-40 40 -40 98t40 99t99 41zM436 1315q0 47 47 80t125 32q150 -1 249 -117t99 -292q0 -106 -34 -206t-96 -160q-94 -94 -300 -115q-70 -8 -98 -36t-49 -95h-78l88 331q11 39 27 50t55 12h111q137 1 217 69
t80 165q1 97 -55 145t-146 49l-139 -10q-49 -1 -76 25t-27 73z" />
    <glyph glyph-name="at" unicode="@" horiz-adv-x="1703" 
d="M1137 784q0 62 -29 102t-76 40q-74 0 -161 -115t-142 -262t-55 -220t28 -110t62 -37q68 0 158 91t153 241q62 150 62 270zM1496 148q-134 -112 -307 -112t-173 160q0 80 22 136l-4 4q-211 -299 -377 -299q-71 -1 -121 65t-51 160q0 174 93 345q92 171 218 273t232 101
q64 0 104 -39t50 -104h4l31 112l190 17l-188 -648q-23 -80 -23 -122q0 -43 23 -65q46 -45 160 10q175 86 267 318q54 138 54 288q0 270 -177 447t-470 177q-338 0 -590 -252q-133 -133 -205 -313t-72 -379q0 -352 220 -572t573 -220q352 0 596 243q129 129 203 309h59
q-79 -250 -315 -431t-555 -181q-383 0 -631 250t-248 646t273 676t673 279q348 0 536 -196q187 -197 187 -488q0 -167 -63 -325q-64 -158 -198 -270z" />
    <glyph glyph-name="A" unicode="A" 
d="M940 580l61 630l-4 4l-514 -634h457zM1151 209q0 -129 158 -135l-29 -74h-604l18 74q195 -4 215 194l23 226h-512l-70 -99q-96 -133 -96 -217q0 -47 32 -75t89 -29l-19 -74h-481l19 74q80 20 144 84t297 369q232 304 331 417l413 483h191l-107 -1056q-12 -106 -12 -162z
" />
    <glyph glyph-name="B" unicode="B" horiz-adv-x="1515" 
d="M1141 402q0 146 -113 220q-113 75 -328 74h-92l-110 -413q-16 -61 -16 -111t43 -75q44 -24 157 -23q207 0 333 91t126 237zM821 770q182 0 299 92t117 217q0 244 -379 244h-82l-147 -553h192zM952 1397q238 0 336 -40t150 -115t53 -163q0 -139 -124 -235t-325 -113v-4
q186 -19 278 -119t93 -219q0 -165 -167 -277t-521 -112h-719l21 74q88 6 141 61t84 170l205 764q25 90 24 141q0 121 -143 113l20 74h594z" />
    <glyph glyph-name="C" unicode="C" horiz-adv-x="1449" 
d="M463 500q0 -205 90 -329t240 -124q268 0 417 399h148l-88 -329q-204 -147 -484 -147t-438 148t-158 397t121 458t321 332t440 123t458 -142l-57 -301h-105q23 160 -58 262t-220 103q-244 0 -436 -259t-191 -591z" />
    <glyph glyph-name="D" unicode="D" horiz-adv-x="1515" 
d="M684 74q348 0 484 479q46 160 46 299q0 223 -97 347t-275 124h-54l-262 -975q-25 -96 -24 -137q0 -137 182 -137zM928 1397q254 0 406 -180t153 -455q0 -217 -111 -409q-59 -101 -144 -179t-218 -126t-293 -48h-701l21 74q88 12 141 66t82 165l219 819q8 31 9 66
q0 139 -156 133l20 74h572z" />
    <glyph glyph-name="E" unicode="E" horiz-adv-x="1449" 
d="M1108 1323h-332l-147 -551h252q121 0 183 39t120 145h98l-129 -477h-96q2 123 -48 171t-169 48h-232l-96 -362q-20 -76 -20 -132t47 -94q47 -36 135 -36h203q129 0 223 68t182 194h104l-153 -336h-1225l19 74q170 18 225 231l205 766q23 82 22 123q0 135 -166 129l19 74
h1190l-58 -314h-92q-20 127 -78 183t-186 57z" />
    <glyph glyph-name="F" unicode="F" horiz-adv-x="1280" 
d="M1098 1323h-324l-145 -549h209q119 0 175 37t109 145h99l-117 -477h-96q-10 121 -58 171t-151 50h-191l-100 -372q-14 -53 -14 -116q0 -64 45 -104t118 -34l-20 -74h-619l21 74q82 8 131 62t80 169l207 766q14 51 14 117q0 137 -176 135l20 74h1131l-84 -312h-96
q16 100 -27 169t-141 69z" />
    <glyph glyph-name="G" unicode="G" horiz-adv-x="1642" 
d="M912 -31q-403 0 -570 183q-156 168 -156 389q0 167 74 327t200 284t307 200t380 75q289 0 512 -151l-66 -307h-98q35 174 -58 277t-286 104q-279 0 -481 -238t-203 -582q0 -231 104 -357t299 -126q127 0 250 51l78 289q23 81 23 139q0 127 -162 115l20 74h625l-21 -74
q-102 2 -148 -50t-79 -181l-98 -369q-226 -72 -446 -72z" />
    <glyph glyph-name="H" unicode="H" horiz-adv-x="1685" 
d="M1364 1202q0 45 -31 80t-84 41l21 74h565l-20 -74q-87 -2 -133 -46t-70 -138l-217 -811q-21 -74 -21 -122t33 -85t90 -47l-20 -74h-555l20 74q78 6 120 54t75 177l98 371h-631l-92 -348q-23 -80 -23 -126t39 -88t90 -40l-20 -74h-561l20 74q82 10 123 57t74 174l205 766
q23 86 23 131t-33 81t-87 40l21 74h575l-20 -74q-88 0 -135 -43t-70 -127l-104 -391h631l81 309q23 86 23 131z" />
    <glyph glyph-name="I" unicode="I" horiz-adv-x="788" 
d="M492 208q0 -50 38 -90t109 -44l-18 -74h-603l19 74q92 2 137 54t78 177l205 766q20 74 20 126t-32 87t-85 39l19 74h573l-18 -74q-158 0 -203 -170l-221 -825q-18 -70 -18 -120z" />
    <glyph glyph-name="J" unicode="J" horiz-adv-x="806" 
d="M-98 -383q-131 0 -216 55t-85 142q1 44 35 78t85 34t80 -36t35 -80t31 -79q25 -36 76 -36q162 0 264 381l280 1048q8 33 9 70q0 135 -166 129l20 74h637l-20 -74q-92 2 -146 -47q-53 -50 -82 -154l-268 -997q-63 -242 -209 -375t-360 -133z" />
    <glyph glyph-name="K" unicode="K" horiz-adv-x="1449" 
d="M1298 1268q0 55 -106 55l18 74h514l-18 -74q-59 4 -124 -25t-173 -106l-557 -399q94 -125 244 -369t204 -298t160 -52l-35 -74h-335q-49 49 -222 332q-172 283 -258 379l-102 -383q-23 -84 -23 -134t44 -86t114 -34l-20 -74h-621l18 74q94 4 145 56q50 52 85 175l207 766
q23 80 22 127q0 125 -149 125l18 74h635l-18 -74q-188 2 -252 -231l-92 -347q510 313 622 426q55 55 55 97z" />
    <glyph glyph-name="L" unicode="L" horiz-adv-x="1236" 
d="M477 203q0 -129 189 -129h94q127 0 220 59t196 201h106l-158 -334h-1091l18 74q88 18 121 60t68 171l206 766q23 86 23 134t-33 82t-84 36l19 74h594l-19 -74q-111 4 -160 -48t-84 -183l-202 -758q-23 -90 -23 -131z" />
    <glyph glyph-name="M" unicode="M" horiz-adv-x="1941" 
d="M438 1397h453q-19 -123 -19 -185t29 -290l72 -562l465 721q96 150 139 316h467l-19 -74q-98 4 -159 -54t-74 -177l-78 -801q-18 -197 137 -217l-20 -74h-565l20 74q88 16 134 71t55 160l77 830l-4 4q-43 -88 -135 -230l-389 -598q-96 -145 -164 -311h-104q12 109 -31 432
l-68 506q-16 113 -20 219h-4l-305 -741q-53 -131 -54 -203q0 -121 152 -139l-20 -74h-447l21 74q88 16 133 76t108 210l262 635q63 154 64 222q0 94 -127 106z" />
    <glyph glyph-name="N" unicode="N" horiz-adv-x="1622" 
d="M1475 1183q0 77 -39 109t-133 31l20 74h471l-20 -74q-100 -8 -156 -89t-105 -263l-200 -750l121 -221h-275l-618 1087l-174 -649q-45 -170 -45 -232t49 -97t141 -35l-20 -74h-494l20 74q115 2 165 78t102 264l200 749q-86 104 -127 131t-112 27l20 74h344
q80 -78 168 -232l484 -854l182 678q31 117 31 194z" />
    <glyph glyph-name="O" unicode="O" horiz-adv-x="1665" 
d="M455 436q0 -167 90 -278t226 -111t241 72q183 126 284 415q86 238 86 421q0 184 -92 289q-92 106 -229 106t-253 -85t-191 -217t-119 -288t-43 -324zM182 530q0 238 122 444t325 330t428 123q264 1 431 -163t167 -406t-121 -445q-121 -202 -323 -323q-203 -121 -445 -121
t-413 162q-171 161 -171 399z" />
    <glyph glyph-name="P" unicode="P" horiz-adv-x="1409" 
d="M1202 1051q0 147 -107 212q-108 65 -317 60l-268 -995q-12 -41 -12 -95q0 -139 180 -159l-19 -74h-663l18 74q100 2 153 56q52 54 85 175l207 766q18 68 18 120t-45 90t-119 42l19 74h551q301 0 446 -86t145 -269q0 -182 -172 -298q-173 -116 -462 -115q-147 0 -148 28
q0 51 39 52l82 -2q286 0 369 229q20 57 20 115z" />
    <glyph glyph-name="Q" unicode="Q" horiz-adv-x="1665" 
d="M455 462q0 -192 90 -304q89 -111 249 -111t298 137t214 376t76 409t-92 275q-92 106 -250 106t-300 -144t-214 -348t-71 -396zM182 551q0 338 266 607t609 269q264 1 431 -163t167 -424q-1 -209 -107 -403q-106 -193 -298 -321t-419 -143v-4q133 -78 319 -135t349 -72
l-37 -137q-43 -8 -94 -8q-225 1 -438 107t-461 321q-287 168 -287 506z" />
    <glyph glyph-name="R" unicode="R" horiz-adv-x="1536" 
d="M1280 1072q0 116 -81 184t-230 67h-191l-151 -567q258 -2 382 26t179 82q92 92 92 208zM1024 1397q252 0 393 -79t141 -241t-132 -263t-361 -116l125 -417q33 -115 78 -156t139 -51l-18 -74h-324q-63 70 -231 684q-37 -2 -115 -2t-113 2l-94 -356q-23 -90 -23 -134
t41 -86t107 -34l-19 -74h-624l18 74q106 -6 159 54q52 60 83 177l205 766q23 82 23 131t-43 87q-42 38 -107 34l18 74h674z" />
    <glyph glyph-name="S" unicode="S" horiz-adv-x="1216" 
d="M821 1350q-94 0 -153 -54q-60 -54 -60 -148q0 -93 109 -212l162 -180q102 -115 149 -208t47 -190q0 -182 -129 -285t-368 -104q-299 0 -523 181l72 268h115q-14 -172 83 -272t257 -99q114 0 186 67q72 68 72 182t-111 241l-201 229q-156 174 -155 289q0 153 126 263
t346 110t445 -142l-65 -246h-113q31 146 -62 228t-229 82z" />
    <glyph glyph-name="T" unicode="T" horiz-adv-x="1536" 
d="M1278 1323h-135l-266 -995q-23 -86 -23 -135t45 -89t139 -30l-20 -74h-692l20 74q127 0 184 58t88 173l273 1018h-121q-166 0 -247 -57t-148 -205h-84l90 336h1309l-70 -336h-92q-29 262 -250 262z" />
    <glyph glyph-name="U" unicode="U" horiz-adv-x="1556" 
d="M727 -31q-131 0 -228 35q-165 60 -220 209q-23 59 -23 145t29 191l139 522q10 37 10 97t-34 103q-34 44 -97 52l19 74h612l-19 -74q-174 -8 -233 -231l-164 -617q-25 -94 -24 -137q0 -123 80 -196t217 -72q369 0 466 417l127 545q18 80 18 132t-42 97q-43 46 -121 62
l18 74h496l-20 -74q-115 -4 -170 -53t-86 -178l-144 -605q-57 -244 -199 -381t-407 -137z" />
    <glyph glyph-name="V" unicode="V" horiz-adv-x="1409" 
d="M1356 1228q0 94 -150 95l21 74h461l-21 -74q-70 -16 -129 -82t-214 -284q-155 -219 -246 -335t-369 -462q-96 -119 -134 -191h-190l55 1147q9 61 -5 111q-27 96 -128 96l12 74h572l-10 -74q-149 -5 -182 -111q-16 -52 -19 -129l-43 -888l4 -5q332 393 557 717
q158 227 158 321z" />
    <glyph glyph-name="W" unicode="W" horiz-adv-x="1941" 
d="M1352 266h4q197 319 334 559t157 288q21 48 21 88t-31 79t-100 43l20 74h432l-18 -74q-72 -2 -116 -50q-44 -47 -96 -135t-170 -288t-282 -473q-213 -346 -243 -408h-148q6 61 6 113t-4 96l-31 672h-4l-338 -545q-14 -25 -44 -71q-31 -46 -37 -58t-24 -42l-24 -40
q-4 -10 -17 -37t-36 -88h-135q2 162 -2 240l-55 946q-2 49 -7 77t-28 56t-66 35l19 74h454l-18 -74q-43 -5 -70 -25t-33 -47q-17 -69 -10 -102l39 -672q0 -53 6 -176h5l419 680l-10 160q-6 104 -46 141t-99 41l20 74h553l-18 -74q-98 -4 -136 -54t-32 -165l37 -717
q2 -57 2 -121z" />
    <glyph glyph-name="X" unicode="X" horiz-adv-x="1492" 
d="M393 168q0 -86 125 -94l-18 -74h-510l18 74q84 18 150 57t157 127l443 416l-217 467q-51 111 -86 143t-111 39l21 74h587l-20 -74q-145 -8 -146 -96q0 -39 50 -148l104 -229l217 207q113 106 113 188q0 66 -94 78l20 74h473l-20 -74q-74 -12 -142 -53t-168 -137
l-366 -353l194 -430q70 -156 120 -209t124 -67l-18 -74h-572l19 74q123 0 123 86q0 37 -56 166l-121 278l-278 -264q-115 -109 -115 -172z" />
    <glyph glyph-name="Y" unicode="Y" 
d="M780 201q0 -129 185 -127l-21 -74h-649l20 74q102 -2 147 52q44 54 79 179l65 246l-207 606q-33 94 -64 127q-32 33 -99 39l20 74h565l-20 -74q-164 0 -164 -119q0 -39 16 -84l168 -495l381 471q57 70 58 131q0 96 -144 96l21 74h432l-21 -74q-47 -4 -99 -53t-165 -191
l-422 -528l-59 -223q-23 -84 -23 -127z" />
    <glyph glyph-name="Z" unicode="Z" horiz-adv-x="1323" 
d="M670 74q188 0 282 53t191 215h108l-133 -342h-1048l4 74l1005 1249h-223q-228 0 -311 -87q-43 -44 -90 -132h-105l105 293h970l-12 -45l-1034 -1278h291z" />
    <glyph glyph-name="bracketleft" unicode="[" horiz-adv-x="724" 
d="M285 -219q0 -70 133 -70h41l-23 -73h-418l537 1759h418l-21 -74q-135 -2 -178 -31t-76 -137l-395 -1286q-18 -61 -18 -88z" />
    <glyph glyph-name="backslash" unicode="\" horiz-adv-x="598" 
d="M94 1425h187l469 -1701h-187z" />
    <glyph glyph-name="bracketright" unicode="]" horiz-adv-x="724" 
d="M377 1323h-41l22 74h418l-538 -1759h-418l22 73q135 2 177 31t77 137l393 1286q20 68 21 88q0 70 -133 70z" />
    <glyph glyph-name="asciicircum" unicode="^" horiz-adv-x="1167" 
d="M608 1397l420 -719h-139l-305 512l-303 -512h-142l420 719h49z" />
    <glyph glyph-name="underscore" unicode="_" horiz-adv-x="1024" 
d="M1040 -256h-1058v102h1058v-102z" />
    <glyph glyph-name="grave" unicode="`" horiz-adv-x="681" 
d="M563 1038l-284 334h253l103 -334h-72z" />
    <glyph glyph-name="a" unicode="a" horiz-adv-x="1193" 
d="M326 291q0 -76 40 -121t116 -45t161 84q84 85 142 237q59 152 59 233t-37 123t-102 42q-141 0 -260 -188t-119 -365zM969 111q68 0 139 118h74q-123 -254 -312 -254q-158 0 -157 211h-4q-150 -211 -340 -211q-123 0 -197 76t-74 210t80 288t217 260t301 106t287 -116
l47 92h115l-197 -645q-41 -135 21 -135z" />
    <glyph glyph-name="b" unicode="b" horiz-adv-x="1236" 
d="M766 780q-131 0 -250 -118q-86 -86 -131 -204t-45 -206t55 -143t158 -55t201 102q98 104 146 227t48 205t-53 137t-129 55zM1184 597q0 -134 -62 -252q-117 -221 -366 -322q-113 -47 -217 -48q-172 0 -284 88t-112 226q0 74 37 194l215 703q18 62 4 78t-80 16h-77l22 74
q201 6 381 73h43l-219 -710l4 -4q186 203 379 202q144 0 238 -92t94 -226z" />
    <glyph glyph-name="c" unicode="c" horiz-adv-x="980" 
d="M670 838q-135 0 -245 -161t-110 -345q1 -102 59 -158t165 -57q149 0 280 129h103q-209 -270 -500 -271q-152 0 -247 88t-95 228q0 233 180 429t430 195q131 0 213 -50t82 -132q0 -47 -32 -80t-79 -32q-91 0 -94 108q0 41 -25 75q-26 34 -85 34z" />
    <glyph glyph-name="d" unicode="d" horiz-adv-x="1216" 
d="M305 326q-1 -191 183 -191q96 0 187 91q91 90 139 228t48 210t-53 122q-53 52 -143 52t-178 -84t-135 -203q-48 -119 -48 -225zM979 131q66 0 154 105h67q-55 -117 -152 -189t-200 -72q-63 0 -98 35t-35 84t12 84l-4 4q-166 -207 -377 -207q-120 0 -190 77t-70 208
q0 262 178 459t416 196q139 0 248 -75l90 293q26 85 26 109t-16 31t-65 7h-95l23 74q227 10 395 73h45l-381 -1206q-29 -90 29 -90z" />
    <glyph glyph-name="e" unicode="e" horiz-adv-x="980" 
d="M801 719q0 53 -36 86t-95 33q-139 0 -240 -139t-117 -289q213 8 351 97q137 89 137 212zM537 117q147 0 288 131h101q-100 -125 -234 -199t-278 -74q-144 -1 -240 89t-96 229q0 227 194 425q195 198 430 197q123 0 194 -56t71 -154q0 -99 -71 -175q-70 -76 -180 -114
q-217 -74 -403 -78q-10 -98 56 -160t168 -61z" />
    <glyph glyph-name="f" unicode="f" horiz-adv-x="641" 
d="M741 1427q83 0 135 -44t52 -97t-27 -80q-27 -26 -65 -26q-68 1 -74 81q-2 29 -20 55t-60 26q-41 0 -66 -40t-38 -131l-46 -280h162l-8 -74h-176l-59 -334q-51 -285 -117 -459t-182 -291q-116 -116 -263 -116q-82 0 -133 38t-51 87t30 77q29 27 67 27t58 -22
q19 -22 25 -48q7 -26 25 -48t53 -23q72 0 114 83t85 308l139 721h-158l23 74h160l43 174q41 166 143 264t229 98z" />
    <glyph glyph-name="g" unicode="g" horiz-adv-x="1110" 
d="M733 -176q0 52 -78 70q-77 18 -239 24t-195 19q-139 -57 -139 -138q0 -106 307 -106q164 0 254 34t90 97zM371 550q0 -96 52 -152t136 -56q115 0 172 101t57 197t-48 146q-48 51 -126 52q-115 0 -179 -96t-64 -192zM1100 913q39 0 52 -10t13 -41v-78q0 -55 -35 -55
q-18 0 -57 34t-88 34h-74q88 -102 88 -227t-116 -216q-117 -90 -295 -90l-127 10q-39 0 -110 -28t-70 -64q0 -33 41 -49t151 -22q420 -23 420 -226q0 -121 -129 -195t-443 -75q-314 0 -401 116q-20 28 -20 58q0 109 260 184q-60 51 -60 128q-1 157 250 206v4
q-193 68 -192 262q0 152 117 247t293 95t298 -81q133 79 234 79z" />
    <glyph glyph-name="h" unicode="h" horiz-adv-x="1241" 
d="M1157 767q0 -71 -35 -159l-159 -389q-17 -47 -11 -79t35 -31q76 0 174 159h72q-57 -125 -170 -209t-217 -84q-57 0 -90 32t-33 86t53 194l142 358q20 51 20 84t-20 53t-50 21q-78 0 -176 -98q-147 -147 -256 -339t-155 -366h-224l355 1122q29 96 28 119q0 23 -18 31
t-70 8h-96l23 74q231 10 399 73h39l-295 -962l4 -4q283 455 547 454q88 -1 136 -39t48 -109z" />
    <glyph glyph-name="i" unicode="i" horiz-adv-x="661" 
d="M607 1202q-46 0 -79 34t-32 79q0 45 32 78q33 33 80 33t79 -34q32 -32 32 -78t-33 -79t-79 -33zM426 915q68 -1 109 -31q75 -56 10 -206l-172 -438q-23 -58 -23 -82t11 -38t26 -14q74 0 191 170h73q-84 -139 -190 -220t-205 -81q-66 0 -104 34t-37 88q0 54 28 126
l181 455q16 39 16 58q0 18 -11 32t-26 14q-74 0 -174 -170h-70q158 303 367 303z" />
    <glyph glyph-name="j" unicode="j" horiz-adv-x="641" 
d="M611 1202q-46 0 -79 34t-32 79q0 45 32 78q33 33 80 33t79 -34q32 -32 32 -78t-33 -79t-79 -33zM-96 -383q-90 0 -144 36q-53 36 -53 87t28 79q29 27 67 27t60 -24t30 -52t28 -52t62 -24t74 44q32 43 65 153l223 785q8 20 8 44t-14 40q-14 14 -35 14q-65 0 -149 -147h-76
q90 157 175 223t193 65q137 0 138 -108q0 -49 -25 -131l-168 -584q-78 -268 -170 -360q-115 -115 -317 -115z" />
    <glyph glyph-name="k" unicode="k" horiz-adv-x="1259" 
d="M969 670q0 60 -36 91q-36 30 -97 30q-118 -1 -254 -105t-179 -276q160 4 308 47q258 75 258 213zM939 915q113 0 179 -50t66 -138q0 -207 -365 -311l96 -193q55 -109 97 -108q43 0 125 108h73q-66 -109 -146 -179t-150 -69q-70 0 -126 69q-55 69 -180 321
q-117 -16 -223 -15l-109 -350h-219l361 1143q22 73 22 97t-17 32t-71 8h-94l23 74q229 10 397 73h35l-226 -735l5 -4q125 121 229 174t218 53z" />
    <glyph glyph-name="l" unicode="l" horiz-adv-x="661" 
d="M377 164q0 -39 33 -39q72 0 165 145h74q-63 -125 -178 -210t-215 -85q-55 0 -88 29t-33 70t31 153l285 928q20 65 20 87t-18 30t-70 8h-104l22 74q227 6 410 73h41l-361 -1179q-14 -45 -14 -84z" />
    <glyph glyph-name="m" unicode="m" horiz-adv-x="2027" 
d="M313 739q1 39 -35 39t-86 -41t-86 -100h-73q80 133 180 206t207 72q53 -1 86 -33t33 -90t-93 -335l5 -4q297 463 581 462q84 0 135 -49t51 -136t-65 -271l4 -4q162 241 293 351t299 109q90 0 140 -41t50 -105t-34 -165l-154 -430q-12 -39 -3 -59t32 -21q68 0 174 148h80
q-158 -266 -373 -267q-61 0 -99 32t-38 86t32 149l134 379q23 61 22 94q0 33 -24 55t-60 21q-120 0 -318 -234t-261 -446l-33 -111h-217l180 584q47 138 2 185q-20 22 -55 22q-92 1 -238 -145t-232 -303q-87 -157 -118 -255l-27 -88h-217l209 682q10 35 10 57z" />
    <glyph glyph-name="n" unicode="n" horiz-adv-x="1280" 
d="M520 771q0 -75 -100 -382l4 -4q137 244 291 387t301 143q80 0 130 -45t50 -111t-31 -151l-147 -391q-16 -45 -8 -75t30 -29q61 0 150 129h72q-54 -113 -156 -190t-201 -77q-63 0 -100 31t-37 77t14 87l148 412q41 112 41 144q-1 32 -19 48t-45 17q-92 0 -235 -166
q-88 -99 -178 -241t-132 -243l-55 -141h-217l217 702q16 51 14 70q-3 18 -30 18t-75 -46t-87 -111h-72q66 129 157 206t179 76q127 0 127 -144z" />
    <glyph glyph-name="o" unicode="o" horiz-adv-x="1153" 
d="M322 288q0 -102 55 -168t153 -67q98 1 180 103t117 224t35 228t-51 167q-51 63 -148 63t-181 -104t-122 -223q-38 -121 -38 -223zM94 358q0 226 170 392t402 165q192 0 308 -106t116 -283q0 -223 -168 -387t-396 -164q-188 1 -310 109t-122 274z" />
    <glyph glyph-name="p" unicode="p" horiz-adv-x="1236" 
d="M940 556q0 112 -73 184t-197 71q-50 0 -105 -16l-200 -742q168 0 265 31t161 94q149 149 149 378zM739 915q201 0 319 -99t118 -271q0 -233 -202 -401t-536 -169h-96l-29 -94q-16 -53 -16 -92q0 -90 195 -84l-23 -74h-616l22 74q119 0 160 36t69 140l228 850
q-117 -51 -213 -164h-96q170 205 339 267l72 278l230 39l-78 -250q63 14 153 14z" />
    <glyph glyph-name="q" unicode="q" horiz-adv-x="1173" 
d="M901 700q0 58 -49 98t-125 40q-113 0 -213 -89t-156 -214t-55 -227q0 -102 49 -156q49 -55 127 -56q183 0 322 219l82 271q18 55 18 114zM395 -25q-143 0 -231 85t-88 229q0 145 77 287t226 241q150 98 335 98t316 -92l35 68h129l-309 -1010q-15 -49 -15 -92
q-1 -88 166 -84l-22 -74h-631l23 74q131 -4 181 34t81 142l75 242l-4 4q-94 -84 -170 -118t-174 -34z" />
    <glyph glyph-name="r" unicode="r" horiz-adv-x="937" 
d="M254 772q-41 0 -88 -42t-86 -114h-66q64 132 158 216t184 83q125 0 125 -145q0 -63 -94 -444l4 -4q111 246 172 360t121 174t145 59q133 0 134 -147q0 -61 -27 -97t-71 -36t-59 27q-15 28 -15 78t-30 50t-69 -38q-39 -39 -160 -277t-165 -405l-21 -70h-217l164 678
q23 94 -39 94z" />
    <glyph glyph-name="s" unicode="s" horiz-adv-x="980" 
d="M954 702q0 -40 -28 -66t-77 -26q-48 0 -78 36t-41 78t-52 78q-40 36 -106 36t-104 -31t-38 -77q0 -81 148 -179q61 -41 121 -86q59 -45 103 -105t44 -127q0 -123 -104 -191t-292 -67q-187 -1 -298 61t-111 167q0 45 26 73q27 28 69 27q42 1 67 -25t38 -63t32 -74t67 -63
t122 -25q75 0 119 35t44 86q0 85 -141 185q-58 42 -115 85q-57 42 -99 100t-41 118q1 110 105 182t261 72t258 -62q101 -61 101 -152z" />
    <glyph glyph-name="t" unicode="t" horiz-adv-x="724" 
d="M428 92q113 0 242 170h78q-174 -287 -416 -287q-88 0 -139 45q-51 46 -51 106t24 142l151 529h-163l22 82q150 31 248 125t154 206h73l-92 -319h197l-27 -94h-197l-151 -529q-18 -68 -19 -104q0 -72 66 -72z" />
    <glyph glyph-name="u" unicode="u" horiz-adv-x="1259" 
d="M969 136q0 -16 10 -25q9 -11 31 -11t71 41t97 115h71q-78 -147 -179 -214t-200 -67q-121 0 -120 107q0 57 30 154l58 180l-4 4q-173 -279 -321 -372q-197 -124 -315 -34q-52 39 -53 119q0 37 33 156l113 356q20 61 20 81t-14 34t-37 14q-63 0 -143 -129h-76
q150 270 346 270q70 1 111 -37t41 -82t-35 -151l-135 -432q-39 -118 39 -121q129 0 333 291q121 172 246 508h213l-213 -680q-18 -59 -18 -75z" />
    <glyph glyph-name="v" unicode="v" horiz-adv-x="1110" 
d="M139 610q0 -43 -51 -45q-49 0 -49 60q0 84 73 175t191 91h361q-14 -37 -83 -160q-171 -305 -171 -444q0 -80 48 -133t122 -54q135 0 240 136t106 262q0 66 -54 158t-53 146q0 54 26 84t66 29q61 0 99 -60t39 -159q0 -284 -172 -502t-394 -219q-137 0 -219 73t-82 196
q0 82 43 154t129 159q86 86 140 164h-261q-125 0 -124 -45q0 -8 15 -28t15 -38z" />
    <glyph glyph-name="w" unicode="w" horiz-adv-x="1685" 
d="M207 721q-96 0 -96 -33q0 -2 11 -22t11 -40t-15 -34t-36 -14q-53 0 -53 78t77 156q78 79 220 79h274q2 -14 -51 -122q-162 -330 -162 -484q0 -66 39 -111t96 -45q141 0 328 236q-6 61 -6 104q0 446 164 446q46 -1 74 -33t28 -85q0 -143 -127 -348q27 -150 78 -220
q51 -69 149 -69t186 97q89 97 89 214q0 78 -63 163q-62 85 -62 147q0 63 28 99t68 35q68 1 108 -67t40 -203t-64 -293t-181 -268q-118 -110 -245 -109q-127 0 -186 68t-78 217q-123 -160 -213 -222t-203 -62q-114 0 -194 75q-80 77 -80 175t59 192q20 33 102 129t123 174
h-237z" />
    <glyph glyph-name="x" unicode="x" horiz-adv-x="1236" 
d="M354 772q-56 0 -118 -119h-72q115 262 270 262q64 0 110 -45t95 -161l51 -119l88 123q82 115 140 159t139 43q80 1 125 -35t45 -88t-24 -78q-23 -26 -63 -26t-85 52t-79 52t-62 -24q-28 -25 -80 -98l-113 -158l74 -174q57 -137 88 -182t67 -45q70 0 135 118h76
q-47 -115 -132 -185t-168 -69q-83 -1 -133 53t-105 201l-35 95l-96 -127q-166 -221 -299 -222q-53 0 -89 37q-34 37 -34 86t24 78q25 29 61 29q37 0 71 -35t70 -35t82 42t124 147l55 75l-106 271q-41 102 -97 102z" />
    <glyph glyph-name="y" unicode="y" horiz-adv-x="1110" 
d="M201 748q-33 0 -56 -28t-43 -95h-65q90 291 270 290q66 0 105 -43t61 -143l150 -637q137 170 185 262t48 150t-19 141q-19 84 -19 140q0 55 30 93q31 38 83 38t87 -47q35 -46 35 -119q0 -225 -275 -574l-129 -164q-309 -395 -612 -395q-86 0 -143 33q-58 33 -58 74
q0 42 27 68t59 26t102 -35q68 -35 136 -35t136 36t165 126l-166 684q-37 154 -94 154z" />
    <glyph glyph-name="z" unicode="z" horiz-adv-x="980" 
d="M80 -25h-29q-27 0 -26 27q0 123 125 248q74 74 316 218t331 226l-4 4q-75 -18 -133 -18t-173 30q-223 58 -225 -3q0 -19 27 -47t27 -47t-16 -31q-15 -12 -44 -12q-28 0 -50 23q-22 24 -22 62q0 97 90 179t195 81q75 0 189 -44t149 -44q58 0 66 43t47 43h20q33 0 33 -51
t-23 -95t-80 -101q-96 -96 -354 -253t-301 -202l4 -4q27 6 63 6t170 -31q136 -30 186 -30t77 15t27 33t-24 44q-24 28 -24 48t16 34t47 14q30 0 49 -22t19 -56q0 -111 -93 -199t-212 -88q-86 0 -203 41t-155 41t-45 -41q0 -28 -23 -39q-6 -2 -14 -2z" />
    <glyph glyph-name="braceleft" unicode="{" horiz-adv-x="806" 
d="M627 1190q-1 -25 23 -164t24 -180q0 -104 -84 -198t-223 -132v-2q139 -37 223 -130t84 -198q0 -51 -24 -184t-23 -160q0 -66 59 -129t156 -75v-39q-164 7 -277 119t-112 245q0 27 24 160q23 104 23 173q0 68 -60 126t-155 72v45q96 14 155 71t60 140q0 46 -24 158
t-23 161q0 133 112 246q113 113 277 119v-39q-96 -11 -156 -75t-59 -130z" />
    <glyph glyph-name="bar" unicode="|" horiz-adv-x="1118" 
d="M549 1536h186v-2048h-186v2048z" />
    <glyph glyph-name="braceright" unicode="}" horiz-adv-x="806" 
d="M512 283q0 -47 24 -159t23 -161q0 -133 -113 -246t-276 -118v39q96 12 156 75q59 63 59 129q0 16 -24 156t-23 188q0 104 84 198t223 132v2q-139 37 -223 130t-84 198q0 51 23 184q24 133 24 160q0 66 -59 129t-156 76v39q164 -6 276 -119t113 -246q0 -39 -22 -160
q-25 -115 -25 -159q0 -82 59 -140q60 -57 156 -71v-45q-95 -14 -155 -72t-60 -139z" />
    <glyph glyph-name="asciitilde" unicode="~" 
d="M1038 381q-110 0 -323 90t-275 90q-145 0 -172 -178h-63q2 166 78 254t186 88q109 0 327 -90t282 -90t109 48q46 48 54 136h64q-6 -162 -81 -255q-76 -93 -186 -93z" />
    <glyph glyph-name="uni00A0" unicode="&#xa0;" horiz-adv-x="585" 
 />
    <glyph glyph-name="exclamdown" unicode="&#xa1;" horiz-adv-x="598" 
d="M578 776q0 -59 -41 -99t-99 -40t-98 40q-41 40 -41 99q0 60 41 100t98 40t99 -40q41 -41 41 -100zM13 -537q-91 0 -91 66q0 29 21 78l383 885h45l-185 -885q-18 -90 -50 -117t-123 -27z" />
    <glyph glyph-name="cent" unicode="&#xa2;" horiz-adv-x="980" 
d="M377 170l303 670q-137 4 -252 -159t-115 -347q1 -101 64 -164zM80 291q0 245 190 439t443 185l143 316h82l-147 -326q88 -16 141 -62q53 -45 53 -101t-32 -89t-84 -33t-69 36q-17 34 -24 83q-6 49 -28 70l-306 -676q59 -16 105 -16q143 0 272 129h103
q-209 -270 -500 -271q-27 0 -49 2l-119 -262h-84l127 279q-217 78 -217 297z" />
    <glyph glyph-name="sterling" unicode="&#xa3;" horiz-adv-x="1323" 
d="M1430 1190q0 -41 -28 -70q-28 -28 -72 -28t-70 32t-32 69q-7 38 -34 70q-27 31 -81 31t-101 -47q-104 -104 -195 -446l-51 -193q-8 -33 -49 -155h258l-33 -121h-258q-74 -197 -149 -332q69 -6 203 -104t212 -99q37 0 64 23t26 55q0 18 -40 60q-40 43 -40 83t28 66
q26 26 68 27q42 0 72 -37t31 -94q0 -113 -97 -221t-200 -107q-178 0 -393 242q-84 -130 -140 -186q-57 -56 -105 -56t-76 28t-27 68q0 86 94 172t197 94q49 109 71 318h-245l32 121h246q199 913 637 913q123 0 200 -49t77 -127z" />
    <glyph glyph-name="currency" unicode="&#xa4;" 
d="M971 672q0 118 -84 202t-204 84t-205 -84t-85 -202t85 -204q85 -85 205 -85t204 85t84 204zM680 1133q139 0 260 -82l133 133l121 -123l-131 -133q80 -131 80 -263t-80 -251l131 -131l-121 -121l-133 129q-125 -82 -262 -82t-252 82l-133 -129l-123 121l133 131
q-82 137 -82 265t82 249l-133 133l123 123l133 -133q115 82 254 82z" />
    <glyph glyph-name="yen" unicode="&#xa5;" 
d="M678 1204q0 -39 16 -84l123 -372h8l279 348q57 72 57 131q0 96 -143 96l20 74h432l-20 -74q-72 -10 -156 -113l-374 -462h413l-20 -74h-455l-61 -240h450l-20 -74h-449l-22 -96q-27 -106 20 -148t156 -42l-21 -74h-649l21 74q102 0 149 50t80 181l14 55h-465l21 74h463
l61 240h-459l21 74h414l-142 409q-33 94 -64 127q-32 33 -100 39l21 74h565l-20 -74q-164 0 -164 -119z" />
    <glyph glyph-name="brokenbar" unicode="&#xa6;" horiz-adv-x="1118" 
d="M549 1382h186v-716h-186v716zM549 358h186v-716h-186v716z" />
    <glyph glyph-name="section" unicode="&#xa7;" horiz-adv-x="1161" 
d="M512 1039q0 104 72 212l-4 4q-252 -164 -252 -428q0 -174 137 -374l104 -156q103 -156 103 -271t-76 -223l4 -4q252 150 252 408q0 164 -133 385l-144 237q-63 106 -63 210zM1325 1313q0 -39 -32 -65t-85 -26q-52 0 -160 54q-108 53 -208 53t-174 -71q-76 -71 -76 -164
t76 -215l88 -142q200 -324 200 -502t-127 -321t-327 -220t-420 -77q-100 0 -161 28q-60 29 -60 71t40 74t93 32t152 -48t169 -48q121 0 203 74t82 170q0 98 -86 223l-145 208q-139 199 -139 389t117 334q119 144 311 224t411 79q258 0 258 -114z" />
    <glyph glyph-name="dieresis" unicode="&#xa8;" horiz-adv-x="681" 
d="M389 1313q45 0 77 -32t32 -77t-32 -77q-32 -31 -77 -31t-77 32t-31 76q0 45 31 77q32 32 77 32zM733 1313q45 0 77 -32t32 -77t-32 -77q-32 -31 -77 -31t-77 32t-31 76q0 45 31 77q32 32 77 32z" />
    <glyph glyph-name="copyright" unicode="&#xa9;" horiz-adv-x="1529" 
d="M1483 688q-1 264 -187 450t-450 187q-264 0 -450 -186q-186 -187 -187 -451q0 -264 186 -450q187 -186 451 -186t450 186t187 450zM1556 688q0 -293 -208 -501q-208 -207 -500 -207q-293 0 -501 208t-208 500q0 293 208 501t501 208q292 0 500 -208t208 -501zM885 1087
q-137 0 -218 -100t-81 -268q0 -410 305 -410q174 0 289 154l24 -37q-137 -176 -360 -176q-193 0 -320 123t-127 313q1 190 137 319q136 130 338 130q68 0 150 -24t88 -24q31 0 41 46h39l14 -275h-39q-63 229 -280 229z" />
    <glyph glyph-name="ordfeminine" unicode="&#xaa;" horiz-adv-x="768" 
d="M592 1370q-86 0 -159 -112t-73 -206q0 -93 82 -94q82 0 154 114t72 206t-76 92zM696 858q-50 0 -76 25t-36 78q-102 -103 -198 -103t-146 46q-51 46 -52 122q0 137 119 269t264 132q100 0 193 -65l27 49h96l-137 -405q-16 -54 16 -56q12 0 34 20t40 50h71
q-84 -162 -215 -162z" />
    <glyph glyph-name="guillemotleft" unicode="&#xab;" horiz-adv-x="980" 
d="M727 520l96 -428h-137l-104 451l303 399h168zM311 520l97 -428h-138l-104 451l301 399h168z" />
    <glyph glyph-name="logicalnot" unicode="&#xac;" 
d="M203 885h1104v-660h-185v475h-919v185z" />
    <glyph glyph-name="uni00AD" unicode="&#xad;" horiz-adv-x="831" 
d="M74 356l57 193h649l-57 -193h-649z" />
    <glyph glyph-name="registered" unicode="&#xae;" horiz-adv-x="1529" 
d="M1483 688q-1 264 -187 450t-450 187q-264 0 -450 -186q-186 -187 -187 -451q0 -264 186 -450q187 -186 451 -186t450 186t187 450zM1556 688q0 -293 -208 -501q-208 -207 -500 -207q-293 0 -501 208t-208 500q0 293 208 501t501 208q292 0 500 -208t208 -501zM778 1071
q-31 0 -63 -10v-352l49 -2q94 0 151 49t57 132t-51 133q-52 50 -143 50zM551 440v506q0 86 -15 109t-77 26v35h375q154 0 238 -58t83 -167q0 -158 -207 -215l182 -281q33 -49 57 -68t58 -24v-33h-205l-262 392h-63v-259q1 -55 27 -77t92 -23v-33h-388v33q68 3 86 27t19 110z
" />
    <glyph glyph-name="macron" unicode="&#xaf;" horiz-adv-x="681" 
d="M836 1133h-582l31 145h579z" />
    <glyph glyph-name="degree" unicode="&#xb0;" horiz-adv-x="819" 
d="M543 1296q-92 0 -157 -64q-64 -64 -64 -157t64 -157t157 -64t157 65t64 157t-64 156t-157 64zM543 1397q133 0 227 -94q94 -93 94 -227t-94 -228t-227 -94t-228 94q-94 94 -94 227t94 228q95 94 228 94z" />
    <glyph glyph-name="plusminus" unicode="&#xb1;" 
d="M201 184h1106v-184h-1106v184zM201 979h461v446h184v-446h461v-184h-461v-447h-184v447h-461v184z" />
    <glyph glyph-name="two.superior" unicode="&#xb2;" horiz-adv-x="681" 
d="M625 1178q1 100 -131 100q-68 0 -181 -80l-51 41q162 127 301 127q93 0 155 -45t62 -118t-72 -144t-197 -161q-126 -90 -165 -128h164q70 0 94 16t37 68h80l-53 -199h-500l10 37q39 51 184 174l91 76q172 145 172 236z" />
    <glyph glyph-name="three.superior" unicode="&#xb3;" horiz-adv-x="681" 
d="M510 1282q-72 0 -148 -61l-51 39q94 106 242 106q97 0 153 -41t56 -105t-50 -114q-50 -49 -155 -74v-4q127 -56 127 -160t-90 -164t-268 -61q-178 0 -176 51q0 20 21 42q22 22 42 22q21 0 79 -29t111 -29t92 41q37 41 37 106t-44 111t-156 39l16 58q129 -2 199 38t69 105
q0 84 -106 84z" />
    <glyph glyph-name="acute" unicode="&#xb4;" horiz-adv-x="681" 
d="M520 1038h-71l102 334h254z" />
    <glyph glyph-name="mu" unicode="&#xb5;" horiz-adv-x="1179" 
d="M295 -25q-102 0 -156 60q-35 -106 -45 -239q-10 -134 -42 -186t-84 -52t-78 24t-26 62t39 108q160 296 230 516l203 623h217l-221 -678q-16 -47 -17 -70q0 -51 54 -51q75 0 191 117t205 275t169 378l10 29h217l-219 -719q-23 -72 25 -72q31 0 79 40t93 116h73
q-61 -125 -166 -203t-210 -78q-57 0 -91 31q-33 30 -33 80t31 150l58 180l-4 4q-129 -213 -265 -329t-237 -116z" />
    <glyph glyph-name="paragraph" unicode="&#xb6;" horiz-adv-x="1105" 
d="M983 1253v-1529h-84v1609h-182v-1609h-84v856q-143 -2 -247 34q-179 63 -232 230q-23 68 -23 145q0 193 126 301t359 107h521v-47q-74 2 -114 -28t-40 -69z" />
    <glyph glyph-name="periodcentered" unicode="&#xb7;" horiz-adv-x="598" 
d="M383 807q59 0 99 -41t40 -98q0 -56 -40 -98t-99 -42t-99 41t-40 99t40 98q40 41 99 41z" />
    <glyph glyph-name="cedilla" unicode="&#xb8;" horiz-adv-x="681" 
d="M393 -188q0 -154 -250 -154q-53 0 -104 6l16 53q14 -2 37 -2q152 0 152 68q0 50 -84 70l112 135h64l-41 -68q98 -31 98 -108z" />
    <glyph glyph-name="one.superior" unicode="&#xb9;" horiz-adv-x="681" 
d="M494 746q0 -22 19 -30q19 -7 83 -5l-14 -56h-379l14 56q67 -5 95 17t50 93l101 326q8 25 8 45q0 27 -55 27h-64l17 59q147 2 227 88h82l-168 -545q-16 -53 -16 -75z" />
    <glyph glyph-name="ordmasculine" unicode="&#xba;" horiz-adv-x="747" 
d="M369 1076q-1 -83 31 -121t85 -37q88 0 146 108q57 108 57 190q0 152 -110 152q-86 0 -148 -104q-61 -105 -61 -188zM197 1094q0 135 113 234q114 99 254 99q140 -1 218 -65q76 -64 76 -184t-110 -219q-112 -99 -250 -99t-220 67t-81 167z" />
    <glyph glyph-name="guillemotright" unicode="&#xbb;" horiz-adv-x="980" 
d="M338 514l-96 428h135l106 -450l-303 -400h-168zM754 514l-97 428h138l104 -450l-301 -400h-168z" />
    <glyph glyph-name="onequarter" unicode="&#xbc;" horiz-adv-x="1642" 
d="M78 -86l1323 1507h108l-1323 -1507h-108zM379 1192q0 27 -55 27h-64l16 59q147 2 228 88h82l-168 -545q-16 -53 -16 -75t18 -30q20 -7 84 -5l-15 -56h-378l14 56q67 -5 95 17t50 93l101 326q8 25 8 45zM975 285h252l78 266l-5 4l-325 -266v-4zM1348 195l-62 -207h-145
l59 207h-328l9 90l508 426h112l-127 -426h139l-24 -90h-141z" />
    <glyph glyph-name="onehalf" unicode="&#xbd;" horiz-adv-x="1642" 
d="M379 1192q0 27 -55 27h-64l16 59q147 2 228 88h82l-168 -545q-16 -53 -16 -75t18 -30q20 -7 84 -5l-15 -56h-378l14 56q67 -5 95 17t50 93l101 326q8 25 8 45zM1358 522q0 101 -132 101q-68 0 -179 -80l-52 41q162 127 301 127q92 0 154 -45t63 -118q0 -72 -71 -144
q-72 -72 -198 -161t-165 -128h164q71 0 95 16t36 68h80l-53 -199h-500l10 37q39 51 185 174l90 76q172 145 172 235zM78 -86l1323 1507h108l-1323 -1507h-108z" />
    <glyph glyph-name="threequarters" unicode="&#xbe;" horiz-adv-x="1642" 
d="M559 1198q0 84 -106 84q-72 0 -148 -61l-51 39q94 106 242 106q96 0 152 -41t56 -105t-50 -114q-50 -49 -154 -74v-4q127 -56 127 -160t-90 -164q-89 -60 -267 -61q-178 0 -178 51q0 20 22 42t42 22t78 -29t112 -29t91 41q38 41 38 106t-44 111t-157 39l17 58
q129 -2 199 38t69 105zM160 -86l1323 1507h108l-1323 -1507h-108zM1057 285h252l77 266l-4 4l-325 -266v-4zM1430 195l-62 -207h-145l59 207h-328l9 90l507 426h113l-127 -426h139l-24 -90h-141z" />
    <glyph glyph-name="questiondown" unicode="&#xbf;" horiz-adv-x="1024" 
d="M678 776q0 60 40 100t99 40t99 -40t40 -100t-40 -99q-40 -40 -99 -40t-99 40t-40 99zM674 -424q0 -47 -47 -80t-125 -33q-150 0 -249 117t-99 293q0 105 34 205t96 162q94 94 300 114q70 8 98 36t49 95h78l-88 -331q-11 -38 -27 -50t-55 -12h-111q-137 0 -217 -68
t-80 -166q-1 -98 55 -146t146 -48l139 10q49 0 76 -26t27 -72z" />
    <glyph glyph-name="Agrave" unicode="&#xc0;" 
d="M1239 1507l-285 334h254l103 -334h-72zM940 580l61 630l-4 4l-514 -634h457zM1151 209q0 -129 158 -135l-29 -74h-604l18 74q195 -4 215 194l23 226h-512l-70 -99q-96 -133 -96 -217q0 -47 32 -75t89 -29l-19 -74h-481l19 74q80 20 144 84t297 369q232 304 331 417
l413 483h191l-107 -1056q-12 -106 -12 -162z" />
    <glyph glyph-name="Aacute" unicode="&#xc1;" 
d="M1196 1507h-72l103 334h254zM940 580l61 630l-4 4l-514 -634h457zM1151 209q0 -129 158 -135l-29 -74h-604l18 74q195 -4 215 194l23 226h-512l-70 -99q-96 -133 -96 -217q0 -47 32 -75t89 -29l-19 -74h-481l19 74q80 20 144 84t297 369q232 304 331 417l413 483h191
l-107 -1056q-12 -106 -12 -162z" />
    <glyph glyph-name="Acircumflex" unicode="&#xc2;" 
d="M1247 1726l-311 -204h-55l280 344h232l57 -344h-57zM940 580l61 630l-4 4l-514 -634h457zM1151 209q0 -129 158 -135l-29 -74h-604l18 74q195 -4 215 194l23 226h-512l-70 -99q-96 -133 -96 -217q0 -47 32 -75t89 -29l-19 -74h-481l19 74q80 20 144 84t297 369
q232 304 331 417l413 483h191l-107 -1056q-12 -106 -12 -162z" />
    <glyph glyph-name="Atilde" unicode="&#xc3;" 
d="M1384 1542q-57 0 -173 52t-160 53q-92 0 -117 -107h-55q6 113 69 189q62 75 140 75t182 -55t149 -55q82 -1 119 112h53q-2 -108 -62 -186t-145 -78zM940 580l61 630l-4 4l-514 -634h457zM1151 209q0 -129 158 -135l-29 -74h-604l18 74q195 -4 215 194l23 226h-512
l-70 -99q-96 -133 -96 -217q0 -47 32 -75t89 -29l-19 -74h-481l19 74q80 20 144 84t297 369q232 304 331 417l413 483h191l-107 -1056q-12 -106 -12 -162z" />
    <glyph glyph-name="Adieresis" unicode="&#xc4;" 
d="M1065 1782q45 0 77 -32t32 -77t-32 -77t-77 -32t-77 32t-32 77t32 77t77 32zM1409 1782q45 0 77 -32t32 -77t-32 -77t-77 -32t-77 32t-32 77t32 77t77 32zM940 580l61 630l-4 4l-514 -634h457zM1151 209q0 -129 158 -135l-29 -74h-604l18 74q195 -4 215 194l23 226h-512
l-70 -99q-96 -133 -96 -217q0 -47 32 -75t89 -29l-19 -74h-481l19 74q80 20 144 84t297 369q232 304 331 417l413 483h191l-107 -1056q-12 -106 -12 -162z" />
    <glyph glyph-name="Aring" unicode="&#xc5;" 
d="M1239 1774q-43 0 -73 -30t-30 -73t30 -74t73 -31t74 32q31 30 30 73q0 43 -30 73q-31 30 -74 30zM1241 1845q72 0 123 -51t51 -123t-51 -124t-123 -52t-124 52t-52 124t52 123t124 51zM940 580l61 630l-4 4l-514 -634h457zM1151 209q0 -129 158 -135l-29 -74h-604l18 74
q195 -4 215 194l23 226h-512l-70 -99q-96 -133 -96 -217q0 -47 32 -75t89 -29l-19 -74h-481l19 74q80 20 144 84t297 369q232 304 331 417l413 483h191l-107 -1056q-12 -106 -12 -162z" />
    <glyph glyph-name="AE" unicode="&#xc6;" horiz-adv-x="1855" 
d="M1026 1274q0 51 -43 51q-57 0 -172 -166l-268 -387h360l115 436q8 33 8 66zM1544 1323h-244l-145 -551h197q106 0 172 43t104 139h103l-127 -477h-103q14 221 -201 221h-165l-115 -424q-20 -80 -21 -106q0 -94 134 -94h127q141 0 237 63t191 199h104l-152 -336h-1089
l20 74q90 4 131 56t74 173l107 395h-394l-217 -311q-92 -135 -92 -217q0 -102 127 -96l-20 -74h-457l20 74q76 2 128 45t131 155l585 842q47 68 47 117q0 92 -149 90l20 74h1317l-55 -303h-94q18 123 -46 176q-65 53 -190 53z" />
    <glyph glyph-name="Ccedilla" unicode="&#xc7;" horiz-adv-x="1449" 
d="M190 530q0 234 121 443t321 332t440 123t458 -142l-57 -301h-105q23 160 -58 262t-220 103q-244 0 -436 -259t-191 -591q0 -205 90 -329t240 -124q268 0 417 399h148l-88 -329q-203 -147 -490 -148h-43l-32 -49q98 -31 98 -108q0 -78 -66 -116t-184 -38q-53 0 -104 6
l16 51h37q152 0 151 68q0 50 -84 70l107 122q-226 29 -356 175t-130 380z" />
    <glyph glyph-name="Egrave" unicode="&#xc8;" horiz-adv-x="1449" 
d="M1083 1507l-284 334h254l102 -334h-72zM1108 1323h-332l-147 -551h252q121 0 183 39t120 145h98l-129 -477h-96q2 123 -48 171t-169 48h-232l-96 -362q-20 -76 -20 -132t47 -94q47 -36 135 -36h203q129 0 223 68t182 194h104l-153 -336h-1225l19 74q170 18 225 231
l205 766q23 82 22 123q0 135 -166 129l19 74h1190l-58 -314h-92q-20 127 -78 183t-186 57z" />
    <glyph glyph-name="Eacute" unicode="&#xc9;" horiz-adv-x="1449" 
d="M1040 1507h-71l102 334h254zM1108 1323h-332l-147 -551h252q121 0 183 39t120 145h98l-129 -477h-96q2 123 -48 171t-169 48h-232l-96 -362q-20 -76 -20 -132t47 -94q47 -36 135 -36h203q129 0 223 68t182 194h104l-153 -336h-1225l19 74q170 18 225 231l205 766
q23 82 22 123q0 135 -166 129l19 74h1190l-58 -314h-92q-20 127 -78 183t-186 57z" />
    <glyph glyph-name="Ecircumflex" unicode="&#xca;" horiz-adv-x="1449" 
d="M1092 1726l-312 -204h-55l281 344h231l57 -344h-57zM1108 1323h-332l-147 -551h252q121 0 183 39t120 145h98l-129 -477h-96q2 123 -48 171t-169 48h-232l-96 -362q-20 -76 -20 -132t47 -94q47 -36 135 -36h203q129 0 223 68t182 194h104l-153 -336h-1225l19 74
q170 18 225 231l205 766q23 82 22 123q0 135 -166 129l19 74h1190l-58 -314h-92q-20 127 -78 183t-186 57z" />
    <glyph glyph-name="Edieresis" unicode="&#xcb;" horiz-adv-x="1449" 
d="M909 1782q45 0 77 -32t32 -77t-32 -77t-77 -32t-77 32t-31 77q-1 45 31 77t77 32zM1253 1782q45 0 77 -32t32 -77t-32 -77t-77 -32t-77 32t-31 77q-1 45 31 77t77 32zM1108 1323h-332l-147 -551h252q121 0 183 39t120 145h98l-129 -477h-96q2 123 -48 171t-169 48h-232
l-96 -362q-20 -76 -20 -132t47 -94q47 -36 135 -36h203q129 0 223 68t182 194h104l-153 -336h-1225l19 74q170 18 225 231l205 766q23 82 22 123q0 135 -166 129l19 74h1190l-58 -314h-92q-20 127 -78 183t-186 57z" />
    <glyph glyph-name="Igrave" unicode="&#xcc;" horiz-adv-x="788" 
d="M752 1507l-285 334h254l102 -334h-71zM492 208q0 -50 38 -90t109 -44l-18 -74h-603l19 74q92 2 137 54t78 177l205 766q20 74 20 126t-32 87t-85 39l19 74h573l-18 -74q-158 0 -203 -170l-221 -825q-18 -70 -18 -120z" />
    <glyph glyph-name="Iacute" unicode="&#xcd;" horiz-adv-x="788" 
d="M709 1507h-72l102 334h254zM492 208q0 -50 38 -90t109 -44l-18 -74h-603l19 74q92 2 137 54t78 177l205 766q20 74 20 126t-32 87t-85 39l19 74h573l-18 -74q-158 0 -203 -170l-221 -825q-18 -70 -18 -120z" />
    <glyph glyph-name="Icircumflex" unicode="&#xce;" horiz-adv-x="788" 
d="M760 1726l-311 -204h-56l281 344h231l58 -344h-58zM492 208q0 -50 38 -90t109 -44l-18 -74h-603l19 74q92 2 137 54t78 177l205 766q20 74 20 126t-32 87t-85 39l19 74h573l-18 -74q-158 0 -203 -170l-221 -825q-18 -70 -18 -120z" />
    <glyph glyph-name="Idieresis" unicode="&#xcf;" horiz-adv-x="788" 
d="M578 1782q44 0 76 -32t32 -77t-32 -77t-76 -32t-77 32q-32 32 -32 77t32 77t77 32zM922 1782q44 0 76 -32t32 -77t-32 -77t-76 -32t-77 32q-32 32 -32 77t32 77t77 32zM492 208q0 -50 38 -90t109 -44l-18 -74h-603l19 74q92 2 137 54t78 177l205 766q20 74 20 126t-32 87
t-85 39l19 74h573l-18 -74q-158 0 -203 -170l-221 -825q-18 -70 -18 -120z" />
    <glyph glyph-name="Eth" unicode="&#xd0;" horiz-adv-x="1515" 
d="M684 74q348 0 484 479q46 160 46 299q0 223 -97 347t-275 124h-54l-155 -582h350l-25 -86h-348l-84 -307q-25 -88 -24 -137q0 -137 182 -137zM928 1397q254 0 406 -180t153 -455q0 -217 -111 -409q-59 -101 -144 -179t-218 -126t-293 -48h-701l21 74q88 12 141 66t82 165
l94 350h-202l24 86h201l102 383q8 31 9 66q0 139 -156 133l20 74h572z" />
    <glyph glyph-name="Ntilde" unicode="&#xd1;" horiz-adv-x="1622" 
d="M1315 1542q-57 0 -173 52t-161 53q-92 0 -117 -107h-55q5 113 69 189q64 75 141 75t181 -55t150 -55q81 -1 118 112h54q-2 -108 -62 -186t-145 -78zM1475 1183q0 77 -39 109t-133 31l20 74h471l-20 -74q-100 -8 -156 -89t-105 -263l-200 -750l121 -221h-275l-618 1087
l-174 -649q-45 -170 -45 -232t49 -97t141 -35l-20 -74h-494l20 74q115 2 165 78t102 264l200 749q-86 104 -127 131t-112 27l20 74h344q80 -78 168 -232l484 -854l182 678q31 117 31 194z" />
    <glyph glyph-name="Ograve" unicode="&#xd2;" horiz-adv-x="1665" 
d="M1190 1507l-285 334h254l103 -334h-72zM455 436q0 -167 90 -278t226 -111t241 72q183 126 284 415q86 238 86 421q0 184 -92 289q-92 106 -229 106t-253 -85t-191 -217t-119 -288t-43 -324zM182 530q0 238 122 444t325 330t428 123q264 1 431 -163t167 -406t-121 -445
q-121 -202 -323 -323q-203 -121 -445 -121t-413 162q-171 161 -171 399z" />
    <glyph glyph-name="Oacute" unicode="&#xd3;" horiz-adv-x="1665" 
d="M1147 1507h-72l103 334h254zM455 436q0 -167 90 -278t226 -111t241 72q183 126 284 415q86 238 86 421q0 184 -92 289q-92 106 -229 106t-253 -85t-191 -217t-119 -288t-43 -324zM182 530q0 238 122 444t325 330t428 123q264 1 431 -163t167 -406t-121 -445
q-121 -202 -323 -323q-203 -121 -445 -121t-413 162q-171 161 -171 399z" />
    <glyph glyph-name="Ocircumflex" unicode="&#xd4;" horiz-adv-x="1665" 
d="M1198 1726l-311 -204h-56l281 344h231l58 -344h-58zM455 436q0 -167 90 -278t226 -111t241 72q183 126 284 415q86 238 86 421q0 184 -92 289q-92 106 -229 106t-253 -85t-191 -217t-119 -288t-43 -324zM182 530q0 238 122 444t325 330t428 123q264 1 431 -163t167 -406
t-121 -445q-121 -202 -323 -323q-203 -121 -445 -121t-413 162q-171 161 -171 399z" />
    <glyph glyph-name="Otilde" unicode="&#xd5;" horiz-adv-x="1665" 
d="M1335 1542q-57 0 -173 52t-161 53q-92 0 -116 -107h-56q5 113 69 189q64 75 142 75t181 -55q104 -55 149 -55q82 -1 119 112h53q-2 -108 -62 -186t-145 -78zM455 436q0 -167 90 -278t226 -111t241 72q183 126 284 415q86 238 86 421q0 184 -92 289q-92 106 -229 106
t-253 -85t-191 -217t-119 -288t-43 -324zM182 530q0 238 122 444t325 330t428 123q264 1 431 -163t167 -406t-121 -445q-121 -202 -323 -323q-203 -121 -445 -121t-413 162q-171 161 -171 399z" />
    <glyph glyph-name="Odieresis" unicode="&#xd6;" horiz-adv-x="1665" 
d="M1016 1782q45 0 77 -32q31 -32 31 -77t-32 -77t-76 -32q-45 0 -77 32t-32 77t32 77t77 32zM1360 1782q45 0 77 -32q31 -32 31 -77t-32 -77t-76 -32q-45 0 -77 32t-32 77t32 77t77 32zM455 436q0 -167 90 -278t226 -111t241 72q183 126 284 415q86 238 86 421
q0 184 -92 289q-92 106 -229 106t-253 -85t-191 -217t-119 -288t-43 -324zM182 530q0 238 122 444t325 330t428 123q264 1 431 -163t167 -406t-121 -445q-121 -202 -323 -323q-203 -121 -445 -121t-413 162q-171 161 -171 399z" />
    <glyph glyph-name="multiply" unicode="&#xd7;" horiz-adv-x="1368" 
d="M242 934l129 129l383 -383l383 383l131 -131l-381 -381l383 -383l-131 -131l-383 383l-383 -383l-131 131l383 383z" />
    <glyph glyph-name="Oslash" unicode="&#xd8;" horiz-adv-x="1665" 
d="M784 47q123 0 228 72q183 126 284 415q86 238 86 437q1 90 -34 182l-824 -969q94 -137 260 -137zM182 539q0 229 122 435t325 330t421 124t353 -97l84 101l57 -48l-84 -98q92 -72 144 -192t51 -254q0 -225 -121 -427t-323 -323t-427 -121q-102 0 -200 31t-154 72
l-135 -158l-55 47l131 156q-89 75 -139 185t-50 237zM1053 1350q-129 0 -245 -85q-213 -156 -309 -506q-45 -157 -45 -297t35 -206l820 965q-90 129 -256 129z" />
    <glyph glyph-name="Ugrave" unicode="&#xd9;" horiz-adv-x="1556" 
d="M1137 1507l-285 334h254l102 -334h-71zM727 -31q-131 0 -228 35q-165 60 -220 209q-23 59 -23 145t29 191l139 522q10 37 10 97t-34 103q-34 44 -97 52l19 74h612l-19 -74q-174 -8 -233 -231l-164 -617q-25 -94 -24 -137q0 -123 80 -196t217 -72q369 0 466 417l127 545
q18 80 18 132t-42 97q-43 46 -121 62l18 74h496l-20 -74q-115 -4 -170 -53t-86 -178l-144 -605q-57 -244 -199 -381t-407 -137z" />
    <glyph glyph-name="Uacute" unicode="&#xda;" horiz-adv-x="1556" 
d="M1094 1507h-72l102 334h254zM727 -31q-131 0 -228 35q-165 60 -220 209q-23 59 -23 145t29 191l139 522q10 37 10 97t-34 103q-34 44 -97 52l19 74h612l-19 -74q-174 -8 -233 -231l-164 -617q-25 -94 -24 -137q0 -123 80 -196t217 -72q369 0 466 417l127 545
q18 80 18 132t-42 97q-43 46 -121 62l18 74h496l-20 -74q-115 -4 -170 -53t-86 -178l-144 -605q-57 -244 -199 -381t-407 -137z" />
    <glyph glyph-name="Ucircumflex" unicode="&#xdb;" horiz-adv-x="1556" 
d="M1145 1726l-311 -204h-56l281 344h231l58 -344h-58zM727 -31q-131 0 -228 35q-165 60 -220 209q-23 59 -23 145t29 191l139 522q10 37 10 97t-34 103q-34 44 -97 52l19 74h612l-19 -74q-174 -8 -233 -231l-164 -617q-25 -94 -24 -137q0 -123 80 -196t217 -72
q369 0 466 417l127 545q18 80 18 132t-42 97q-43 46 -121 62l18 74h496l-20 -74q-115 -4 -170 -53t-86 -178l-144 -605q-57 -244 -199 -381t-407 -137z" />
    <glyph glyph-name="Udieresis" unicode="&#xdc;" horiz-adv-x="1556" 
d="M963 1782q45 0 77 -32t31 -77q0 -45 -32 -77q-33 -32 -77 -32t-76 32t-32 77t32 77t77 32zM1307 1782q45 0 77 -32t31 -77q0 -45 -32 -77q-33 -32 -77 -32t-76 32t-32 77t32 77t77 32zM727 -31q-131 0 -228 35q-165 60 -220 209q-23 59 -23 145t29 191l139 522
q10 37 10 97t-34 103q-34 44 -97 52l19 74h612l-19 -74q-174 -8 -233 -231l-164 -617q-25 -94 -24 -137q0 -123 80 -196t217 -72q369 0 466 417l127 545q18 80 18 132t-42 97q-43 46 -121 62l18 74h496l-20 -74q-115 -4 -170 -53t-86 -178l-144 -605q-57 -244 -199 -381
t-407 -137z" />
    <glyph glyph-name="Yacute" unicode="&#xdd;" 
d="M997 1507h-71l102 334h254zM780 201q0 -129 185 -127l-21 -74h-649l20 74q102 -2 147 52q44 54 79 179l65 246l-207 606q-33 94 -64 127q-32 33 -99 39l20 74h565l-20 -74q-164 0 -164 -119q0 -39 16 -84l168 -495l381 471q57 70 58 131q0 96 -144 96l21 74h432l-21 -74
q-47 -4 -99 -53t-165 -191l-422 -528l-59 -223q-23 -84 -23 -127z" />
    <glyph glyph-name="Thorn" unicode="&#xde;" horiz-adv-x="1409" 
d="M1114 723q0 147 -107 212q-108 65 -317 60l-180 -667q-12 -41 -12 -95q0 -139 180 -159l-19 -74h-663l18 74q100 2 153 56q52 54 85 175l207 762q12 41 12 96q0 139 -180 160l18 74h664l-19 -74q-98 -1 -154 -65t-89 -189h84q307 0 449 -85t142 -269t-173 -299t-461 -115
q-147 0 -148 29q0 51 39 51l82 -2q285 0 369 229q20 57 20 115z" />
    <glyph glyph-name="germandbls" unicode="&#xdf;" horiz-adv-x="1236" 
d="M1024 1141q0 100 -48 154t-136 55q-190 0 -256 -260l-240 -924q-66 -256 -194 -403q-129 -146 -275 -146q-76 0 -127 41t-51 90t24 75q25 25 65 25t62 -22t30 -50q19 -71 59 -71q41 0 71 30t64 134q35 104 75 298t56 296q74 352 109 474q36 122 106 239q152 252 436 251
q172 -1 272 -81t101 -220q0 -238 -348 -323v-4q135 -27 207 -105t71 -202q0 -195 -135 -356t-299 -161q-78 0 -135 42q-58 43 -58 89t23 70t57 25q34 0 52 -23q20 -24 24 -52q10 -73 62 -73q66 0 131 199t65 297q0 99 -64 151t-180 52l23 77q143 -4 222 81t79 231z" />
    <glyph glyph-name="agrave" unicode="&#xe0;" horiz-adv-x="1193" 
d="M819 1038l-284 334h253l103 -334h-72zM326 291q0 -76 40 -121t116 -45t161 84q84 85 142 237q59 152 59 233t-37 123t-102 42q-141 0 -260 -188t-119 -365zM969 111q68 0 139 118h74q-123 -254 -312 -254q-158 0 -157 211h-4q-150 -211 -340 -211q-123 0 -197 76t-74 210
t80 288t217 260t301 106t287 -116l47 92h115l-197 -645q-41 -135 21 -135z" />
    <glyph glyph-name="aacute" unicode="&#xe1;" horiz-adv-x="1193" 
d="M776 1038h-71l102 334h254zM326 291q0 -76 40 -121t116 -45t161 84q84 85 142 237q59 152 59 233t-37 123t-102 42q-141 0 -260 -188t-119 -365zM969 111q68 0 139 118h74q-123 -254 -312 -254q-158 0 -157 211h-4q-150 -211 -340 -211q-123 0 -197 76t-74 210t80 288
t217 260t301 106t287 -116l47 92h115l-197 -645q-41 -135 21 -135z" />
    <glyph glyph-name="acircumflex" unicode="&#xe2;" horiz-adv-x="1193" 
d="M827 1257l-311 -204h-55l280 344h232l57 -344h-57zM326 291q0 -76 40 -121t116 -45t161 84q84 85 142 237q59 152 59 233t-37 123t-102 42q-141 0 -260 -188t-119 -365zM969 111q68 0 139 118h74q-123 -254 -312 -254q-158 0 -157 211h-4q-150 -211 -340 -211
q-123 0 -197 76t-74 210t80 288t217 260t301 106t287 -116l47 92h115l-197 -645q-41 -135 21 -135z" />
    <glyph glyph-name="atilde" unicode="&#xe3;" horiz-adv-x="1193" 
d="M965 1073q-57 0 -173 52t-161 53q-92 0 -117 -107h-55q6 113 69 189q62 76 140 76t182 -56q104 -55 149 -55q82 -1 119 112h53q-2 -109 -62 -187t-144 -77zM326 291q0 -76 40 -121t116 -45t161 84q84 85 142 237q59 152 59 233t-37 123t-102 42q-141 0 -260 -188
t-119 -365zM969 111q68 0 139 118h74q-123 -254 -312 -254q-158 0 -157 211h-4q-150 -211 -340 -211q-123 0 -197 76t-74 210t80 288t217 260t301 106t287 -116l47 92h115l-197 -645q-41 -135 21 -135z" />
    <glyph glyph-name="adieresis" unicode="&#xe4;" horiz-adv-x="1193" 
d="M645 1313q45 0 77 -32t32 -77t-32 -77q-32 -31 -77 -31t-77 32t-31 76q0 45 31 77q32 32 77 32zM989 1313q45 0 77 -32t32 -77t-32 -77q-32 -31 -77 -31t-77 32t-31 76q0 45 31 77q32 32 77 32zM326 291q0 -76 40 -121t116 -45t161 84q84 85 142 237q59 152 59 233
t-37 123t-102 42q-141 0 -260 -188t-119 -365zM969 111q68 0 139 118h74q-123 -254 -312 -254q-158 0 -157 211h-4q-150 -211 -340 -211q-123 0 -197 76t-74 210t80 288t217 260t301 106t287 -116l47 92h115l-197 -645q-41 -135 21 -135z" />
    <glyph glyph-name="aring" unicode="&#xe5;" horiz-adv-x="1193" 
d="M819 1305q-43 0 -73 -30t-30 -73t30 -74q30 -30 73 -30t74 30t31 74q0 43 -31 73t-74 30zM821 1376q72 0 123 -51t51 -123t-51 -124t-123 -52t-124 52t-52 124t52 123t124 51zM326 291q0 -76 40 -121t116 -45t161 84q84 85 142 237q59 152 59 233t-37 123t-102 42
q-141 0 -260 -188t-119 -365zM969 111q68 0 139 118h74q-123 -254 -312 -254q-158 0 -157 211h-4q-150 -211 -340 -211q-123 0 -197 76t-74 210t80 288t217 260t301 106t287 -116l47 92h115l-197 -645q-41 -135 21 -135z" />
    <glyph glyph-name="ae" unicode="&#xe6;" horiz-adv-x="1556" 
d="M1397 727q0 43 -31 73t-76 29q-106 0 -213 -123q-106 -124 -147 -290q117 6 221 41t158 88q88 88 88 182zM299 287q0 -82 38 -129t103 -47q129 0 256 137q0 213 176 389q131 131 230 180l-4 4q-188 -6 -374 -57t-278 -141q-147 -147 -147 -336zM1024 -25q-147 1 -220 49
t-102 150q-143 -196 -374 -198q-115 0 -186 75q-71 76 -70 205q0 207 166 373q231 231 792 254q123 4 200 18t124 14q195 0 194 -157q0 -119 -96 -215q-176 -176 -528 -205q-12 -104 42 -171t158 -67q146 0 265 125h88q-63 -98 -185 -174t-268 -76z" />
    <glyph glyph-name="ccedilla" unicode="&#xe7;" horiz-adv-x="980" 
d="M670 838q-135 0 -245 -161t-110 -345q1 -102 59 -158t165 -57q150 0 280 129h103q-209 -270 -502 -271l-33 -55q98 -31 98 -108q0 -154 -249 -154q-51 0 -105 6l16 51h37q152 0 152 68q0 50 -84 70l106 127q-126 18 -202 102t-76 209q0 233 180 429t430 195
q131 0 213 -50t82 -132q0 -47 -32 -80t-79 -32q-91 0 -94 108q0 41 -25 75q-26 34 -85 34z" />
    <glyph glyph-name="egrave" unicode="&#xe8;" horiz-adv-x="980" 
d="M713 1038l-285 334h254l102 -334h-71zM801 719q0 53 -36 86t-95 33q-139 0 -240 -139t-117 -289q213 8 351 97q137 89 137 212zM537 117q147 0 288 131h101q-100 -125 -234 -199t-278 -74q-144 -1 -240 89t-96 229q0 227 194 425q195 198 430 197q123 0 194 -56t71 -154
q0 -99 -71 -175q-70 -76 -180 -114q-217 -74 -403 -78q-10 -98 56 -160t168 -61z" />
    <glyph glyph-name="eacute" unicode="&#xe9;" horiz-adv-x="980" 
d="M670 1038h-72l102 334h254zM801 719q0 53 -36 86t-95 33q-139 0 -240 -139t-117 -289q213 8 351 97q137 89 137 212zM537 117q147 0 288 131h101q-100 -125 -234 -199t-278 -74q-144 -1 -240 89t-96 229q0 227 194 425q195 198 430 197q123 0 194 -56t71 -154
q0 -99 -71 -175q-70 -76 -180 -114q-217 -74 -403 -78q-10 -98 56 -160t168 -61z" />
    <glyph glyph-name="ecircumflex" unicode="&#xea;" horiz-adv-x="980" 
d="M721 1257l-311 -204h-56l281 344h231l58 -344h-58zM801 719q0 53 -36 86t-95 33q-139 0 -240 -139t-117 -289q213 8 351 97q137 89 137 212zM537 117q147 0 288 131h101q-100 -125 -234 -199t-278 -74q-144 -1 -240 89t-96 229q0 227 194 425q195 198 430 197
q123 0 194 -56t71 -154q0 -99 -71 -175q-70 -76 -180 -114q-217 -74 -403 -78q-10 -98 56 -160t168 -61z" />
    <glyph glyph-name="edieresis" unicode="&#xeb;" horiz-adv-x="980" 
d="M539 1313q45 0 77 -32t31 -77q0 -45 -32 -77q-33 -31 -77 -31t-76 32t-32 76q0 45 32 77t77 32zM883 1313q45 0 77 -32t31 -77q0 -45 -32 -77q-33 -31 -77 -31t-76 32t-32 76q0 45 32 77t77 32zM801 719q0 53 -36 86t-95 33q-139 0 -240 -139t-117 -289q213 8 351 97
q137 89 137 212zM537 117q147 0 288 131h101q-100 -125 -234 -199t-278 -74q-144 -1 -240 89t-96 229q0 227 194 425q195 198 430 197q123 0 194 -56t71 -154q0 -99 -71 -175q-70 -76 -180 -114q-217 -74 -403 -78q-10 -98 56 -160t168 -61z" />
    <glyph glyph-name="igrave" unicode="&#xec;" horiz-adv-x="661" 
d="M553 1038l-285 334h254l103 -334h-72zM426 915q68 -1 109 -31t41 -80t-31 -126l-172 -438q-23 -58 -23 -82t11 -38t26 -14q74 0 191 170h73q-84 -139 -190 -220t-205 -81q-66 0 -104 34t-39 86q0 52 30 128l181 455q16 39 16 59q0 21 -11 33t-26 12q-74 0 -174 -170h-70
q158 303 367 303z" />
    <glyph glyph-name="iacute" unicode="&#xed;" horiz-adv-x="661" 
d="M510 1038h-72l103 334h254zM426 915q68 -1 109 -31t41 -80t-31 -126l-172 -438q-23 -58 -23 -82t11 -38t26 -14q74 0 191 170h73q-84 -139 -190 -220t-205 -81q-66 0 -104 34t-39 86q0 52 30 128l181 455q16 39 16 59q0 21 -11 33t-26 12q-74 0 -174 -170h-70
q158 303 367 303z" />
    <glyph glyph-name="icircumflex" unicode="&#xee;" horiz-adv-x="661" 
d="M561 1257l-311 -204h-55l280 344h232l57 -344h-57zM426 915q68 -1 109 -31t41 -80t-31 -126l-172 -438q-23 -58 -23 -82t11 -38t26 -14q74 0 191 170h73q-84 -139 -190 -220t-205 -81q-66 0 -104 34t-39 86q0 52 30 128l181 455q16 39 16 59q0 21 -11 33t-26 12
q-74 0 -174 -170h-70q158 303 367 303z" />
    <glyph glyph-name="idieresis" unicode="&#xef;" horiz-adv-x="661" 
d="M379 1313q45 0 77 -32t32 -77t-32 -77q-32 -31 -77 -31t-77 32t-32 76q0 45 32 77t77 32zM723 1313q45 0 77 -32t32 -77t-32 -77q-32 -31 -77 -31t-77 32t-32 76q0 45 32 77t77 32zM426 915q68 -1 109 -31t41 -80t-31 -126l-172 -438q-23 -58 -23 -82t11 -38t26 -14
q74 0 191 170h73q-84 -139 -190 -220t-205 -81q-66 0 -104 34t-39 86q0 52 30 128l181 455q16 39 16 59q0 21 -11 33t-26 12q-74 0 -174 -170h-70q158 303 367 303z" />
    <glyph glyph-name="eth" unicode="&#xf0;" horiz-adv-x="1024" 
d="M250 184q0 -76 42 -118t99 -41q94 -1 182 121q89 122 135 270t46 240q0 194 -138 194q-78 0 -164 -98t-144 -258t-58 -310zM956 674q0 -299 -186 -499t-420 -200q-125 0 -211 85t-86 216q-1 246 187 436t376 191q92 0 140 -76l4 4q-19 171 -80 312l-197 -107l-41 74
l203 109q-35 68 -100 151l61 37q72 -66 133 -139l219 121l41 -72l-211 -113q168 -285 168 -530z" />
    <glyph glyph-name="ntilde" unicode="&#xf1;" horiz-adv-x="1280" 
d="M1008 1073q-57 0 -173 52t-161 53q-92 0 -117 -107h-55q6 113 69 189t141 76t181 -56q104 -55 149 -55q82 -1 119 112h53q-2 -109 -62 -187t-144 -77zM520 771q0 -75 -100 -382l4 -4q137 244 291 387t301 143q80 0 130 -45t50 -111t-31 -151l-147 -391q-16 -45 -8 -75
t30 -29q61 0 150 129h72q-54 -113 -156 -190t-201 -77q-63 0 -100 31t-37 77t14 87l148 412q41 112 41 144q-1 32 -19 48t-45 17q-92 0 -235 -166q-88 -99 -178 -241t-132 -243l-55 -141h-217l217 702q16 51 14 70q-3 18 -30 18t-75 -46t-87 -111h-72q66 129 157 206t179 76
q127 0 127 -144z" />
    <glyph glyph-name="ograve" unicode="&#xf2;" horiz-adv-x="1153" 
d="M799 1038l-285 334h254l102 -334h-71zM322 288q0 -102 55 -168t153 -67q98 1 180 103t117 224t35 228t-51 167q-51 63 -148 63t-181 -104t-122 -223q-38 -121 -38 -223zM94 358q0 226 170 392t402 165q192 0 308 -106t116 -283q0 -223 -168 -387t-396 -164
q-188 1 -310 109t-122 274z" />
    <glyph glyph-name="oacute" unicode="&#xf3;" horiz-adv-x="1153" 
d="M756 1038h-72l102 334h254zM322 288q0 -102 55 -168t153 -67q98 1 180 103t117 224t35 228t-51 167q-51 63 -148 63t-181 -104t-122 -223q-38 -121 -38 -223zM94 358q0 226 170 392t402 165q192 0 308 -106t116 -283q0 -223 -168 -387t-396 -164q-188 1 -310 109
t-122 274z" />
    <glyph glyph-name="ocircumflex" unicode="&#xf4;" horiz-adv-x="1153" 
d="M807 1257l-311 -204h-56l281 344h231l58 -344h-58zM322 288q0 -102 55 -168t153 -67q98 1 180 103t117 224t35 228t-51 167q-51 63 -148 63t-181 -104t-122 -223q-38 -121 -38 -223zM94 358q0 226 170 392t402 165q192 0 308 -106t116 -283q0 -223 -168 -387t-396 -164
q-188 1 -310 109t-122 274z" />
    <glyph glyph-name="otilde" unicode="&#xf5;" horiz-adv-x="1153" 
d="M944 1073q-57 0 -173 52t-161 53q-92 0 -116 -107h-56q6 113 70 189t140 76q77 0 181 -56q104 -55 150 -55q82 -1 119 112h53q-2 -109 -62 -187t-145 -77zM322 288q0 -102 55 -168t153 -67q98 1 180 103t117 224t35 228t-51 167q-51 63 -148 63t-181 -104t-122 -223
q-38 -121 -38 -223zM94 358q0 226 170 392t402 165q192 0 308 -106t116 -283q0 -223 -168 -387t-396 -164q-188 1 -310 109t-122 274z" />
    <glyph glyph-name="odieresis" unicode="&#xf6;" horiz-adv-x="1153" 
d="M625 1313q45 0 77 -32t31 -77q0 -45 -32 -77q-33 -31 -77 -31t-76 32t-32 76q0 45 32 77t77 32zM969 1313q45 0 77 -32t32 -77t-32 -77q-32 -31 -77 -31t-77 32t-32 76q0 45 32 77t77 32zM322 288q0 -102 55 -168t153 -67q98 1 180 103t117 224t35 228t-51 167
q-51 63 -148 63t-181 -104t-122 -223q-38 -121 -38 -223zM94 358q0 226 170 392t402 165q192 0 308 -106t116 -283q0 -223 -168 -387t-396 -164q-188 1 -310 109t-122 274z" />
    <glyph glyph-name="divide" unicode="&#xf7;" horiz-adv-x="1368" 
d="M203 647h1104v-184h-1104v184zM756 1081q47 -1 80 -33q32 -32 32 -79t-32 -81t-80 -34q-47 0 -81 34t-34 81t34 79t81 33zM756 256q47 0 80 -33q32 -33 32 -80t-32 -81t-80 -34q-47 0 -81 34t-34 81t34 80t81 33z" />
    <glyph glyph-name="oslash" unicode="&#xf8;" horiz-adv-x="1153" 
d="M665 838q-99 0 -183 -104t-123 -223q-37 -121 -37 -189t10 -113l481 561q-49 68 -148 68zM94 358q0 226 170 392t402 165q127 0 229 -51l84 99l57 -52l-75 -88q129 -115 129 -297q0 -223 -168 -387t-396 -164q-139 0 -239 60l-82 -94l-53 59l67 78q-125 112 -125 280z
M513 53q91 1 159 61q113 101 169 328q39 158 11 254l-481 -563q51 -80 142 -80z" />
    <glyph glyph-name="ugrave" unicode="&#xf9;" horiz-adv-x="1259" 
d="M852 1038l-285 334h254l103 -334h-72zM969 136q0 -16 10 -25q9 -11 31 -11t71 41t97 115h71q-78 -147 -179 -214t-200 -67q-121 0 -120 107q0 57 30 154l58 180l-4 4q-173 -279 -321 -372q-197 -124 -315 -34q-52 39 -53 119q0 37 33 156l113 356q20 61 20 81t-14 34
t-37 14q-63 0 -143 -129h-76q150 270 346 270q70 1 111 -37t41 -82t-35 -151l-135 -432q-39 -118 39 -121q129 0 333 291q121 172 246 508h213l-213 -680q-18 -59 -18 -75z" />
    <glyph glyph-name="uacute" unicode="&#xfa;" horiz-adv-x="1259" 
d="M809 1038h-72l103 334h254zM969 136q0 -16 10 -25q9 -11 31 -11t71 41t97 115h71q-78 -147 -179 -214t-200 -67q-121 0 -120 107q0 57 30 154l58 180l-4 4q-173 -279 -321 -372q-197 -124 -315 -34q-52 39 -53 119q0 37 33 156l113 356q20 61 20 81t-14 34t-37 14
q-63 0 -143 -129h-76q150 270 346 270q70 1 111 -37t41 -82t-35 -151l-135 -432q-39 -118 39 -121q129 0 333 291q121 172 246 508h213l-213 -680q-18 -59 -18 -75z" />
    <glyph glyph-name="ucircumflex" unicode="&#xfb;" horiz-adv-x="1259" 
d="M860 1257l-311 -204h-55l280 344h232l57 -344h-57zM969 136q0 -16 10 -25q9 -11 31 -11t71 41t97 115h71q-78 -147 -179 -214t-200 -67q-121 0 -120 107q0 57 30 154l58 180l-4 4q-173 -279 -321 -372q-197 -124 -315 -34q-52 39 -53 119q0 37 33 156l113 356
q20 61 20 81t-14 34t-37 14q-63 0 -143 -129h-76q150 270 346 270q70 1 111 -37t41 -82t-35 -151l-135 -432q-39 -118 39 -121q129 0 333 291q121 172 246 508h213l-213 -680q-18 -59 -18 -75z" />
    <glyph glyph-name="udieresis" unicode="&#xfc;" horiz-adv-x="1259" 
d="M678 1313q45 0 77 -32q31 -32 31 -77t-32 -77q-32 -31 -76 -31q-45 0 -77 32t-32 76q0 45 32 77t77 32zM1022 1313q45 0 77 -32q31 -32 31 -77t-32 -77q-32 -31 -76 -31q-45 0 -77 32t-32 76q0 45 32 77t77 32zM969 136q0 -16 10 -25q9 -11 31 -11t71 41t97 115h71
q-78 -147 -179 -214t-200 -67q-121 0 -120 107q0 57 30 154l58 180l-4 4q-173 -279 -321 -372q-197 -124 -315 -34q-52 39 -53 119q0 37 33 156l113 356q20 61 20 81t-14 34t-37 14q-63 0 -143 -129h-76q150 270 346 270q70 1 111 -37t41 -82t-35 -151l-135 -432
q-39 -118 39 -121q129 0 333 291q121 172 246 508h213l-213 -680q-18 -59 -18 -75z" />
    <glyph glyph-name="yacute" unicode="&#xfd;" horiz-adv-x="1110" 
d="M735 1038h-71l102 334h254zM201 748q-33 0 -56 -28t-43 -95h-65q90 291 270 290q66 0 105 -43t61 -143l150 -637q137 170 185 262t48 150t-19 141q-19 84 -19 140q0 55 30 93q31 38 83 38t87 -47q35 -46 35 -119q0 -225 -275 -574l-129 -164q-309 -395 -612 -395
q-86 0 -143 33q-58 33 -58 74q0 42 27 68t59 26t102 -35q68 -35 136 -35t136 36t165 126l-166 684q-37 154 -94 154z" />
    <glyph glyph-name="thorn" unicode="&#xfe;" horiz-adv-x="1236" 
d="M940 556q0 112 -73 184t-197 71q-50 0 -105 -16l-200 -742q168 0 265 31t161 94q149 149 149 378zM739 915q201 0 319 -99t118 -271q0 -233 -202 -401t-536 -169h-96l-29 -94q-16 -53 -16 -92q0 -90 195 -84l-23 -74h-616l22 74q119 0 160 36t69 140l228 850
q-117 -51 -213 -164h-96q170 205 339 267l87 333q16 72 16 74q0 39 -78 39h-119l23 74q223 8 409 73h27l-141 -526q63 14 153 14z" />
    <glyph glyph-name="ydieresis" unicode="&#xff;" horiz-adv-x="1110" 
d="M604 1313q45 0 77 -32t32 -77t-32 -77q-32 -31 -77 -31t-77 32t-31 76q0 45 31 77q32 32 77 32zM948 1313q45 0 77 -32t32 -77t-32 -77q-32 -31 -77 -31t-77 32t-31 76q0 45 31 77q32 32 77 32zM201 748q-33 0 -56 -28t-43 -95h-65q90 291 270 290q66 0 105 -43t61 -143
l150 -637q137 170 185 262t48 150t-19 141q-19 84 -19 140q0 55 30 93q31 38 83 38t87 -47q35 -46 35 -119q0 -225 -275 -574l-129 -164q-309 -395 -612 -395q-86 0 -143 33q-58 33 -58 74q0 42 27 68t59 26t102 -35q68 -35 136 -35t136 36t165 126l-166 684
q-37 154 -94 154z" />
    <glyph glyph-name="dotlessi" unicode="&#x131;" horiz-adv-x="661" 
d="M426 915q68 -1 109 -31t41 -80t-31 -126l-172 -438q-23 -58 -23 -82t11 -38t26 -14q74 0 191 170h73q-84 -139 -190 -220t-205 -81q-66 0 -104 34t-39 86q0 52 30 128l181 455q16 39 16 59q0 21 -11 33t-26 12q-74 0 -174 -170h-70q158 303 367 303z" />
    <glyph glyph-name="Lslash" unicode="&#x141;" horiz-adv-x="1236" 
d="M477 203q0 -129 189 -129h94q127 0 220 59t196 201h106l-158 -334h-1091l18 74q88 18 121 60t68 171l63 234l-225 -156l41 158l227 157l100 373q23 86 23 134t-33 82t-84 36l19 74h594l-19 -74q-111 4 -160 -48t-84 -183l-53 -205l297 207l-41 -156l-299 -207l-106 -397
q-23 -90 -23 -131z" />
    <glyph glyph-name="lslash" unicode="&#x142;" horiz-adv-x="788" 
d="M377 164q0 -39 33 -39q72 0 165 145h74q-63 -125 -178 -210t-215 -85q-55 0 -88 29t-33 70t31 153l115 369l-5 4l-268 -190l39 159l281 185l123 401q20 65 20 87t-18 30t-70 8h-104l22 74q227 6 410 73h41l-156 -503l4 -4l264 184l-41 -158l-274 -180l-158 -518
q-14 -45 -14 -84z" />
    <glyph glyph-name="OE" unicode="&#x152;" horiz-adv-x="2111" 
d="M958 1319q-136 0 -260 -123q-124 -122 -192 -352t-68 -402t75 -268t203 -96t234 106q135 134 212 362t77 410t-72 272q-73 91 -209 91zM1487 772h119q111 0 174 46t106 143h103l-127 -482h-105q16 107 -39 163t-155 56h-84q-88 -399 -514 -620v-4h571q166 0 255 56
t146 198h109l-125 -328h-1159q-156 0 -274 55t-180 143q-122 172 -122 368t132 416q69 114 163 206q93 92 231 150t296 59h1192l-60 -314h-94q12 115 -48 177t-196 63h-563v-4q248 -203 248 -490v-57z" />
    <glyph glyph-name="oe" unicode="&#x153;" horiz-adv-x="1642" 
d="M1505 741q0 45 -31 71q-32 26 -88 26q-118 0 -208 -114t-131 -318q199 28 329 122t129 213zM653 838q-157 0 -239 -155t-82 -353q0 -127 53 -202t147 -75q94 1 158 55q103 87 149 312q17 88 17 184t-50 164q-50 70 -153 70zM516 -25q-184 0 -301 112t-117 282
q0 223 166 385t386 162t366 -177q213 176 426 176q98 0 154 -42t57 -113q0 -152 -171 -268t-442 -150q0 -116 56 -182t149 -66q131 0 242 123h86q-67 -117 -175 -179t-241 -63q-184 0 -278 150q-179 -150 -363 -150z" />
    <glyph glyph-name="Scaron" unicode="&#x160;" horiz-adv-x="1216" 
d="M948 1661l312 205h55l-281 -344h-231l-58 344h58zM821 1350q-94 0 -153 -54q-60 -54 -60 -148q0 -93 109 -212l162 -180q102 -115 149 -208t47 -190q0 -182 -129 -285t-368 -104q-299 0 -523 181l72 268h115q-14 -172 83 -272t257 -99q114 0 186 67q72 68 72 182
t-111 241l-201 229q-156 174 -155 289q0 153 126 263t346 110t445 -142l-65 -246h-113q31 146 -62 228t-229 82z" />
    <glyph glyph-name="scaron" unicode="&#x161;" horiz-adv-x="980" 
d="M694 1192l312 205h55l-281 -344h-231l-57 344h57zM954 702q0 -40 -28 -66t-77 -26q-48 0 -78 36t-41 78t-52 78q-40 36 -106 36t-104 -31t-38 -77q0 -81 148 -179q61 -41 121 -86q59 -45 103 -105t44 -127q0 -123 -104 -191t-292 -67q-187 -1 -298 61t-111 167
q0 45 26 73q27 28 69 27q42 1 67 -25t38 -63t32 -74t67 -63t122 -25q75 0 119 35t44 86q0 85 -141 185q-58 42 -115 85q-57 42 -99 100t-41 118q1 110 105 182t261 72t258 -62q101 -61 101 -152z" />
    <glyph glyph-name="Ydieresis" unicode="&#x178;" 
d="M866 1782q45 0 77 -32t32 -77t-32 -77t-77 -32q-44 0 -76 32t-32 77t32 77t76 32zM1210 1782q45 0 77 -32t32 -77t-32 -77t-77 -32q-44 0 -76 32t-32 77t32 77t76 32zM780 201q0 -129 185 -127l-21 -74h-649l20 74q102 -2 147 52q44 54 79 179l65 246l-207 606
q-33 94 -64 127q-32 33 -99 39l20 74h565l-20 -74q-164 0 -164 -119q0 -39 16 -84l168 -495l381 471q57 70 58 131q0 96 -144 96l21 74h432l-21 -74q-47 -4 -99 -53t-165 -191l-422 -528l-59 -223q-23 -84 -23 -127z" />
    <glyph glyph-name="Zcaron" unicode="&#x17d;" horiz-adv-x="1323" 
d="M1001 1661l312 205h55l-281 -344h-231l-57 344h57zM670 74q188 0 282 53t191 215h108l-133 -342h-1048l4 74l1005 1249h-223q-228 0 -311 -87q-43 -44 -90 -132h-105l105 293h970l-12 -45l-1034 -1278h291z" />
    <glyph glyph-name="zcaron" unicode="&#x17e;" horiz-adv-x="980" 
d="M694 1192l312 205h55l-281 -344h-231l-57 344h57zM80 -25h-29q-27 0 -26 27q0 123 125 248q74 74 316 218t331 226l-4 4q-75 -18 -133 -18t-173 30q-223 58 -225 -3q0 -19 27 -47t27 -47t-16 -31q-15 -12 -44 -12q-28 0 -50 23q-22 24 -22 62q0 97 90 179t195 81
q75 0 189 -44t149 -44q58 0 66 43t47 43h20q33 0 33 -51t-23 -95t-80 -101q-96 -96 -354 -253t-301 -202l4 -4q27 6 63 6t170 -31q136 -30 186 -30t77 15t27 33t-24 44q-24 28 -24 48t16 34t47 14q30 0 49 -22t19 -56q0 -111 -93 -199t-212 -88q-86 0 -203 41t-155 41
t-45 -41q0 -28 -23 -39q-6 -2 -14 -2z" />
    <glyph glyph-name="florin" unicode="&#x192;" horiz-adv-x="1087" 
d="M965 1425q82 0 135 -44t53 -97t-27 -79q-28 -25 -64 -25t-52 16t-22 59q-10 86 -85 86t-100 -167l-49 -283h166l-9 -74h-172l-86 -455q-65 -346 -201 -546t-339 -199q-82 0 -133 38q-52 38 -52 87t30 77q30 27 69 27t59 -22t24 -48t23 -48q18 -22 53 -23q61 0 104 65
q42 65 72 214l170 833h-161l14 74h162l14 74q37 193 141 327t263 133z" />
    <glyph glyph-name="circumflex" unicode="&#x2c6;" horiz-adv-x="681" 
d="M571 1257l-311 -204h-55l280 344h232l57 -344h-57z" />
    <glyph glyph-name="caron" unicode="&#x2c7;" horiz-adv-x="681" 
d="M545 1192l311 205h55l-280 -344h-232l-57 344h57z" />
    <glyph glyph-name="uni02C9" unicode="&#x2c9;" horiz-adv-x="681" 
d="M836 1133h-582l31 145h579z" />
    <glyph glyph-name="breve" unicode="&#x2d8;" horiz-adv-x="681" 
d="M537 1206q150 0 241 178h66q-43 -164 -135 -260q-91 -96 -201 -96t-172 70q-61 70 -61 156t8 130h67q-2 -80 53 -129t134 -49z" />
    <glyph glyph-name="dotaccent" unicode="&#x2d9;" horiz-adv-x="681" 
d="M561 1313q45 0 77 -32t32 -77t-32 -77q-32 -31 -77 -31t-77 32t-31 76q0 45 31 77q32 32 77 32z" />
    <glyph glyph-name="ring" unicode="&#x2da;" horiz-adv-x="681" 
d="M563 1305q-43 0 -73 -30t-30 -73t30 -74q30 -30 73 -30t74 30t31 74q0 43 -31 73t-74 30zM565 1376q72 0 123 -51t51 -123t-51 -124t-123 -52t-124 52t-52 124t52 123t124 51z" />
    <glyph glyph-name="ogonek" unicode="&#x2db;" horiz-adv-x="681" 
d="M266 -162q0 -118 133 -117q47 0 111 19l-10 -74q-66 -26 -140 -26t-131 50t-57 129t102 181h84q-92 -102 -92 -162z" />
    <glyph glyph-name="tilde" unicode="&#x2dc;" horiz-adv-x="681" 
d="M709 1073q-57 0 -173 52t-161 53q-92 0 -117 -107h-55q6 113 69 189q62 76 140 76t182 -56q104 -55 149 -55q82 -1 119 112h53q-2 -109 -62 -187t-144 -77z" />
    <glyph glyph-name="hungarumlaut" unicode="&#x2dd;" horiz-adv-x="681" 
d="M678 1364l-285 -334h-71l102 334h254zM1010 1364l-285 -334h-72l103 334h254z" />
    <glyph glyph-name="uni03A9" unicode="&#x3a9;" horiz-adv-x="1533" 
d="M1015 1298q-179 0 -330 -139t-230 -438q-44 -160 -22 -295q9 -55 13 -83t26 -102t46 -135q23 -61 25 -67l-25 -39h-491l26 281l49 4q8 -96 32 -125t89 -29h221q-122 122 -168 238q-45 116 -42 203q3 88 24 163q76 281 297 453t488 172t391 -163t51 -443
q-54 -197 -218 -363q-118 -119 -302 -260h231q68 0 102 27t95 127l51 -4l-127 -281h-494l-4 39q2 4 86 96t117 134q151 192 194 285q44 93 66 177q78 293 -5 430t-262 137z" />
    <glyph glyph-name="uni03BC" unicode="&#x3bc;" horiz-adv-x="1179" 
d="M295 -25q-102 0 -156 60q-35 -106 -45 -239q-10 -134 -42 -186t-84 -52t-78 24t-26 62t39 108q160 296 230 516l203 623h217l-221 -678q-16 -47 -17 -70q0 -51 54 -51q75 0 191 117t205 275t169 378l10 29h217l-219 -719q-23 -72 25 -72q31 0 79 40t93 116h73
q-61 -125 -166 -203t-210 -78q-57 0 -91 31q-33 30 -33 80t31 150l58 180l-4 4q-129 -213 -265 -329t-237 -116z" />
    <glyph glyph-name="pi" unicode="&#x3c0;" horiz-adv-x="1167" 
d="M905 88q51 0 119 62l16 -41q-111 -131 -247 -132q-86 1 -115 51t2 197q41 145 158 508q-123 4 -332 4l-10 -37q-53 -201 -148 -412t-170 -278q-86 -31 -129 -33l-2 33q133 119 235 330q101 211 152 401q-94 1 -152 -21t-139 -73l-18 43q109 98 168 129q100 53 225 53
l219 -4q219 -4 302 -4t113 14t65 56l43 -19q-51 -113 -121 -178q-47 -8 -144 -8q-39 -109 -133 -463q-47 -178 43 -178z" />
    <glyph glyph-name="endash" unicode="&#x2013;" horiz-adv-x="1024" 
d="M-12 604h1048v-184h-1048v184z" />
    <glyph glyph-name="emdash" unicode="&#x2014;" horiz-adv-x="2048" 
d="M-12 604h2072v-184h-2072v184z" />
    <glyph glyph-name="quoteleft" unicode="&#x2018;" horiz-adv-x="598" 
d="M452 889q-60 0 -106 55q-45 55 -45 139q0 131 103 228q104 96 280 116l-22 -73q-94 -14 -156 -58t-62 -102q0 -32 20 -54t47 -33q26 -11 46 -38q21 -27 21 -71t-33 -76q-33 -33 -93 -33z" />
    <glyph glyph-name="quoteright" unicode="&#x2019;" horiz-adv-x="598" 
d="M518 1122q0 31 -20 54q-20 24 -46 34t-46 37t-20 72t32 77q34 32 94 32t104 -56q44 -55 46 -139q0 -131 -104 -227t-279 -117l22 74q94 14 156 57q61 43 61 102z" />
    <glyph glyph-name="quotesinglbase" unicode="&#x201a;" horiz-adv-x="598" 
d="M299 -72q0 31 -20 54q-21 24 -47 34t-46 37t-20 71t32 77t94 33t106 -56q44 -55 44 -139q0 -131 -104 -227t-279 -117l23 74q94 14 156 57q61 43 61 102z" />
    <glyph glyph-name="quotedblleft" unicode="&#x201c;" horiz-adv-x="1024" 
d="M616 998q0 -44 -32 -76q-32 -33 -92 -33q-62 0 -107 55t-45 139q0 131 103 228q104 96 280 116l-23 -73q-94 -14 -155 -58t-62 -102q1 -32 21 -54t46 -33t46 -38t20 -71zM922 889q-60 0 -105 55t-45 139q0 131 104 227t279 117l-22 -73q-93 -14 -155 -58t-63 -102
q1 -32 21 -54t46 -33t46 -38t20 -71t-32 -76q-34 -33 -94 -33z" />
    <glyph glyph-name="quotedblright" unicode="&#x201d;" horiz-adv-x="1024" 
d="M514 1122q0 31 -20 54q-20 24 -46 34t-47 37q-20 27 -20 72t33 77q34 32 94 32t104 -56q44 -55 45 -139q1 -131 -103 -227t-280 -117l23 74q94 14 156 57q61 43 61 102zM946 1122q0 31 -20 54q-20 24 -46 34t-46 37t-20 72t31 77t93 32t106 -56q44 -55 46 -139
q0 -131 -104 -227t-279 -117l22 74q94 14 156 57q61 43 61 102z" />
    <glyph glyph-name="quotedblbase" unicode="&#x201e;" horiz-adv-x="1024" 
d="M354 -74q0 31 -20 54q-20 24 -46 34t-46 37t-20 72t32 77q34 32 94 32t105 -56q45 -55 45 -139q0 -131 -104 -227t-279 -117l22 74q94 14 156 57q61 43 61 102zM817 -72q0 31 -20 54q-20 24 -46 34t-46 37q-21 27 -21 71t33 77t93 33t106 -56q44 -55 45 -139
q1 -131 -103 -227t-280 -117l22 74q94 14 156 57q61 43 61 102z" />
    <glyph glyph-name="dagger" unicode="&#x2020;" horiz-adv-x="980" 
d="M893 1356q0 -72 -248 -496l4 -4q231 104 332 105q55 1 55 -61t-23 -121q-24 -58 -69 -58q-98 0 -311 92q-53 -385 -133 -745t-140 -420q-31 -31 -98 -31q-123 0 -123 77t177 507t274 610l-4 4q-172 -94 -307 -94q-63 -1 -63 69t27 120q29 50 69 50t129 -31
q89 -32 159 -73q18 292 36 400t51 140q32 32 95 31q111 1 111 -71z" />
    <glyph glyph-name="daggerdbl" unicode="&#x2021;" horiz-adv-x="980" 
d="M891 1356q0 -43 -49 -131l-185 -318l5 -4q231 104 335 105q53 0 53 -64t-23 -120q-24 -54 -66 -54q-96 0 -314 90l-22 -336l-187 -338l4 -4q195 92 306 92q63 0 63 -63t-25 -119q-26 -56 -68 -57q-42 0 -132 32t-160 72l-27 -342q-8 -100 -38 -140t-103 -40
q-111 0 -111 72q0 43 58 143l176 303l-4 4q-240 -104 -332 -104q-55 -1 -55 67t26 120q27 52 66 52q100 0 313 -92l19 330l188 346l-4 4q-195 -92 -305 -92q-66 0 -66 64t27 119q28 57 70 57t132 -33t158 -74q20 273 30 363t40 126q31 36 98 35q109 0 109 -71z" />
    <glyph glyph-name="bullet" unicode="&#x2022;" horiz-adv-x="716" 
d="M440 940q109 0 187 -78t78 -186t-78 -187q-78 -77 -187 -77q-108 0 -186 78t-78 186t78 186t186 78z" />
    <glyph glyph-name="ellipsis" unicode="&#x2026;" horiz-adv-x="2048" 
d="M1708 276q62 0 106 -43t44 -106t-43 -107t-107 -45q-64 0 -107 44q-45 43 -45 107t44 107t108 43zM1024 276q63 0 106 -43q44 -43 44 -106t-44 -107t-106 -45q-63 0 -108 44q-44 43 -44 107t44 107q45 43 108 43zM340 276q63 0 106 -43t43 -106t-43 -107t-106 -45
q-63 0 -108 44q-44 43 -44 107t44 107q45 43 108 43z" />
    <glyph glyph-name="perthousand" unicode="&#x2030;" horiz-adv-x="2217" 
d="M137 -86l1323 1507h109l-1323 -1507h-109zM1104 192q0 -74 26 -111q26 -36 70 -36q43 0 88 45q45 46 98 194q54 148 54 224t-25 110q-25 35 -67 35q-42 1 -96 -55q-56 -56 -102 -194t-46 -212zM969 244q0 180 116 323q117 143 265 144q100 0 162 -75t63 -187
q0 -177 -116 -319t-261 -142q-102 0 -168 71q-61 72 -61 185zM1796 192q0 -74 27 -111q27 -36 69 -36t88 45q44 46 98 194t54 224t-25 110q-25 35 -67 35q-42 1 -96 -55q-56 -56 -102 -194t-46 -212zM1661 244q0 180 117 323t264 144q100 0 162 -72q63 -78 63 -190
q0 -177 -116 -319t-261 -142q-102 0 -168 71q-61 72 -61 185zM600 1163q0 146 -92 146q-42 1 -96 -55q-56 -56 -102 -194t-46 -214q0 -74 27 -110t69 -36t88 45q44 45 98 193t54 225zM129 899q0 179 117 323t264 144q100 0 162 -72q63 -78 63 -190q0 -176 -115 -319
q-116 -142 -262 -142q-102 0 -168 72q-61 71 -61 184z" />
    <glyph glyph-name="guilsinglleft" unicode="&#x2039;" horiz-adv-x="555" 
d="M307 520l94 -428h-135l-106 451l303 399h168z" />
    <glyph glyph-name="guilsinglright" unicode="&#x203a;" horiz-adv-x="555" 
d="M346 514l-96 428h137l105 -450l-302 -400h-167z" />
    <glyph glyph-name="fraction" unicode="&#x2044;" horiz-adv-x="256" 
d="M-532 -86l1323 1507h108l-1323 -1507h-108z" />
    <glyph glyph-name="Euro" unicode="&#x20ac;" horiz-adv-x="1173" 
d="M432 494v-11q0 -197 67 -309t179 -113q88 0 172 43t125 80l61 -67q-152 -141 -360 -141t-327 138q-120 138 -122 380h-149l33 120h122q6 59 19 115h-150l33 121h152q82 229 244 374q163 144 349 144t351 -135l-39 -264h-86q4 23 4 63q0 98 -59 172t-156 74
q-125 0 -235 -119t-171 -309h621l-33 -121h-620q-12 -55 -19 -115h623l-33 -120h-596z" />
    <glyph glyph-name="afii61289" unicode="&#x2113;" horiz-adv-x="839" 
d="M720 1374q-52 0 -102 -98t-112 -340l-68 -252q264 236 330 487q25 82 14 143q-10 60 -62 60zM362 -20q-137 0 -184 75q-47 86 6 287l41 154l-151 -93l-11 50l181 114l67 250q66 244 115 348t141 187q91 84 187 84t125 -79t-5 -181q-42 -160 -158 -298t-302 -282l-45 -172
q-47 -198 -23 -268t119 -70q127 0 268 150l29 -35q-182 -221 -400 -221z" />
    <glyph glyph-name="trademark" unicode="&#x2122;" horiz-adv-x="2048" 
d="M2017 1356v-37q-70 -2 -88 -26t-18 -109v-469q0 -82 18 -105t88 -26v-35h-420v35q76 2 97 24q20 23 20 107v495h-4l-307 -661h-31l-307 655h-4v-495q-1 -80 21 -104t104 -21v-35h-297v35q72 2 91 24t19 107v469q0 88 -19 112t-91 23v37h317l256 -543l252 543h303z
M514 1298v-583q0 -82 20 -106t84 -25v-35h-403v35q72 6 87 26t15 105v583h-61q-94 0 -136 -34t-57 -119h-32l12 211h745l15 -211h-35q-10 88 -53 121t-142 32h-59z" />
    <glyph glyph-name="Omega" unicode="&#x2126;" horiz-adv-x="1533" 
d="M1015 1298q-179 0 -330 -139t-230 -438q-44 -160 -22 -295q9 -55 13 -83t26 -102t46 -135q23 -61 25 -67l-25 -39h-491l26 281l49 4q8 -96 32 -125t89 -29h221q-122 122 -168 238q-45 116 -42 203q3 88 24 163q76 281 297 453t488 172t391 -163t51 -443
q-54 -197 -218 -363q-118 -119 -302 -260h231q68 0 102 27t95 127l51 -4l-127 -281h-494l-4 39q2 4 86 96t117 134q151 192 194 285q44 93 66 177q78 293 -5 430t-262 137z" />
    <glyph glyph-name="estimated" unicode="&#x212e;" horiz-adv-x="1943" 
d="M1595 700v379q0 27 -18 45q-201 197 -470 197t-468 -203q-18 -18 -18 -47v-371q0 -12 10 -12h956q8 0 8 12zM1878 649h-1247q-10 0 -10 -8v-377q0 -23 16 -43q199 -205 485 -205t484 230h110q-104 -123 -265 -196t-345 -73q-317 0 -544 203q-226 203 -226 490
q0 288 225 490t546 202t546 -203t225 -491v-19z" />
    <glyph glyph-name="partialdiff" unicode="&#x2202;" horiz-adv-x="1097" 
d="M698 770h-2q-143 0 -264 -121t-182 -346q-31 -113 5 -187t132 -75q143 0 297 203q98 131 203 377q-13 51 -63 100t-126 49zM674 850h2q80 0 150 -38t98 -107q44 113 82 245t16 271q-12 78 -72 136t-147 58q-137 0 -318 -119q-16 -2 -30 20q-31 49 0 103q164 84 317 84
q270 0 352 -276q50 -186 -24 -466t-228 -482q-229 -299 -501 -299q-172 0 -248 108t-26 292q50 185 208 325q174 145 369 145z" />
    <glyph glyph-name="Delta" unicode="&#x2206;" horiz-adv-x="1314" 
d="M956 92l-149 1034l-694 -1034h843zM1147 0h-1167l14 47l878 1290l86 23l201 -1313z" />
    <glyph glyph-name="product" unicode="&#x220f;" horiz-adv-x="1681" 
d="M1624 1348v-52q-131 -8 -159 -28t-27 -103v-1126q0 -96 28 -121t154 -33v-51h-528v51q124 8 150 31t26 123v1178q0 43 -14 54t-58 11h-446q-44 0 -56 -10t-12 -47v-1186q0 -98 23 -122t137 -32v-51h-512v51q124 8 152 33t28 121v1126q0 83 -28 103t-158 28v52h1300z" />
    <glyph glyph-name="summation" unicode="&#x2211;" horiz-adv-x="1411" 
d="M965 1284h-412l385 -629l-461 -682h547q137 0 179 35t108 209l53 -14l-88 -377h-952v49l462 676l-450 747v50h938l24 -324l-51 -12q-25 137 -69 211q-20 35 -62 48t-151 13z" />
    <glyph glyph-name="minus" unicode="&#x2212;" 
d="M203 647h1104v-184h-1104v184z" />
    <glyph glyph-name="uni2215" unicode="&#x2215;" horiz-adv-x="256" 
d="M-532 -86l1323 1507h108l-1323 -1507h-108z" />
    <glyph glyph-name="uni2219" unicode="&#x2219;" horiz-adv-x="598" 
d="M383 807q59 0 99 -41t40 -98q0 -56 -40 -98t-99 -42t-99 41t-40 99t40 98q40 41 99 41z" />
    <glyph glyph-name="radical" unicode="&#x221a;" horiz-adv-x="1394" 
d="M1362 1726l-338 -2007l-41 -22l-448 1075l-177 -88l-24 64l315 151l352 -872h5l280 1718z" />
    <glyph glyph-name="infinity" unicode="&#x221e;" horiz-adv-x="1660" 
d="M1262 762h-2q-76 0 -137 -51t-106 -101q-44 -51 -52 -59q105 -117 167 -164t141 -47t130 63t51 153t-53 148t-139 58zM547 340h4q45 0 71 13t40 19q16 6 36 24t30 26t33 31q21 23 27 29t30 32q24 27 26 29q-57 75 -89 109t-92 72t-136 38q-77 0 -129 -62t-52 -152
q0 -89 56 -149q57 -59 145 -59zM1565 555v-2q0 -141 -90 -230q-89 -89 -195 -89t-189 54t-188 177q-98 -113 -180 -172q-83 -59 -197 -59t-202 90t-88 225t89 225t224 90q100 0 184 -59t178 -170q115 129 174 170q90 59 204 59t195 -86t81 -223z" />
    <glyph glyph-name="integral" unicode="&#x222b;" horiz-adv-x="1024" 
d="M981 1560q0 -40 -25 -63q-26 -23 -60 -23t-58 47q-24 46 -45 46q-100 0 -86 -334l36 -754q41 -870 -305 -870q-53 -1 -87 27t-35 66t30 65t66 27q34 0 58 -50q24 -49 44 -49q47 0 70 92q22 92 14 246l-39 798q-37 817 303 818q43 0 81 -24q38 -25 38 -65z" />
    <glyph glyph-name="approxequal" unicode="&#x2248;" horiz-adv-x="1251" 
d="M899 250q-84 0 -214 73q-131 73 -195 73t-109 -39q-45 -38 -92 -107l-72 65q45 85 121 137t149 52t109 -16q35 -16 47 -20q12 -6 42 -22t35 -19q4 -3 26 -15t31 -18q60 -36 121 -36q62 0 104 34t90 110l71 -66q-106 -186 -264 -186zM903 700q101 0 189 144l71 -66
q-104 -186 -262 -186q-57 0 -104 17t-143 73t-164 56q-66 0 -110 -38q-44 -37 -91 -106l-72 63q45 85 121 137t160 52t159 -43q54 -27 61 -33q6 -6 28 -17t29 -15t23 -13q16 -8 26 -10q9 -3 28 -9t51 -6z" />
    <glyph glyph-name="notequal" unicode="&#x2260;" horiz-adv-x="1296" 
d="M1196 793v-109h-346l-129 -281h475v-108h-520l-107 -232l-88 39l88 193h-290v108h337l127 281h-464v109h509l105 227l88 -41l-86 -186h301z" />
    <glyph glyph-name="lessequal" unicode="&#x2264;" horiz-adv-x="1339" 
d="M1241 0h-917v113h917v-113zM1235 188l-903 439v116l903 437v-129l-784 -363v-4l784 -367v-129z" />
    <glyph glyph-name="greaterequal" unicode="&#x2265;" horiz-adv-x="1341" 
d="M1239 0h-915v113h915v-113zM334 1180l903 -437v-116l-903 -439v129l784 365v4l-784 365v129z" />
    <glyph glyph-name="lozenge" unicode="&#x25ca;" horiz-adv-x="1415" 
d="M1192 645l-342 674h-8l-344 -670l346 -676h6zM1319 645l-412 -786h-127l-409 786l411 795h125z" />
    <glyph glyph-name="f_i" unicode="&#xfb01;" horiz-adv-x="1323" 
d="M983 1427q141 0 233 -51t93 -131q0 -41 -27 -65t-70 -25q-73 0 -90 71q-6 30 -15 60q-21 69 -144 70q-262 0 -383 -465h440q127 0 176 24h57l-209 -688q-14 -43 -14 -61t12 -30t31 -13q66 0 162 143h74q-79 -133 -185 -212t-206 -79q-57 0 -91 30q-33 30 -33 74t23 120
l160 532q2 12 7 27q5 14 5 18q0 41 -78 41h-354l-25 -92q-215 -809 -399 -993q-115 -115 -254 -115q-82 0 -135 37t-53 85t28 78q29 29 66 29t59 -22t31 -48q22 -70 73 -71q102 0 165 254l84 346q68 283 147 512h-162l23 74h162q94 262 251 399q158 137 365 137z" />
    <glyph glyph-name="f_l" unicode="&#xfb02;" horiz-adv-x="1323" 
d="M965 1354q-262 0 -385 -463h456l94 307q-8 16 -15 56t-23 57q-43 43 -127 43zM1069 125q74 0 168 145h72q-61 -121 -175 -208t-214 -87q-55 0 -87 29t-32 77t14 85l199 651h-457l-68 -244q-184 -670 -348 -833q-123 -123 -262 -123q-80 0 -133 37t-53 85t27 78
q28 29 67 29t61 -22t27 -48q17 -70 66 -71q115 0 174 254l82 346q51 221 147 512h-162l23 74h162q94 262 249 399q156 137 357 137q80 0 147 -15t72 -15q74 -1 180 30h39l-362 -1179q-28 -85 -5 -112q10 -11 25 -11z" />
    </font>
</defs>
</svg>
