<?xml version="1.0" standalone="no"?>
<!DOCTYPE svg PUBLIC "-//W3C//DTD SVG 1.1//EN" "http://www.w3.org/Graphics/SVG/1.1/DTD/svg11.dtd" >
<svg xmlns="http://www.w3.org/2000/svg">
<metadata>
Created by FontPrep 20130207 at Thu Jun 25 05:52:14 2015
 By Rezki Bangsawan
Copyright (c) 1990, 1995, 2002 Adobe Systems Incorporated.  All Rights Reserved. (c) Copyright 1990, 2002 The Monotype Corporation. All Rights Reserved.
</metadata>
<defs>
<font id="ee538eccdbb75fde87f5aec466e16dc8" horiz-adv-x='1024' >
  <font-face 
    font-family="PlantinStd"
    font-weight="400"
    font-stretch="normal"
    units-per-em="2048"
    panose-1="2 4 5 3 6 2 1 2 2 3"
    ascent="1423"
    descent="-625"
    x-height="922"
    cap-height="1397"
    bbox="-270 -512 2154.05 1860"
    underline-thickness="102"
    underline-position="-102"
    unicode-range="U+0020-FB02"
  />
<missing-glyph horiz-adv-x="1024" 
d="M102 1239v-1044l349 522zM164 102h696l-348 523zM573 717l349 -522v1044zM512 809l348 522h-696zM0 0v1434h1024v-1434h-1024z" />
    <glyph glyph-name="f_i" unicode="fi" horiz-adv-x="1173" 
d="M829 223v496q0 106 -131 106h-305v-571q0 -88 33 -132t117 -48v-74h-475v74q154 0 153 155v596h-184v97h63q72 0 99 24t28 92q6 170 134 282t327 112q127 0 208 -42t81 -106q0 -40 -26 -66q-25 -26 -61 -26t-67 24t-51 52t-60 52t-94 23q-104 1 -164 -67t-61 -203v-151
h438q119 0 170 34v-729q0 -79 41 -115t105 -38v-74h-471v74q153 -1 153 149z" />
    <glyph glyph-name="f_l" unicode="fl" horiz-adv-x="1173" 
d="M831 825h-436v-571q0 -90 30 -131t118 -49v-74h-473v74q154 0 153 162v589h-186v97h65q74 0 98 24t30 113q6 88 52 168q117 203 424 205q93 0 173 -37l106 28h19v-1179q0 -86 30 -124t109 -46v-74h-461v74q150 8 149 159v592zM831 922v290q-23 8 -49 42q-68 91 -172 90
q-104 -2 -159 -74t-56 -213v-135h436z" />
    <glyph glyph-name=".notdef" horiz-adv-x="1024" 
d="M102 1239v-1044l349 522zM164 102h696l-348 523zM573 717l349 -522v1044zM512 809l348 522h-696zM0 0v1434h1024v-1434h-1024z" />
    <glyph glyph-name=".null" horiz-adv-x="0" 
 />
    <glyph glyph-name="nonmarkingreturn" 
 />
    <glyph glyph-name="space" unicode=" " horiz-adv-x="569" 
 />
    <glyph glyph-name="exclam" unicode="!" horiz-adv-x="598" 
d="M313 387h-28q-29 0 -31 39l-70 915q-4 49 12 69t68 22h70q51 0 67 -20t13 -71l-70 -915q-2 -39 -31 -39zM172 103q0 52 37 89t89 37q52 -1 89 -37t37 -88t-38 -89q-38 -38 -89 -38t-88 37t-37 89z" />
    <glyph glyph-name="quotedbl" unicode="&#x22;" horiz-adv-x="835" 
d="M598 1397q45 0 74 -31t28 -80l-8 -78l-71 -397h-46l-71 397l-8 78q0 49 28 80q29 31 74 31zM236 1397q46 0 74 -31t28 -80l-8 -78l-72 -397h-43l-74 397l-6 78q0 49 28 80t73 31z" />
    <glyph glyph-name="numbersign" unicode="#" horiz-adv-x="1368" 
d="M520 856l-74 -348h402l74 348h-402zM84 999h322l86 398h141l-84 -398h399l84 398h144l-84 -398h190v-143h-219l-72 -350h291v-144h-319l-84 -395h-144l84 395h-403l-80 -395h-146l84 395h-190v144h219l74 350h-293v143z" />
    <glyph glyph-name="dollar" unicode="$" horiz-adv-x="1130" 
d="M889 309q0 72 -37 121t-121 92v-438q72 31 115 92t43 133zM453 625v-545q61 -16 202 -17v492q-69 23 -202 70zM258 1038q0 -115 119 -178v348q-119 -55 -119 -170zM554 1241q-40 0 -101 -10v-404q45 -18 202 -71v475q-61 10 -101 10zM552 -25q-46 0 -99 11v-217h-76v231
q-111 34 -188 100t-76 131q0 39 27 67q28 28 73 28t67 -38t42 -93t55 -82v544q-244 107 -244 335t244 311v94h76v-76q61 8 97 8t105 -8v76h76v-94q109 -31 179 -95t71 -127q0 -31 -18 -55t-41 -25q-59 0 -93 39q-33 39 -53 89t-45 65v-463q131 -43 208 -139t77 -224
t-77 -228t-208 -140v-231h-76v215q-57 -9 -103 -9z" />
    <glyph glyph-name="percent" unicode="%" horiz-adv-x="1855" 
d="M1544 326q0 168 -35 246t-112 77q-145 0 -145 -310t146 -310t146 297zM1098 334q0 158 85 263t215 105t215 -103t85 -260t-85 -260t-215 -103t-215 100t-85 258zM498 -63h-107l946 1484h105zM156 1053q0 158 85 263t215 105t215 -103t85 -260t-85 -260
q-85 -104 -215 -104t-215 100t-85 259zM602 1044q0 168 -35 246t-112 78q-145 0 -145 -310t147 -310q145 -1 145 296z" />
    <glyph glyph-name="ampersand" unicode="&#x26;" horiz-adv-x="1536" 
d="M449 1169q0 -76 174 -227q178 104 178 201q1 57 -55 122t-118 65t-121 -52q-58 -50 -58 -109zM266 455q0 -125 112 -225t251 -101q74 0 131 26t131 89q-84 150 -197 300t-192 220q-124 -86 -180 -158t-56 -151zM1044 899h431v-78q-89 -18 -133 -67t-112 -176t-145 -230
q98 -116 129 -148t85 -59q53 -27 89 -33q84 -15 85 -77q0 -53 -91 -54h-71q-238 0 -371 201q-121 -110 -221 -156t-221 -47q-201 0 -314 115q-112 115 -112 251t80 232t294 248q-150 164 -150 280q0 115 145 223q144 108 252 108t185 -96q76 -96 76 -165q0 -70 -57 -130
t-215 -158q113 -98 352 -459q139 186 140 283q0 41 -35 73t-95 41v78z" />
    <glyph glyph-name="quotesingle" unicode="'" horiz-adv-x="368" 
d="M184 1397q44 0 73 -31q28 -31 28 -80l-9 -78l-71 -397h-43l-72 397l-8 78q0 49 29 80t73 31z" />
    <glyph glyph-name="parenleft" unicode="(" horiz-adv-x="788" 
d="M195 522q0 296 127 526t372 375l64 -77q-434 -264 -434 -824t434 -823l-64 -78q-246 145 -372 375t-127 526z" />
    <glyph glyph-name="parenright" unicode=")" horiz-adv-x="788" 
d="M594 522q0 -296 -127 -525q-127 -230 -373 -376l-63 78q434 263 434 823t-434 824l63 77q246 -145 373 -375t127 -526z" />
    <glyph glyph-name="asterisk" unicode="*" horiz-adv-x="1024" 
d="M537 868l-269 -233l-43 49l174 291l-329 139l18 57h340l55 322h58l77 -307l322 57l14 -57l-278 -189l170 -313l-43 -49z" />
    <glyph glyph-name="plus" unicode="+" horiz-adv-x="1366" 
d="M135 745h469v469h158v-469h469v-157h-469v-469h-158v469h-469v157z" />
    <glyph glyph-name="comma" unicode="," horiz-adv-x="598" 
d="M257 88q-56 0 -90 31t-34 88t36 92t95 35q90 0 152 -86t61 -213q0 -162 -107 -253t-302 -95v75q291 33 290 209q0 61 -22 89q-23 28 -79 28z" />
    <glyph glyph-name="hyphen" unicode="-" horiz-adv-x="747" 
d="M59 408v155h629v-155h-629z" />
    <glyph glyph-name="period" unicode="." horiz-adv-x="598" 
d="M172 103q0 52 37 89t89 37q52 -1 89 -37t37 -88t-38 -89q-38 -38 -89 -38t-88 37t-37 89z" />
    <glyph glyph-name="slash" unicode="/" horiz-adv-x="569" 
d="M569 1432l-479 -1457h-90l479 1457h90z" />
    <glyph glyph-name="zero" unicode="0" horiz-adv-x="1130" 
d="M293 778q0 -212 22 -350t78 -244q66 -133 185 -133q66 0 122 47q137 116 138 504q0 322 -77 496t-218 174q-59 0 -114 -43q-136 -108 -136 -451zM1030 708q0 -280 -128 -506t-336 -227q-208 0 -337 196q-129 195 -129 479t136 497t334 213t329 -186t131 -466z" />
    <glyph glyph-name="one" unicode="1" horiz-adv-x="1130" 
d="M670 1360v-1094q0 -96 39 -144t127 -48h20v-74h-582v74h33q170 0 170 186v754q0 86 -38 127t-124 41h-34v73q109 0 181 23t148 82h60z" />
    <glyph glyph-name="two" unicode="2" horiz-adv-x="1130" 
d="M100 0v74q104 116 259 270t228 230t132 178q59 100 59 200t-70 181q-71 79 -173 79t-195 -80q-92 -81 -156 -231l-75 31q75 208 199 318t283 110t269 -112t111 -281q0 -169 -155 -318q-75 -73 -156 -137q-240 -191 -369 -346h430q98 0 147 35t93 137h71l-100 -338h-832z
" />
    <glyph glyph-name="three" unicode="3" horiz-adv-x="1130" 
d="M709 1050q1 83 -51 132t-128 49q-170 0 -354 -207l-57 45q215 291 471 291q135 0 223 -69t88 -175q0 -78 -55 -146t-187 -155l5 -4q141 20 238 -81t97 -241q0 -205 -174 -359t-394 -155q-220 0 -343 93l41 59q133 -63 252 -64q176 0 301 110t125 269q0 113 -68 187
t-166 74t-213 -78l-32 67q207 117 294 196t87 162z" />
    <glyph glyph-name="four" unicode="4" horiz-adv-x="1130" 
d="M639 483v699h-4l-473 -699h477zM831 383v-147q0 -88 41 -125t140 -37v-74h-557v74q102 0 143 38t41 128v143h-561v119l590 858h163v-877q61 0 91 28q29 28 51 103h69l-30 -231h-181z" />
    <glyph glyph-name="five" unicode="5" horiz-adv-x="1130" 
d="M791 1335q98 0 118 25h70l-39 -191h-614l-62 -272q133 55 238 55q201 0 337 -135t136 -344t-166 -353t-416 -145q-143 0 -272 43l31 70q117 -25 194 -25q178 0 304 115q126 114 126 268t-95 247t-237 93t-256 -90l-47 13l146 626h504z" />
    <glyph glyph-name="six" unicode="6" horiz-adv-x="1130" 
d="M604 63q96 1 161 97t65 267t-66 273t-170 103q-76 0 -135 -42t-127 -140q-16 -233 62 -396q79 -162 210 -162zM649 905q165 0 269 -123q104 -124 104 -318t-123 -341t-299 -147t-322 157q-146 158 -147 438q1 335 233 565t535 224v-72q-217 -8 -370 -145t-185 -379l4 -4
q135 145 301 145z" />
    <glyph glyph-name="seven" unicode="7" horiz-adv-x="1130" 
d="M406 0q0 201 111 472q112 271 349 697h-463q-98 0 -149 -40t-78 -138h-76l84 369h49q25 -18 58 -22t94 -3h606v-104q-147 -231 -265 -598t-120 -633h-200z" />
    <glyph glyph-name="eight" unicode="8" horiz-adv-x="1130" 
d="M576 51q130 0 208 69q78 68 78 180t-88 184t-293 157q-203 -94 -202 -295q-1 -131 83 -213t214 -82zM825 1024q-1 108 -77 178t-186 70t-179 -58q-70 -58 -70 -143q0 -114 114 -181q56 -33 218 -104q180 82 180 238zM150 1010q0 143 122 246q123 104 294 104t290 -93
t119 -227q0 -184 -252 -290q289 -141 289 -392q0 -170 -125 -276t-319 -106t-321 100q-128 102 -128 254q0 225 289 348q-135 72 -197 149q-61 78 -61 183z" />
    <glyph glyph-name="nine" unicode="9" horiz-adv-x="1130" 
d="M540 1272q-114 0 -176 -96t-62 -266t65 -274q66 -103 170 -104q153 1 262 183q16 249 -65 403q-80 154 -194 154zM472 430q-158 0 -260 123q-103 123 -103 317t122 342q123 148 291 148t318 -143q72 -70 116 -189t43 -266q0 -311 -217 -548t-551 -239v72q227 15 371 145
t182 377l-4 4q-150 -143 -308 -143z" />
    <glyph glyph-name="colon" unicode=":" horiz-adv-x="598" 
d="M172 103q0 52 37 89t89 37q52 -1 89 -37t37 -88t-38 -89q-38 -38 -89 -38t-88 37t-37 89zM298 944q52 0 89 -37t37 -89t-38 -89t-89 -37t-88 37t-37 90t37 89t89 36z" />
    <glyph glyph-name="semicolon" unicode=";" horiz-adv-x="598" 
d="M298 944q52 0 89 -37t37 -89t-38 -89t-89 -37t-88 37t-37 90t37 89t89 36zM257 88q-56 0 -90 31t-34 88t36 92t95 35q90 0 152 -86t61 -213q0 -162 -107 -253t-302 -95v75q291 33 290 209q0 61 -22 89q-23 28 -79 28z" />
    <glyph glyph-name="less" unicode="&#x3c;" horiz-adv-x="1366" 
d="M1229 137l-1094 459v143l1094 459v-170l-881 -360l881 -361v-170z" />
    <glyph glyph-name="equal" unicode="=" horiz-adv-x="1366" 
d="M135 510h1096v-158h-1096v158zM135 983h1096v-158h-1096v158z" />
    <glyph glyph-name="greater" unicode="&#x3e;" horiz-adv-x="1366" 
d="M135 1198l1094 -461v-141l-1094 -459v170l881 359l-881 360v172z" />
    <glyph glyph-name="question" unicode="?" horiz-adv-x="788" 
d="M143 103q0 52 37 89t89 37q52 -1 89 -37t37 -88t-38 -89q-38 -38 -89 -38t-88 37t-37 89zM225 358q0 117 -15 210t-15 107q0 13 12 25q11 12 73 26q184 40 250 106t66 137q0 102 -89 200t-183 99q-39 0 -88 -23q-94 -44 -141 1q-23 24 -23 71t49 81t140 34t184 -69
t151 -162t94 -182q35 -89 35 -140q-1 -121 -69 -189t-178 -111q-110 -42 -142 -75t-37 -146h-74z" />
    <glyph glyph-name="at" unicode="@" horiz-adv-x="1886" 
d="M1067 918q-92 0 -191 -124q-98 -124 -156 -268t-58 -218q0 -72 34 -114t82 -42q129 0 271 200q141 201 141 418q0 66 -35 107t-88 41zM1704 754q0 270 -181 443t-451 173t-471 -141q-200 -141 -301 -357t-101 -454q0 -352 219 -576t563 -223q272 0 481 143t324 410h57
q-75 -262 -315 -438t-551 -176q-377 0 -625 252t-248 648t274 680t673 283q319 0 517 -190t197 -496q0 -234 -132 -455q-65 -110 -175 -180t-241 -69q-156 0 -156 139q0 53 16 141l-4 4q-215 -285 -387 -284q-78 -1 -130 67t-52 168q0 152 91 319t220 273t240 107
q63 0 110 -35t60 -105h4l31 111l157 22l-194 -669q-25 -88 -7 -137t70 -50q142 0 280 190q138 192 138 462z" />
    <glyph glyph-name="A" unicode="A" horiz-adv-x="1472" 
d="M893 655l-231 555l-220 -555h451zM477 0h-471v78q76 18 114 64t85 165l411 1024l-32 66h219l508 -1182q33 -73 67 -105t88 -32v-78h-573v78q231 22 151 217l-104 250h-541l-73 -193q-45 -106 -4 -187t155 -87v-78z" />
    <glyph glyph-name="B" unicode="B" horiz-adv-x="1409" 
d="M500 682v-387q0 -207 192 -207h105q125 0 197 73t71 201q0 128 -90 224t-268 96h-207zM500 778h194q166 0 241 56t75 193q0 138 -89 210t-257 72h-164v-531zM285 289v831q1 104 -51 152t-166 47v78h743q213 0 330 -88q117 -87 117 -239t-99 -228q-98 -76 -317 -109v-4
q246 -5 358 -111t113 -245q0 -169 -136 -271t-331 -102h-778v78q121 0 169 51t48 160z" />
    <glyph glyph-name="C" unicode="C" horiz-adv-x="1599" 
d="M915 1333q-223 0 -381 -163t-159 -447q0 -284 152 -472q153 -187 417 -188q176 -1 298 87t159 258h76l-11 -322q-118 -47 -276 -79t-281 -32q-344 0 -563 197t-219 494t200 517q97 107 256 173q356 146 834 -31l49 -326h-65q-70 154 -202 244t-284 90z" />
    <glyph glyph-name="D" unicode="D" horiz-adv-x="1728" 
d="M504 1309v-1004q0 -97 58 -157t157 -60h117q260 0 400 164t140 412t-154 438q-77 94 -211 150t-309 57h-198zM289 285v813q0 111 -47 166t-183 55v78h795q366 0 572 -207q206 -206 206 -474t-184 -480q-92 -106 -251 -171t-359 -65h-779v78q127 0 179 46q51 46 51 161z
" />
    <glyph glyph-name="E" unicode="E" horiz-adv-x="1386" 
d="M53 0v78q117 0 168 48t51 161v823q0 106 -49 158t-170 51v78h1184v-312h-74q-53 131 -132 177t-216 47h-328v-537h275q145 0 206 44q60 44 68 153h84v-494h-84q-18 117 -78 163t-192 46h-279v-338q-1 -146 51 -202t189 -56h102q170 0 263 54q92 54 163 200h93l-93 -342
h-1202z" />
    <glyph glyph-name="F" unicode="F" horiz-adv-x="1343" 
d="M1141 969v-504h-84q-23 127 -81 179t-177 52h-297v-413q0 -117 54 -161t194 -44v-78h-680v78q121 0 169 51t48 156v811q0 121 -49 172t-181 51v78h1243v-316h-61q-68 135 -138 182q-71 46 -204 46h-395v-525h336q114 0 160 41t57 144h86z" />
    <glyph glyph-name="G" unicode="G" horiz-adv-x="1705" 
d="M1505 434v-360q-330 -98 -555 -98t-390 60q-297 109 -416 384q-52 123 -52 254q0 311 252 529t612 218q223 0 500 -92l29 -328h-84q-158 332 -481 332q-244 0 -408 -179t-164 -450q0 -272 172 -456t422 -185q168 0 340 91v295q0 193 -203 192h-43v78h656v-78
q-104 -8 -146 -55q-41 -48 -41 -152z" />
    <glyph glyph-name="H" unicode="H" horiz-adv-x="1748" 
d="M494 662v-377q0 -113 52 -160t169 -47v-78h-652v78q127 0 171 51t45 162v827q-1 106 -51 154t-165 47v78h652v-78q-113 0 -167 -45t-54 -158v-348h757v365q0 88 -50 137t-148 49v78h633v-78q-121 0 -170 -50t-50 -163v-807q0 -115 45 -168t175 -53v-78h-633v78
q199 0 198 198v386h-757z" />
    <glyph glyph-name="I" unicode="I" horiz-adv-x="768" 
d="M494 1108v-823q0 -103 48 -155t171 -52v-78h-658v78q135 0 179 52t45 183v787q-1 119 -49 169t-175 50v78h658v-78q-115 0 -167 -48t-52 -163z" />
    <glyph glyph-name="J" unicode="J" horiz-adv-x="724" 
d="M61 1397h666v-78q-115 0 -170 -44t-55 -142v-924q0 -289 -98 -424t-265 -135q-92 0 -151 38q-60 38 -60 89t26 78t66 27q71 -1 109 -74q38 -72 85 -71q46 1 59 42t14 129v1204q0 109 -51 158t-175 49v78z" />
    <glyph glyph-name="K" unicode="K" horiz-adv-x="1642" 
d="M942 1397h580v-78q-143 -14 -252 -96q-43 -33 -201 -176t-321 -265q92 -72 319 -280t351 -302q124 -93 255 -118v-82h-360q-78 61 -333 300t-441 394l-27 25q555 383 555 516q0 84 -125 84v78zM63 1397h650v-78q-111 0 -164 -45t-53 -148v-847q0 -101 50 -151t179 -50
v-78h-662v78q121 0 169 50t49 169v795q0 119 -45 173t-173 54v78z" />
    <glyph glyph-name="L" unicode="L" horiz-adv-x="1386" 
d="M276 313v801q0 109 -49 157t-182 48v78h678v-78q-133 0 -182 -50t-49 -147v-764q0 -143 61 -206t209 -64h182q137 0 231 58q93 58 171 196h86l-86 -342h-1301v78q143 8 187 54t44 181z" />
    <glyph glyph-name="M" unicode="M" horiz-adv-x="2068" 
d="M2044 0h-619v78q102 0 147 57q44 57 32 160l-95 788h-4q-59 -178 -168 -396t-195 -394t-112 -293h-96q-22 136 -224 538t-257 578h-4l-107 -741q-25 -157 17 -223t165 -74v-78h-479v78q88 0 132 49t61 160l116 760q20 137 -11 200q-32 63 -138 72v78h407q10 -156 94 -354
q84 -197 192 -411t146 -335q252 497 350 729t70 371h416v-78q-112 -9 -140 -63t-14 -173l105 -800q12 -97 58 -145t155 -60v-78z" />
    <glyph glyph-name="N" unicode="N" horiz-adv-x="1728" 
d="M14 1397h332l1047 -1061v670q-4 132 -50 222q-46 91 -194 91v78h551v-78q-111 0 -165 -84t-54 -229v-641q1 -117 23 -227t24 -154h-135q-98 133 -164 198l-848 869v-711q0 -138 61 -200t189 -62v-78h-586v78q137 0 194 49q56 49 54 174v844l-90 90q-49 45 -88 61t-101 23
v78z" />
    <glyph glyph-name="O" unicode="O" horiz-adv-x="1665" 
d="M356 764q0 -280 136 -491q136 -210 370 -210q201 0 324 152t123 399q0 184 -56 344q-55 160 -174 268t-282 107q-193 -1 -317 -145t-124 -424zM109 672q0 180 62 325q61 145 165 237q212 188 511 187q298 0 504 -208q205 -208 205 -517t-217 -515t-520 -206t-507 197
q-203 197 -203 500z" />
    <glyph glyph-name="P" unicode="P" horiz-adv-x="1300" 
d="M492 1309v-1018q0 -117 51 -165t184 -48v-78h-659v78q120 0 164 52t44 161v842q0 186 -208 186v78h716q205 -1 334 -103t129 -275t-139 -282t-371 -108q-143 0 -143 59q0 43 56 43l50 -2q135 0 218 76q82 76 81 196q0 307 -335 308h-172z" />
    <glyph glyph-name="Q" unicode="Q" horiz-adv-x="1665" 
d="M356 799q0 -326 140 -531t364 -205q195 1 322 147t127 408q0 178 -56 337q-55 159 -176 269t-282 109q-193 0 -316 -149t-123 -385zM109 680q-1 322 205 532t518 209q312 0 518 -207q207 -207 206 -518q0 -260 -154 -447t-419 -251v-4q325 -154 655 -207v-178
q-360 35 -571 139q-130 65 -449 252q-256 98 -382 261t-127 419z" />
    <glyph glyph-name="R" unicode="R" horiz-adv-x="1472" 
d="M498 748h192q330 0 330 264q0 127 -92 212t-271 85h-159v-561zM498 659v-389q0 -98 51 -145t164 -47v-78h-637v78q125 0 166 58t41 177v805q0 201 -207 201v78h669q271 1 397 -99t126 -262q0 -123 -93 -221t-288 -129l293 -334q126 -143 204 -209t136 -65v-78h-164
q-110 0 -178 45t-185 191l-272 339q-41 51 -70 67t-94 17h-59z" />
    <glyph glyph-name="S" unicode="S" horiz-adv-x="1216" 
d="M121 426h88q68 -352 379 -352q127 0 217 68t90 152q1 84 -67 152t-282 192t-305 215t-91 216q0 158 131 255t347 97t425 -116v-301h-88q-11 154 -109 242t-244 87q-106 0 -179 -56t-73 -134q0 -77 58 -135t275 -184q218 -126 300 -208q113 -113 113 -254
q0 -170 -143 -278t-369 -109q-113 0 -255 30t-218 69v352z" />
    <glyph glyph-name="T" unicode="T" horiz-adv-x="1556" 
d="M672 289v1020h-221q-137 0 -203 -45t-150 -199h-69l20 332h1458l23 -332h-70q-90 156 -153 200t-199 44h-221v-1033q0 -102 49 -150t172 -48v-78h-657v78q123 0 172 49t49 162z" />
    <glyph glyph-name="U" unicode="U" horiz-adv-x="1705" 
d="M35 1397h672v-78q-131 0 -183 -47t-51 -166v-637q0 -172 116 -271q117 -100 315 -100t328 110t130 335v536q0 121 -52 181t-190 59v78h551v-78q-217 0 -217 -215v-578q0 -306 -171 -428q-171 -123 -447 -123q-274 0 -426 129t-152 324v694q0 98 -48 148t-175 49v78z" />
    <glyph glyph-name="V" unicode="V" horiz-adv-x="1449" 
d="M969 1397h479v-78q-80 -25 -121 -66t-99 -196q-57 -154 -79 -207l-250 -582q-59 -139 -90 -293h-111q-23 104 -86 242l-426 922q-55 119 -87 149t-95 31v78h559v-78q-139 -7 -159 -63t49 -195l264 -551q31 -66 92 -227q29 78 94 235l174 410q121 273 17 351
q-43 32 -125 40v78z" />
    <glyph glyph-name="W" unicode="W" horiz-adv-x="2048" 
d="M584 1397h475v-78q-68 -19 -87 -73t13 -116l129 -260l121 236q46 89 3 162q-24 39 -79 51v78h373v-78q-59 -16 -95 -57t-96 -152l-182 -340l178 -360q31 -66 62 -144l315 725q61 131 42 222t-126 106v78h416v-78q-55 -8 -97 -53t-83 -142l-416 -952q-51 -115 -64 -197
h-96q-12 63 -41 119l-215 438l-153 -299q-100 -201 -107 -258h-108q-10 63 -82 228l-406 903q-55 125 -83 161t-93 52v78h485v-78q-164 -39 -69 -244l164 -348q119 -256 209 -494l198 396l-221 485q-55 121 -96 162t-88 43v78z" />
    <glyph glyph-name="X" unicode="X" horiz-adv-x="1599" 
d="M1587 78v-78h-669v78q126 2 152 56t-52 147l-275 329l-247 -284q-82 -88 -58 -168t154 -80v-78h-565v78q96 16 155 55t164 156l342 387l-393 471q-86 104 -139 137t-142 35v78h662v-78q-119 -4 -145 -56t42 -126l254 -299l211 252q99 116 32 187q-34 36 -116 42v78h527
v-78q-78 -6 -155 -58t-185 -184l-256 -307l422 -508q81 -98 147 -141t133 -43z" />
    <glyph glyph-name="Y" unicode="Y" horiz-adv-x="1472" 
d="M846 270q0 -193 205 -192v-78h-629v78q209 0 209 194v314l-428 626q-63 94 -187 107v78h615v-78q-119 0 -150 -50t27 -130l305 -445l238 348q76 106 49 188t-148 89v78h504v-78q-61 -8 -110 -49t-125 -150l-375 -534v-316z" />
    <glyph glyph-name="Z" unicode="Z" horiz-adv-x="1386" 
d="M61 0v61l934 1248h-413q-143 0 -213 -47t-129 -183h-76v318h1118v-60l-942 -1249h408q200 0 290 51t213 223h80l-92 -362h-1178z" />
    <glyph glyph-name="bracketleft" unicode="[" horiz-adv-x="768" 
d="M459 1184v-1319q0 -92 35 -126t124 -34h117v-80h-426q-23 80 -22 131v1536q0 51 22 131h426v-80h-117q-90 1 -124 -33t-35 -126z" />
    <glyph glyph-name="backslash" unicode="\" horiz-adv-x="569" 
d="M0 1432h90l479 -1457h-92z" />
    <glyph glyph-name="bracketright" unicode="]" horiz-adv-x="768" 
d="M309 1184q0 92 -35 126t-124 33h-117v80h426q23 -80 22 -131v-1536q0 -51 -22 -131h-426v80h117q90 0 124 34t35 126v1319z" />
    <glyph glyph-name="asciicircum" unicode="^" horiz-adv-x="960" 
d="M520 1397l420 -717h-127l-332 569l-334 -569h-127l424 717h76z" />
    <glyph glyph-name="underscore" unicode="_" horiz-adv-x="1024" 
d="M1036 -256h-1048v102h1048v-102z" />
    <glyph glyph-name="grave" unicode="`" 
d="M119 1421h223l104 -346h-32z" />
    <glyph glyph-name="a" unicode="a" horiz-adv-x="980" 
d="M418 115q106 0 207 106v256l-109 -41q-135 -49 -188 -88q-54 -39 -54 -96t36 -97t108 -40zM625 694q1 82 -61 122t-124 40t-112 -31q-49 -31 -49 -60t22 -64q44 -70 8 -80l-121 -58q-8 -4 -23 23q-44 81 -44 119q0 87 97 163t280 76q299 0 299 -219v-524q0 -57 31 -72
q32 -14 83 18l19 -73q-84 -96 -154 -96q-134 -1 -151 147q-164 -147 -303 -148q-100 -1 -165 61t-65 158t72 162q72 64 242 121l219 76v139z" />
    <glyph glyph-name="b" unicode="b" horiz-adv-x="1148" 
d="M332 340q0 -141 78 -208q78 -66 187 -66t179 61q115 100 115 265t-87 285q-88 120 -230 120t-242 -111v-346zM332 1423v-643q88 88 168 126t177 38t174 -44q133 -76 188 -265q24 -80 24 -158q0 -219 -144 -359t-372 -141q-170 1 -387 103v1114l-146 80v47l267 102h51z
" />
    <glyph glyph-name="c" unicode="c" horiz-adv-x="960" 
d="M526 -23q-212 -1 -324 145t-112 328t111 330q55 74 151 119t228 45t224 -45t93 -139q1 -45 -21 -72q-22 -26 -61 -26t-63 30t-35 67q-10 37 -54 67t-124 30q-127 0 -205 -91t-78 -239t91 -268q91 -119 257 -119t250 131l47 -30q-33 -121 -133 -192t-242 -71z" />
    <glyph glyph-name="d" unicode="d" horiz-adv-x="1173" 
d="M809 522q0 170 -84 252q-83 82 -193 82t-194 -98t-84 -234t68 -258q35 -66 98 -108t147 -43q150 -1 242 116v291zM981 1423v-1212q0 -139 147 -94v-82l-268 -58h-51v154q-164 -154 -334 -154q-169 0 -281 128t-112 328q0 199 147 355t353 156q90 0 227 -39v309l-150 82
v47l271 80h51z" />
    <glyph glyph-name="e" unicode="e" horiz-adv-x="960" 
d="M475 868q-87 0 -147 -62t-74 -165h426q-12 109 -66 168t-139 59zM895 567h-653q-8 -197 97 -311t253 -115q148 0 260 99l43 -39q-137 -223 -381 -224q-186 -1 -306 133t-120 343t123 350t305 141q123 0 213 -66t128 -148q38 -83 38 -163z" />
    <glyph glyph-name="f" unicode="f" horiz-adv-x="636" 
d="M387 825v-571q0 -104 41 -142t172 -38v-74h-553v74q92 0 130 40t38 122v589h-168v97h47q72 0 92 16t23 74q4 182 107 301t290 119q100 0 165 -43t65 -109q0 -38 -25 -62t-66 -24t-73 38t-68 75q-35 37 -83 37t-91 -47q-43 -46 -43 -142v-233h244v-97h-244z" />
    <glyph glyph-name="g" unicode="g" horiz-adv-x="1024" 
d="M600 -23h-102q-84 0 -203 17q-57 -57 -77 -85t-19 -65q0 -37 41 -71t176 -55q39 -5 69 -5q127 0 248 39t121 117q0 57 -59 83q-60 25 -195 25zM670 605q0 115 -66 183t-138 68t-124 -62q-51 -62 -51 -170q0 -106 54 -182q55 -76 145 -76t135 62q45 61 45 177zM850 618
q0 -158 -121 -244t-258 -85q-47 0 -129 16q-61 -51 -61 -83t45 -46t172 -14h164q143 0 234 -58t91 -157q0 -147 -152 -243q-153 -95 -367 -95t-315 60t-101 135t173 206q-117 51 -117 119t171 207q-168 98 -168 274q0 142 102 238t256 96q82 0 209 -31t206 -31t132 7v-139
q-88 -14 -197 12q31 -72 31 -144z" />
    <glyph glyph-name="h" unicode="h" horiz-adv-x="1148" 
d="M967 647v-416q0 -81 41 -119t108 -38v-74h-475v74q78 0 116 41t38 106v385q-1 92 -55 146t-144 55q-129 0 -250 -94v-461q0 -94 37 -136t127 -42v-74h-490v74q154 0 154 164v958l-154 86v47l275 94h51v-632q96 85 172 119t184 34t186 -72q79 -72 79 -225z" />
    <glyph glyph-name="i" unicode="i" horiz-adv-x="555" 
d="M176 1313q0 47 33 79t78 32t78 -32t33 -79t-34 -79q-32 -32 -77 -32t-78 32t-33 79zM209 223v496l-156 78v47l277 100h51v-706q0 -160 127 -164v-74h-447v74q63 0 105 38t43 111z" />
    <glyph glyph-name="j" unicode="j" horiz-adv-x="532" 
d="M176 1313q0 47 33 79t78 32t78 -32t33 -79t-34 -79q-32 -32 -77 -32t-78 32t-33 79zM209 92v621l-164 84v47l285 100h51v-815q0 -153 -35 -219t-199 -246q-31 -37 -49 -55l-69 45q180 260 180 438z" />
    <glyph glyph-name="k" unicode="k" horiz-adv-x="1044" 
d="M1051 0h-158q-70 45 -111 86l-407 397l194 181q86 80 64 132q-23 52 -133 52v74h508v-74q-100 0 -277 -152l-188 -159l508 -451v-86zM369 1423v-1196q0 -154 149 -153v-74h-452v74q49 0 90 39t41 110v983l-131 72v47l251 98h52z" />
    <glyph glyph-name="l" unicode="l" horiz-adv-x="555" 
d="M371 1423v-1179q0 -162 127 -170v-74h-441v74q141 8 142 155v975l-142 78v47l262 94h52z" />
    <glyph glyph-name="m" unicode="m" horiz-adv-x="1771" 
d="M369 256q1 -94 29 -134t114 -48v-74h-467v74q152 6 152 155v486l-148 86v47l268 96h52v-156q92 86 169 121t175 35t158 -37t98 -119q94 88 167 122t183 34t188 -66t78 -190v-450q0 -76 32 -116t109 -48v-74h-469v74q84 4 120 44t36 126v385q0 88 -56 134t-159 46
t-221 -94v-467q0 -86 30 -126t113 -48v-74h-481v74q88 0 127 40t39 130v352q0 115 -42 163t-142 48q-141 0 -252 -102v-449z" />
    <glyph glyph-name="n" unicode="n" horiz-adv-x="1173" 
d="M358 242q0 -86 39 -127t127 -41v-74h-489v74q152 6 151 155v494l-137 78v47l258 96h51v-174h4q62 82 152 128t176 46q301 0 301 -317v-389q0 -80 31 -118t115 -46v-74h-484v74q166 0 166 168v340q0 224 -207 224q-111 0 -254 -120v-444z" />
    <glyph glyph-name="o" unicode="o" horiz-adv-x="1110" 
d="M283 545q0 -158 68 -314q34 -78 93 -128t136 -50q118 0 188 79t70 225t-63 315q-32 86 -94 141t-144 55q-254 1 -254 -323zM88 466q0 200 133 339t334 139t334 -133t133 -342t-132 -350t-327 -141t-335 144t-140 344z" />
    <glyph glyph-name="p" unicode="p" horiz-adv-x="1148" 
d="M346 342q0 -129 72 -203q72 -73 194 -73t197 91q76 91 76 273t-93 276q-93 95 -210 95t-236 -94v-365zM346 -147q0 -99 41 -135t133 -35v-74h-497v74q75 0 113 41t38 108v887l-145 78v47l266 100h51v-153q154 153 327 153t278 -122t105 -328t-137 -361
q-138 -156 -333 -156q-121 1 -240 60v-184z" />
    <glyph glyph-name="q" unicode="q" horiz-adv-x="1148" 
d="M819 530q0 158 -73 248q-72 90 -202 90t-211 -94t-81 -256t92 -276t231 -115q103 0 244 100v303zM819 -154v289q-104 -90 -176 -125t-165 -35t-172 40q-137 70 -192 250q-24 77 -24 159q0 232 136 376t358 144q178 0 329 -86v64q0 23 23 22h33q23 0 22 -22v-1067
q0 -84 29 -123t110 -51v-72h-481v72q88 -1 129 37t41 128z" />
    <glyph glyph-name="r" unicode="r" horiz-adv-x="768" 
d="M369 270q0 -120 39 -158t170 -38v-74h-533v74q68 0 110 38t42 119v480l-152 75v48l272 110h52v-203h4q70 115 120 155q51 40 121 40t115 -41t45 -72t-22 -84t-59 -53q-38 0 -81 48q-44 48 -78 48t-69 -32t-96 -119v-361z" />
    <glyph glyph-name="s" unicode="s" horiz-adv-x="811" 
d="M596 635q-44 233 -203 233q-78 0 -119 -36t-41 -102q0 -67 79 -116t192 -97t158 -93q66 -66 66 -184t-85 -190q-83 -73 -241 -73t-289 66v258h67q33 -248 219 -248q82 0 135 41q52 42 52 100t-46 98t-108 62t-147 68q-85 45 -143 103t-58 168q0 111 84 181t231 70
t260 -88v-221h-63z" />
    <glyph glyph-name="t" unicode="t" 
d="M367 819v-594q-1 -71 27 -97t114 -26t147 11v-101q-219 -35 -268 -35q-100 0 -146 43t-46 138v661h-154v55q123 43 256 211h70v-163h278v-103h-278z" />
    <glyph glyph-name="u" unicode="u" horiz-adv-x="1173" 
d="M479 -23q-123 0 -199 66t-77 203v401q0 117 -32 148t-132 30v74l336 23v-572q0 -227 186 -227q125 0 260 106v418q0 117 -33 148t-143 30v74l348 23v-709q0 -72 29 -94t111 -4v-80l-312 -58v158q-170 -158 -342 -158z" />
    <glyph glyph-name="v" unicode="v" horiz-adv-x="980" 
d="M4 922h430v-74q-177 -4 -117 -135l211 -498l197 449q35 76 6 129t-115 55v74h363v-74q-57 -10 -84 -37t-66 -111l-323 -723h-66l-315 766q-23 57 -45 77q-23 19 -76 28v74z" />
    <glyph glyph-name="w" unicode="w" horiz-adv-x="1492" 
d="M537 848v74h444v-74q-93 -8 -113 -52t23 -145l170 -424l182 439q41 103 -9 152q-30 30 -93 30v74h336v-74q-49 -10 -73 -30t-46 -75l-318 -766h-65l-225 584l-258 -584h-70l-297 738q-29 75 -49 99t-60 34v74h377v-74q-145 -6 -82 -160l199 -475l203 453q-47 122 -75 152
t-101 30z" />
    <glyph glyph-name="x" unicode="x" horiz-adv-x="1024" 
d="M20 922h424v-74q-139 -14 -59 -109l147 -176l130 142q50 51 32 97t-96 46v74h377v-74q-68 -14 -104 -41t-132 -135l-149 -168l293 -336q45 -51 67 -70q23 -18 56 -24v-74h-457v74q94 14 109 48t-37 91l-150 170l-127 -139q-59 -62 -42 -116t112 -54v-74h-394v74
q83 21 175 121l229 245l-291 342q-31 36 -53 50t-60 16v74z" />
    <glyph glyph-name="y" unicode="y" horiz-adv-x="980" 
d="M4 922h447v-74q-90 -2 -113 -39t12 -117l211 -483l176 448q35 79 6 133t-118 58v74h354v-74q-57 -12 -84 -43t-59 -113l-340 -864q-88 -219 -269 -219q-71 0 -117 33t-46 76q0 44 25 68q26 24 62 24q37 0 73 -33t83 -33q94 0 170 246l-325 737q-37 84 -64 102t-84 19v74z
" />
    <glyph glyph-name="z" unicode="z" horiz-adv-x="892" 
d="M492 74q121 0 183 53t109 164h74l-43 -291h-786v33l600 815h-215q-92 0 -154 -33t-121 -110h-57v251h45q29 -26 53 -30t90 -4h568v-74l-578 -774h232z" />
    <glyph glyph-name="braceleft" unicode="{" horiz-adv-x="983" 
d="M543 756q0 41 -24 139t-23 168q0 145 105 255t269 130v-27q-227 -55 -227 -237q0 -49 24 -156t23 -160q0 -108 -80 -202t-215 -146q135 -51 215 -145t80 -203q0 -52 -24 -158t-23 -157q0 -182 227 -238v-27q-164 20 -269 130t-105 255q0 72 24 170t23 138q0 79 -65 139
t-165 74v45q100 14 165 73t65 140z" />
    <glyph glyph-name="bar" unicode="|" horiz-adv-x="1079" 
d="M494 1536h90v-2048h-90v2048z" />
    <glyph glyph-name="braceright" unicode="}" horiz-adv-x="983" 
d="M440 285q0 -47 24 -145t23 -163q0 -145 -105 -255t-269 -130v27q227 55 227 238q0 41 -24 146t-23 169q0 109 80 203t215 145q-135 52 -215 146t-80 202q-1 61 23 168t24 148q0 182 -227 237v27q164 -20 269 -130t105 -255q1 -61 -23 -159t-24 -148q0 -80 65 -140
t165 -73v-45q-100 -14 -165 -74t-65 -139z" />
    <glyph glyph-name="asciitilde" unicode="~" horiz-adv-x="960" 
d="M756 506q-59 0 -124 20q-66 20 -232 90t-230 70q-150 0 -176 -178h-60q8 139 56 211q74 113 205 112q115 0 417 -136q211 -95 299 0q46 48 56 134h57q-4 -151 -77 -237t-191 -86z" />
    <glyph glyph-name="uni00A0" unicode="&#xa0;" horiz-adv-x="569" 
 />
    <glyph glyph-name="exclamdown" unicode="&#xa1;" horiz-adv-x="598" 
d="M285 653h28q29 0 31 -39l70 -915q4 -49 -12 -69t-68 -21h-70q-51 0 -67 20t-13 70l70 915q2 39 31 39zM300 811q-52 0 -89 37t-37 88t38 89t89 38t88 -37t37 -89t-37 -89t-89 -37z" />
    <glyph glyph-name="cent" unicode="&#xa2;" horiz-adv-x="1130" 
d="M623 860q-121 0 -200 -84t-79 -216t30 -209t101 -138l221 639q-33 8 -73 8zM979 756q-1 -41 -21 -66q-20 -24 -57 -24t-57 20t-40 64t-40 67l-225 -645q69 -33 149 -33t148 36t102 97l47 -30q-29 -119 -133 -193t-240 -74q-74 0 -135 21l-80 -232h-80l91 259
q-111 63 -174 177q-62 114 -62 268t117 316q59 82 173 127t263 29l102 289h80l-104 -301q176 -43 176 -172z" />
    <glyph glyph-name="sterling" unicode="&#xa3;" horiz-adv-x="1386" 
d="M1112 -180q0 32 -36 80q-36 46 -36 82t29 68t71 32t72 -38t31 -110q0 -72 -35 -141q-57 -113 -191 -165q-52 -19 -104 -19q-99 0 -218 99q-46 40 -94 78q-109 86 -245 56q-115 -233 -204 -233q-35 1 -60 25t-24 59q0 106 180 207l96 333h-250l17 89h258l104 374
q101 356 245 542t376 185q110 0 180 -38t70 -89t-24 -82q-22 -30 -54 -30t-70 35q-39 35 -89 69t-116 35q-66 0 -119 -51q-85 -82 -161 -375q-29 -109 -73 -281t-83 -294h260l-22 -89h-265q-53 -162 -125 -292q165 56 294 -9q71 -35 115 -76q116 -112 198 -112q44 0 74 22
q28 22 28 54z" />
    <glyph glyph-name="currency" unicode="&#xa4;" horiz-adv-x="1366" 
d="M377 668q0 -127 91 -218q91 -92 218 -92t217 92t90 218q0 127 -91 217t-217 90t-217 -90t-91 -217zM1143 667q0 -138 -86 -266l127 -127l-105 -106l-127 127q-129 -86 -265 -86t-267 86l-129 -127l-107 106l129 127q-86 127 -86 265t86 268l-129 127l107 106l129 -129
q131 86 266 86t266 -86l127 129l105 -106l-127 -129q86 -127 86 -265z" />
    <glyph glyph-name="yen" unicode="&#xa5;" horiz-adv-x="1357" 
d="M934 958h-359l181 -264zM29 958v82h241l-86 127q-41 61 -62 84q-22 23 -54 40t-109 28v78h614v-78q-94 -7 -127 -25q-32 -18 -32 -59t30 -88l74 -107h473l2 4q55 80 55 148t-53 100q-33 18 -100 27v78h504v-78q-63 -8 -111 -47t-125 -152l-55 -80h221v-82h-278l-263 -372
h539v-82h-539v-191q0 -113 23 -151q19 -37 69 -61t113 -23v-78h-628v78q156 0 194 80q25 43 25 155v191h-555v82h555l-254 372h-301z" />
    <glyph glyph-name="brokenbar" unicode="&#xa6;" horiz-adv-x="1079" 
d="M494 358h90v-716h-90v716zM494 1382h90v-716h-90v716z" />
    <glyph glyph-name="section" unicode="&#xa7;" horiz-adv-x="874" 
d="M698 29q0 170 -66 344q-67 174 -149 295q-226 334 -258 516h-4q-43 -94 -43 -228t50 -276t121 -253q71 -112 141 -215q168 -245 165 -384l4 -4q39 117 39 205zM84 924q0 225 124 366t318 142q112 0 176 -39t64 -109q0 -34 -25 -58t-63 -24t-129 71q-92 71 -140 71
t-77 -32t-29 -85t50 -143t122 -197q71 -107 143 -227t122 -272t51 -302q0 -231 -114 -354t-327 -123q-106 0 -174 40t-67 101q0 37 28 62q78 67 194 -45q71 -70 127 -70t86 33t30 87t-51 141q-50 87 -122 186t-144 214q-73 114 -123 264t-50 302z" />
    <glyph glyph-name="dieresis" unicode="&#xa8;" 
d="M166 1337q45 1 77 -31q31 -32 31 -77t-32 -77t-76 -32q-45 0 -77 32t-32 77t32 77t77 31zM518 1337q45 1 77 -31t32 -77t-32 -77t-77 -32t-77 32t-31 77q0 45 31 77q32 31 77 31z" />
    <glyph glyph-name="copyright" unicode="&#xa9;" horiz-adv-x="1556" 
d="M1425 688q0 268 -189 458q-190 190 -458 189q-268 0 -457 -189q-189 -190 -189 -458t188 -458q190 -190 458 -189q268 0 458 189q189 190 189 458zM1487 688q0 -293 -208 -501q-208 -207 -501 -207q-292 0 -500 208t-208 500q0 293 208 501t500 208t501 -208
q208 -208 208 -501zM807 1100q-150 0 -236 -104t-86 -296q0 -190 87 -294t263 -104t293 159l39 -19q-139 -205 -385 -204q-198 0 -330 128t-132 322t142 325q144 132 357 132q70 0 142 -23t81 -22q29 0 48 45h38l21 -281h-39q-72 236 -303 236z" />
    <glyph glyph-name="ordfeminine" unicode="&#xaa;" horiz-adv-x="641" 
d="M178 930q0 -24 27 -46t82 -22t121 64v153q-27 -10 -63 -23q-57 -21 -112 -43q-55 -23 -55 -83zM408 1217q0 45 -41 69t-81 23t-72 -19t-32 -36t14 -37t17 -29q4 -10 -10 -23l-76 -30q-14 -5 -31 30q-16 35 -16 52q0 59 72 101t174 42q193 0 192 -133v-305q0 -40 16 -50
t58 11l12 -43q-57 -59 -108 -60q-78 0 -88 88q-111 -88 -187 -88t-118 37t-42 97t46 97q46 38 104 56q58 19 113 35t84 26v89z" />
    <glyph glyph-name="guillemotleft" unicode="&#xab;" horiz-adv-x="704" 
d="M231 516l185 -450h-49l-304 450l304 451h49zM522 516l109 -364h-49l-207 364l207 365h49z" />
    <glyph glyph-name="logicalnot" unicode="&#xac;" horiz-adv-x="1366" 
d="M135 983h1096v-631h-158v473h-938v158z" />
    <glyph glyph-name="uni00AD" unicode="&#xad;" horiz-adv-x="747" 
d="M59 408v155h629v-155h-629z" />
    <glyph glyph-name="registered" unicode="&#xae;" horiz-adv-x="1556" 
d="M1425 688q0 268 -189 458q-190 190 -458 189q-268 0 -457 -189q-189 -190 -189 -458t188 -458q190 -190 458 -189q268 0 458 189q189 190 189 458zM1487 688q0 -293 -208 -501q-208 -207 -501 -207q-292 0 -500 208t-208 500q0 293 208 501t500 208t501 -208
q208 -208 208 -501zM625 707h32q117 0 185 47t68 132t-58 139q-57 54 -145 54q-41 0 -82 -14v-358zM625 664v-297q0 -43 26 -60q27 -16 90 -14v-35h-366v35q57 -3 81 19t23 71v612q0 47 -19 70t-73 25v34h385q135 0 217 -61t82 -164q0 -164 -223 -221l209 -297
q35 -51 59 -69q25 -17 62 -19v-35h-185l-295 406h-73z" />
    <glyph glyph-name="macron" unicode="&#xaf;" 
d="M23 1294h636v-129h-636v129z" />
    <glyph glyph-name="degree" unicode="&#xb0;" horiz-adv-x="817" 
d="M616 1090q0 86 -61 147t-147 61t-148 -61t-61 -147q0 -86 61 -148q62 -62 148 -61q86 -1 147 61t61 148zM715 1090q0 -128 -90 -218t-217 -90t-218 90q-90 90 -90 218t90 217q90 90 218 90t217 -90q90 -90 90 -217z" />
    <glyph glyph-name="plusminus" unicode="&#xb1;" horiz-adv-x="1366" 
d="M135 158h1096v-158h-1096v158zM135 963h469v464h158v-464h469v-158h-469v-465h-158v465h-469v158z" />
    <glyph glyph-name="two.superior" unicode="&#xb2;" horiz-adv-x="704" 
d="M74 653v45q55 51 168 151t155 145q76 81 76 141q0 59 -38 98t-93 39q-54 0 -110 -43t-89 -119l-65 23q100 227 297 227q100 0 169 -57q68 -57 68 -137t-44 -131q-44 -50 -160 -132t-191 -151h236q51 0 82 19t51 69h65l-63 -187h-514z" />
    <glyph glyph-name="three.superior" unicode="&#xb3;" 
d="M416 1195q0 37 -28 61t-66 24q-98 0 -207 -109l-52 33q55 74 135 115t160 41q82 0 138 -37t55 -94q0 -74 -125 -146v-4q84 -2 134 -53t50 -119q0 -106 -106 -186t-242 -80t-215 51l33 43q80 -39 166 -39t157 56q72 56 72 133q0 51 -38 88t-94 37t-128 -43l-27 47
q137 70 183 106q45 37 45 75z" />
    <glyph glyph-name="acute" unicode="&#xb4;" 
d="M565 1421l-295 -346h-32l104 346h223z" />
    <glyph glyph-name="mu" unicode="&#xb5;" horiz-adv-x="1024" 
d="M113 922h172v-586q-1 -125 33 -180t108 -56q125 0 229 133v689h172v-727q-1 -51 19 -80t47 -29q61 0 80 123h43q-2 -115 -60 -173t-136 -58t-114 41q-36 42 -51 149q-83 -102 -155 -146t-163 -44t-144 88h-5q0 -129 25 -241t25 -155q0 -42 -27 -74t-68 -32t-65 30t-23 72
q0 43 29 163t29 286v807z" />
    <glyph glyph-name="paragraph" unicode="&#xb6;" horiz-adv-x="927" 
d="M803 1341v-1732h-74v1732h-186v-1732h-74v1034q-477 0 -477 381q0 178 118 275t330 98h494v-56h-131z" />
    <glyph glyph-name="periodcentered" unicode="&#xb7;" horiz-adv-x="598" 
d="M298 797q52 0 89 -37t37 -89t-38 -89t-89 -37t-88 37t-37 90t37 89t89 36z" />
    <glyph glyph-name="cedilla" unicode="&#xb8;" 
d="M528 -164q0 -82 -74 -137t-180 -55q-43 0 -118 16l8 33q45 -10 86 -10q41 1 80 33t39 77q0 94 -144 111l133 71q86 -8 128 -47t42 -92z" />
    <glyph glyph-name="one.superior" unicode="&#xb9;" 
d="M418 1360v-563q0 -92 80 -92h30v-52h-366v52h35q45 -1 63 21t19 71v370q-1 49 -17 69t-63 19h-33v52q143 0 196 53h56z" />
    <glyph glyph-name="ordmasculine" unicode="&#xba;" horiz-adv-x="724" 
d="M186 1118q0 -125 56 -206t133 -81q78 1 126 49t48 127q1 79 -27 155q-54 147 -172 147q-164 -1 -164 -191zM367 780q-127 0 -217 88t-91 208q0 120 88 202t217 82q130 0 216 -80t86 -205t-86 -210t-213 -85z" />
    <glyph glyph-name="guillemotright" unicode="&#xbb;" horiz-adv-x="704" 
d="M473 516l-184 451h49l303 -451l-303 -450h-49zM182 516l-108 365h49l207 -365l-207 -364h-49z" />
    <glyph glyph-name="onequarter" unicode="&#xbc;" horiz-adv-x="1855" 
d="M403 1360v-563q0 -92 80 -92h31v-52h-367v52h35q45 0 64 21q18 22 18 71v370q0 49 -16 69t-64 19h-32v52q143 0 196 53h55zM479 -45h-108l944 1491h108zM1411 260v318h-4l-246 -318h250zM1550 195v-72q0 -39 20 -55t85 -17v-51h-352v51q61 1 85 15t23 55v74h-330v69
l353 443h116v-447q37 0 62 66h63l-20 -131h-105z" />
    <glyph glyph-name="onehalf" unicode="&#xbd;" horiz-adv-x="1855" 
d="M403 1360v-563q0 -92 80 -92h31v-52h-367v52h35q45 0 64 21q18 22 18 71v370q0 49 -16 69t-64 19h-32v52q143 0 196 53h55zM438 -45h-108l944 1491h108zM1077 0v45q93 87 189 170q96 84 152 145t58 120q1 60 -37 100t-93 38q-54 0 -110 -43t-89 -118l-66 22
q100 227 297 228q100 1 169 -57t69 -138t-44 -130t-160 -132t-191 -152h235q51 0 82 20t51 68h66l-64 -186h-514z" />
    <glyph glyph-name="threequarters" unicode="&#xbe;" horiz-adv-x="1855" 
d="M459 1195q0 37 -28 61t-66 24q-98 0 -207 -109l-52 33q121 156 291 156q85 0 141 -37t56 -94q0 -74 -125 -146v-4q84 -2 134 -53t50 -119q0 -106 -106 -186q-105 -80 -241 -80t-216 51l33 43q79 -39 165 -39t158 56t72 133q0 51 -38 88t-95 37t-127 -43l-27 47
q137 70 183 106q45 37 45 75zM520 -45h-108l944 1491h108zM1452 260v318h-4l-246 -318h250zM1591 195v-72q1 -39 21 -55t84 -17v-51h-353v51q61 1 85 15t24 55v74h-330v69l353 443h116v-447q37 0 62 66h63l-20 -131h-105z" />
    <glyph glyph-name="questiondown" unicode="&#xbf;" horiz-adv-x="788" 
d="M520 811q-53 0 -90 37t-37 88t37 89t89 38t89 -37t37 -89t-36 -89t-89 -37zM563 682q-1 -117 15 -210q16 -92 16 -106t-12 -26t-74 -26q-184 -40 -249 -105q-66 -65 -66 -137q0 -102 89 -200t183 -99q39 1 88 23t83 22t58 -24t23 -70q0 -46 -49 -81q-49 -34 -140 -34
t-185 68q-156 116 -245 345q-35 89 -35 140q0 121 78 198q59 60 169 102t142 74t37 146h74z" />
    <glyph glyph-name="Agrave" unicode="&#xc0;" horiz-adv-x="1472" 
d="M514 1860h223l105 -347h-33zM893 655l-231 555l-220 -555h451zM477 0h-471v78q76 18 114 64t85 165l411 1024l-32 66h219l508 -1182q33 -73 67 -105t88 -32v-78h-573v78q231 22 151 217l-104 250h-541l-73 -193q-45 -106 -4 -187t155 -87v-78z" />
    <glyph glyph-name="Aacute" unicode="&#xc1;" horiz-adv-x="1472" 
d="M961 1860l-295 -347h-33l104 347h224zM893 655l-231 555l-220 -555h451zM477 0h-471v78q76 18 114 64t85 165l411 1024l-32 66h219l508 -1182q33 -73 67 -105t88 -32v-78h-573v78q231 22 151 217l-104 250h-541l-73 -193q-45 -106 -4 -187t155 -87v-78z" />
    <glyph glyph-name="Acircumflex" unicode="&#xc2;" horiz-adv-x="1472" 
d="M643 1835h184l191 -330h-31l-272 215l-230 -215h-30zM893 655l-231 555l-220 -555h451zM477 0h-471v78q76 18 114 64t85 165l411 1024l-32 66h219l508 -1182q33 -73 67 -105t88 -32v-78h-573v78q231 22 151 217l-104 250h-541l-73 -193q-45 -106 -4 -187t155 -87v-78z
" />
    <glyph glyph-name="Atilde" unicode="&#xc3;" horiz-adv-x="1472" 
d="M930 1661q80 0 96 141h31v-18q-1 -110 -55 -178t-130 -68t-184 71t-147 70q-78 0 -92 -137h-31q2 125 51 193q98 137 316 -3q110 -71 145 -71zM893 655l-231 555l-220 -555h451zM477 0h-471v78q76 18 114 64t85 165l411 1024l-32 66h219l508 -1182q33 -73 67 -105t88 -32
v-78h-573v78q231 22 151 217l-104 250h-541l-73 -193q-45 -106 -4 -187t155 -87v-78z" />
    <glyph glyph-name="Adieresis" unicode="&#xc4;" horiz-adv-x="1472" 
d="M561 1776q45 0 77 -32t32 -77t-32 -77t-77 -32t-77 32t-31 77q0 45 31 77q32 32 77 32zM913 1776q45 0 77 -32t32 -77t-32 -77t-77 -32t-77 32t-31 77q-1 45 31 77t77 32zM893 655l-231 555l-220 -555h451zM477 0h-471v78q76 18 114 64t85 165l411 1024l-32 66h219
l508 -1182q33 -73 67 -105t88 -32v-78h-573v78q231 22 151 217l-104 250h-541l-73 -193q-45 -106 -4 -187t155 -87v-78z" />
    <glyph glyph-name="Aring" unicode="&#xc5;" horiz-adv-x="1472" 
d="M735 1790q-51 0 -86 -35t-35 -86t35 -87t86 -36t87 36t36 87t-36 86t-87 35zM735 1860q80 0 136 -56q57 -56 57 -135q0 -80 -56 -136t-137 -56q-80 0 -135 56t-55 136q0 79 55 135t135 56zM893 655l-231 555l-220 -555h451zM477 0h-471v78q76 18 114 64t85 165l411 1024
l-32 66h219l508 -1182q33 -73 67 -105t88 -32v-78h-573v78q231 22 151 217l-104 250h-541l-73 -193q-45 -106 -4 -187t155 -87v-78z" />
    <glyph glyph-name="AE" unicode="&#xc6;" horiz-adv-x="2048" 
d="M831 768l-149 451l-211 -451h360zM1442 88h94q123 0 182 44t191 226h78l-78 -358h-1090v78q125 0 160 59t-8 187l-117 356h-424l-121 -264q-89 -192 -5 -285q46 -51 149 -53v-78h-490v78q106 14 172 160l404 880q90 197 -109 201v78h1215l98 -312h-72q-137 147 -202 185
t-193 39h-406l185 -541h319q111 0 147 44t15 157h78l166 -486h-84q-109 197 -275 197h-340l123 -379q45 -139 84 -176t154 -37z" />
    <glyph glyph-name="Ccedilla" unicode="&#xc7;" horiz-adv-x="1599" 
d="M670 -317q40 1 80 33t38 77q0 94 -143 111l133 71q86 -8 128 -47t42 -92q0 -82 -74 -137t-180 -55q-43 0 -119 16l9 33q46 -10 86 -10zM915 1333q-223 0 -381 -163t-159 -447q0 -284 152 -472q153 -187 417 -188q176 -1 298 87t159 258h76l-11 -322q-118 -47 -276 -79
t-281 -32q-344 0 -563 197t-219 494t200 517q97 107 256 173q356 146 834 -31l49 -326h-65q-70 154 -202 244t-284 90z" />
    <glyph glyph-name="Egrave" unicode="&#xc8;" horiz-adv-x="1386" 
d="M471 1860h223l105 -347h-33zM53 0v78q117 0 168 48t51 161v823q0 106 -49 158t-170 51v78h1184v-312h-74q-53 131 -132 177t-216 47h-328v-537h275q145 0 206 44q60 44 68 153h84v-494h-84q-18 117 -78 163t-192 46h-279v-338q-1 -146 51 -202t189 -56h102q170 0 263 54
q92 54 163 200h93l-93 -342h-1202z" />
    <glyph glyph-name="Eacute" unicode="&#xc9;" horiz-adv-x="1386" 
d="M918 1860l-295 -347h-33l104 347h224zM53 0v78q117 0 168 48t51 161v823q0 106 -49 158t-170 51v78h1184v-312h-74q-53 131 -132 177t-216 47h-328v-537h275q145 0 206 44q60 44 68 153h84v-494h-84q-18 117 -78 163t-192 46h-279v-338q-1 -146 51 -202t189 -56h102
q170 0 263 54q92 54 163 200h93l-93 -342h-1202z" />
    <glyph glyph-name="Ecircumflex" unicode="&#xca;" horiz-adv-x="1386" 
d="M600 1835h184l191 -330h-31l-272 215l-230 -215h-30zM53 0v78q117 0 168 48t51 161v823q0 106 -49 158t-170 51v78h1184v-312h-74q-53 131 -132 177t-216 47h-328v-537h275q145 0 206 44q60 44 68 153h84v-494h-84q-18 117 -78 163t-192 46h-279v-338q-1 -146 51 -202
t189 -56h102q170 0 263 54q92 54 163 200h93l-93 -342h-1202z" />
    <glyph glyph-name="Edieresis" unicode="&#xcb;" horiz-adv-x="1386" 
d="M518 1776q45 0 77 -32t32 -77t-32 -77t-77 -32t-77 32t-31 77q0 45 31 77q32 32 77 32zM870 1776q45 0 77 -32t32 -77t-32 -77t-77 -32q-44 0 -76 32t-32 77t32 77t76 32zM53 0v78q117 0 168 48t51 161v823q0 106 -49 158t-170 51v78h1184v-312h-74q-53 131 -132 177
t-216 47h-328v-537h275q145 0 206 44q60 44 68 153h84v-494h-84q-18 117 -78 163t-192 46h-279v-338q-1 -146 51 -202t189 -56h102q170 0 263 54q92 54 163 200h93l-93 -342h-1202z" />
    <glyph glyph-name="Igrave" unicode="&#xcc;" horiz-adv-x="768" 
d="M162 1860h223l104 -347h-32zM494 1108v-823q0 -103 48 -155t171 -52v-78h-658v78q135 0 179 52t45 183v787q-1 119 -49 169t-175 50v78h658v-78q-115 0 -167 -48t-52 -163z" />
    <glyph glyph-name="Iacute" unicode="&#xcd;" horiz-adv-x="768" 
d="M608 1860l-295 -347h-32l104 347h223zM494 1108v-823q0 -103 48 -155t171 -52v-78h-658v78q135 0 179 52t45 183v787q-1 119 -49 169t-175 50v78h658v-78q-115 0 -167 -48t-52 -163z" />
    <glyph glyph-name="Icircumflex" unicode="&#xce;" horiz-adv-x="768" 
d="M291 1835h184l191 -330h-31l-273 215l-229 -215h-31zM494 1108v-823q0 -103 48 -155t171 -52v-78h-658v78q135 0 179 52t45 183v787q-1 119 -49 169t-175 50v78h658v-78q-115 0 -167 -48t-52 -163z" />
    <glyph glyph-name="Idieresis" unicode="&#xcf;" horiz-adv-x="768" 
d="M209 1776q45 0 77 -32t32 -77t-32 -77t-77 -32t-77 32t-32 77t32 77t77 32zM561 1776q45 0 77 -32t32 -77t-32 -77t-77 -32t-77 32t-31 77q0 45 31 77q32 32 77 32zM494 1108v-823q0 -103 48 -155t171 -52v-78h-658v78q135 0 179 52t45 183v787q-1 119 -49 169t-175 50
v78h658v-78q-115 0 -167 -48t-52 -163z" />
    <glyph glyph-name="Eth" unicode="&#xd0;" horiz-adv-x="1728" 
d="M504 1309v-537h436v-96h-436v-371q0 -97 58 -157t157 -60h117q260 0 400 164t140 412t-154 438q-77 94 -211 150t-309 57h-198zM59 1397h795q366 0 572 -207q206 -206 206 -474t-184 -480q-92 -106 -251 -171t-359 -65h-779v78q127 0 179 46q51 46 51 161v391h-230v96
h230v326q0 111 -47 166t-183 55v78z" />
    <glyph glyph-name="Ntilde" unicode="&#xd1;" horiz-adv-x="1728" 
d="M1059 1661q80 0 96 141h31v-18q0 -110 -54 -178t-130 -68t-185 71q-108 71 -147 70q-78 0 -92 -137h-31q2 125 51 193q99 138 317 -3q109 -71 144 -71zM14 1397h332l1047 -1061v670q-4 132 -50 222q-46 91 -194 91v78h551v-78q-111 0 -165 -84t-54 -229v-641
q1 -117 23 -227t24 -154h-135q-98 133 -164 198l-848 869v-711q0 -138 61 -200t189 -62v-78h-586v78q137 0 194 49q56 49 54 174v844l-90 90q-49 45 -88 61t-101 23v78z" />
    <glyph glyph-name="Ograve" unicode="&#xd2;" horiz-adv-x="1665" 
d="M610 1860h224l104 -347h-33zM356 764q0 -280 136 -491q136 -210 370 -210q201 0 324 152t123 399q0 184 -56 344q-55 160 -174 268t-282 107q-193 -1 -317 -145t-124 -424zM109 672q0 180 62 325q61 145 165 237q212 188 511 187q298 0 504 -208q205 -208 205 -517
t-217 -515t-520 -206t-507 197q-203 197 -203 500z" />
    <glyph glyph-name="Oacute" unicode="&#xd3;" horiz-adv-x="1665" 
d="M1057 1860l-295 -347h-33l105 347h223zM356 764q0 -280 136 -491q136 -210 370 -210q201 0 324 152t123 399q0 184 -56 344q-55 160 -174 268t-282 107q-193 -1 -317 -145t-124 -424zM109 672q0 180 62 325q61 145 165 237q212 188 511 187q298 0 504 -208
q205 -208 205 -517t-217 -515t-520 -206t-507 197q-203 197 -203 500z" />
    <glyph glyph-name="Ocircumflex" unicode="&#xd4;" horiz-adv-x="1665" 
d="M739 1835h185l190 -330h-31l-272 215l-229 -215h-31zM356 764q0 -280 136 -491q136 -210 370 -210q201 0 324 152t123 399q0 184 -56 344q-55 160 -174 268t-282 107q-193 -1 -317 -145t-124 -424zM109 672q0 180 62 325q61 145 165 237q212 188 511 187q298 0 504 -208
q205 -208 205 -517t-217 -515t-520 -206t-507 197q-203 197 -203 500z" />
    <glyph glyph-name="Otilde" unicode="&#xd5;" horiz-adv-x="1665" 
d="M1026 1661q80 0 96 141h31v-18q0 -110 -54 -178t-130 -68q-77 0 -185 71t-147 70q-78 0 -92 -137h-31q2 125 51 193q99 138 318 -3q109 -71 143 -71zM356 764q0 -280 136 -491q136 -210 370 -210q201 0 324 152t123 399q0 184 -56 344q-55 160 -174 268t-282 107
q-193 -1 -317 -145t-124 -424zM109 672q0 180 62 325q61 145 165 237q212 188 511 187q298 0 504 -208q205 -208 205 -517t-217 -515t-520 -206t-507 197q-203 197 -203 500z" />
    <glyph glyph-name="Odieresis" unicode="&#xd6;" horiz-adv-x="1665" 
d="M657 1776q45 0 77 -32t32 -77t-32 -77t-77 -32t-77 32t-31 77q-1 45 31 77t77 32zM1010 1776q44 0 76 -32t32 -77t-32 -77t-76 -32t-77 32q-32 32 -32 77t32 77t77 32zM356 764q0 -280 136 -491q136 -210 370 -210q201 0 324 152t123 399q0 184 -56 344q-55 160 -174 268
t-282 107q-193 -1 -317 -145t-124 -424zM109 672q0 180 62 325q61 145 165 237q212 188 511 187q298 0 504 -208q205 -208 205 -517t-217 -515t-520 -206t-507 197q-203 197 -203 500z" />
    <glyph glyph-name="multiply" unicode="&#xd7;" horiz-adv-x="1368" 
d="M176 1063l111 111l397 -398l397 398l111 -111l-397 -397l397 -398l-111 -110l-397 397l-395 -395l-111 110l395 396z" />
    <glyph glyph-name="Oslash" unicode="&#xd8;" horiz-adv-x="1665" 
d="M1309 622q0 256 -111 457l-690 -831q139 -184 347 -184t331 151t123 407zM810 1333q-204 0 -329 -149q-125 -150 -125 -406t103 -452l690 833q-135 174 -339 174zM1556 702q0 -316 -217 -521q-217 -206 -540 -206q-246 0 -408 136l-141 -170l-64 59l140 164
q-217 206 -217 522q-1 316 205 526t522 209q239 0 421 -129l134 160l67 -59l-131 -156q229 -219 229 -535z" />
    <glyph glyph-name="Ugrave" unicode="&#xd9;" horiz-adv-x="1705" 
d="M631 1860h223l104 -347h-32zM35 1397h672v-78q-131 0 -183 -47t-51 -166v-637q0 -172 116 -271q117 -100 315 -100t328 110t130 335v536q0 121 -52 181t-190 59v78h551v-78q-217 0 -217 -215v-578q0 -306 -171 -428q-171 -123 -447 -123q-274 0 -426 129t-152 324v694
q0 98 -48 148t-175 49v78z" />
    <glyph glyph-name="Uacute" unicode="&#xda;" horiz-adv-x="1705" 
d="M1077 1860l-295 -347h-32l104 347h223zM35 1397h672v-78q-131 0 -183 -47t-51 -166v-637q0 -172 116 -271q117 -100 315 -100t328 110t130 335v536q0 121 -52 181t-190 59v78h551v-78q-217 0 -217 -215v-578q0 -306 -171 -428q-171 -123 -447 -123q-274 0 -426 129
t-152 324v694q0 98 -48 148t-175 49v78z" />
    <glyph glyph-name="Ucircumflex" unicode="&#xdb;" horiz-adv-x="1705" 
d="M760 1835h184l191 -330h-31l-273 215l-229 -215h-31zM35 1397h672v-78q-131 0 -183 -47t-51 -166v-637q0 -172 116 -271q117 -100 315 -100t328 110t130 335v536q0 121 -52 181t-190 59v78h551v-78q-217 0 -217 -215v-578q0 -306 -171 -428q-171 -123 -447 -123
q-274 0 -426 129t-152 324v694q0 98 -48 148t-175 49v78z" />
    <glyph glyph-name="Udieresis" unicode="&#xdc;" horiz-adv-x="1705" 
d="M678 1776q45 0 77 -32q31 -32 31 -77t-32 -77t-76 -32q-45 0 -77 32t-32 77t32 77t77 32zM1030 1776q45 0 77 -32t32 -77t-32 -77t-77 -32t-77 32t-31 77q0 45 31 77q32 32 77 32zM35 1397h672v-78q-131 0 -183 -47t-51 -166v-637q0 -172 116 -271q117 -100 315 -100
t328 110t130 335v536q0 121 -52 181t-190 59v78h551v-78q-217 0 -217 -215v-578q0 -306 -171 -428q-171 -123 -447 -123q-274 0 -426 129t-152 324v694q0 98 -48 148t-175 49v78z" />
    <glyph glyph-name="Yacute" unicode="&#xdd;" horiz-adv-x="1472" 
d="M961 1860l-295 -347h-33l104 347h224zM846 270q0 -193 205 -192v-78h-629v78q209 0 209 194v314l-428 626q-63 94 -187 107v78h615v-78q-119 0 -150 -50t27 -130l305 -445l238 348q76 106 49 188t-148 89v78h504v-78q-61 -8 -110 -49t-125 -150l-375 -534v-316z" />
    <glyph glyph-name="Thorn" unicode="&#xde;" horiz-adv-x="1300" 
d="M492 999v-596h182q170 0 248 86q78 87 78 201t-67 202q-36 48 -105 78t-164 29h-172zM276 276v861q0 100 -54 141t-154 41v78h634v-78q-211 0 -210 -189v-43h272q254 1 369 -109t114 -263q0 -111 -47 -186q-47 -74 -104 -116q-56 -42 -156 -70t-229 -28h-219v-55
q0 -184 235 -184v-76h-659v78q106 0 157 47t51 151z" />
    <glyph glyph-name="germandbls" unicode="&#xdf;" horiz-adv-x="1173" 
d="M45 881q0 31 55 25q55 -5 82 23q27 29 36 95t32 146t84 143q119 119 295 119q177 0 285 -84t108 -215q0 -102 -67 -171t-222 -120v-4q182 -23 269 -150t88 -274q0 -86 -34 -182t-115 -171t-179 -75t-148 39q-49 39 -49 87t25 72q26 24 62 25q36 0 52 -25q16 -26 16 -54
q-1 -28 15 -52q17 -24 65 -25q48 0 86 74t38 175q0 100 -34 198t-119 181t-202 97v86q133 20 199 89t66 166t-68 161t-170 63q-102 0 -163 -74q-60 -75 -60 -220v-779q1 -98 23 -140t91 -56v-74h-442v78q156 14 156 196v537h-156v70z" />
    <glyph glyph-name="agrave" unicode="&#xe0;" horiz-adv-x="980" 
d="M289 1421h223l104 -346h-32zM418 115q106 0 207 106v256l-109 -41q-135 -49 -188 -88q-54 -39 -54 -96t36 -97t108 -40zM625 694q1 82 -61 122t-124 40t-112 -31q-49 -31 -49 -60t22 -64q44 -70 8 -80l-121 -58q-8 -4 -23 23q-44 81 -44 119q0 87 97 163t280 76
q299 0 299 -219v-524q0 -57 31 -72q32 -14 83 18l19 -73q-84 -96 -154 -96q-134 -1 -151 147q-164 -147 -303 -148q-100 -1 -165 61t-65 158t72 162q72 64 242 121l219 76v139z" />
    <glyph glyph-name="aacute" unicode="&#xe1;" horiz-adv-x="980" 
d="M715 1421l-295 -346h-33l105 346h223zM418 115q106 0 207 106v256l-109 -41q-135 -49 -188 -88q-54 -39 -54 -96t36 -97t108 -40zM625 694q1 82 -61 122t-124 40t-112 -31q-49 -31 -49 -60t22 -64q44 -70 8 -80l-121 -58q-8 -4 -23 23q-44 81 -44 119q0 87 97 163t280 76
q299 0 299 -219v-524q0 -57 31 -72q32 -14 83 18l19 -73q-84 -96 -154 -96q-134 -1 -151 147q-164 -147 -303 -148q-100 -1 -165 61t-65 158t72 162q72 64 242 121l219 76v139z" />
    <glyph glyph-name="acircumflex" unicode="&#xe2;" horiz-adv-x="980" 
d="M397 1397h185l190 -330h-31l-272 215l-229 -215h-31zM418 115q106 0 207 106v256l-109 -41q-135 -49 -188 -88q-54 -39 -54 -96t36 -97t108 -40zM625 694q1 82 -61 122t-124 40t-112 -31q-49 -31 -49 -60t22 -64q44 -70 8 -80l-121 -58q-8 -4 -23 23q-44 81 -44 119
q0 87 97 163t280 76q299 0 299 -219v-524q0 -57 31 -72q32 -14 83 18l19 -73q-84 -96 -154 -96q-134 -1 -151 147q-164 -147 -303 -148q-100 -1 -165 61t-65 158t72 162q72 64 242 121l219 76v139z" />
    <glyph glyph-name="atilde" unicode="&#xe3;" horiz-adv-x="980" 
d="M351 1364q79 0 190 -71t143 -70q80 0 96 141h31v-18q0 -109 -54 -178q-55 -68 -131 -68t-184 70t-147 71q-78 0 -92 -137h-31q2 124 51 192t128 68zM418 115q106 0 207 106v256l-109 -41q-135 -49 -188 -88q-54 -39 -54 -96t36 -97t108 -40zM625 694q1 82 -61 122
t-124 40t-112 -31q-49 -31 -49 -60t22 -64q44 -70 8 -80l-121 -58q-8 -4 -23 23q-44 81 -44 119q0 87 97 163t280 76q299 0 299 -219v-524q0 -57 31 -72q32 -14 83 18l19 -73q-84 -96 -154 -96q-134 -1 -151 147q-164 -147 -303 -148q-100 -1 -165 61t-65 158t72 162
q72 64 242 121l219 76v139z" />
    <glyph glyph-name="adieresis" unicode="&#xe4;" horiz-adv-x="980" 
d="M315 1337q45 1 77 -31t32 -77t-32 -77t-77 -32t-77 32t-31 77q-1 45 31 77t77 31zM668 1337q44 1 76 -31t32 -77t-32 -77t-76 -32t-77 32q-32 32 -32 77t32 77t77 31zM418 115q106 0 207 106v256l-109 -41q-135 -49 -188 -88q-54 -39 -54 -96t36 -97t108 -40zM625 694
q1 82 -61 122t-124 40t-112 -31q-49 -31 -49 -60t22 -64q44 -70 8 -80l-121 -58q-8 -4 -23 23q-44 81 -44 119q0 87 97 163t280 76q299 0 299 -219v-524q0 -57 31 -72q32 -14 83 18l19 -73q-84 -96 -154 -96q-134 -1 -151 147q-164 -147 -303 -148q-100 -1 -165 61t-65 158
t72 162q72 64 242 121l219 76v139z" />
    <glyph glyph-name="aring" unicode="&#xe5;" horiz-adv-x="980" 
d="M489 1352q-51 0 -86 -35t-35 -86t36 -87q34 -36 85 -36t88 36q36 36 35 87q0 51 -35 86q-37 35 -88 35zM489 1421q81 0 137 -55t56 -135t-56 -136q-56 -57 -136 -57t-136 56q-55 56 -55 137q0 80 55 135t135 55zM418 115q106 0 207 106v256l-109 -41q-135 -49 -188 -88
q-54 -39 -54 -96t36 -97t108 -40zM625 694q1 82 -61 122t-124 40t-112 -31q-49 -31 -49 -60t22 -64q44 -70 8 -80l-121 -58q-8 -4 -23 23q-44 81 -44 119q0 87 97 163t280 76q299 0 299 -219v-524q0 -57 31 -72q32 -14 83 18l19 -73q-84 -96 -154 -96q-134 -1 -151 147
q-164 -147 -303 -148q-100 -1 -165 61t-65 158t72 162q72 64 242 121l219 76v139z" />
    <glyph glyph-name="ae" unicode="&#xe6;" horiz-adv-x="1404" 
d="M952 856q-178 0 -166 -287l365 80q-25 109 -69 158t-130 49zM246 238q0 -51 41 -87t100 -36q114 0 225 106v240q-202 -49 -284 -93t-82 -130zM977 -23q-201 0 -324 173q-178 -172 -356 -173q-103 1 -165 59t-62 138t32 130q32 52 69 82q36 30 162 74t279 72v117
q0 95 -43 151t-119 56t-129 -34t-53 -62q0 -45 32 -82t-5 -62l-92 -49q-37 -20 -68 39t-31 122t73 117q137 101 327 100t254 -124q86 123 258 123q139 0 229 -89t98 -239l-557 -120q-6 -184 59 -264t206 -80q176 0 274 114l43 -41q-135 -248 -391 -248z" />
    <glyph glyph-name="ccedilla" unicode="&#xe7;" horiz-adv-x="960" 
d="M342 -317q41 1 80 33t39 77q0 94 -144 111l134 71q86 -8 128 -47t42 -92q0 -82 -74 -137t-180 -55q-43 0 -119 16l8 33q45 -10 86 -10zM526 -23q-212 -1 -324 145t-112 328t111 330q55 74 151 119t228 45t224 -45t93 -139q1 -45 -21 -72q-22 -26 -61 -26t-63 30t-35 67
q-10 37 -54 67t-124 30q-127 0 -205 -91t-78 -239t91 -268q91 -119 257 -119t250 131l47 -30q-33 -121 -133 -192t-242 -71z" />
    <glyph glyph-name="egrave" unicode="&#xe8;" horiz-adv-x="960" 
d="M279 1421h223l104 -346h-33zM475 868q-87 0 -147 -62t-74 -165h426q-12 109 -66 168t-139 59zM895 567h-653q-8 -197 97 -311t253 -115q148 0 260 99l43 -39q-137 -223 -381 -224q-186 -1 -306 133t-120 343t123 350t305 141q123 0 213 -66t128 -148q38 -83 38 -163z" />
    <glyph glyph-name="eacute" unicode="&#xe9;" horiz-adv-x="960" 
d="M705 1421l-295 -346h-33l104 346h224zM475 868q-87 0 -147 -62t-74 -165h426q-12 109 -66 168t-139 59zM895 567h-653q-8 -197 97 -311t253 -115q148 0 260 99l43 -39q-137 -223 -381 -224q-186 -1 -306 133t-120 343t123 350t305 141q123 0 213 -66t128 -148
q38 -83 38 -163z" />
    <glyph glyph-name="ecircumflex" unicode="&#xea;" horiz-adv-x="960" 
d="M408 1397h184l190 -330h-30l-273 215l-229 -215h-31zM475 868q-87 0 -147 -62t-74 -165h426q-12 109 -66 168t-139 59zM895 567h-653q-8 -197 97 -311t253 -115q148 0 260 99l43 -39q-137 -223 -381 -224q-186 -1 -306 133t-120 343t123 350t305 141q123 0 213 -66
t128 -148q38 -83 38 -163z" />
    <glyph glyph-name="edieresis" unicode="&#xeb;" horiz-adv-x="960" 
d="M326 1337q44 1 76 -31t32 -77t-32 -77t-76 -32t-77 32q-32 32 -32 77t32 77t77 31zM678 1337q45 1 77 -31q31 -32 31 -77t-32 -77t-76 -32q-45 0 -77 32t-32 77t32 77t77 31zM475 868q-87 0 -147 -62t-74 -165h426q-12 109 -66 168t-139 59zM895 567h-653
q-8 -197 97 -311t253 -115q148 0 260 99l43 -39q-137 -223 -381 -224q-186 -1 -306 133t-120 343t123 350t305 141q123 0 213 -66t128 -148q38 -83 38 -163z" />
    <glyph glyph-name="igrave" unicode="&#xec;" horiz-adv-x="555" 
d="M76 1421h223l104 -346h-32zM209 223v496l-156 78v47l277 100h51v-706q0 -160 127 -164v-74h-447v74q63 0 105 38t43 111z" />
    <glyph glyph-name="iacute" unicode="&#xed;" horiz-adv-x="555" 
d="M502 1421l-295 -346h-33l105 346h223zM209 223v496l-156 78v47l277 100h51v-706q0 -160 127 -164v-74h-447v74q63 0 105 38t43 111z" />
    <glyph glyph-name="icircumflex" unicode="&#xee;" horiz-adv-x="555" 
d="M184 1397h185l190 -330h-31l-272 215l-229 -215h-31zM209 223v496l-156 78v47l277 100h51v-706q0 -160 127 -164v-74h-447v74q63 0 105 38t43 111z" />
    <glyph glyph-name="idieresis" unicode="&#xef;" horiz-adv-x="555" 
d="M102 1337q45 1 77 -31t32 -77t-32 -77t-77 -32q-44 0 -76 32t-32 77t32 77t76 31zM455 1337q45 1 77 -31t31 -77q0 -45 -32 -77q-33 -32 -77 -32t-76 32t-32 77t32 77t77 31zM209 223v496l-156 78v47l277 100h51v-706q0 -160 127 -164v-74h-447v74q63 0 105 38t43 111z
" />
    <glyph glyph-name="eth" unicode="&#xf0;" horiz-adv-x="1052" 
d="M993 469q0 -201 -134 -346t-328 -145q-193 0 -333 144t-140 344t132 339q133 139 324 139q106 0 178 -61l4 4q-63 164 -170 282l-227 -139l-37 55l217 132q-96 90 -213 151l78 47q139 -55 242 -133l217 133l37 -55l-199 -121q178 -153 265 -361t87 -409zM252 545
q0 -160 69 -314q34 -78 93 -128t135 -50q119 0 189 79t69 227q0 148 -63 313q-32 86 -94 141t-144 55q-254 1 -254 -323z" />
    <glyph glyph-name="ntilde" unicode="&#xf1;" horiz-adv-x="1173" 
d="M448 1364q80 0 190 -71q108 -71 142 -70q80 0 97 141h30v-18q0 -109 -54 -178q-54 -68 -130 -68t-184 70t-148 71q-78 0 -92 -137h-31q2 124 51 192t129 68zM358 242q0 -86 39 -127t127 -41v-74h-489v74q152 6 151 155v494l-137 78v47l258 96h51v-174h4q62 82 152 128
t176 46q301 0 301 -317v-389q0 -80 31 -118t115 -46v-74h-484v74q166 0 166 168v340q0 224 -207 224q-111 0 -254 -120v-444z" />
    <glyph glyph-name="ograve" unicode="&#xf2;" horiz-adv-x="1110" 
d="M354 1421h224l104 -346h-33zM283 545q0 -158 68 -314q34 -78 93 -128t136 -50q118 0 188 79t70 225t-63 315q-32 86 -94 141t-144 55q-254 1 -254 -323zM88 466q0 200 133 339t334 139t334 -133t133 -342t-132 -350t-327 -141t-335 144t-140 344z" />
    <glyph glyph-name="oacute" unicode="&#xf3;" horiz-adv-x="1110" 
d="M780 1421l-295 -346h-32l104 346h223zM283 545q0 -158 68 -314q34 -78 93 -128t136 -50q118 0 188 79t70 225t-63 315q-32 86 -94 141t-144 55q-254 1 -254 -323zM88 466q0 200 133 339t334 139t334 -133t133 -342t-132 -350t-327 -141t-335 144t-140 344z" />
    <glyph glyph-name="ocircumflex" unicode="&#xf4;" horiz-adv-x="1110" 
d="M463 1397h184l191 -330h-31l-272 215l-230 -215h-31zM283 545q0 -158 68 -314q34 -78 93 -128t136 -50q118 0 188 79t70 225t-63 315q-32 86 -94 141t-144 55q-254 1 -254 -323zM88 466q0 200 133 339t334 139t334 -133t133 -342t-132 -350t-327 -141t-335 144t-140 344z
" />
    <glyph glyph-name="otilde" unicode="&#xf5;" horiz-adv-x="1110" 
d="M417 1364q79 0 189 -71t144 -70q80 0 96 141h31v-18q-1 -109 -55 -178q-54 -68 -130 -68t-184 70t-148 71q-78 0 -92 -137h-30q2 124 51 192t128 68zM283 545q0 -158 68 -314q34 -78 93 -128t136 -50q118 0 188 79t70 225t-63 315q-32 86 -94 141t-144 55
q-254 1 -254 -323zM88 466q0 200 133 339t334 139t334 -133t133 -342t-132 -350t-327 -141t-335 144t-140 344z" />
    <glyph glyph-name="odieresis" unicode="&#xf6;" horiz-adv-x="1110" 
d="M381 1337q45 1 77 -31t32 -77t-32 -77t-77 -32t-77 32t-32 77t32 77t77 31zM733 1337q45 1 77 -31t32 -77t-32 -77t-77 -32t-77 32t-31 77q0 45 31 77q32 31 77 31zM283 545q0 -158 68 -314q34 -78 93 -128t136 -50q118 0 188 79t70 225t-63 315q-32 86 -94 141t-144 55
q-254 1 -254 -323zM88 466q0 200 133 339t334 139t334 -133t133 -342t-132 -350t-327 -141t-335 144t-140 344z" />
    <glyph glyph-name="divide" unicode="&#xf7;" horiz-adv-x="1368" 
d="M683 987q-40 0 -69 29q-28 28 -28 68t28 69q29 29 68 29t69 -30q29 -30 29 -69t-28 -67t-69 -29zM683 152q-40 0 -69 28q-28 28 -28 69t28 69t68 28q39 0 69 -30q29 -30 29 -68t-28 -68q-29 -28 -69 -28zM135 745h1096v-157h-1096v157z" />
    <glyph glyph-name="oslash" unicode="&#xf8;" horiz-adv-x="1110" 
d="M580 53q120 0 189 80t69 209q-1 177 -60 320l-405 -472q87 -137 207 -137zM524 868q-106 0 -174 -76t-68 -231q0 -156 54 -295l403 473q-76 129 -215 129zM88 478q0 192 133 329t309 137t310 -90l80 92l59 -49l-80 -96q123 -129 123 -336t-132 -347t-331 -141
q-152 0 -283 101l-83 -98l-62 49l86 104q-129 153 -129 345z" />
    <glyph glyph-name="ugrave" unicode="&#xf9;" horiz-adv-x="1173" 
d="M365 1421h223l104 -346h-33zM479 -23q-123 0 -199 66t-77 203v401q0 117 -32 148t-132 30v74l336 23v-572q0 -227 186 -227q125 0 260 106v418q0 117 -33 148t-143 30v74l348 23v-709q0 -72 29 -94t111 -4v-80l-312 -58v158q-170 -158 -342 -158z" />
    <glyph glyph-name="uacute" unicode="&#xfa;" horiz-adv-x="1173" 
d="M811 1421l-295 -346h-33l105 346h223zM479 -23q-123 0 -199 66t-77 203v401q0 117 -32 148t-132 30v74l336 23v-572q0 -227 186 -227q125 0 260 106v418q0 117 -33 148t-143 30v74l348 23v-709q0 -72 29 -94t111 -4v-80l-312 -58v158q-170 -158 -342 -158z" />
    <glyph glyph-name="ucircumflex" unicode="&#xfb;" horiz-adv-x="1173" 
d="M494 1397h184l190 -330h-30l-273 215l-229 -215h-31zM479 -23q-123 0 -199 66t-77 203v401q0 117 -32 148t-132 30v74l336 23v-572q0 -227 186 -227q125 0 260 106v418q0 117 -33 148t-143 30v74l348 23v-709q0 -72 29 -94t111 -4v-80l-312 -58v158q-170 -158 -342 -158z
" />
    <glyph glyph-name="udieresis" unicode="&#xfc;" horiz-adv-x="1173" 
d="M412 1337q44 1 76 -31t32 -77t-32 -77t-76 -32t-77 32q-32 32 -32 77t32 77t77 31zM764 1337q45 1 77 -31q31 -32 31 -77t-32 -77t-76 -32q-45 0 -77 32t-32 77t32 77t77 31zM479 -23q-123 0 -199 66t-77 203v401q0 117 -32 148t-132 30v74l336 23v-572q0 -227 186 -227
q125 0 260 106v418q0 117 -33 148t-143 30v74l348 23v-709q0 -72 29 -94t111 -4v-80l-312 -58v158q-170 -158 -342 -158z" />
    <glyph glyph-name="yacute" unicode="&#xfd;" horiz-adv-x="980" 
d="M715 1421l-295 -346h-33l105 346h223zM4 922h447v-74q-90 -2 -113 -39t12 -117l211 -483l176 448q35 79 6 133t-118 58v74h354v-74q-57 -12 -84 -43t-59 -113l-340 -864q-88 -219 -269 -219q-71 0 -117 33t-46 76q0 44 25 68q26 24 62 24q37 0 73 -33t83 -33
q94 0 170 246l-325 737q-37 84 -64 102t-84 19v74z" />
    <glyph glyph-name="thorn" unicode="&#xfe;" horiz-adv-x="1148" 
d="M346 342q0 -129 72 -203q72 -73 194 -73t197 91q76 91 76 273t-93 276q-93 95 -210 95t-236 -94v-365zM346 -147q0 -99 41 -135t133 -35v-74h-497v74q75 0 113 41t38 108v1366l-145 80v47l266 98h51v-632q154 153 327 153t278 -122t105 -328t-137 -361
q-138 -156 -333 -156q-121 1 -240 60v-184z" />
    <glyph glyph-name="ydieresis" unicode="&#xff;" horiz-adv-x="980" 
d="M315 1337q45 1 77 -31t32 -77t-32 -77t-77 -32t-77 32t-31 77q-1 45 31 77t77 31zM668 1337q44 1 76 -31t32 -77t-32 -77t-76 -32t-77 32q-32 32 -32 77t32 77t77 31zM4 922h447v-74q-90 -2 -113 -39t12 -117l211 -483l176 448q35 79 6 133t-118 58v74h354v-74
q-57 -12 -84 -43t-59 -113l-340 -864q-88 -219 -269 -219q-71 0 -117 33t-46 76q0 44 25 68q26 24 62 24q37 0 73 -33t83 -33q94 0 170 246l-325 737q-37 84 -64 102t-84 19v74z" />
    <glyph glyph-name="dotlessi" unicode="&#x131;" horiz-adv-x="555" 
d="M209 223v496l-156 78v47l277 100h51v-706q0 -160 127 -164v-74h-447v74q63 0 105 38t43 111z" />
    <glyph glyph-name="Lslash" unicode="&#x141;" horiz-adv-x="1386" 
d="M492 358q0 -143 61 -206t209 -64h182q137 0 231 58q93 58 171 196h86l-86 -342h-1301v78q143 8 187 54t44 181v291l-215 -168v119l215 168v391q0 109 -49 157t-182 48v78h678v-78q-133 0 -182 -50t-49 -147v-264l270 211v-119l-270 -211v-381z" />
    <glyph glyph-name="lslash" unicode="&#x142;" horiz-adv-x="555" 
d="M371 244q0 -162 127 -170v-74h-441v74q141 8 142 155v342l-185 -174v103l185 172v532l-142 78v47l262 94h52v-624l170 162v-103l-170 -158v-456z" />
    <glyph glyph-name="OE" unicode="&#x152;" horiz-adv-x="2111" 
d="M772 94q166 0 271 155t105 419t-118 451q-119 187 -295 187q-175 0 -285 -136t-110 -370t92 -450q47 -112 136 -184t204 -72zM1546 776q117 0 161 42t52 159h94v-504h-94q-18 127 -65 171t-160 44h-137q0 -190 -77 -332t-247 -264v-4h537q120 0 194 60t170 208h86
l-69 -356h-1215q-170 0 -304 60q-243 109 -338 389q-42 123 -42 258q0 313 194 501t515 189h1155v-320h-72q-33 72 -52 106q-19 35 -60 69q-40 34 -100 45t-156 12h-453v-4q293 -150 330 -529h153z" />
    <glyph glyph-name="oe" unicode="&#x153;" horiz-adv-x="1556" 
d="M1100 868q-162 0 -180 -223h374q-8 109 -60 166t-134 57zM291 526q0 -473 256 -473q211 0 211 330q0 215 -65 350t-189 135q-213 0 -213 -342zM1247 141q137 0 228 119l43 -27q-46 -117 -142 -187t-209 -69q-190 0 -319 152q-138 -152 -322 -152q-184 -1 -306 135
t-122 345q0 111 44 219t148 188t245 80q184 0 313 -143q61 79 128 111t165 32q315 0 356 -373h-577q10 -250 100 -340t227 -90z" />
    <glyph glyph-name="Scaron" unicode="&#x160;" horiz-adv-x="1216" 
d="M702 1524h-184l-190 329h30l273 -215l229 215h31zM121 426h88q68 -352 379 -352q127 0 217 68t90 152q1 84 -67 152t-282 192t-305 215t-91 216q0 158 131 255t347 97t425 -116v-301h-88q-11 154 -109 242t-244 87q-106 0 -179 -56t-73 -134q0 -77 58 -135t275 -184
q218 -126 300 -208q113 -113 113 -254q0 -170 -143 -278t-369 -109q-113 0 -255 30t-218 69v352z" />
    <glyph glyph-name="scaron" unicode="&#x161;" horiz-adv-x="811" 
d="M500 1085h-185l-190 330h31l272 -215l229 215h31zM596 635q-44 233 -203 233q-78 0 -119 -36t-41 -102q0 -67 79 -116t192 -97t158 -93q66 -66 66 -184t-85 -190q-83 -73 -241 -73t-289 66v258h67q33 -248 219 -248q82 0 135 41q52 42 52 100t-46 98t-108 62t-147 68
q-85 45 -143 103t-58 168q0 111 84 181t231 70t260 -88v-221h-63z" />
    <glyph glyph-name="Ydieresis" unicode="&#x178;" horiz-adv-x="1472" 
d="M561 1776q45 0 77 -32t32 -77t-32 -77t-77 -32t-77 32t-31 77q0 45 31 77q32 32 77 32zM913 1776q45 0 77 -32t32 -77t-32 -77t-77 -32t-77 32t-31 77q-1 45 31 77t77 32zM846 270q0 -193 205 -192v-78h-629v78q209 0 209 194v314l-428 626q-63 94 -187 107v78h615v-78
q-119 0 -150 -50t27 -130l305 -445l238 348q76 106 49 188t-148 89v78h504v-78q-61 -8 -110 -49t-125 -150l-375 -534v-316z" />
    <glyph glyph-name="Zcaron" unicode="&#x17d;" horiz-adv-x="1386" 
d="M786 1524h-184l-190 329h30l273 -215l229 215h31zM61 0v61l934 1248h-413q-143 0 -213 -47t-129 -183h-76v318h1118v-60l-942 -1249h408q200 0 290 51t213 223h80l-92 -362h-1178z" />
    <glyph glyph-name="zcaron" unicode="&#x17e;" horiz-adv-x="892" 
d="M541 1085h-185l-190 330h31l272 -215l229 215h31zM492 74q121 0 183 53t109 164h74l-43 -291h-786v33l600 815h-215q-92 0 -154 -33t-121 -110h-57v251h45q29 -26 53 -30t90 -4h568v-74l-578 -774h232z" />
    <glyph glyph-name="florin" unicode="&#x192;" horiz-adv-x="1185" 
d="M1038 1423q53 0 94 -32q40 -33 40 -73t-24 -65t-56 -25q-59 1 -74 54t-60 53q-44 0 -72 -57t-55 -174l-53 -232h178l-24 -77h-178l-158 -639q-61 -250 -170 -398t-260 -149q-70 0 -112 30q-42 31 -42 73t23 65t61 23t76 -52q37 -51 68 -51q32 1 56 25q49 49 95 251
l201 822h-215l24 77h215q141 551 422 551z" />
    <glyph glyph-name="circumflex" unicode="&#x2c6;" 
d="M248 1397h184l191 -330h-31l-273 215l-229 -215h-31z" />
    <glyph glyph-name="caron" unicode="&#x2c7;" 
d="M434 1085h-184l-191 330h31l272 -215l230 215h31z" />
    <glyph glyph-name="uni02C9" unicode="&#x2c9;" 
d="M23 1294h636v-129h-636v129z" />
    <glyph glyph-name="breve" unicode="&#x2d8;" 
d="M352 1280q194 0 242 127h33q-8 -123 -89 -201t-197 -78t-196 77t-90 202h31q72 -127 266 -127z" />
    <glyph glyph-name="dotaccent" unicode="&#x2d9;" 
d="M342 1337q45 1 77 -31t32 -77t-32 -77t-77 -32t-77 32t-32 77t32 77t77 31z" />
    <glyph glyph-name="ring" unicode="&#x2da;" 
d="M340 1352q-51 0 -86 -35t-35 -86t35 -87t86 -36t87 36t36 87t-36 86t-87 35zM340 1421q80 0 136 -55t56 -135t-56 -136q-56 -57 -136 -57t-135 56t-55 137q0 80 55 135t135 55z" />
    <glyph glyph-name="ogonek" unicode="&#x2db;" 
d="M254 -84q0 -90 64 -142t134 -52q68 0 136 22l20 -31q-86 -47 -129 -61t-123 -14t-145 51q-63 51 -63 150t81 177h52q-27 -53 -27 -100z" />
    <glyph glyph-name="tilde" unicode="&#x2dc;" 
d="M203 1364q81 0 189 -71t143 -70q80 0 96 141h31v-18q0 -109 -54 -178q-54 -68 -131 -68q-76 0 -184 70t-148 71q-78 0 -92 -137h-30q2 124 51 192t129 68z" />
    <glyph glyph-name="hungarumlaut" unicode="&#x2dd;" 
d="M643 1421l-217 -346h-35l66 346h186zM330 1421l-217 -346h-35l65 346h187z" />
    <glyph glyph-name="uni03A9" unicode="&#x3a9;" horiz-adv-x="1478" 
d="M733 1294q-173 0 -281 -138t-108 -435q0 -104 18 -165q18 -60 25 -93q8 -33 32 -83t32 -72q7 -22 39 -76t38 -65t42 -69t36 -59l-16 -39h-473l-47 279l47 2q31 -92 61 -121t94 -29h213q-243 204 -306 396q-32 97 -32 208q0 279 169 449t427 170t421 -162t163 -440
q0 -194 -118 -363q-92 -132 -226 -258h223q66 0 92 26t60 124l51 -2l-51 -279h-477l-13 39q211 337 248 528q16 82 17 164q-2 291 -115 427t-285 136z" />
    <glyph glyph-name="uni03BC" unicode="&#x3bc;" horiz-adv-x="1024" 
d="M113 922h172v-586q-1 -125 33 -180t108 -56q125 0 229 133v689h172v-727q-1 -51 19 -80t47 -29q61 0 80 123h43q-2 -115 -60 -173t-136 -58t-114 41q-36 42 -51 149q-83 -102 -155 -146t-163 -44t-144 88h-5q0 -129 25 -241t25 -155q0 -42 -27 -74t-68 -32t-65 30t-23 72
q0 43 29 163t29 286v807z" />
    <glyph glyph-name="pi" unicode="&#x3c0;" horiz-adv-x="1132" 
d="M948 88q45 0 99 59l26 -38q-74 -131 -207 -132q-84 -1 -130 55t-46 208t23 487q-242 4 -320 4v-37q0 -201 -36 -407t-95 -277q-72 -31 -117 -33l-12 33q98 119 142 327t44 396q-118 0 -186 -41q-25 -14 -72 -49l-28 43q74 88 117 119q88 61 219 59l540 -6q47 0 71 12
q23 13 48 54l47 -19q-20 -104 -69 -174q-33 -8 -138 -8q-10 -98 -10 -457q4 -178 90 -178z" />
    <glyph glyph-name="endash" unicode="&#x2013;" horiz-adv-x="1024" 
d="M-12 553h1048v-88h-1048v88z" />
    <glyph glyph-name="emdash" unicode="&#x2014;" horiz-adv-x="2048" 
d="M-12 553h2072v-88h-2072v88z" />
    <glyph glyph-name="quoteleft" unicode="&#x2018;" horiz-adv-x="598" 
d="M248 1147q0 -70 71 -70q137 0 138 -108q0 -53 -35 -85q-36 -32 -106 -32t-128 64q-57 66 -57 176q1 110 77 201t228 130l31 -69q-219 -68 -219 -207z" />
    <glyph glyph-name="quoteright" unicode="&#x2019;" horiz-adv-x="598" 
d="M350 1128q0 70 -71 70q-137 0 -138 109q0 53 35 85q36 32 106 32t128 -65q57 -65 57 -175q-1 -110 -77 -202q-76 -91 -228 -130l-31 70q219 68 219 206z" />
    <glyph glyph-name="quotesinglbase" unicode="&#x201a;" 
d="M391 37q0 39 -17 55t-59 17q-133 0 -133 108q0 51 34 84t104 33t130 -65q58 -65 58 -173t-76 -202q-76 -93 -231 -130l-29 66q219 78 219 207z" />
    <glyph glyph-name="quotedblleft" unicode="&#x201c;" horiz-adv-x="1044" 
d="M242 1147q0 -70 71 -70q137 0 138 -108q0 -53 -35 -85q-36 -32 -106 -32t-128 64q-57 66 -57 176q1 110 77 201t228 130l31 -69q-219 -68 -219 -207zM772 1077q137 0 137 -108q0 -53 -35 -85q-36 -32 -106 -32t-127 64t-57 176q0 110 76 201q77 91 229 130l31 -69
q-219 -68 -220 -207q0 -70 72 -70z" />
    <glyph glyph-name="quotedblright" unicode="&#x201d;" horiz-adv-x="1044" 
d="M344 1128q0 70 -72 70q-137 0 -137 109q0 53 35 85q36 32 106 32t127 -66q57 -64 57 -174t-76 -202q-76 -91 -228 -130l-31 70q219 68 219 206zM803 1128q0 70 -72 70q-137 0 -137 109q0 53 35 85t105 32t128 -66q58 -64 58 -174t-77 -202q-77 -91 -229 -130l-30 70
q219 68 219 206z" />
    <glyph glyph-name="quotedblbase" unicode="&#x201e;" horiz-adv-x="1044" 
d="M344 37q0 39 -17 55t-59 17q-133 0 -133 108q0 51 34 84q35 33 105 33t128 -65t58 -173t-74 -202q-76 -93 -232 -130l-29 66q219 78 219 207zM803 37q1 39 -17 55t-59 17q-133 0 -133 108q0 51 34 84t104 33t129 -65t59 -173t-76 -202q-76 -93 -232 -130l-28 66
q219 78 219 207z" />
    <glyph glyph-name="dagger" unicode="&#x2020;" horiz-adv-x="1067" 
d="M1012 786q0 -51 -20 -67t-70 -6l-342 63l69 -1077q4 -49 -12 -69t-68 -21h-73q-51 0 -68 20q-16 20 -12 70l69 1077l-342 -63q-49 -10 -69 6t-21 67v62q1 51 21 67t69 7l342 -64l-57 483q-6 51 6 71t62 20h73q49 0 61 -20t7 -71l-57 -483l342 64q49 10 69 -6t21 -68v-62z
" />
    <glyph glyph-name="daggerdbl" unicode="&#x2021;" horiz-adv-x="1024" 
d="M952 176v-74q0 -51 -20 -67t-70 -6l-311 63l70 -393q9 -51 -5 -71t-63 -19h-82q-49 0 -62 19t-6 71l70 393l-311 -63q-49 -10 -70 6q-20 16 -20 67v74q0 52 20 68t70 6l311 -76l-37 346l37 346l-311 -75q-49 -10 -70 6q-20 16 -20 67v74q0 52 20 68t70 6l311 -64l-70 393
q-9 51 5 71t63 20h82q49 0 62 -20t6 -71l-70 -393l311 64q50 10 70 -6t20 -68v-74q0 -51 -20 -67t-70 -6l-311 75l35 -346l-35 -346l311 76q50 10 70 -6t20 -68z" />
    <glyph glyph-name="bullet" unicode="&#x2022;" horiz-adv-x="716" 
d="M358 928q104 0 178 -73t74 -177t-74 -178t-178 -74t-177 74t-72 178q0 104 72 177q73 73 177 73z" />
    <glyph glyph-name="ellipsis" unicode="&#x2026;" horiz-adv-x="2048" 
d="M217 103q0 52 37 89t89 37q52 -1 89 -37t37 -88t-38 -89q-38 -38 -89 -38t-88 37t-37 89zM1024 229q53 -1 90 -37t37 -88t-37 -89q-37 -38 -89 -38t-89 37t-37 89t36 89t89 37zM1581 103q0 52 37 89t89 37q52 -1 89 -37t37 -88t-38 -89q-38 -38 -89 -38t-88 37t-37 89z
" />
    <glyph glyph-name="perthousand" unicode="&#x2030;" horiz-adv-x="2217" 
d="M324 -45h-107l948 1491h105zM360 1368q-147 0 -147 -310t151 -310t150 296q0 168 -37 246t-117 78zM63 1054q0 159 85 263q86 104 216 104t215 -103t85 -260t-85 -260q-85 -104 -215 -104t-216 100t-85 260zM1124 649q-147 0 -147 -310q1 -310 151 -310t150 297
q0 168 -37 246t-117 77zM827 335q0 159 85 263t215 104t215 -103t85 -260t-85 -260t-215 -103t-215 100t-85 259zM1851 649q-147 0 -147 -310t150 -310t151 297q0 168 -37 246t-117 77zM1854 702q130 0 216 -103t84 -260q0 -157 -84 -260t-216 -103q-130 0 -215 100t-85 259
t85 263t215 104z" />
    <glyph glyph-name="guilsinglleft" unicode="&#x2039;" horiz-adv-x="512" 
d="M250 516l184 -450h-49l-303 450l303 451h49z" />
    <glyph glyph-name="guilsinglright" unicode="&#x203a;" horiz-adv-x="512" 
d="M262 516l-184 451h49l303 -451l-303 -450h-49z" />
    <glyph glyph-name="fraction" unicode="&#x2044;" horiz-adv-x="491" 
d="M-162 -45h-108l944 1491h108z" />
    <glyph glyph-name="Euro" unicode="&#x20ac;" horiz-adv-x="1130" 
d="M696 61q144 0 273 121l53 -57q-45 -49 -139 -99t-217 -51q-199 0 -337 151t-167 396h-127l16 88h103v37q0 51 2 76h-121l16 88h117q39 233 172 390t344 157q145 0 311 -92l31 -273h-65q-88 281 -291 281q-125 0 -211 -119t-105 -344h609l-23 -88h-592v-43q0 -47 2 -70
h572l-23 -88h-543q25 -209 111 -335q85 -126 229 -126z" />
    <glyph glyph-name="afii61289" unicode="&#x2113;" horiz-adv-x="817" 
d="M342 932v-248q193 225 193 481q0 89 -24 145t-69 56q-56 0 -78 -97t-22 -337zM451 -20q-135 0 -202 78t-67 280v156l-123 -88l-24 47l145 112v250q0 242 21 344q20 102 86 176q74 92 166 92q92 -1 139 -75t47 -208q0 -252 -297 -550v-174q0 -186 45 -260t137 -74
q119 0 221 145l37 -32q-121 -219 -331 -219z" />
    <glyph glyph-name="trademark" unicode="&#x2122;" horiz-adv-x="2007" 
d="M1974 1360v-37q-72 -2 -91 -26t-19 -111v-467q0 -84 17 -106t93 -25v-35h-399v35q76 2 96 24t21 107v491h-4l-299 -657h-33l-305 649h-4v-483q0 -82 18 -107t78 -24h35v-35h-308v35q74 0 94 23q19 24 19 108v467q0 92 -18 114t-95 23v37h287l273 -574l262 574h282z
M504 1300v-581q0 -82 17 -105t83 -26v-35h-375v35q70 8 86 28t17 103v581h-78q-92 0 -134 -30t-57 -111h-32l20 201h729l21 -201h-33q-14 78 -56 110t-137 31h-71z" />
    <glyph glyph-name="Omega" unicode="&#x2126;" horiz-adv-x="1478" 
d="M733 1294q-173 0 -281 -138t-108 -435q0 -104 18 -165q18 -60 25 -93q8 -33 32 -83t32 -72q7 -22 39 -76t38 -65t42 -69t36 -59l-16 -39h-473l-47 279l47 2q31 -92 61 -121t94 -29h213q-243 204 -306 396q-32 97 -32 208q0 279 169 449t427 170t421 -162t163 -440
q0 -194 -118 -363q-92 -132 -226 -258h223q66 0 92 26t60 124l51 -2l-51 -279h-477l-13 39q211 337 248 528q16 82 17 164q-2 291 -115 427t-285 136z" />
    <glyph glyph-name="estimated" unicode="&#x212e;" horiz-adv-x="1667" 
d="M1319 696v379q0 27 -19 45q-200 197 -468 197t-467 -203q-18 -18 -19 -47v-371q0 -12 10 -12h955q8 0 8 12zM1599 647h-1243q-10 0 -10 -8v-377q0 -23 16 -43q199 -205 484 -205t483 230h109q-102 -123 -263 -195t-344 -72q-317 0 -542 202t-225 488q0 287 224 489
q226 202 544 202t542 -203t225 -489v-19z" />
    <glyph glyph-name="partialdiff" unicode="&#x2202;" horiz-adv-x="1062" 
d="M569 764h-2q-137 0 -221 -115q-88 -129 -88 -354q-2 -109 51 -183t146 -73q137 0 233 203q66 137 100 376q-25 50 -85 98t-134 48zM526 842h2q74 0 151 -37t124 -105q14 156 16 205q7 310 -160 442q-72 56 -157 56q-139 0 -279 -115q-25 -4 -49 43t-10 80q129 82 285 82
q262 0 413 -276q98 -182 98 -461t-96 -480q-141 -297 -409 -296q-168 0 -269 105q-100 105 -100 291t119 320q57 66 143 106t178 40z" />
    <glyph glyph-name="Delta" unicode="&#x2206;" horiz-adv-x="1273" 
d="M991 90l-411 1026l-404 -1026h815zM1202 0h-1132v47l520 1284l78 23l534 -1307v-47z" />
    <glyph glyph-name="product" unicode="&#x220f;" horiz-adv-x="1374" 
d="M1317 1339v-49q-127 -8 -155 -30t-27 -103v-1118q-1 -96 27 -121t151 -33v-51h-514v51q119 8 143 31t25 123v1171q1 42 -13 54t-57 12h-426q-41 0 -53 -10t-12 -47v-1180q0 -98 22 -122t131 -32v-51h-500v51q121 10 149 34t28 120v1118q0 82 -28 104t-155 29v49h1264z
" />
    <glyph glyph-name="summation" unicode="&#x2211;" horiz-adv-x="1110" 
d="M55 -172v47l449 670l-436 747v47h909q0 -12 24 -317l-53 -10q-29 144 -58 192q-30 48 -70 61t-146 13h-393l372 -627l-446 -678h524q133 0 175 35t104 203l53 -14l-86 -369h-922z" />
    <glyph glyph-name="minus" unicode="&#x2212;" horiz-adv-x="1366" 
d="M135 745h1096v-157h-1096v157z" />
    <glyph glyph-name="uni2215" unicode="&#x2215;" horiz-adv-x="491" 
d="M-162 -45h-108l944 1491h108z" />
    <glyph glyph-name="uni2219" unicode="&#x2219;" horiz-adv-x="598" 
d="M298 797q52 0 89 -37t37 -89t-38 -89t-89 -37t-88 37t-37 90t37 89t89 36z" />
    <glyph glyph-name="radical" unicode="&#x221a;" horiz-adv-x="1095" 
d="M1063 1716l-332 -1999l-39 -22l-436 1067l-172 -84l-23 63l308 148l340 -860h4l272 1706z" />
    <glyph glyph-name="infinity" unicode="&#x221e;" horiz-adv-x="1492" 
d="M1100 754h-2q-75 0 -137 -51t-104 -100q-42 -48 -48 -54q103 -117 163 -162t137 -45t127 62t50 150t-52 144t-134 56zM401 342h2q77 0 143 56q19 16 29 24t32 31t38 38t43 50q-43 55 -64 80q-80 90 -133 111t-100 22q-84 0 -135 -60t-51 -148t55 -146t141 -58zM1397 553
v-2q0 -139 -89 -226t-210 -87q-86 0 -168 53t-182 172q-92 -109 -174 -167t-194 -58q-114 0 -200 88t-86 221t87 221t203 88t198 -58q84 -58 174 -165q112 123 184 173t184 50t193 -84q80 -84 80 -219z" />
    <glyph glyph-name="integral" unicode="&#x222b;" horiz-adv-x="737" 
d="M580 1636q44 0 80 -24t36 -64q0 -42 -24 -64t-60 -22q-34 0 -58 45t-44 45q-98 0 -84 -327l37 -746q41 -864 -301 -864q-51 0 -85 28q-34 29 -35 65t29 63q31 27 65 27t58 -49q24 -48 44 -48q45 0 67 90t14 240l-38 792q-41 813 299 813z" />
    <glyph glyph-name="approxequal" unicode="&#x2248;" horiz-adv-x="1083" 
d="M741 252q-86 0 -210 72t-186 72t-105 -38q-43 -37 -88 -104l-72 61q45 87 118 137t145 50t127 -23t79 -39q25 -16 43 -26t35 -21t33 -16t39 -11t62 -6q77 0 167 142l69 -64q-98 -186 -256 -186zM743 588q-86 0 -210 72t-186 71q-62 0 -105 -36t-90 -105l-72 63
q45 84 118 134q73 51 144 51t107 -16q35 -16 46 -19q11 -4 42 -21l30 -18q107 -66 178 -68q97 1 183 142l69 -64q-98 -186 -254 -186z" />
    <glyph glyph-name="notequal" unicode="&#x2260;" horiz-adv-x="1083" 
d="M985 786v-108h-334l-125 -272h459v-109h-504l-102 -225l-86 39l84 186h-281v109h326l123 272h-449v108h494l100 222l88 -39l-84 -183h291z" />
    <glyph glyph-name="lessequal" unicode="&#x2264;" horiz-adv-x="1083" 
d="M987 2h-889v113h889v-113zM981 190l-875 431v114l875 430v-129l-758 -354v-4l758 -361v-127z" />
    <glyph glyph-name="greaterequal" unicode="&#x2265;" horiz-adv-x="1083" 
d="M985 2h-887v113h887v-113zM109 1165l874 -430v-117l-874 -428v127l757 359v4l-757 356v129z" />
    <glyph glyph-name="lozenge" unicode="&#x25ca;" horiz-adv-x="1112" 
d="M891 643l-330 668h-6l-334 -666l334 -668h6zM1018 643l-397 -782h-129l-396 782l400 789h125z" />
    </font>
</defs>
</svg>
